G04 #@! TF.GenerationSoftware,KiCad,Pcbnew,5.0.1-33cea8e~67~ubuntu18.04.1*
G04 #@! TF.CreationDate,2019-01-15T14:32:31-08:00*
G04 #@! TF.ProjectId,fk-naturalist-sensors,666B2D6E61747572616C6973742D7365,rev?*
G04 #@! TF.SameCoordinates,Original*
G04 #@! TF.FileFunction,Soldermask,Top*
G04 #@! TF.FilePolarity,Negative*
%FSLAX46Y46*%
G04 Gerber Fmt 4.6, Leading zero omitted, Abs format (unit mm)*
G04 Created by KiCad (PCBNEW 5.0.1-33cea8e~67~ubuntu18.04.1) date Tue 15 Jan 2019 02:32:31 PM PST*
%MOMM*%
%LPD*%
G01*
G04 APERTURE LIST*
%ADD10C,0.100000*%
G04 APERTURE END LIST*
D10*
G36*
X237386393Y-127343553D02*
X237495872Y-127365330D01*
X237805252Y-127493479D01*
X238083687Y-127679523D01*
X238320477Y-127916313D01*
X238506521Y-128194748D01*
X238634670Y-128504128D01*
X238700000Y-128832565D01*
X238700000Y-129167435D01*
X238634670Y-129495872D01*
X238506521Y-129805252D01*
X238320477Y-130083687D01*
X238083687Y-130320477D01*
X237805252Y-130506521D01*
X237495872Y-130634670D01*
X237386393Y-130656447D01*
X237167437Y-130700000D01*
X236832563Y-130700000D01*
X236613607Y-130656447D01*
X236504128Y-130634670D01*
X236194748Y-130506521D01*
X235916313Y-130320477D01*
X235679523Y-130083687D01*
X235493479Y-129805252D01*
X235365330Y-129495872D01*
X235300000Y-129167435D01*
X235300000Y-128832565D01*
X235365330Y-128504128D01*
X235493479Y-128194748D01*
X235679523Y-127916313D01*
X235916313Y-127679523D01*
X236194748Y-127493479D01*
X236504128Y-127365330D01*
X236613607Y-127343553D01*
X236832563Y-127300000D01*
X237167437Y-127300000D01*
X237386393Y-127343553D01*
X237386393Y-127343553D01*
G37*
G36*
X224672800Y-130366400D02*
X223372800Y-130366400D01*
X223372800Y-129166400D01*
X224672800Y-129166400D01*
X224672800Y-130366400D01*
X224672800Y-130366400D01*
G37*
G36*
X222972800Y-130366400D02*
X221672800Y-130366400D01*
X221672800Y-129166400D01*
X222972800Y-129166400D01*
X222972800Y-130366400D01*
X222972800Y-130366400D01*
G37*
G36*
X228441657Y-128928554D02*
X227241657Y-128928554D01*
X227241657Y-127628554D01*
X228441657Y-127628554D01*
X228441657Y-128928554D01*
X228441657Y-128928554D01*
G37*
G36*
X230168857Y-128928554D02*
X228968857Y-128928554D01*
X228968857Y-127628554D01*
X230168857Y-127628554D01*
X230168857Y-128928554D01*
X230168857Y-128928554D01*
G37*
G36*
X222428354Y-126245334D02*
X222449965Y-126256885D01*
X222473414Y-126263998D01*
X222497800Y-126266400D01*
X223847800Y-126266400D01*
X223872186Y-126263998D01*
X223895635Y-126256885D01*
X223917246Y-126245334D01*
X223922039Y-126241400D01*
X224722800Y-126241400D01*
X224722800Y-128191400D01*
X223922039Y-128191400D01*
X223917246Y-128187466D01*
X223895635Y-128175915D01*
X223872186Y-128168802D01*
X223847800Y-128166400D01*
X222497800Y-128166400D01*
X222473414Y-128168802D01*
X222449965Y-128175915D01*
X222428354Y-128187466D01*
X222423561Y-128191400D01*
X221622800Y-128191400D01*
X221622800Y-126241400D01*
X222423561Y-126241400D01*
X222428354Y-126245334D01*
X222428354Y-126245334D01*
G37*
G36*
X234420234Y-128138113D02*
X233220234Y-128138113D01*
X233220234Y-126838113D01*
X234420234Y-126838113D01*
X234420234Y-128138113D01*
X234420234Y-128138113D01*
G37*
G36*
X231786255Y-125611160D02*
X231952227Y-125679908D01*
X232101603Y-125779718D01*
X232228629Y-125906744D01*
X232328439Y-126056120D01*
X232397187Y-126222092D01*
X232432234Y-126398287D01*
X232432234Y-126577939D01*
X232397187Y-126754134D01*
X232328439Y-126920106D01*
X232228629Y-127069482D01*
X232101603Y-127196508D01*
X231952227Y-127296318D01*
X231786255Y-127365066D01*
X231610060Y-127400113D01*
X231430408Y-127400113D01*
X231254213Y-127365066D01*
X231088241Y-127296318D01*
X230938865Y-127196508D01*
X230811839Y-127069482D01*
X230712029Y-126920106D01*
X230643281Y-126754134D01*
X230608234Y-126577939D01*
X230608234Y-126398287D01*
X230643281Y-126222092D01*
X230712029Y-126056120D01*
X230811839Y-125906744D01*
X230938865Y-125779718D01*
X231088241Y-125679908D01*
X231254213Y-125611160D01*
X231430408Y-125576113D01*
X231610060Y-125576113D01*
X231786255Y-125611160D01*
X231786255Y-125611160D01*
G37*
G36*
X228441657Y-127228554D02*
X227241657Y-127228554D01*
X227241657Y-125928554D01*
X228441657Y-125928554D01*
X228441657Y-127228554D01*
X228441657Y-127228554D01*
G37*
G36*
X230168857Y-127228554D02*
X228968857Y-127228554D01*
X228968857Y-125928554D01*
X230168857Y-125928554D01*
X230168857Y-127228554D01*
X230168857Y-127228554D01*
G37*
G36*
X234420234Y-126438113D02*
X233220234Y-126438113D01*
X233220234Y-125138113D01*
X234420234Y-125138113D01*
X234420234Y-126438113D01*
X234420234Y-126438113D01*
G37*
G36*
X225956370Y-123907172D02*
X226072289Y-123930229D01*
X226254278Y-124005611D01*
X226418063Y-124115049D01*
X226557351Y-124254337D01*
X226666789Y-124418122D01*
X226742171Y-124600111D01*
X226780600Y-124793309D01*
X226780600Y-124990291D01*
X226742171Y-125183489D01*
X226666789Y-125365478D01*
X226557351Y-125529263D01*
X226418063Y-125668551D01*
X226254278Y-125777989D01*
X226072289Y-125853371D01*
X225956370Y-125876428D01*
X225879093Y-125891800D01*
X225682107Y-125891800D01*
X225604830Y-125876428D01*
X225488911Y-125853371D01*
X225306922Y-125777989D01*
X225143137Y-125668551D01*
X225003849Y-125529263D01*
X224894411Y-125365478D01*
X224819029Y-125183489D01*
X224780600Y-124990291D01*
X224780600Y-124793309D01*
X224819029Y-124600111D01*
X224894411Y-124418122D01*
X225003849Y-124254337D01*
X225143137Y-124115049D01*
X225306922Y-124005611D01*
X225488911Y-123930229D01*
X225604830Y-123907172D01*
X225682107Y-123891800D01*
X225879093Y-123891800D01*
X225956370Y-123907172D01*
X225956370Y-123907172D01*
G37*
G36*
X231092400Y-124247200D02*
X229792400Y-124247200D01*
X229792400Y-123047200D01*
X231092400Y-123047200D01*
X231092400Y-124247200D01*
X231092400Y-124247200D01*
G37*
G36*
X232792400Y-124247200D02*
X231492400Y-124247200D01*
X231492400Y-123047200D01*
X232792400Y-123047200D01*
X232792400Y-124247200D01*
X232792400Y-124247200D01*
G37*
G36*
X235303570Y-121697372D02*
X235419489Y-121720429D01*
X235601478Y-121795811D01*
X235765263Y-121905249D01*
X235904551Y-122044537D01*
X236013989Y-122208322D01*
X236089371Y-122390311D01*
X236127800Y-122583509D01*
X236127800Y-122780491D01*
X236089371Y-122973689D01*
X236013989Y-123155678D01*
X235904551Y-123319463D01*
X235765263Y-123458751D01*
X235601478Y-123568189D01*
X235419489Y-123643571D01*
X235303570Y-123666628D01*
X235226293Y-123682000D01*
X235029307Y-123682000D01*
X234952030Y-123666628D01*
X234836111Y-123643571D01*
X234654122Y-123568189D01*
X234490337Y-123458751D01*
X234351049Y-123319463D01*
X234241611Y-123155678D01*
X234166229Y-122973689D01*
X234127800Y-122780491D01*
X234127800Y-122583509D01*
X234166229Y-122390311D01*
X234241611Y-122208322D01*
X234351049Y-122044537D01*
X234490337Y-121905249D01*
X234654122Y-121795811D01*
X234836111Y-121720429D01*
X234952030Y-121697372D01*
X235029307Y-121682000D01*
X235226293Y-121682000D01*
X235303570Y-121697372D01*
X235303570Y-121697372D01*
G37*
G36*
X230113600Y-120394000D02*
X228913600Y-120394000D01*
X228913600Y-119094000D01*
X230113600Y-119094000D01*
X230113600Y-120394000D01*
X230113600Y-120394000D01*
G37*
G36*
X235356400Y-120086000D02*
X234056400Y-120086000D01*
X234056400Y-119386000D01*
X235356400Y-119386000D01*
X235356400Y-120086000D01*
X235356400Y-120086000D01*
G37*
G36*
X232856400Y-120086000D02*
X231556400Y-120086000D01*
X231556400Y-119386000D01*
X232856400Y-119386000D01*
X232856400Y-120086000D01*
X232856400Y-120086000D01*
G37*
G36*
X235356400Y-118836000D02*
X234056400Y-118836000D01*
X234056400Y-118136000D01*
X235356400Y-118136000D01*
X235356400Y-118836000D01*
X235356400Y-118836000D01*
G37*
G36*
X232856400Y-118836000D02*
X231556400Y-118836000D01*
X231556400Y-118136000D01*
X232856400Y-118136000D01*
X232856400Y-118836000D01*
X232856400Y-118836000D01*
G37*
G36*
X230113600Y-118694000D02*
X228913600Y-118694000D01*
X228913600Y-117394000D01*
X230113600Y-117394000D01*
X230113600Y-118694000D01*
X230113600Y-118694000D01*
G37*
G36*
X232856400Y-117586000D02*
X231556400Y-117586000D01*
X231556400Y-116886000D01*
X232856400Y-116886000D01*
X232856400Y-117586000D01*
X232856400Y-117586000D01*
G37*
G36*
X235356400Y-117586000D02*
X234056400Y-117586000D01*
X234056400Y-116886000D01*
X235356400Y-116886000D01*
X235356400Y-117586000D01*
X235356400Y-117586000D01*
G37*
G36*
X230113600Y-116888800D02*
X228913600Y-116888800D01*
X228913600Y-115588800D01*
X230113600Y-115588800D01*
X230113600Y-116888800D01*
X230113600Y-116888800D01*
G37*
G36*
X235356400Y-116336000D02*
X234056400Y-116336000D01*
X234056400Y-115636000D01*
X235356400Y-115636000D01*
X235356400Y-116336000D01*
X235356400Y-116336000D01*
G37*
G36*
X232856400Y-116336000D02*
X231556400Y-116336000D01*
X231556400Y-115636000D01*
X232856400Y-115636000D01*
X232856400Y-116336000D01*
X232856400Y-116336000D01*
G37*
G36*
X230113600Y-115188800D02*
X228913600Y-115188800D01*
X228913600Y-113888800D01*
X230113600Y-113888800D01*
X230113600Y-115188800D01*
X230113600Y-115188800D01*
G37*
G36*
X239040800Y-114239600D02*
X237740800Y-114239600D01*
X237740800Y-113039600D01*
X239040800Y-113039600D01*
X239040800Y-114239600D01*
X239040800Y-114239600D01*
G37*
G36*
X237340800Y-114239600D02*
X236040800Y-114239600D01*
X236040800Y-113039600D01*
X237340800Y-113039600D01*
X237340800Y-114239600D01*
X237340800Y-114239600D01*
G37*
G36*
X232806400Y-114236000D02*
X231506400Y-114236000D01*
X231506400Y-113036000D01*
X232806400Y-113036000D01*
X232806400Y-114236000D01*
X232806400Y-114236000D01*
G37*
G36*
X234506400Y-114236000D02*
X233206400Y-114236000D01*
X233206400Y-113036000D01*
X234506400Y-113036000D01*
X234506400Y-114236000D01*
X234506400Y-114236000D01*
G37*
G36*
X238414403Y-112340053D02*
X236564403Y-112340053D01*
X236564403Y-109440053D01*
X238414403Y-109440053D01*
X238414403Y-112340053D01*
X238414403Y-112340053D01*
G37*
G36*
X233962500Y-111101000D02*
X232762500Y-111101000D01*
X232762500Y-109801000D01*
X233962500Y-109801000D01*
X233962500Y-111101000D01*
X233962500Y-111101000D01*
G37*
G36*
X231014400Y-111090000D02*
X229714400Y-111090000D01*
X229714400Y-109890000D01*
X231014400Y-109890000D01*
X231014400Y-111090000D01*
X231014400Y-111090000D01*
G37*
G36*
X229314400Y-111090000D02*
X228014400Y-111090000D01*
X228014400Y-109890000D01*
X229314400Y-109890000D01*
X229314400Y-111090000D01*
X229314400Y-111090000D01*
G37*
G36*
X227407600Y-111090000D02*
X226107600Y-111090000D01*
X226107600Y-109890000D01*
X227407600Y-109890000D01*
X227407600Y-111090000D01*
X227407600Y-111090000D01*
G37*
G36*
X225707600Y-111090000D02*
X224407600Y-111090000D01*
X224407600Y-109890000D01*
X225707600Y-109890000D01*
X225707600Y-111090000D01*
X225707600Y-111090000D01*
G37*
G36*
X233962500Y-109401000D02*
X232762500Y-109401000D01*
X232762500Y-108101000D01*
X233962500Y-108101000D01*
X233962500Y-109401000D01*
X233962500Y-109401000D01*
G37*
G36*
X231633800Y-106189600D02*
X231636202Y-106213986D01*
X231643315Y-106237435D01*
X231654866Y-106259046D01*
X231670412Y-106277988D01*
X231689354Y-106293534D01*
X231710965Y-106305085D01*
X231734414Y-106312198D01*
X231758800Y-106314600D01*
X231858800Y-106314600D01*
X231858800Y-108264600D01*
X231758800Y-108264600D01*
X231734414Y-108267002D01*
X231710965Y-108274115D01*
X231689354Y-108285666D01*
X231670412Y-108301212D01*
X231654866Y-108320154D01*
X231643315Y-108341765D01*
X231636202Y-108365214D01*
X231633800Y-108389600D01*
X231633800Y-109289600D01*
X226683800Y-109289600D01*
X226683800Y-108389600D01*
X226681398Y-108365214D01*
X226674285Y-108341765D01*
X226662734Y-108320154D01*
X226647188Y-108301212D01*
X226628246Y-108285666D01*
X226606635Y-108274115D01*
X226583186Y-108267002D01*
X226558800Y-108264600D01*
X226458800Y-108264600D01*
X226458800Y-106314600D01*
X226558800Y-106314600D01*
X226583186Y-106312198D01*
X226606635Y-106305085D01*
X226628246Y-106293534D01*
X226633039Y-106289600D01*
X227233800Y-106289600D01*
X227233800Y-108289600D01*
X227236202Y-108313986D01*
X227243315Y-108337435D01*
X227254866Y-108359046D01*
X227270412Y-108377988D01*
X227289354Y-108393534D01*
X227310965Y-108405085D01*
X227334414Y-108412198D01*
X227358800Y-108414600D01*
X230958800Y-108414600D01*
X230983186Y-108412198D01*
X231006635Y-108405085D01*
X231028246Y-108393534D01*
X231047188Y-108377988D01*
X231062734Y-108359046D01*
X231074285Y-108337435D01*
X231081398Y-108313986D01*
X231083800Y-108289600D01*
X231083800Y-106289600D01*
X231081398Y-106265214D01*
X231074285Y-106241765D01*
X231062734Y-106220154D01*
X231047188Y-106201212D01*
X231028246Y-106185666D01*
X231006635Y-106174115D01*
X230983186Y-106167002D01*
X230958800Y-106164600D01*
X227358800Y-106164600D01*
X227334414Y-106167002D01*
X227310965Y-106174115D01*
X227289354Y-106185666D01*
X227270412Y-106201212D01*
X227254866Y-106220154D01*
X227243315Y-106241765D01*
X227236202Y-106265214D01*
X227233800Y-106289600D01*
X226633039Y-106289600D01*
X226647188Y-106277988D01*
X226662734Y-106259046D01*
X226674285Y-106237435D01*
X226681398Y-106213986D01*
X226683800Y-106189600D01*
X226683800Y-105289600D01*
X231633800Y-105289600D01*
X231633800Y-106189600D01*
X231633800Y-106189600D01*
G37*
G36*
X223878800Y-108854800D02*
X222578800Y-108854800D01*
X222578800Y-107654800D01*
X223878800Y-107654800D01*
X223878800Y-108854800D01*
X223878800Y-108854800D01*
G37*
G36*
X225578800Y-108854800D02*
X224278800Y-108854800D01*
X224278800Y-107654800D01*
X225578800Y-107654800D01*
X225578800Y-108854800D01*
X225578800Y-108854800D01*
G37*
G36*
X235804000Y-108751500D02*
X234604000Y-108751500D01*
X234604000Y-107451500D01*
X235804000Y-107451500D01*
X235804000Y-108751500D01*
X235804000Y-108751500D01*
G37*
G36*
X237455000Y-108751500D02*
X236255000Y-108751500D01*
X236255000Y-107451500D01*
X237455000Y-107451500D01*
X237455000Y-108751500D01*
X237455000Y-108751500D01*
G37*
G36*
X223878800Y-107178400D02*
X222578800Y-107178400D01*
X222578800Y-105978400D01*
X223878800Y-105978400D01*
X223878800Y-107178400D01*
X223878800Y-107178400D01*
G37*
G36*
X225578800Y-107178400D02*
X224278800Y-107178400D01*
X224278800Y-105978400D01*
X225578800Y-105978400D01*
X225578800Y-107178400D01*
X225578800Y-107178400D01*
G37*
G36*
X237455000Y-107051500D02*
X236255000Y-107051500D01*
X236255000Y-105751500D01*
X237455000Y-105751500D01*
X237455000Y-107051500D01*
X237455000Y-107051500D01*
G37*
G36*
X235804000Y-107051500D02*
X234604000Y-107051500D01*
X234604000Y-105751500D01*
X235804000Y-105751500D01*
X235804000Y-107051500D01*
X235804000Y-107051500D01*
G37*
G36*
X237386393Y-101343553D02*
X237495872Y-101365330D01*
X237805252Y-101493479D01*
X238083687Y-101679523D01*
X238320477Y-101916313D01*
X238506521Y-102194748D01*
X238634670Y-102504128D01*
X238634670Y-102504129D01*
X238700000Y-102832563D01*
X238700000Y-103167437D01*
X238656447Y-103386393D01*
X238634670Y-103495872D01*
X238506521Y-103805252D01*
X238320477Y-104083687D01*
X238083687Y-104320477D01*
X237805252Y-104506521D01*
X237495872Y-104634670D01*
X237386393Y-104656447D01*
X237167437Y-104700000D01*
X236832563Y-104700000D01*
X236613607Y-104656447D01*
X236504128Y-104634670D01*
X236194748Y-104506521D01*
X235916313Y-104320477D01*
X235679523Y-104083687D01*
X235493479Y-103805252D01*
X235365330Y-103495872D01*
X235343553Y-103386393D01*
X235300000Y-103167437D01*
X235300000Y-102832563D01*
X235365330Y-102504129D01*
X235365330Y-102504128D01*
X235493479Y-102194748D01*
X235679523Y-101916313D01*
X235916313Y-101679523D01*
X236194748Y-101493479D01*
X236504128Y-101365330D01*
X236613607Y-101343553D01*
X236832563Y-101300000D01*
X237167437Y-101300000D01*
X237386393Y-101343553D01*
X237386393Y-101343553D01*
G37*
G36*
X227542800Y-104326400D02*
X226242800Y-104326400D01*
X226242800Y-102226400D01*
X227542800Y-102226400D01*
X227542800Y-104326400D01*
X227542800Y-104326400D01*
G37*
G36*
X230042800Y-104326400D02*
X228742800Y-104326400D01*
X228742800Y-102226400D01*
X230042800Y-102226400D01*
X230042800Y-104326400D01*
X230042800Y-104326400D01*
G37*
G36*
X231740000Y-104319200D02*
X230540000Y-104319200D01*
X230540000Y-103019200D01*
X231740000Y-103019200D01*
X231740000Y-104319200D01*
X231740000Y-104319200D01*
G37*
G36*
X225745600Y-104319200D02*
X224545600Y-104319200D01*
X224545600Y-103019200D01*
X225745600Y-103019200D01*
X225745600Y-104319200D01*
X225745600Y-104319200D01*
G37*
G36*
X245285770Y-102139372D02*
X245401689Y-102162429D01*
X245583678Y-102237811D01*
X245747463Y-102347249D01*
X245886751Y-102486537D01*
X245996189Y-102650322D01*
X246071571Y-102832311D01*
X246110000Y-103025509D01*
X246110000Y-103222491D01*
X246071571Y-103415689D01*
X245996189Y-103597678D01*
X245886751Y-103761463D01*
X245747463Y-103900751D01*
X245583678Y-104010189D01*
X245401689Y-104085571D01*
X245285770Y-104108628D01*
X245208493Y-104124000D01*
X245011507Y-104124000D01*
X244934230Y-104108628D01*
X244818311Y-104085571D01*
X244636322Y-104010189D01*
X244472537Y-103900751D01*
X244333249Y-103761463D01*
X244223811Y-103597678D01*
X244148429Y-103415689D01*
X244110000Y-103222491D01*
X244110000Y-103025509D01*
X244148429Y-102832311D01*
X244223811Y-102650322D01*
X244333249Y-102486537D01*
X244472537Y-102347249D01*
X244636322Y-102237811D01*
X244818311Y-102162429D01*
X244934230Y-102139372D01*
X245011507Y-102124000D01*
X245208493Y-102124000D01*
X245285770Y-102139372D01*
X245285770Y-102139372D01*
G37*
G36*
X231740000Y-102619200D02*
X230540000Y-102619200D01*
X230540000Y-101319200D01*
X231740000Y-101319200D01*
X231740000Y-102619200D01*
X231740000Y-102619200D01*
G37*
G36*
X225745600Y-102619200D02*
X224545600Y-102619200D01*
X224545600Y-101319200D01*
X225745600Y-101319200D01*
X225745600Y-102619200D01*
X225745600Y-102619200D01*
G37*
G36*
X221790770Y-100615372D02*
X221906689Y-100638429D01*
X222088678Y-100713811D01*
X222252463Y-100823249D01*
X222391751Y-100962537D01*
X222501189Y-101126322D01*
X222576571Y-101308311D01*
X222615000Y-101501509D01*
X222615000Y-101698491D01*
X222576571Y-101891689D01*
X222501189Y-102073678D01*
X222391751Y-102237463D01*
X222252463Y-102376751D01*
X222088678Y-102486189D01*
X221906689Y-102561571D01*
X221790770Y-102584628D01*
X221713493Y-102600000D01*
X221516507Y-102600000D01*
X221439230Y-102584628D01*
X221323311Y-102561571D01*
X221141322Y-102486189D01*
X220977537Y-102376751D01*
X220838249Y-102237463D01*
X220728811Y-102073678D01*
X220653429Y-101891689D01*
X220615000Y-101698491D01*
X220615000Y-101501509D01*
X220653429Y-101308311D01*
X220728811Y-101126322D01*
X220838249Y-100962537D01*
X220977537Y-100823249D01*
X221141322Y-100713811D01*
X221323311Y-100638429D01*
X221439230Y-100615372D01*
X221516507Y-100600000D01*
X221713493Y-100600000D01*
X221790770Y-100615372D01*
X221790770Y-100615372D01*
G37*
M02*
