G04 #@! TF.GenerationSoftware,KiCad,Pcbnew,5.0.1-33cea8e~67~ubuntu18.04.1*
G04 #@! TF.CreationDate,2019-01-15T14:32:31-08:00*
G04 #@! TF.ProjectId,fk-naturalist-sensors,666B2D6E61747572616C6973742D7365,rev?*
G04 #@! TF.SameCoordinates,Original*
G04 #@! TF.FileFunction,Soldermask,Bot*
G04 #@! TF.FilePolarity,Negative*
%FSLAX46Y46*%
G04 Gerber Fmt 4.6, Leading zero omitted, Abs format (unit mm)*
G04 Created by KiCad (PCBNEW 5.0.1-33cea8e~67~ubuntu18.04.1) date Tue 15 Jan 2019 02:32:31 PM PST*
%MOMM*%
%LPD*%
G01*
G04 APERTURE LIST*
%ADD10C,0.100000*%
G04 APERTURE END LIST*
D10*
G36*
X237386393Y-127343553D02*
X237495872Y-127365330D01*
X237805252Y-127493479D01*
X238083687Y-127679523D01*
X238320477Y-127916313D01*
X238506521Y-128194748D01*
X238634670Y-128504128D01*
X238700000Y-128832565D01*
X238700000Y-129167435D01*
X238634670Y-129495872D01*
X238506521Y-129805252D01*
X238320477Y-130083687D01*
X238083687Y-130320477D01*
X237805252Y-130506521D01*
X237495872Y-130634670D01*
X237386393Y-130656447D01*
X237167437Y-130700000D01*
X236832563Y-130700000D01*
X236613607Y-130656447D01*
X236504128Y-130634670D01*
X236194748Y-130506521D01*
X235916313Y-130320477D01*
X235679523Y-130083687D01*
X235493479Y-129805252D01*
X235365330Y-129495872D01*
X235300000Y-129167435D01*
X235300000Y-128832565D01*
X235365330Y-128504128D01*
X235493479Y-128194748D01*
X235679523Y-127916313D01*
X235916313Y-127679523D01*
X236194748Y-127493479D01*
X236504128Y-127365330D01*
X236613607Y-127343553D01*
X236832563Y-127300000D01*
X237167437Y-127300000D01*
X237386393Y-127343553D01*
X237386393Y-127343553D01*
G37*
G36*
X231020234Y-125521002D02*
X231022636Y-125545388D01*
X231029749Y-125568837D01*
X231041300Y-125590448D01*
X231056846Y-125609390D01*
X231075788Y-125624936D01*
X231097399Y-125636487D01*
X231120848Y-125643600D01*
X231145234Y-125646002D01*
X231169620Y-125643600D01*
X231193066Y-125636488D01*
X231254213Y-125611160D01*
X231342311Y-125593637D01*
X231430408Y-125576113D01*
X231610060Y-125576113D01*
X231698157Y-125593637D01*
X231786255Y-125611160D01*
X231847402Y-125636488D01*
X231870848Y-125643600D01*
X231895234Y-125646002D01*
X231919620Y-125643600D01*
X231943069Y-125636487D01*
X231964680Y-125624936D01*
X231983622Y-125609390D01*
X231999168Y-125590448D01*
X232010719Y-125568838D01*
X232017832Y-125545388D01*
X232020234Y-125521002D01*
X232020234Y-124875113D01*
X232820234Y-124875113D01*
X232820234Y-125597113D01*
X232220774Y-125597113D01*
X232196388Y-125599515D01*
X232172939Y-125606628D01*
X232151328Y-125618179D01*
X232132386Y-125633725D01*
X232116840Y-125652667D01*
X232105289Y-125674278D01*
X232098176Y-125697727D01*
X232095774Y-125722113D01*
X232098176Y-125746499D01*
X232105289Y-125769948D01*
X232116840Y-125791559D01*
X232132386Y-125810501D01*
X232228629Y-125906744D01*
X232328439Y-126056120D01*
X232397187Y-126222092D01*
X232432234Y-126398287D01*
X232432234Y-126577939D01*
X232397187Y-126754134D01*
X232328439Y-126920106D01*
X232228629Y-127069482D01*
X232101603Y-127196508D01*
X231952227Y-127296318D01*
X231786255Y-127365066D01*
X231610060Y-127400113D01*
X231430408Y-127400113D01*
X231254213Y-127365066D01*
X231088241Y-127296318D01*
X230938865Y-127196508D01*
X230811839Y-127069482D01*
X230712029Y-126920106D01*
X230643281Y-126754134D01*
X230608234Y-126577939D01*
X230608234Y-126398287D01*
X230643281Y-126222092D01*
X230712029Y-126056120D01*
X230811839Y-125906744D01*
X230908082Y-125810501D01*
X230923628Y-125791559D01*
X230935179Y-125769948D01*
X230942292Y-125746499D01*
X230944694Y-125722113D01*
X230942292Y-125697727D01*
X230935179Y-125674278D01*
X230923628Y-125652667D01*
X230908082Y-125633725D01*
X230889140Y-125618179D01*
X230867529Y-125606628D01*
X230844080Y-125599515D01*
X230819694Y-125597113D01*
X230220234Y-125597113D01*
X230220234Y-124875113D01*
X231020234Y-124875113D01*
X231020234Y-125521002D01*
X231020234Y-125521002D01*
G37*
G36*
X225956370Y-123907172D02*
X226072289Y-123930229D01*
X226254278Y-124005611D01*
X226418063Y-124115049D01*
X226557351Y-124254337D01*
X226666789Y-124418122D01*
X226742171Y-124600111D01*
X226780600Y-124793309D01*
X226780600Y-124990291D01*
X226742171Y-125183489D01*
X226666789Y-125365478D01*
X226557351Y-125529263D01*
X226418063Y-125668551D01*
X226254278Y-125777989D01*
X226072289Y-125853371D01*
X225956370Y-125876428D01*
X225879093Y-125891800D01*
X225682107Y-125891800D01*
X225604830Y-125876428D01*
X225488911Y-125853371D01*
X225306922Y-125777989D01*
X225143137Y-125668551D01*
X225003849Y-125529263D01*
X224894411Y-125365478D01*
X224819029Y-125183489D01*
X224780600Y-124990291D01*
X224780600Y-124793309D01*
X224819029Y-124600111D01*
X224894411Y-124418122D01*
X225003849Y-124254337D01*
X225143137Y-124115049D01*
X225306922Y-124005611D01*
X225488911Y-123930229D01*
X225604830Y-123907172D01*
X225682107Y-123891800D01*
X225879093Y-123891800D01*
X225956370Y-123907172D01*
X225956370Y-123907172D01*
G37*
G36*
X232820234Y-124514113D02*
X230220234Y-124514113D01*
X230220234Y-123792113D01*
X232820234Y-123792113D01*
X232820234Y-124514113D01*
X232820234Y-124514113D01*
G37*
G36*
X226064400Y-122969200D02*
X223064400Y-122969200D01*
X223064400Y-121769200D01*
X226064400Y-121769200D01*
X226064400Y-122969200D01*
X226064400Y-122969200D01*
G37*
G36*
X222164400Y-120919200D02*
X220264400Y-120919200D01*
X220264400Y-120119200D01*
X222164400Y-120119200D01*
X222164400Y-120919200D01*
X222164400Y-120919200D01*
G37*
G36*
X222164400Y-119669200D02*
X220264400Y-119669200D01*
X220264400Y-118869200D01*
X222164400Y-118869200D01*
X222164400Y-119669200D01*
X222164400Y-119669200D01*
G37*
G36*
X222164400Y-118419200D02*
X220264400Y-118419200D01*
X220264400Y-117619200D01*
X222164400Y-117619200D01*
X222164400Y-118419200D01*
X222164400Y-118419200D01*
G37*
G36*
X222164400Y-117169200D02*
X220264400Y-117169200D01*
X220264400Y-116369200D01*
X222164400Y-116369200D01*
X222164400Y-117169200D01*
X222164400Y-117169200D01*
G37*
G36*
X222164400Y-115919200D02*
X220264400Y-115919200D01*
X220264400Y-115119200D01*
X222164400Y-115119200D01*
X222164400Y-115919200D01*
X222164400Y-115919200D01*
G37*
G36*
X222164400Y-114669200D02*
X220264400Y-114669200D01*
X220264400Y-113869200D01*
X222164400Y-113869200D01*
X222164400Y-114669200D01*
X222164400Y-114669200D01*
G37*
G36*
X222164400Y-113419200D02*
X220264400Y-113419200D01*
X220264400Y-112619200D01*
X222164400Y-112619200D01*
X222164400Y-113419200D01*
X222164400Y-113419200D01*
G37*
G36*
X222164400Y-112169200D02*
X220264400Y-112169200D01*
X220264400Y-111369200D01*
X222164400Y-111369200D01*
X222164400Y-112169200D01*
X222164400Y-112169200D01*
G37*
G36*
X222164400Y-110919200D02*
X220264400Y-110919200D01*
X220264400Y-110119200D01*
X222164400Y-110119200D01*
X222164400Y-110919200D01*
X222164400Y-110919200D01*
G37*
G36*
X226064400Y-109269200D02*
X223064400Y-109269200D01*
X223064400Y-108069200D01*
X226064400Y-108069200D01*
X226064400Y-109269200D01*
X226064400Y-109269200D01*
G37*
G36*
X237386393Y-101343553D02*
X237495872Y-101365330D01*
X237805252Y-101493479D01*
X238083687Y-101679523D01*
X238320477Y-101916313D01*
X238506521Y-102194748D01*
X238634670Y-102504128D01*
X238700000Y-102832565D01*
X238700000Y-103167435D01*
X238634670Y-103495872D01*
X238506521Y-103805252D01*
X238320477Y-104083687D01*
X238083687Y-104320477D01*
X237805252Y-104506521D01*
X237495872Y-104634670D01*
X237386393Y-104656447D01*
X237167437Y-104700000D01*
X236832563Y-104700000D01*
X236613607Y-104656447D01*
X236504128Y-104634670D01*
X236194748Y-104506521D01*
X235916313Y-104320477D01*
X235679523Y-104083687D01*
X235493479Y-103805252D01*
X235365330Y-103495872D01*
X235300000Y-103167435D01*
X235300000Y-102832565D01*
X235365330Y-102504128D01*
X235493479Y-102194748D01*
X235679523Y-101916313D01*
X235916313Y-101679523D01*
X236194748Y-101493479D01*
X236504128Y-101365330D01*
X236613607Y-101343553D01*
X236832563Y-101300000D01*
X237167437Y-101300000D01*
X237386393Y-101343553D01*
X237386393Y-101343553D01*
G37*
G36*
X221816170Y-100615372D02*
X221932089Y-100638429D01*
X222114078Y-100713811D01*
X222277863Y-100823249D01*
X222417151Y-100962537D01*
X222526589Y-101126322D01*
X222601971Y-101308311D01*
X222640400Y-101501509D01*
X222640400Y-101698491D01*
X222601971Y-101891689D01*
X222526589Y-102073678D01*
X222417151Y-102237463D01*
X222277863Y-102376751D01*
X222114078Y-102486189D01*
X221932089Y-102561571D01*
X221816170Y-102584628D01*
X221738893Y-102600000D01*
X221541907Y-102600000D01*
X221464630Y-102584628D01*
X221348711Y-102561571D01*
X221166722Y-102486189D01*
X221002937Y-102376751D01*
X220863649Y-102237463D01*
X220754211Y-102073678D01*
X220678829Y-101891689D01*
X220640400Y-101698491D01*
X220640400Y-101501509D01*
X220678829Y-101308311D01*
X220754211Y-101126322D01*
X220863649Y-100962537D01*
X221002937Y-100823249D01*
X221166722Y-100713811D01*
X221348711Y-100638429D01*
X221464630Y-100615372D01*
X221541907Y-100600000D01*
X221738893Y-100600000D01*
X221816170Y-100615372D01*
X221816170Y-100615372D01*
G37*
M02*
