G04 #@! TF.FileFunction,Copper,L2,Bot,Signal*
%FSLAX46Y46*%
G04 Gerber Fmt 4.6, Leading zero omitted, Abs format (unit mm)*
G04 Created by KiCad (PCBNEW 4.0.7) date Wednesday, June 27, 2018 'AMt' 09:51:16 AM*
%MOMM*%
%LPD*%
G01*
G04 APERTURE LIST*
%ADD10C,0.100000*%
%ADD11C,0.750000*%
%ADD12R,0.600000X0.522000*%
%ADD13C,1.624000*%
%ADD14C,0.600000*%
%ADD15C,0.250000*%
%ADD16C,0.203200*%
G04 APERTURE END LIST*
D10*
D11*
X230266240Y-129788920D03*
X221996000Y-109855000D03*
X237947200Y-114173000D03*
D12*
X231900000Y-122648000D03*
X231900000Y-121565000D03*
X233700000Y-122648000D03*
X233700000Y-121565000D03*
D13*
X232800000Y-123900000D03*
D12*
X232800000Y-121565000D03*
D14*
X228500000Y-127850000D03*
X229500000Y-127850000D03*
X229500000Y-127000000D03*
X228500000Y-127000000D03*
X226550000Y-110500000D03*
X226550000Y-109800000D03*
X225850000Y-109800000D03*
X225850000Y-110500000D03*
X230600000Y-121800000D03*
X230600000Y-113800000D03*
X236350000Y-122650000D03*
X232800000Y-120600000D03*
X231500000Y-115900000D03*
X235500000Y-108600000D03*
X235200000Y-115900000D03*
X231500000Y-116750000D03*
X236000000Y-107400000D03*
X235200000Y-117400000D03*
X229900000Y-118000000D03*
X233700000Y-119300000D03*
D15*
X228500000Y-127000000D02*
X228500000Y-127850000D01*
X229500000Y-127000000D02*
X229500000Y-127850000D01*
X228500000Y-127000000D02*
X229500000Y-127000000D01*
X229500000Y-127850000D02*
X228500000Y-127850000D01*
X226550000Y-109800000D02*
X226550000Y-110500000D01*
X225850000Y-110500000D02*
X225850000Y-109800000D01*
X231900000Y-121565000D02*
X230835000Y-121565000D01*
X230835000Y-121565000D02*
X230600000Y-121800000D01*
X230600000Y-118225002D02*
X230600000Y-121800000D01*
X230600000Y-118225002D02*
X230600000Y-113800000D01*
X236350000Y-122650000D02*
X233702000Y-122650000D01*
X233702000Y-122650000D02*
X233700000Y-122648000D01*
X232800000Y-121565000D02*
X232800000Y-120600000D01*
X234600000Y-115900000D02*
X231500000Y-115900000D01*
X235200000Y-115900000D02*
X235200000Y-108900000D01*
X235200000Y-108900000D02*
X235500000Y-108600000D01*
X234600000Y-115900000D02*
X235200000Y-115900000D01*
X231500000Y-116750000D02*
X234550000Y-116750000D01*
X234550000Y-116750000D02*
X235200000Y-117400000D01*
X235825001Y-109925001D02*
X236125001Y-109625001D01*
X236125001Y-109625001D02*
X236125001Y-107525001D01*
X236125001Y-107525001D02*
X236000000Y-107400000D01*
X235200000Y-117400000D02*
X235825001Y-116774999D01*
X235825001Y-116774999D02*
X235825001Y-109925001D01*
X231900000Y-122648000D02*
X230322998Y-122648000D01*
X230322998Y-122648000D02*
X229874999Y-122200001D01*
X229874999Y-122200001D02*
X229874999Y-118025001D01*
X229874999Y-118025001D02*
X229900000Y-118000000D01*
X233700000Y-121565000D02*
X233700000Y-119300000D01*
D16*
G36*
X239523400Y-131523400D02*
X220476600Y-131523400D01*
X220476600Y-129168300D01*
X220995769Y-129168300D01*
X221066629Y-129554385D01*
X221211130Y-129919354D01*
X221423769Y-130249305D01*
X221696446Y-130531671D01*
X222018775Y-130755695D01*
X222378479Y-130912846D01*
X222761856Y-130997137D01*
X223154304Y-131005357D01*
X223540874Y-130937194D01*
X223906843Y-130795244D01*
X224238271Y-130584914D01*
X224522533Y-130314215D01*
X224748802Y-129993458D01*
X224807987Y-129860525D01*
X229413520Y-129860525D01*
X229443668Y-130024789D01*
X229505148Y-130180068D01*
X229595617Y-130320449D01*
X229711630Y-130440584D01*
X229848768Y-130535898D01*
X230001808Y-130602759D01*
X230164919Y-130638621D01*
X230331890Y-130642119D01*
X230496360Y-130613118D01*
X230652065Y-130552724D01*
X230793074Y-130463237D01*
X230914017Y-130348066D01*
X231010285Y-130211596D01*
X231078213Y-130059028D01*
X231115213Y-129896170D01*
X231117877Y-129705416D01*
X231085438Y-129541589D01*
X231021797Y-129387183D01*
X230929376Y-129248079D01*
X230850152Y-129168300D01*
X234995769Y-129168300D01*
X235066629Y-129554385D01*
X235211130Y-129919354D01*
X235423769Y-130249305D01*
X235696446Y-130531671D01*
X236018775Y-130755695D01*
X236378479Y-130912846D01*
X236761856Y-130997137D01*
X237154304Y-131005357D01*
X237540874Y-130937194D01*
X237906843Y-130795244D01*
X238238271Y-130584914D01*
X238522533Y-130314215D01*
X238748802Y-129993458D01*
X238908460Y-129634860D01*
X238995425Y-129252081D01*
X239001686Y-128803733D01*
X238925442Y-128418675D01*
X238775859Y-128055759D01*
X238558634Y-127728809D01*
X238282041Y-127450278D01*
X237956616Y-127230776D01*
X237594753Y-127078663D01*
X237210237Y-126999733D01*
X236817712Y-126996993D01*
X236432131Y-127070546D01*
X236068180Y-127217592D01*
X235739721Y-127432529D01*
X235459266Y-127707171D01*
X235237498Y-128031056D01*
X235082862Y-128391848D01*
X235001249Y-128775804D01*
X234995769Y-129168300D01*
X230850152Y-129168300D01*
X230811697Y-129129576D01*
X230673242Y-129036186D01*
X230519284Y-128971468D01*
X230355687Y-128937887D01*
X230188684Y-128936721D01*
X230024634Y-128968015D01*
X229869788Y-129030577D01*
X229730042Y-129122024D01*
X229610720Y-129238873D01*
X229516366Y-129376673D01*
X229450575Y-129530176D01*
X229415852Y-129693534D01*
X229413520Y-129860525D01*
X224807987Y-129860525D01*
X224908460Y-129634860D01*
X224995425Y-129252081D01*
X225001686Y-128803733D01*
X224925442Y-128418675D01*
X224775859Y-128055759D01*
X224558634Y-127728809D01*
X224282041Y-127450278D01*
X223956616Y-127230776D01*
X223594753Y-127078663D01*
X223210237Y-126999733D01*
X222817712Y-126996993D01*
X222432131Y-127070546D01*
X222068180Y-127217592D01*
X221739721Y-127432529D01*
X221459266Y-127707171D01*
X221237498Y-128031056D01*
X221082862Y-128391848D01*
X221001249Y-128775804D01*
X220995769Y-129168300D01*
X220476600Y-129168300D01*
X220476600Y-124709060D01*
X232026861Y-124709060D01*
X232103917Y-124901289D01*
X232312634Y-125017848D01*
X232540080Y-125091449D01*
X232777515Y-125119264D01*
X233015813Y-125100222D01*
X233245818Y-125035056D01*
X233458690Y-124926271D01*
X233496083Y-124901289D01*
X233573139Y-124709060D01*
X232800000Y-123935921D01*
X232026861Y-124709060D01*
X220476600Y-124709060D01*
X220476600Y-118058992D01*
X229197478Y-118058992D01*
X229222315Y-118194323D01*
X229272966Y-118322252D01*
X229347500Y-118437906D01*
X229348399Y-118438837D01*
X229348399Y-122200001D01*
X229353145Y-122248404D01*
X229357385Y-122296870D01*
X229358158Y-122299530D01*
X229358428Y-122302285D01*
X229372483Y-122348836D01*
X229386058Y-122395563D01*
X229387333Y-122398022D01*
X229388133Y-122400673D01*
X229410962Y-122443608D01*
X229433355Y-122486808D01*
X229435084Y-122488974D01*
X229436383Y-122491417D01*
X229467096Y-122529075D01*
X229497474Y-122567129D01*
X229501274Y-122570981D01*
X229501339Y-122571061D01*
X229501413Y-122571122D01*
X229502637Y-122572363D01*
X229950635Y-123020362D01*
X229988191Y-123051210D01*
X230025486Y-123082505D01*
X230027917Y-123083841D01*
X230030053Y-123085596D01*
X230072887Y-123108564D01*
X230115548Y-123132017D01*
X230118187Y-123132854D01*
X230120628Y-123134163D01*
X230167099Y-123148370D01*
X230213512Y-123163093D01*
X230216270Y-123163402D01*
X230218912Y-123164210D01*
X230267199Y-123169115D01*
X230315646Y-123174549D01*
X230321066Y-123174587D01*
X230321159Y-123174596D01*
X230321245Y-123174588D01*
X230322998Y-123174600D01*
X231296547Y-123174600D01*
X231297630Y-123176244D01*
X231384053Y-123249902D01*
X231487576Y-123296566D01*
X231600000Y-123312543D01*
X231738048Y-123312543D01*
X231682152Y-123412634D01*
X231608551Y-123640080D01*
X231580736Y-123877515D01*
X231599778Y-124115813D01*
X231664944Y-124345818D01*
X231773729Y-124558690D01*
X231798711Y-124596083D01*
X231990940Y-124673139D01*
X232764079Y-123900000D01*
X232749937Y-123885858D01*
X232785858Y-123849937D01*
X232800000Y-123864079D01*
X232814143Y-123849937D01*
X232850064Y-123885858D01*
X232835921Y-123900000D01*
X233609060Y-124673139D01*
X233801289Y-124596083D01*
X233917848Y-124387366D01*
X233991449Y-124159920D01*
X234019264Y-123922485D01*
X234000222Y-123684187D01*
X233935056Y-123454182D01*
X233862674Y-123312543D01*
X234000000Y-123312543D01*
X234063953Y-123307443D01*
X234172425Y-123273851D01*
X234267244Y-123211370D01*
X234296878Y-123176600D01*
X235883151Y-123176600D01*
X235893079Y-123186881D01*
X236006061Y-123265406D01*
X236132145Y-123320490D01*
X236266526Y-123350036D01*
X236404087Y-123352917D01*
X236539587Y-123329025D01*
X236667866Y-123279269D01*
X236784038Y-123205544D01*
X236883678Y-123110658D01*
X236962990Y-122998227D01*
X237018953Y-122872531D01*
X237049436Y-122738359D01*
X237051630Y-122581205D01*
X237024905Y-122446234D01*
X236972474Y-122319025D01*
X236896332Y-122204423D01*
X236799381Y-122106792D01*
X236685313Y-122029852D01*
X236558473Y-121976534D01*
X236423692Y-121948867D01*
X236286104Y-121947906D01*
X236150951Y-121973688D01*
X236023379Y-122025231D01*
X235908247Y-122100571D01*
X235884935Y-122123400D01*
X234304771Y-122123400D01*
X234302370Y-122119756D01*
X234286276Y-122106039D01*
X234340902Y-122041947D01*
X234387566Y-121938424D01*
X234403543Y-121826000D01*
X234403543Y-121304000D01*
X234398443Y-121240047D01*
X234364851Y-121131575D01*
X234302370Y-121036756D01*
X234226600Y-120972178D01*
X234226600Y-119767398D01*
X234233678Y-119760658D01*
X234312990Y-119648227D01*
X234368953Y-119522531D01*
X234399436Y-119388359D01*
X234401630Y-119231205D01*
X234374905Y-119096234D01*
X234322474Y-118969025D01*
X234246332Y-118854423D01*
X234149381Y-118756792D01*
X234035313Y-118679852D01*
X233908473Y-118626534D01*
X233773692Y-118598867D01*
X233636104Y-118597906D01*
X233500951Y-118623688D01*
X233373379Y-118675231D01*
X233258247Y-118750571D01*
X233159942Y-118846838D01*
X233082208Y-118960366D01*
X233028005Y-119086831D01*
X232999399Y-119221415D01*
X232997478Y-119358992D01*
X233022315Y-119494323D01*
X233072966Y-119622252D01*
X233147500Y-119737906D01*
X233173400Y-119764726D01*
X233173400Y-120005542D01*
X233135313Y-119979852D01*
X233008473Y-119926534D01*
X232873692Y-119898867D01*
X232736104Y-119897906D01*
X232600951Y-119923688D01*
X232473379Y-119975231D01*
X232358247Y-120050571D01*
X232259942Y-120146838D01*
X232182208Y-120260366D01*
X232128005Y-120386831D01*
X232099399Y-120521415D01*
X232097478Y-120658992D01*
X232122315Y-120794323D01*
X232164337Y-120900457D01*
X231600000Y-120900457D01*
X231536047Y-120905557D01*
X231427575Y-120939149D01*
X231332756Y-121001630D01*
X231301417Y-121038400D01*
X231126600Y-121038400D01*
X231126600Y-117344930D01*
X231156061Y-117365406D01*
X231282145Y-117420490D01*
X231416526Y-117450036D01*
X231554087Y-117452917D01*
X231689587Y-117429025D01*
X231817866Y-117379269D01*
X231934038Y-117305544D01*
X231964432Y-117276600D01*
X234331876Y-117276600D01*
X234497709Y-117442434D01*
X234497478Y-117458992D01*
X234522315Y-117594323D01*
X234572966Y-117722252D01*
X234647500Y-117837906D01*
X234743079Y-117936881D01*
X234856061Y-118015406D01*
X234982145Y-118070490D01*
X235116526Y-118100036D01*
X235254087Y-118102917D01*
X235389587Y-118079025D01*
X235517866Y-118029269D01*
X235634038Y-117955544D01*
X235733678Y-117860658D01*
X235812990Y-117748227D01*
X235868953Y-117622531D01*
X235899436Y-117488359D01*
X235900046Y-117444679D01*
X236197364Y-117147361D01*
X236228238Y-117109774D01*
X236259506Y-117072511D01*
X236260840Y-117070084D01*
X236262598Y-117067944D01*
X236285586Y-117025071D01*
X236309018Y-116982449D01*
X236309855Y-116979810D01*
X236311164Y-116977369D01*
X236325384Y-116930857D01*
X236340094Y-116884485D01*
X236340403Y-116881732D01*
X236341212Y-116879085D01*
X236346126Y-116830708D01*
X236351550Y-116782351D01*
X236351588Y-116776940D01*
X236351598Y-116776837D01*
X236351589Y-116776741D01*
X236351601Y-116774999D01*
X236351601Y-114244605D01*
X237094480Y-114244605D01*
X237124628Y-114408869D01*
X237186108Y-114564148D01*
X237276577Y-114704529D01*
X237392590Y-114824664D01*
X237529728Y-114919978D01*
X237682768Y-114986839D01*
X237845879Y-115022701D01*
X238012850Y-115026199D01*
X238177320Y-114997198D01*
X238333025Y-114936804D01*
X238474034Y-114847317D01*
X238594977Y-114732146D01*
X238691245Y-114595676D01*
X238759173Y-114443108D01*
X238796173Y-114280250D01*
X238798837Y-114089496D01*
X238766398Y-113925669D01*
X238702757Y-113771263D01*
X238610336Y-113632159D01*
X238492657Y-113513656D01*
X238354202Y-113420266D01*
X238200244Y-113355548D01*
X238036647Y-113321967D01*
X237869644Y-113320801D01*
X237705594Y-113352095D01*
X237550748Y-113414657D01*
X237411002Y-113506104D01*
X237291680Y-113622953D01*
X237197326Y-113760753D01*
X237131535Y-113914256D01*
X237096812Y-114077614D01*
X237094480Y-114244605D01*
X236351601Y-114244605D01*
X236351601Y-110143125D01*
X236497363Y-109997363D01*
X236528213Y-109959806D01*
X236559506Y-109922513D01*
X236560840Y-109920086D01*
X236562598Y-109917946D01*
X236585586Y-109875073D01*
X236609018Y-109832451D01*
X236609855Y-109829812D01*
X236611164Y-109827371D01*
X236625384Y-109780859D01*
X236640094Y-109734487D01*
X236640403Y-109731734D01*
X236641212Y-109729087D01*
X236646126Y-109680706D01*
X236651550Y-109632353D01*
X236651588Y-109626943D01*
X236651598Y-109626840D01*
X236651589Y-109626744D01*
X236651601Y-109625001D01*
X236651601Y-107661505D01*
X236668953Y-107622531D01*
X236699436Y-107488359D01*
X236701630Y-107331205D01*
X236674905Y-107196234D01*
X236622474Y-107069025D01*
X236546332Y-106954423D01*
X236449381Y-106856792D01*
X236335313Y-106779852D01*
X236208473Y-106726534D01*
X236073692Y-106698867D01*
X235936104Y-106697906D01*
X235800951Y-106723688D01*
X235673379Y-106775231D01*
X235558247Y-106850571D01*
X235459942Y-106946838D01*
X235382208Y-107060366D01*
X235328005Y-107186831D01*
X235299399Y-107321415D01*
X235297478Y-107458992D01*
X235322315Y-107594323D01*
X235372966Y-107722252D01*
X235447500Y-107837906D01*
X235505912Y-107898394D01*
X235436104Y-107897906D01*
X235300951Y-107923688D01*
X235173379Y-107975231D01*
X235058247Y-108050571D01*
X234959942Y-108146838D01*
X234882208Y-108260366D01*
X234828005Y-108386831D01*
X234799399Y-108521415D01*
X234798822Y-108562718D01*
X234796788Y-108565195D01*
X234765495Y-108602488D01*
X234764161Y-108604915D01*
X234762403Y-108607055D01*
X234739415Y-108649928D01*
X234715983Y-108692550D01*
X234715146Y-108695189D01*
X234713837Y-108697630D01*
X234699617Y-108744142D01*
X234684907Y-108790514D01*
X234684598Y-108793267D01*
X234683789Y-108795914D01*
X234678875Y-108844291D01*
X234673451Y-108892648D01*
X234673413Y-108898059D01*
X234673403Y-108898162D01*
X234673412Y-108898258D01*
X234673400Y-108900000D01*
X234673400Y-115373400D01*
X231965873Y-115373400D01*
X231949381Y-115356792D01*
X231835313Y-115279852D01*
X231708473Y-115226534D01*
X231573692Y-115198867D01*
X231436104Y-115197906D01*
X231300951Y-115223688D01*
X231173379Y-115275231D01*
X231126600Y-115305842D01*
X231126600Y-114267398D01*
X231133678Y-114260658D01*
X231212990Y-114148227D01*
X231268953Y-114022531D01*
X231299436Y-113888359D01*
X231301630Y-113731205D01*
X231274905Y-113596234D01*
X231222474Y-113469025D01*
X231146332Y-113354423D01*
X231049381Y-113256792D01*
X230935313Y-113179852D01*
X230808473Y-113126534D01*
X230673692Y-113098867D01*
X230536104Y-113097906D01*
X230400951Y-113123688D01*
X230273379Y-113175231D01*
X230158247Y-113250571D01*
X230059942Y-113346838D01*
X229982208Y-113460366D01*
X229928005Y-113586831D01*
X229899399Y-113721415D01*
X229897478Y-113858992D01*
X229922315Y-113994323D01*
X229972966Y-114122252D01*
X230047500Y-114237906D01*
X230073400Y-114264726D01*
X230073400Y-117319334D01*
X229973692Y-117298867D01*
X229836104Y-117297906D01*
X229700951Y-117323688D01*
X229573379Y-117375231D01*
X229458247Y-117450571D01*
X229359942Y-117546838D01*
X229282208Y-117660366D01*
X229228005Y-117786831D01*
X229199399Y-117921415D01*
X229197478Y-118058992D01*
X220476600Y-118058992D01*
X220476600Y-109926605D01*
X221143280Y-109926605D01*
X221173428Y-110090869D01*
X221234908Y-110246148D01*
X221325377Y-110386529D01*
X221441390Y-110506664D01*
X221578528Y-110601978D01*
X221731568Y-110668839D01*
X221894679Y-110704701D01*
X222061650Y-110708199D01*
X222226120Y-110679198D01*
X222381825Y-110618804D01*
X222522834Y-110529317D01*
X222643777Y-110414146D01*
X222740045Y-110277676D01*
X222807973Y-110125108D01*
X222844973Y-109962250D01*
X222847637Y-109771496D01*
X222815198Y-109607669D01*
X222751557Y-109453263D01*
X222659136Y-109314159D01*
X222541457Y-109195656D01*
X222403002Y-109102266D01*
X222249044Y-109037548D01*
X222085447Y-109003967D01*
X221918444Y-109002801D01*
X221754394Y-109034095D01*
X221599548Y-109096657D01*
X221459802Y-109188104D01*
X221340480Y-109304953D01*
X221246126Y-109442753D01*
X221180335Y-109596256D01*
X221145612Y-109759614D01*
X221143280Y-109926605D01*
X220476600Y-109926605D01*
X220476600Y-103168300D01*
X220995769Y-103168300D01*
X221066629Y-103554385D01*
X221211130Y-103919354D01*
X221423769Y-104249305D01*
X221696446Y-104531671D01*
X222018775Y-104755695D01*
X222378479Y-104912846D01*
X222761856Y-104997137D01*
X223154304Y-105005357D01*
X223540874Y-104937194D01*
X223906843Y-104795244D01*
X224238271Y-104584914D01*
X224522533Y-104314215D01*
X224748802Y-103993458D01*
X224908460Y-103634860D01*
X224995425Y-103252081D01*
X224996594Y-103168300D01*
X234995769Y-103168300D01*
X235066629Y-103554385D01*
X235211130Y-103919354D01*
X235423769Y-104249305D01*
X235696446Y-104531671D01*
X236018775Y-104755695D01*
X236378479Y-104912846D01*
X236761856Y-104997137D01*
X237154304Y-105005357D01*
X237540874Y-104937194D01*
X237906843Y-104795244D01*
X238238271Y-104584914D01*
X238522533Y-104314215D01*
X238748802Y-103993458D01*
X238908460Y-103634860D01*
X238995425Y-103252081D01*
X239001686Y-102803733D01*
X238925442Y-102418675D01*
X238775859Y-102055759D01*
X238558634Y-101728809D01*
X238282041Y-101450278D01*
X237956616Y-101230776D01*
X237594753Y-101078663D01*
X237210237Y-100999733D01*
X236817712Y-100996993D01*
X236432131Y-101070546D01*
X236068180Y-101217592D01*
X235739721Y-101432529D01*
X235459266Y-101707171D01*
X235237498Y-102031056D01*
X235082862Y-102391848D01*
X235001249Y-102775804D01*
X234995769Y-103168300D01*
X224996594Y-103168300D01*
X225001686Y-102803733D01*
X224925442Y-102418675D01*
X224775859Y-102055759D01*
X224558634Y-101728809D01*
X224282041Y-101450278D01*
X223956616Y-101230776D01*
X223594753Y-101078663D01*
X223210237Y-100999733D01*
X222817712Y-100996993D01*
X222432131Y-101070546D01*
X222068180Y-101217592D01*
X221739721Y-101432529D01*
X221459266Y-101707171D01*
X221237498Y-102031056D01*
X221082862Y-102391848D01*
X221001249Y-102775804D01*
X220995769Y-103168300D01*
X220476600Y-103168300D01*
X220476600Y-100476600D01*
X239523400Y-100476600D01*
X239523400Y-131523400D01*
X239523400Y-131523400D01*
G37*
X239523400Y-131523400D02*
X220476600Y-131523400D01*
X220476600Y-129168300D01*
X220995769Y-129168300D01*
X221066629Y-129554385D01*
X221211130Y-129919354D01*
X221423769Y-130249305D01*
X221696446Y-130531671D01*
X222018775Y-130755695D01*
X222378479Y-130912846D01*
X222761856Y-130997137D01*
X223154304Y-131005357D01*
X223540874Y-130937194D01*
X223906843Y-130795244D01*
X224238271Y-130584914D01*
X224522533Y-130314215D01*
X224748802Y-129993458D01*
X224807987Y-129860525D01*
X229413520Y-129860525D01*
X229443668Y-130024789D01*
X229505148Y-130180068D01*
X229595617Y-130320449D01*
X229711630Y-130440584D01*
X229848768Y-130535898D01*
X230001808Y-130602759D01*
X230164919Y-130638621D01*
X230331890Y-130642119D01*
X230496360Y-130613118D01*
X230652065Y-130552724D01*
X230793074Y-130463237D01*
X230914017Y-130348066D01*
X231010285Y-130211596D01*
X231078213Y-130059028D01*
X231115213Y-129896170D01*
X231117877Y-129705416D01*
X231085438Y-129541589D01*
X231021797Y-129387183D01*
X230929376Y-129248079D01*
X230850152Y-129168300D01*
X234995769Y-129168300D01*
X235066629Y-129554385D01*
X235211130Y-129919354D01*
X235423769Y-130249305D01*
X235696446Y-130531671D01*
X236018775Y-130755695D01*
X236378479Y-130912846D01*
X236761856Y-130997137D01*
X237154304Y-131005357D01*
X237540874Y-130937194D01*
X237906843Y-130795244D01*
X238238271Y-130584914D01*
X238522533Y-130314215D01*
X238748802Y-129993458D01*
X238908460Y-129634860D01*
X238995425Y-129252081D01*
X239001686Y-128803733D01*
X238925442Y-128418675D01*
X238775859Y-128055759D01*
X238558634Y-127728809D01*
X238282041Y-127450278D01*
X237956616Y-127230776D01*
X237594753Y-127078663D01*
X237210237Y-126999733D01*
X236817712Y-126996993D01*
X236432131Y-127070546D01*
X236068180Y-127217592D01*
X235739721Y-127432529D01*
X235459266Y-127707171D01*
X235237498Y-128031056D01*
X235082862Y-128391848D01*
X235001249Y-128775804D01*
X234995769Y-129168300D01*
X230850152Y-129168300D01*
X230811697Y-129129576D01*
X230673242Y-129036186D01*
X230519284Y-128971468D01*
X230355687Y-128937887D01*
X230188684Y-128936721D01*
X230024634Y-128968015D01*
X229869788Y-129030577D01*
X229730042Y-129122024D01*
X229610720Y-129238873D01*
X229516366Y-129376673D01*
X229450575Y-129530176D01*
X229415852Y-129693534D01*
X229413520Y-129860525D01*
X224807987Y-129860525D01*
X224908460Y-129634860D01*
X224995425Y-129252081D01*
X225001686Y-128803733D01*
X224925442Y-128418675D01*
X224775859Y-128055759D01*
X224558634Y-127728809D01*
X224282041Y-127450278D01*
X223956616Y-127230776D01*
X223594753Y-127078663D01*
X223210237Y-126999733D01*
X222817712Y-126996993D01*
X222432131Y-127070546D01*
X222068180Y-127217592D01*
X221739721Y-127432529D01*
X221459266Y-127707171D01*
X221237498Y-128031056D01*
X221082862Y-128391848D01*
X221001249Y-128775804D01*
X220995769Y-129168300D01*
X220476600Y-129168300D01*
X220476600Y-124709060D01*
X232026861Y-124709060D01*
X232103917Y-124901289D01*
X232312634Y-125017848D01*
X232540080Y-125091449D01*
X232777515Y-125119264D01*
X233015813Y-125100222D01*
X233245818Y-125035056D01*
X233458690Y-124926271D01*
X233496083Y-124901289D01*
X233573139Y-124709060D01*
X232800000Y-123935921D01*
X232026861Y-124709060D01*
X220476600Y-124709060D01*
X220476600Y-118058992D01*
X229197478Y-118058992D01*
X229222315Y-118194323D01*
X229272966Y-118322252D01*
X229347500Y-118437906D01*
X229348399Y-118438837D01*
X229348399Y-122200001D01*
X229353145Y-122248404D01*
X229357385Y-122296870D01*
X229358158Y-122299530D01*
X229358428Y-122302285D01*
X229372483Y-122348836D01*
X229386058Y-122395563D01*
X229387333Y-122398022D01*
X229388133Y-122400673D01*
X229410962Y-122443608D01*
X229433355Y-122486808D01*
X229435084Y-122488974D01*
X229436383Y-122491417D01*
X229467096Y-122529075D01*
X229497474Y-122567129D01*
X229501274Y-122570981D01*
X229501339Y-122571061D01*
X229501413Y-122571122D01*
X229502637Y-122572363D01*
X229950635Y-123020362D01*
X229988191Y-123051210D01*
X230025486Y-123082505D01*
X230027917Y-123083841D01*
X230030053Y-123085596D01*
X230072887Y-123108564D01*
X230115548Y-123132017D01*
X230118187Y-123132854D01*
X230120628Y-123134163D01*
X230167099Y-123148370D01*
X230213512Y-123163093D01*
X230216270Y-123163402D01*
X230218912Y-123164210D01*
X230267199Y-123169115D01*
X230315646Y-123174549D01*
X230321066Y-123174587D01*
X230321159Y-123174596D01*
X230321245Y-123174588D01*
X230322998Y-123174600D01*
X231296547Y-123174600D01*
X231297630Y-123176244D01*
X231384053Y-123249902D01*
X231487576Y-123296566D01*
X231600000Y-123312543D01*
X231738048Y-123312543D01*
X231682152Y-123412634D01*
X231608551Y-123640080D01*
X231580736Y-123877515D01*
X231599778Y-124115813D01*
X231664944Y-124345818D01*
X231773729Y-124558690D01*
X231798711Y-124596083D01*
X231990940Y-124673139D01*
X232764079Y-123900000D01*
X232749937Y-123885858D01*
X232785858Y-123849937D01*
X232800000Y-123864079D01*
X232814143Y-123849937D01*
X232850064Y-123885858D01*
X232835921Y-123900000D01*
X233609060Y-124673139D01*
X233801289Y-124596083D01*
X233917848Y-124387366D01*
X233991449Y-124159920D01*
X234019264Y-123922485D01*
X234000222Y-123684187D01*
X233935056Y-123454182D01*
X233862674Y-123312543D01*
X234000000Y-123312543D01*
X234063953Y-123307443D01*
X234172425Y-123273851D01*
X234267244Y-123211370D01*
X234296878Y-123176600D01*
X235883151Y-123176600D01*
X235893079Y-123186881D01*
X236006061Y-123265406D01*
X236132145Y-123320490D01*
X236266526Y-123350036D01*
X236404087Y-123352917D01*
X236539587Y-123329025D01*
X236667866Y-123279269D01*
X236784038Y-123205544D01*
X236883678Y-123110658D01*
X236962990Y-122998227D01*
X237018953Y-122872531D01*
X237049436Y-122738359D01*
X237051630Y-122581205D01*
X237024905Y-122446234D01*
X236972474Y-122319025D01*
X236896332Y-122204423D01*
X236799381Y-122106792D01*
X236685313Y-122029852D01*
X236558473Y-121976534D01*
X236423692Y-121948867D01*
X236286104Y-121947906D01*
X236150951Y-121973688D01*
X236023379Y-122025231D01*
X235908247Y-122100571D01*
X235884935Y-122123400D01*
X234304771Y-122123400D01*
X234302370Y-122119756D01*
X234286276Y-122106039D01*
X234340902Y-122041947D01*
X234387566Y-121938424D01*
X234403543Y-121826000D01*
X234403543Y-121304000D01*
X234398443Y-121240047D01*
X234364851Y-121131575D01*
X234302370Y-121036756D01*
X234226600Y-120972178D01*
X234226600Y-119767398D01*
X234233678Y-119760658D01*
X234312990Y-119648227D01*
X234368953Y-119522531D01*
X234399436Y-119388359D01*
X234401630Y-119231205D01*
X234374905Y-119096234D01*
X234322474Y-118969025D01*
X234246332Y-118854423D01*
X234149381Y-118756792D01*
X234035313Y-118679852D01*
X233908473Y-118626534D01*
X233773692Y-118598867D01*
X233636104Y-118597906D01*
X233500951Y-118623688D01*
X233373379Y-118675231D01*
X233258247Y-118750571D01*
X233159942Y-118846838D01*
X233082208Y-118960366D01*
X233028005Y-119086831D01*
X232999399Y-119221415D01*
X232997478Y-119358992D01*
X233022315Y-119494323D01*
X233072966Y-119622252D01*
X233147500Y-119737906D01*
X233173400Y-119764726D01*
X233173400Y-120005542D01*
X233135313Y-119979852D01*
X233008473Y-119926534D01*
X232873692Y-119898867D01*
X232736104Y-119897906D01*
X232600951Y-119923688D01*
X232473379Y-119975231D01*
X232358247Y-120050571D01*
X232259942Y-120146838D01*
X232182208Y-120260366D01*
X232128005Y-120386831D01*
X232099399Y-120521415D01*
X232097478Y-120658992D01*
X232122315Y-120794323D01*
X232164337Y-120900457D01*
X231600000Y-120900457D01*
X231536047Y-120905557D01*
X231427575Y-120939149D01*
X231332756Y-121001630D01*
X231301417Y-121038400D01*
X231126600Y-121038400D01*
X231126600Y-117344930D01*
X231156061Y-117365406D01*
X231282145Y-117420490D01*
X231416526Y-117450036D01*
X231554087Y-117452917D01*
X231689587Y-117429025D01*
X231817866Y-117379269D01*
X231934038Y-117305544D01*
X231964432Y-117276600D01*
X234331876Y-117276600D01*
X234497709Y-117442434D01*
X234497478Y-117458992D01*
X234522315Y-117594323D01*
X234572966Y-117722252D01*
X234647500Y-117837906D01*
X234743079Y-117936881D01*
X234856061Y-118015406D01*
X234982145Y-118070490D01*
X235116526Y-118100036D01*
X235254087Y-118102917D01*
X235389587Y-118079025D01*
X235517866Y-118029269D01*
X235634038Y-117955544D01*
X235733678Y-117860658D01*
X235812990Y-117748227D01*
X235868953Y-117622531D01*
X235899436Y-117488359D01*
X235900046Y-117444679D01*
X236197364Y-117147361D01*
X236228238Y-117109774D01*
X236259506Y-117072511D01*
X236260840Y-117070084D01*
X236262598Y-117067944D01*
X236285586Y-117025071D01*
X236309018Y-116982449D01*
X236309855Y-116979810D01*
X236311164Y-116977369D01*
X236325384Y-116930857D01*
X236340094Y-116884485D01*
X236340403Y-116881732D01*
X236341212Y-116879085D01*
X236346126Y-116830708D01*
X236351550Y-116782351D01*
X236351588Y-116776940D01*
X236351598Y-116776837D01*
X236351589Y-116776741D01*
X236351601Y-116774999D01*
X236351601Y-114244605D01*
X237094480Y-114244605D01*
X237124628Y-114408869D01*
X237186108Y-114564148D01*
X237276577Y-114704529D01*
X237392590Y-114824664D01*
X237529728Y-114919978D01*
X237682768Y-114986839D01*
X237845879Y-115022701D01*
X238012850Y-115026199D01*
X238177320Y-114997198D01*
X238333025Y-114936804D01*
X238474034Y-114847317D01*
X238594977Y-114732146D01*
X238691245Y-114595676D01*
X238759173Y-114443108D01*
X238796173Y-114280250D01*
X238798837Y-114089496D01*
X238766398Y-113925669D01*
X238702757Y-113771263D01*
X238610336Y-113632159D01*
X238492657Y-113513656D01*
X238354202Y-113420266D01*
X238200244Y-113355548D01*
X238036647Y-113321967D01*
X237869644Y-113320801D01*
X237705594Y-113352095D01*
X237550748Y-113414657D01*
X237411002Y-113506104D01*
X237291680Y-113622953D01*
X237197326Y-113760753D01*
X237131535Y-113914256D01*
X237096812Y-114077614D01*
X237094480Y-114244605D01*
X236351601Y-114244605D01*
X236351601Y-110143125D01*
X236497363Y-109997363D01*
X236528213Y-109959806D01*
X236559506Y-109922513D01*
X236560840Y-109920086D01*
X236562598Y-109917946D01*
X236585586Y-109875073D01*
X236609018Y-109832451D01*
X236609855Y-109829812D01*
X236611164Y-109827371D01*
X236625384Y-109780859D01*
X236640094Y-109734487D01*
X236640403Y-109731734D01*
X236641212Y-109729087D01*
X236646126Y-109680706D01*
X236651550Y-109632353D01*
X236651588Y-109626943D01*
X236651598Y-109626840D01*
X236651589Y-109626744D01*
X236651601Y-109625001D01*
X236651601Y-107661505D01*
X236668953Y-107622531D01*
X236699436Y-107488359D01*
X236701630Y-107331205D01*
X236674905Y-107196234D01*
X236622474Y-107069025D01*
X236546332Y-106954423D01*
X236449381Y-106856792D01*
X236335313Y-106779852D01*
X236208473Y-106726534D01*
X236073692Y-106698867D01*
X235936104Y-106697906D01*
X235800951Y-106723688D01*
X235673379Y-106775231D01*
X235558247Y-106850571D01*
X235459942Y-106946838D01*
X235382208Y-107060366D01*
X235328005Y-107186831D01*
X235299399Y-107321415D01*
X235297478Y-107458992D01*
X235322315Y-107594323D01*
X235372966Y-107722252D01*
X235447500Y-107837906D01*
X235505912Y-107898394D01*
X235436104Y-107897906D01*
X235300951Y-107923688D01*
X235173379Y-107975231D01*
X235058247Y-108050571D01*
X234959942Y-108146838D01*
X234882208Y-108260366D01*
X234828005Y-108386831D01*
X234799399Y-108521415D01*
X234798822Y-108562718D01*
X234796788Y-108565195D01*
X234765495Y-108602488D01*
X234764161Y-108604915D01*
X234762403Y-108607055D01*
X234739415Y-108649928D01*
X234715983Y-108692550D01*
X234715146Y-108695189D01*
X234713837Y-108697630D01*
X234699617Y-108744142D01*
X234684907Y-108790514D01*
X234684598Y-108793267D01*
X234683789Y-108795914D01*
X234678875Y-108844291D01*
X234673451Y-108892648D01*
X234673413Y-108898059D01*
X234673403Y-108898162D01*
X234673412Y-108898258D01*
X234673400Y-108900000D01*
X234673400Y-115373400D01*
X231965873Y-115373400D01*
X231949381Y-115356792D01*
X231835313Y-115279852D01*
X231708473Y-115226534D01*
X231573692Y-115198867D01*
X231436104Y-115197906D01*
X231300951Y-115223688D01*
X231173379Y-115275231D01*
X231126600Y-115305842D01*
X231126600Y-114267398D01*
X231133678Y-114260658D01*
X231212990Y-114148227D01*
X231268953Y-114022531D01*
X231299436Y-113888359D01*
X231301630Y-113731205D01*
X231274905Y-113596234D01*
X231222474Y-113469025D01*
X231146332Y-113354423D01*
X231049381Y-113256792D01*
X230935313Y-113179852D01*
X230808473Y-113126534D01*
X230673692Y-113098867D01*
X230536104Y-113097906D01*
X230400951Y-113123688D01*
X230273379Y-113175231D01*
X230158247Y-113250571D01*
X230059942Y-113346838D01*
X229982208Y-113460366D01*
X229928005Y-113586831D01*
X229899399Y-113721415D01*
X229897478Y-113858992D01*
X229922315Y-113994323D01*
X229972966Y-114122252D01*
X230047500Y-114237906D01*
X230073400Y-114264726D01*
X230073400Y-117319334D01*
X229973692Y-117298867D01*
X229836104Y-117297906D01*
X229700951Y-117323688D01*
X229573379Y-117375231D01*
X229458247Y-117450571D01*
X229359942Y-117546838D01*
X229282208Y-117660366D01*
X229228005Y-117786831D01*
X229199399Y-117921415D01*
X229197478Y-118058992D01*
X220476600Y-118058992D01*
X220476600Y-109926605D01*
X221143280Y-109926605D01*
X221173428Y-110090869D01*
X221234908Y-110246148D01*
X221325377Y-110386529D01*
X221441390Y-110506664D01*
X221578528Y-110601978D01*
X221731568Y-110668839D01*
X221894679Y-110704701D01*
X222061650Y-110708199D01*
X222226120Y-110679198D01*
X222381825Y-110618804D01*
X222522834Y-110529317D01*
X222643777Y-110414146D01*
X222740045Y-110277676D01*
X222807973Y-110125108D01*
X222844973Y-109962250D01*
X222847637Y-109771496D01*
X222815198Y-109607669D01*
X222751557Y-109453263D01*
X222659136Y-109314159D01*
X222541457Y-109195656D01*
X222403002Y-109102266D01*
X222249044Y-109037548D01*
X222085447Y-109003967D01*
X221918444Y-109002801D01*
X221754394Y-109034095D01*
X221599548Y-109096657D01*
X221459802Y-109188104D01*
X221340480Y-109304953D01*
X221246126Y-109442753D01*
X221180335Y-109596256D01*
X221145612Y-109759614D01*
X221143280Y-109926605D01*
X220476600Y-109926605D01*
X220476600Y-103168300D01*
X220995769Y-103168300D01*
X221066629Y-103554385D01*
X221211130Y-103919354D01*
X221423769Y-104249305D01*
X221696446Y-104531671D01*
X222018775Y-104755695D01*
X222378479Y-104912846D01*
X222761856Y-104997137D01*
X223154304Y-105005357D01*
X223540874Y-104937194D01*
X223906843Y-104795244D01*
X224238271Y-104584914D01*
X224522533Y-104314215D01*
X224748802Y-103993458D01*
X224908460Y-103634860D01*
X224995425Y-103252081D01*
X224996594Y-103168300D01*
X234995769Y-103168300D01*
X235066629Y-103554385D01*
X235211130Y-103919354D01*
X235423769Y-104249305D01*
X235696446Y-104531671D01*
X236018775Y-104755695D01*
X236378479Y-104912846D01*
X236761856Y-104997137D01*
X237154304Y-105005357D01*
X237540874Y-104937194D01*
X237906843Y-104795244D01*
X238238271Y-104584914D01*
X238522533Y-104314215D01*
X238748802Y-103993458D01*
X238908460Y-103634860D01*
X238995425Y-103252081D01*
X239001686Y-102803733D01*
X238925442Y-102418675D01*
X238775859Y-102055759D01*
X238558634Y-101728809D01*
X238282041Y-101450278D01*
X237956616Y-101230776D01*
X237594753Y-101078663D01*
X237210237Y-100999733D01*
X236817712Y-100996993D01*
X236432131Y-101070546D01*
X236068180Y-101217592D01*
X235739721Y-101432529D01*
X235459266Y-101707171D01*
X235237498Y-102031056D01*
X235082862Y-102391848D01*
X235001249Y-102775804D01*
X234995769Y-103168300D01*
X224996594Y-103168300D01*
X225001686Y-102803733D01*
X224925442Y-102418675D01*
X224775859Y-102055759D01*
X224558634Y-101728809D01*
X224282041Y-101450278D01*
X223956616Y-101230776D01*
X223594753Y-101078663D01*
X223210237Y-100999733D01*
X222817712Y-100996993D01*
X222432131Y-101070546D01*
X222068180Y-101217592D01*
X221739721Y-101432529D01*
X221459266Y-101707171D01*
X221237498Y-102031056D01*
X221082862Y-102391848D01*
X221001249Y-102775804D01*
X220995769Y-103168300D01*
X220476600Y-103168300D01*
X220476600Y-100476600D01*
X239523400Y-100476600D01*
X239523400Y-131523400D01*
M02*
