G04 #@! TF.FileFunction,Copper,L1,Top,Signal*
%FSLAX46Y46*%
G04 Gerber Fmt 4.6, Leading zero omitted, Abs format (unit mm)*
G04 Created by KiCad (PCBNEW 4.0.7) date Wednesday, June 27, 2018 'AMt' 09:51:16 AM*
%MOMM*%
%LPD*%
G01*
G04 APERTURE LIST*
%ADD10C,0.100000*%
%ADD11R,1.000000X1.100000*%
%ADD12R,1.100000X1.000000*%
%ADD13R,1.100000X0.500000*%
%ADD14R,0.550000X0.250000*%
%ADD15R,1.000000X1.700000*%
%ADD16R,0.350000X1.200000*%
%ADD17R,1.700000X0.600000*%
%ADD18R,2.700000X1.000000*%
%ADD19C,0.750000*%
%ADD20C,1.624000*%
%ADD21C,0.600000*%
%ADD22C,0.250000*%
%ADD23C,0.381000*%
%ADD24C,0.203200*%
G04 APERTURE END LIST*
D10*
D11*
X229107200Y-107602800D03*
X229107200Y-105902800D03*
D12*
X238450000Y-119200000D03*
X236750000Y-119200000D03*
X231750000Y-105000000D03*
X233450000Y-105000000D03*
X233097136Y-113790010D03*
X234797136Y-113790010D03*
D11*
X229107200Y-111108000D03*
X229107200Y-109408000D03*
D12*
X230465466Y-124860098D03*
X228765466Y-124860098D03*
X230465466Y-123132898D03*
X228765466Y-123132898D03*
D11*
X235100000Y-124900000D03*
X235100000Y-123200000D03*
D12*
X230450000Y-120500000D03*
X228750000Y-120500000D03*
D13*
X231800000Y-107350000D03*
X231800000Y-108600000D03*
X231800000Y-109850000D03*
X231800000Y-111100000D03*
X234300000Y-111100000D03*
X234300000Y-109850000D03*
X234300000Y-108600000D03*
X234300000Y-107350000D03*
D14*
X236425000Y-115900000D03*
X236425000Y-116400000D03*
X236425000Y-116900000D03*
X236425000Y-117400000D03*
X238775000Y-117400000D03*
X238775000Y-116900000D03*
X238775000Y-116400000D03*
X238775000Y-115900000D03*
D15*
X237600000Y-116650000D03*
D16*
X232447136Y-117419210D03*
X233097136Y-117419210D03*
X233747136Y-117419210D03*
X233747136Y-115919210D03*
X233097136Y-115919210D03*
X232447136Y-115919210D03*
D17*
X225850000Y-114250000D03*
X225850000Y-115500000D03*
X225850000Y-116750000D03*
X225850000Y-118000000D03*
X225850000Y-119250000D03*
X225850000Y-120500000D03*
X225850000Y-121750000D03*
D18*
X222650000Y-112400000D03*
X222650000Y-123600000D03*
D19*
X230251000Y-129794000D03*
X237947200Y-114167920D03*
X221996000Y-109855000D03*
D20*
X232800000Y-123900000D03*
D21*
X228500000Y-127850000D03*
X229500000Y-127850000D03*
X229500000Y-127000000D03*
X228500000Y-127000000D03*
X226550000Y-110500000D03*
X226550000Y-109800000D03*
X225850000Y-109800000D03*
X225850000Y-110500000D03*
X230600000Y-121800000D03*
X230600000Y-113800000D03*
X236350000Y-122650000D03*
X232800000Y-120600000D03*
X231500000Y-115900000D03*
X235500000Y-108600000D03*
X235200000Y-115900000D03*
X231500000Y-116750000D03*
X236000000Y-107400000D03*
X235200000Y-117400000D03*
X229900000Y-118000000D03*
X233700000Y-119300000D03*
D22*
X229107200Y-107602800D02*
X229857200Y-107602800D01*
X229857200Y-107602800D02*
X230854400Y-108600000D01*
X230854400Y-108600000D02*
X231000000Y-108600000D01*
X231000000Y-108600000D02*
X231800000Y-108600000D01*
X228500000Y-127850000D02*
X229500000Y-127850000D01*
X228500000Y-127000000D02*
X229500000Y-127000000D01*
X228500000Y-127850000D02*
X228500000Y-127000000D01*
X229500000Y-127000000D02*
X229500000Y-127850000D01*
X228765466Y-124860098D02*
X228765466Y-126734534D01*
X228765466Y-126734534D02*
X228500000Y-127000000D01*
X228765466Y-123132898D02*
X228765466Y-124860098D01*
X226550000Y-110500000D02*
X225850000Y-110500000D01*
X225850000Y-109800000D02*
X226550000Y-109800000D01*
X225850000Y-114250000D02*
X225850000Y-110500000D01*
D23*
X238200000Y-121800000D02*
X230600000Y-121800000D01*
X238200000Y-121800000D02*
X238450000Y-121550000D01*
X238450000Y-121550000D02*
X238450000Y-119200000D01*
D22*
X230465466Y-123132898D02*
X230465466Y-121934534D01*
X230465466Y-121934534D02*
X230600000Y-121800000D01*
D23*
X225850000Y-121750000D02*
X230550000Y-121750000D01*
X230550000Y-121750000D02*
X230600000Y-121800000D01*
D22*
X231800000Y-107350000D02*
X231800000Y-105050000D01*
X231800000Y-105050000D02*
X231750000Y-105000000D01*
X233100000Y-109800000D02*
X233100000Y-111100000D01*
X231800000Y-111100000D02*
X233100000Y-111100000D01*
X233100000Y-111100000D02*
X233100000Y-111897136D01*
X233100000Y-109800000D02*
X233100000Y-110100000D01*
X233100000Y-107800000D02*
X233100000Y-109800000D01*
X233097136Y-111597136D02*
X233097136Y-111900000D01*
X233097136Y-111900000D02*
X233097136Y-113040010D01*
X233100000Y-111897136D02*
X233097136Y-111900000D01*
X238775000Y-117400000D02*
X238775000Y-118875000D01*
X238775000Y-118875000D02*
X238450000Y-119200000D01*
X238775000Y-117400000D02*
X238775000Y-116900000D01*
X233097136Y-113040010D02*
X233097136Y-113790010D01*
X233097136Y-115919210D02*
X233097136Y-114900000D01*
X233097136Y-114900000D02*
X233097136Y-113790010D01*
X230600000Y-113800000D02*
X233087146Y-113800000D01*
X233087146Y-113800000D02*
X233097136Y-113790010D01*
X230465466Y-124860098D02*
X230465466Y-123132898D01*
X232100000Y-111100000D02*
X231800000Y-111100000D01*
X231800000Y-107350000D02*
X232650000Y-107350000D01*
X232650000Y-107350000D02*
X233100000Y-107800000D01*
X229107200Y-111108000D02*
X231792000Y-111108000D01*
X231792000Y-111108000D02*
X231800000Y-111100000D01*
X235100000Y-123200000D02*
X235800000Y-123200000D01*
X235800000Y-123200000D02*
X236350000Y-122650000D01*
X230450000Y-120500000D02*
X232700000Y-120500000D01*
X232700000Y-120500000D02*
X232800000Y-120600000D01*
X225850000Y-120500000D02*
X228750000Y-120500000D01*
X232447136Y-115919210D02*
X231519210Y-115919210D01*
X231519210Y-115919210D02*
X231500000Y-115900000D01*
X230800000Y-116200000D02*
X231100000Y-115900000D01*
X231100000Y-115900000D02*
X231500000Y-115900000D01*
X235500000Y-108600000D02*
X234300000Y-108600000D01*
X235200000Y-115900000D02*
X236425000Y-115900000D01*
X232427926Y-115900000D02*
X232447136Y-115919210D01*
X227650000Y-116200000D02*
X230800000Y-116200000D01*
X225850000Y-115500000D02*
X226950000Y-115500000D01*
X226950000Y-115500000D02*
X227650000Y-116200000D01*
X231500000Y-116750000D02*
X231500000Y-117174264D01*
X231500000Y-117174264D02*
X231744946Y-117419210D01*
X231744946Y-117419210D02*
X232022136Y-117419210D01*
X231200000Y-116750000D02*
X231500000Y-116750000D01*
X234300000Y-107350000D02*
X235950000Y-107350000D01*
X235950000Y-107350000D02*
X236000000Y-107400000D01*
X235200000Y-117400000D02*
X236425000Y-117400000D01*
X235250000Y-117350000D02*
X235200000Y-117400000D01*
X231200000Y-116750000D02*
X226950000Y-116750000D01*
X232447136Y-117419210D02*
X232022136Y-117419210D01*
X226950000Y-116750000D02*
X225850000Y-116750000D01*
X229900000Y-118000000D02*
X225850000Y-118000000D01*
X225850000Y-119250000D02*
X233650000Y-119250000D01*
X233650000Y-119250000D02*
X233700000Y-119300000D01*
D24*
G36*
X239523400Y-131523400D02*
X220476600Y-131523400D01*
X220476600Y-129168300D01*
X220995769Y-129168300D01*
X221066629Y-129554385D01*
X221211130Y-129919354D01*
X221423769Y-130249305D01*
X221696446Y-130531671D01*
X222018775Y-130755695D01*
X222378479Y-130912846D01*
X222761856Y-130997137D01*
X223154304Y-131005357D01*
X223540874Y-130937194D01*
X223906843Y-130795244D01*
X224238271Y-130584914D01*
X224522533Y-130314215D01*
X224748802Y-129993458D01*
X224805725Y-129865605D01*
X229398280Y-129865605D01*
X229428428Y-130029869D01*
X229489908Y-130185148D01*
X229580377Y-130325529D01*
X229696390Y-130445664D01*
X229833528Y-130540978D01*
X229986568Y-130607839D01*
X230149679Y-130643701D01*
X230316650Y-130647199D01*
X230481120Y-130618198D01*
X230636825Y-130557804D01*
X230777834Y-130468317D01*
X230898777Y-130353146D01*
X230995045Y-130216676D01*
X231062973Y-130064108D01*
X231099973Y-129901250D01*
X231102637Y-129710496D01*
X231070198Y-129546669D01*
X231006557Y-129392263D01*
X230914136Y-129253159D01*
X230829868Y-129168300D01*
X234995769Y-129168300D01*
X235066629Y-129554385D01*
X235211130Y-129919354D01*
X235423769Y-130249305D01*
X235696446Y-130531671D01*
X236018775Y-130755695D01*
X236378479Y-130912846D01*
X236761856Y-130997137D01*
X237154304Y-131005357D01*
X237540874Y-130937194D01*
X237906843Y-130795244D01*
X238238271Y-130584914D01*
X238522533Y-130314215D01*
X238748802Y-129993458D01*
X238908460Y-129634860D01*
X238995425Y-129252081D01*
X239001686Y-128803733D01*
X238925442Y-128418675D01*
X238775859Y-128055759D01*
X238558634Y-127728809D01*
X238282041Y-127450278D01*
X237956616Y-127230776D01*
X237594753Y-127078663D01*
X237210237Y-126999733D01*
X236817712Y-126996993D01*
X236432131Y-127070546D01*
X236068180Y-127217592D01*
X235739721Y-127432529D01*
X235459266Y-127707171D01*
X235237498Y-128031056D01*
X235082862Y-128391848D01*
X235001249Y-128775804D01*
X234995769Y-129168300D01*
X230829868Y-129168300D01*
X230796457Y-129134656D01*
X230658002Y-129041266D01*
X230504044Y-128976548D01*
X230340447Y-128942967D01*
X230173444Y-128941801D01*
X230009394Y-128973095D01*
X229854548Y-129035657D01*
X229714802Y-129127104D01*
X229595480Y-129243953D01*
X229501126Y-129381753D01*
X229435335Y-129535256D01*
X229400612Y-129698614D01*
X229398280Y-129865605D01*
X224805725Y-129865605D01*
X224908460Y-129634860D01*
X224995425Y-129252081D01*
X225001686Y-128803733D01*
X224925442Y-128418675D01*
X224775859Y-128055759D01*
X224558634Y-127728809D01*
X224282041Y-127450278D01*
X223956616Y-127230776D01*
X223594753Y-127078663D01*
X223210237Y-126999733D01*
X222817712Y-126996993D01*
X222432131Y-127070546D01*
X222068180Y-127217592D01*
X221739721Y-127432529D01*
X221459266Y-127707171D01*
X221237498Y-128031056D01*
X221082862Y-128391848D01*
X221001249Y-128775804D01*
X220995769Y-129168300D01*
X220476600Y-129168300D01*
X220476600Y-125008898D01*
X227813866Y-125008898D01*
X227813866Y-125399652D01*
X227829299Y-125477241D01*
X227859573Y-125550327D01*
X227903523Y-125616103D01*
X227959461Y-125672041D01*
X228025237Y-125715991D01*
X228098324Y-125746265D01*
X228175912Y-125761698D01*
X228616666Y-125761698D01*
X228717066Y-125661298D01*
X228717066Y-124908498D01*
X227914266Y-124908498D01*
X227813866Y-125008898D01*
X220476600Y-125008898D01*
X220476600Y-123100000D01*
X220896457Y-123100000D01*
X220896457Y-124100000D01*
X220901557Y-124163953D01*
X220935149Y-124272425D01*
X220997630Y-124367244D01*
X221084053Y-124440902D01*
X221187576Y-124487566D01*
X221300000Y-124503543D01*
X224000000Y-124503543D01*
X224063953Y-124498443D01*
X224172425Y-124464851D01*
X224267244Y-124402370D01*
X224340902Y-124315947D01*
X224387566Y-124212424D01*
X224403543Y-124100000D01*
X224403543Y-123281698D01*
X227813866Y-123281698D01*
X227813866Y-123672452D01*
X227829299Y-123750041D01*
X227859573Y-123823127D01*
X227903523Y-123888903D01*
X227959461Y-123944841D01*
X228025237Y-123988791D01*
X228043843Y-123996498D01*
X228025237Y-124004205D01*
X227959461Y-124048155D01*
X227903523Y-124104093D01*
X227859573Y-124169869D01*
X227829299Y-124242955D01*
X227813866Y-124320544D01*
X227813866Y-124711298D01*
X227914266Y-124811698D01*
X228717066Y-124811698D01*
X228717066Y-124058898D01*
X228654666Y-123996498D01*
X228717066Y-123934098D01*
X228717066Y-123181298D01*
X227914266Y-123181298D01*
X227813866Y-123281698D01*
X224403543Y-123281698D01*
X224403543Y-123100000D01*
X224398443Y-123036047D01*
X224364851Y-122927575D01*
X224302370Y-122832756D01*
X224215947Y-122759098D01*
X224112424Y-122712434D01*
X224000000Y-122696457D01*
X221300000Y-122696457D01*
X221236047Y-122701557D01*
X221127575Y-122735149D01*
X221032756Y-122797630D01*
X220959098Y-122884053D01*
X220912434Y-122987576D01*
X220896457Y-123100000D01*
X220476600Y-123100000D01*
X220476600Y-115200000D01*
X224596457Y-115200000D01*
X224596457Y-115800000D01*
X224601557Y-115863953D01*
X224635149Y-115972425D01*
X224697630Y-116067244D01*
X224766138Y-116125633D01*
X224732756Y-116147630D01*
X224659098Y-116234053D01*
X224612434Y-116337576D01*
X224596457Y-116450000D01*
X224596457Y-117050000D01*
X224601557Y-117113953D01*
X224635149Y-117222425D01*
X224697630Y-117317244D01*
X224766138Y-117375633D01*
X224732756Y-117397630D01*
X224659098Y-117484053D01*
X224612434Y-117587576D01*
X224596457Y-117700000D01*
X224596457Y-118300000D01*
X224601557Y-118363953D01*
X224635149Y-118472425D01*
X224697630Y-118567244D01*
X224766138Y-118625633D01*
X224732756Y-118647630D01*
X224659098Y-118734053D01*
X224612434Y-118837576D01*
X224596457Y-118950000D01*
X224596457Y-119550000D01*
X224601557Y-119613953D01*
X224635149Y-119722425D01*
X224697630Y-119817244D01*
X224766138Y-119875633D01*
X224732756Y-119897630D01*
X224659098Y-119984053D01*
X224612434Y-120087576D01*
X224596457Y-120200000D01*
X224596457Y-120800000D01*
X224601557Y-120863953D01*
X224635149Y-120972425D01*
X224697630Y-121067244D01*
X224766138Y-121125633D01*
X224732756Y-121147630D01*
X224659098Y-121234053D01*
X224612434Y-121337576D01*
X224596457Y-121450000D01*
X224596457Y-122050000D01*
X224601557Y-122113953D01*
X224635149Y-122222425D01*
X224697630Y-122317244D01*
X224784053Y-122390902D01*
X224887576Y-122437566D01*
X225000000Y-122453543D01*
X226700000Y-122453543D01*
X226763953Y-122448443D01*
X226872425Y-122414851D01*
X226967244Y-122352370D01*
X226975997Y-122342100D01*
X227938316Y-122342100D01*
X227903523Y-122376893D01*
X227859573Y-122442669D01*
X227829299Y-122515755D01*
X227813866Y-122593344D01*
X227813866Y-122984098D01*
X227914266Y-123084498D01*
X228717066Y-123084498D01*
X228717066Y-123064498D01*
X228813866Y-123064498D01*
X228813866Y-123084498D01*
X228833866Y-123084498D01*
X228833866Y-123181298D01*
X228813866Y-123181298D01*
X228813866Y-123934098D01*
X228876266Y-123996498D01*
X228813866Y-124058898D01*
X228813866Y-124811698D01*
X228833866Y-124811698D01*
X228833866Y-124908498D01*
X228813866Y-124908498D01*
X228813866Y-125661298D01*
X228914266Y-125761698D01*
X229355020Y-125761698D01*
X229432608Y-125746265D01*
X229505695Y-125715991D01*
X229571471Y-125672041D01*
X229614756Y-125628756D01*
X229699519Y-125701000D01*
X229803042Y-125747664D01*
X229915466Y-125763641D01*
X231015466Y-125763641D01*
X231079419Y-125758541D01*
X231187891Y-125724949D01*
X231282710Y-125662468D01*
X231356368Y-125576045D01*
X231403032Y-125472522D01*
X231419009Y-125360098D01*
X231419009Y-124724787D01*
X232043661Y-124724787D01*
X232122933Y-124914245D01*
X232333812Y-125026846D01*
X232562607Y-125096143D01*
X232800523Y-125119472D01*
X233038421Y-125095938D01*
X233193574Y-125048800D01*
X234198400Y-125048800D01*
X234198400Y-125489554D01*
X234213833Y-125567142D01*
X234244107Y-125640229D01*
X234288057Y-125706005D01*
X234343995Y-125761943D01*
X234409771Y-125805893D01*
X234482857Y-125836167D01*
X234560446Y-125851600D01*
X234951200Y-125851600D01*
X235051600Y-125751200D01*
X235051600Y-124948400D01*
X235148400Y-124948400D01*
X235148400Y-125751200D01*
X235248800Y-125851600D01*
X235639554Y-125851600D01*
X235717143Y-125836167D01*
X235790229Y-125805893D01*
X235856005Y-125761943D01*
X235911943Y-125706005D01*
X235955893Y-125640229D01*
X235986167Y-125567142D01*
X236001600Y-125489554D01*
X236001600Y-125048800D01*
X235901200Y-124948400D01*
X235148400Y-124948400D01*
X235051600Y-124948400D01*
X234298800Y-124948400D01*
X234198400Y-125048800D01*
X233193574Y-125048800D01*
X233267156Y-125026445D01*
X233477067Y-124914245D01*
X233556339Y-124724787D01*
X232800000Y-123968448D01*
X232043661Y-124724787D01*
X231419009Y-124724787D01*
X231419009Y-124360098D01*
X231413909Y-124296145D01*
X231380317Y-124187673D01*
X231317836Y-124092854D01*
X231231413Y-124019196D01*
X231185486Y-123998494D01*
X231187891Y-123997749D01*
X231282710Y-123935268D01*
X231312323Y-123900523D01*
X231580528Y-123900523D01*
X231604062Y-124138421D01*
X231673555Y-124367156D01*
X231785755Y-124577067D01*
X231975213Y-124656339D01*
X232731552Y-123900000D01*
X232868448Y-123900000D01*
X233624787Y-124656339D01*
X233814245Y-124577067D01*
X233926846Y-124366188D01*
X233996143Y-124137393D01*
X234019472Y-123899477D01*
X233995938Y-123661579D01*
X233926445Y-123432844D01*
X233814245Y-123222933D01*
X233624787Y-123143661D01*
X232868448Y-123900000D01*
X232731552Y-123900000D01*
X231975213Y-123143661D01*
X231785755Y-123222933D01*
X231673154Y-123433812D01*
X231603857Y-123662607D01*
X231580528Y-123900523D01*
X231312323Y-123900523D01*
X231356368Y-123848845D01*
X231403032Y-123745322D01*
X231419009Y-123632898D01*
X231419009Y-123075213D01*
X232043661Y-123075213D01*
X232800000Y-123831552D01*
X233556339Y-123075213D01*
X233477067Y-122885755D01*
X233266188Y-122773154D01*
X233037393Y-122703857D01*
X232799477Y-122680528D01*
X232561579Y-122704062D01*
X232332844Y-122773555D01*
X232122933Y-122885755D01*
X232043661Y-123075213D01*
X231419009Y-123075213D01*
X231419009Y-122632898D01*
X231413909Y-122568945D01*
X231380317Y-122460473D01*
X231335263Y-122392100D01*
X234294854Y-122392100D01*
X234259098Y-122434053D01*
X234212434Y-122537576D01*
X234196457Y-122650000D01*
X234196457Y-123750000D01*
X234201557Y-123813953D01*
X234235149Y-123922425D01*
X234297630Y-124017244D01*
X234333897Y-124048155D01*
X234288057Y-124093995D01*
X234244107Y-124159771D01*
X234213833Y-124232858D01*
X234198400Y-124310446D01*
X234198400Y-124751200D01*
X234298800Y-124851600D01*
X235051600Y-124851600D01*
X235051600Y-124831600D01*
X235148400Y-124831600D01*
X235148400Y-124851600D01*
X235901200Y-124851600D01*
X236001600Y-124751200D01*
X236001600Y-124310446D01*
X235986167Y-124232858D01*
X235955893Y-124159771D01*
X235911943Y-124093995D01*
X235868658Y-124050710D01*
X235940902Y-123965947D01*
X235987566Y-123862424D01*
X236003543Y-123750000D01*
X236003543Y-123685339D01*
X236043607Y-123664037D01*
X236086807Y-123641644D01*
X236088973Y-123639915D01*
X236091416Y-123638616D01*
X236129074Y-123607903D01*
X236167128Y-123577525D01*
X236170980Y-123573725D01*
X236171060Y-123573660D01*
X236171121Y-123573586D01*
X236172362Y-123572362D01*
X236392059Y-123352665D01*
X236404087Y-123352917D01*
X236539587Y-123329025D01*
X236667866Y-123279269D01*
X236784038Y-123205544D01*
X236883678Y-123110658D01*
X236962990Y-122998227D01*
X237018953Y-122872531D01*
X237049436Y-122738359D01*
X237051630Y-122581205D01*
X237024905Y-122446234D01*
X237002593Y-122392100D01*
X238200000Y-122392100D01*
X238254429Y-122386763D01*
X238308918Y-122381996D01*
X238311906Y-122381128D01*
X238315006Y-122380824D01*
X238367415Y-122365001D01*
X238419887Y-122349756D01*
X238422648Y-122348325D01*
X238425632Y-122347424D01*
X238473973Y-122321721D01*
X238522480Y-122296577D01*
X238524911Y-122294636D01*
X238527663Y-122293173D01*
X238570077Y-122258581D01*
X238612791Y-122224483D01*
X238617124Y-122220211D01*
X238617214Y-122220137D01*
X238617283Y-122220053D01*
X238618678Y-122218678D01*
X238868678Y-121968678D01*
X238903395Y-121926412D01*
X238938550Y-121884517D01*
X238940050Y-121881789D01*
X238942026Y-121879383D01*
X238967884Y-121831158D01*
X238994220Y-121783253D01*
X238995160Y-121780288D01*
X238996633Y-121777542D01*
X239012628Y-121725223D01*
X239029161Y-121673105D01*
X239029508Y-121670010D01*
X239030418Y-121667034D01*
X239035943Y-121612638D01*
X239042042Y-121558267D01*
X239042085Y-121552178D01*
X239042096Y-121552067D01*
X239042086Y-121551964D01*
X239042100Y-121550000D01*
X239042100Y-120100186D01*
X239063953Y-120098443D01*
X239172425Y-120064851D01*
X239267244Y-120002370D01*
X239340902Y-119915947D01*
X239387566Y-119812424D01*
X239403543Y-119700000D01*
X239403543Y-118700000D01*
X239398443Y-118636047D01*
X239364851Y-118527575D01*
X239302370Y-118432756D01*
X239301600Y-118432100D01*
X239301600Y-117837679D01*
X239317244Y-117827370D01*
X239390902Y-117740947D01*
X239437566Y-117637424D01*
X239453543Y-117525000D01*
X239453543Y-117275000D01*
X239448443Y-117211047D01*
X239430499Y-117153103D01*
X239437566Y-117137424D01*
X239453543Y-117025000D01*
X239453543Y-116775000D01*
X239448443Y-116711047D01*
X239430981Y-116654662D01*
X239436167Y-116642143D01*
X239451600Y-116564554D01*
X239451600Y-116548800D01*
X239351200Y-116448400D01*
X239282728Y-116448400D01*
X239265947Y-116434098D01*
X239192121Y-116400820D01*
X239240229Y-116380893D01*
X239284069Y-116351600D01*
X239351200Y-116351600D01*
X239451600Y-116251200D01*
X239451600Y-116235446D01*
X239436167Y-116157857D01*
X239432912Y-116150000D01*
X239436167Y-116142143D01*
X239451600Y-116064554D01*
X239451600Y-116048800D01*
X239351200Y-115948400D01*
X239284069Y-115948400D01*
X239240229Y-115919107D01*
X239167142Y-115888833D01*
X239089554Y-115873400D01*
X238923800Y-115873400D01*
X238848800Y-115948400D01*
X238823400Y-115948400D01*
X238823400Y-115968400D01*
X238726600Y-115968400D01*
X238726600Y-115948400D01*
X238706600Y-115948400D01*
X238706600Y-115851600D01*
X238726600Y-115851600D01*
X238726600Y-115473800D01*
X238823400Y-115473800D01*
X238823400Y-115851600D01*
X239351200Y-115851600D01*
X239451600Y-115751200D01*
X239451600Y-115735446D01*
X239436167Y-115657857D01*
X239405893Y-115584771D01*
X239361943Y-115518995D01*
X239306005Y-115463057D01*
X239240229Y-115419107D01*
X239167142Y-115388833D01*
X239089554Y-115373400D01*
X238923800Y-115373400D01*
X238823400Y-115473800D01*
X238726600Y-115473800D01*
X238626200Y-115373400D01*
X238460446Y-115373400D01*
X238382858Y-115388833D01*
X238309771Y-115419107D01*
X238279196Y-115439537D01*
X238217142Y-115413833D01*
X238139554Y-115398400D01*
X237748800Y-115398400D01*
X237648400Y-115498800D01*
X237648400Y-116601600D01*
X237668400Y-116601600D01*
X237668400Y-116698400D01*
X237648400Y-116698400D01*
X237648400Y-117801200D01*
X237748800Y-117901600D01*
X238139554Y-117901600D01*
X238217142Y-117886167D01*
X238248400Y-117873219D01*
X238248400Y-118296457D01*
X237900000Y-118296457D01*
X237836047Y-118301557D01*
X237727575Y-118335149D01*
X237632756Y-118397630D01*
X237601845Y-118433897D01*
X237556005Y-118388057D01*
X237490229Y-118344107D01*
X237417142Y-118313833D01*
X237339554Y-118298400D01*
X236898800Y-118298400D01*
X236798400Y-118398800D01*
X236798400Y-119151600D01*
X236818400Y-119151600D01*
X236818400Y-119248400D01*
X236798400Y-119248400D01*
X236798400Y-120001200D01*
X236898800Y-120101600D01*
X237339554Y-120101600D01*
X237417142Y-120086167D01*
X237490229Y-120055893D01*
X237556005Y-120011943D01*
X237599290Y-119968658D01*
X237684053Y-120040902D01*
X237787576Y-120087566D01*
X237857900Y-120097560D01*
X237857900Y-121207900D01*
X233151538Y-121207900D01*
X233234038Y-121155544D01*
X233333678Y-121060658D01*
X233412990Y-120948227D01*
X233468953Y-120822531D01*
X233499436Y-120688359D01*
X233501630Y-120531205D01*
X233474905Y-120396234D01*
X233422474Y-120269025D01*
X233346332Y-120154423D01*
X233249381Y-120056792D01*
X233135313Y-119979852D01*
X233008473Y-119926534D01*
X232873692Y-119898867D01*
X232736104Y-119897906D01*
X232600951Y-119923688D01*
X232477911Y-119973400D01*
X231401422Y-119973400D01*
X231398443Y-119936047D01*
X231364851Y-119827575D01*
X231331261Y-119776600D01*
X233184866Y-119776600D01*
X233243079Y-119836881D01*
X233356061Y-119915406D01*
X233482145Y-119970490D01*
X233616526Y-120000036D01*
X233754087Y-120002917D01*
X233889587Y-119979025D01*
X234017866Y-119929269D01*
X234134038Y-119855544D01*
X234233678Y-119760658D01*
X234312990Y-119648227D01*
X234368953Y-119522531D01*
X234399436Y-119388359D01*
X234399988Y-119348800D01*
X235798400Y-119348800D01*
X235798400Y-119739554D01*
X235813833Y-119817143D01*
X235844107Y-119890229D01*
X235888057Y-119956005D01*
X235943995Y-120011943D01*
X236009771Y-120055893D01*
X236082858Y-120086167D01*
X236160446Y-120101600D01*
X236601200Y-120101600D01*
X236701600Y-120001200D01*
X236701600Y-119248400D01*
X235898800Y-119248400D01*
X235798400Y-119348800D01*
X234399988Y-119348800D01*
X234401630Y-119231205D01*
X234374905Y-119096234D01*
X234322474Y-118969025D01*
X234246332Y-118854423D01*
X234149381Y-118756792D01*
X234035313Y-118679852D01*
X233989148Y-118660446D01*
X235798400Y-118660446D01*
X235798400Y-119051200D01*
X235898800Y-119151600D01*
X236701600Y-119151600D01*
X236701600Y-118398800D01*
X236601200Y-118298400D01*
X236160446Y-118298400D01*
X236082858Y-118313833D01*
X236009771Y-118344107D01*
X235943995Y-118388057D01*
X235888057Y-118443995D01*
X235844107Y-118509771D01*
X235813833Y-118582857D01*
X235798400Y-118660446D01*
X233989148Y-118660446D01*
X233908473Y-118626534D01*
X233773692Y-118598867D01*
X233636104Y-118597906D01*
X233500951Y-118623688D01*
X233373379Y-118675231D01*
X233299769Y-118723400D01*
X227029152Y-118723400D01*
X227002370Y-118682756D01*
X226933862Y-118624367D01*
X226967244Y-118602370D01*
X227031822Y-118526600D01*
X229433151Y-118526600D01*
X229443079Y-118536881D01*
X229556061Y-118615406D01*
X229682145Y-118670490D01*
X229816526Y-118700036D01*
X229954087Y-118702917D01*
X230089587Y-118679025D01*
X230217866Y-118629269D01*
X230334038Y-118555544D01*
X230433678Y-118460658D01*
X230512990Y-118348227D01*
X230568953Y-118222531D01*
X230599436Y-118088359D01*
X230601630Y-117931205D01*
X230574905Y-117796234D01*
X230522474Y-117669025D01*
X230446332Y-117554423D01*
X230349381Y-117456792D01*
X230235313Y-117379852D01*
X230108473Y-117326534D01*
X229973692Y-117298867D01*
X229836104Y-117297906D01*
X229700951Y-117323688D01*
X229573379Y-117375231D01*
X229458247Y-117450571D01*
X229434935Y-117473400D01*
X227029152Y-117473400D01*
X227002370Y-117432756D01*
X226933862Y-117374367D01*
X226967244Y-117352370D01*
X227031822Y-117276600D01*
X230983445Y-117276600D01*
X230997484Y-117323099D01*
X231011059Y-117369826D01*
X231012334Y-117372285D01*
X231013134Y-117374936D01*
X231035963Y-117417871D01*
X231058356Y-117461071D01*
X231060085Y-117463237D01*
X231061384Y-117465680D01*
X231092097Y-117503338D01*
X231122475Y-117541392D01*
X231126275Y-117545244D01*
X231126340Y-117545324D01*
X231126414Y-117545385D01*
X231127638Y-117546626D01*
X231372584Y-117791572D01*
X231410141Y-117822422D01*
X231447434Y-117853715D01*
X231449861Y-117855049D01*
X231452001Y-117856807D01*
X231494874Y-117879795D01*
X231537496Y-117903227D01*
X231540135Y-117904064D01*
X231542576Y-117905373D01*
X231589088Y-117919593D01*
X231635460Y-117934303D01*
X231638213Y-117934612D01*
X231640860Y-117935421D01*
X231689237Y-117940335D01*
X231737594Y-117945759D01*
X231743005Y-117945797D01*
X231743108Y-117945807D01*
X231743204Y-117945798D01*
X231744946Y-117945810D01*
X231868593Y-117945810D01*
X231868593Y-118019210D01*
X231873693Y-118083163D01*
X231907285Y-118191635D01*
X231969766Y-118286454D01*
X232056189Y-118360112D01*
X232159712Y-118406776D01*
X232272136Y-118422753D01*
X232622136Y-118422753D01*
X232686089Y-118417653D01*
X232773671Y-118390530D01*
X232809712Y-118406776D01*
X232922136Y-118422753D01*
X233272136Y-118422753D01*
X233336089Y-118417653D01*
X233421085Y-118391331D01*
X233454993Y-118405377D01*
X233532582Y-118420810D01*
X233598336Y-118420810D01*
X233698736Y-118320410D01*
X233698736Y-117467610D01*
X233795536Y-117467610D01*
X233795536Y-118320410D01*
X233895936Y-118420810D01*
X233961690Y-118420810D01*
X234039279Y-118405377D01*
X234112365Y-118375103D01*
X234178141Y-118331153D01*
X234234079Y-118275215D01*
X234278029Y-118209439D01*
X234308303Y-118136352D01*
X234323736Y-118058764D01*
X234323736Y-117568010D01*
X234223336Y-117467610D01*
X233795536Y-117467610D01*
X233698736Y-117467610D01*
X233678736Y-117467610D01*
X233678736Y-117370810D01*
X233698736Y-117370810D01*
X233698736Y-117350810D01*
X233795536Y-117350810D01*
X233795536Y-117370810D01*
X234223336Y-117370810D01*
X234323736Y-117270410D01*
X234323736Y-116779656D01*
X234308303Y-116702068D01*
X234293769Y-116666981D01*
X234309702Y-116631634D01*
X234325679Y-116519210D01*
X234325679Y-115958992D01*
X234497478Y-115958992D01*
X234522315Y-116094323D01*
X234572966Y-116222252D01*
X234647500Y-116337906D01*
X234743079Y-116436881D01*
X234856061Y-116515406D01*
X234982145Y-116570490D01*
X235116526Y-116600036D01*
X235254087Y-116602917D01*
X235389587Y-116579025D01*
X235517866Y-116529269D01*
X235634038Y-116455544D01*
X235664432Y-116426600D01*
X235748400Y-116426600D01*
X235748400Y-116448402D01*
X235848798Y-116448402D01*
X235748400Y-116548800D01*
X235748400Y-116564554D01*
X235763833Y-116642143D01*
X235767574Y-116651174D01*
X235762434Y-116662576D01*
X235746457Y-116775000D01*
X235746457Y-116873400D01*
X235665873Y-116873400D01*
X235649381Y-116856792D01*
X235535313Y-116779852D01*
X235408473Y-116726534D01*
X235273692Y-116698867D01*
X235136104Y-116697906D01*
X235000951Y-116723688D01*
X234873379Y-116775231D01*
X234758247Y-116850571D01*
X234659942Y-116946838D01*
X234582208Y-117060366D01*
X234528005Y-117186831D01*
X234499399Y-117321415D01*
X234497478Y-117458992D01*
X234522315Y-117594323D01*
X234572966Y-117722252D01*
X234647500Y-117837906D01*
X234743079Y-117936881D01*
X234856061Y-118015406D01*
X234982145Y-118070490D01*
X235116526Y-118100036D01*
X235254087Y-118102917D01*
X235389587Y-118079025D01*
X235517866Y-118029269D01*
X235634038Y-117955544D01*
X235664432Y-117926600D01*
X236136328Y-117926600D01*
X236150000Y-117928543D01*
X236700000Y-117928543D01*
X236763953Y-117923443D01*
X236872425Y-117889851D01*
X236918482Y-117859501D01*
X236982858Y-117886167D01*
X237060446Y-117901600D01*
X237451200Y-117901600D01*
X237551600Y-117801200D01*
X237551600Y-116698400D01*
X237531600Y-116698400D01*
X237531600Y-116601600D01*
X237551600Y-116601600D01*
X237551600Y-115498800D01*
X237451200Y-115398400D01*
X237060446Y-115398400D01*
X236982858Y-115413833D01*
X236921830Y-115439112D01*
X236915947Y-115434098D01*
X236812424Y-115387434D01*
X236700000Y-115371457D01*
X236150000Y-115371457D01*
X236125635Y-115373400D01*
X235665873Y-115373400D01*
X235649381Y-115356792D01*
X235535313Y-115279852D01*
X235408473Y-115226534D01*
X235273692Y-115198867D01*
X235136104Y-115197906D01*
X235000951Y-115223688D01*
X234873379Y-115275231D01*
X234758247Y-115350571D01*
X234659942Y-115446838D01*
X234582208Y-115560366D01*
X234528005Y-115686831D01*
X234499399Y-115821415D01*
X234497478Y-115958992D01*
X234325679Y-115958992D01*
X234325679Y-115319210D01*
X234320579Y-115255257D01*
X234286987Y-115146785D01*
X234224506Y-115051966D01*
X234138083Y-114978308D01*
X234034560Y-114931644D01*
X233922136Y-114915667D01*
X233623736Y-114915667D01*
X233623736Y-114693553D01*
X233647136Y-114693553D01*
X233711089Y-114688453D01*
X233819561Y-114654861D01*
X233914380Y-114592380D01*
X233945291Y-114556113D01*
X233991131Y-114601953D01*
X234056907Y-114645903D01*
X234129994Y-114676177D01*
X234207582Y-114691610D01*
X234648336Y-114691610D01*
X234748736Y-114591210D01*
X234748736Y-113838410D01*
X234845536Y-113838410D01*
X234845536Y-114591210D01*
X234945936Y-114691610D01*
X235386690Y-114691610D01*
X235464278Y-114676177D01*
X235537365Y-114645903D01*
X235603141Y-114601953D01*
X235659079Y-114546015D01*
X235703029Y-114480239D01*
X235733303Y-114407153D01*
X235748736Y-114329564D01*
X235748736Y-114239525D01*
X237094480Y-114239525D01*
X237124628Y-114403789D01*
X237186108Y-114559068D01*
X237276577Y-114699449D01*
X237392590Y-114819584D01*
X237529728Y-114914898D01*
X237682768Y-114981759D01*
X237845879Y-115017621D01*
X238012850Y-115021119D01*
X238177320Y-114992118D01*
X238333025Y-114931724D01*
X238474034Y-114842237D01*
X238594977Y-114727066D01*
X238691245Y-114590596D01*
X238759173Y-114438028D01*
X238796173Y-114275170D01*
X238798837Y-114084416D01*
X238766398Y-113920589D01*
X238702757Y-113766183D01*
X238610336Y-113627079D01*
X238492657Y-113508576D01*
X238354202Y-113415186D01*
X238200244Y-113350468D01*
X238036647Y-113316887D01*
X237869644Y-113315721D01*
X237705594Y-113347015D01*
X237550748Y-113409577D01*
X237411002Y-113501024D01*
X237291680Y-113617873D01*
X237197326Y-113755673D01*
X237131535Y-113909176D01*
X237096812Y-114072534D01*
X237094480Y-114239525D01*
X235748736Y-114239525D01*
X235748736Y-113938810D01*
X235648336Y-113838410D01*
X234845536Y-113838410D01*
X234748736Y-113838410D01*
X234728736Y-113838410D01*
X234728736Y-113741610D01*
X234748736Y-113741610D01*
X234748736Y-112988810D01*
X234845536Y-112988810D01*
X234845536Y-113741610D01*
X235648336Y-113741610D01*
X235748736Y-113641210D01*
X235748736Y-113250456D01*
X235733303Y-113172867D01*
X235703029Y-113099781D01*
X235659079Y-113034005D01*
X235603141Y-112978067D01*
X235537365Y-112934117D01*
X235464278Y-112903843D01*
X235386690Y-112888410D01*
X234945936Y-112888410D01*
X234845536Y-112988810D01*
X234748736Y-112988810D01*
X234648336Y-112888410D01*
X234207582Y-112888410D01*
X234129994Y-112903843D01*
X234056907Y-112934117D01*
X233991131Y-112978067D01*
X233947846Y-113021352D01*
X233863083Y-112949108D01*
X233759560Y-112902444D01*
X233647136Y-112886467D01*
X233623736Y-112886467D01*
X233623736Y-111929567D01*
X233626549Y-111904488D01*
X233626587Y-111899068D01*
X233626596Y-111898975D01*
X233626588Y-111898889D01*
X233626600Y-111897136D01*
X233626600Y-111732618D01*
X233637576Y-111737566D01*
X233750000Y-111753543D01*
X234850000Y-111753543D01*
X234913953Y-111748443D01*
X235022425Y-111714851D01*
X235117244Y-111652370D01*
X235190902Y-111565947D01*
X235237566Y-111462424D01*
X235253543Y-111350000D01*
X235253543Y-110850000D01*
X235248443Y-110786047D01*
X235214851Y-110677575D01*
X235152370Y-110582756D01*
X235065947Y-110509098D01*
X234990037Y-110474881D01*
X235022425Y-110464851D01*
X235117244Y-110402370D01*
X235190902Y-110315947D01*
X235237566Y-110212424D01*
X235253543Y-110100000D01*
X235253543Y-109600000D01*
X235248443Y-109536047D01*
X235214851Y-109427575D01*
X235152370Y-109332756D01*
X235065947Y-109259098D01*
X234990037Y-109224881D01*
X235022425Y-109214851D01*
X235090613Y-109169918D01*
X235156061Y-109215406D01*
X235282145Y-109270490D01*
X235416526Y-109300036D01*
X235554087Y-109302917D01*
X235689587Y-109279025D01*
X235817866Y-109229269D01*
X235934038Y-109155544D01*
X236033678Y-109060658D01*
X236112990Y-108948227D01*
X236168953Y-108822531D01*
X236199436Y-108688359D01*
X236201630Y-108531205D01*
X236174905Y-108396234D01*
X236122474Y-108269025D01*
X236046332Y-108154423D01*
X235993934Y-108101657D01*
X236054087Y-108102917D01*
X236189587Y-108079025D01*
X236317866Y-108029269D01*
X236434038Y-107955544D01*
X236533678Y-107860658D01*
X236612990Y-107748227D01*
X236668953Y-107622531D01*
X236699436Y-107488359D01*
X236701630Y-107331205D01*
X236674905Y-107196234D01*
X236622474Y-107069025D01*
X236546332Y-106954423D01*
X236449381Y-106856792D01*
X236335313Y-106779852D01*
X236208473Y-106726534D01*
X236073692Y-106698867D01*
X235936104Y-106697906D01*
X235800951Y-106723688D01*
X235673379Y-106775231D01*
X235599769Y-106823400D01*
X235141393Y-106823400D01*
X235065947Y-106759098D01*
X234962424Y-106712434D01*
X234850000Y-106696457D01*
X233750000Y-106696457D01*
X233686047Y-106701557D01*
X233577575Y-106735149D01*
X233482756Y-106797630D01*
X233409098Y-106884053D01*
X233362434Y-106987576D01*
X233346457Y-107100000D01*
X233346457Y-107301732D01*
X233022362Y-106977638D01*
X232984805Y-106946788D01*
X232947512Y-106915495D01*
X232945085Y-106914161D01*
X232942945Y-106912403D01*
X232900072Y-106889415D01*
X232857450Y-106865983D01*
X232854811Y-106865146D01*
X232852370Y-106863837D01*
X232805858Y-106849617D01*
X232759486Y-106834907D01*
X232756733Y-106834598D01*
X232754086Y-106833789D01*
X232705709Y-106828875D01*
X232657352Y-106823451D01*
X232651941Y-106823413D01*
X232651838Y-106823403D01*
X232651742Y-106823412D01*
X232650000Y-106823400D01*
X232641393Y-106823400D01*
X232565947Y-106759098D01*
X232462424Y-106712434D01*
X232350000Y-106696457D01*
X232326600Y-106696457D01*
X232326600Y-105901422D01*
X232363953Y-105898443D01*
X232472425Y-105864851D01*
X232567244Y-105802370D01*
X232598155Y-105766103D01*
X232643995Y-105811943D01*
X232709771Y-105855893D01*
X232782858Y-105886167D01*
X232860446Y-105901600D01*
X233301200Y-105901600D01*
X233401600Y-105801200D01*
X233401600Y-105048400D01*
X233498400Y-105048400D01*
X233498400Y-105801200D01*
X233598800Y-105901600D01*
X234039554Y-105901600D01*
X234117142Y-105886167D01*
X234190229Y-105855893D01*
X234256005Y-105811943D01*
X234311943Y-105756005D01*
X234355893Y-105690229D01*
X234386167Y-105617143D01*
X234401600Y-105539554D01*
X234401600Y-105148800D01*
X234301200Y-105048400D01*
X233498400Y-105048400D01*
X233401600Y-105048400D01*
X233381600Y-105048400D01*
X233381600Y-104951600D01*
X233401600Y-104951600D01*
X233401600Y-104198800D01*
X233498400Y-104198800D01*
X233498400Y-104951600D01*
X234301200Y-104951600D01*
X234401600Y-104851200D01*
X234401600Y-104460446D01*
X234386167Y-104382857D01*
X234355893Y-104309771D01*
X234311943Y-104243995D01*
X234256005Y-104188057D01*
X234190229Y-104144107D01*
X234117142Y-104113833D01*
X234039554Y-104098400D01*
X233598800Y-104098400D01*
X233498400Y-104198800D01*
X233401600Y-104198800D01*
X233301200Y-104098400D01*
X232860446Y-104098400D01*
X232782858Y-104113833D01*
X232709771Y-104144107D01*
X232643995Y-104188057D01*
X232600710Y-104231342D01*
X232515947Y-104159098D01*
X232412424Y-104112434D01*
X232300000Y-104096457D01*
X231200000Y-104096457D01*
X231136047Y-104101557D01*
X231027575Y-104135149D01*
X230932756Y-104197630D01*
X230859098Y-104284053D01*
X230812434Y-104387576D01*
X230796457Y-104500000D01*
X230796457Y-105500000D01*
X230801557Y-105563953D01*
X230835149Y-105672425D01*
X230897630Y-105767244D01*
X230984053Y-105840902D01*
X231087576Y-105887566D01*
X231200000Y-105903543D01*
X231273400Y-105903543D01*
X231273400Y-106696457D01*
X231250000Y-106696457D01*
X231186047Y-106701557D01*
X231077575Y-106735149D01*
X230982756Y-106797630D01*
X230909098Y-106884053D01*
X230862434Y-106987576D01*
X230846457Y-107100000D01*
X230846457Y-107600000D01*
X230851557Y-107663953D01*
X230885149Y-107772425D01*
X230947630Y-107867244D01*
X231034053Y-107940902D01*
X231109963Y-107975119D01*
X231077575Y-107985149D01*
X231021334Y-108022209D01*
X230229562Y-107230438D01*
X230192005Y-107199588D01*
X230154712Y-107168295D01*
X230152285Y-107166961D01*
X230150145Y-107165203D01*
X230107272Y-107142215D01*
X230064650Y-107118783D01*
X230062011Y-107117946D01*
X230059570Y-107116637D01*
X230013058Y-107102417D01*
X230010743Y-107101683D01*
X230010743Y-107052800D01*
X230005643Y-106988847D01*
X229972051Y-106880375D01*
X229909570Y-106785556D01*
X229873303Y-106754645D01*
X229919143Y-106708805D01*
X229963093Y-106643029D01*
X229993367Y-106569942D01*
X230008800Y-106492354D01*
X230008800Y-106051600D01*
X229908400Y-105951200D01*
X229155600Y-105951200D01*
X229155600Y-105971200D01*
X229058800Y-105971200D01*
X229058800Y-105951200D01*
X228306000Y-105951200D01*
X228205600Y-106051600D01*
X228205600Y-106492354D01*
X228221033Y-106569942D01*
X228251307Y-106643029D01*
X228295257Y-106708805D01*
X228338542Y-106752090D01*
X228266298Y-106836853D01*
X228219634Y-106940376D01*
X228203657Y-107052800D01*
X228203657Y-108152800D01*
X228208757Y-108216753D01*
X228242349Y-108325225D01*
X228304830Y-108420044D01*
X228391253Y-108493702D01*
X228414122Y-108504011D01*
X228351195Y-108546057D01*
X228295257Y-108601995D01*
X228251307Y-108667771D01*
X228221033Y-108740858D01*
X228205600Y-108818446D01*
X228205600Y-109259200D01*
X228306000Y-109359600D01*
X229058800Y-109359600D01*
X229058800Y-109339600D01*
X229155600Y-109339600D01*
X229155600Y-109359600D01*
X229908400Y-109359600D01*
X230008800Y-109259200D01*
X230008800Y-108818446D01*
X229993367Y-108740858D01*
X229963093Y-108667771D01*
X229919143Y-108601995D01*
X229863205Y-108546057D01*
X229800301Y-108504026D01*
X229874444Y-108455170D01*
X229916040Y-108406365D01*
X230482038Y-108972363D01*
X230519625Y-109003237D01*
X230556888Y-109034505D01*
X230559315Y-109035839D01*
X230561455Y-109037597D01*
X230604328Y-109060585D01*
X230646950Y-109084017D01*
X230649589Y-109084854D01*
X230652030Y-109086163D01*
X230698542Y-109100383D01*
X230744914Y-109115093D01*
X230747667Y-109115402D01*
X230750314Y-109116211D01*
X230798691Y-109121125D01*
X230847048Y-109126549D01*
X230852459Y-109126587D01*
X230852562Y-109126597D01*
X230852658Y-109126588D01*
X230854400Y-109126600D01*
X230958607Y-109126600D01*
X231034053Y-109190902D01*
X231107879Y-109224180D01*
X231059771Y-109244107D01*
X230993995Y-109288057D01*
X230938057Y-109343995D01*
X230894107Y-109409771D01*
X230863833Y-109482858D01*
X230848400Y-109560446D01*
X230848400Y-109701200D01*
X230948800Y-109801600D01*
X231751600Y-109801600D01*
X231751600Y-109781600D01*
X231848400Y-109781600D01*
X231848400Y-109801600D01*
X231868400Y-109801600D01*
X231868400Y-109898400D01*
X231848400Y-109898400D01*
X231848400Y-109918400D01*
X231751600Y-109918400D01*
X231751600Y-109898400D01*
X230948800Y-109898400D01*
X230848400Y-109998800D01*
X230848400Y-110139554D01*
X230863833Y-110217142D01*
X230894107Y-110290229D01*
X230938057Y-110356005D01*
X230993995Y-110411943D01*
X231059771Y-110455893D01*
X231107801Y-110475788D01*
X231077575Y-110485149D01*
X230982756Y-110547630D01*
X230953974Y-110581400D01*
X230010743Y-110581400D01*
X230010743Y-110558000D01*
X230005643Y-110494047D01*
X229972051Y-110385575D01*
X229909570Y-110290756D01*
X229873303Y-110259845D01*
X229919143Y-110214005D01*
X229963093Y-110148229D01*
X229993367Y-110075142D01*
X230008800Y-109997554D01*
X230008800Y-109556800D01*
X229908400Y-109456400D01*
X229155600Y-109456400D01*
X229155600Y-109476400D01*
X229058800Y-109476400D01*
X229058800Y-109456400D01*
X228306000Y-109456400D01*
X228205600Y-109556800D01*
X228205600Y-109997554D01*
X228221033Y-110075142D01*
X228251307Y-110148229D01*
X228295257Y-110214005D01*
X228338542Y-110257290D01*
X228266298Y-110342053D01*
X228219634Y-110445576D01*
X228203657Y-110558000D01*
X228203657Y-111658000D01*
X228208757Y-111721953D01*
X228242349Y-111830425D01*
X228304830Y-111925244D01*
X228391253Y-111998902D01*
X228494776Y-112045566D01*
X228607200Y-112061543D01*
X229607200Y-112061543D01*
X229671153Y-112056443D01*
X229779625Y-112022851D01*
X229874444Y-111960370D01*
X229948102Y-111873947D01*
X229994766Y-111770424D01*
X230010743Y-111658000D01*
X230010743Y-111634600D01*
X230967994Y-111634600D01*
X231034053Y-111690902D01*
X231137576Y-111737566D01*
X231250000Y-111753543D01*
X232350000Y-111753543D01*
X232413953Y-111748443D01*
X232522425Y-111714851D01*
X232570536Y-111683148D01*
X232570536Y-112886467D01*
X232547136Y-112886467D01*
X232483183Y-112891567D01*
X232374711Y-112925159D01*
X232279892Y-112987640D01*
X232206234Y-113074063D01*
X232159570Y-113177586D01*
X232145954Y-113273400D01*
X231065873Y-113273400D01*
X231049381Y-113256792D01*
X230935313Y-113179852D01*
X230808473Y-113126534D01*
X230673692Y-113098867D01*
X230536104Y-113097906D01*
X230400951Y-113123688D01*
X230273379Y-113175231D01*
X230158247Y-113250571D01*
X230059942Y-113346838D01*
X229982208Y-113460366D01*
X229928005Y-113586831D01*
X229899399Y-113721415D01*
X229897478Y-113858992D01*
X229922315Y-113994323D01*
X229972966Y-114122252D01*
X230047500Y-114237906D01*
X230143079Y-114336881D01*
X230256061Y-114415406D01*
X230382145Y-114470490D01*
X230516526Y-114500036D01*
X230654087Y-114502917D01*
X230789587Y-114479025D01*
X230917866Y-114429269D01*
X231034038Y-114355544D01*
X231064432Y-114326600D01*
X232146511Y-114326600D01*
X232148693Y-114353963D01*
X232182285Y-114462435D01*
X232244766Y-114557254D01*
X232331189Y-114630912D01*
X232434712Y-114677576D01*
X232547136Y-114693553D01*
X232570536Y-114693553D01*
X232570536Y-114915667D01*
X232272136Y-114915667D01*
X232208183Y-114920767D01*
X232099711Y-114954359D01*
X232004892Y-115016840D01*
X231931234Y-115103263D01*
X231884570Y-115206786D01*
X231870786Y-115303779D01*
X231835313Y-115279852D01*
X231708473Y-115226534D01*
X231573692Y-115198867D01*
X231436104Y-115197906D01*
X231300951Y-115223688D01*
X231173379Y-115275231D01*
X231058247Y-115350571D01*
X231027978Y-115380212D01*
X231003131Y-115382386D01*
X231000471Y-115383159D01*
X230997716Y-115383429D01*
X230951165Y-115397484D01*
X230904438Y-115411059D01*
X230901979Y-115412334D01*
X230899328Y-115413134D01*
X230856414Y-115435952D01*
X230813192Y-115458356D01*
X230811024Y-115460086D01*
X230808584Y-115461384D01*
X230770948Y-115492079D01*
X230732872Y-115522475D01*
X230729020Y-115526275D01*
X230728940Y-115526340D01*
X230728879Y-115526414D01*
X230727638Y-115527638D01*
X230581876Y-115673400D01*
X227868125Y-115673400D01*
X227322362Y-115127638D01*
X227284805Y-115096788D01*
X227247512Y-115065495D01*
X227245085Y-115064161D01*
X227242945Y-115062403D01*
X227200072Y-115039415D01*
X227157450Y-115015983D01*
X227154811Y-115015146D01*
X227152370Y-115013837D01*
X227105858Y-114999617D01*
X227059486Y-114984907D01*
X227056733Y-114984598D01*
X227054086Y-114983789D01*
X227034701Y-114981820D01*
X227002370Y-114932756D01*
X226935422Y-114875696D01*
X226956005Y-114861943D01*
X227011943Y-114806005D01*
X227055893Y-114740229D01*
X227086167Y-114667142D01*
X227101600Y-114589554D01*
X227101600Y-114398800D01*
X227001200Y-114298400D01*
X225898400Y-114298400D01*
X225898400Y-114318400D01*
X225801600Y-114318400D01*
X225801600Y-114298400D01*
X224698800Y-114298400D01*
X224598400Y-114398800D01*
X224598400Y-114589554D01*
X224613833Y-114667142D01*
X224644107Y-114740229D01*
X224688057Y-114806005D01*
X224743995Y-114861943D01*
X224765305Y-114876182D01*
X224732756Y-114897630D01*
X224659098Y-114984053D01*
X224612434Y-115087576D01*
X224596457Y-115200000D01*
X220476600Y-115200000D01*
X220476600Y-113910446D01*
X224598400Y-113910446D01*
X224598400Y-114101200D01*
X224698800Y-114201600D01*
X225801600Y-114201600D01*
X225801600Y-113648800D01*
X225898400Y-113648800D01*
X225898400Y-114201600D01*
X227001200Y-114201600D01*
X227101600Y-114101200D01*
X227101600Y-113910446D01*
X227086167Y-113832858D01*
X227055893Y-113759771D01*
X227011943Y-113693995D01*
X226956005Y-113638057D01*
X226890229Y-113594107D01*
X226817143Y-113563833D01*
X226739554Y-113548400D01*
X225998800Y-113548400D01*
X225898400Y-113648800D01*
X225801600Y-113648800D01*
X225701200Y-113548400D01*
X224960446Y-113548400D01*
X224882857Y-113563833D01*
X224809771Y-113594107D01*
X224743995Y-113638057D01*
X224688057Y-113693995D01*
X224644107Y-113759771D01*
X224613833Y-113832858D01*
X224598400Y-113910446D01*
X220476600Y-113910446D01*
X220476600Y-111900000D01*
X220896457Y-111900000D01*
X220896457Y-112900000D01*
X220901557Y-112963953D01*
X220935149Y-113072425D01*
X220997630Y-113167244D01*
X221084053Y-113240902D01*
X221187576Y-113287566D01*
X221300000Y-113303543D01*
X224000000Y-113303543D01*
X224063953Y-113298443D01*
X224172425Y-113264851D01*
X224267244Y-113202370D01*
X224340902Y-113115947D01*
X224387566Y-113012424D01*
X224403543Y-112900000D01*
X224403543Y-111900000D01*
X224398443Y-111836047D01*
X224364851Y-111727575D01*
X224302370Y-111632756D01*
X224215947Y-111559098D01*
X224112424Y-111512434D01*
X224000000Y-111496457D01*
X221300000Y-111496457D01*
X221236047Y-111501557D01*
X221127575Y-111535149D01*
X221032756Y-111597630D01*
X220959098Y-111684053D01*
X220912434Y-111787576D01*
X220896457Y-111900000D01*
X220476600Y-111900000D01*
X220476600Y-109926605D01*
X221143280Y-109926605D01*
X221173428Y-110090869D01*
X221234908Y-110246148D01*
X221325377Y-110386529D01*
X221441390Y-110506664D01*
X221578528Y-110601978D01*
X221731568Y-110668839D01*
X221894679Y-110704701D01*
X222061650Y-110708199D01*
X222226120Y-110679198D01*
X222381825Y-110618804D01*
X222522834Y-110529317D01*
X222643777Y-110414146D01*
X222740045Y-110277676D01*
X222807973Y-110125108D01*
X222844973Y-109962250D01*
X222847637Y-109771496D01*
X222815198Y-109607669D01*
X222751557Y-109453263D01*
X222659136Y-109314159D01*
X222541457Y-109195656D01*
X222403002Y-109102266D01*
X222249044Y-109037548D01*
X222085447Y-109003967D01*
X221918444Y-109002801D01*
X221754394Y-109034095D01*
X221599548Y-109096657D01*
X221459802Y-109188104D01*
X221340480Y-109304953D01*
X221246126Y-109442753D01*
X221180335Y-109596256D01*
X221145612Y-109759614D01*
X221143280Y-109926605D01*
X220476600Y-109926605D01*
X220476600Y-105313246D01*
X228205600Y-105313246D01*
X228205600Y-105754000D01*
X228306000Y-105854400D01*
X229058800Y-105854400D01*
X229058800Y-105051600D01*
X229155600Y-105051600D01*
X229155600Y-105854400D01*
X229908400Y-105854400D01*
X230008800Y-105754000D01*
X230008800Y-105313246D01*
X229993367Y-105235658D01*
X229963093Y-105162571D01*
X229919143Y-105096795D01*
X229863205Y-105040857D01*
X229797429Y-104996907D01*
X229724343Y-104966633D01*
X229646754Y-104951200D01*
X229256000Y-104951200D01*
X229155600Y-105051600D01*
X229058800Y-105051600D01*
X228958400Y-104951200D01*
X228567646Y-104951200D01*
X228490057Y-104966633D01*
X228416971Y-104996907D01*
X228351195Y-105040857D01*
X228295257Y-105096795D01*
X228251307Y-105162571D01*
X228221033Y-105235658D01*
X228205600Y-105313246D01*
X220476600Y-105313246D01*
X220476600Y-103168300D01*
X220995769Y-103168300D01*
X221066629Y-103554385D01*
X221211130Y-103919354D01*
X221423769Y-104249305D01*
X221696446Y-104531671D01*
X222018775Y-104755695D01*
X222378479Y-104912846D01*
X222761856Y-104997137D01*
X223154304Y-105005357D01*
X223540874Y-104937194D01*
X223906843Y-104795244D01*
X224238271Y-104584914D01*
X224522533Y-104314215D01*
X224748802Y-103993458D01*
X224908460Y-103634860D01*
X224995425Y-103252081D01*
X224996594Y-103168300D01*
X234995769Y-103168300D01*
X235066629Y-103554385D01*
X235211130Y-103919354D01*
X235423769Y-104249305D01*
X235696446Y-104531671D01*
X236018775Y-104755695D01*
X236378479Y-104912846D01*
X236761856Y-104997137D01*
X237154304Y-105005357D01*
X237540874Y-104937194D01*
X237906843Y-104795244D01*
X238238271Y-104584914D01*
X238522533Y-104314215D01*
X238748802Y-103993458D01*
X238908460Y-103634860D01*
X238995425Y-103252081D01*
X239001686Y-102803733D01*
X238925442Y-102418675D01*
X238775859Y-102055759D01*
X238558634Y-101728809D01*
X238282041Y-101450278D01*
X237956616Y-101230776D01*
X237594753Y-101078663D01*
X237210237Y-100999733D01*
X236817712Y-100996993D01*
X236432131Y-101070546D01*
X236068180Y-101217592D01*
X235739721Y-101432529D01*
X235459266Y-101707171D01*
X235237498Y-102031056D01*
X235082862Y-102391848D01*
X235001249Y-102775804D01*
X234995769Y-103168300D01*
X224996594Y-103168300D01*
X225001686Y-102803733D01*
X224925442Y-102418675D01*
X224775859Y-102055759D01*
X224558634Y-101728809D01*
X224282041Y-101450278D01*
X223956616Y-101230776D01*
X223594753Y-101078663D01*
X223210237Y-100999733D01*
X222817712Y-100996993D01*
X222432131Y-101070546D01*
X222068180Y-101217592D01*
X221739721Y-101432529D01*
X221459266Y-101707171D01*
X221237498Y-102031056D01*
X221082862Y-102391848D01*
X221001249Y-102775804D01*
X220995769Y-103168300D01*
X220476600Y-103168300D01*
X220476600Y-100476600D01*
X239523400Y-100476600D01*
X239523400Y-131523400D01*
X239523400Y-131523400D01*
G37*
X239523400Y-131523400D02*
X220476600Y-131523400D01*
X220476600Y-129168300D01*
X220995769Y-129168300D01*
X221066629Y-129554385D01*
X221211130Y-129919354D01*
X221423769Y-130249305D01*
X221696446Y-130531671D01*
X222018775Y-130755695D01*
X222378479Y-130912846D01*
X222761856Y-130997137D01*
X223154304Y-131005357D01*
X223540874Y-130937194D01*
X223906843Y-130795244D01*
X224238271Y-130584914D01*
X224522533Y-130314215D01*
X224748802Y-129993458D01*
X224805725Y-129865605D01*
X229398280Y-129865605D01*
X229428428Y-130029869D01*
X229489908Y-130185148D01*
X229580377Y-130325529D01*
X229696390Y-130445664D01*
X229833528Y-130540978D01*
X229986568Y-130607839D01*
X230149679Y-130643701D01*
X230316650Y-130647199D01*
X230481120Y-130618198D01*
X230636825Y-130557804D01*
X230777834Y-130468317D01*
X230898777Y-130353146D01*
X230995045Y-130216676D01*
X231062973Y-130064108D01*
X231099973Y-129901250D01*
X231102637Y-129710496D01*
X231070198Y-129546669D01*
X231006557Y-129392263D01*
X230914136Y-129253159D01*
X230829868Y-129168300D01*
X234995769Y-129168300D01*
X235066629Y-129554385D01*
X235211130Y-129919354D01*
X235423769Y-130249305D01*
X235696446Y-130531671D01*
X236018775Y-130755695D01*
X236378479Y-130912846D01*
X236761856Y-130997137D01*
X237154304Y-131005357D01*
X237540874Y-130937194D01*
X237906843Y-130795244D01*
X238238271Y-130584914D01*
X238522533Y-130314215D01*
X238748802Y-129993458D01*
X238908460Y-129634860D01*
X238995425Y-129252081D01*
X239001686Y-128803733D01*
X238925442Y-128418675D01*
X238775859Y-128055759D01*
X238558634Y-127728809D01*
X238282041Y-127450278D01*
X237956616Y-127230776D01*
X237594753Y-127078663D01*
X237210237Y-126999733D01*
X236817712Y-126996993D01*
X236432131Y-127070546D01*
X236068180Y-127217592D01*
X235739721Y-127432529D01*
X235459266Y-127707171D01*
X235237498Y-128031056D01*
X235082862Y-128391848D01*
X235001249Y-128775804D01*
X234995769Y-129168300D01*
X230829868Y-129168300D01*
X230796457Y-129134656D01*
X230658002Y-129041266D01*
X230504044Y-128976548D01*
X230340447Y-128942967D01*
X230173444Y-128941801D01*
X230009394Y-128973095D01*
X229854548Y-129035657D01*
X229714802Y-129127104D01*
X229595480Y-129243953D01*
X229501126Y-129381753D01*
X229435335Y-129535256D01*
X229400612Y-129698614D01*
X229398280Y-129865605D01*
X224805725Y-129865605D01*
X224908460Y-129634860D01*
X224995425Y-129252081D01*
X225001686Y-128803733D01*
X224925442Y-128418675D01*
X224775859Y-128055759D01*
X224558634Y-127728809D01*
X224282041Y-127450278D01*
X223956616Y-127230776D01*
X223594753Y-127078663D01*
X223210237Y-126999733D01*
X222817712Y-126996993D01*
X222432131Y-127070546D01*
X222068180Y-127217592D01*
X221739721Y-127432529D01*
X221459266Y-127707171D01*
X221237498Y-128031056D01*
X221082862Y-128391848D01*
X221001249Y-128775804D01*
X220995769Y-129168300D01*
X220476600Y-129168300D01*
X220476600Y-125008898D01*
X227813866Y-125008898D01*
X227813866Y-125399652D01*
X227829299Y-125477241D01*
X227859573Y-125550327D01*
X227903523Y-125616103D01*
X227959461Y-125672041D01*
X228025237Y-125715991D01*
X228098324Y-125746265D01*
X228175912Y-125761698D01*
X228616666Y-125761698D01*
X228717066Y-125661298D01*
X228717066Y-124908498D01*
X227914266Y-124908498D01*
X227813866Y-125008898D01*
X220476600Y-125008898D01*
X220476600Y-123100000D01*
X220896457Y-123100000D01*
X220896457Y-124100000D01*
X220901557Y-124163953D01*
X220935149Y-124272425D01*
X220997630Y-124367244D01*
X221084053Y-124440902D01*
X221187576Y-124487566D01*
X221300000Y-124503543D01*
X224000000Y-124503543D01*
X224063953Y-124498443D01*
X224172425Y-124464851D01*
X224267244Y-124402370D01*
X224340902Y-124315947D01*
X224387566Y-124212424D01*
X224403543Y-124100000D01*
X224403543Y-123281698D01*
X227813866Y-123281698D01*
X227813866Y-123672452D01*
X227829299Y-123750041D01*
X227859573Y-123823127D01*
X227903523Y-123888903D01*
X227959461Y-123944841D01*
X228025237Y-123988791D01*
X228043843Y-123996498D01*
X228025237Y-124004205D01*
X227959461Y-124048155D01*
X227903523Y-124104093D01*
X227859573Y-124169869D01*
X227829299Y-124242955D01*
X227813866Y-124320544D01*
X227813866Y-124711298D01*
X227914266Y-124811698D01*
X228717066Y-124811698D01*
X228717066Y-124058898D01*
X228654666Y-123996498D01*
X228717066Y-123934098D01*
X228717066Y-123181298D01*
X227914266Y-123181298D01*
X227813866Y-123281698D01*
X224403543Y-123281698D01*
X224403543Y-123100000D01*
X224398443Y-123036047D01*
X224364851Y-122927575D01*
X224302370Y-122832756D01*
X224215947Y-122759098D01*
X224112424Y-122712434D01*
X224000000Y-122696457D01*
X221300000Y-122696457D01*
X221236047Y-122701557D01*
X221127575Y-122735149D01*
X221032756Y-122797630D01*
X220959098Y-122884053D01*
X220912434Y-122987576D01*
X220896457Y-123100000D01*
X220476600Y-123100000D01*
X220476600Y-115200000D01*
X224596457Y-115200000D01*
X224596457Y-115800000D01*
X224601557Y-115863953D01*
X224635149Y-115972425D01*
X224697630Y-116067244D01*
X224766138Y-116125633D01*
X224732756Y-116147630D01*
X224659098Y-116234053D01*
X224612434Y-116337576D01*
X224596457Y-116450000D01*
X224596457Y-117050000D01*
X224601557Y-117113953D01*
X224635149Y-117222425D01*
X224697630Y-117317244D01*
X224766138Y-117375633D01*
X224732756Y-117397630D01*
X224659098Y-117484053D01*
X224612434Y-117587576D01*
X224596457Y-117700000D01*
X224596457Y-118300000D01*
X224601557Y-118363953D01*
X224635149Y-118472425D01*
X224697630Y-118567244D01*
X224766138Y-118625633D01*
X224732756Y-118647630D01*
X224659098Y-118734053D01*
X224612434Y-118837576D01*
X224596457Y-118950000D01*
X224596457Y-119550000D01*
X224601557Y-119613953D01*
X224635149Y-119722425D01*
X224697630Y-119817244D01*
X224766138Y-119875633D01*
X224732756Y-119897630D01*
X224659098Y-119984053D01*
X224612434Y-120087576D01*
X224596457Y-120200000D01*
X224596457Y-120800000D01*
X224601557Y-120863953D01*
X224635149Y-120972425D01*
X224697630Y-121067244D01*
X224766138Y-121125633D01*
X224732756Y-121147630D01*
X224659098Y-121234053D01*
X224612434Y-121337576D01*
X224596457Y-121450000D01*
X224596457Y-122050000D01*
X224601557Y-122113953D01*
X224635149Y-122222425D01*
X224697630Y-122317244D01*
X224784053Y-122390902D01*
X224887576Y-122437566D01*
X225000000Y-122453543D01*
X226700000Y-122453543D01*
X226763953Y-122448443D01*
X226872425Y-122414851D01*
X226967244Y-122352370D01*
X226975997Y-122342100D01*
X227938316Y-122342100D01*
X227903523Y-122376893D01*
X227859573Y-122442669D01*
X227829299Y-122515755D01*
X227813866Y-122593344D01*
X227813866Y-122984098D01*
X227914266Y-123084498D01*
X228717066Y-123084498D01*
X228717066Y-123064498D01*
X228813866Y-123064498D01*
X228813866Y-123084498D01*
X228833866Y-123084498D01*
X228833866Y-123181298D01*
X228813866Y-123181298D01*
X228813866Y-123934098D01*
X228876266Y-123996498D01*
X228813866Y-124058898D01*
X228813866Y-124811698D01*
X228833866Y-124811698D01*
X228833866Y-124908498D01*
X228813866Y-124908498D01*
X228813866Y-125661298D01*
X228914266Y-125761698D01*
X229355020Y-125761698D01*
X229432608Y-125746265D01*
X229505695Y-125715991D01*
X229571471Y-125672041D01*
X229614756Y-125628756D01*
X229699519Y-125701000D01*
X229803042Y-125747664D01*
X229915466Y-125763641D01*
X231015466Y-125763641D01*
X231079419Y-125758541D01*
X231187891Y-125724949D01*
X231282710Y-125662468D01*
X231356368Y-125576045D01*
X231403032Y-125472522D01*
X231419009Y-125360098D01*
X231419009Y-124724787D01*
X232043661Y-124724787D01*
X232122933Y-124914245D01*
X232333812Y-125026846D01*
X232562607Y-125096143D01*
X232800523Y-125119472D01*
X233038421Y-125095938D01*
X233193574Y-125048800D01*
X234198400Y-125048800D01*
X234198400Y-125489554D01*
X234213833Y-125567142D01*
X234244107Y-125640229D01*
X234288057Y-125706005D01*
X234343995Y-125761943D01*
X234409771Y-125805893D01*
X234482857Y-125836167D01*
X234560446Y-125851600D01*
X234951200Y-125851600D01*
X235051600Y-125751200D01*
X235051600Y-124948400D01*
X235148400Y-124948400D01*
X235148400Y-125751200D01*
X235248800Y-125851600D01*
X235639554Y-125851600D01*
X235717143Y-125836167D01*
X235790229Y-125805893D01*
X235856005Y-125761943D01*
X235911943Y-125706005D01*
X235955893Y-125640229D01*
X235986167Y-125567142D01*
X236001600Y-125489554D01*
X236001600Y-125048800D01*
X235901200Y-124948400D01*
X235148400Y-124948400D01*
X235051600Y-124948400D01*
X234298800Y-124948400D01*
X234198400Y-125048800D01*
X233193574Y-125048800D01*
X233267156Y-125026445D01*
X233477067Y-124914245D01*
X233556339Y-124724787D01*
X232800000Y-123968448D01*
X232043661Y-124724787D01*
X231419009Y-124724787D01*
X231419009Y-124360098D01*
X231413909Y-124296145D01*
X231380317Y-124187673D01*
X231317836Y-124092854D01*
X231231413Y-124019196D01*
X231185486Y-123998494D01*
X231187891Y-123997749D01*
X231282710Y-123935268D01*
X231312323Y-123900523D01*
X231580528Y-123900523D01*
X231604062Y-124138421D01*
X231673555Y-124367156D01*
X231785755Y-124577067D01*
X231975213Y-124656339D01*
X232731552Y-123900000D01*
X232868448Y-123900000D01*
X233624787Y-124656339D01*
X233814245Y-124577067D01*
X233926846Y-124366188D01*
X233996143Y-124137393D01*
X234019472Y-123899477D01*
X233995938Y-123661579D01*
X233926445Y-123432844D01*
X233814245Y-123222933D01*
X233624787Y-123143661D01*
X232868448Y-123900000D01*
X232731552Y-123900000D01*
X231975213Y-123143661D01*
X231785755Y-123222933D01*
X231673154Y-123433812D01*
X231603857Y-123662607D01*
X231580528Y-123900523D01*
X231312323Y-123900523D01*
X231356368Y-123848845D01*
X231403032Y-123745322D01*
X231419009Y-123632898D01*
X231419009Y-123075213D01*
X232043661Y-123075213D01*
X232800000Y-123831552D01*
X233556339Y-123075213D01*
X233477067Y-122885755D01*
X233266188Y-122773154D01*
X233037393Y-122703857D01*
X232799477Y-122680528D01*
X232561579Y-122704062D01*
X232332844Y-122773555D01*
X232122933Y-122885755D01*
X232043661Y-123075213D01*
X231419009Y-123075213D01*
X231419009Y-122632898D01*
X231413909Y-122568945D01*
X231380317Y-122460473D01*
X231335263Y-122392100D01*
X234294854Y-122392100D01*
X234259098Y-122434053D01*
X234212434Y-122537576D01*
X234196457Y-122650000D01*
X234196457Y-123750000D01*
X234201557Y-123813953D01*
X234235149Y-123922425D01*
X234297630Y-124017244D01*
X234333897Y-124048155D01*
X234288057Y-124093995D01*
X234244107Y-124159771D01*
X234213833Y-124232858D01*
X234198400Y-124310446D01*
X234198400Y-124751200D01*
X234298800Y-124851600D01*
X235051600Y-124851600D01*
X235051600Y-124831600D01*
X235148400Y-124831600D01*
X235148400Y-124851600D01*
X235901200Y-124851600D01*
X236001600Y-124751200D01*
X236001600Y-124310446D01*
X235986167Y-124232858D01*
X235955893Y-124159771D01*
X235911943Y-124093995D01*
X235868658Y-124050710D01*
X235940902Y-123965947D01*
X235987566Y-123862424D01*
X236003543Y-123750000D01*
X236003543Y-123685339D01*
X236043607Y-123664037D01*
X236086807Y-123641644D01*
X236088973Y-123639915D01*
X236091416Y-123638616D01*
X236129074Y-123607903D01*
X236167128Y-123577525D01*
X236170980Y-123573725D01*
X236171060Y-123573660D01*
X236171121Y-123573586D01*
X236172362Y-123572362D01*
X236392059Y-123352665D01*
X236404087Y-123352917D01*
X236539587Y-123329025D01*
X236667866Y-123279269D01*
X236784038Y-123205544D01*
X236883678Y-123110658D01*
X236962990Y-122998227D01*
X237018953Y-122872531D01*
X237049436Y-122738359D01*
X237051630Y-122581205D01*
X237024905Y-122446234D01*
X237002593Y-122392100D01*
X238200000Y-122392100D01*
X238254429Y-122386763D01*
X238308918Y-122381996D01*
X238311906Y-122381128D01*
X238315006Y-122380824D01*
X238367415Y-122365001D01*
X238419887Y-122349756D01*
X238422648Y-122348325D01*
X238425632Y-122347424D01*
X238473973Y-122321721D01*
X238522480Y-122296577D01*
X238524911Y-122294636D01*
X238527663Y-122293173D01*
X238570077Y-122258581D01*
X238612791Y-122224483D01*
X238617124Y-122220211D01*
X238617214Y-122220137D01*
X238617283Y-122220053D01*
X238618678Y-122218678D01*
X238868678Y-121968678D01*
X238903395Y-121926412D01*
X238938550Y-121884517D01*
X238940050Y-121881789D01*
X238942026Y-121879383D01*
X238967884Y-121831158D01*
X238994220Y-121783253D01*
X238995160Y-121780288D01*
X238996633Y-121777542D01*
X239012628Y-121725223D01*
X239029161Y-121673105D01*
X239029508Y-121670010D01*
X239030418Y-121667034D01*
X239035943Y-121612638D01*
X239042042Y-121558267D01*
X239042085Y-121552178D01*
X239042096Y-121552067D01*
X239042086Y-121551964D01*
X239042100Y-121550000D01*
X239042100Y-120100186D01*
X239063953Y-120098443D01*
X239172425Y-120064851D01*
X239267244Y-120002370D01*
X239340902Y-119915947D01*
X239387566Y-119812424D01*
X239403543Y-119700000D01*
X239403543Y-118700000D01*
X239398443Y-118636047D01*
X239364851Y-118527575D01*
X239302370Y-118432756D01*
X239301600Y-118432100D01*
X239301600Y-117837679D01*
X239317244Y-117827370D01*
X239390902Y-117740947D01*
X239437566Y-117637424D01*
X239453543Y-117525000D01*
X239453543Y-117275000D01*
X239448443Y-117211047D01*
X239430499Y-117153103D01*
X239437566Y-117137424D01*
X239453543Y-117025000D01*
X239453543Y-116775000D01*
X239448443Y-116711047D01*
X239430981Y-116654662D01*
X239436167Y-116642143D01*
X239451600Y-116564554D01*
X239451600Y-116548800D01*
X239351200Y-116448400D01*
X239282728Y-116448400D01*
X239265947Y-116434098D01*
X239192121Y-116400820D01*
X239240229Y-116380893D01*
X239284069Y-116351600D01*
X239351200Y-116351600D01*
X239451600Y-116251200D01*
X239451600Y-116235446D01*
X239436167Y-116157857D01*
X239432912Y-116150000D01*
X239436167Y-116142143D01*
X239451600Y-116064554D01*
X239451600Y-116048800D01*
X239351200Y-115948400D01*
X239284069Y-115948400D01*
X239240229Y-115919107D01*
X239167142Y-115888833D01*
X239089554Y-115873400D01*
X238923800Y-115873400D01*
X238848800Y-115948400D01*
X238823400Y-115948400D01*
X238823400Y-115968400D01*
X238726600Y-115968400D01*
X238726600Y-115948400D01*
X238706600Y-115948400D01*
X238706600Y-115851600D01*
X238726600Y-115851600D01*
X238726600Y-115473800D01*
X238823400Y-115473800D01*
X238823400Y-115851600D01*
X239351200Y-115851600D01*
X239451600Y-115751200D01*
X239451600Y-115735446D01*
X239436167Y-115657857D01*
X239405893Y-115584771D01*
X239361943Y-115518995D01*
X239306005Y-115463057D01*
X239240229Y-115419107D01*
X239167142Y-115388833D01*
X239089554Y-115373400D01*
X238923800Y-115373400D01*
X238823400Y-115473800D01*
X238726600Y-115473800D01*
X238626200Y-115373400D01*
X238460446Y-115373400D01*
X238382858Y-115388833D01*
X238309771Y-115419107D01*
X238279196Y-115439537D01*
X238217142Y-115413833D01*
X238139554Y-115398400D01*
X237748800Y-115398400D01*
X237648400Y-115498800D01*
X237648400Y-116601600D01*
X237668400Y-116601600D01*
X237668400Y-116698400D01*
X237648400Y-116698400D01*
X237648400Y-117801200D01*
X237748800Y-117901600D01*
X238139554Y-117901600D01*
X238217142Y-117886167D01*
X238248400Y-117873219D01*
X238248400Y-118296457D01*
X237900000Y-118296457D01*
X237836047Y-118301557D01*
X237727575Y-118335149D01*
X237632756Y-118397630D01*
X237601845Y-118433897D01*
X237556005Y-118388057D01*
X237490229Y-118344107D01*
X237417142Y-118313833D01*
X237339554Y-118298400D01*
X236898800Y-118298400D01*
X236798400Y-118398800D01*
X236798400Y-119151600D01*
X236818400Y-119151600D01*
X236818400Y-119248400D01*
X236798400Y-119248400D01*
X236798400Y-120001200D01*
X236898800Y-120101600D01*
X237339554Y-120101600D01*
X237417142Y-120086167D01*
X237490229Y-120055893D01*
X237556005Y-120011943D01*
X237599290Y-119968658D01*
X237684053Y-120040902D01*
X237787576Y-120087566D01*
X237857900Y-120097560D01*
X237857900Y-121207900D01*
X233151538Y-121207900D01*
X233234038Y-121155544D01*
X233333678Y-121060658D01*
X233412990Y-120948227D01*
X233468953Y-120822531D01*
X233499436Y-120688359D01*
X233501630Y-120531205D01*
X233474905Y-120396234D01*
X233422474Y-120269025D01*
X233346332Y-120154423D01*
X233249381Y-120056792D01*
X233135313Y-119979852D01*
X233008473Y-119926534D01*
X232873692Y-119898867D01*
X232736104Y-119897906D01*
X232600951Y-119923688D01*
X232477911Y-119973400D01*
X231401422Y-119973400D01*
X231398443Y-119936047D01*
X231364851Y-119827575D01*
X231331261Y-119776600D01*
X233184866Y-119776600D01*
X233243079Y-119836881D01*
X233356061Y-119915406D01*
X233482145Y-119970490D01*
X233616526Y-120000036D01*
X233754087Y-120002917D01*
X233889587Y-119979025D01*
X234017866Y-119929269D01*
X234134038Y-119855544D01*
X234233678Y-119760658D01*
X234312990Y-119648227D01*
X234368953Y-119522531D01*
X234399436Y-119388359D01*
X234399988Y-119348800D01*
X235798400Y-119348800D01*
X235798400Y-119739554D01*
X235813833Y-119817143D01*
X235844107Y-119890229D01*
X235888057Y-119956005D01*
X235943995Y-120011943D01*
X236009771Y-120055893D01*
X236082858Y-120086167D01*
X236160446Y-120101600D01*
X236601200Y-120101600D01*
X236701600Y-120001200D01*
X236701600Y-119248400D01*
X235898800Y-119248400D01*
X235798400Y-119348800D01*
X234399988Y-119348800D01*
X234401630Y-119231205D01*
X234374905Y-119096234D01*
X234322474Y-118969025D01*
X234246332Y-118854423D01*
X234149381Y-118756792D01*
X234035313Y-118679852D01*
X233989148Y-118660446D01*
X235798400Y-118660446D01*
X235798400Y-119051200D01*
X235898800Y-119151600D01*
X236701600Y-119151600D01*
X236701600Y-118398800D01*
X236601200Y-118298400D01*
X236160446Y-118298400D01*
X236082858Y-118313833D01*
X236009771Y-118344107D01*
X235943995Y-118388057D01*
X235888057Y-118443995D01*
X235844107Y-118509771D01*
X235813833Y-118582857D01*
X235798400Y-118660446D01*
X233989148Y-118660446D01*
X233908473Y-118626534D01*
X233773692Y-118598867D01*
X233636104Y-118597906D01*
X233500951Y-118623688D01*
X233373379Y-118675231D01*
X233299769Y-118723400D01*
X227029152Y-118723400D01*
X227002370Y-118682756D01*
X226933862Y-118624367D01*
X226967244Y-118602370D01*
X227031822Y-118526600D01*
X229433151Y-118526600D01*
X229443079Y-118536881D01*
X229556061Y-118615406D01*
X229682145Y-118670490D01*
X229816526Y-118700036D01*
X229954087Y-118702917D01*
X230089587Y-118679025D01*
X230217866Y-118629269D01*
X230334038Y-118555544D01*
X230433678Y-118460658D01*
X230512990Y-118348227D01*
X230568953Y-118222531D01*
X230599436Y-118088359D01*
X230601630Y-117931205D01*
X230574905Y-117796234D01*
X230522474Y-117669025D01*
X230446332Y-117554423D01*
X230349381Y-117456792D01*
X230235313Y-117379852D01*
X230108473Y-117326534D01*
X229973692Y-117298867D01*
X229836104Y-117297906D01*
X229700951Y-117323688D01*
X229573379Y-117375231D01*
X229458247Y-117450571D01*
X229434935Y-117473400D01*
X227029152Y-117473400D01*
X227002370Y-117432756D01*
X226933862Y-117374367D01*
X226967244Y-117352370D01*
X227031822Y-117276600D01*
X230983445Y-117276600D01*
X230997484Y-117323099D01*
X231011059Y-117369826D01*
X231012334Y-117372285D01*
X231013134Y-117374936D01*
X231035963Y-117417871D01*
X231058356Y-117461071D01*
X231060085Y-117463237D01*
X231061384Y-117465680D01*
X231092097Y-117503338D01*
X231122475Y-117541392D01*
X231126275Y-117545244D01*
X231126340Y-117545324D01*
X231126414Y-117545385D01*
X231127638Y-117546626D01*
X231372584Y-117791572D01*
X231410141Y-117822422D01*
X231447434Y-117853715D01*
X231449861Y-117855049D01*
X231452001Y-117856807D01*
X231494874Y-117879795D01*
X231537496Y-117903227D01*
X231540135Y-117904064D01*
X231542576Y-117905373D01*
X231589088Y-117919593D01*
X231635460Y-117934303D01*
X231638213Y-117934612D01*
X231640860Y-117935421D01*
X231689237Y-117940335D01*
X231737594Y-117945759D01*
X231743005Y-117945797D01*
X231743108Y-117945807D01*
X231743204Y-117945798D01*
X231744946Y-117945810D01*
X231868593Y-117945810D01*
X231868593Y-118019210D01*
X231873693Y-118083163D01*
X231907285Y-118191635D01*
X231969766Y-118286454D01*
X232056189Y-118360112D01*
X232159712Y-118406776D01*
X232272136Y-118422753D01*
X232622136Y-118422753D01*
X232686089Y-118417653D01*
X232773671Y-118390530D01*
X232809712Y-118406776D01*
X232922136Y-118422753D01*
X233272136Y-118422753D01*
X233336089Y-118417653D01*
X233421085Y-118391331D01*
X233454993Y-118405377D01*
X233532582Y-118420810D01*
X233598336Y-118420810D01*
X233698736Y-118320410D01*
X233698736Y-117467610D01*
X233795536Y-117467610D01*
X233795536Y-118320410D01*
X233895936Y-118420810D01*
X233961690Y-118420810D01*
X234039279Y-118405377D01*
X234112365Y-118375103D01*
X234178141Y-118331153D01*
X234234079Y-118275215D01*
X234278029Y-118209439D01*
X234308303Y-118136352D01*
X234323736Y-118058764D01*
X234323736Y-117568010D01*
X234223336Y-117467610D01*
X233795536Y-117467610D01*
X233698736Y-117467610D01*
X233678736Y-117467610D01*
X233678736Y-117370810D01*
X233698736Y-117370810D01*
X233698736Y-117350810D01*
X233795536Y-117350810D01*
X233795536Y-117370810D01*
X234223336Y-117370810D01*
X234323736Y-117270410D01*
X234323736Y-116779656D01*
X234308303Y-116702068D01*
X234293769Y-116666981D01*
X234309702Y-116631634D01*
X234325679Y-116519210D01*
X234325679Y-115958992D01*
X234497478Y-115958992D01*
X234522315Y-116094323D01*
X234572966Y-116222252D01*
X234647500Y-116337906D01*
X234743079Y-116436881D01*
X234856061Y-116515406D01*
X234982145Y-116570490D01*
X235116526Y-116600036D01*
X235254087Y-116602917D01*
X235389587Y-116579025D01*
X235517866Y-116529269D01*
X235634038Y-116455544D01*
X235664432Y-116426600D01*
X235748400Y-116426600D01*
X235748400Y-116448402D01*
X235848798Y-116448402D01*
X235748400Y-116548800D01*
X235748400Y-116564554D01*
X235763833Y-116642143D01*
X235767574Y-116651174D01*
X235762434Y-116662576D01*
X235746457Y-116775000D01*
X235746457Y-116873400D01*
X235665873Y-116873400D01*
X235649381Y-116856792D01*
X235535313Y-116779852D01*
X235408473Y-116726534D01*
X235273692Y-116698867D01*
X235136104Y-116697906D01*
X235000951Y-116723688D01*
X234873379Y-116775231D01*
X234758247Y-116850571D01*
X234659942Y-116946838D01*
X234582208Y-117060366D01*
X234528005Y-117186831D01*
X234499399Y-117321415D01*
X234497478Y-117458992D01*
X234522315Y-117594323D01*
X234572966Y-117722252D01*
X234647500Y-117837906D01*
X234743079Y-117936881D01*
X234856061Y-118015406D01*
X234982145Y-118070490D01*
X235116526Y-118100036D01*
X235254087Y-118102917D01*
X235389587Y-118079025D01*
X235517866Y-118029269D01*
X235634038Y-117955544D01*
X235664432Y-117926600D01*
X236136328Y-117926600D01*
X236150000Y-117928543D01*
X236700000Y-117928543D01*
X236763953Y-117923443D01*
X236872425Y-117889851D01*
X236918482Y-117859501D01*
X236982858Y-117886167D01*
X237060446Y-117901600D01*
X237451200Y-117901600D01*
X237551600Y-117801200D01*
X237551600Y-116698400D01*
X237531600Y-116698400D01*
X237531600Y-116601600D01*
X237551600Y-116601600D01*
X237551600Y-115498800D01*
X237451200Y-115398400D01*
X237060446Y-115398400D01*
X236982858Y-115413833D01*
X236921830Y-115439112D01*
X236915947Y-115434098D01*
X236812424Y-115387434D01*
X236700000Y-115371457D01*
X236150000Y-115371457D01*
X236125635Y-115373400D01*
X235665873Y-115373400D01*
X235649381Y-115356792D01*
X235535313Y-115279852D01*
X235408473Y-115226534D01*
X235273692Y-115198867D01*
X235136104Y-115197906D01*
X235000951Y-115223688D01*
X234873379Y-115275231D01*
X234758247Y-115350571D01*
X234659942Y-115446838D01*
X234582208Y-115560366D01*
X234528005Y-115686831D01*
X234499399Y-115821415D01*
X234497478Y-115958992D01*
X234325679Y-115958992D01*
X234325679Y-115319210D01*
X234320579Y-115255257D01*
X234286987Y-115146785D01*
X234224506Y-115051966D01*
X234138083Y-114978308D01*
X234034560Y-114931644D01*
X233922136Y-114915667D01*
X233623736Y-114915667D01*
X233623736Y-114693553D01*
X233647136Y-114693553D01*
X233711089Y-114688453D01*
X233819561Y-114654861D01*
X233914380Y-114592380D01*
X233945291Y-114556113D01*
X233991131Y-114601953D01*
X234056907Y-114645903D01*
X234129994Y-114676177D01*
X234207582Y-114691610D01*
X234648336Y-114691610D01*
X234748736Y-114591210D01*
X234748736Y-113838410D01*
X234845536Y-113838410D01*
X234845536Y-114591210D01*
X234945936Y-114691610D01*
X235386690Y-114691610D01*
X235464278Y-114676177D01*
X235537365Y-114645903D01*
X235603141Y-114601953D01*
X235659079Y-114546015D01*
X235703029Y-114480239D01*
X235733303Y-114407153D01*
X235748736Y-114329564D01*
X235748736Y-114239525D01*
X237094480Y-114239525D01*
X237124628Y-114403789D01*
X237186108Y-114559068D01*
X237276577Y-114699449D01*
X237392590Y-114819584D01*
X237529728Y-114914898D01*
X237682768Y-114981759D01*
X237845879Y-115017621D01*
X238012850Y-115021119D01*
X238177320Y-114992118D01*
X238333025Y-114931724D01*
X238474034Y-114842237D01*
X238594977Y-114727066D01*
X238691245Y-114590596D01*
X238759173Y-114438028D01*
X238796173Y-114275170D01*
X238798837Y-114084416D01*
X238766398Y-113920589D01*
X238702757Y-113766183D01*
X238610336Y-113627079D01*
X238492657Y-113508576D01*
X238354202Y-113415186D01*
X238200244Y-113350468D01*
X238036647Y-113316887D01*
X237869644Y-113315721D01*
X237705594Y-113347015D01*
X237550748Y-113409577D01*
X237411002Y-113501024D01*
X237291680Y-113617873D01*
X237197326Y-113755673D01*
X237131535Y-113909176D01*
X237096812Y-114072534D01*
X237094480Y-114239525D01*
X235748736Y-114239525D01*
X235748736Y-113938810D01*
X235648336Y-113838410D01*
X234845536Y-113838410D01*
X234748736Y-113838410D01*
X234728736Y-113838410D01*
X234728736Y-113741610D01*
X234748736Y-113741610D01*
X234748736Y-112988810D01*
X234845536Y-112988810D01*
X234845536Y-113741610D01*
X235648336Y-113741610D01*
X235748736Y-113641210D01*
X235748736Y-113250456D01*
X235733303Y-113172867D01*
X235703029Y-113099781D01*
X235659079Y-113034005D01*
X235603141Y-112978067D01*
X235537365Y-112934117D01*
X235464278Y-112903843D01*
X235386690Y-112888410D01*
X234945936Y-112888410D01*
X234845536Y-112988810D01*
X234748736Y-112988810D01*
X234648336Y-112888410D01*
X234207582Y-112888410D01*
X234129994Y-112903843D01*
X234056907Y-112934117D01*
X233991131Y-112978067D01*
X233947846Y-113021352D01*
X233863083Y-112949108D01*
X233759560Y-112902444D01*
X233647136Y-112886467D01*
X233623736Y-112886467D01*
X233623736Y-111929567D01*
X233626549Y-111904488D01*
X233626587Y-111899068D01*
X233626596Y-111898975D01*
X233626588Y-111898889D01*
X233626600Y-111897136D01*
X233626600Y-111732618D01*
X233637576Y-111737566D01*
X233750000Y-111753543D01*
X234850000Y-111753543D01*
X234913953Y-111748443D01*
X235022425Y-111714851D01*
X235117244Y-111652370D01*
X235190902Y-111565947D01*
X235237566Y-111462424D01*
X235253543Y-111350000D01*
X235253543Y-110850000D01*
X235248443Y-110786047D01*
X235214851Y-110677575D01*
X235152370Y-110582756D01*
X235065947Y-110509098D01*
X234990037Y-110474881D01*
X235022425Y-110464851D01*
X235117244Y-110402370D01*
X235190902Y-110315947D01*
X235237566Y-110212424D01*
X235253543Y-110100000D01*
X235253543Y-109600000D01*
X235248443Y-109536047D01*
X235214851Y-109427575D01*
X235152370Y-109332756D01*
X235065947Y-109259098D01*
X234990037Y-109224881D01*
X235022425Y-109214851D01*
X235090613Y-109169918D01*
X235156061Y-109215406D01*
X235282145Y-109270490D01*
X235416526Y-109300036D01*
X235554087Y-109302917D01*
X235689587Y-109279025D01*
X235817866Y-109229269D01*
X235934038Y-109155544D01*
X236033678Y-109060658D01*
X236112990Y-108948227D01*
X236168953Y-108822531D01*
X236199436Y-108688359D01*
X236201630Y-108531205D01*
X236174905Y-108396234D01*
X236122474Y-108269025D01*
X236046332Y-108154423D01*
X235993934Y-108101657D01*
X236054087Y-108102917D01*
X236189587Y-108079025D01*
X236317866Y-108029269D01*
X236434038Y-107955544D01*
X236533678Y-107860658D01*
X236612990Y-107748227D01*
X236668953Y-107622531D01*
X236699436Y-107488359D01*
X236701630Y-107331205D01*
X236674905Y-107196234D01*
X236622474Y-107069025D01*
X236546332Y-106954423D01*
X236449381Y-106856792D01*
X236335313Y-106779852D01*
X236208473Y-106726534D01*
X236073692Y-106698867D01*
X235936104Y-106697906D01*
X235800951Y-106723688D01*
X235673379Y-106775231D01*
X235599769Y-106823400D01*
X235141393Y-106823400D01*
X235065947Y-106759098D01*
X234962424Y-106712434D01*
X234850000Y-106696457D01*
X233750000Y-106696457D01*
X233686047Y-106701557D01*
X233577575Y-106735149D01*
X233482756Y-106797630D01*
X233409098Y-106884053D01*
X233362434Y-106987576D01*
X233346457Y-107100000D01*
X233346457Y-107301732D01*
X233022362Y-106977638D01*
X232984805Y-106946788D01*
X232947512Y-106915495D01*
X232945085Y-106914161D01*
X232942945Y-106912403D01*
X232900072Y-106889415D01*
X232857450Y-106865983D01*
X232854811Y-106865146D01*
X232852370Y-106863837D01*
X232805858Y-106849617D01*
X232759486Y-106834907D01*
X232756733Y-106834598D01*
X232754086Y-106833789D01*
X232705709Y-106828875D01*
X232657352Y-106823451D01*
X232651941Y-106823413D01*
X232651838Y-106823403D01*
X232651742Y-106823412D01*
X232650000Y-106823400D01*
X232641393Y-106823400D01*
X232565947Y-106759098D01*
X232462424Y-106712434D01*
X232350000Y-106696457D01*
X232326600Y-106696457D01*
X232326600Y-105901422D01*
X232363953Y-105898443D01*
X232472425Y-105864851D01*
X232567244Y-105802370D01*
X232598155Y-105766103D01*
X232643995Y-105811943D01*
X232709771Y-105855893D01*
X232782858Y-105886167D01*
X232860446Y-105901600D01*
X233301200Y-105901600D01*
X233401600Y-105801200D01*
X233401600Y-105048400D01*
X233498400Y-105048400D01*
X233498400Y-105801200D01*
X233598800Y-105901600D01*
X234039554Y-105901600D01*
X234117142Y-105886167D01*
X234190229Y-105855893D01*
X234256005Y-105811943D01*
X234311943Y-105756005D01*
X234355893Y-105690229D01*
X234386167Y-105617143D01*
X234401600Y-105539554D01*
X234401600Y-105148800D01*
X234301200Y-105048400D01*
X233498400Y-105048400D01*
X233401600Y-105048400D01*
X233381600Y-105048400D01*
X233381600Y-104951600D01*
X233401600Y-104951600D01*
X233401600Y-104198800D01*
X233498400Y-104198800D01*
X233498400Y-104951600D01*
X234301200Y-104951600D01*
X234401600Y-104851200D01*
X234401600Y-104460446D01*
X234386167Y-104382857D01*
X234355893Y-104309771D01*
X234311943Y-104243995D01*
X234256005Y-104188057D01*
X234190229Y-104144107D01*
X234117142Y-104113833D01*
X234039554Y-104098400D01*
X233598800Y-104098400D01*
X233498400Y-104198800D01*
X233401600Y-104198800D01*
X233301200Y-104098400D01*
X232860446Y-104098400D01*
X232782858Y-104113833D01*
X232709771Y-104144107D01*
X232643995Y-104188057D01*
X232600710Y-104231342D01*
X232515947Y-104159098D01*
X232412424Y-104112434D01*
X232300000Y-104096457D01*
X231200000Y-104096457D01*
X231136047Y-104101557D01*
X231027575Y-104135149D01*
X230932756Y-104197630D01*
X230859098Y-104284053D01*
X230812434Y-104387576D01*
X230796457Y-104500000D01*
X230796457Y-105500000D01*
X230801557Y-105563953D01*
X230835149Y-105672425D01*
X230897630Y-105767244D01*
X230984053Y-105840902D01*
X231087576Y-105887566D01*
X231200000Y-105903543D01*
X231273400Y-105903543D01*
X231273400Y-106696457D01*
X231250000Y-106696457D01*
X231186047Y-106701557D01*
X231077575Y-106735149D01*
X230982756Y-106797630D01*
X230909098Y-106884053D01*
X230862434Y-106987576D01*
X230846457Y-107100000D01*
X230846457Y-107600000D01*
X230851557Y-107663953D01*
X230885149Y-107772425D01*
X230947630Y-107867244D01*
X231034053Y-107940902D01*
X231109963Y-107975119D01*
X231077575Y-107985149D01*
X231021334Y-108022209D01*
X230229562Y-107230438D01*
X230192005Y-107199588D01*
X230154712Y-107168295D01*
X230152285Y-107166961D01*
X230150145Y-107165203D01*
X230107272Y-107142215D01*
X230064650Y-107118783D01*
X230062011Y-107117946D01*
X230059570Y-107116637D01*
X230013058Y-107102417D01*
X230010743Y-107101683D01*
X230010743Y-107052800D01*
X230005643Y-106988847D01*
X229972051Y-106880375D01*
X229909570Y-106785556D01*
X229873303Y-106754645D01*
X229919143Y-106708805D01*
X229963093Y-106643029D01*
X229993367Y-106569942D01*
X230008800Y-106492354D01*
X230008800Y-106051600D01*
X229908400Y-105951200D01*
X229155600Y-105951200D01*
X229155600Y-105971200D01*
X229058800Y-105971200D01*
X229058800Y-105951200D01*
X228306000Y-105951200D01*
X228205600Y-106051600D01*
X228205600Y-106492354D01*
X228221033Y-106569942D01*
X228251307Y-106643029D01*
X228295257Y-106708805D01*
X228338542Y-106752090D01*
X228266298Y-106836853D01*
X228219634Y-106940376D01*
X228203657Y-107052800D01*
X228203657Y-108152800D01*
X228208757Y-108216753D01*
X228242349Y-108325225D01*
X228304830Y-108420044D01*
X228391253Y-108493702D01*
X228414122Y-108504011D01*
X228351195Y-108546057D01*
X228295257Y-108601995D01*
X228251307Y-108667771D01*
X228221033Y-108740858D01*
X228205600Y-108818446D01*
X228205600Y-109259200D01*
X228306000Y-109359600D01*
X229058800Y-109359600D01*
X229058800Y-109339600D01*
X229155600Y-109339600D01*
X229155600Y-109359600D01*
X229908400Y-109359600D01*
X230008800Y-109259200D01*
X230008800Y-108818446D01*
X229993367Y-108740858D01*
X229963093Y-108667771D01*
X229919143Y-108601995D01*
X229863205Y-108546057D01*
X229800301Y-108504026D01*
X229874444Y-108455170D01*
X229916040Y-108406365D01*
X230482038Y-108972363D01*
X230519625Y-109003237D01*
X230556888Y-109034505D01*
X230559315Y-109035839D01*
X230561455Y-109037597D01*
X230604328Y-109060585D01*
X230646950Y-109084017D01*
X230649589Y-109084854D01*
X230652030Y-109086163D01*
X230698542Y-109100383D01*
X230744914Y-109115093D01*
X230747667Y-109115402D01*
X230750314Y-109116211D01*
X230798691Y-109121125D01*
X230847048Y-109126549D01*
X230852459Y-109126587D01*
X230852562Y-109126597D01*
X230852658Y-109126588D01*
X230854400Y-109126600D01*
X230958607Y-109126600D01*
X231034053Y-109190902D01*
X231107879Y-109224180D01*
X231059771Y-109244107D01*
X230993995Y-109288057D01*
X230938057Y-109343995D01*
X230894107Y-109409771D01*
X230863833Y-109482858D01*
X230848400Y-109560446D01*
X230848400Y-109701200D01*
X230948800Y-109801600D01*
X231751600Y-109801600D01*
X231751600Y-109781600D01*
X231848400Y-109781600D01*
X231848400Y-109801600D01*
X231868400Y-109801600D01*
X231868400Y-109898400D01*
X231848400Y-109898400D01*
X231848400Y-109918400D01*
X231751600Y-109918400D01*
X231751600Y-109898400D01*
X230948800Y-109898400D01*
X230848400Y-109998800D01*
X230848400Y-110139554D01*
X230863833Y-110217142D01*
X230894107Y-110290229D01*
X230938057Y-110356005D01*
X230993995Y-110411943D01*
X231059771Y-110455893D01*
X231107801Y-110475788D01*
X231077575Y-110485149D01*
X230982756Y-110547630D01*
X230953974Y-110581400D01*
X230010743Y-110581400D01*
X230010743Y-110558000D01*
X230005643Y-110494047D01*
X229972051Y-110385575D01*
X229909570Y-110290756D01*
X229873303Y-110259845D01*
X229919143Y-110214005D01*
X229963093Y-110148229D01*
X229993367Y-110075142D01*
X230008800Y-109997554D01*
X230008800Y-109556800D01*
X229908400Y-109456400D01*
X229155600Y-109456400D01*
X229155600Y-109476400D01*
X229058800Y-109476400D01*
X229058800Y-109456400D01*
X228306000Y-109456400D01*
X228205600Y-109556800D01*
X228205600Y-109997554D01*
X228221033Y-110075142D01*
X228251307Y-110148229D01*
X228295257Y-110214005D01*
X228338542Y-110257290D01*
X228266298Y-110342053D01*
X228219634Y-110445576D01*
X228203657Y-110558000D01*
X228203657Y-111658000D01*
X228208757Y-111721953D01*
X228242349Y-111830425D01*
X228304830Y-111925244D01*
X228391253Y-111998902D01*
X228494776Y-112045566D01*
X228607200Y-112061543D01*
X229607200Y-112061543D01*
X229671153Y-112056443D01*
X229779625Y-112022851D01*
X229874444Y-111960370D01*
X229948102Y-111873947D01*
X229994766Y-111770424D01*
X230010743Y-111658000D01*
X230010743Y-111634600D01*
X230967994Y-111634600D01*
X231034053Y-111690902D01*
X231137576Y-111737566D01*
X231250000Y-111753543D01*
X232350000Y-111753543D01*
X232413953Y-111748443D01*
X232522425Y-111714851D01*
X232570536Y-111683148D01*
X232570536Y-112886467D01*
X232547136Y-112886467D01*
X232483183Y-112891567D01*
X232374711Y-112925159D01*
X232279892Y-112987640D01*
X232206234Y-113074063D01*
X232159570Y-113177586D01*
X232145954Y-113273400D01*
X231065873Y-113273400D01*
X231049381Y-113256792D01*
X230935313Y-113179852D01*
X230808473Y-113126534D01*
X230673692Y-113098867D01*
X230536104Y-113097906D01*
X230400951Y-113123688D01*
X230273379Y-113175231D01*
X230158247Y-113250571D01*
X230059942Y-113346838D01*
X229982208Y-113460366D01*
X229928005Y-113586831D01*
X229899399Y-113721415D01*
X229897478Y-113858992D01*
X229922315Y-113994323D01*
X229972966Y-114122252D01*
X230047500Y-114237906D01*
X230143079Y-114336881D01*
X230256061Y-114415406D01*
X230382145Y-114470490D01*
X230516526Y-114500036D01*
X230654087Y-114502917D01*
X230789587Y-114479025D01*
X230917866Y-114429269D01*
X231034038Y-114355544D01*
X231064432Y-114326600D01*
X232146511Y-114326600D01*
X232148693Y-114353963D01*
X232182285Y-114462435D01*
X232244766Y-114557254D01*
X232331189Y-114630912D01*
X232434712Y-114677576D01*
X232547136Y-114693553D01*
X232570536Y-114693553D01*
X232570536Y-114915667D01*
X232272136Y-114915667D01*
X232208183Y-114920767D01*
X232099711Y-114954359D01*
X232004892Y-115016840D01*
X231931234Y-115103263D01*
X231884570Y-115206786D01*
X231870786Y-115303779D01*
X231835313Y-115279852D01*
X231708473Y-115226534D01*
X231573692Y-115198867D01*
X231436104Y-115197906D01*
X231300951Y-115223688D01*
X231173379Y-115275231D01*
X231058247Y-115350571D01*
X231027978Y-115380212D01*
X231003131Y-115382386D01*
X231000471Y-115383159D01*
X230997716Y-115383429D01*
X230951165Y-115397484D01*
X230904438Y-115411059D01*
X230901979Y-115412334D01*
X230899328Y-115413134D01*
X230856414Y-115435952D01*
X230813192Y-115458356D01*
X230811024Y-115460086D01*
X230808584Y-115461384D01*
X230770948Y-115492079D01*
X230732872Y-115522475D01*
X230729020Y-115526275D01*
X230728940Y-115526340D01*
X230728879Y-115526414D01*
X230727638Y-115527638D01*
X230581876Y-115673400D01*
X227868125Y-115673400D01*
X227322362Y-115127638D01*
X227284805Y-115096788D01*
X227247512Y-115065495D01*
X227245085Y-115064161D01*
X227242945Y-115062403D01*
X227200072Y-115039415D01*
X227157450Y-115015983D01*
X227154811Y-115015146D01*
X227152370Y-115013837D01*
X227105858Y-114999617D01*
X227059486Y-114984907D01*
X227056733Y-114984598D01*
X227054086Y-114983789D01*
X227034701Y-114981820D01*
X227002370Y-114932756D01*
X226935422Y-114875696D01*
X226956005Y-114861943D01*
X227011943Y-114806005D01*
X227055893Y-114740229D01*
X227086167Y-114667142D01*
X227101600Y-114589554D01*
X227101600Y-114398800D01*
X227001200Y-114298400D01*
X225898400Y-114298400D01*
X225898400Y-114318400D01*
X225801600Y-114318400D01*
X225801600Y-114298400D01*
X224698800Y-114298400D01*
X224598400Y-114398800D01*
X224598400Y-114589554D01*
X224613833Y-114667142D01*
X224644107Y-114740229D01*
X224688057Y-114806005D01*
X224743995Y-114861943D01*
X224765305Y-114876182D01*
X224732756Y-114897630D01*
X224659098Y-114984053D01*
X224612434Y-115087576D01*
X224596457Y-115200000D01*
X220476600Y-115200000D01*
X220476600Y-113910446D01*
X224598400Y-113910446D01*
X224598400Y-114101200D01*
X224698800Y-114201600D01*
X225801600Y-114201600D01*
X225801600Y-113648800D01*
X225898400Y-113648800D01*
X225898400Y-114201600D01*
X227001200Y-114201600D01*
X227101600Y-114101200D01*
X227101600Y-113910446D01*
X227086167Y-113832858D01*
X227055893Y-113759771D01*
X227011943Y-113693995D01*
X226956005Y-113638057D01*
X226890229Y-113594107D01*
X226817143Y-113563833D01*
X226739554Y-113548400D01*
X225998800Y-113548400D01*
X225898400Y-113648800D01*
X225801600Y-113648800D01*
X225701200Y-113548400D01*
X224960446Y-113548400D01*
X224882857Y-113563833D01*
X224809771Y-113594107D01*
X224743995Y-113638057D01*
X224688057Y-113693995D01*
X224644107Y-113759771D01*
X224613833Y-113832858D01*
X224598400Y-113910446D01*
X220476600Y-113910446D01*
X220476600Y-111900000D01*
X220896457Y-111900000D01*
X220896457Y-112900000D01*
X220901557Y-112963953D01*
X220935149Y-113072425D01*
X220997630Y-113167244D01*
X221084053Y-113240902D01*
X221187576Y-113287566D01*
X221300000Y-113303543D01*
X224000000Y-113303543D01*
X224063953Y-113298443D01*
X224172425Y-113264851D01*
X224267244Y-113202370D01*
X224340902Y-113115947D01*
X224387566Y-113012424D01*
X224403543Y-112900000D01*
X224403543Y-111900000D01*
X224398443Y-111836047D01*
X224364851Y-111727575D01*
X224302370Y-111632756D01*
X224215947Y-111559098D01*
X224112424Y-111512434D01*
X224000000Y-111496457D01*
X221300000Y-111496457D01*
X221236047Y-111501557D01*
X221127575Y-111535149D01*
X221032756Y-111597630D01*
X220959098Y-111684053D01*
X220912434Y-111787576D01*
X220896457Y-111900000D01*
X220476600Y-111900000D01*
X220476600Y-109926605D01*
X221143280Y-109926605D01*
X221173428Y-110090869D01*
X221234908Y-110246148D01*
X221325377Y-110386529D01*
X221441390Y-110506664D01*
X221578528Y-110601978D01*
X221731568Y-110668839D01*
X221894679Y-110704701D01*
X222061650Y-110708199D01*
X222226120Y-110679198D01*
X222381825Y-110618804D01*
X222522834Y-110529317D01*
X222643777Y-110414146D01*
X222740045Y-110277676D01*
X222807973Y-110125108D01*
X222844973Y-109962250D01*
X222847637Y-109771496D01*
X222815198Y-109607669D01*
X222751557Y-109453263D01*
X222659136Y-109314159D01*
X222541457Y-109195656D01*
X222403002Y-109102266D01*
X222249044Y-109037548D01*
X222085447Y-109003967D01*
X221918444Y-109002801D01*
X221754394Y-109034095D01*
X221599548Y-109096657D01*
X221459802Y-109188104D01*
X221340480Y-109304953D01*
X221246126Y-109442753D01*
X221180335Y-109596256D01*
X221145612Y-109759614D01*
X221143280Y-109926605D01*
X220476600Y-109926605D01*
X220476600Y-105313246D01*
X228205600Y-105313246D01*
X228205600Y-105754000D01*
X228306000Y-105854400D01*
X229058800Y-105854400D01*
X229058800Y-105051600D01*
X229155600Y-105051600D01*
X229155600Y-105854400D01*
X229908400Y-105854400D01*
X230008800Y-105754000D01*
X230008800Y-105313246D01*
X229993367Y-105235658D01*
X229963093Y-105162571D01*
X229919143Y-105096795D01*
X229863205Y-105040857D01*
X229797429Y-104996907D01*
X229724343Y-104966633D01*
X229646754Y-104951200D01*
X229256000Y-104951200D01*
X229155600Y-105051600D01*
X229058800Y-105051600D01*
X228958400Y-104951200D01*
X228567646Y-104951200D01*
X228490057Y-104966633D01*
X228416971Y-104996907D01*
X228351195Y-105040857D01*
X228295257Y-105096795D01*
X228251307Y-105162571D01*
X228221033Y-105235658D01*
X228205600Y-105313246D01*
X220476600Y-105313246D01*
X220476600Y-103168300D01*
X220995769Y-103168300D01*
X221066629Y-103554385D01*
X221211130Y-103919354D01*
X221423769Y-104249305D01*
X221696446Y-104531671D01*
X222018775Y-104755695D01*
X222378479Y-104912846D01*
X222761856Y-104997137D01*
X223154304Y-105005357D01*
X223540874Y-104937194D01*
X223906843Y-104795244D01*
X224238271Y-104584914D01*
X224522533Y-104314215D01*
X224748802Y-103993458D01*
X224908460Y-103634860D01*
X224995425Y-103252081D01*
X224996594Y-103168300D01*
X234995769Y-103168300D01*
X235066629Y-103554385D01*
X235211130Y-103919354D01*
X235423769Y-104249305D01*
X235696446Y-104531671D01*
X236018775Y-104755695D01*
X236378479Y-104912846D01*
X236761856Y-104997137D01*
X237154304Y-105005357D01*
X237540874Y-104937194D01*
X237906843Y-104795244D01*
X238238271Y-104584914D01*
X238522533Y-104314215D01*
X238748802Y-103993458D01*
X238908460Y-103634860D01*
X238995425Y-103252081D01*
X239001686Y-102803733D01*
X238925442Y-102418675D01*
X238775859Y-102055759D01*
X238558634Y-101728809D01*
X238282041Y-101450278D01*
X237956616Y-101230776D01*
X237594753Y-101078663D01*
X237210237Y-100999733D01*
X236817712Y-100996993D01*
X236432131Y-101070546D01*
X236068180Y-101217592D01*
X235739721Y-101432529D01*
X235459266Y-101707171D01*
X235237498Y-102031056D01*
X235082862Y-102391848D01*
X235001249Y-102775804D01*
X234995769Y-103168300D01*
X224996594Y-103168300D01*
X225001686Y-102803733D01*
X224925442Y-102418675D01*
X224775859Y-102055759D01*
X224558634Y-101728809D01*
X224282041Y-101450278D01*
X223956616Y-101230776D01*
X223594753Y-101078663D01*
X223210237Y-100999733D01*
X222817712Y-100996993D01*
X222432131Y-101070546D01*
X222068180Y-101217592D01*
X221739721Y-101432529D01*
X221459266Y-101707171D01*
X221237498Y-102031056D01*
X221082862Y-102391848D01*
X221001249Y-102775804D01*
X220995769Y-103168300D01*
X220476600Y-103168300D01*
X220476600Y-100476600D01*
X239523400Y-100476600D01*
X239523400Y-131523400D01*
M02*
