M48
;DRILL file {KiCad 5.0.1-33cea8e~67~ubuntu18.04.1} date Tue 15 Jan 2019 02:32:30 PM PST
;FORMAT={-:-/ absolute / inch / decimal}
FMAT,2
INCH,TZ
T1C0.0157
T2C0.0403
%
G90
G05
M72
T1
X8.6841Y-5.018
X8.7092Y-4.3124
X8.765Y-4.4988
X8.765Y-4.548
X8.872Y-5.018
X8.9Y-4.226
X8.934Y-4.47
X9.0147Y-4.8273
X9.029Y-4.904
X9.115Y-4.919
X9.1527Y-4.1292
X9.163Y-4.159
X9.2055Y-4.8995
X9.265Y-4.4739
X9.2925Y-4.256
X9.314Y-4.566
X9.316Y-4.614
X9.376Y-4.276
X9.41Y-4.396
T2
X9.115Y-4.9798
T0
M30
