G04 #@! TF.GenerationSoftware,KiCad,Pcbnew,5.0.1-33cea8e~67~ubuntu18.04.1*
G04 #@! TF.CreationDate,2019-01-15T14:32:31-08:00*
G04 #@! TF.ProjectId,fk-naturalist-sensors,666B2D6E61747572616C6973742D7365,rev?*
G04 #@! TF.SameCoordinates,Original*
G04 #@! TF.FileFunction,Copper,L2,Bot,Signal*
G04 #@! TF.FilePolarity,Positive*
%FSLAX46Y46*%
G04 Gerber Fmt 4.6, Leading zero omitted, Abs format (unit mm)*
G04 Created by KiCad (PCBNEW 5.0.1-33cea8e~67~ubuntu18.04.1) date Tue 15 Jan 2019 02:32:31 PM PST*
%MOMM*%
%LPD*%
G01*
G04 APERTURE LIST*
G04 #@! TA.AperFunction,SMDPad,CuDef*
%ADD10R,0.600000X0.522000*%
G04 #@! TD*
G04 #@! TA.AperFunction,ComponentPad*
%ADD11C,1.624000*%
G04 #@! TD*
G04 #@! TA.AperFunction,BGAPad,CuDef*
%ADD12C,1.000000*%
G04 #@! TD*
G04 #@! TA.AperFunction,SMDPad,CuDef*
%ADD13R,1.700000X0.600000*%
G04 #@! TD*
G04 #@! TA.AperFunction,SMDPad,CuDef*
%ADD14R,2.800000X1.000000*%
G04 #@! TD*
G04 #@! TA.AperFunction,ViaPad*
%ADD15C,0.600000*%
G04 #@! TD*
G04 #@! TA.AperFunction,Conductor*
%ADD16C,0.250000*%
G04 #@! TD*
G04 #@! TA.AperFunction,Conductor*
%ADD17C,0.254000*%
G04 #@! TD*
G04 #@! TA.AperFunction,Conductor*
%ADD18C,0.203200*%
G04 #@! TD*
G04 APERTURE END LIST*
D10*
G04 #@! TO.P,U3,4*
G04 #@! TO.N,/I2S_BCLK*
X230620234Y-125236113D03*
G04 #@! TO.P,U3,5*
G04 #@! TO.N,3V3*
X230620234Y-124153113D03*
G04 #@! TO.P,U3,2*
G04 #@! TO.N,Net-(R1-Pad2)*
X232420234Y-125236113D03*
G04 #@! TO.P,U3,1*
G04 #@! TO.N,/I2S_WS*
X232420234Y-124153113D03*
D11*
G04 #@! TO.P,U3,3*
G04 #@! TO.N,GND*
X231520234Y-126488113D03*
D10*
G04 #@! TO.P,U3,6*
G04 #@! TO.N,Net-(R2-Pad1)*
X231520234Y-124153113D03*
G04 #@! TD*
D12*
G04 #@! TO.P,M9,~*
G04 #@! TO.N,Net-(M9-Pad~)*
X221640400Y-101600000D03*
G04 #@! TD*
G04 #@! TO.P,M10,~*
G04 #@! TO.N,Net-(M10-Pad~)*
X225780600Y-124891800D03*
G04 #@! TD*
D13*
G04 #@! TO.P,J1,1*
G04 #@! TO.N,GND*
X221214400Y-120519200D03*
G04 #@! TO.P,J1,2*
G04 #@! TO.N,/I2S_BCLK*
X221214400Y-119269200D03*
G04 #@! TO.P,J1,3*
G04 #@! TO.N,/I2S_WS*
X221214400Y-118019200D03*
G04 #@! TO.P,J1,4*
G04 #@! TO.N,/I2S_DATA*
X221214400Y-116769200D03*
G04 #@! TO.P,J1,5*
G04 #@! TO.N,/SDA*
X221214400Y-115519200D03*
G04 #@! TO.P,J1,6*
G04 #@! TO.N,/SCL*
X221214400Y-114269200D03*
G04 #@! TO.P,J1,7*
G04 #@! TO.N,/SDA2*
X221214400Y-113019200D03*
G04 #@! TO.P,J1,8*
G04 #@! TO.N,/SCL2*
X221214400Y-111769200D03*
G04 #@! TO.P,J1,9*
G04 #@! TO.N,3V3*
X221214400Y-110519200D03*
D14*
G04 #@! TO.P,J1,*
G04 #@! TO.N,*
X224564400Y-122369200D03*
X224564400Y-108669200D03*
G04 #@! TD*
D15*
G04 #@! TO.N,3V3*
X226060000Y-107340400D03*
X221214400Y-109534198D03*
X225348800Y-127457200D03*
X220575000Y-127457200D03*
X229336600Y-124561600D03*
X226923600Y-113538000D03*
X235331000Y-113636000D03*
X236029500Y-108101500D03*
G04 #@! TO.N,Net-(R1-Pad2)*
X233818854Y-124447354D03*
G04 #@! TO.N,Net-(R2-Pad1)*
X231521000Y-124942600D03*
G04 #@! TO.N,/I2S_DATA*
X228972850Y-122613950D03*
G04 #@! TO.N,/SDA*
X236626400Y-117195600D03*
X239014000Y-111658400D03*
X222631000Y-115519200D03*
G04 #@! TO.N,/SCL*
X236575600Y-115976400D03*
X238150400Y-108610400D03*
X222631000Y-114269200D03*
G04 #@! TO.N,/SDA2*
X232479407Y-104882300D03*
G04 #@! TO.N,/SCL2*
X232740200Y-105638600D03*
G04 #@! TD*
D16*
G04 #@! TO.N,3V3*
X221214400Y-110519200D02*
X221214400Y-109534198D01*
D17*
X223708197Y-107040401D02*
X223367600Y-107380998D01*
X225760001Y-107040401D02*
X223708197Y-107040401D01*
X226060000Y-107340400D02*
X225760001Y-107040401D01*
D16*
X221214400Y-109534198D02*
X223367600Y-107380998D01*
D17*
X220575000Y-127457200D02*
X225348800Y-127457200D01*
X229745087Y-124153113D02*
X229336600Y-124561600D01*
X230620234Y-124153113D02*
X229745087Y-124153113D01*
X226923600Y-113538000D02*
X235233000Y-113538000D01*
X235233000Y-113538000D02*
X235331000Y-113636000D01*
D16*
X235331000Y-108800000D02*
X236029500Y-108101500D01*
X235331000Y-113636000D02*
X235331000Y-108800000D01*
D17*
G04 #@! TO.N,Net-(R1-Pad2)*
X233030095Y-125236113D02*
X233818854Y-124447354D01*
X232420234Y-125236113D02*
X233030095Y-125236113D01*
G04 #@! TO.N,Net-(R2-Pad1)*
X231520234Y-124941834D02*
X231521000Y-124942600D01*
X231520234Y-124153113D02*
X231520234Y-124941834D01*
G04 #@! TO.N,/I2S_DATA*
X222986600Y-116769200D02*
X223128100Y-116769200D01*
X223153500Y-116769200D02*
X222986600Y-116769200D01*
X222986600Y-116769200D02*
X221214400Y-116769200D01*
X223153500Y-116794600D02*
X228972850Y-122613950D01*
X223153500Y-116769200D02*
X223153500Y-116794600D01*
G04 #@! TO.N,/SDA*
X237202601Y-116619399D02*
X236926399Y-116895601D01*
X237202601Y-113469799D02*
X237202601Y-116619399D01*
X236926399Y-116895601D02*
X236626400Y-117195600D01*
X239014000Y-111658400D02*
X237202601Y-113469799D01*
X234950000Y-115519200D02*
X236626400Y-117195600D01*
X222631000Y-115519200D02*
X234950000Y-115519200D01*
X221214400Y-115519200D02*
X222631000Y-115519200D01*
G04 #@! TO.N,/SCL*
X236575600Y-110185200D02*
X238150400Y-108610400D01*
X236575600Y-115976400D02*
X236575600Y-110185200D01*
X234868400Y-114269200D02*
X236575600Y-115976400D01*
X221214400Y-114269200D02*
X222631000Y-114269200D01*
X222631000Y-114269200D02*
X234868400Y-114269200D01*
G04 #@! TO.N,/I2S_BCLK*
X222961200Y-119269200D02*
X221214400Y-119269200D01*
X227561401Y-122877599D02*
X223953002Y-119269200D01*
X223953002Y-119269200D02*
X222961200Y-119269200D01*
X227561401Y-123777001D02*
X227561401Y-122877599D01*
X229020513Y-125236113D02*
X227561401Y-123777001D01*
X230620234Y-125236113D02*
X229020513Y-125236113D01*
G04 #@! TO.N,/I2S_WS*
X223345068Y-118019200D02*
X223240600Y-118019200D01*
X228617468Y-123291600D02*
X223345068Y-118019200D01*
X223240600Y-118019200D02*
X221214400Y-118019200D01*
X232073721Y-123291600D02*
X228617468Y-123291600D01*
X232420234Y-123638113D02*
X232073721Y-123291600D01*
X232420234Y-124153113D02*
X232420234Y-123638113D01*
G04 #@! TO.N,/SDA2*
X232903671Y-104882300D02*
X232479407Y-104882300D01*
X233367201Y-105345830D02*
X232903671Y-104882300D01*
X233367201Y-105939561D02*
X233367201Y-105345830D01*
X226287562Y-113019200D02*
X233367201Y-105939561D01*
X221214400Y-113019200D02*
X226287562Y-113019200D01*
G04 #@! TO.N,/SCL2*
X226609600Y-111769200D02*
X232740200Y-105638600D01*
X221214400Y-111769200D02*
X226609600Y-111769200D01*
G04 #@! TD*
D18*
G04 #@! TO.N,GND*
G36*
X239523400Y-131523400D02*
X220476600Y-131523400D01*
X220476600Y-128802860D01*
X234998400Y-128802860D01*
X234998400Y-129197140D01*
X235075320Y-129583845D01*
X235226205Y-129948113D01*
X235445256Y-130275946D01*
X235724054Y-130554744D01*
X236051887Y-130773795D01*
X236416155Y-130924680D01*
X236802860Y-131001600D01*
X237197140Y-131001600D01*
X237583845Y-130924680D01*
X237948113Y-130773795D01*
X238275946Y-130554744D01*
X238554744Y-130275946D01*
X238773795Y-129948113D01*
X238924680Y-129583845D01*
X239001600Y-129197140D01*
X239001600Y-128802860D01*
X238924680Y-128416155D01*
X238773795Y-128051887D01*
X238554744Y-127724054D01*
X238275946Y-127445256D01*
X237948113Y-127226205D01*
X237583845Y-127075320D01*
X237197140Y-126998400D01*
X236802860Y-126998400D01*
X236416155Y-127075320D01*
X236051887Y-127226205D01*
X235724054Y-127445256D01*
X235445256Y-127724054D01*
X235226205Y-128051887D01*
X235075320Y-128416155D01*
X234998400Y-128802860D01*
X220476600Y-128802860D01*
X220476600Y-128152972D01*
X220505898Y-128158800D01*
X220644102Y-128158800D01*
X220779649Y-128131838D01*
X220907332Y-128078950D01*
X221022244Y-128002169D01*
X221038613Y-127985800D01*
X224885187Y-127985800D01*
X224901556Y-128002169D01*
X225016468Y-128078950D01*
X225144151Y-128131838D01*
X225279698Y-128158800D01*
X225417902Y-128158800D01*
X225553449Y-128131838D01*
X225681132Y-128078950D01*
X225796044Y-128002169D01*
X225893769Y-127904444D01*
X225970550Y-127789532D01*
X226023438Y-127661849D01*
X226050400Y-127526302D01*
X226050400Y-127388098D01*
X226032314Y-127297173D01*
X230747095Y-127297173D01*
X230824151Y-127489402D01*
X231032868Y-127605961D01*
X231260314Y-127679562D01*
X231497749Y-127707377D01*
X231736047Y-127688335D01*
X231966052Y-127623169D01*
X232178924Y-127514384D01*
X232216317Y-127489402D01*
X232293373Y-127297173D01*
X231520234Y-126524034D01*
X230747095Y-127297173D01*
X226032314Y-127297173D01*
X226023438Y-127252551D01*
X225970550Y-127124868D01*
X225893769Y-127009956D01*
X225796044Y-126912231D01*
X225681132Y-126835450D01*
X225553449Y-126782562D01*
X225417902Y-126755600D01*
X225279698Y-126755600D01*
X225144151Y-126782562D01*
X225016468Y-126835450D01*
X224901556Y-126912231D01*
X224885187Y-126928600D01*
X221038613Y-126928600D01*
X221022244Y-126912231D01*
X220907332Y-126835450D01*
X220779649Y-126782562D01*
X220644102Y-126755600D01*
X220505898Y-126755600D01*
X220476600Y-126761428D01*
X220476600Y-124783302D01*
X224679000Y-124783302D01*
X224679000Y-125000298D01*
X224721334Y-125213125D01*
X224804375Y-125413603D01*
X224924932Y-125594029D01*
X225078371Y-125747468D01*
X225258797Y-125868025D01*
X225459275Y-125951066D01*
X225672102Y-125993400D01*
X225889098Y-125993400D01*
X226101925Y-125951066D01*
X226302403Y-125868025D01*
X226482829Y-125747468D01*
X226636268Y-125594029D01*
X226756825Y-125413603D01*
X226839866Y-125213125D01*
X226882200Y-125000298D01*
X226882200Y-124783302D01*
X226839866Y-124570475D01*
X226756825Y-124369997D01*
X226636268Y-124189571D01*
X226482829Y-124036132D01*
X226302403Y-123915575D01*
X226101925Y-123832534D01*
X225889098Y-123790200D01*
X225672102Y-123790200D01*
X225459275Y-123832534D01*
X225258797Y-123915575D01*
X225078371Y-124036132D01*
X224924932Y-124189571D01*
X224804375Y-124369997D01*
X224721334Y-124570475D01*
X224679000Y-124783302D01*
X220476600Y-124783302D01*
X220476600Y-121220800D01*
X221088600Y-121220800D01*
X221189000Y-121120400D01*
X221189000Y-120544600D01*
X221239800Y-120544600D01*
X221239800Y-121120400D01*
X221340200Y-121220800D01*
X222103954Y-121220800D01*
X222181543Y-121205367D01*
X222254629Y-121175093D01*
X222320405Y-121131143D01*
X222376343Y-121075205D01*
X222420293Y-121009429D01*
X222450567Y-120936342D01*
X222466000Y-120858754D01*
X222466000Y-120645000D01*
X222365600Y-120544600D01*
X221239800Y-120544600D01*
X221189000Y-120544600D01*
X221169000Y-120544600D01*
X221169000Y-120493800D01*
X221189000Y-120493800D01*
X221189000Y-120473800D01*
X221239800Y-120473800D01*
X221239800Y-120493800D01*
X222365600Y-120493800D01*
X222466000Y-120393400D01*
X222466000Y-120179646D01*
X222450567Y-120102058D01*
X222420293Y-120028971D01*
X222376343Y-119963195D01*
X222320405Y-119907257D01*
X222301177Y-119894409D01*
X222349748Y-119854548D01*
X222396320Y-119797800D01*
X223734050Y-119797800D01*
X225401906Y-121465657D01*
X223164400Y-121465657D01*
X223085673Y-121473411D01*
X223009971Y-121496375D01*
X222940204Y-121533666D01*
X222879052Y-121583852D01*
X222828866Y-121645004D01*
X222791575Y-121714771D01*
X222768611Y-121790473D01*
X222760857Y-121869200D01*
X222760857Y-122869200D01*
X222768611Y-122947927D01*
X222791575Y-123023629D01*
X222828866Y-123093396D01*
X222879052Y-123154548D01*
X222940204Y-123204734D01*
X223009971Y-123242025D01*
X223085673Y-123264989D01*
X223164400Y-123272743D01*
X225964400Y-123272743D01*
X226043127Y-123264989D01*
X226118829Y-123242025D01*
X226188596Y-123204734D01*
X226249748Y-123154548D01*
X226299934Y-123093396D01*
X226337225Y-123023629D01*
X226360189Y-122947927D01*
X226367943Y-122869200D01*
X226367943Y-122431694D01*
X227032801Y-123096552D01*
X227032801Y-123751039D01*
X227030244Y-123777001D01*
X227038224Y-123858019D01*
X227040450Y-123880624D01*
X227070676Y-123980265D01*
X227119760Y-124072096D01*
X227185816Y-124152586D01*
X227205991Y-124169143D01*
X228628375Y-125591528D01*
X228644928Y-125611698D01*
X228725418Y-125677754D01*
X228817248Y-125726838D01*
X228916889Y-125757064D01*
X229020513Y-125767270D01*
X229046475Y-125764713D01*
X230020321Y-125764713D01*
X230034886Y-125782461D01*
X230096038Y-125832647D01*
X230165805Y-125869938D01*
X230241507Y-125892902D01*
X230320234Y-125900656D01*
X230458282Y-125900656D01*
X230402386Y-126000747D01*
X230328785Y-126228193D01*
X230300970Y-126465628D01*
X230320012Y-126703926D01*
X230385178Y-126933931D01*
X230493963Y-127146803D01*
X230518945Y-127184196D01*
X230711174Y-127261252D01*
X231484313Y-126488113D01*
X231470171Y-126473971D01*
X231506092Y-126438050D01*
X231520234Y-126452192D01*
X231534377Y-126438050D01*
X231570298Y-126473971D01*
X231556155Y-126488113D01*
X232329294Y-127261252D01*
X232521523Y-127184196D01*
X232638082Y-126975479D01*
X232711683Y-126748033D01*
X232739498Y-126510598D01*
X232720456Y-126272300D01*
X232655290Y-126042295D01*
X232582908Y-125900656D01*
X232720234Y-125900656D01*
X232798961Y-125892902D01*
X232874663Y-125869938D01*
X232944430Y-125832647D01*
X233005582Y-125782461D01*
X233018950Y-125766172D01*
X233030095Y-125767270D01*
X233056057Y-125764713D01*
X233133719Y-125757064D01*
X233233360Y-125726838D01*
X233325190Y-125677754D01*
X233405680Y-125611698D01*
X233422237Y-125591523D01*
X233864807Y-125148954D01*
X233887956Y-125148954D01*
X234023503Y-125121992D01*
X234151186Y-125069104D01*
X234266098Y-124992323D01*
X234363823Y-124894598D01*
X234440604Y-124779686D01*
X234493492Y-124652003D01*
X234520454Y-124516456D01*
X234520454Y-124378252D01*
X234493492Y-124242705D01*
X234440604Y-124115022D01*
X234363823Y-124000110D01*
X234266098Y-123902385D01*
X234151186Y-123825604D01*
X234023503Y-123772716D01*
X233887956Y-123745754D01*
X233749752Y-123745754D01*
X233614205Y-123772716D01*
X233486522Y-123825604D01*
X233371610Y-123902385D01*
X233273885Y-124000110D01*
X233197104Y-124115022D01*
X233144216Y-124242705D01*
X233123777Y-124345459D01*
X233123777Y-123892113D01*
X233116023Y-123813386D01*
X233093059Y-123737684D01*
X233055768Y-123667917D01*
X233005582Y-123606765D01*
X232944430Y-123556579D01*
X232943301Y-123555976D01*
X232941185Y-123534489D01*
X232910959Y-123434848D01*
X232861875Y-123343018D01*
X232795819Y-123262528D01*
X232775649Y-123245975D01*
X232465863Y-122936190D01*
X232449306Y-122916015D01*
X232368816Y-122849959D01*
X232276986Y-122800875D01*
X232177345Y-122770649D01*
X232099683Y-122763000D01*
X232073721Y-122760443D01*
X232047759Y-122763000D01*
X229658547Y-122763000D01*
X229674450Y-122683052D01*
X229674450Y-122544848D01*
X229647488Y-122409301D01*
X229594600Y-122281618D01*
X229517819Y-122166706D01*
X229420094Y-122068981D01*
X229305182Y-121992200D01*
X229177499Y-121939312D01*
X229041952Y-121912350D01*
X229018803Y-121912350D01*
X223611887Y-116505435D01*
X223595141Y-116474105D01*
X223529085Y-116393615D01*
X223448595Y-116327559D01*
X223356765Y-116278475D01*
X223257124Y-116248249D01*
X223179462Y-116240600D01*
X223153500Y-116238043D01*
X223127538Y-116240600D01*
X222396320Y-116240600D01*
X222349748Y-116183852D01*
X222301432Y-116144200D01*
X222303137Y-116142801D01*
X222426351Y-116193838D01*
X222561898Y-116220800D01*
X222700102Y-116220800D01*
X222835649Y-116193838D01*
X222963332Y-116140950D01*
X223078244Y-116064169D01*
X223094613Y-116047800D01*
X234731048Y-116047800D01*
X235924800Y-117241553D01*
X235924800Y-117264702D01*
X235951762Y-117400249D01*
X236004650Y-117527932D01*
X236081431Y-117642844D01*
X236179156Y-117740569D01*
X236294068Y-117817350D01*
X236421751Y-117870238D01*
X236557298Y-117897200D01*
X236695502Y-117897200D01*
X236831049Y-117870238D01*
X236958732Y-117817350D01*
X237073644Y-117740569D01*
X237171369Y-117642844D01*
X237248150Y-117527932D01*
X237301038Y-117400249D01*
X237328000Y-117264702D01*
X237328000Y-117241552D01*
X237558011Y-117011541D01*
X237578186Y-116994984D01*
X237644242Y-116914494D01*
X237693326Y-116822664D01*
X237723552Y-116723023D01*
X237731201Y-116645361D01*
X237733758Y-116619399D01*
X237731201Y-116593437D01*
X237731201Y-113688751D01*
X239059953Y-112360000D01*
X239083102Y-112360000D01*
X239218649Y-112333038D01*
X239346332Y-112280150D01*
X239461244Y-112203369D01*
X239523401Y-112141212D01*
X239523400Y-131523400D01*
X239523400Y-131523400D01*
G37*
X239523400Y-131523400D02*
X220476600Y-131523400D01*
X220476600Y-128802860D01*
X234998400Y-128802860D01*
X234998400Y-129197140D01*
X235075320Y-129583845D01*
X235226205Y-129948113D01*
X235445256Y-130275946D01*
X235724054Y-130554744D01*
X236051887Y-130773795D01*
X236416155Y-130924680D01*
X236802860Y-131001600D01*
X237197140Y-131001600D01*
X237583845Y-130924680D01*
X237948113Y-130773795D01*
X238275946Y-130554744D01*
X238554744Y-130275946D01*
X238773795Y-129948113D01*
X238924680Y-129583845D01*
X239001600Y-129197140D01*
X239001600Y-128802860D01*
X238924680Y-128416155D01*
X238773795Y-128051887D01*
X238554744Y-127724054D01*
X238275946Y-127445256D01*
X237948113Y-127226205D01*
X237583845Y-127075320D01*
X237197140Y-126998400D01*
X236802860Y-126998400D01*
X236416155Y-127075320D01*
X236051887Y-127226205D01*
X235724054Y-127445256D01*
X235445256Y-127724054D01*
X235226205Y-128051887D01*
X235075320Y-128416155D01*
X234998400Y-128802860D01*
X220476600Y-128802860D01*
X220476600Y-128152972D01*
X220505898Y-128158800D01*
X220644102Y-128158800D01*
X220779649Y-128131838D01*
X220907332Y-128078950D01*
X221022244Y-128002169D01*
X221038613Y-127985800D01*
X224885187Y-127985800D01*
X224901556Y-128002169D01*
X225016468Y-128078950D01*
X225144151Y-128131838D01*
X225279698Y-128158800D01*
X225417902Y-128158800D01*
X225553449Y-128131838D01*
X225681132Y-128078950D01*
X225796044Y-128002169D01*
X225893769Y-127904444D01*
X225970550Y-127789532D01*
X226023438Y-127661849D01*
X226050400Y-127526302D01*
X226050400Y-127388098D01*
X226032314Y-127297173D01*
X230747095Y-127297173D01*
X230824151Y-127489402D01*
X231032868Y-127605961D01*
X231260314Y-127679562D01*
X231497749Y-127707377D01*
X231736047Y-127688335D01*
X231966052Y-127623169D01*
X232178924Y-127514384D01*
X232216317Y-127489402D01*
X232293373Y-127297173D01*
X231520234Y-126524034D01*
X230747095Y-127297173D01*
X226032314Y-127297173D01*
X226023438Y-127252551D01*
X225970550Y-127124868D01*
X225893769Y-127009956D01*
X225796044Y-126912231D01*
X225681132Y-126835450D01*
X225553449Y-126782562D01*
X225417902Y-126755600D01*
X225279698Y-126755600D01*
X225144151Y-126782562D01*
X225016468Y-126835450D01*
X224901556Y-126912231D01*
X224885187Y-126928600D01*
X221038613Y-126928600D01*
X221022244Y-126912231D01*
X220907332Y-126835450D01*
X220779649Y-126782562D01*
X220644102Y-126755600D01*
X220505898Y-126755600D01*
X220476600Y-126761428D01*
X220476600Y-124783302D01*
X224679000Y-124783302D01*
X224679000Y-125000298D01*
X224721334Y-125213125D01*
X224804375Y-125413603D01*
X224924932Y-125594029D01*
X225078371Y-125747468D01*
X225258797Y-125868025D01*
X225459275Y-125951066D01*
X225672102Y-125993400D01*
X225889098Y-125993400D01*
X226101925Y-125951066D01*
X226302403Y-125868025D01*
X226482829Y-125747468D01*
X226636268Y-125594029D01*
X226756825Y-125413603D01*
X226839866Y-125213125D01*
X226882200Y-125000298D01*
X226882200Y-124783302D01*
X226839866Y-124570475D01*
X226756825Y-124369997D01*
X226636268Y-124189571D01*
X226482829Y-124036132D01*
X226302403Y-123915575D01*
X226101925Y-123832534D01*
X225889098Y-123790200D01*
X225672102Y-123790200D01*
X225459275Y-123832534D01*
X225258797Y-123915575D01*
X225078371Y-124036132D01*
X224924932Y-124189571D01*
X224804375Y-124369997D01*
X224721334Y-124570475D01*
X224679000Y-124783302D01*
X220476600Y-124783302D01*
X220476600Y-121220800D01*
X221088600Y-121220800D01*
X221189000Y-121120400D01*
X221189000Y-120544600D01*
X221239800Y-120544600D01*
X221239800Y-121120400D01*
X221340200Y-121220800D01*
X222103954Y-121220800D01*
X222181543Y-121205367D01*
X222254629Y-121175093D01*
X222320405Y-121131143D01*
X222376343Y-121075205D01*
X222420293Y-121009429D01*
X222450567Y-120936342D01*
X222466000Y-120858754D01*
X222466000Y-120645000D01*
X222365600Y-120544600D01*
X221239800Y-120544600D01*
X221189000Y-120544600D01*
X221169000Y-120544600D01*
X221169000Y-120493800D01*
X221189000Y-120493800D01*
X221189000Y-120473800D01*
X221239800Y-120473800D01*
X221239800Y-120493800D01*
X222365600Y-120493800D01*
X222466000Y-120393400D01*
X222466000Y-120179646D01*
X222450567Y-120102058D01*
X222420293Y-120028971D01*
X222376343Y-119963195D01*
X222320405Y-119907257D01*
X222301177Y-119894409D01*
X222349748Y-119854548D01*
X222396320Y-119797800D01*
X223734050Y-119797800D01*
X225401906Y-121465657D01*
X223164400Y-121465657D01*
X223085673Y-121473411D01*
X223009971Y-121496375D01*
X222940204Y-121533666D01*
X222879052Y-121583852D01*
X222828866Y-121645004D01*
X222791575Y-121714771D01*
X222768611Y-121790473D01*
X222760857Y-121869200D01*
X222760857Y-122869200D01*
X222768611Y-122947927D01*
X222791575Y-123023629D01*
X222828866Y-123093396D01*
X222879052Y-123154548D01*
X222940204Y-123204734D01*
X223009971Y-123242025D01*
X223085673Y-123264989D01*
X223164400Y-123272743D01*
X225964400Y-123272743D01*
X226043127Y-123264989D01*
X226118829Y-123242025D01*
X226188596Y-123204734D01*
X226249748Y-123154548D01*
X226299934Y-123093396D01*
X226337225Y-123023629D01*
X226360189Y-122947927D01*
X226367943Y-122869200D01*
X226367943Y-122431694D01*
X227032801Y-123096552D01*
X227032801Y-123751039D01*
X227030244Y-123777001D01*
X227038224Y-123858019D01*
X227040450Y-123880624D01*
X227070676Y-123980265D01*
X227119760Y-124072096D01*
X227185816Y-124152586D01*
X227205991Y-124169143D01*
X228628375Y-125591528D01*
X228644928Y-125611698D01*
X228725418Y-125677754D01*
X228817248Y-125726838D01*
X228916889Y-125757064D01*
X229020513Y-125767270D01*
X229046475Y-125764713D01*
X230020321Y-125764713D01*
X230034886Y-125782461D01*
X230096038Y-125832647D01*
X230165805Y-125869938D01*
X230241507Y-125892902D01*
X230320234Y-125900656D01*
X230458282Y-125900656D01*
X230402386Y-126000747D01*
X230328785Y-126228193D01*
X230300970Y-126465628D01*
X230320012Y-126703926D01*
X230385178Y-126933931D01*
X230493963Y-127146803D01*
X230518945Y-127184196D01*
X230711174Y-127261252D01*
X231484313Y-126488113D01*
X231470171Y-126473971D01*
X231506092Y-126438050D01*
X231520234Y-126452192D01*
X231534377Y-126438050D01*
X231570298Y-126473971D01*
X231556155Y-126488113D01*
X232329294Y-127261252D01*
X232521523Y-127184196D01*
X232638082Y-126975479D01*
X232711683Y-126748033D01*
X232739498Y-126510598D01*
X232720456Y-126272300D01*
X232655290Y-126042295D01*
X232582908Y-125900656D01*
X232720234Y-125900656D01*
X232798961Y-125892902D01*
X232874663Y-125869938D01*
X232944430Y-125832647D01*
X233005582Y-125782461D01*
X233018950Y-125766172D01*
X233030095Y-125767270D01*
X233056057Y-125764713D01*
X233133719Y-125757064D01*
X233233360Y-125726838D01*
X233325190Y-125677754D01*
X233405680Y-125611698D01*
X233422237Y-125591523D01*
X233864807Y-125148954D01*
X233887956Y-125148954D01*
X234023503Y-125121992D01*
X234151186Y-125069104D01*
X234266098Y-124992323D01*
X234363823Y-124894598D01*
X234440604Y-124779686D01*
X234493492Y-124652003D01*
X234520454Y-124516456D01*
X234520454Y-124378252D01*
X234493492Y-124242705D01*
X234440604Y-124115022D01*
X234363823Y-124000110D01*
X234266098Y-123902385D01*
X234151186Y-123825604D01*
X234023503Y-123772716D01*
X233887956Y-123745754D01*
X233749752Y-123745754D01*
X233614205Y-123772716D01*
X233486522Y-123825604D01*
X233371610Y-123902385D01*
X233273885Y-124000110D01*
X233197104Y-124115022D01*
X233144216Y-124242705D01*
X233123777Y-124345459D01*
X233123777Y-123892113D01*
X233116023Y-123813386D01*
X233093059Y-123737684D01*
X233055768Y-123667917D01*
X233005582Y-123606765D01*
X232944430Y-123556579D01*
X232943301Y-123555976D01*
X232941185Y-123534489D01*
X232910959Y-123434848D01*
X232861875Y-123343018D01*
X232795819Y-123262528D01*
X232775649Y-123245975D01*
X232465863Y-122936190D01*
X232449306Y-122916015D01*
X232368816Y-122849959D01*
X232276986Y-122800875D01*
X232177345Y-122770649D01*
X232099683Y-122763000D01*
X232073721Y-122760443D01*
X232047759Y-122763000D01*
X229658547Y-122763000D01*
X229674450Y-122683052D01*
X229674450Y-122544848D01*
X229647488Y-122409301D01*
X229594600Y-122281618D01*
X229517819Y-122166706D01*
X229420094Y-122068981D01*
X229305182Y-121992200D01*
X229177499Y-121939312D01*
X229041952Y-121912350D01*
X229018803Y-121912350D01*
X223611887Y-116505435D01*
X223595141Y-116474105D01*
X223529085Y-116393615D01*
X223448595Y-116327559D01*
X223356765Y-116278475D01*
X223257124Y-116248249D01*
X223179462Y-116240600D01*
X223153500Y-116238043D01*
X223127538Y-116240600D01*
X222396320Y-116240600D01*
X222349748Y-116183852D01*
X222301432Y-116144200D01*
X222303137Y-116142801D01*
X222426351Y-116193838D01*
X222561898Y-116220800D01*
X222700102Y-116220800D01*
X222835649Y-116193838D01*
X222963332Y-116140950D01*
X223078244Y-116064169D01*
X223094613Y-116047800D01*
X234731048Y-116047800D01*
X235924800Y-117241553D01*
X235924800Y-117264702D01*
X235951762Y-117400249D01*
X236004650Y-117527932D01*
X236081431Y-117642844D01*
X236179156Y-117740569D01*
X236294068Y-117817350D01*
X236421751Y-117870238D01*
X236557298Y-117897200D01*
X236695502Y-117897200D01*
X236831049Y-117870238D01*
X236958732Y-117817350D01*
X237073644Y-117740569D01*
X237171369Y-117642844D01*
X237248150Y-117527932D01*
X237301038Y-117400249D01*
X237328000Y-117264702D01*
X237328000Y-117241552D01*
X237558011Y-117011541D01*
X237578186Y-116994984D01*
X237644242Y-116914494D01*
X237693326Y-116822664D01*
X237723552Y-116723023D01*
X237731201Y-116645361D01*
X237733758Y-116619399D01*
X237731201Y-116593437D01*
X237731201Y-113688751D01*
X239059953Y-112360000D01*
X239083102Y-112360000D01*
X239218649Y-112333038D01*
X239346332Y-112280150D01*
X239461244Y-112203369D01*
X239523401Y-112141212D01*
X239523400Y-131523400D01*
G04 #@! TD*
M02*
