M48
;DRILL file {KiCad 4.0.7} date Wednesday, June 27, 2018 'AMt' 09:51:19 AM
;FORMAT={-:-/ absolute / inch / decimal}
FMAT,2
INCH,TZ
T1C0.016
T2C0.040
T3C0.126
%
G90
G05
M72
T1
X8.8917Y-4.3228
X8.8917Y-4.3504
X8.9193Y-4.3228
X8.9193Y-4.3504
X8.9961Y-5.
X8.9961Y-5.0335
X9.0354Y-5.
X9.0354Y-5.0335
X9.0512Y-4.6457
X9.0787Y-4.4803
X9.0787Y-4.7953
X9.1142Y-4.563
X9.1142Y-4.5965
X9.1654Y-4.748
X9.2008Y-4.6969
X9.2598Y-4.563
X9.2598Y-4.622
X9.2717Y-4.2756
X9.2913Y-4.2283
X9.3051Y-4.8287
T2
X9.1654Y-4.878
T3
X8.7795Y-4.0551
X8.7795Y-5.0787
X9.3307Y-4.0551
X9.3307Y-5.0787
T0
M30
