G04 #@! TF.FileFunction,Copper,L2,Bot,Signal*
%FSLAX46Y46*%
G04 Gerber Fmt 4.6, Leading zero omitted, Abs format (unit mm)*
G04 Created by KiCad (PCBNEW 4.0.7) date Wednesday, June 20, 2018 'AMt' 09:54:31 AM*
%MOMM*%
%LPD*%
G01*
G04 APERTURE LIST*
%ADD10C,0.100000*%
%ADD11R,0.600000X0.522000*%
%ADD12R,0.500000X1.000000*%
%ADD13R,0.500000X0.500000*%
%ADD14C,4.200000*%
%ADD15C,0.600000*%
%ADD16C,0.250000*%
%ADD17C,0.203200*%
G04 APERTURE END LIST*
D10*
D11*
X231900000Y-122648000D03*
X231900000Y-121565000D03*
X233700000Y-122648000D03*
X233700000Y-121565000D03*
X232800000Y-121565000D03*
D12*
X232050000Y-123900000D03*
X233550000Y-123900000D03*
D13*
X232800000Y-124650000D03*
D14*
X223000000Y-129000000D03*
X223000000Y-103000000D03*
X237000000Y-103000000D03*
X237000000Y-129000000D03*
D15*
X228500000Y-127850000D03*
X229500000Y-127850000D03*
X229500000Y-127000000D03*
X228500000Y-127000000D03*
X226550000Y-110500000D03*
X226550000Y-109800000D03*
X225850000Y-109800000D03*
X225850000Y-110500000D03*
X230600000Y-121800000D03*
X230600000Y-113800000D03*
X236350000Y-122650000D03*
X232800000Y-120600000D03*
X231500000Y-115900000D03*
X235500000Y-108600000D03*
X235200000Y-115900000D03*
X231500000Y-116750000D03*
X236000000Y-107400000D03*
X235200000Y-117400000D03*
X229900000Y-118000000D03*
X233700000Y-119300000D03*
D16*
X228500000Y-127000000D02*
X228500000Y-127850000D01*
X229500000Y-127000000D02*
X229500000Y-127850000D01*
X228500000Y-127000000D02*
X229500000Y-127000000D01*
X229500000Y-127850000D02*
X228500000Y-127850000D01*
X226550000Y-109800000D02*
X226550000Y-110500000D01*
X225850000Y-110500000D02*
X225850000Y-109800000D01*
X231900000Y-121565000D02*
X230835000Y-121565000D01*
X230835000Y-121565000D02*
X230600000Y-121800000D01*
X230600000Y-118225002D02*
X230600000Y-121800000D01*
X230600000Y-118225002D02*
X230600000Y-113800000D01*
X236350000Y-122650000D02*
X233702000Y-122650000D01*
X233702000Y-122650000D02*
X233700000Y-122648000D01*
X232800000Y-121565000D02*
X232800000Y-120600000D01*
X234600000Y-115900000D02*
X231500000Y-115900000D01*
X235200000Y-115900000D02*
X235200000Y-108900000D01*
X235200000Y-108900000D02*
X235500000Y-108600000D01*
X234600000Y-115900000D02*
X235200000Y-115900000D01*
X231500000Y-116750000D02*
X234550000Y-116750000D01*
X234550000Y-116750000D02*
X235200000Y-117400000D01*
X235825001Y-109925001D02*
X236125001Y-109625001D01*
X236125001Y-109625001D02*
X236125001Y-107525001D01*
X236125001Y-107525001D02*
X236000000Y-107400000D01*
X235200000Y-117400000D02*
X235825001Y-116774999D01*
X235825001Y-116774999D02*
X235825001Y-109925001D01*
X231900000Y-122648000D02*
X230322998Y-122648000D01*
X230322998Y-122648000D02*
X229874999Y-122200001D01*
X229874999Y-122200001D02*
X229874999Y-118025001D01*
X229874999Y-118025001D02*
X229900000Y-118000000D01*
X233700000Y-121565000D02*
X233700000Y-119300000D01*
D17*
G36*
X239620200Y-131620200D02*
X220379800Y-131620200D01*
X220379800Y-129202202D01*
X220592039Y-129202202D01*
X220677173Y-129666060D01*
X220850782Y-130104548D01*
X221106255Y-130500964D01*
X221433860Y-130840209D01*
X221821118Y-131109360D01*
X222253280Y-131298167D01*
X222713884Y-131399438D01*
X223185387Y-131409314D01*
X223649828Y-131327421D01*
X224089517Y-131156877D01*
X224487707Y-130904178D01*
X224829230Y-130578949D01*
X225101079Y-130193579D01*
X225292898Y-129762746D01*
X225397382Y-129302860D01*
X225398787Y-129202202D01*
X234592039Y-129202202D01*
X234677173Y-129666060D01*
X234850782Y-130104548D01*
X235106255Y-130500964D01*
X235433860Y-130840209D01*
X235821118Y-131109360D01*
X236253280Y-131298167D01*
X236713884Y-131399438D01*
X237185387Y-131409314D01*
X237649828Y-131327421D01*
X238089517Y-131156877D01*
X238487707Y-130904178D01*
X238829230Y-130578949D01*
X239101079Y-130193579D01*
X239292898Y-129762746D01*
X239397382Y-129302860D01*
X239404903Y-128764197D01*
X239313301Y-128301573D01*
X239133586Y-127865552D01*
X238872604Y-127472742D01*
X238540294Y-127138104D01*
X238149315Y-126874386D01*
X237714560Y-126691631D01*
X237252586Y-126596801D01*
X236780992Y-126593509D01*
X236317740Y-126681879D01*
X235880475Y-126858546D01*
X235485852Y-127116780D01*
X235148903Y-127446745D01*
X234882461Y-127835873D01*
X234696676Y-128269343D01*
X234598623Y-128730642D01*
X234592039Y-129202202D01*
X225398787Y-129202202D01*
X225404903Y-128764197D01*
X225313301Y-128301573D01*
X225133586Y-127865552D01*
X224872604Y-127472742D01*
X224540294Y-127138104D01*
X224149315Y-126874386D01*
X223714560Y-126691631D01*
X223252586Y-126596801D01*
X222780992Y-126593509D01*
X222317740Y-126681879D01*
X221880475Y-126858546D01*
X221485852Y-127116780D01*
X221148903Y-127446745D01*
X220882461Y-127835873D01*
X220696676Y-128269343D01*
X220598623Y-128730642D01*
X220592039Y-129202202D01*
X220379800Y-129202202D01*
X220379800Y-118050853D01*
X229294405Y-118050853D01*
X229315816Y-118167512D01*
X229359479Y-118277790D01*
X229423729Y-118377488D01*
X229445199Y-118399721D01*
X229445199Y-122200001D01*
X229449075Y-122239537D01*
X229452533Y-122279063D01*
X229453163Y-122281233D01*
X229453384Y-122283483D01*
X229464866Y-122321513D01*
X229475936Y-122359615D01*
X229476975Y-122361620D01*
X229477629Y-122363785D01*
X229496295Y-122398891D01*
X229514539Y-122434087D01*
X229515946Y-122435849D01*
X229517009Y-122437849D01*
X229542160Y-122468688D01*
X229566871Y-122499642D01*
X229569964Y-122502779D01*
X229570025Y-122502853D01*
X229570094Y-122502910D01*
X229571085Y-122503915D01*
X230019083Y-122951914D01*
X230049765Y-122977116D01*
X230080175Y-123002634D01*
X230082157Y-123003723D01*
X230083902Y-123005157D01*
X230118904Y-123023925D01*
X230153682Y-123043044D01*
X230155833Y-123043726D01*
X230157828Y-123044796D01*
X230195838Y-123056417D01*
X230233638Y-123068408D01*
X230235882Y-123068660D01*
X230238045Y-123069321D01*
X230277596Y-123073339D01*
X230316997Y-123077758D01*
X230321407Y-123077789D01*
X230321497Y-123077798D01*
X230321581Y-123077790D01*
X230322998Y-123077800D01*
X231348089Y-123077800D01*
X231370512Y-123111828D01*
X231436104Y-123167732D01*
X231506360Y-123199400D01*
X231484871Y-123231561D01*
X231458065Y-123296276D01*
X231444400Y-123364977D01*
X231444400Y-123785700D01*
X231533300Y-123874600D01*
X231983440Y-123874600D01*
X231982730Y-123925400D01*
X231533300Y-123925400D01*
X231444400Y-124014300D01*
X231444400Y-124435023D01*
X231458065Y-124503724D01*
X231484871Y-124568439D01*
X231523787Y-124626681D01*
X231573318Y-124676212D01*
X231631560Y-124715128D01*
X231696275Y-124741934D01*
X231764976Y-124755600D01*
X231935700Y-124755600D01*
X232024600Y-124666700D01*
X232024600Y-124160471D01*
X232070010Y-124275164D01*
X232075400Y-124283528D01*
X232075400Y-124666700D01*
X232164300Y-124755600D01*
X232203100Y-124755600D01*
X232194400Y-124764300D01*
X232194400Y-124935023D01*
X232208065Y-125003724D01*
X232234871Y-125068439D01*
X232273787Y-125126681D01*
X232323318Y-125176212D01*
X232381560Y-125215128D01*
X232446275Y-125241934D01*
X232514976Y-125255600D01*
X232685700Y-125255600D01*
X232774600Y-125166700D01*
X232774600Y-124716482D01*
X232825400Y-124717546D01*
X232825400Y-125166700D01*
X232914300Y-125255600D01*
X233085024Y-125255600D01*
X233153725Y-125241934D01*
X233218440Y-125215128D01*
X233276682Y-125176212D01*
X233326213Y-125126681D01*
X233365129Y-125068439D01*
X233391935Y-125003724D01*
X233405600Y-124935023D01*
X233405600Y-124764300D01*
X233396900Y-124755600D01*
X233435700Y-124755600D01*
X233524600Y-124666700D01*
X233524600Y-124280787D01*
X233575400Y-124166689D01*
X233575400Y-124666700D01*
X233664300Y-124755600D01*
X233835024Y-124755600D01*
X233903725Y-124741934D01*
X233968440Y-124715128D01*
X234026682Y-124676212D01*
X234076213Y-124626681D01*
X234115129Y-124568439D01*
X234141935Y-124503724D01*
X234155600Y-124435023D01*
X234155600Y-124014300D01*
X234066700Y-123925400D01*
X233615362Y-123925400D01*
X233616071Y-123874600D01*
X234066700Y-123874600D01*
X234155600Y-123785700D01*
X234155600Y-123364977D01*
X234141935Y-123296276D01*
X234115129Y-123231561D01*
X234092553Y-123197773D01*
X234130864Y-123185909D01*
X234202828Y-123138488D01*
X234252848Y-123079800D01*
X235924246Y-123079800D01*
X235956121Y-123112807D01*
X236053515Y-123180497D01*
X236162202Y-123227982D01*
X236278043Y-123253451D01*
X236396624Y-123255935D01*
X236513430Y-123235339D01*
X236624010Y-123192448D01*
X236724153Y-123128895D01*
X236810046Y-123047101D01*
X236878415Y-122950181D01*
X236926657Y-122841828D01*
X236952934Y-122726168D01*
X236954826Y-122590696D01*
X236931788Y-122474348D01*
X236886590Y-122364690D01*
X236820954Y-122265899D01*
X236737379Y-122181739D01*
X236639049Y-122115415D01*
X236529709Y-122069453D01*
X236413525Y-122045603D01*
X236294920Y-122044775D01*
X236178414Y-122067000D01*
X236068443Y-122111431D01*
X235969197Y-122176376D01*
X235924445Y-122220200D01*
X234253229Y-122220200D01*
X234229488Y-122184172D01*
X234163896Y-122128268D01*
X234117096Y-122107173D01*
X234130864Y-122102909D01*
X234202828Y-122055488D01*
X234258732Y-121989896D01*
X234294148Y-121911326D01*
X234306274Y-121826000D01*
X234306274Y-121304000D01*
X234302403Y-121255462D01*
X234276909Y-121173136D01*
X234229488Y-121101172D01*
X234163896Y-121045268D01*
X234129800Y-121029899D01*
X234129800Y-119725904D01*
X234160046Y-119697101D01*
X234228415Y-119600181D01*
X234276657Y-119491828D01*
X234302934Y-119376168D01*
X234304826Y-119240696D01*
X234281788Y-119124348D01*
X234236590Y-119014690D01*
X234170954Y-118915899D01*
X234087379Y-118831739D01*
X233989049Y-118765415D01*
X233879709Y-118719453D01*
X233763525Y-118695603D01*
X233644920Y-118694775D01*
X233528414Y-118717000D01*
X233418443Y-118761431D01*
X233319197Y-118826376D01*
X233234455Y-118909361D01*
X233167446Y-119007226D01*
X233120721Y-119116242D01*
X233096061Y-119232257D01*
X233094405Y-119350853D01*
X233115816Y-119467512D01*
X233159479Y-119577790D01*
X233223729Y-119677488D01*
X233270200Y-119725610D01*
X233270200Y-120215140D01*
X233187379Y-120131739D01*
X233089049Y-120065415D01*
X232979709Y-120019453D01*
X232863525Y-119995603D01*
X232744920Y-119994775D01*
X232628414Y-120017000D01*
X232518443Y-120061431D01*
X232419197Y-120126376D01*
X232334455Y-120209361D01*
X232267446Y-120307226D01*
X232220721Y-120416242D01*
X232196061Y-120532257D01*
X232194405Y-120650853D01*
X232215816Y-120767512D01*
X232259479Y-120877790D01*
X232323729Y-120977488D01*
X232370200Y-121025610D01*
X232370200Y-121026762D01*
X232369136Y-121027091D01*
X232350628Y-121039287D01*
X232285326Y-121009852D01*
X232200000Y-120997726D01*
X231600000Y-120997726D01*
X231551462Y-121001597D01*
X231469136Y-121027091D01*
X231397172Y-121074512D01*
X231345448Y-121135200D01*
X231029800Y-121135200D01*
X231029800Y-117133775D01*
X231106121Y-117212807D01*
X231203515Y-117280497D01*
X231312202Y-117327982D01*
X231428043Y-117353451D01*
X231546624Y-117355935D01*
X231663430Y-117335339D01*
X231774010Y-117292448D01*
X231874153Y-117228895D01*
X231925708Y-117179800D01*
X234371972Y-117179800D01*
X234595075Y-117402903D01*
X234594405Y-117450853D01*
X234615816Y-117567512D01*
X234659479Y-117677790D01*
X234723729Y-117777488D01*
X234806121Y-117862807D01*
X234903515Y-117930497D01*
X235012202Y-117977982D01*
X235128043Y-118003451D01*
X235246624Y-118005935D01*
X235363430Y-117985339D01*
X235474010Y-117942448D01*
X235574153Y-117878895D01*
X235660046Y-117797101D01*
X235728415Y-117700181D01*
X235776657Y-117591828D01*
X235802934Y-117476168D01*
X235803944Y-117403885D01*
X236128916Y-117078913D01*
X236154144Y-117048200D01*
X236179635Y-117017822D01*
X236180723Y-117015844D01*
X236182159Y-117014095D01*
X236200947Y-116979054D01*
X236220045Y-116944315D01*
X236220727Y-116942164D01*
X236221797Y-116940169D01*
X236233418Y-116902159D01*
X236245409Y-116864359D01*
X236245661Y-116862115D01*
X236246322Y-116859952D01*
X236250339Y-116820406D01*
X236254759Y-116781000D01*
X236254790Y-116776589D01*
X236254799Y-116776499D01*
X236254791Y-116776415D01*
X236254801Y-116774999D01*
X236254801Y-110103029D01*
X236428915Y-109928916D01*
X236454117Y-109898234D01*
X236479635Y-109867824D01*
X236480724Y-109865842D01*
X236482158Y-109864097D01*
X236500926Y-109829095D01*
X236520045Y-109794317D01*
X236520727Y-109792166D01*
X236521797Y-109790171D01*
X236533418Y-109752161D01*
X236545409Y-109714361D01*
X236545661Y-109712117D01*
X236546322Y-109709954D01*
X236550340Y-109670403D01*
X236554759Y-109631002D01*
X236554790Y-109626592D01*
X236554799Y-109626502D01*
X236554791Y-109626418D01*
X236554801Y-109625001D01*
X236554801Y-107640917D01*
X236576657Y-107591828D01*
X236602934Y-107476168D01*
X236604826Y-107340696D01*
X236581788Y-107224348D01*
X236536590Y-107114690D01*
X236470954Y-107015899D01*
X236387379Y-106931739D01*
X236289049Y-106865415D01*
X236179709Y-106819453D01*
X236063525Y-106795603D01*
X235944920Y-106794775D01*
X235828414Y-106817000D01*
X235718443Y-106861431D01*
X235619197Y-106926376D01*
X235534455Y-107009361D01*
X235467446Y-107107226D01*
X235420721Y-107216242D01*
X235396061Y-107332257D01*
X235394405Y-107450853D01*
X235415816Y-107567512D01*
X235459479Y-107677790D01*
X235523729Y-107777488D01*
X235606121Y-107862807D01*
X235695201Y-107924719D01*
X235695201Y-108025965D01*
X235679709Y-108019453D01*
X235563525Y-107995603D01*
X235444920Y-107994775D01*
X235328414Y-108017000D01*
X235218443Y-108061431D01*
X235119197Y-108126376D01*
X235034455Y-108209361D01*
X234967446Y-108307226D01*
X234920721Y-108416242D01*
X234896061Y-108532257D01*
X234895154Y-108597221D01*
X234870882Y-108626769D01*
X234845366Y-108657177D01*
X234844278Y-108659155D01*
X234842842Y-108660904D01*
X234824054Y-108695945D01*
X234804956Y-108730684D01*
X234804274Y-108732835D01*
X234803204Y-108734830D01*
X234791583Y-108772840D01*
X234779592Y-108810640D01*
X234779340Y-108812884D01*
X234778679Y-108815047D01*
X234774662Y-108854593D01*
X234770242Y-108893999D01*
X234770211Y-108898410D01*
X234770202Y-108898500D01*
X234770210Y-108898584D01*
X234770200Y-108900000D01*
X234770200Y-115470200D01*
X231925573Y-115470200D01*
X231887379Y-115431739D01*
X231789049Y-115365415D01*
X231679709Y-115319453D01*
X231563525Y-115295603D01*
X231444920Y-115294775D01*
X231328414Y-115317000D01*
X231218443Y-115361431D01*
X231119197Y-115426376D01*
X231034455Y-115509361D01*
X231029800Y-115516160D01*
X231029800Y-114225904D01*
X231060046Y-114197101D01*
X231128415Y-114100181D01*
X231176657Y-113991828D01*
X231202934Y-113876168D01*
X231204826Y-113740696D01*
X231181788Y-113624348D01*
X231136590Y-113514690D01*
X231070954Y-113415899D01*
X230987379Y-113331739D01*
X230889049Y-113265415D01*
X230779709Y-113219453D01*
X230663525Y-113195603D01*
X230544920Y-113194775D01*
X230428414Y-113217000D01*
X230318443Y-113261431D01*
X230219197Y-113326376D01*
X230134455Y-113409361D01*
X230067446Y-113507226D01*
X230020721Y-113616242D01*
X229996061Y-113732257D01*
X229994405Y-113850853D01*
X230015816Y-113967512D01*
X230059479Y-114077790D01*
X230123729Y-114177488D01*
X230170200Y-114225610D01*
X230170200Y-117457492D01*
X230079709Y-117419453D01*
X229963525Y-117395603D01*
X229844920Y-117394775D01*
X229728414Y-117417000D01*
X229618443Y-117461431D01*
X229519197Y-117526376D01*
X229434455Y-117609361D01*
X229367446Y-117707226D01*
X229320721Y-117816242D01*
X229296061Y-117932257D01*
X229294405Y-118050853D01*
X220379800Y-118050853D01*
X220379800Y-103202202D01*
X220592039Y-103202202D01*
X220677173Y-103666060D01*
X220850782Y-104104548D01*
X221106255Y-104500964D01*
X221433860Y-104840209D01*
X221821118Y-105109360D01*
X222253280Y-105298167D01*
X222713884Y-105399438D01*
X223185387Y-105409314D01*
X223649828Y-105327421D01*
X224089517Y-105156877D01*
X224487707Y-104904178D01*
X224829230Y-104578949D01*
X225101079Y-104193579D01*
X225292898Y-103762746D01*
X225397382Y-103302860D01*
X225398787Y-103202202D01*
X234592039Y-103202202D01*
X234677173Y-103666060D01*
X234850782Y-104104548D01*
X235106255Y-104500964D01*
X235433860Y-104840209D01*
X235821118Y-105109360D01*
X236253280Y-105298167D01*
X236713884Y-105399438D01*
X237185387Y-105409314D01*
X237649828Y-105327421D01*
X238089517Y-105156877D01*
X238487707Y-104904178D01*
X238829230Y-104578949D01*
X239101079Y-104193579D01*
X239292898Y-103762746D01*
X239397382Y-103302860D01*
X239404903Y-102764197D01*
X239313301Y-102301573D01*
X239133586Y-101865552D01*
X238872604Y-101472742D01*
X238540294Y-101138104D01*
X238149315Y-100874386D01*
X237714560Y-100691631D01*
X237252586Y-100596801D01*
X236780992Y-100593509D01*
X236317740Y-100681879D01*
X235880475Y-100858546D01*
X235485852Y-101116780D01*
X235148903Y-101446745D01*
X234882461Y-101835873D01*
X234696676Y-102269343D01*
X234598623Y-102730642D01*
X234592039Y-103202202D01*
X225398787Y-103202202D01*
X225404903Y-102764197D01*
X225313301Y-102301573D01*
X225133586Y-101865552D01*
X224872604Y-101472742D01*
X224540294Y-101138104D01*
X224149315Y-100874386D01*
X223714560Y-100691631D01*
X223252586Y-100596801D01*
X222780992Y-100593509D01*
X222317740Y-100681879D01*
X221880475Y-100858546D01*
X221485852Y-101116780D01*
X221148903Y-101446745D01*
X220882461Y-101835873D01*
X220696676Y-102269343D01*
X220598623Y-102730642D01*
X220592039Y-103202202D01*
X220379800Y-103202202D01*
X220379800Y-100379800D01*
X239620200Y-100379800D01*
X239620200Y-131620200D01*
X239620200Y-131620200D01*
G37*
X239620200Y-131620200D02*
X220379800Y-131620200D01*
X220379800Y-129202202D01*
X220592039Y-129202202D01*
X220677173Y-129666060D01*
X220850782Y-130104548D01*
X221106255Y-130500964D01*
X221433860Y-130840209D01*
X221821118Y-131109360D01*
X222253280Y-131298167D01*
X222713884Y-131399438D01*
X223185387Y-131409314D01*
X223649828Y-131327421D01*
X224089517Y-131156877D01*
X224487707Y-130904178D01*
X224829230Y-130578949D01*
X225101079Y-130193579D01*
X225292898Y-129762746D01*
X225397382Y-129302860D01*
X225398787Y-129202202D01*
X234592039Y-129202202D01*
X234677173Y-129666060D01*
X234850782Y-130104548D01*
X235106255Y-130500964D01*
X235433860Y-130840209D01*
X235821118Y-131109360D01*
X236253280Y-131298167D01*
X236713884Y-131399438D01*
X237185387Y-131409314D01*
X237649828Y-131327421D01*
X238089517Y-131156877D01*
X238487707Y-130904178D01*
X238829230Y-130578949D01*
X239101079Y-130193579D01*
X239292898Y-129762746D01*
X239397382Y-129302860D01*
X239404903Y-128764197D01*
X239313301Y-128301573D01*
X239133586Y-127865552D01*
X238872604Y-127472742D01*
X238540294Y-127138104D01*
X238149315Y-126874386D01*
X237714560Y-126691631D01*
X237252586Y-126596801D01*
X236780992Y-126593509D01*
X236317740Y-126681879D01*
X235880475Y-126858546D01*
X235485852Y-127116780D01*
X235148903Y-127446745D01*
X234882461Y-127835873D01*
X234696676Y-128269343D01*
X234598623Y-128730642D01*
X234592039Y-129202202D01*
X225398787Y-129202202D01*
X225404903Y-128764197D01*
X225313301Y-128301573D01*
X225133586Y-127865552D01*
X224872604Y-127472742D01*
X224540294Y-127138104D01*
X224149315Y-126874386D01*
X223714560Y-126691631D01*
X223252586Y-126596801D01*
X222780992Y-126593509D01*
X222317740Y-126681879D01*
X221880475Y-126858546D01*
X221485852Y-127116780D01*
X221148903Y-127446745D01*
X220882461Y-127835873D01*
X220696676Y-128269343D01*
X220598623Y-128730642D01*
X220592039Y-129202202D01*
X220379800Y-129202202D01*
X220379800Y-118050853D01*
X229294405Y-118050853D01*
X229315816Y-118167512D01*
X229359479Y-118277790D01*
X229423729Y-118377488D01*
X229445199Y-118399721D01*
X229445199Y-122200001D01*
X229449075Y-122239537D01*
X229452533Y-122279063D01*
X229453163Y-122281233D01*
X229453384Y-122283483D01*
X229464866Y-122321513D01*
X229475936Y-122359615D01*
X229476975Y-122361620D01*
X229477629Y-122363785D01*
X229496295Y-122398891D01*
X229514539Y-122434087D01*
X229515946Y-122435849D01*
X229517009Y-122437849D01*
X229542160Y-122468688D01*
X229566871Y-122499642D01*
X229569964Y-122502779D01*
X229570025Y-122502853D01*
X229570094Y-122502910D01*
X229571085Y-122503915D01*
X230019083Y-122951914D01*
X230049765Y-122977116D01*
X230080175Y-123002634D01*
X230082157Y-123003723D01*
X230083902Y-123005157D01*
X230118904Y-123023925D01*
X230153682Y-123043044D01*
X230155833Y-123043726D01*
X230157828Y-123044796D01*
X230195838Y-123056417D01*
X230233638Y-123068408D01*
X230235882Y-123068660D01*
X230238045Y-123069321D01*
X230277596Y-123073339D01*
X230316997Y-123077758D01*
X230321407Y-123077789D01*
X230321497Y-123077798D01*
X230321581Y-123077790D01*
X230322998Y-123077800D01*
X231348089Y-123077800D01*
X231370512Y-123111828D01*
X231436104Y-123167732D01*
X231506360Y-123199400D01*
X231484871Y-123231561D01*
X231458065Y-123296276D01*
X231444400Y-123364977D01*
X231444400Y-123785700D01*
X231533300Y-123874600D01*
X231983440Y-123874600D01*
X231982730Y-123925400D01*
X231533300Y-123925400D01*
X231444400Y-124014300D01*
X231444400Y-124435023D01*
X231458065Y-124503724D01*
X231484871Y-124568439D01*
X231523787Y-124626681D01*
X231573318Y-124676212D01*
X231631560Y-124715128D01*
X231696275Y-124741934D01*
X231764976Y-124755600D01*
X231935700Y-124755600D01*
X232024600Y-124666700D01*
X232024600Y-124160471D01*
X232070010Y-124275164D01*
X232075400Y-124283528D01*
X232075400Y-124666700D01*
X232164300Y-124755600D01*
X232203100Y-124755600D01*
X232194400Y-124764300D01*
X232194400Y-124935023D01*
X232208065Y-125003724D01*
X232234871Y-125068439D01*
X232273787Y-125126681D01*
X232323318Y-125176212D01*
X232381560Y-125215128D01*
X232446275Y-125241934D01*
X232514976Y-125255600D01*
X232685700Y-125255600D01*
X232774600Y-125166700D01*
X232774600Y-124716482D01*
X232825400Y-124717546D01*
X232825400Y-125166700D01*
X232914300Y-125255600D01*
X233085024Y-125255600D01*
X233153725Y-125241934D01*
X233218440Y-125215128D01*
X233276682Y-125176212D01*
X233326213Y-125126681D01*
X233365129Y-125068439D01*
X233391935Y-125003724D01*
X233405600Y-124935023D01*
X233405600Y-124764300D01*
X233396900Y-124755600D01*
X233435700Y-124755600D01*
X233524600Y-124666700D01*
X233524600Y-124280787D01*
X233575400Y-124166689D01*
X233575400Y-124666700D01*
X233664300Y-124755600D01*
X233835024Y-124755600D01*
X233903725Y-124741934D01*
X233968440Y-124715128D01*
X234026682Y-124676212D01*
X234076213Y-124626681D01*
X234115129Y-124568439D01*
X234141935Y-124503724D01*
X234155600Y-124435023D01*
X234155600Y-124014300D01*
X234066700Y-123925400D01*
X233615362Y-123925400D01*
X233616071Y-123874600D01*
X234066700Y-123874600D01*
X234155600Y-123785700D01*
X234155600Y-123364977D01*
X234141935Y-123296276D01*
X234115129Y-123231561D01*
X234092553Y-123197773D01*
X234130864Y-123185909D01*
X234202828Y-123138488D01*
X234252848Y-123079800D01*
X235924246Y-123079800D01*
X235956121Y-123112807D01*
X236053515Y-123180497D01*
X236162202Y-123227982D01*
X236278043Y-123253451D01*
X236396624Y-123255935D01*
X236513430Y-123235339D01*
X236624010Y-123192448D01*
X236724153Y-123128895D01*
X236810046Y-123047101D01*
X236878415Y-122950181D01*
X236926657Y-122841828D01*
X236952934Y-122726168D01*
X236954826Y-122590696D01*
X236931788Y-122474348D01*
X236886590Y-122364690D01*
X236820954Y-122265899D01*
X236737379Y-122181739D01*
X236639049Y-122115415D01*
X236529709Y-122069453D01*
X236413525Y-122045603D01*
X236294920Y-122044775D01*
X236178414Y-122067000D01*
X236068443Y-122111431D01*
X235969197Y-122176376D01*
X235924445Y-122220200D01*
X234253229Y-122220200D01*
X234229488Y-122184172D01*
X234163896Y-122128268D01*
X234117096Y-122107173D01*
X234130864Y-122102909D01*
X234202828Y-122055488D01*
X234258732Y-121989896D01*
X234294148Y-121911326D01*
X234306274Y-121826000D01*
X234306274Y-121304000D01*
X234302403Y-121255462D01*
X234276909Y-121173136D01*
X234229488Y-121101172D01*
X234163896Y-121045268D01*
X234129800Y-121029899D01*
X234129800Y-119725904D01*
X234160046Y-119697101D01*
X234228415Y-119600181D01*
X234276657Y-119491828D01*
X234302934Y-119376168D01*
X234304826Y-119240696D01*
X234281788Y-119124348D01*
X234236590Y-119014690D01*
X234170954Y-118915899D01*
X234087379Y-118831739D01*
X233989049Y-118765415D01*
X233879709Y-118719453D01*
X233763525Y-118695603D01*
X233644920Y-118694775D01*
X233528414Y-118717000D01*
X233418443Y-118761431D01*
X233319197Y-118826376D01*
X233234455Y-118909361D01*
X233167446Y-119007226D01*
X233120721Y-119116242D01*
X233096061Y-119232257D01*
X233094405Y-119350853D01*
X233115816Y-119467512D01*
X233159479Y-119577790D01*
X233223729Y-119677488D01*
X233270200Y-119725610D01*
X233270200Y-120215140D01*
X233187379Y-120131739D01*
X233089049Y-120065415D01*
X232979709Y-120019453D01*
X232863525Y-119995603D01*
X232744920Y-119994775D01*
X232628414Y-120017000D01*
X232518443Y-120061431D01*
X232419197Y-120126376D01*
X232334455Y-120209361D01*
X232267446Y-120307226D01*
X232220721Y-120416242D01*
X232196061Y-120532257D01*
X232194405Y-120650853D01*
X232215816Y-120767512D01*
X232259479Y-120877790D01*
X232323729Y-120977488D01*
X232370200Y-121025610D01*
X232370200Y-121026762D01*
X232369136Y-121027091D01*
X232350628Y-121039287D01*
X232285326Y-121009852D01*
X232200000Y-120997726D01*
X231600000Y-120997726D01*
X231551462Y-121001597D01*
X231469136Y-121027091D01*
X231397172Y-121074512D01*
X231345448Y-121135200D01*
X231029800Y-121135200D01*
X231029800Y-117133775D01*
X231106121Y-117212807D01*
X231203515Y-117280497D01*
X231312202Y-117327982D01*
X231428043Y-117353451D01*
X231546624Y-117355935D01*
X231663430Y-117335339D01*
X231774010Y-117292448D01*
X231874153Y-117228895D01*
X231925708Y-117179800D01*
X234371972Y-117179800D01*
X234595075Y-117402903D01*
X234594405Y-117450853D01*
X234615816Y-117567512D01*
X234659479Y-117677790D01*
X234723729Y-117777488D01*
X234806121Y-117862807D01*
X234903515Y-117930497D01*
X235012202Y-117977982D01*
X235128043Y-118003451D01*
X235246624Y-118005935D01*
X235363430Y-117985339D01*
X235474010Y-117942448D01*
X235574153Y-117878895D01*
X235660046Y-117797101D01*
X235728415Y-117700181D01*
X235776657Y-117591828D01*
X235802934Y-117476168D01*
X235803944Y-117403885D01*
X236128916Y-117078913D01*
X236154144Y-117048200D01*
X236179635Y-117017822D01*
X236180723Y-117015844D01*
X236182159Y-117014095D01*
X236200947Y-116979054D01*
X236220045Y-116944315D01*
X236220727Y-116942164D01*
X236221797Y-116940169D01*
X236233418Y-116902159D01*
X236245409Y-116864359D01*
X236245661Y-116862115D01*
X236246322Y-116859952D01*
X236250339Y-116820406D01*
X236254759Y-116781000D01*
X236254790Y-116776589D01*
X236254799Y-116776499D01*
X236254791Y-116776415D01*
X236254801Y-116774999D01*
X236254801Y-110103029D01*
X236428915Y-109928916D01*
X236454117Y-109898234D01*
X236479635Y-109867824D01*
X236480724Y-109865842D01*
X236482158Y-109864097D01*
X236500926Y-109829095D01*
X236520045Y-109794317D01*
X236520727Y-109792166D01*
X236521797Y-109790171D01*
X236533418Y-109752161D01*
X236545409Y-109714361D01*
X236545661Y-109712117D01*
X236546322Y-109709954D01*
X236550340Y-109670403D01*
X236554759Y-109631002D01*
X236554790Y-109626592D01*
X236554799Y-109626502D01*
X236554791Y-109626418D01*
X236554801Y-109625001D01*
X236554801Y-107640917D01*
X236576657Y-107591828D01*
X236602934Y-107476168D01*
X236604826Y-107340696D01*
X236581788Y-107224348D01*
X236536590Y-107114690D01*
X236470954Y-107015899D01*
X236387379Y-106931739D01*
X236289049Y-106865415D01*
X236179709Y-106819453D01*
X236063525Y-106795603D01*
X235944920Y-106794775D01*
X235828414Y-106817000D01*
X235718443Y-106861431D01*
X235619197Y-106926376D01*
X235534455Y-107009361D01*
X235467446Y-107107226D01*
X235420721Y-107216242D01*
X235396061Y-107332257D01*
X235394405Y-107450853D01*
X235415816Y-107567512D01*
X235459479Y-107677790D01*
X235523729Y-107777488D01*
X235606121Y-107862807D01*
X235695201Y-107924719D01*
X235695201Y-108025965D01*
X235679709Y-108019453D01*
X235563525Y-107995603D01*
X235444920Y-107994775D01*
X235328414Y-108017000D01*
X235218443Y-108061431D01*
X235119197Y-108126376D01*
X235034455Y-108209361D01*
X234967446Y-108307226D01*
X234920721Y-108416242D01*
X234896061Y-108532257D01*
X234895154Y-108597221D01*
X234870882Y-108626769D01*
X234845366Y-108657177D01*
X234844278Y-108659155D01*
X234842842Y-108660904D01*
X234824054Y-108695945D01*
X234804956Y-108730684D01*
X234804274Y-108732835D01*
X234803204Y-108734830D01*
X234791583Y-108772840D01*
X234779592Y-108810640D01*
X234779340Y-108812884D01*
X234778679Y-108815047D01*
X234774662Y-108854593D01*
X234770242Y-108893999D01*
X234770211Y-108898410D01*
X234770202Y-108898500D01*
X234770210Y-108898584D01*
X234770200Y-108900000D01*
X234770200Y-115470200D01*
X231925573Y-115470200D01*
X231887379Y-115431739D01*
X231789049Y-115365415D01*
X231679709Y-115319453D01*
X231563525Y-115295603D01*
X231444920Y-115294775D01*
X231328414Y-115317000D01*
X231218443Y-115361431D01*
X231119197Y-115426376D01*
X231034455Y-115509361D01*
X231029800Y-115516160D01*
X231029800Y-114225904D01*
X231060046Y-114197101D01*
X231128415Y-114100181D01*
X231176657Y-113991828D01*
X231202934Y-113876168D01*
X231204826Y-113740696D01*
X231181788Y-113624348D01*
X231136590Y-113514690D01*
X231070954Y-113415899D01*
X230987379Y-113331739D01*
X230889049Y-113265415D01*
X230779709Y-113219453D01*
X230663525Y-113195603D01*
X230544920Y-113194775D01*
X230428414Y-113217000D01*
X230318443Y-113261431D01*
X230219197Y-113326376D01*
X230134455Y-113409361D01*
X230067446Y-113507226D01*
X230020721Y-113616242D01*
X229996061Y-113732257D01*
X229994405Y-113850853D01*
X230015816Y-113967512D01*
X230059479Y-114077790D01*
X230123729Y-114177488D01*
X230170200Y-114225610D01*
X230170200Y-117457492D01*
X230079709Y-117419453D01*
X229963525Y-117395603D01*
X229844920Y-117394775D01*
X229728414Y-117417000D01*
X229618443Y-117461431D01*
X229519197Y-117526376D01*
X229434455Y-117609361D01*
X229367446Y-117707226D01*
X229320721Y-117816242D01*
X229296061Y-117932257D01*
X229294405Y-118050853D01*
X220379800Y-118050853D01*
X220379800Y-103202202D01*
X220592039Y-103202202D01*
X220677173Y-103666060D01*
X220850782Y-104104548D01*
X221106255Y-104500964D01*
X221433860Y-104840209D01*
X221821118Y-105109360D01*
X222253280Y-105298167D01*
X222713884Y-105399438D01*
X223185387Y-105409314D01*
X223649828Y-105327421D01*
X224089517Y-105156877D01*
X224487707Y-104904178D01*
X224829230Y-104578949D01*
X225101079Y-104193579D01*
X225292898Y-103762746D01*
X225397382Y-103302860D01*
X225398787Y-103202202D01*
X234592039Y-103202202D01*
X234677173Y-103666060D01*
X234850782Y-104104548D01*
X235106255Y-104500964D01*
X235433860Y-104840209D01*
X235821118Y-105109360D01*
X236253280Y-105298167D01*
X236713884Y-105399438D01*
X237185387Y-105409314D01*
X237649828Y-105327421D01*
X238089517Y-105156877D01*
X238487707Y-104904178D01*
X238829230Y-104578949D01*
X239101079Y-104193579D01*
X239292898Y-103762746D01*
X239397382Y-103302860D01*
X239404903Y-102764197D01*
X239313301Y-102301573D01*
X239133586Y-101865552D01*
X238872604Y-101472742D01*
X238540294Y-101138104D01*
X238149315Y-100874386D01*
X237714560Y-100691631D01*
X237252586Y-100596801D01*
X236780992Y-100593509D01*
X236317740Y-100681879D01*
X235880475Y-100858546D01*
X235485852Y-101116780D01*
X235148903Y-101446745D01*
X234882461Y-101835873D01*
X234696676Y-102269343D01*
X234598623Y-102730642D01*
X234592039Y-103202202D01*
X225398787Y-103202202D01*
X225404903Y-102764197D01*
X225313301Y-102301573D01*
X225133586Y-101865552D01*
X224872604Y-101472742D01*
X224540294Y-101138104D01*
X224149315Y-100874386D01*
X223714560Y-100691631D01*
X223252586Y-100596801D01*
X222780992Y-100593509D01*
X222317740Y-100681879D01*
X221880475Y-100858546D01*
X221485852Y-101116780D01*
X221148903Y-101446745D01*
X220882461Y-101835873D01*
X220696676Y-102269343D01*
X220598623Y-102730642D01*
X220592039Y-103202202D01*
X220379800Y-103202202D01*
X220379800Y-100379800D01*
X239620200Y-100379800D01*
X239620200Y-131620200D01*
M02*
