G04 #@! TF.FileFunction,Copper,L1,Top,Signal*
%FSLAX46Y46*%
G04 Gerber Fmt 4.6, Leading zero omitted, Abs format (unit mm)*
G04 Created by KiCad (PCBNEW 4.0.7) date Wednesday, June 27, 2018 'PMt' 02:03:12 PM*
%MOMM*%
%LPD*%
G01*
G04 APERTURE LIST*
%ADD10C,0.100000*%
%ADD11R,1.000000X1.100000*%
%ADD12R,1.100000X1.000000*%
%ADD13R,1.100000X0.500000*%
%ADD14R,0.550000X0.250000*%
%ADD15R,1.000000X1.700000*%
%ADD16R,0.350000X1.200000*%
%ADD17R,1.700000X0.600000*%
%ADD18R,2.700000X1.000000*%
%ADD19C,0.750000*%
%ADD20C,1.624000*%
%ADD21C,0.600000*%
%ADD22C,0.250000*%
%ADD23C,0.381000*%
%ADD24C,0.203200*%
G04 APERTURE END LIST*
D10*
D11*
X229107200Y-107602800D03*
X229107200Y-105902800D03*
D12*
X238450000Y-119200000D03*
X236750000Y-119200000D03*
X231750000Y-105000000D03*
X233450000Y-105000000D03*
X233097136Y-113790010D03*
X234797136Y-113790010D03*
D11*
X229107200Y-111108000D03*
X229107200Y-109408000D03*
D12*
X230465466Y-124860098D03*
X228765466Y-124860098D03*
X230465466Y-123132898D03*
X228765466Y-123132898D03*
D11*
X235100000Y-124900000D03*
X235100000Y-123200000D03*
D12*
X230450000Y-120500000D03*
X228750000Y-120500000D03*
D13*
X231800000Y-107350000D03*
X231800000Y-108600000D03*
X231800000Y-109850000D03*
X231800000Y-111100000D03*
X234300000Y-111100000D03*
X234300000Y-109850000D03*
X234300000Y-108600000D03*
X234300000Y-107350000D03*
D14*
X236425000Y-115900000D03*
X236425000Y-116400000D03*
X236425000Y-116900000D03*
X236425000Y-117400000D03*
X238775000Y-117400000D03*
X238775000Y-116900000D03*
X238775000Y-116400000D03*
X238775000Y-115900000D03*
D15*
X237600000Y-116650000D03*
D16*
X232447136Y-117419210D03*
X233097136Y-117419210D03*
X233747136Y-117419210D03*
X233747136Y-115919210D03*
X233097136Y-115919210D03*
X232447136Y-115919210D03*
D17*
X225850000Y-114250000D03*
X225850000Y-115500000D03*
X225850000Y-116750000D03*
X225850000Y-118000000D03*
X225850000Y-119250000D03*
X225850000Y-120500000D03*
X225850000Y-121750000D03*
D18*
X222650000Y-112400000D03*
X222650000Y-123600000D03*
D19*
X230251000Y-129794000D03*
X237947200Y-114167920D03*
X221996000Y-109855000D03*
D20*
X232800000Y-123900000D03*
D21*
X228500000Y-127850000D03*
X229500000Y-127850000D03*
X229500000Y-127000000D03*
X228500000Y-127000000D03*
X226550000Y-110500000D03*
X226550000Y-109800000D03*
X225850000Y-109800000D03*
X225850000Y-110500000D03*
X230600000Y-121800000D03*
X230600000Y-113800000D03*
X236350000Y-122650000D03*
X232800000Y-120600000D03*
X231500000Y-115900000D03*
X235500000Y-108600000D03*
X235200000Y-115900000D03*
X231500000Y-116750000D03*
X236000000Y-107400000D03*
X235200000Y-117400000D03*
X229900000Y-118000000D03*
X233700000Y-119300000D03*
D22*
X229107200Y-107602800D02*
X229857200Y-107602800D01*
X229857200Y-107602800D02*
X230854400Y-108600000D01*
X230854400Y-108600000D02*
X231000000Y-108600000D01*
X231000000Y-108600000D02*
X231800000Y-108600000D01*
X228500000Y-127850000D02*
X229500000Y-127850000D01*
X228500000Y-127000000D02*
X229500000Y-127000000D01*
X228500000Y-127850000D02*
X228500000Y-127000000D01*
X229500000Y-127000000D02*
X229500000Y-127850000D01*
X228765466Y-124860098D02*
X228765466Y-126734534D01*
X228765466Y-126734534D02*
X228500000Y-127000000D01*
X228765466Y-123132898D02*
X228765466Y-124860098D01*
X226550000Y-110500000D02*
X225850000Y-110500000D01*
X225850000Y-109800000D02*
X226550000Y-109800000D01*
X225850000Y-114250000D02*
X225850000Y-110500000D01*
D23*
X238200000Y-121800000D02*
X230600000Y-121800000D01*
X238200000Y-121800000D02*
X238450000Y-121550000D01*
X238450000Y-121550000D02*
X238450000Y-119200000D01*
D22*
X230465466Y-123132898D02*
X230465466Y-121934534D01*
X230465466Y-121934534D02*
X230600000Y-121800000D01*
D23*
X225850000Y-121750000D02*
X230550000Y-121750000D01*
X230550000Y-121750000D02*
X230600000Y-121800000D01*
D22*
X231800000Y-107350000D02*
X231800000Y-105050000D01*
X231800000Y-105050000D02*
X231750000Y-105000000D01*
X233100000Y-109800000D02*
X233100000Y-111100000D01*
X231800000Y-111100000D02*
X233100000Y-111100000D01*
X233100000Y-111100000D02*
X233100000Y-111897136D01*
X233100000Y-109800000D02*
X233100000Y-110100000D01*
X233100000Y-107800000D02*
X233100000Y-109800000D01*
X233097136Y-111597136D02*
X233097136Y-111900000D01*
X233097136Y-111900000D02*
X233097136Y-113040010D01*
X233100000Y-111897136D02*
X233097136Y-111900000D01*
X238775000Y-117400000D02*
X238775000Y-118875000D01*
X238775000Y-118875000D02*
X238450000Y-119200000D01*
X238775000Y-117400000D02*
X238775000Y-116900000D01*
X233097136Y-113040010D02*
X233097136Y-113790010D01*
X233097136Y-115919210D02*
X233097136Y-114900000D01*
X233097136Y-114900000D02*
X233097136Y-113790010D01*
X230600000Y-113800000D02*
X233087146Y-113800000D01*
X233087146Y-113800000D02*
X233097136Y-113790010D01*
X230465466Y-124860098D02*
X230465466Y-123132898D01*
X232100000Y-111100000D02*
X231800000Y-111100000D01*
X231800000Y-107350000D02*
X232650000Y-107350000D01*
X232650000Y-107350000D02*
X233100000Y-107800000D01*
X229107200Y-111108000D02*
X231792000Y-111108000D01*
X231792000Y-111108000D02*
X231800000Y-111100000D01*
X235100000Y-123200000D02*
X235800000Y-123200000D01*
X235800000Y-123200000D02*
X236350000Y-122650000D01*
X230450000Y-120500000D02*
X232700000Y-120500000D01*
X232700000Y-120500000D02*
X232800000Y-120600000D01*
X225850000Y-120500000D02*
X228750000Y-120500000D01*
X232447136Y-115919210D02*
X231519210Y-115919210D01*
X231519210Y-115919210D02*
X231500000Y-115900000D01*
X230800000Y-116200000D02*
X231100000Y-115900000D01*
X231100000Y-115900000D02*
X231500000Y-115900000D01*
X235500000Y-108600000D02*
X234300000Y-108600000D01*
X235200000Y-115900000D02*
X236425000Y-115900000D01*
X232427926Y-115900000D02*
X232447136Y-115919210D01*
X227650000Y-116200000D02*
X230800000Y-116200000D01*
X225850000Y-115500000D02*
X226950000Y-115500000D01*
X226950000Y-115500000D02*
X227650000Y-116200000D01*
X231500000Y-116750000D02*
X231500000Y-117174264D01*
X231500000Y-117174264D02*
X231744946Y-117419210D01*
X231744946Y-117419210D02*
X232022136Y-117419210D01*
X231200000Y-116750000D02*
X231500000Y-116750000D01*
X234300000Y-107350000D02*
X235950000Y-107350000D01*
X235950000Y-107350000D02*
X236000000Y-107400000D01*
X235200000Y-117400000D02*
X236425000Y-117400000D01*
X235250000Y-117350000D02*
X235200000Y-117400000D01*
X231200000Y-116750000D02*
X226950000Y-116750000D01*
X232447136Y-117419210D02*
X232022136Y-117419210D01*
X226950000Y-116750000D02*
X225850000Y-116750000D01*
X229900000Y-118000000D02*
X225850000Y-118000000D01*
X225850000Y-119250000D02*
X233650000Y-119250000D01*
X233650000Y-119250000D02*
X233700000Y-119300000D01*
D24*
G36*
X239620200Y-131620200D02*
X220379800Y-131620200D01*
X220379800Y-129160161D01*
X221092696Y-129160161D01*
X221160129Y-129527575D01*
X221297642Y-129874893D01*
X221499997Y-130188887D01*
X221759487Y-130457597D01*
X222066228Y-130670788D01*
X222408536Y-130820338D01*
X222773373Y-130900553D01*
X223146842Y-130908376D01*
X223514717Y-130843510D01*
X223862987Y-130708424D01*
X224178387Y-130508266D01*
X224448901Y-130250658D01*
X224664228Y-129945413D01*
X224699760Y-129865605D01*
X229398280Y-129865605D01*
X229428428Y-130029869D01*
X229489908Y-130185148D01*
X229580377Y-130325529D01*
X229696390Y-130445664D01*
X229833528Y-130540978D01*
X229986568Y-130607839D01*
X230149679Y-130643701D01*
X230316650Y-130647199D01*
X230481120Y-130618198D01*
X230636825Y-130557804D01*
X230777834Y-130468317D01*
X230898777Y-130353146D01*
X230995045Y-130216676D01*
X231062973Y-130064108D01*
X231099973Y-129901250D01*
X231102637Y-129710496D01*
X231070198Y-129546669D01*
X231006557Y-129392263D01*
X230914136Y-129253159D01*
X230821785Y-129160161D01*
X235092696Y-129160161D01*
X235160129Y-129527575D01*
X235297642Y-129874893D01*
X235499997Y-130188887D01*
X235759487Y-130457597D01*
X236066228Y-130670788D01*
X236408536Y-130820338D01*
X236773373Y-130900553D01*
X237146842Y-130908376D01*
X237514717Y-130843510D01*
X237862987Y-130708424D01*
X238178387Y-130508266D01*
X238448901Y-130250658D01*
X238664228Y-129945413D01*
X238816165Y-129604158D01*
X238898924Y-129239890D01*
X238904882Y-128813225D01*
X238832326Y-128446788D01*
X238689977Y-128101423D01*
X238483257Y-127790285D01*
X238220040Y-127525225D01*
X237910353Y-127316338D01*
X237565990Y-127171581D01*
X237200069Y-127096468D01*
X236826528Y-127093860D01*
X236459594Y-127163857D01*
X236113244Y-127303791D01*
X235800670Y-127508334D01*
X235533778Y-127769694D01*
X235322734Y-128077915D01*
X235175577Y-128421259D01*
X235097911Y-128786647D01*
X235092696Y-129160161D01*
X230821785Y-129160161D01*
X230796457Y-129134656D01*
X230658002Y-129041266D01*
X230504044Y-128976548D01*
X230340447Y-128942967D01*
X230173444Y-128941801D01*
X230009394Y-128973095D01*
X229854548Y-129035657D01*
X229714802Y-129127104D01*
X229595480Y-129243953D01*
X229501126Y-129381753D01*
X229435335Y-129535256D01*
X229400612Y-129698614D01*
X229398280Y-129865605D01*
X224699760Y-129865605D01*
X224816165Y-129604158D01*
X224898924Y-129239890D01*
X224904882Y-128813225D01*
X224832326Y-128446788D01*
X224689977Y-128101423D01*
X224483257Y-127790285D01*
X224220040Y-127525225D01*
X223910353Y-127316338D01*
X223565990Y-127171581D01*
X223200069Y-127096468D01*
X222826528Y-127093860D01*
X222459594Y-127163857D01*
X222113244Y-127303791D01*
X221800670Y-127508334D01*
X221533778Y-127769694D01*
X221322734Y-128077915D01*
X221175577Y-128421259D01*
X221097911Y-128786647D01*
X221092696Y-129160161D01*
X220379800Y-129160161D01*
X220379800Y-124974398D01*
X227859866Y-124974398D01*
X227859866Y-125395121D01*
X227873531Y-125463822D01*
X227900337Y-125528537D01*
X227939253Y-125586779D01*
X227988784Y-125636310D01*
X228047026Y-125675226D01*
X228111741Y-125702032D01*
X228180442Y-125715698D01*
X228651166Y-125715698D01*
X228740066Y-125626798D01*
X228740066Y-124885498D01*
X227948766Y-124885498D01*
X227859866Y-124974398D01*
X220379800Y-124974398D01*
X220379800Y-123100000D01*
X220993726Y-123100000D01*
X220993726Y-124100000D01*
X220997597Y-124148538D01*
X221023091Y-124230864D01*
X221070512Y-124302828D01*
X221136104Y-124358732D01*
X221214674Y-124394148D01*
X221300000Y-124406274D01*
X224000000Y-124406274D01*
X224048538Y-124402403D01*
X224130864Y-124376909D01*
X224202828Y-124329488D01*
X224206589Y-124325075D01*
X227859866Y-124325075D01*
X227859866Y-124745798D01*
X227948766Y-124834698D01*
X228740066Y-124834698D01*
X228740066Y-124093398D01*
X228651166Y-124004498D01*
X228180442Y-124004498D01*
X228111741Y-124018164D01*
X228047026Y-124044970D01*
X227988784Y-124083886D01*
X227939253Y-124133417D01*
X227900337Y-124191659D01*
X227873531Y-124256374D01*
X227859866Y-124325075D01*
X224206589Y-124325075D01*
X224258732Y-124263896D01*
X224294148Y-124185326D01*
X224306274Y-124100000D01*
X224306274Y-123247198D01*
X227859866Y-123247198D01*
X227859866Y-123667921D01*
X227873531Y-123736622D01*
X227900337Y-123801337D01*
X227939253Y-123859579D01*
X227988784Y-123909110D01*
X228047026Y-123948026D01*
X228111741Y-123974832D01*
X228180442Y-123988498D01*
X228651166Y-123988498D01*
X228740066Y-123899598D01*
X228740066Y-123158298D01*
X227948766Y-123158298D01*
X227859866Y-123247198D01*
X224306274Y-123247198D01*
X224306274Y-123100000D01*
X224302403Y-123051462D01*
X224276909Y-122969136D01*
X224229488Y-122897172D01*
X224163896Y-122841268D01*
X224085326Y-122805852D01*
X224000000Y-122793726D01*
X221300000Y-122793726D01*
X221251462Y-122797597D01*
X221169136Y-122823091D01*
X221097172Y-122870512D01*
X221041268Y-122936104D01*
X221005852Y-123014674D01*
X220993726Y-123100000D01*
X220379800Y-123100000D01*
X220379800Y-122597875D01*
X227859866Y-122597875D01*
X227859866Y-123018598D01*
X227948766Y-123107498D01*
X228740066Y-123107498D01*
X228740066Y-122366198D01*
X228651166Y-122277298D01*
X228180442Y-122277298D01*
X228111741Y-122290964D01*
X228047026Y-122317770D01*
X227988784Y-122356686D01*
X227939253Y-122406217D01*
X227900337Y-122464459D01*
X227873531Y-122529174D01*
X227859866Y-122597875D01*
X220379800Y-122597875D01*
X220379800Y-120200000D01*
X224693726Y-120200000D01*
X224693726Y-120800000D01*
X224697597Y-120848538D01*
X224723091Y-120930864D01*
X224770512Y-121002828D01*
X224836104Y-121058732D01*
X224914674Y-121094148D01*
X225000000Y-121106274D01*
X226700000Y-121106274D01*
X226748538Y-121102403D01*
X226830864Y-121076909D01*
X226902828Y-121029488D01*
X226958732Y-120963896D01*
X226974101Y-120929800D01*
X227893726Y-120929800D01*
X227893726Y-121000000D01*
X227897597Y-121048538D01*
X227923091Y-121130864D01*
X227970512Y-121202828D01*
X228031373Y-121254700D01*
X226934449Y-121254700D01*
X226929488Y-121247172D01*
X226863896Y-121191268D01*
X226785326Y-121155852D01*
X226700000Y-121143726D01*
X225000000Y-121143726D01*
X224951462Y-121147597D01*
X224869136Y-121173091D01*
X224797172Y-121220512D01*
X224741268Y-121286104D01*
X224705852Y-121364674D01*
X224693726Y-121450000D01*
X224693726Y-122050000D01*
X224697597Y-122098538D01*
X224723091Y-122180864D01*
X224770512Y-122252828D01*
X224836104Y-122308732D01*
X224914674Y-122344148D01*
X225000000Y-122356274D01*
X226700000Y-122356274D01*
X226748538Y-122352403D01*
X226830864Y-122326909D01*
X226902828Y-122279488D01*
X226931966Y-122245300D01*
X230035666Y-122245300D01*
X230035666Y-122326624D01*
X229915466Y-122326624D01*
X229866928Y-122330495D01*
X229784602Y-122355989D01*
X229712638Y-122403410D01*
X229656734Y-122469002D01*
X229644093Y-122497046D01*
X229630595Y-122464459D01*
X229591679Y-122406217D01*
X229542148Y-122356686D01*
X229483906Y-122317770D01*
X229419191Y-122290964D01*
X229350490Y-122277298D01*
X228879766Y-122277298D01*
X228790866Y-122366198D01*
X228790866Y-123107498D01*
X228810866Y-123107498D01*
X228810866Y-123158298D01*
X228790866Y-123158298D01*
X228790866Y-123899598D01*
X228879766Y-123988498D01*
X229350490Y-123988498D01*
X229419191Y-123974832D01*
X229483906Y-123948026D01*
X229542148Y-123909110D01*
X229591679Y-123859579D01*
X229630595Y-123801337D01*
X229643225Y-123770846D01*
X229685978Y-123835726D01*
X229751570Y-123891630D01*
X229830140Y-123927046D01*
X229915466Y-123939172D01*
X230035666Y-123939172D01*
X230035666Y-124053824D01*
X229915466Y-124053824D01*
X229866928Y-124057695D01*
X229784602Y-124083189D01*
X229712638Y-124130610D01*
X229656734Y-124196202D01*
X229644093Y-124224246D01*
X229630595Y-124191659D01*
X229591679Y-124133417D01*
X229542148Y-124083886D01*
X229483906Y-124044970D01*
X229419191Y-124018164D01*
X229350490Y-124004498D01*
X228879766Y-124004498D01*
X228790866Y-124093398D01*
X228790866Y-124834698D01*
X228810866Y-124834698D01*
X228810866Y-124885498D01*
X228790866Y-124885498D01*
X228790866Y-125626798D01*
X228879766Y-125715698D01*
X229350490Y-125715698D01*
X229419191Y-125702032D01*
X229483906Y-125675226D01*
X229542148Y-125636310D01*
X229591679Y-125586779D01*
X229630595Y-125528537D01*
X229643225Y-125498046D01*
X229685978Y-125562926D01*
X229751570Y-125618830D01*
X229830140Y-125654246D01*
X229915466Y-125666372D01*
X231015466Y-125666372D01*
X231064004Y-125662501D01*
X231146330Y-125637007D01*
X231218294Y-125589586D01*
X231274198Y-125523994D01*
X231309614Y-125445424D01*
X231321740Y-125360098D01*
X231321740Y-124684501D01*
X232051420Y-124684501D01*
X232131092Y-124863886D01*
X232331990Y-124975863D01*
X232550874Y-125046494D01*
X232779331Y-125073067D01*
X233008582Y-125054559D01*
X233150234Y-125014300D01*
X234244400Y-125014300D01*
X234244400Y-125485024D01*
X234258066Y-125553725D01*
X234284872Y-125618440D01*
X234323788Y-125676682D01*
X234373319Y-125726213D01*
X234431561Y-125765129D01*
X234496276Y-125791935D01*
X234564977Y-125805600D01*
X234985700Y-125805600D01*
X235074600Y-125716700D01*
X235074600Y-124925400D01*
X235125400Y-124925400D01*
X235125400Y-125716700D01*
X235214300Y-125805600D01*
X235635023Y-125805600D01*
X235703724Y-125791935D01*
X235768439Y-125765129D01*
X235826681Y-125726213D01*
X235876212Y-125676682D01*
X235915128Y-125618440D01*
X235941934Y-125553725D01*
X235955600Y-125485024D01*
X235955600Y-125014300D01*
X235866700Y-124925400D01*
X235125400Y-124925400D01*
X235074600Y-124925400D01*
X234333300Y-124925400D01*
X234244400Y-125014300D01*
X233150234Y-125014300D01*
X233229817Y-124991682D01*
X233434535Y-124886852D01*
X233468908Y-124863886D01*
X233548580Y-124684501D01*
X232800000Y-123935921D01*
X232051420Y-124684501D01*
X231321740Y-124684501D01*
X231321740Y-124360098D01*
X231317869Y-124311560D01*
X231292375Y-124229234D01*
X231244954Y-124157270D01*
X231179362Y-124101366D01*
X231100792Y-124065950D01*
X231015466Y-124053824D01*
X230895266Y-124053824D01*
X230895266Y-123939172D01*
X231015466Y-123939172D01*
X231064004Y-123935301D01*
X231146330Y-123909807D01*
X231192579Y-123879331D01*
X231626933Y-123879331D01*
X231645441Y-124108582D01*
X231708318Y-124329817D01*
X231813148Y-124534535D01*
X231836114Y-124568908D01*
X232015499Y-124648580D01*
X232764079Y-123900000D01*
X232835921Y-123900000D01*
X233584501Y-124648580D01*
X233763886Y-124568908D01*
X233875863Y-124368010D01*
X233946494Y-124149126D01*
X233973067Y-123920669D01*
X233954559Y-123691418D01*
X233891682Y-123470183D01*
X233786852Y-123265465D01*
X233763886Y-123231092D01*
X233584501Y-123151420D01*
X232835921Y-123900000D01*
X232764079Y-123900000D01*
X232015499Y-123151420D01*
X231836114Y-123231092D01*
X231724137Y-123431990D01*
X231653506Y-123650874D01*
X231626933Y-123879331D01*
X231192579Y-123879331D01*
X231218294Y-123862386D01*
X231274198Y-123796794D01*
X231309614Y-123718224D01*
X231321740Y-123632898D01*
X231321740Y-123115499D01*
X232051420Y-123115499D01*
X232800000Y-123864079D01*
X233548580Y-123115499D01*
X233468908Y-122936114D01*
X233268010Y-122824137D01*
X233049126Y-122753506D01*
X232820669Y-122726933D01*
X232591418Y-122745441D01*
X232370183Y-122808318D01*
X232165465Y-122913148D01*
X232131092Y-122936114D01*
X232051420Y-123115499D01*
X231321740Y-123115499D01*
X231321740Y-122632898D01*
X231317869Y-122584360D01*
X231292375Y-122502034D01*
X231244954Y-122430070D01*
X231179362Y-122374166D01*
X231100792Y-122338750D01*
X231015466Y-122326624D01*
X230898945Y-122326624D01*
X230948303Y-122295300D01*
X235859847Y-122295300D01*
X235817446Y-122357226D01*
X235792431Y-122415589D01*
X235763896Y-122391268D01*
X235685326Y-122355852D01*
X235600000Y-122343726D01*
X234600000Y-122343726D01*
X234551462Y-122347597D01*
X234469136Y-122373091D01*
X234397172Y-122420512D01*
X234341268Y-122486104D01*
X234305852Y-122564674D01*
X234293726Y-122650000D01*
X234293726Y-123750000D01*
X234297597Y-123798538D01*
X234323091Y-123880864D01*
X234370512Y-123952828D01*
X234436104Y-124008732D01*
X234464148Y-124021373D01*
X234431561Y-124034871D01*
X234373319Y-124073787D01*
X234323788Y-124123318D01*
X234284872Y-124181560D01*
X234258066Y-124246275D01*
X234244400Y-124314976D01*
X234244400Y-124785700D01*
X234333300Y-124874600D01*
X235074600Y-124874600D01*
X235074600Y-124854600D01*
X235125400Y-124854600D01*
X235125400Y-124874600D01*
X235866700Y-124874600D01*
X235955600Y-124785700D01*
X235955600Y-124314976D01*
X235941934Y-124246275D01*
X235915128Y-124181560D01*
X235876212Y-124123318D01*
X235826681Y-124073787D01*
X235768439Y-124034871D01*
X235737948Y-124022241D01*
X235802828Y-123979488D01*
X235858732Y-123913896D01*
X235894148Y-123835326D01*
X235906274Y-123750000D01*
X235906274Y-123614734D01*
X235921512Y-123610133D01*
X235959614Y-123599063D01*
X235961619Y-123598024D01*
X235963784Y-123597370D01*
X235998890Y-123578704D01*
X236034086Y-123560460D01*
X236035848Y-123559053D01*
X236037848Y-123557990D01*
X236068687Y-123532839D01*
X236099641Y-123508128D01*
X236102778Y-123505035D01*
X236102852Y-123504974D01*
X236102909Y-123504905D01*
X236103914Y-123503914D01*
X236352811Y-123255017D01*
X236396624Y-123255935D01*
X236513430Y-123235339D01*
X236624010Y-123192448D01*
X236724153Y-123128895D01*
X236810046Y-123047101D01*
X236878415Y-122950181D01*
X236926657Y-122841828D01*
X236952934Y-122726168D01*
X236954826Y-122590696D01*
X236931788Y-122474348D01*
X236886590Y-122364690D01*
X236840488Y-122295300D01*
X238200000Y-122295300D01*
X238245562Y-122290833D01*
X238291111Y-122286848D01*
X238293613Y-122286121D01*
X238296204Y-122285867D01*
X238339999Y-122272645D01*
X238383939Y-122259879D01*
X238386251Y-122258681D01*
X238388744Y-122257928D01*
X238429125Y-122236457D01*
X238469760Y-122215394D01*
X238471797Y-122213768D01*
X238474095Y-122212546D01*
X238509512Y-122183660D01*
X238545306Y-122155086D01*
X238548935Y-122151507D01*
X238549005Y-122151450D01*
X238549059Y-122151385D01*
X238550230Y-122150230D01*
X238800230Y-121900230D01*
X238829279Y-121864865D01*
X238858679Y-121829828D01*
X238859934Y-121827545D01*
X238861586Y-121825534D01*
X238883203Y-121785218D01*
X238905248Y-121745119D01*
X238906035Y-121742637D01*
X238907266Y-121740342D01*
X238920632Y-121696624D01*
X238934477Y-121652979D01*
X238934768Y-121650387D01*
X238935528Y-121647900D01*
X238940142Y-121602475D01*
X238945252Y-121556915D01*
X238945287Y-121551814D01*
X238945296Y-121551729D01*
X238945289Y-121551650D01*
X238945300Y-121550000D01*
X238945300Y-120006274D01*
X239000000Y-120006274D01*
X239048538Y-120002403D01*
X239130864Y-119976909D01*
X239202828Y-119929488D01*
X239258732Y-119863896D01*
X239294148Y-119785326D01*
X239306274Y-119700000D01*
X239306274Y-118700000D01*
X239302403Y-118651462D01*
X239276909Y-118569136D01*
X239229488Y-118497172D01*
X239204800Y-118476130D01*
X239204800Y-117786136D01*
X239252828Y-117754488D01*
X239308732Y-117688896D01*
X239344148Y-117610326D01*
X239356274Y-117525000D01*
X239356274Y-117275000D01*
X239352403Y-117226462D01*
X239327723Y-117146765D01*
X239344148Y-117110326D01*
X239356274Y-117025000D01*
X239356274Y-116775000D01*
X239352403Y-116726462D01*
X239349445Y-116716911D01*
X239365129Y-116693439D01*
X239391935Y-116628724D01*
X239405600Y-116560023D01*
X239405600Y-116514300D01*
X239316700Y-116425400D01*
X238800400Y-116425400D01*
X238800400Y-116445400D01*
X238749600Y-116445400D01*
X238749600Y-116425400D01*
X238729600Y-116425400D01*
X238729600Y-116374600D01*
X238749600Y-116374600D01*
X238749600Y-115925400D01*
X238800400Y-115925400D01*
X238800400Y-116374600D01*
X238883300Y-116374600D01*
X238889300Y-116380600D01*
X239085024Y-116380600D01*
X239115187Y-116374600D01*
X239316700Y-116374600D01*
X239405600Y-116285700D01*
X239405600Y-116239977D01*
X239391935Y-116171276D01*
X239383122Y-116150000D01*
X239391935Y-116128724D01*
X239405600Y-116060023D01*
X239405600Y-116014300D01*
X239316700Y-115925400D01*
X239115187Y-115925400D01*
X239085024Y-115919400D01*
X238889300Y-115919400D01*
X238883300Y-115925400D01*
X238800400Y-115925400D01*
X238749600Y-115925400D01*
X238729600Y-115925400D01*
X238729600Y-115874600D01*
X238749600Y-115874600D01*
X238749600Y-115508300D01*
X238800400Y-115508300D01*
X238800400Y-115874600D01*
X239316700Y-115874600D01*
X239405600Y-115785700D01*
X239405600Y-115739977D01*
X239391935Y-115671276D01*
X239365129Y-115606561D01*
X239326213Y-115548319D01*
X239276682Y-115498788D01*
X239218440Y-115459872D01*
X239153725Y-115433066D01*
X239085024Y-115419400D01*
X238889300Y-115419400D01*
X238800400Y-115508300D01*
X238749600Y-115508300D01*
X238660700Y-115419400D01*
X238464976Y-115419400D01*
X238396275Y-115433066D01*
X238331560Y-115459872D01*
X238281292Y-115493460D01*
X238268440Y-115484872D01*
X238203725Y-115458066D01*
X238135024Y-115444400D01*
X237714300Y-115444400D01*
X237625400Y-115533300D01*
X237625400Y-116624600D01*
X237645400Y-116624600D01*
X237645400Y-116675400D01*
X237625400Y-116675400D01*
X237625400Y-117766700D01*
X237714300Y-117855600D01*
X238135024Y-117855600D01*
X238203725Y-117841934D01*
X238268440Y-117815128D01*
X238326682Y-117776212D01*
X238326958Y-117775936D01*
X238336104Y-117783732D01*
X238345200Y-117787832D01*
X238345200Y-118393726D01*
X237900000Y-118393726D01*
X237851462Y-118397597D01*
X237769136Y-118423091D01*
X237697172Y-118470512D01*
X237641268Y-118536104D01*
X237628627Y-118564148D01*
X237615129Y-118531561D01*
X237576213Y-118473319D01*
X237526682Y-118423788D01*
X237468440Y-118384872D01*
X237403725Y-118358066D01*
X237335024Y-118344400D01*
X236864300Y-118344400D01*
X236775400Y-118433300D01*
X236775400Y-119174600D01*
X236795400Y-119174600D01*
X236795400Y-119225400D01*
X236775400Y-119225400D01*
X236775400Y-119966700D01*
X236864300Y-120055600D01*
X237335024Y-120055600D01*
X237403725Y-120041934D01*
X237468440Y-120015128D01*
X237526682Y-119976212D01*
X237576213Y-119926681D01*
X237615129Y-119868439D01*
X237627759Y-119837948D01*
X237670512Y-119902828D01*
X237736104Y-119958732D01*
X237814674Y-119994148D01*
X237900000Y-120006274D01*
X237954700Y-120006274D01*
X237954700Y-121304700D01*
X231019736Y-121304700D01*
X231048538Y-121302403D01*
X231130864Y-121276909D01*
X231202828Y-121229488D01*
X231258732Y-121163896D01*
X231294148Y-121085326D01*
X231306274Y-121000000D01*
X231306274Y-120929800D01*
X232292997Y-120929800D01*
X232323729Y-120977488D01*
X232406121Y-121062807D01*
X232503515Y-121130497D01*
X232612202Y-121177982D01*
X232728043Y-121203451D01*
X232846624Y-121205935D01*
X232963430Y-121185339D01*
X233074010Y-121142448D01*
X233174153Y-121078895D01*
X233260046Y-120997101D01*
X233328415Y-120900181D01*
X233376657Y-120791828D01*
X233402934Y-120676168D01*
X233404826Y-120540696D01*
X233381788Y-120424348D01*
X233336590Y-120314690D01*
X233270954Y-120215899D01*
X233187379Y-120131739D01*
X233089049Y-120065415D01*
X232979709Y-120019453D01*
X232863525Y-119995603D01*
X232744920Y-119994775D01*
X232628414Y-120017000D01*
X232518443Y-120061431D01*
X232505043Y-120070200D01*
X231306274Y-120070200D01*
X231306274Y-120000000D01*
X231302403Y-119951462D01*
X231276909Y-119869136D01*
X231229488Y-119797172D01*
X231163896Y-119741268D01*
X231085326Y-119705852D01*
X231000000Y-119693726D01*
X229900000Y-119693726D01*
X229851462Y-119697597D01*
X229769136Y-119723091D01*
X229697172Y-119770512D01*
X229641268Y-119836104D01*
X229605852Y-119914674D01*
X229601184Y-119947524D01*
X229576909Y-119869136D01*
X229529488Y-119797172D01*
X229463896Y-119741268D01*
X229385326Y-119705852D01*
X229300000Y-119693726D01*
X228200000Y-119693726D01*
X228151462Y-119697597D01*
X228069136Y-119723091D01*
X227997172Y-119770512D01*
X227941268Y-119836104D01*
X227905852Y-119914674D01*
X227893726Y-120000000D01*
X227893726Y-120070200D01*
X226977238Y-120070200D01*
X226976909Y-120069136D01*
X226929488Y-119997172D01*
X226863896Y-119941268D01*
X226785326Y-119905852D01*
X226700000Y-119893726D01*
X225000000Y-119893726D01*
X224951462Y-119897597D01*
X224869136Y-119923091D01*
X224797172Y-119970512D01*
X224741268Y-120036104D01*
X224705852Y-120114674D01*
X224693726Y-120200000D01*
X220379800Y-120200000D01*
X220379800Y-118950000D01*
X224693726Y-118950000D01*
X224693726Y-119550000D01*
X224697597Y-119598538D01*
X224723091Y-119680864D01*
X224770512Y-119752828D01*
X224836104Y-119808732D01*
X224914674Y-119844148D01*
X225000000Y-119856274D01*
X226700000Y-119856274D01*
X226748538Y-119852403D01*
X226830864Y-119826909D01*
X226902828Y-119779488D01*
X226958732Y-119713896D01*
X226974101Y-119679800D01*
X233225962Y-119679800D01*
X233306121Y-119762807D01*
X233403515Y-119830497D01*
X233512202Y-119877982D01*
X233628043Y-119903451D01*
X233746624Y-119905935D01*
X233863430Y-119885339D01*
X233974010Y-119842448D01*
X234074153Y-119778895D01*
X234160046Y-119697101D01*
X234228415Y-119600181D01*
X234276657Y-119491828D01*
X234302934Y-119376168D01*
X234303798Y-119314300D01*
X235844400Y-119314300D01*
X235844400Y-119735023D01*
X235858065Y-119803724D01*
X235884871Y-119868439D01*
X235923787Y-119926681D01*
X235973318Y-119976212D01*
X236031560Y-120015128D01*
X236096275Y-120041934D01*
X236164976Y-120055600D01*
X236635700Y-120055600D01*
X236724600Y-119966700D01*
X236724600Y-119225400D01*
X235933300Y-119225400D01*
X235844400Y-119314300D01*
X234303798Y-119314300D01*
X234304826Y-119240696D01*
X234281788Y-119124348D01*
X234236590Y-119014690D01*
X234170954Y-118915899D01*
X234087379Y-118831739D01*
X233989049Y-118765415D01*
X233879709Y-118719453D01*
X233763525Y-118695603D01*
X233644920Y-118694775D01*
X233528414Y-118717000D01*
X233418443Y-118761431D01*
X233328635Y-118820200D01*
X226977238Y-118820200D01*
X226976909Y-118819136D01*
X226929488Y-118747172D01*
X226863896Y-118691268D01*
X226805570Y-118664977D01*
X235844400Y-118664977D01*
X235844400Y-119085700D01*
X235933300Y-119174600D01*
X236724600Y-119174600D01*
X236724600Y-118433300D01*
X236635700Y-118344400D01*
X236164976Y-118344400D01*
X236096275Y-118358066D01*
X236031560Y-118384872D01*
X235973318Y-118423788D01*
X235923787Y-118473319D01*
X235884871Y-118531561D01*
X235858065Y-118596276D01*
X235844400Y-118664977D01*
X226805570Y-118664977D01*
X226785326Y-118655852D01*
X226700000Y-118643726D01*
X225000000Y-118643726D01*
X224951462Y-118647597D01*
X224869136Y-118673091D01*
X224797172Y-118720512D01*
X224741268Y-118786104D01*
X224705852Y-118864674D01*
X224693726Y-118950000D01*
X220379800Y-118950000D01*
X220379800Y-117700000D01*
X224693726Y-117700000D01*
X224693726Y-118300000D01*
X224697597Y-118348538D01*
X224723091Y-118430864D01*
X224770512Y-118502828D01*
X224836104Y-118558732D01*
X224914674Y-118594148D01*
X225000000Y-118606274D01*
X226700000Y-118606274D01*
X226748538Y-118602403D01*
X226830864Y-118576909D01*
X226902828Y-118529488D01*
X226958732Y-118463896D01*
X226974101Y-118429800D01*
X229474246Y-118429800D01*
X229506121Y-118462807D01*
X229603515Y-118530497D01*
X229712202Y-118577982D01*
X229828043Y-118603451D01*
X229946624Y-118605935D01*
X230063430Y-118585339D01*
X230174010Y-118542448D01*
X230274153Y-118478895D01*
X230360046Y-118397101D01*
X230428415Y-118300181D01*
X230476657Y-118191828D01*
X230502934Y-118076168D01*
X230504826Y-117940696D01*
X230481788Y-117824348D01*
X230436590Y-117714690D01*
X230370954Y-117615899D01*
X230287379Y-117531739D01*
X230189049Y-117465415D01*
X230079709Y-117419453D01*
X229963525Y-117395603D01*
X229844920Y-117394775D01*
X229728414Y-117417000D01*
X229618443Y-117461431D01*
X229519197Y-117526376D01*
X229474445Y-117570200D01*
X226977238Y-117570200D01*
X226976909Y-117569136D01*
X226929488Y-117497172D01*
X226863896Y-117441268D01*
X226785326Y-117405852D01*
X226700000Y-117393726D01*
X225000000Y-117393726D01*
X224951462Y-117397597D01*
X224869136Y-117423091D01*
X224797172Y-117470512D01*
X224741268Y-117536104D01*
X224705852Y-117614674D01*
X224693726Y-117700000D01*
X220379800Y-117700000D01*
X220379800Y-114364300D01*
X224644400Y-114364300D01*
X224644400Y-114585024D01*
X224658066Y-114653725D01*
X224684872Y-114718440D01*
X224723788Y-114776682D01*
X224773319Y-114826213D01*
X224831561Y-114865129D01*
X224896276Y-114891935D01*
X224941012Y-114900833D01*
X224869136Y-114923091D01*
X224797172Y-114970512D01*
X224741268Y-115036104D01*
X224705852Y-115114674D01*
X224693726Y-115200000D01*
X224693726Y-115800000D01*
X224697597Y-115848538D01*
X224723091Y-115930864D01*
X224770512Y-116002828D01*
X224836104Y-116058732D01*
X224914674Y-116094148D01*
X225000000Y-116106274D01*
X226700000Y-116106274D01*
X226748538Y-116102403D01*
X226830864Y-116076909D01*
X226884040Y-116041868D01*
X227162371Y-116320200D01*
X226977238Y-116320200D01*
X226976909Y-116319136D01*
X226929488Y-116247172D01*
X226863896Y-116191268D01*
X226785326Y-116155852D01*
X226700000Y-116143726D01*
X225000000Y-116143726D01*
X224951462Y-116147597D01*
X224869136Y-116173091D01*
X224797172Y-116220512D01*
X224741268Y-116286104D01*
X224705852Y-116364674D01*
X224693726Y-116450000D01*
X224693726Y-117050000D01*
X224697597Y-117098538D01*
X224723091Y-117180864D01*
X224770512Y-117252828D01*
X224836104Y-117308732D01*
X224914674Y-117344148D01*
X225000000Y-117356274D01*
X226700000Y-117356274D01*
X226748538Y-117352403D01*
X226830864Y-117326909D01*
X226902828Y-117279488D01*
X226958732Y-117213896D01*
X226974101Y-117179800D01*
X231070743Y-117179800D01*
X231074076Y-117213800D01*
X231077534Y-117253326D01*
X231078164Y-117255496D01*
X231078385Y-117257746D01*
X231089867Y-117295776D01*
X231100937Y-117333878D01*
X231101976Y-117335883D01*
X231102630Y-117338048D01*
X231121296Y-117373154D01*
X231139540Y-117408350D01*
X231140947Y-117410112D01*
X231142010Y-117412112D01*
X231167161Y-117442951D01*
X231191872Y-117473905D01*
X231194965Y-117477042D01*
X231195026Y-117477116D01*
X231195095Y-117477173D01*
X231196086Y-117478178D01*
X231441032Y-117723125D01*
X231471745Y-117748353D01*
X231502123Y-117773844D01*
X231504101Y-117774932D01*
X231505850Y-117776368D01*
X231540891Y-117795156D01*
X231575630Y-117814254D01*
X231577781Y-117814936D01*
X231579776Y-117816006D01*
X231617786Y-117827627D01*
X231655586Y-117839618D01*
X231657830Y-117839870D01*
X231659993Y-117840531D01*
X231699539Y-117844548D01*
X231738945Y-117848968D01*
X231743356Y-117848999D01*
X231743446Y-117849008D01*
X231743530Y-117849000D01*
X231744946Y-117849010D01*
X231965862Y-117849010D01*
X231965862Y-118019210D01*
X231969733Y-118067748D01*
X231995227Y-118150074D01*
X232042648Y-118222038D01*
X232108240Y-118277942D01*
X232186810Y-118313358D01*
X232272136Y-118325484D01*
X232622136Y-118325484D01*
X232670674Y-118321613D01*
X232753000Y-118296119D01*
X232771508Y-118283923D01*
X232836810Y-118313358D01*
X232922136Y-118325484D01*
X233272136Y-118325484D01*
X233320674Y-118321613D01*
X233364390Y-118308075D01*
X233403697Y-118334339D01*
X233468412Y-118361145D01*
X233537113Y-118374810D01*
X233632836Y-118374810D01*
X233721736Y-118285910D01*
X233721736Y-117444610D01*
X233772536Y-117444610D01*
X233772536Y-118285910D01*
X233861436Y-118374810D01*
X233957159Y-118374810D01*
X234025860Y-118361145D01*
X234090575Y-118334339D01*
X234148817Y-118295423D01*
X234198348Y-118245892D01*
X234237264Y-118187650D01*
X234264070Y-118122935D01*
X234277736Y-118054234D01*
X234277736Y-117533510D01*
X234188836Y-117444610D01*
X233772536Y-117444610D01*
X233721736Y-117444610D01*
X233701736Y-117444610D01*
X233701736Y-117393810D01*
X233721736Y-117393810D01*
X233721736Y-117373810D01*
X233772536Y-117373810D01*
X233772536Y-117393810D01*
X234188836Y-117393810D01*
X234277736Y-117304910D01*
X234277736Y-116784186D01*
X234264070Y-116715485D01*
X234237264Y-116650770D01*
X234212291Y-116613395D01*
X234216284Y-116604536D01*
X234228410Y-116519210D01*
X234228410Y-115950853D01*
X234594405Y-115950853D01*
X234615816Y-116067512D01*
X234659479Y-116177790D01*
X234723729Y-116277488D01*
X234806121Y-116362807D01*
X234903515Y-116430497D01*
X235012202Y-116477982D01*
X235128043Y-116503451D01*
X235246624Y-116505935D01*
X235363430Y-116485339D01*
X235474010Y-116442448D01*
X235574153Y-116378895D01*
X235625708Y-116329800D01*
X235838500Y-116329800D01*
X235883300Y-116374600D01*
X236399600Y-116374600D01*
X236399600Y-116354600D01*
X236450400Y-116354600D01*
X236450400Y-116374600D01*
X236470400Y-116374600D01*
X236470400Y-116425400D01*
X236450400Y-116425400D01*
X236450400Y-116445400D01*
X236399600Y-116445400D01*
X236399600Y-116425400D01*
X235883300Y-116425400D01*
X235794400Y-116514300D01*
X235794400Y-116560023D01*
X235808065Y-116628724D01*
X235834871Y-116693439D01*
X235851731Y-116718672D01*
X235843726Y-116775000D01*
X235843726Y-116970200D01*
X235625573Y-116970200D01*
X235587379Y-116931739D01*
X235489049Y-116865415D01*
X235379709Y-116819453D01*
X235263525Y-116795603D01*
X235144920Y-116794775D01*
X235028414Y-116817000D01*
X234918443Y-116861431D01*
X234819197Y-116926376D01*
X234734455Y-117009361D01*
X234667446Y-117107226D01*
X234620721Y-117216242D01*
X234596061Y-117332257D01*
X234594405Y-117450853D01*
X234615816Y-117567512D01*
X234659479Y-117677790D01*
X234723729Y-117777488D01*
X234806121Y-117862807D01*
X234903515Y-117930497D01*
X235012202Y-117977982D01*
X235128043Y-118003451D01*
X235246624Y-118005935D01*
X235363430Y-117985339D01*
X235474010Y-117942448D01*
X235574153Y-117878895D01*
X235625708Y-117829800D01*
X236139628Y-117829800D01*
X236150000Y-117831274D01*
X236700000Y-117831274D01*
X236748538Y-117827403D01*
X236830864Y-117801909D01*
X236871945Y-117774839D01*
X236873318Y-117776212D01*
X236931560Y-117815128D01*
X236996275Y-117841934D01*
X237064976Y-117855600D01*
X237485700Y-117855600D01*
X237574600Y-117766700D01*
X237574600Y-116675400D01*
X237554600Y-116675400D01*
X237554600Y-116624600D01*
X237574600Y-116624600D01*
X237574600Y-115533300D01*
X237485700Y-115444400D01*
X237064976Y-115444400D01*
X236996275Y-115458066D01*
X236931560Y-115484872D01*
X236873318Y-115523788D01*
X236873042Y-115524064D01*
X236863896Y-115516268D01*
X236785326Y-115480852D01*
X236700000Y-115468726D01*
X236150000Y-115468726D01*
X236131518Y-115470200D01*
X235625573Y-115470200D01*
X235587379Y-115431739D01*
X235489049Y-115365415D01*
X235379709Y-115319453D01*
X235263525Y-115295603D01*
X235144920Y-115294775D01*
X235028414Y-115317000D01*
X234918443Y-115361431D01*
X234819197Y-115426376D01*
X234734455Y-115509361D01*
X234667446Y-115607226D01*
X234620721Y-115716242D01*
X234596061Y-115832257D01*
X234594405Y-115950853D01*
X234228410Y-115950853D01*
X234228410Y-115319210D01*
X234224539Y-115270672D01*
X234199045Y-115188346D01*
X234151624Y-115116382D01*
X234086032Y-115060478D01*
X234007462Y-115025062D01*
X233922136Y-115012936D01*
X233572136Y-115012936D01*
X233526936Y-115016541D01*
X233526936Y-114596284D01*
X233647136Y-114596284D01*
X233695674Y-114592413D01*
X233778000Y-114566919D01*
X233849964Y-114519498D01*
X233905868Y-114453906D01*
X233918509Y-114425862D01*
X233932007Y-114458449D01*
X233970923Y-114516691D01*
X234020454Y-114566222D01*
X234078696Y-114605138D01*
X234143411Y-114631944D01*
X234212112Y-114645610D01*
X234682836Y-114645610D01*
X234771736Y-114556710D01*
X234771736Y-113815410D01*
X234822536Y-113815410D01*
X234822536Y-114556710D01*
X234911436Y-114645610D01*
X235382160Y-114645610D01*
X235450861Y-114631944D01*
X235515576Y-114605138D01*
X235573818Y-114566222D01*
X235623349Y-114516691D01*
X235662265Y-114458449D01*
X235689071Y-114393734D01*
X235702736Y-114325033D01*
X235702736Y-114239525D01*
X237094480Y-114239525D01*
X237124628Y-114403789D01*
X237186108Y-114559068D01*
X237276577Y-114699449D01*
X237392590Y-114819584D01*
X237529728Y-114914898D01*
X237682768Y-114981759D01*
X237845879Y-115017621D01*
X238012850Y-115021119D01*
X238177320Y-114992118D01*
X238333025Y-114931724D01*
X238474034Y-114842237D01*
X238594977Y-114727066D01*
X238691245Y-114590596D01*
X238759173Y-114438028D01*
X238796173Y-114275170D01*
X238798837Y-114084416D01*
X238766398Y-113920589D01*
X238702757Y-113766183D01*
X238610336Y-113627079D01*
X238492657Y-113508576D01*
X238354202Y-113415186D01*
X238200244Y-113350468D01*
X238036647Y-113316887D01*
X237869644Y-113315721D01*
X237705594Y-113347015D01*
X237550748Y-113409577D01*
X237411002Y-113501024D01*
X237291680Y-113617873D01*
X237197326Y-113755673D01*
X237131535Y-113909176D01*
X237096812Y-114072534D01*
X237094480Y-114239525D01*
X235702736Y-114239525D01*
X235702736Y-113904310D01*
X235613836Y-113815410D01*
X234822536Y-113815410D01*
X234771736Y-113815410D01*
X234751736Y-113815410D01*
X234751736Y-113764610D01*
X234771736Y-113764610D01*
X234771736Y-113023310D01*
X234822536Y-113023310D01*
X234822536Y-113764610D01*
X235613836Y-113764610D01*
X235702736Y-113675710D01*
X235702736Y-113254987D01*
X235689071Y-113186286D01*
X235662265Y-113121571D01*
X235623349Y-113063329D01*
X235573818Y-113013798D01*
X235515576Y-112974882D01*
X235450861Y-112948076D01*
X235382160Y-112934410D01*
X234911436Y-112934410D01*
X234822536Y-113023310D01*
X234771736Y-113023310D01*
X234682836Y-112934410D01*
X234212112Y-112934410D01*
X234143411Y-112948076D01*
X234078696Y-112974882D01*
X234020454Y-113013798D01*
X233970923Y-113063329D01*
X233932007Y-113121571D01*
X233919377Y-113152062D01*
X233876624Y-113087182D01*
X233811032Y-113031278D01*
X233732462Y-112995862D01*
X233647136Y-112983736D01*
X233526936Y-112983736D01*
X233526936Y-111928296D01*
X233529758Y-111903137D01*
X233529789Y-111898727D01*
X233529798Y-111898637D01*
X233529790Y-111898553D01*
X233529800Y-111897136D01*
X233529800Y-111560744D01*
X233586104Y-111608732D01*
X233664674Y-111644148D01*
X233750000Y-111656274D01*
X234850000Y-111656274D01*
X234898538Y-111652403D01*
X234980864Y-111626909D01*
X235052828Y-111579488D01*
X235108732Y-111513896D01*
X235144148Y-111435326D01*
X235156274Y-111350000D01*
X235156274Y-110850000D01*
X235152403Y-110801462D01*
X235126909Y-110719136D01*
X235079488Y-110647172D01*
X235013896Y-110591268D01*
X234935326Y-110555852D01*
X234850000Y-110543726D01*
X233750000Y-110543726D01*
X233701462Y-110547597D01*
X233619136Y-110573091D01*
X233547172Y-110620512D01*
X233529800Y-110640895D01*
X233529800Y-110310744D01*
X233586104Y-110358732D01*
X233664674Y-110394148D01*
X233750000Y-110406274D01*
X234850000Y-110406274D01*
X234898538Y-110402403D01*
X234980864Y-110376909D01*
X235052828Y-110329488D01*
X235108732Y-110263896D01*
X235144148Y-110185326D01*
X235156274Y-110100000D01*
X235156274Y-109600000D01*
X235152403Y-109551462D01*
X235126909Y-109469136D01*
X235079488Y-109397172D01*
X235013896Y-109341268D01*
X234935326Y-109305852D01*
X234850000Y-109293726D01*
X233750000Y-109293726D01*
X233701462Y-109297597D01*
X233619136Y-109323091D01*
X233547172Y-109370512D01*
X233529800Y-109390895D01*
X233529800Y-109060744D01*
X233586104Y-109108732D01*
X233664674Y-109144148D01*
X233750000Y-109156274D01*
X234850000Y-109156274D01*
X234898538Y-109152403D01*
X234980864Y-109126909D01*
X235052828Y-109079488D01*
X235085364Y-109041313D01*
X235106121Y-109062807D01*
X235203515Y-109130497D01*
X235312202Y-109177982D01*
X235428043Y-109203451D01*
X235546624Y-109205935D01*
X235663430Y-109185339D01*
X235774010Y-109142448D01*
X235874153Y-109078895D01*
X235960046Y-108997101D01*
X236028415Y-108900181D01*
X236076657Y-108791828D01*
X236102934Y-108676168D01*
X236104826Y-108540696D01*
X236081788Y-108424348D01*
X236036590Y-108314690D01*
X235970954Y-108215899D01*
X235887379Y-108131739D01*
X235789049Y-108065415D01*
X235679709Y-108019453D01*
X235563525Y-107995603D01*
X235444920Y-107994775D01*
X235328414Y-108017000D01*
X235218443Y-108061431D01*
X235119197Y-108126376D01*
X235086733Y-108158167D01*
X235079488Y-108147172D01*
X235013896Y-108091268D01*
X234935326Y-108055852D01*
X234850000Y-108043726D01*
X233750000Y-108043726D01*
X233701462Y-108047597D01*
X233619136Y-108073091D01*
X233547172Y-108120512D01*
X233529800Y-108140895D01*
X233529800Y-107810744D01*
X233586104Y-107858732D01*
X233664674Y-107894148D01*
X233750000Y-107906274D01*
X234850000Y-107906274D01*
X234898538Y-107902403D01*
X234980864Y-107876909D01*
X235052828Y-107829488D01*
X235095177Y-107779800D01*
X235525962Y-107779800D01*
X235606121Y-107862807D01*
X235703515Y-107930497D01*
X235812202Y-107977982D01*
X235928043Y-108003451D01*
X236046624Y-108005935D01*
X236163430Y-107985339D01*
X236274010Y-107942448D01*
X236374153Y-107878895D01*
X236460046Y-107797101D01*
X236528415Y-107700181D01*
X236576657Y-107591828D01*
X236602934Y-107476168D01*
X236604826Y-107340696D01*
X236581788Y-107224348D01*
X236536590Y-107114690D01*
X236470954Y-107015899D01*
X236387379Y-106931739D01*
X236289049Y-106865415D01*
X236179709Y-106819453D01*
X236063525Y-106795603D01*
X235944920Y-106794775D01*
X235828414Y-106817000D01*
X235718443Y-106861431D01*
X235628635Y-106920200D01*
X235094662Y-106920200D01*
X235079488Y-106897172D01*
X235013896Y-106841268D01*
X234935326Y-106805852D01*
X234850000Y-106793726D01*
X233750000Y-106793726D01*
X233701462Y-106797597D01*
X233619136Y-106823091D01*
X233547172Y-106870512D01*
X233491268Y-106936104D01*
X233455852Y-107014674D01*
X233443726Y-107100000D01*
X233443726Y-107544663D01*
X233432858Y-107531338D01*
X233408128Y-107500358D01*
X233405030Y-107497216D01*
X233404974Y-107497148D01*
X233404911Y-107497096D01*
X233403914Y-107496085D01*
X232953914Y-107046086D01*
X232923231Y-107020882D01*
X232892823Y-106995366D01*
X232890845Y-106994278D01*
X232889096Y-106992842D01*
X232854055Y-106974054D01*
X232819316Y-106954956D01*
X232817165Y-106954274D01*
X232815170Y-106953204D01*
X232777160Y-106941583D01*
X232739360Y-106929592D01*
X232737116Y-106929340D01*
X232734953Y-106928679D01*
X232695407Y-106924662D01*
X232656001Y-106920242D01*
X232651590Y-106920211D01*
X232651500Y-106920202D01*
X232651416Y-106920210D01*
X232650000Y-106920200D01*
X232594662Y-106920200D01*
X232579488Y-106897172D01*
X232513896Y-106841268D01*
X232435326Y-106805852D01*
X232350000Y-106793726D01*
X232229800Y-106793726D01*
X232229800Y-105806274D01*
X232300000Y-105806274D01*
X232348538Y-105802403D01*
X232430864Y-105776909D01*
X232502828Y-105729488D01*
X232558732Y-105663896D01*
X232571373Y-105635852D01*
X232584871Y-105668439D01*
X232623787Y-105726681D01*
X232673318Y-105776212D01*
X232731560Y-105815128D01*
X232796275Y-105841934D01*
X232864976Y-105855600D01*
X233335700Y-105855600D01*
X233424600Y-105766700D01*
X233424600Y-105025400D01*
X233475400Y-105025400D01*
X233475400Y-105766700D01*
X233564300Y-105855600D01*
X234035024Y-105855600D01*
X234103725Y-105841934D01*
X234168440Y-105815128D01*
X234226682Y-105776212D01*
X234276213Y-105726681D01*
X234315129Y-105668439D01*
X234341935Y-105603724D01*
X234355600Y-105535023D01*
X234355600Y-105114300D01*
X234266700Y-105025400D01*
X233475400Y-105025400D01*
X233424600Y-105025400D01*
X233404600Y-105025400D01*
X233404600Y-104974600D01*
X233424600Y-104974600D01*
X233424600Y-104233300D01*
X233475400Y-104233300D01*
X233475400Y-104974600D01*
X234266700Y-104974600D01*
X234355600Y-104885700D01*
X234355600Y-104464977D01*
X234341935Y-104396276D01*
X234315129Y-104331561D01*
X234276213Y-104273319D01*
X234226682Y-104223788D01*
X234168440Y-104184872D01*
X234103725Y-104158066D01*
X234035024Y-104144400D01*
X233564300Y-104144400D01*
X233475400Y-104233300D01*
X233424600Y-104233300D01*
X233335700Y-104144400D01*
X232864976Y-104144400D01*
X232796275Y-104158066D01*
X232731560Y-104184872D01*
X232673318Y-104223788D01*
X232623787Y-104273319D01*
X232584871Y-104331561D01*
X232572241Y-104362052D01*
X232529488Y-104297172D01*
X232463896Y-104241268D01*
X232385326Y-104205852D01*
X232300000Y-104193726D01*
X231200000Y-104193726D01*
X231151462Y-104197597D01*
X231069136Y-104223091D01*
X230997172Y-104270512D01*
X230941268Y-104336104D01*
X230905852Y-104414674D01*
X230893726Y-104500000D01*
X230893726Y-105500000D01*
X230897597Y-105548538D01*
X230923091Y-105630864D01*
X230970512Y-105702828D01*
X231036104Y-105758732D01*
X231114674Y-105794148D01*
X231200000Y-105806274D01*
X231370200Y-105806274D01*
X231370200Y-106793726D01*
X231250000Y-106793726D01*
X231201462Y-106797597D01*
X231119136Y-106823091D01*
X231047172Y-106870512D01*
X230991268Y-106936104D01*
X230955852Y-107014674D01*
X230943726Y-107100000D01*
X230943726Y-107600000D01*
X230947597Y-107648538D01*
X230973091Y-107730864D01*
X231020512Y-107802828D01*
X231086104Y-107858732D01*
X231164674Y-107894148D01*
X231250000Y-107906274D01*
X232350000Y-107906274D01*
X232398538Y-107902403D01*
X232480864Y-107876909D01*
X232534040Y-107841868D01*
X232670200Y-107978029D01*
X232670200Y-109443805D01*
X232665128Y-109431560D01*
X232626212Y-109373318D01*
X232576681Y-109323787D01*
X232518439Y-109284871D01*
X232453724Y-109258065D01*
X232385023Y-109244400D01*
X231914300Y-109244400D01*
X231825400Y-109333300D01*
X231825400Y-109824600D01*
X231845400Y-109824600D01*
X231845400Y-109875400D01*
X231825400Y-109875400D01*
X231825400Y-110366700D01*
X231914300Y-110455600D01*
X232385023Y-110455600D01*
X232453724Y-110441935D01*
X232518439Y-110415129D01*
X232576681Y-110376213D01*
X232626212Y-110326682D01*
X232665128Y-110268440D01*
X232670200Y-110256195D01*
X232670200Y-110670200D01*
X232594662Y-110670200D01*
X232579488Y-110647172D01*
X232513896Y-110591268D01*
X232435326Y-110555852D01*
X232350000Y-110543726D01*
X231250000Y-110543726D01*
X231201462Y-110547597D01*
X231119136Y-110573091D01*
X231047172Y-110620512D01*
X230998005Y-110678200D01*
X229913474Y-110678200D01*
X229913474Y-110558000D01*
X229909603Y-110509462D01*
X229884109Y-110427136D01*
X229836688Y-110355172D01*
X229771096Y-110299268D01*
X229743052Y-110286627D01*
X229775639Y-110273129D01*
X229833881Y-110234213D01*
X229883412Y-110184682D01*
X229922328Y-110126440D01*
X229949134Y-110061725D01*
X229962800Y-109993024D01*
X229962800Y-109964300D01*
X230894400Y-109964300D01*
X230894400Y-110135024D01*
X230908066Y-110203725D01*
X230934872Y-110268440D01*
X230973788Y-110326682D01*
X231023319Y-110376213D01*
X231081561Y-110415129D01*
X231146276Y-110441935D01*
X231214977Y-110455600D01*
X231685700Y-110455600D01*
X231774600Y-110366700D01*
X231774600Y-109875400D01*
X230983300Y-109875400D01*
X230894400Y-109964300D01*
X229962800Y-109964300D01*
X229962800Y-109564976D01*
X230894400Y-109564976D01*
X230894400Y-109735700D01*
X230983300Y-109824600D01*
X231774600Y-109824600D01*
X231774600Y-109333300D01*
X231685700Y-109244400D01*
X231214977Y-109244400D01*
X231146276Y-109258065D01*
X231081561Y-109284871D01*
X231023319Y-109323787D01*
X230973788Y-109373318D01*
X230934872Y-109431560D01*
X230908066Y-109496275D01*
X230894400Y-109564976D01*
X229962800Y-109564976D01*
X229962800Y-109522300D01*
X229873900Y-109433400D01*
X229132600Y-109433400D01*
X229132600Y-109453400D01*
X229081800Y-109453400D01*
X229081800Y-109433400D01*
X228340500Y-109433400D01*
X228251600Y-109522300D01*
X228251600Y-109993024D01*
X228265266Y-110061725D01*
X228292072Y-110126440D01*
X228330988Y-110184682D01*
X228380519Y-110234213D01*
X228438761Y-110273129D01*
X228469252Y-110285759D01*
X228404372Y-110328512D01*
X228348468Y-110394104D01*
X228313052Y-110472674D01*
X228300926Y-110558000D01*
X228300926Y-111658000D01*
X228304797Y-111706538D01*
X228330291Y-111788864D01*
X228377712Y-111860828D01*
X228443304Y-111916732D01*
X228521874Y-111952148D01*
X228607200Y-111964274D01*
X229607200Y-111964274D01*
X229655738Y-111960403D01*
X229738064Y-111934909D01*
X229810028Y-111887488D01*
X229865932Y-111821896D01*
X229901348Y-111743326D01*
X229913474Y-111658000D01*
X229913474Y-111537800D01*
X231010609Y-111537800D01*
X231020512Y-111552828D01*
X231086104Y-111608732D01*
X231164674Y-111644148D01*
X231250000Y-111656274D01*
X232350000Y-111656274D01*
X232398538Y-111652403D01*
X232480864Y-111626909D01*
X232552828Y-111579488D01*
X232595177Y-111529800D01*
X232670200Y-111529800D01*
X232670200Y-111565976D01*
X232667378Y-111591135D01*
X232667336Y-111597136D01*
X232667336Y-112983736D01*
X232547136Y-112983736D01*
X232498598Y-112987607D01*
X232416272Y-113013101D01*
X232344308Y-113060522D01*
X232288404Y-113126114D01*
X232252988Y-113204684D01*
X232240862Y-113290010D01*
X232240862Y-113370200D01*
X231025573Y-113370200D01*
X230987379Y-113331739D01*
X230889049Y-113265415D01*
X230779709Y-113219453D01*
X230663525Y-113195603D01*
X230544920Y-113194775D01*
X230428414Y-113217000D01*
X230318443Y-113261431D01*
X230219197Y-113326376D01*
X230134455Y-113409361D01*
X230067446Y-113507226D01*
X230020721Y-113616242D01*
X229996061Y-113732257D01*
X229994405Y-113850853D01*
X230015816Y-113967512D01*
X230059479Y-114077790D01*
X230123729Y-114177488D01*
X230206121Y-114262807D01*
X230303515Y-114330497D01*
X230412202Y-114377982D01*
X230528043Y-114403451D01*
X230646624Y-114405935D01*
X230763430Y-114385339D01*
X230874010Y-114342448D01*
X230974153Y-114278895D01*
X231025708Y-114229800D01*
X232240862Y-114229800D01*
X232240862Y-114290010D01*
X232244733Y-114338548D01*
X232270227Y-114420874D01*
X232317648Y-114492838D01*
X232383240Y-114548742D01*
X232461810Y-114584158D01*
X232547136Y-114596284D01*
X232667336Y-114596284D01*
X232667336Y-115019360D01*
X232622136Y-115012936D01*
X232272136Y-115012936D01*
X232223598Y-115016807D01*
X232141272Y-115042301D01*
X232069308Y-115089722D01*
X232013404Y-115155314D01*
X231977988Y-115233884D01*
X231965862Y-115319210D01*
X231965862Y-115489410D01*
X231944649Y-115489410D01*
X231887379Y-115431739D01*
X231789049Y-115365415D01*
X231679709Y-115319453D01*
X231563525Y-115295603D01*
X231444920Y-115294775D01*
X231328414Y-115317000D01*
X231218443Y-115361431D01*
X231119197Y-115426376D01*
X231071602Y-115472984D01*
X231060464Y-115474076D01*
X231020938Y-115477534D01*
X231018768Y-115478164D01*
X231016518Y-115478385D01*
X230978488Y-115489867D01*
X230940386Y-115500937D01*
X230938381Y-115501976D01*
X230936216Y-115502630D01*
X230901110Y-115521296D01*
X230865914Y-115539540D01*
X230864152Y-115540947D01*
X230862152Y-115542010D01*
X230831313Y-115567161D01*
X230800359Y-115591872D01*
X230797218Y-115594969D01*
X230797148Y-115595026D01*
X230797094Y-115595091D01*
X230796085Y-115596086D01*
X230621972Y-115770200D01*
X227828029Y-115770200D01*
X227253914Y-115196086D01*
X227223231Y-115170882D01*
X227192823Y-115145366D01*
X227190845Y-115144278D01*
X227189096Y-115142842D01*
X227154055Y-115124054D01*
X227119316Y-115104956D01*
X227117165Y-115104274D01*
X227115170Y-115103204D01*
X227077160Y-115091583D01*
X227039360Y-115079592D01*
X227037116Y-115079340D01*
X227034953Y-115078679D01*
X226995407Y-115074662D01*
X226978016Y-115072711D01*
X226976909Y-115069136D01*
X226929488Y-114997172D01*
X226863896Y-114941268D01*
X226785326Y-114905852D01*
X226755247Y-114901577D01*
X226803724Y-114891935D01*
X226868439Y-114865129D01*
X226926681Y-114826213D01*
X226976212Y-114776682D01*
X227015128Y-114718440D01*
X227041934Y-114653725D01*
X227055600Y-114585024D01*
X227055600Y-114364300D01*
X226966700Y-114275400D01*
X225875400Y-114275400D01*
X225875400Y-114295400D01*
X225824600Y-114295400D01*
X225824600Y-114275400D01*
X224733300Y-114275400D01*
X224644400Y-114364300D01*
X220379800Y-114364300D01*
X220379800Y-113914976D01*
X224644400Y-113914976D01*
X224644400Y-114135700D01*
X224733300Y-114224600D01*
X225824600Y-114224600D01*
X225824600Y-113683300D01*
X225875400Y-113683300D01*
X225875400Y-114224600D01*
X226966700Y-114224600D01*
X227055600Y-114135700D01*
X227055600Y-113914976D01*
X227041934Y-113846275D01*
X227015128Y-113781560D01*
X226976212Y-113723318D01*
X226926681Y-113673787D01*
X226868439Y-113634871D01*
X226803724Y-113608065D01*
X226735023Y-113594400D01*
X225964300Y-113594400D01*
X225875400Y-113683300D01*
X225824600Y-113683300D01*
X225735700Y-113594400D01*
X224964977Y-113594400D01*
X224896276Y-113608065D01*
X224831561Y-113634871D01*
X224773319Y-113673787D01*
X224723788Y-113723318D01*
X224684872Y-113781560D01*
X224658066Y-113846275D01*
X224644400Y-113914976D01*
X220379800Y-113914976D01*
X220379800Y-111900000D01*
X220993726Y-111900000D01*
X220993726Y-112900000D01*
X220997597Y-112948538D01*
X221023091Y-113030864D01*
X221070512Y-113102828D01*
X221136104Y-113158732D01*
X221214674Y-113194148D01*
X221300000Y-113206274D01*
X224000000Y-113206274D01*
X224048538Y-113202403D01*
X224130864Y-113176909D01*
X224202828Y-113129488D01*
X224258732Y-113063896D01*
X224294148Y-112985326D01*
X224306274Y-112900000D01*
X224306274Y-111900000D01*
X224302403Y-111851462D01*
X224276909Y-111769136D01*
X224229488Y-111697172D01*
X224163896Y-111641268D01*
X224085326Y-111605852D01*
X224000000Y-111593726D01*
X221300000Y-111593726D01*
X221251462Y-111597597D01*
X221169136Y-111623091D01*
X221097172Y-111670512D01*
X221041268Y-111736104D01*
X221005852Y-111814674D01*
X220993726Y-111900000D01*
X220379800Y-111900000D01*
X220379800Y-109926605D01*
X221143280Y-109926605D01*
X221173428Y-110090869D01*
X221234908Y-110246148D01*
X221325377Y-110386529D01*
X221441390Y-110506664D01*
X221578528Y-110601978D01*
X221731568Y-110668839D01*
X221894679Y-110704701D01*
X222061650Y-110708199D01*
X222226120Y-110679198D01*
X222381825Y-110618804D01*
X222522834Y-110529317D01*
X222643777Y-110414146D01*
X222740045Y-110277676D01*
X222807973Y-110125108D01*
X222844973Y-109962250D01*
X222847637Y-109771496D01*
X222815198Y-109607669D01*
X222751557Y-109453263D01*
X222659136Y-109314159D01*
X222541457Y-109195656D01*
X222403002Y-109102266D01*
X222249044Y-109037548D01*
X222085447Y-109003967D01*
X221918444Y-109002801D01*
X221754394Y-109034095D01*
X221599548Y-109096657D01*
X221459802Y-109188104D01*
X221340480Y-109304953D01*
X221246126Y-109442753D01*
X221180335Y-109596256D01*
X221145612Y-109759614D01*
X221143280Y-109926605D01*
X220379800Y-109926605D01*
X220379800Y-108822976D01*
X228251600Y-108822976D01*
X228251600Y-109293700D01*
X228340500Y-109382600D01*
X229081800Y-109382600D01*
X229081800Y-108591300D01*
X229132600Y-108591300D01*
X229132600Y-109382600D01*
X229873900Y-109382600D01*
X229962800Y-109293700D01*
X229962800Y-108822976D01*
X229949134Y-108754275D01*
X229922328Y-108689560D01*
X229883412Y-108631318D01*
X229833881Y-108581787D01*
X229775639Y-108542871D01*
X229710924Y-108516065D01*
X229642223Y-108502400D01*
X229221500Y-108502400D01*
X229132600Y-108591300D01*
X229081800Y-108591300D01*
X228992900Y-108502400D01*
X228572177Y-108502400D01*
X228503476Y-108516065D01*
X228438761Y-108542871D01*
X228380519Y-108581787D01*
X228330988Y-108631318D01*
X228292072Y-108689560D01*
X228265266Y-108754275D01*
X228251600Y-108822976D01*
X220379800Y-108822976D01*
X220379800Y-106017100D01*
X228251600Y-106017100D01*
X228251600Y-106487824D01*
X228265266Y-106556525D01*
X228292072Y-106621240D01*
X228330988Y-106679482D01*
X228380519Y-106729013D01*
X228438761Y-106767929D01*
X228469252Y-106780559D01*
X228404372Y-106823312D01*
X228348468Y-106888904D01*
X228313052Y-106967474D01*
X228300926Y-107052800D01*
X228300926Y-108152800D01*
X228304797Y-108201338D01*
X228330291Y-108283664D01*
X228377712Y-108355628D01*
X228443304Y-108411532D01*
X228521874Y-108446948D01*
X228607200Y-108459074D01*
X229607200Y-108459074D01*
X229655738Y-108455203D01*
X229738064Y-108429709D01*
X229810028Y-108382288D01*
X229865932Y-108316696D01*
X229896175Y-108249603D01*
X230550486Y-108903915D01*
X230581199Y-108929143D01*
X230611577Y-108954634D01*
X230613555Y-108955722D01*
X230615304Y-108957158D01*
X230650345Y-108975946D01*
X230685084Y-108995044D01*
X230687235Y-108995726D01*
X230689230Y-108996796D01*
X230727240Y-109008417D01*
X230765040Y-109020408D01*
X230767284Y-109020660D01*
X230769447Y-109021321D01*
X230808993Y-109025338D01*
X230848399Y-109029758D01*
X230852810Y-109029789D01*
X230852900Y-109029798D01*
X230852984Y-109029790D01*
X230854400Y-109029800D01*
X231005338Y-109029800D01*
X231020512Y-109052828D01*
X231086104Y-109108732D01*
X231164674Y-109144148D01*
X231250000Y-109156274D01*
X232350000Y-109156274D01*
X232398538Y-109152403D01*
X232480864Y-109126909D01*
X232552828Y-109079488D01*
X232608732Y-109013896D01*
X232644148Y-108935326D01*
X232656274Y-108850000D01*
X232656274Y-108350000D01*
X232652403Y-108301462D01*
X232626909Y-108219136D01*
X232579488Y-108147172D01*
X232513896Y-108091268D01*
X232435326Y-108055852D01*
X232350000Y-108043726D01*
X231250000Y-108043726D01*
X231201462Y-108047597D01*
X231119136Y-108073091D01*
X231047172Y-108120512D01*
X231017525Y-108155296D01*
X230161114Y-107298886D01*
X230130431Y-107273682D01*
X230100023Y-107248166D01*
X230098045Y-107247078D01*
X230096296Y-107245642D01*
X230061255Y-107226854D01*
X230026516Y-107207756D01*
X230024365Y-107207074D01*
X230022370Y-107206004D01*
X229984360Y-107194383D01*
X229946560Y-107182392D01*
X229944316Y-107182140D01*
X229942153Y-107181479D01*
X229913474Y-107178566D01*
X229913474Y-107052800D01*
X229909603Y-107004262D01*
X229884109Y-106921936D01*
X229836688Y-106849972D01*
X229771096Y-106794068D01*
X229743052Y-106781427D01*
X229775639Y-106767929D01*
X229833881Y-106729013D01*
X229883412Y-106679482D01*
X229922328Y-106621240D01*
X229949134Y-106556525D01*
X229962800Y-106487824D01*
X229962800Y-106017100D01*
X229873900Y-105928200D01*
X229132600Y-105928200D01*
X229132600Y-105948200D01*
X229081800Y-105948200D01*
X229081800Y-105928200D01*
X228340500Y-105928200D01*
X228251600Y-106017100D01*
X220379800Y-106017100D01*
X220379800Y-105317776D01*
X228251600Y-105317776D01*
X228251600Y-105788500D01*
X228340500Y-105877400D01*
X229081800Y-105877400D01*
X229081800Y-105086100D01*
X229132600Y-105086100D01*
X229132600Y-105877400D01*
X229873900Y-105877400D01*
X229962800Y-105788500D01*
X229962800Y-105317776D01*
X229949134Y-105249075D01*
X229922328Y-105184360D01*
X229883412Y-105126118D01*
X229833881Y-105076587D01*
X229775639Y-105037671D01*
X229710924Y-105010865D01*
X229642223Y-104997200D01*
X229221500Y-104997200D01*
X229132600Y-105086100D01*
X229081800Y-105086100D01*
X228992900Y-104997200D01*
X228572177Y-104997200D01*
X228503476Y-105010865D01*
X228438761Y-105037671D01*
X228380519Y-105076587D01*
X228330988Y-105126118D01*
X228292072Y-105184360D01*
X228265266Y-105249075D01*
X228251600Y-105317776D01*
X220379800Y-105317776D01*
X220379800Y-103160161D01*
X221092696Y-103160161D01*
X221160129Y-103527575D01*
X221297642Y-103874893D01*
X221499997Y-104188887D01*
X221759487Y-104457597D01*
X222066228Y-104670788D01*
X222408536Y-104820338D01*
X222773373Y-104900553D01*
X223146842Y-104908376D01*
X223514717Y-104843510D01*
X223862987Y-104708424D01*
X224178387Y-104508266D01*
X224448901Y-104250658D01*
X224664228Y-103945413D01*
X224816165Y-103604158D01*
X224898924Y-103239890D01*
X224900037Y-103160161D01*
X235092696Y-103160161D01*
X235160129Y-103527575D01*
X235297642Y-103874893D01*
X235499997Y-104188887D01*
X235759487Y-104457597D01*
X236066228Y-104670788D01*
X236408536Y-104820338D01*
X236773373Y-104900553D01*
X237146842Y-104908376D01*
X237514717Y-104843510D01*
X237862987Y-104708424D01*
X238178387Y-104508266D01*
X238448901Y-104250658D01*
X238664228Y-103945413D01*
X238816165Y-103604158D01*
X238898924Y-103239890D01*
X238904882Y-102813225D01*
X238832326Y-102446788D01*
X238689977Y-102101423D01*
X238483257Y-101790285D01*
X238220040Y-101525225D01*
X237910353Y-101316338D01*
X237565990Y-101171581D01*
X237200069Y-101096468D01*
X236826528Y-101093860D01*
X236459594Y-101163857D01*
X236113244Y-101303791D01*
X235800670Y-101508334D01*
X235533778Y-101769694D01*
X235322734Y-102077915D01*
X235175577Y-102421259D01*
X235097911Y-102786647D01*
X235092696Y-103160161D01*
X224900037Y-103160161D01*
X224904882Y-102813225D01*
X224832326Y-102446788D01*
X224689977Y-102101423D01*
X224483257Y-101790285D01*
X224220040Y-101525225D01*
X223910353Y-101316338D01*
X223565990Y-101171581D01*
X223200069Y-101096468D01*
X222826528Y-101093860D01*
X222459594Y-101163857D01*
X222113244Y-101303791D01*
X221800670Y-101508334D01*
X221533778Y-101769694D01*
X221322734Y-102077915D01*
X221175577Y-102421259D01*
X221097911Y-102786647D01*
X221092696Y-103160161D01*
X220379800Y-103160161D01*
X220379800Y-100379800D01*
X239620200Y-100379800D01*
X239620200Y-131620200D01*
X239620200Y-131620200D01*
G37*
X239620200Y-131620200D02*
X220379800Y-131620200D01*
X220379800Y-129160161D01*
X221092696Y-129160161D01*
X221160129Y-129527575D01*
X221297642Y-129874893D01*
X221499997Y-130188887D01*
X221759487Y-130457597D01*
X222066228Y-130670788D01*
X222408536Y-130820338D01*
X222773373Y-130900553D01*
X223146842Y-130908376D01*
X223514717Y-130843510D01*
X223862987Y-130708424D01*
X224178387Y-130508266D01*
X224448901Y-130250658D01*
X224664228Y-129945413D01*
X224699760Y-129865605D01*
X229398280Y-129865605D01*
X229428428Y-130029869D01*
X229489908Y-130185148D01*
X229580377Y-130325529D01*
X229696390Y-130445664D01*
X229833528Y-130540978D01*
X229986568Y-130607839D01*
X230149679Y-130643701D01*
X230316650Y-130647199D01*
X230481120Y-130618198D01*
X230636825Y-130557804D01*
X230777834Y-130468317D01*
X230898777Y-130353146D01*
X230995045Y-130216676D01*
X231062973Y-130064108D01*
X231099973Y-129901250D01*
X231102637Y-129710496D01*
X231070198Y-129546669D01*
X231006557Y-129392263D01*
X230914136Y-129253159D01*
X230821785Y-129160161D01*
X235092696Y-129160161D01*
X235160129Y-129527575D01*
X235297642Y-129874893D01*
X235499997Y-130188887D01*
X235759487Y-130457597D01*
X236066228Y-130670788D01*
X236408536Y-130820338D01*
X236773373Y-130900553D01*
X237146842Y-130908376D01*
X237514717Y-130843510D01*
X237862987Y-130708424D01*
X238178387Y-130508266D01*
X238448901Y-130250658D01*
X238664228Y-129945413D01*
X238816165Y-129604158D01*
X238898924Y-129239890D01*
X238904882Y-128813225D01*
X238832326Y-128446788D01*
X238689977Y-128101423D01*
X238483257Y-127790285D01*
X238220040Y-127525225D01*
X237910353Y-127316338D01*
X237565990Y-127171581D01*
X237200069Y-127096468D01*
X236826528Y-127093860D01*
X236459594Y-127163857D01*
X236113244Y-127303791D01*
X235800670Y-127508334D01*
X235533778Y-127769694D01*
X235322734Y-128077915D01*
X235175577Y-128421259D01*
X235097911Y-128786647D01*
X235092696Y-129160161D01*
X230821785Y-129160161D01*
X230796457Y-129134656D01*
X230658002Y-129041266D01*
X230504044Y-128976548D01*
X230340447Y-128942967D01*
X230173444Y-128941801D01*
X230009394Y-128973095D01*
X229854548Y-129035657D01*
X229714802Y-129127104D01*
X229595480Y-129243953D01*
X229501126Y-129381753D01*
X229435335Y-129535256D01*
X229400612Y-129698614D01*
X229398280Y-129865605D01*
X224699760Y-129865605D01*
X224816165Y-129604158D01*
X224898924Y-129239890D01*
X224904882Y-128813225D01*
X224832326Y-128446788D01*
X224689977Y-128101423D01*
X224483257Y-127790285D01*
X224220040Y-127525225D01*
X223910353Y-127316338D01*
X223565990Y-127171581D01*
X223200069Y-127096468D01*
X222826528Y-127093860D01*
X222459594Y-127163857D01*
X222113244Y-127303791D01*
X221800670Y-127508334D01*
X221533778Y-127769694D01*
X221322734Y-128077915D01*
X221175577Y-128421259D01*
X221097911Y-128786647D01*
X221092696Y-129160161D01*
X220379800Y-129160161D01*
X220379800Y-124974398D01*
X227859866Y-124974398D01*
X227859866Y-125395121D01*
X227873531Y-125463822D01*
X227900337Y-125528537D01*
X227939253Y-125586779D01*
X227988784Y-125636310D01*
X228047026Y-125675226D01*
X228111741Y-125702032D01*
X228180442Y-125715698D01*
X228651166Y-125715698D01*
X228740066Y-125626798D01*
X228740066Y-124885498D01*
X227948766Y-124885498D01*
X227859866Y-124974398D01*
X220379800Y-124974398D01*
X220379800Y-123100000D01*
X220993726Y-123100000D01*
X220993726Y-124100000D01*
X220997597Y-124148538D01*
X221023091Y-124230864D01*
X221070512Y-124302828D01*
X221136104Y-124358732D01*
X221214674Y-124394148D01*
X221300000Y-124406274D01*
X224000000Y-124406274D01*
X224048538Y-124402403D01*
X224130864Y-124376909D01*
X224202828Y-124329488D01*
X224206589Y-124325075D01*
X227859866Y-124325075D01*
X227859866Y-124745798D01*
X227948766Y-124834698D01*
X228740066Y-124834698D01*
X228740066Y-124093398D01*
X228651166Y-124004498D01*
X228180442Y-124004498D01*
X228111741Y-124018164D01*
X228047026Y-124044970D01*
X227988784Y-124083886D01*
X227939253Y-124133417D01*
X227900337Y-124191659D01*
X227873531Y-124256374D01*
X227859866Y-124325075D01*
X224206589Y-124325075D01*
X224258732Y-124263896D01*
X224294148Y-124185326D01*
X224306274Y-124100000D01*
X224306274Y-123247198D01*
X227859866Y-123247198D01*
X227859866Y-123667921D01*
X227873531Y-123736622D01*
X227900337Y-123801337D01*
X227939253Y-123859579D01*
X227988784Y-123909110D01*
X228047026Y-123948026D01*
X228111741Y-123974832D01*
X228180442Y-123988498D01*
X228651166Y-123988498D01*
X228740066Y-123899598D01*
X228740066Y-123158298D01*
X227948766Y-123158298D01*
X227859866Y-123247198D01*
X224306274Y-123247198D01*
X224306274Y-123100000D01*
X224302403Y-123051462D01*
X224276909Y-122969136D01*
X224229488Y-122897172D01*
X224163896Y-122841268D01*
X224085326Y-122805852D01*
X224000000Y-122793726D01*
X221300000Y-122793726D01*
X221251462Y-122797597D01*
X221169136Y-122823091D01*
X221097172Y-122870512D01*
X221041268Y-122936104D01*
X221005852Y-123014674D01*
X220993726Y-123100000D01*
X220379800Y-123100000D01*
X220379800Y-122597875D01*
X227859866Y-122597875D01*
X227859866Y-123018598D01*
X227948766Y-123107498D01*
X228740066Y-123107498D01*
X228740066Y-122366198D01*
X228651166Y-122277298D01*
X228180442Y-122277298D01*
X228111741Y-122290964D01*
X228047026Y-122317770D01*
X227988784Y-122356686D01*
X227939253Y-122406217D01*
X227900337Y-122464459D01*
X227873531Y-122529174D01*
X227859866Y-122597875D01*
X220379800Y-122597875D01*
X220379800Y-120200000D01*
X224693726Y-120200000D01*
X224693726Y-120800000D01*
X224697597Y-120848538D01*
X224723091Y-120930864D01*
X224770512Y-121002828D01*
X224836104Y-121058732D01*
X224914674Y-121094148D01*
X225000000Y-121106274D01*
X226700000Y-121106274D01*
X226748538Y-121102403D01*
X226830864Y-121076909D01*
X226902828Y-121029488D01*
X226958732Y-120963896D01*
X226974101Y-120929800D01*
X227893726Y-120929800D01*
X227893726Y-121000000D01*
X227897597Y-121048538D01*
X227923091Y-121130864D01*
X227970512Y-121202828D01*
X228031373Y-121254700D01*
X226934449Y-121254700D01*
X226929488Y-121247172D01*
X226863896Y-121191268D01*
X226785326Y-121155852D01*
X226700000Y-121143726D01*
X225000000Y-121143726D01*
X224951462Y-121147597D01*
X224869136Y-121173091D01*
X224797172Y-121220512D01*
X224741268Y-121286104D01*
X224705852Y-121364674D01*
X224693726Y-121450000D01*
X224693726Y-122050000D01*
X224697597Y-122098538D01*
X224723091Y-122180864D01*
X224770512Y-122252828D01*
X224836104Y-122308732D01*
X224914674Y-122344148D01*
X225000000Y-122356274D01*
X226700000Y-122356274D01*
X226748538Y-122352403D01*
X226830864Y-122326909D01*
X226902828Y-122279488D01*
X226931966Y-122245300D01*
X230035666Y-122245300D01*
X230035666Y-122326624D01*
X229915466Y-122326624D01*
X229866928Y-122330495D01*
X229784602Y-122355989D01*
X229712638Y-122403410D01*
X229656734Y-122469002D01*
X229644093Y-122497046D01*
X229630595Y-122464459D01*
X229591679Y-122406217D01*
X229542148Y-122356686D01*
X229483906Y-122317770D01*
X229419191Y-122290964D01*
X229350490Y-122277298D01*
X228879766Y-122277298D01*
X228790866Y-122366198D01*
X228790866Y-123107498D01*
X228810866Y-123107498D01*
X228810866Y-123158298D01*
X228790866Y-123158298D01*
X228790866Y-123899598D01*
X228879766Y-123988498D01*
X229350490Y-123988498D01*
X229419191Y-123974832D01*
X229483906Y-123948026D01*
X229542148Y-123909110D01*
X229591679Y-123859579D01*
X229630595Y-123801337D01*
X229643225Y-123770846D01*
X229685978Y-123835726D01*
X229751570Y-123891630D01*
X229830140Y-123927046D01*
X229915466Y-123939172D01*
X230035666Y-123939172D01*
X230035666Y-124053824D01*
X229915466Y-124053824D01*
X229866928Y-124057695D01*
X229784602Y-124083189D01*
X229712638Y-124130610D01*
X229656734Y-124196202D01*
X229644093Y-124224246D01*
X229630595Y-124191659D01*
X229591679Y-124133417D01*
X229542148Y-124083886D01*
X229483906Y-124044970D01*
X229419191Y-124018164D01*
X229350490Y-124004498D01*
X228879766Y-124004498D01*
X228790866Y-124093398D01*
X228790866Y-124834698D01*
X228810866Y-124834698D01*
X228810866Y-124885498D01*
X228790866Y-124885498D01*
X228790866Y-125626798D01*
X228879766Y-125715698D01*
X229350490Y-125715698D01*
X229419191Y-125702032D01*
X229483906Y-125675226D01*
X229542148Y-125636310D01*
X229591679Y-125586779D01*
X229630595Y-125528537D01*
X229643225Y-125498046D01*
X229685978Y-125562926D01*
X229751570Y-125618830D01*
X229830140Y-125654246D01*
X229915466Y-125666372D01*
X231015466Y-125666372D01*
X231064004Y-125662501D01*
X231146330Y-125637007D01*
X231218294Y-125589586D01*
X231274198Y-125523994D01*
X231309614Y-125445424D01*
X231321740Y-125360098D01*
X231321740Y-124684501D01*
X232051420Y-124684501D01*
X232131092Y-124863886D01*
X232331990Y-124975863D01*
X232550874Y-125046494D01*
X232779331Y-125073067D01*
X233008582Y-125054559D01*
X233150234Y-125014300D01*
X234244400Y-125014300D01*
X234244400Y-125485024D01*
X234258066Y-125553725D01*
X234284872Y-125618440D01*
X234323788Y-125676682D01*
X234373319Y-125726213D01*
X234431561Y-125765129D01*
X234496276Y-125791935D01*
X234564977Y-125805600D01*
X234985700Y-125805600D01*
X235074600Y-125716700D01*
X235074600Y-124925400D01*
X235125400Y-124925400D01*
X235125400Y-125716700D01*
X235214300Y-125805600D01*
X235635023Y-125805600D01*
X235703724Y-125791935D01*
X235768439Y-125765129D01*
X235826681Y-125726213D01*
X235876212Y-125676682D01*
X235915128Y-125618440D01*
X235941934Y-125553725D01*
X235955600Y-125485024D01*
X235955600Y-125014300D01*
X235866700Y-124925400D01*
X235125400Y-124925400D01*
X235074600Y-124925400D01*
X234333300Y-124925400D01*
X234244400Y-125014300D01*
X233150234Y-125014300D01*
X233229817Y-124991682D01*
X233434535Y-124886852D01*
X233468908Y-124863886D01*
X233548580Y-124684501D01*
X232800000Y-123935921D01*
X232051420Y-124684501D01*
X231321740Y-124684501D01*
X231321740Y-124360098D01*
X231317869Y-124311560D01*
X231292375Y-124229234D01*
X231244954Y-124157270D01*
X231179362Y-124101366D01*
X231100792Y-124065950D01*
X231015466Y-124053824D01*
X230895266Y-124053824D01*
X230895266Y-123939172D01*
X231015466Y-123939172D01*
X231064004Y-123935301D01*
X231146330Y-123909807D01*
X231192579Y-123879331D01*
X231626933Y-123879331D01*
X231645441Y-124108582D01*
X231708318Y-124329817D01*
X231813148Y-124534535D01*
X231836114Y-124568908D01*
X232015499Y-124648580D01*
X232764079Y-123900000D01*
X232835921Y-123900000D01*
X233584501Y-124648580D01*
X233763886Y-124568908D01*
X233875863Y-124368010D01*
X233946494Y-124149126D01*
X233973067Y-123920669D01*
X233954559Y-123691418D01*
X233891682Y-123470183D01*
X233786852Y-123265465D01*
X233763886Y-123231092D01*
X233584501Y-123151420D01*
X232835921Y-123900000D01*
X232764079Y-123900000D01*
X232015499Y-123151420D01*
X231836114Y-123231092D01*
X231724137Y-123431990D01*
X231653506Y-123650874D01*
X231626933Y-123879331D01*
X231192579Y-123879331D01*
X231218294Y-123862386D01*
X231274198Y-123796794D01*
X231309614Y-123718224D01*
X231321740Y-123632898D01*
X231321740Y-123115499D01*
X232051420Y-123115499D01*
X232800000Y-123864079D01*
X233548580Y-123115499D01*
X233468908Y-122936114D01*
X233268010Y-122824137D01*
X233049126Y-122753506D01*
X232820669Y-122726933D01*
X232591418Y-122745441D01*
X232370183Y-122808318D01*
X232165465Y-122913148D01*
X232131092Y-122936114D01*
X232051420Y-123115499D01*
X231321740Y-123115499D01*
X231321740Y-122632898D01*
X231317869Y-122584360D01*
X231292375Y-122502034D01*
X231244954Y-122430070D01*
X231179362Y-122374166D01*
X231100792Y-122338750D01*
X231015466Y-122326624D01*
X230898945Y-122326624D01*
X230948303Y-122295300D01*
X235859847Y-122295300D01*
X235817446Y-122357226D01*
X235792431Y-122415589D01*
X235763896Y-122391268D01*
X235685326Y-122355852D01*
X235600000Y-122343726D01*
X234600000Y-122343726D01*
X234551462Y-122347597D01*
X234469136Y-122373091D01*
X234397172Y-122420512D01*
X234341268Y-122486104D01*
X234305852Y-122564674D01*
X234293726Y-122650000D01*
X234293726Y-123750000D01*
X234297597Y-123798538D01*
X234323091Y-123880864D01*
X234370512Y-123952828D01*
X234436104Y-124008732D01*
X234464148Y-124021373D01*
X234431561Y-124034871D01*
X234373319Y-124073787D01*
X234323788Y-124123318D01*
X234284872Y-124181560D01*
X234258066Y-124246275D01*
X234244400Y-124314976D01*
X234244400Y-124785700D01*
X234333300Y-124874600D01*
X235074600Y-124874600D01*
X235074600Y-124854600D01*
X235125400Y-124854600D01*
X235125400Y-124874600D01*
X235866700Y-124874600D01*
X235955600Y-124785700D01*
X235955600Y-124314976D01*
X235941934Y-124246275D01*
X235915128Y-124181560D01*
X235876212Y-124123318D01*
X235826681Y-124073787D01*
X235768439Y-124034871D01*
X235737948Y-124022241D01*
X235802828Y-123979488D01*
X235858732Y-123913896D01*
X235894148Y-123835326D01*
X235906274Y-123750000D01*
X235906274Y-123614734D01*
X235921512Y-123610133D01*
X235959614Y-123599063D01*
X235961619Y-123598024D01*
X235963784Y-123597370D01*
X235998890Y-123578704D01*
X236034086Y-123560460D01*
X236035848Y-123559053D01*
X236037848Y-123557990D01*
X236068687Y-123532839D01*
X236099641Y-123508128D01*
X236102778Y-123505035D01*
X236102852Y-123504974D01*
X236102909Y-123504905D01*
X236103914Y-123503914D01*
X236352811Y-123255017D01*
X236396624Y-123255935D01*
X236513430Y-123235339D01*
X236624010Y-123192448D01*
X236724153Y-123128895D01*
X236810046Y-123047101D01*
X236878415Y-122950181D01*
X236926657Y-122841828D01*
X236952934Y-122726168D01*
X236954826Y-122590696D01*
X236931788Y-122474348D01*
X236886590Y-122364690D01*
X236840488Y-122295300D01*
X238200000Y-122295300D01*
X238245562Y-122290833D01*
X238291111Y-122286848D01*
X238293613Y-122286121D01*
X238296204Y-122285867D01*
X238339999Y-122272645D01*
X238383939Y-122259879D01*
X238386251Y-122258681D01*
X238388744Y-122257928D01*
X238429125Y-122236457D01*
X238469760Y-122215394D01*
X238471797Y-122213768D01*
X238474095Y-122212546D01*
X238509512Y-122183660D01*
X238545306Y-122155086D01*
X238548935Y-122151507D01*
X238549005Y-122151450D01*
X238549059Y-122151385D01*
X238550230Y-122150230D01*
X238800230Y-121900230D01*
X238829279Y-121864865D01*
X238858679Y-121829828D01*
X238859934Y-121827545D01*
X238861586Y-121825534D01*
X238883203Y-121785218D01*
X238905248Y-121745119D01*
X238906035Y-121742637D01*
X238907266Y-121740342D01*
X238920632Y-121696624D01*
X238934477Y-121652979D01*
X238934768Y-121650387D01*
X238935528Y-121647900D01*
X238940142Y-121602475D01*
X238945252Y-121556915D01*
X238945287Y-121551814D01*
X238945296Y-121551729D01*
X238945289Y-121551650D01*
X238945300Y-121550000D01*
X238945300Y-120006274D01*
X239000000Y-120006274D01*
X239048538Y-120002403D01*
X239130864Y-119976909D01*
X239202828Y-119929488D01*
X239258732Y-119863896D01*
X239294148Y-119785326D01*
X239306274Y-119700000D01*
X239306274Y-118700000D01*
X239302403Y-118651462D01*
X239276909Y-118569136D01*
X239229488Y-118497172D01*
X239204800Y-118476130D01*
X239204800Y-117786136D01*
X239252828Y-117754488D01*
X239308732Y-117688896D01*
X239344148Y-117610326D01*
X239356274Y-117525000D01*
X239356274Y-117275000D01*
X239352403Y-117226462D01*
X239327723Y-117146765D01*
X239344148Y-117110326D01*
X239356274Y-117025000D01*
X239356274Y-116775000D01*
X239352403Y-116726462D01*
X239349445Y-116716911D01*
X239365129Y-116693439D01*
X239391935Y-116628724D01*
X239405600Y-116560023D01*
X239405600Y-116514300D01*
X239316700Y-116425400D01*
X238800400Y-116425400D01*
X238800400Y-116445400D01*
X238749600Y-116445400D01*
X238749600Y-116425400D01*
X238729600Y-116425400D01*
X238729600Y-116374600D01*
X238749600Y-116374600D01*
X238749600Y-115925400D01*
X238800400Y-115925400D01*
X238800400Y-116374600D01*
X238883300Y-116374600D01*
X238889300Y-116380600D01*
X239085024Y-116380600D01*
X239115187Y-116374600D01*
X239316700Y-116374600D01*
X239405600Y-116285700D01*
X239405600Y-116239977D01*
X239391935Y-116171276D01*
X239383122Y-116150000D01*
X239391935Y-116128724D01*
X239405600Y-116060023D01*
X239405600Y-116014300D01*
X239316700Y-115925400D01*
X239115187Y-115925400D01*
X239085024Y-115919400D01*
X238889300Y-115919400D01*
X238883300Y-115925400D01*
X238800400Y-115925400D01*
X238749600Y-115925400D01*
X238729600Y-115925400D01*
X238729600Y-115874600D01*
X238749600Y-115874600D01*
X238749600Y-115508300D01*
X238800400Y-115508300D01*
X238800400Y-115874600D01*
X239316700Y-115874600D01*
X239405600Y-115785700D01*
X239405600Y-115739977D01*
X239391935Y-115671276D01*
X239365129Y-115606561D01*
X239326213Y-115548319D01*
X239276682Y-115498788D01*
X239218440Y-115459872D01*
X239153725Y-115433066D01*
X239085024Y-115419400D01*
X238889300Y-115419400D01*
X238800400Y-115508300D01*
X238749600Y-115508300D01*
X238660700Y-115419400D01*
X238464976Y-115419400D01*
X238396275Y-115433066D01*
X238331560Y-115459872D01*
X238281292Y-115493460D01*
X238268440Y-115484872D01*
X238203725Y-115458066D01*
X238135024Y-115444400D01*
X237714300Y-115444400D01*
X237625400Y-115533300D01*
X237625400Y-116624600D01*
X237645400Y-116624600D01*
X237645400Y-116675400D01*
X237625400Y-116675400D01*
X237625400Y-117766700D01*
X237714300Y-117855600D01*
X238135024Y-117855600D01*
X238203725Y-117841934D01*
X238268440Y-117815128D01*
X238326682Y-117776212D01*
X238326958Y-117775936D01*
X238336104Y-117783732D01*
X238345200Y-117787832D01*
X238345200Y-118393726D01*
X237900000Y-118393726D01*
X237851462Y-118397597D01*
X237769136Y-118423091D01*
X237697172Y-118470512D01*
X237641268Y-118536104D01*
X237628627Y-118564148D01*
X237615129Y-118531561D01*
X237576213Y-118473319D01*
X237526682Y-118423788D01*
X237468440Y-118384872D01*
X237403725Y-118358066D01*
X237335024Y-118344400D01*
X236864300Y-118344400D01*
X236775400Y-118433300D01*
X236775400Y-119174600D01*
X236795400Y-119174600D01*
X236795400Y-119225400D01*
X236775400Y-119225400D01*
X236775400Y-119966700D01*
X236864300Y-120055600D01*
X237335024Y-120055600D01*
X237403725Y-120041934D01*
X237468440Y-120015128D01*
X237526682Y-119976212D01*
X237576213Y-119926681D01*
X237615129Y-119868439D01*
X237627759Y-119837948D01*
X237670512Y-119902828D01*
X237736104Y-119958732D01*
X237814674Y-119994148D01*
X237900000Y-120006274D01*
X237954700Y-120006274D01*
X237954700Y-121304700D01*
X231019736Y-121304700D01*
X231048538Y-121302403D01*
X231130864Y-121276909D01*
X231202828Y-121229488D01*
X231258732Y-121163896D01*
X231294148Y-121085326D01*
X231306274Y-121000000D01*
X231306274Y-120929800D01*
X232292997Y-120929800D01*
X232323729Y-120977488D01*
X232406121Y-121062807D01*
X232503515Y-121130497D01*
X232612202Y-121177982D01*
X232728043Y-121203451D01*
X232846624Y-121205935D01*
X232963430Y-121185339D01*
X233074010Y-121142448D01*
X233174153Y-121078895D01*
X233260046Y-120997101D01*
X233328415Y-120900181D01*
X233376657Y-120791828D01*
X233402934Y-120676168D01*
X233404826Y-120540696D01*
X233381788Y-120424348D01*
X233336590Y-120314690D01*
X233270954Y-120215899D01*
X233187379Y-120131739D01*
X233089049Y-120065415D01*
X232979709Y-120019453D01*
X232863525Y-119995603D01*
X232744920Y-119994775D01*
X232628414Y-120017000D01*
X232518443Y-120061431D01*
X232505043Y-120070200D01*
X231306274Y-120070200D01*
X231306274Y-120000000D01*
X231302403Y-119951462D01*
X231276909Y-119869136D01*
X231229488Y-119797172D01*
X231163896Y-119741268D01*
X231085326Y-119705852D01*
X231000000Y-119693726D01*
X229900000Y-119693726D01*
X229851462Y-119697597D01*
X229769136Y-119723091D01*
X229697172Y-119770512D01*
X229641268Y-119836104D01*
X229605852Y-119914674D01*
X229601184Y-119947524D01*
X229576909Y-119869136D01*
X229529488Y-119797172D01*
X229463896Y-119741268D01*
X229385326Y-119705852D01*
X229300000Y-119693726D01*
X228200000Y-119693726D01*
X228151462Y-119697597D01*
X228069136Y-119723091D01*
X227997172Y-119770512D01*
X227941268Y-119836104D01*
X227905852Y-119914674D01*
X227893726Y-120000000D01*
X227893726Y-120070200D01*
X226977238Y-120070200D01*
X226976909Y-120069136D01*
X226929488Y-119997172D01*
X226863896Y-119941268D01*
X226785326Y-119905852D01*
X226700000Y-119893726D01*
X225000000Y-119893726D01*
X224951462Y-119897597D01*
X224869136Y-119923091D01*
X224797172Y-119970512D01*
X224741268Y-120036104D01*
X224705852Y-120114674D01*
X224693726Y-120200000D01*
X220379800Y-120200000D01*
X220379800Y-118950000D01*
X224693726Y-118950000D01*
X224693726Y-119550000D01*
X224697597Y-119598538D01*
X224723091Y-119680864D01*
X224770512Y-119752828D01*
X224836104Y-119808732D01*
X224914674Y-119844148D01*
X225000000Y-119856274D01*
X226700000Y-119856274D01*
X226748538Y-119852403D01*
X226830864Y-119826909D01*
X226902828Y-119779488D01*
X226958732Y-119713896D01*
X226974101Y-119679800D01*
X233225962Y-119679800D01*
X233306121Y-119762807D01*
X233403515Y-119830497D01*
X233512202Y-119877982D01*
X233628043Y-119903451D01*
X233746624Y-119905935D01*
X233863430Y-119885339D01*
X233974010Y-119842448D01*
X234074153Y-119778895D01*
X234160046Y-119697101D01*
X234228415Y-119600181D01*
X234276657Y-119491828D01*
X234302934Y-119376168D01*
X234303798Y-119314300D01*
X235844400Y-119314300D01*
X235844400Y-119735023D01*
X235858065Y-119803724D01*
X235884871Y-119868439D01*
X235923787Y-119926681D01*
X235973318Y-119976212D01*
X236031560Y-120015128D01*
X236096275Y-120041934D01*
X236164976Y-120055600D01*
X236635700Y-120055600D01*
X236724600Y-119966700D01*
X236724600Y-119225400D01*
X235933300Y-119225400D01*
X235844400Y-119314300D01*
X234303798Y-119314300D01*
X234304826Y-119240696D01*
X234281788Y-119124348D01*
X234236590Y-119014690D01*
X234170954Y-118915899D01*
X234087379Y-118831739D01*
X233989049Y-118765415D01*
X233879709Y-118719453D01*
X233763525Y-118695603D01*
X233644920Y-118694775D01*
X233528414Y-118717000D01*
X233418443Y-118761431D01*
X233328635Y-118820200D01*
X226977238Y-118820200D01*
X226976909Y-118819136D01*
X226929488Y-118747172D01*
X226863896Y-118691268D01*
X226805570Y-118664977D01*
X235844400Y-118664977D01*
X235844400Y-119085700D01*
X235933300Y-119174600D01*
X236724600Y-119174600D01*
X236724600Y-118433300D01*
X236635700Y-118344400D01*
X236164976Y-118344400D01*
X236096275Y-118358066D01*
X236031560Y-118384872D01*
X235973318Y-118423788D01*
X235923787Y-118473319D01*
X235884871Y-118531561D01*
X235858065Y-118596276D01*
X235844400Y-118664977D01*
X226805570Y-118664977D01*
X226785326Y-118655852D01*
X226700000Y-118643726D01*
X225000000Y-118643726D01*
X224951462Y-118647597D01*
X224869136Y-118673091D01*
X224797172Y-118720512D01*
X224741268Y-118786104D01*
X224705852Y-118864674D01*
X224693726Y-118950000D01*
X220379800Y-118950000D01*
X220379800Y-117700000D01*
X224693726Y-117700000D01*
X224693726Y-118300000D01*
X224697597Y-118348538D01*
X224723091Y-118430864D01*
X224770512Y-118502828D01*
X224836104Y-118558732D01*
X224914674Y-118594148D01*
X225000000Y-118606274D01*
X226700000Y-118606274D01*
X226748538Y-118602403D01*
X226830864Y-118576909D01*
X226902828Y-118529488D01*
X226958732Y-118463896D01*
X226974101Y-118429800D01*
X229474246Y-118429800D01*
X229506121Y-118462807D01*
X229603515Y-118530497D01*
X229712202Y-118577982D01*
X229828043Y-118603451D01*
X229946624Y-118605935D01*
X230063430Y-118585339D01*
X230174010Y-118542448D01*
X230274153Y-118478895D01*
X230360046Y-118397101D01*
X230428415Y-118300181D01*
X230476657Y-118191828D01*
X230502934Y-118076168D01*
X230504826Y-117940696D01*
X230481788Y-117824348D01*
X230436590Y-117714690D01*
X230370954Y-117615899D01*
X230287379Y-117531739D01*
X230189049Y-117465415D01*
X230079709Y-117419453D01*
X229963525Y-117395603D01*
X229844920Y-117394775D01*
X229728414Y-117417000D01*
X229618443Y-117461431D01*
X229519197Y-117526376D01*
X229474445Y-117570200D01*
X226977238Y-117570200D01*
X226976909Y-117569136D01*
X226929488Y-117497172D01*
X226863896Y-117441268D01*
X226785326Y-117405852D01*
X226700000Y-117393726D01*
X225000000Y-117393726D01*
X224951462Y-117397597D01*
X224869136Y-117423091D01*
X224797172Y-117470512D01*
X224741268Y-117536104D01*
X224705852Y-117614674D01*
X224693726Y-117700000D01*
X220379800Y-117700000D01*
X220379800Y-114364300D01*
X224644400Y-114364300D01*
X224644400Y-114585024D01*
X224658066Y-114653725D01*
X224684872Y-114718440D01*
X224723788Y-114776682D01*
X224773319Y-114826213D01*
X224831561Y-114865129D01*
X224896276Y-114891935D01*
X224941012Y-114900833D01*
X224869136Y-114923091D01*
X224797172Y-114970512D01*
X224741268Y-115036104D01*
X224705852Y-115114674D01*
X224693726Y-115200000D01*
X224693726Y-115800000D01*
X224697597Y-115848538D01*
X224723091Y-115930864D01*
X224770512Y-116002828D01*
X224836104Y-116058732D01*
X224914674Y-116094148D01*
X225000000Y-116106274D01*
X226700000Y-116106274D01*
X226748538Y-116102403D01*
X226830864Y-116076909D01*
X226884040Y-116041868D01*
X227162371Y-116320200D01*
X226977238Y-116320200D01*
X226976909Y-116319136D01*
X226929488Y-116247172D01*
X226863896Y-116191268D01*
X226785326Y-116155852D01*
X226700000Y-116143726D01*
X225000000Y-116143726D01*
X224951462Y-116147597D01*
X224869136Y-116173091D01*
X224797172Y-116220512D01*
X224741268Y-116286104D01*
X224705852Y-116364674D01*
X224693726Y-116450000D01*
X224693726Y-117050000D01*
X224697597Y-117098538D01*
X224723091Y-117180864D01*
X224770512Y-117252828D01*
X224836104Y-117308732D01*
X224914674Y-117344148D01*
X225000000Y-117356274D01*
X226700000Y-117356274D01*
X226748538Y-117352403D01*
X226830864Y-117326909D01*
X226902828Y-117279488D01*
X226958732Y-117213896D01*
X226974101Y-117179800D01*
X231070743Y-117179800D01*
X231074076Y-117213800D01*
X231077534Y-117253326D01*
X231078164Y-117255496D01*
X231078385Y-117257746D01*
X231089867Y-117295776D01*
X231100937Y-117333878D01*
X231101976Y-117335883D01*
X231102630Y-117338048D01*
X231121296Y-117373154D01*
X231139540Y-117408350D01*
X231140947Y-117410112D01*
X231142010Y-117412112D01*
X231167161Y-117442951D01*
X231191872Y-117473905D01*
X231194965Y-117477042D01*
X231195026Y-117477116D01*
X231195095Y-117477173D01*
X231196086Y-117478178D01*
X231441032Y-117723125D01*
X231471745Y-117748353D01*
X231502123Y-117773844D01*
X231504101Y-117774932D01*
X231505850Y-117776368D01*
X231540891Y-117795156D01*
X231575630Y-117814254D01*
X231577781Y-117814936D01*
X231579776Y-117816006D01*
X231617786Y-117827627D01*
X231655586Y-117839618D01*
X231657830Y-117839870D01*
X231659993Y-117840531D01*
X231699539Y-117844548D01*
X231738945Y-117848968D01*
X231743356Y-117848999D01*
X231743446Y-117849008D01*
X231743530Y-117849000D01*
X231744946Y-117849010D01*
X231965862Y-117849010D01*
X231965862Y-118019210D01*
X231969733Y-118067748D01*
X231995227Y-118150074D01*
X232042648Y-118222038D01*
X232108240Y-118277942D01*
X232186810Y-118313358D01*
X232272136Y-118325484D01*
X232622136Y-118325484D01*
X232670674Y-118321613D01*
X232753000Y-118296119D01*
X232771508Y-118283923D01*
X232836810Y-118313358D01*
X232922136Y-118325484D01*
X233272136Y-118325484D01*
X233320674Y-118321613D01*
X233364390Y-118308075D01*
X233403697Y-118334339D01*
X233468412Y-118361145D01*
X233537113Y-118374810D01*
X233632836Y-118374810D01*
X233721736Y-118285910D01*
X233721736Y-117444610D01*
X233772536Y-117444610D01*
X233772536Y-118285910D01*
X233861436Y-118374810D01*
X233957159Y-118374810D01*
X234025860Y-118361145D01*
X234090575Y-118334339D01*
X234148817Y-118295423D01*
X234198348Y-118245892D01*
X234237264Y-118187650D01*
X234264070Y-118122935D01*
X234277736Y-118054234D01*
X234277736Y-117533510D01*
X234188836Y-117444610D01*
X233772536Y-117444610D01*
X233721736Y-117444610D01*
X233701736Y-117444610D01*
X233701736Y-117393810D01*
X233721736Y-117393810D01*
X233721736Y-117373810D01*
X233772536Y-117373810D01*
X233772536Y-117393810D01*
X234188836Y-117393810D01*
X234277736Y-117304910D01*
X234277736Y-116784186D01*
X234264070Y-116715485D01*
X234237264Y-116650770D01*
X234212291Y-116613395D01*
X234216284Y-116604536D01*
X234228410Y-116519210D01*
X234228410Y-115950853D01*
X234594405Y-115950853D01*
X234615816Y-116067512D01*
X234659479Y-116177790D01*
X234723729Y-116277488D01*
X234806121Y-116362807D01*
X234903515Y-116430497D01*
X235012202Y-116477982D01*
X235128043Y-116503451D01*
X235246624Y-116505935D01*
X235363430Y-116485339D01*
X235474010Y-116442448D01*
X235574153Y-116378895D01*
X235625708Y-116329800D01*
X235838500Y-116329800D01*
X235883300Y-116374600D01*
X236399600Y-116374600D01*
X236399600Y-116354600D01*
X236450400Y-116354600D01*
X236450400Y-116374600D01*
X236470400Y-116374600D01*
X236470400Y-116425400D01*
X236450400Y-116425400D01*
X236450400Y-116445400D01*
X236399600Y-116445400D01*
X236399600Y-116425400D01*
X235883300Y-116425400D01*
X235794400Y-116514300D01*
X235794400Y-116560023D01*
X235808065Y-116628724D01*
X235834871Y-116693439D01*
X235851731Y-116718672D01*
X235843726Y-116775000D01*
X235843726Y-116970200D01*
X235625573Y-116970200D01*
X235587379Y-116931739D01*
X235489049Y-116865415D01*
X235379709Y-116819453D01*
X235263525Y-116795603D01*
X235144920Y-116794775D01*
X235028414Y-116817000D01*
X234918443Y-116861431D01*
X234819197Y-116926376D01*
X234734455Y-117009361D01*
X234667446Y-117107226D01*
X234620721Y-117216242D01*
X234596061Y-117332257D01*
X234594405Y-117450853D01*
X234615816Y-117567512D01*
X234659479Y-117677790D01*
X234723729Y-117777488D01*
X234806121Y-117862807D01*
X234903515Y-117930497D01*
X235012202Y-117977982D01*
X235128043Y-118003451D01*
X235246624Y-118005935D01*
X235363430Y-117985339D01*
X235474010Y-117942448D01*
X235574153Y-117878895D01*
X235625708Y-117829800D01*
X236139628Y-117829800D01*
X236150000Y-117831274D01*
X236700000Y-117831274D01*
X236748538Y-117827403D01*
X236830864Y-117801909D01*
X236871945Y-117774839D01*
X236873318Y-117776212D01*
X236931560Y-117815128D01*
X236996275Y-117841934D01*
X237064976Y-117855600D01*
X237485700Y-117855600D01*
X237574600Y-117766700D01*
X237574600Y-116675400D01*
X237554600Y-116675400D01*
X237554600Y-116624600D01*
X237574600Y-116624600D01*
X237574600Y-115533300D01*
X237485700Y-115444400D01*
X237064976Y-115444400D01*
X236996275Y-115458066D01*
X236931560Y-115484872D01*
X236873318Y-115523788D01*
X236873042Y-115524064D01*
X236863896Y-115516268D01*
X236785326Y-115480852D01*
X236700000Y-115468726D01*
X236150000Y-115468726D01*
X236131518Y-115470200D01*
X235625573Y-115470200D01*
X235587379Y-115431739D01*
X235489049Y-115365415D01*
X235379709Y-115319453D01*
X235263525Y-115295603D01*
X235144920Y-115294775D01*
X235028414Y-115317000D01*
X234918443Y-115361431D01*
X234819197Y-115426376D01*
X234734455Y-115509361D01*
X234667446Y-115607226D01*
X234620721Y-115716242D01*
X234596061Y-115832257D01*
X234594405Y-115950853D01*
X234228410Y-115950853D01*
X234228410Y-115319210D01*
X234224539Y-115270672D01*
X234199045Y-115188346D01*
X234151624Y-115116382D01*
X234086032Y-115060478D01*
X234007462Y-115025062D01*
X233922136Y-115012936D01*
X233572136Y-115012936D01*
X233526936Y-115016541D01*
X233526936Y-114596284D01*
X233647136Y-114596284D01*
X233695674Y-114592413D01*
X233778000Y-114566919D01*
X233849964Y-114519498D01*
X233905868Y-114453906D01*
X233918509Y-114425862D01*
X233932007Y-114458449D01*
X233970923Y-114516691D01*
X234020454Y-114566222D01*
X234078696Y-114605138D01*
X234143411Y-114631944D01*
X234212112Y-114645610D01*
X234682836Y-114645610D01*
X234771736Y-114556710D01*
X234771736Y-113815410D01*
X234822536Y-113815410D01*
X234822536Y-114556710D01*
X234911436Y-114645610D01*
X235382160Y-114645610D01*
X235450861Y-114631944D01*
X235515576Y-114605138D01*
X235573818Y-114566222D01*
X235623349Y-114516691D01*
X235662265Y-114458449D01*
X235689071Y-114393734D01*
X235702736Y-114325033D01*
X235702736Y-114239525D01*
X237094480Y-114239525D01*
X237124628Y-114403789D01*
X237186108Y-114559068D01*
X237276577Y-114699449D01*
X237392590Y-114819584D01*
X237529728Y-114914898D01*
X237682768Y-114981759D01*
X237845879Y-115017621D01*
X238012850Y-115021119D01*
X238177320Y-114992118D01*
X238333025Y-114931724D01*
X238474034Y-114842237D01*
X238594977Y-114727066D01*
X238691245Y-114590596D01*
X238759173Y-114438028D01*
X238796173Y-114275170D01*
X238798837Y-114084416D01*
X238766398Y-113920589D01*
X238702757Y-113766183D01*
X238610336Y-113627079D01*
X238492657Y-113508576D01*
X238354202Y-113415186D01*
X238200244Y-113350468D01*
X238036647Y-113316887D01*
X237869644Y-113315721D01*
X237705594Y-113347015D01*
X237550748Y-113409577D01*
X237411002Y-113501024D01*
X237291680Y-113617873D01*
X237197326Y-113755673D01*
X237131535Y-113909176D01*
X237096812Y-114072534D01*
X237094480Y-114239525D01*
X235702736Y-114239525D01*
X235702736Y-113904310D01*
X235613836Y-113815410D01*
X234822536Y-113815410D01*
X234771736Y-113815410D01*
X234751736Y-113815410D01*
X234751736Y-113764610D01*
X234771736Y-113764610D01*
X234771736Y-113023310D01*
X234822536Y-113023310D01*
X234822536Y-113764610D01*
X235613836Y-113764610D01*
X235702736Y-113675710D01*
X235702736Y-113254987D01*
X235689071Y-113186286D01*
X235662265Y-113121571D01*
X235623349Y-113063329D01*
X235573818Y-113013798D01*
X235515576Y-112974882D01*
X235450861Y-112948076D01*
X235382160Y-112934410D01*
X234911436Y-112934410D01*
X234822536Y-113023310D01*
X234771736Y-113023310D01*
X234682836Y-112934410D01*
X234212112Y-112934410D01*
X234143411Y-112948076D01*
X234078696Y-112974882D01*
X234020454Y-113013798D01*
X233970923Y-113063329D01*
X233932007Y-113121571D01*
X233919377Y-113152062D01*
X233876624Y-113087182D01*
X233811032Y-113031278D01*
X233732462Y-112995862D01*
X233647136Y-112983736D01*
X233526936Y-112983736D01*
X233526936Y-111928296D01*
X233529758Y-111903137D01*
X233529789Y-111898727D01*
X233529798Y-111898637D01*
X233529790Y-111898553D01*
X233529800Y-111897136D01*
X233529800Y-111560744D01*
X233586104Y-111608732D01*
X233664674Y-111644148D01*
X233750000Y-111656274D01*
X234850000Y-111656274D01*
X234898538Y-111652403D01*
X234980864Y-111626909D01*
X235052828Y-111579488D01*
X235108732Y-111513896D01*
X235144148Y-111435326D01*
X235156274Y-111350000D01*
X235156274Y-110850000D01*
X235152403Y-110801462D01*
X235126909Y-110719136D01*
X235079488Y-110647172D01*
X235013896Y-110591268D01*
X234935326Y-110555852D01*
X234850000Y-110543726D01*
X233750000Y-110543726D01*
X233701462Y-110547597D01*
X233619136Y-110573091D01*
X233547172Y-110620512D01*
X233529800Y-110640895D01*
X233529800Y-110310744D01*
X233586104Y-110358732D01*
X233664674Y-110394148D01*
X233750000Y-110406274D01*
X234850000Y-110406274D01*
X234898538Y-110402403D01*
X234980864Y-110376909D01*
X235052828Y-110329488D01*
X235108732Y-110263896D01*
X235144148Y-110185326D01*
X235156274Y-110100000D01*
X235156274Y-109600000D01*
X235152403Y-109551462D01*
X235126909Y-109469136D01*
X235079488Y-109397172D01*
X235013896Y-109341268D01*
X234935326Y-109305852D01*
X234850000Y-109293726D01*
X233750000Y-109293726D01*
X233701462Y-109297597D01*
X233619136Y-109323091D01*
X233547172Y-109370512D01*
X233529800Y-109390895D01*
X233529800Y-109060744D01*
X233586104Y-109108732D01*
X233664674Y-109144148D01*
X233750000Y-109156274D01*
X234850000Y-109156274D01*
X234898538Y-109152403D01*
X234980864Y-109126909D01*
X235052828Y-109079488D01*
X235085364Y-109041313D01*
X235106121Y-109062807D01*
X235203515Y-109130497D01*
X235312202Y-109177982D01*
X235428043Y-109203451D01*
X235546624Y-109205935D01*
X235663430Y-109185339D01*
X235774010Y-109142448D01*
X235874153Y-109078895D01*
X235960046Y-108997101D01*
X236028415Y-108900181D01*
X236076657Y-108791828D01*
X236102934Y-108676168D01*
X236104826Y-108540696D01*
X236081788Y-108424348D01*
X236036590Y-108314690D01*
X235970954Y-108215899D01*
X235887379Y-108131739D01*
X235789049Y-108065415D01*
X235679709Y-108019453D01*
X235563525Y-107995603D01*
X235444920Y-107994775D01*
X235328414Y-108017000D01*
X235218443Y-108061431D01*
X235119197Y-108126376D01*
X235086733Y-108158167D01*
X235079488Y-108147172D01*
X235013896Y-108091268D01*
X234935326Y-108055852D01*
X234850000Y-108043726D01*
X233750000Y-108043726D01*
X233701462Y-108047597D01*
X233619136Y-108073091D01*
X233547172Y-108120512D01*
X233529800Y-108140895D01*
X233529800Y-107810744D01*
X233586104Y-107858732D01*
X233664674Y-107894148D01*
X233750000Y-107906274D01*
X234850000Y-107906274D01*
X234898538Y-107902403D01*
X234980864Y-107876909D01*
X235052828Y-107829488D01*
X235095177Y-107779800D01*
X235525962Y-107779800D01*
X235606121Y-107862807D01*
X235703515Y-107930497D01*
X235812202Y-107977982D01*
X235928043Y-108003451D01*
X236046624Y-108005935D01*
X236163430Y-107985339D01*
X236274010Y-107942448D01*
X236374153Y-107878895D01*
X236460046Y-107797101D01*
X236528415Y-107700181D01*
X236576657Y-107591828D01*
X236602934Y-107476168D01*
X236604826Y-107340696D01*
X236581788Y-107224348D01*
X236536590Y-107114690D01*
X236470954Y-107015899D01*
X236387379Y-106931739D01*
X236289049Y-106865415D01*
X236179709Y-106819453D01*
X236063525Y-106795603D01*
X235944920Y-106794775D01*
X235828414Y-106817000D01*
X235718443Y-106861431D01*
X235628635Y-106920200D01*
X235094662Y-106920200D01*
X235079488Y-106897172D01*
X235013896Y-106841268D01*
X234935326Y-106805852D01*
X234850000Y-106793726D01*
X233750000Y-106793726D01*
X233701462Y-106797597D01*
X233619136Y-106823091D01*
X233547172Y-106870512D01*
X233491268Y-106936104D01*
X233455852Y-107014674D01*
X233443726Y-107100000D01*
X233443726Y-107544663D01*
X233432858Y-107531338D01*
X233408128Y-107500358D01*
X233405030Y-107497216D01*
X233404974Y-107497148D01*
X233404911Y-107497096D01*
X233403914Y-107496085D01*
X232953914Y-107046086D01*
X232923231Y-107020882D01*
X232892823Y-106995366D01*
X232890845Y-106994278D01*
X232889096Y-106992842D01*
X232854055Y-106974054D01*
X232819316Y-106954956D01*
X232817165Y-106954274D01*
X232815170Y-106953204D01*
X232777160Y-106941583D01*
X232739360Y-106929592D01*
X232737116Y-106929340D01*
X232734953Y-106928679D01*
X232695407Y-106924662D01*
X232656001Y-106920242D01*
X232651590Y-106920211D01*
X232651500Y-106920202D01*
X232651416Y-106920210D01*
X232650000Y-106920200D01*
X232594662Y-106920200D01*
X232579488Y-106897172D01*
X232513896Y-106841268D01*
X232435326Y-106805852D01*
X232350000Y-106793726D01*
X232229800Y-106793726D01*
X232229800Y-105806274D01*
X232300000Y-105806274D01*
X232348538Y-105802403D01*
X232430864Y-105776909D01*
X232502828Y-105729488D01*
X232558732Y-105663896D01*
X232571373Y-105635852D01*
X232584871Y-105668439D01*
X232623787Y-105726681D01*
X232673318Y-105776212D01*
X232731560Y-105815128D01*
X232796275Y-105841934D01*
X232864976Y-105855600D01*
X233335700Y-105855600D01*
X233424600Y-105766700D01*
X233424600Y-105025400D01*
X233475400Y-105025400D01*
X233475400Y-105766700D01*
X233564300Y-105855600D01*
X234035024Y-105855600D01*
X234103725Y-105841934D01*
X234168440Y-105815128D01*
X234226682Y-105776212D01*
X234276213Y-105726681D01*
X234315129Y-105668439D01*
X234341935Y-105603724D01*
X234355600Y-105535023D01*
X234355600Y-105114300D01*
X234266700Y-105025400D01*
X233475400Y-105025400D01*
X233424600Y-105025400D01*
X233404600Y-105025400D01*
X233404600Y-104974600D01*
X233424600Y-104974600D01*
X233424600Y-104233300D01*
X233475400Y-104233300D01*
X233475400Y-104974600D01*
X234266700Y-104974600D01*
X234355600Y-104885700D01*
X234355600Y-104464977D01*
X234341935Y-104396276D01*
X234315129Y-104331561D01*
X234276213Y-104273319D01*
X234226682Y-104223788D01*
X234168440Y-104184872D01*
X234103725Y-104158066D01*
X234035024Y-104144400D01*
X233564300Y-104144400D01*
X233475400Y-104233300D01*
X233424600Y-104233300D01*
X233335700Y-104144400D01*
X232864976Y-104144400D01*
X232796275Y-104158066D01*
X232731560Y-104184872D01*
X232673318Y-104223788D01*
X232623787Y-104273319D01*
X232584871Y-104331561D01*
X232572241Y-104362052D01*
X232529488Y-104297172D01*
X232463896Y-104241268D01*
X232385326Y-104205852D01*
X232300000Y-104193726D01*
X231200000Y-104193726D01*
X231151462Y-104197597D01*
X231069136Y-104223091D01*
X230997172Y-104270512D01*
X230941268Y-104336104D01*
X230905852Y-104414674D01*
X230893726Y-104500000D01*
X230893726Y-105500000D01*
X230897597Y-105548538D01*
X230923091Y-105630864D01*
X230970512Y-105702828D01*
X231036104Y-105758732D01*
X231114674Y-105794148D01*
X231200000Y-105806274D01*
X231370200Y-105806274D01*
X231370200Y-106793726D01*
X231250000Y-106793726D01*
X231201462Y-106797597D01*
X231119136Y-106823091D01*
X231047172Y-106870512D01*
X230991268Y-106936104D01*
X230955852Y-107014674D01*
X230943726Y-107100000D01*
X230943726Y-107600000D01*
X230947597Y-107648538D01*
X230973091Y-107730864D01*
X231020512Y-107802828D01*
X231086104Y-107858732D01*
X231164674Y-107894148D01*
X231250000Y-107906274D01*
X232350000Y-107906274D01*
X232398538Y-107902403D01*
X232480864Y-107876909D01*
X232534040Y-107841868D01*
X232670200Y-107978029D01*
X232670200Y-109443805D01*
X232665128Y-109431560D01*
X232626212Y-109373318D01*
X232576681Y-109323787D01*
X232518439Y-109284871D01*
X232453724Y-109258065D01*
X232385023Y-109244400D01*
X231914300Y-109244400D01*
X231825400Y-109333300D01*
X231825400Y-109824600D01*
X231845400Y-109824600D01*
X231845400Y-109875400D01*
X231825400Y-109875400D01*
X231825400Y-110366700D01*
X231914300Y-110455600D01*
X232385023Y-110455600D01*
X232453724Y-110441935D01*
X232518439Y-110415129D01*
X232576681Y-110376213D01*
X232626212Y-110326682D01*
X232665128Y-110268440D01*
X232670200Y-110256195D01*
X232670200Y-110670200D01*
X232594662Y-110670200D01*
X232579488Y-110647172D01*
X232513896Y-110591268D01*
X232435326Y-110555852D01*
X232350000Y-110543726D01*
X231250000Y-110543726D01*
X231201462Y-110547597D01*
X231119136Y-110573091D01*
X231047172Y-110620512D01*
X230998005Y-110678200D01*
X229913474Y-110678200D01*
X229913474Y-110558000D01*
X229909603Y-110509462D01*
X229884109Y-110427136D01*
X229836688Y-110355172D01*
X229771096Y-110299268D01*
X229743052Y-110286627D01*
X229775639Y-110273129D01*
X229833881Y-110234213D01*
X229883412Y-110184682D01*
X229922328Y-110126440D01*
X229949134Y-110061725D01*
X229962800Y-109993024D01*
X229962800Y-109964300D01*
X230894400Y-109964300D01*
X230894400Y-110135024D01*
X230908066Y-110203725D01*
X230934872Y-110268440D01*
X230973788Y-110326682D01*
X231023319Y-110376213D01*
X231081561Y-110415129D01*
X231146276Y-110441935D01*
X231214977Y-110455600D01*
X231685700Y-110455600D01*
X231774600Y-110366700D01*
X231774600Y-109875400D01*
X230983300Y-109875400D01*
X230894400Y-109964300D01*
X229962800Y-109964300D01*
X229962800Y-109564976D01*
X230894400Y-109564976D01*
X230894400Y-109735700D01*
X230983300Y-109824600D01*
X231774600Y-109824600D01*
X231774600Y-109333300D01*
X231685700Y-109244400D01*
X231214977Y-109244400D01*
X231146276Y-109258065D01*
X231081561Y-109284871D01*
X231023319Y-109323787D01*
X230973788Y-109373318D01*
X230934872Y-109431560D01*
X230908066Y-109496275D01*
X230894400Y-109564976D01*
X229962800Y-109564976D01*
X229962800Y-109522300D01*
X229873900Y-109433400D01*
X229132600Y-109433400D01*
X229132600Y-109453400D01*
X229081800Y-109453400D01*
X229081800Y-109433400D01*
X228340500Y-109433400D01*
X228251600Y-109522300D01*
X228251600Y-109993024D01*
X228265266Y-110061725D01*
X228292072Y-110126440D01*
X228330988Y-110184682D01*
X228380519Y-110234213D01*
X228438761Y-110273129D01*
X228469252Y-110285759D01*
X228404372Y-110328512D01*
X228348468Y-110394104D01*
X228313052Y-110472674D01*
X228300926Y-110558000D01*
X228300926Y-111658000D01*
X228304797Y-111706538D01*
X228330291Y-111788864D01*
X228377712Y-111860828D01*
X228443304Y-111916732D01*
X228521874Y-111952148D01*
X228607200Y-111964274D01*
X229607200Y-111964274D01*
X229655738Y-111960403D01*
X229738064Y-111934909D01*
X229810028Y-111887488D01*
X229865932Y-111821896D01*
X229901348Y-111743326D01*
X229913474Y-111658000D01*
X229913474Y-111537800D01*
X231010609Y-111537800D01*
X231020512Y-111552828D01*
X231086104Y-111608732D01*
X231164674Y-111644148D01*
X231250000Y-111656274D01*
X232350000Y-111656274D01*
X232398538Y-111652403D01*
X232480864Y-111626909D01*
X232552828Y-111579488D01*
X232595177Y-111529800D01*
X232670200Y-111529800D01*
X232670200Y-111565976D01*
X232667378Y-111591135D01*
X232667336Y-111597136D01*
X232667336Y-112983736D01*
X232547136Y-112983736D01*
X232498598Y-112987607D01*
X232416272Y-113013101D01*
X232344308Y-113060522D01*
X232288404Y-113126114D01*
X232252988Y-113204684D01*
X232240862Y-113290010D01*
X232240862Y-113370200D01*
X231025573Y-113370200D01*
X230987379Y-113331739D01*
X230889049Y-113265415D01*
X230779709Y-113219453D01*
X230663525Y-113195603D01*
X230544920Y-113194775D01*
X230428414Y-113217000D01*
X230318443Y-113261431D01*
X230219197Y-113326376D01*
X230134455Y-113409361D01*
X230067446Y-113507226D01*
X230020721Y-113616242D01*
X229996061Y-113732257D01*
X229994405Y-113850853D01*
X230015816Y-113967512D01*
X230059479Y-114077790D01*
X230123729Y-114177488D01*
X230206121Y-114262807D01*
X230303515Y-114330497D01*
X230412202Y-114377982D01*
X230528043Y-114403451D01*
X230646624Y-114405935D01*
X230763430Y-114385339D01*
X230874010Y-114342448D01*
X230974153Y-114278895D01*
X231025708Y-114229800D01*
X232240862Y-114229800D01*
X232240862Y-114290010D01*
X232244733Y-114338548D01*
X232270227Y-114420874D01*
X232317648Y-114492838D01*
X232383240Y-114548742D01*
X232461810Y-114584158D01*
X232547136Y-114596284D01*
X232667336Y-114596284D01*
X232667336Y-115019360D01*
X232622136Y-115012936D01*
X232272136Y-115012936D01*
X232223598Y-115016807D01*
X232141272Y-115042301D01*
X232069308Y-115089722D01*
X232013404Y-115155314D01*
X231977988Y-115233884D01*
X231965862Y-115319210D01*
X231965862Y-115489410D01*
X231944649Y-115489410D01*
X231887379Y-115431739D01*
X231789049Y-115365415D01*
X231679709Y-115319453D01*
X231563525Y-115295603D01*
X231444920Y-115294775D01*
X231328414Y-115317000D01*
X231218443Y-115361431D01*
X231119197Y-115426376D01*
X231071602Y-115472984D01*
X231060464Y-115474076D01*
X231020938Y-115477534D01*
X231018768Y-115478164D01*
X231016518Y-115478385D01*
X230978488Y-115489867D01*
X230940386Y-115500937D01*
X230938381Y-115501976D01*
X230936216Y-115502630D01*
X230901110Y-115521296D01*
X230865914Y-115539540D01*
X230864152Y-115540947D01*
X230862152Y-115542010D01*
X230831313Y-115567161D01*
X230800359Y-115591872D01*
X230797218Y-115594969D01*
X230797148Y-115595026D01*
X230797094Y-115595091D01*
X230796085Y-115596086D01*
X230621972Y-115770200D01*
X227828029Y-115770200D01*
X227253914Y-115196086D01*
X227223231Y-115170882D01*
X227192823Y-115145366D01*
X227190845Y-115144278D01*
X227189096Y-115142842D01*
X227154055Y-115124054D01*
X227119316Y-115104956D01*
X227117165Y-115104274D01*
X227115170Y-115103204D01*
X227077160Y-115091583D01*
X227039360Y-115079592D01*
X227037116Y-115079340D01*
X227034953Y-115078679D01*
X226995407Y-115074662D01*
X226978016Y-115072711D01*
X226976909Y-115069136D01*
X226929488Y-114997172D01*
X226863896Y-114941268D01*
X226785326Y-114905852D01*
X226755247Y-114901577D01*
X226803724Y-114891935D01*
X226868439Y-114865129D01*
X226926681Y-114826213D01*
X226976212Y-114776682D01*
X227015128Y-114718440D01*
X227041934Y-114653725D01*
X227055600Y-114585024D01*
X227055600Y-114364300D01*
X226966700Y-114275400D01*
X225875400Y-114275400D01*
X225875400Y-114295400D01*
X225824600Y-114295400D01*
X225824600Y-114275400D01*
X224733300Y-114275400D01*
X224644400Y-114364300D01*
X220379800Y-114364300D01*
X220379800Y-113914976D01*
X224644400Y-113914976D01*
X224644400Y-114135700D01*
X224733300Y-114224600D01*
X225824600Y-114224600D01*
X225824600Y-113683300D01*
X225875400Y-113683300D01*
X225875400Y-114224600D01*
X226966700Y-114224600D01*
X227055600Y-114135700D01*
X227055600Y-113914976D01*
X227041934Y-113846275D01*
X227015128Y-113781560D01*
X226976212Y-113723318D01*
X226926681Y-113673787D01*
X226868439Y-113634871D01*
X226803724Y-113608065D01*
X226735023Y-113594400D01*
X225964300Y-113594400D01*
X225875400Y-113683300D01*
X225824600Y-113683300D01*
X225735700Y-113594400D01*
X224964977Y-113594400D01*
X224896276Y-113608065D01*
X224831561Y-113634871D01*
X224773319Y-113673787D01*
X224723788Y-113723318D01*
X224684872Y-113781560D01*
X224658066Y-113846275D01*
X224644400Y-113914976D01*
X220379800Y-113914976D01*
X220379800Y-111900000D01*
X220993726Y-111900000D01*
X220993726Y-112900000D01*
X220997597Y-112948538D01*
X221023091Y-113030864D01*
X221070512Y-113102828D01*
X221136104Y-113158732D01*
X221214674Y-113194148D01*
X221300000Y-113206274D01*
X224000000Y-113206274D01*
X224048538Y-113202403D01*
X224130864Y-113176909D01*
X224202828Y-113129488D01*
X224258732Y-113063896D01*
X224294148Y-112985326D01*
X224306274Y-112900000D01*
X224306274Y-111900000D01*
X224302403Y-111851462D01*
X224276909Y-111769136D01*
X224229488Y-111697172D01*
X224163896Y-111641268D01*
X224085326Y-111605852D01*
X224000000Y-111593726D01*
X221300000Y-111593726D01*
X221251462Y-111597597D01*
X221169136Y-111623091D01*
X221097172Y-111670512D01*
X221041268Y-111736104D01*
X221005852Y-111814674D01*
X220993726Y-111900000D01*
X220379800Y-111900000D01*
X220379800Y-109926605D01*
X221143280Y-109926605D01*
X221173428Y-110090869D01*
X221234908Y-110246148D01*
X221325377Y-110386529D01*
X221441390Y-110506664D01*
X221578528Y-110601978D01*
X221731568Y-110668839D01*
X221894679Y-110704701D01*
X222061650Y-110708199D01*
X222226120Y-110679198D01*
X222381825Y-110618804D01*
X222522834Y-110529317D01*
X222643777Y-110414146D01*
X222740045Y-110277676D01*
X222807973Y-110125108D01*
X222844973Y-109962250D01*
X222847637Y-109771496D01*
X222815198Y-109607669D01*
X222751557Y-109453263D01*
X222659136Y-109314159D01*
X222541457Y-109195656D01*
X222403002Y-109102266D01*
X222249044Y-109037548D01*
X222085447Y-109003967D01*
X221918444Y-109002801D01*
X221754394Y-109034095D01*
X221599548Y-109096657D01*
X221459802Y-109188104D01*
X221340480Y-109304953D01*
X221246126Y-109442753D01*
X221180335Y-109596256D01*
X221145612Y-109759614D01*
X221143280Y-109926605D01*
X220379800Y-109926605D01*
X220379800Y-108822976D01*
X228251600Y-108822976D01*
X228251600Y-109293700D01*
X228340500Y-109382600D01*
X229081800Y-109382600D01*
X229081800Y-108591300D01*
X229132600Y-108591300D01*
X229132600Y-109382600D01*
X229873900Y-109382600D01*
X229962800Y-109293700D01*
X229962800Y-108822976D01*
X229949134Y-108754275D01*
X229922328Y-108689560D01*
X229883412Y-108631318D01*
X229833881Y-108581787D01*
X229775639Y-108542871D01*
X229710924Y-108516065D01*
X229642223Y-108502400D01*
X229221500Y-108502400D01*
X229132600Y-108591300D01*
X229081800Y-108591300D01*
X228992900Y-108502400D01*
X228572177Y-108502400D01*
X228503476Y-108516065D01*
X228438761Y-108542871D01*
X228380519Y-108581787D01*
X228330988Y-108631318D01*
X228292072Y-108689560D01*
X228265266Y-108754275D01*
X228251600Y-108822976D01*
X220379800Y-108822976D01*
X220379800Y-106017100D01*
X228251600Y-106017100D01*
X228251600Y-106487824D01*
X228265266Y-106556525D01*
X228292072Y-106621240D01*
X228330988Y-106679482D01*
X228380519Y-106729013D01*
X228438761Y-106767929D01*
X228469252Y-106780559D01*
X228404372Y-106823312D01*
X228348468Y-106888904D01*
X228313052Y-106967474D01*
X228300926Y-107052800D01*
X228300926Y-108152800D01*
X228304797Y-108201338D01*
X228330291Y-108283664D01*
X228377712Y-108355628D01*
X228443304Y-108411532D01*
X228521874Y-108446948D01*
X228607200Y-108459074D01*
X229607200Y-108459074D01*
X229655738Y-108455203D01*
X229738064Y-108429709D01*
X229810028Y-108382288D01*
X229865932Y-108316696D01*
X229896175Y-108249603D01*
X230550486Y-108903915D01*
X230581199Y-108929143D01*
X230611577Y-108954634D01*
X230613555Y-108955722D01*
X230615304Y-108957158D01*
X230650345Y-108975946D01*
X230685084Y-108995044D01*
X230687235Y-108995726D01*
X230689230Y-108996796D01*
X230727240Y-109008417D01*
X230765040Y-109020408D01*
X230767284Y-109020660D01*
X230769447Y-109021321D01*
X230808993Y-109025338D01*
X230848399Y-109029758D01*
X230852810Y-109029789D01*
X230852900Y-109029798D01*
X230852984Y-109029790D01*
X230854400Y-109029800D01*
X231005338Y-109029800D01*
X231020512Y-109052828D01*
X231086104Y-109108732D01*
X231164674Y-109144148D01*
X231250000Y-109156274D01*
X232350000Y-109156274D01*
X232398538Y-109152403D01*
X232480864Y-109126909D01*
X232552828Y-109079488D01*
X232608732Y-109013896D01*
X232644148Y-108935326D01*
X232656274Y-108850000D01*
X232656274Y-108350000D01*
X232652403Y-108301462D01*
X232626909Y-108219136D01*
X232579488Y-108147172D01*
X232513896Y-108091268D01*
X232435326Y-108055852D01*
X232350000Y-108043726D01*
X231250000Y-108043726D01*
X231201462Y-108047597D01*
X231119136Y-108073091D01*
X231047172Y-108120512D01*
X231017525Y-108155296D01*
X230161114Y-107298886D01*
X230130431Y-107273682D01*
X230100023Y-107248166D01*
X230098045Y-107247078D01*
X230096296Y-107245642D01*
X230061255Y-107226854D01*
X230026516Y-107207756D01*
X230024365Y-107207074D01*
X230022370Y-107206004D01*
X229984360Y-107194383D01*
X229946560Y-107182392D01*
X229944316Y-107182140D01*
X229942153Y-107181479D01*
X229913474Y-107178566D01*
X229913474Y-107052800D01*
X229909603Y-107004262D01*
X229884109Y-106921936D01*
X229836688Y-106849972D01*
X229771096Y-106794068D01*
X229743052Y-106781427D01*
X229775639Y-106767929D01*
X229833881Y-106729013D01*
X229883412Y-106679482D01*
X229922328Y-106621240D01*
X229949134Y-106556525D01*
X229962800Y-106487824D01*
X229962800Y-106017100D01*
X229873900Y-105928200D01*
X229132600Y-105928200D01*
X229132600Y-105948200D01*
X229081800Y-105948200D01*
X229081800Y-105928200D01*
X228340500Y-105928200D01*
X228251600Y-106017100D01*
X220379800Y-106017100D01*
X220379800Y-105317776D01*
X228251600Y-105317776D01*
X228251600Y-105788500D01*
X228340500Y-105877400D01*
X229081800Y-105877400D01*
X229081800Y-105086100D01*
X229132600Y-105086100D01*
X229132600Y-105877400D01*
X229873900Y-105877400D01*
X229962800Y-105788500D01*
X229962800Y-105317776D01*
X229949134Y-105249075D01*
X229922328Y-105184360D01*
X229883412Y-105126118D01*
X229833881Y-105076587D01*
X229775639Y-105037671D01*
X229710924Y-105010865D01*
X229642223Y-104997200D01*
X229221500Y-104997200D01*
X229132600Y-105086100D01*
X229081800Y-105086100D01*
X228992900Y-104997200D01*
X228572177Y-104997200D01*
X228503476Y-105010865D01*
X228438761Y-105037671D01*
X228380519Y-105076587D01*
X228330988Y-105126118D01*
X228292072Y-105184360D01*
X228265266Y-105249075D01*
X228251600Y-105317776D01*
X220379800Y-105317776D01*
X220379800Y-103160161D01*
X221092696Y-103160161D01*
X221160129Y-103527575D01*
X221297642Y-103874893D01*
X221499997Y-104188887D01*
X221759487Y-104457597D01*
X222066228Y-104670788D01*
X222408536Y-104820338D01*
X222773373Y-104900553D01*
X223146842Y-104908376D01*
X223514717Y-104843510D01*
X223862987Y-104708424D01*
X224178387Y-104508266D01*
X224448901Y-104250658D01*
X224664228Y-103945413D01*
X224816165Y-103604158D01*
X224898924Y-103239890D01*
X224900037Y-103160161D01*
X235092696Y-103160161D01*
X235160129Y-103527575D01*
X235297642Y-103874893D01*
X235499997Y-104188887D01*
X235759487Y-104457597D01*
X236066228Y-104670788D01*
X236408536Y-104820338D01*
X236773373Y-104900553D01*
X237146842Y-104908376D01*
X237514717Y-104843510D01*
X237862987Y-104708424D01*
X238178387Y-104508266D01*
X238448901Y-104250658D01*
X238664228Y-103945413D01*
X238816165Y-103604158D01*
X238898924Y-103239890D01*
X238904882Y-102813225D01*
X238832326Y-102446788D01*
X238689977Y-102101423D01*
X238483257Y-101790285D01*
X238220040Y-101525225D01*
X237910353Y-101316338D01*
X237565990Y-101171581D01*
X237200069Y-101096468D01*
X236826528Y-101093860D01*
X236459594Y-101163857D01*
X236113244Y-101303791D01*
X235800670Y-101508334D01*
X235533778Y-101769694D01*
X235322734Y-102077915D01*
X235175577Y-102421259D01*
X235097911Y-102786647D01*
X235092696Y-103160161D01*
X224900037Y-103160161D01*
X224904882Y-102813225D01*
X224832326Y-102446788D01*
X224689977Y-102101423D01*
X224483257Y-101790285D01*
X224220040Y-101525225D01*
X223910353Y-101316338D01*
X223565990Y-101171581D01*
X223200069Y-101096468D01*
X222826528Y-101093860D01*
X222459594Y-101163857D01*
X222113244Y-101303791D01*
X221800670Y-101508334D01*
X221533778Y-101769694D01*
X221322734Y-102077915D01*
X221175577Y-102421259D01*
X221097911Y-102786647D01*
X221092696Y-103160161D01*
X220379800Y-103160161D01*
X220379800Y-100379800D01*
X239620200Y-100379800D01*
X239620200Y-131620200D01*
M02*
