G04 #@! TF.FileFunction,Profile,NP*
%FSLAX46Y46*%
G04 Gerber Fmt 4.6, Leading zero omitted, Abs format (unit mm)*
G04 Created by KiCad (PCBNEW 4.0.7-e2-6376~58~ubuntu16.04.1) date Thu Feb 15 15:21:06 2018*
%MOMM*%
%LPD*%
G01*
G04 APERTURE LIST*
%ADD10C,0.100000*%
%ADD11C,0.150000*%
G04 APERTURE END LIST*
D10*
D11*
X54965600Y-1270000D02*
G75*
G03X56388000Y152400I0J1422400D01*
G01*
X56388000Y-5232400D02*
G75*
G03X54965600Y-3810000I-1422400J0D01*
G01*
X42164000Y15773400D02*
G75*
G03X40741600Y17195800I-1422400J0D01*
G01*
X46126400Y17195800D02*
G75*
G03X44704000Y15773400I0J-1422400D01*
G01*
X-48209200Y17221200D02*
G75*
G03X-49631600Y15798800I0J-1422400D01*
G01*
X-49631600Y-18389600D02*
G75*
G03X-48209200Y-19812000I1422400J0D01*
G01*
X44704000Y-18389600D02*
G75*
G03X46126400Y-19812000I1422400J0D01*
G01*
X40741600Y-19812000D02*
G75*
G03X42164000Y-18389600I0J1422400D01*
G01*
X54965600Y-19812000D02*
G75*
G03X56388000Y-18389600I0J1422400D01*
G01*
X56388000Y15773400D02*
G75*
G03X54965600Y17195800I-1422400J0D01*
G01*
X54508400Y-3810000D02*
X54965600Y-3810000D01*
X54508400Y-1270000D02*
X54965600Y-1270000D01*
X54508400Y-1270000D02*
G75*
G03X54508400Y-3810000I0J-1270000D01*
G01*
X50444400Y-3810000D02*
G75*
G03X50444400Y-1270000I0J1270000D01*
G01*
X42164000Y-8458200D02*
G75*
G03X44704000Y-8458200I1270000J0D01*
G01*
X44704000Y2108200D02*
G75*
G03X42164000Y2108200I-1270000J0D01*
G01*
X56388000Y-5232400D02*
X56388000Y-18389600D01*
X45974000Y-3810000D02*
G75*
G03X44704000Y-5080000I0J-1270000D01*
G01*
X45974000Y-1270000D02*
X50444400Y-1270000D01*
X44704000Y0D02*
G75*
G03X45974000Y-1270000I1270000J0D01*
G01*
X50444400Y-3810000D02*
X45974000Y-3810000D01*
X42164000Y-8458200D02*
X42164000Y-5486400D01*
X44704000Y-5080000D02*
X44704000Y-8458200D01*
X44704000Y0D02*
X44704000Y2108200D01*
X42164000Y2108200D02*
X42164000Y-5486400D01*
X44704000Y8077200D02*
X44704000Y15773400D01*
X42164000Y8051800D02*
X42164000Y15773400D01*
X44704000Y-13462000D02*
X44704000Y-18389600D01*
X42164000Y-13462000D02*
X42164000Y-18389600D01*
X44704000Y-13462000D02*
G75*
G03X42164000Y-13462000I-1270000J17400D01*
G01*
X42163746Y8051800D02*
G75*
G03X44704000Y8077200I1270254J0D01*
G01*
X46126400Y17195800D02*
X54965600Y17195800D01*
X46126400Y-19812000D02*
X54965600Y-19812000D01*
X-48209200Y-19812000D02*
X40741600Y-19812000D01*
X40741600Y17195800D02*
X-48209200Y17221200D01*
X-49631600Y15798800D02*
X-49631600Y-18389600D01*
X56388000Y152400D02*
X56388000Y15773400D01*
M02*
