M48
;DRILL file {KiCad 4.0.7-e2-6376~58~ubuntu16.04.1} date Thu Feb 15 15:21:07 2018
;FORMAT={-:-/ absolute / inch / decimal}
FMAT,2
INCH,TZ
T1C0.012
T2C0.028
T3C0.039
T4C0.040
%
G90
G05
M72
T1
X3.206Y-5.516
X3.206Y-5.54
X3.2927Y-5.2003
X3.317Y-5.612
X3.338Y-4.626
X3.338Y-4.66
X3.34Y-4.356
X3.34Y-4.388
X3.4Y-5.075
X3.4Y-5.075
X3.404Y-4.766
X3.4633Y-4.741
X3.4647Y-4.6293
X3.4647Y-4.6588
X3.489Y-4.741
X3.4942Y-4.6293
X3.4942Y-4.6588
X3.54Y-4.72
X3.56Y-5.636
X3.56Y-5.686
X3.56Y-5.708
X3.56Y-5.73
X3.574Y-5.054
X3.586Y-5.024
X3.592Y-5.638
X3.594Y-5.186
X3.6Y-4.792
X3.628Y-5.736
X3.648Y-4.792
X3.665Y-5.612
X3.729Y-4.349
X3.75Y-4.59
X3.75Y-4.614
X3.75Y-4.638
X3.7968Y-4.424
X3.8Y-4.615
X3.816Y-5.272
X3.855Y-5.118
X3.862Y-5.3933
X3.8835Y-5.118
X3.9115Y-5.6287
X3.9538Y-5.6315
X3.954Y-5.084
X3.968Y-4.64
X3.968Y-4.686
X3.968Y-4.8468
X3.9719Y-5.5528
X3.9901Y-5.3992
X3.996Y-4.9
X3.9975Y-4.7551
X3.9975Y-4.7886
X4.01Y-5.3733
X4.02Y-4.9
X4.0299Y-4.7551
X4.0299Y-4.7886
X4.044Y-4.9
X4.0624Y-4.7551
X4.0624Y-4.7886
X4.064Y-5.422
X4.09Y-5.35
X4.0949Y-4.7551
X4.0949Y-4.7886
X4.126Y-4.596
X4.132Y-4.564
X4.138Y-4.67
X4.144Y-4.994
X4.166Y-4.436
X4.1853Y-5.3733
X4.186Y-5.194
X4.202Y-5.072
X4.214Y-4.434
X4.225Y-5.495
X4.257Y-5.12
X4.259Y-5.371
X4.293Y-5.154
X4.341Y-5.667
X4.408Y-5.144
X4.4119Y-5.4331
X4.428Y-4.644
X4.428Y-4.696
X4.448Y-4.845
X4.448Y-4.87
X4.448Y-4.895
X4.448Y-4.92
X4.448Y-5.072
X4.448Y-5.1943
X4.482Y-5.275
X4.491Y-5.12
X4.51Y-5.226
X4.648Y-5.072
X4.666Y-5.393
X4.708Y-5.474
X4.708Y-5.518
X4.727Y-4.939
X4.736Y-5.654
X4.74Y-4.963
X4.7721Y-4.9715
X4.786Y-4.884
X4.8Y-4.973
X4.804Y-4.86
X4.826Y-4.98
X4.836Y-4.836
X4.85Y-5.636
X4.872Y-4.836
X4.884Y-5.551
X4.895Y-4.515
X4.91Y-4.992
X4.915Y-5.074
X4.92Y-4.54
X4.924Y-5.518
X4.94Y-4.56
X4.948Y-5.474
X4.965Y-4.585
X4.968Y-4.726
X4.9732Y-5.2444
X4.9753Y-5.2156
X5.002Y-5.566
X5.0021Y-5.1745
X5.0021Y-5.213
X5.022Y-5.598
X5.042Y-4.554
X5.055Y-5.393
X5.064Y-5.154
X5.0882Y-5.192
X5.096Y-5.113
X5.104Y-4.832
X5.106Y-5.089
X5.144Y-4.766
X5.1453Y-5.0693
X5.178Y-5.3
X5.202Y-5.278
X5.218Y-4.524
X5.25Y-5.02
X5.26Y-4.636
X5.26Y-4.7
X5.26Y-4.74
X5.26Y-4.801
X5.298Y-5.058
X5.338Y-5.17
X5.362Y-4.392
X5.362Y-4.414
X5.362Y-4.436
X5.3643Y-4.7112
X5.366Y-5.198
X5.372Y-4.684
X5.4245Y-5.002
X5.53Y-5.3
X5.58Y-5.28
X5.728Y-4.801
X5.76Y-4.436
X5.76Y-4.558
X5.772Y-5.056
X5.794Y-4.834
X5.8266Y-4.8672
X5.83Y-4.61
X5.852Y-5.614
X5.878Y-5.534
X5.882Y-5.032
X5.882Y-5.068
X5.958Y-4.436
X5.958Y-4.61
X5.958Y-4.768
X5.978Y-5.076
X6.158Y-4.436
X6.158Y-4.61
X6.158Y-4.848
X6.172Y-4.9
X6.186Y-5.546
X6.208Y-5.616
X6.228Y-4.918
X6.262Y-4.801
X6.262Y-5.144
X6.34Y-5.634
X6.358Y-4.436
X6.358Y-4.61
X6.378Y-4.982
X6.944Y-4.44
X6.97Y-5.28
X6.97Y-5.31
X7.Y-5.31
X7.005Y-5.467
X7.005Y-5.5
X7.005Y-5.529
X7.051Y-5.4668
X7.094Y-4.479
X7.108Y-5.717
X7.111Y-5.237
X7.111Y-5.35
X7.13Y-5.595
X7.1475Y-5.7555
X7.153Y-5.186
X7.153Y-5.339
X7.1755Y-5.7555
T2
X3.248Y-4.7405
X3.248Y-4.9315
T3
X4.488Y-5.686
X4.588Y-5.686
X4.688Y-5.686
X4.788Y-5.686
X4.888Y-5.686
X4.988Y-5.686
X5.088Y-5.686
X5.188Y-5.686
X5.288Y-5.686
X6.582Y-4.55
X6.582Y-4.65
X6.582Y-4.75
X6.582Y-4.85
X6.582Y-4.95
X6.582Y-5.05
X6.582Y-5.15
X6.582Y-5.25
X6.582Y-5.35
X6.582Y-5.45
X6.582Y-5.55
X6.8537Y-4.55
X6.8537Y-4.65
X6.8537Y-4.75
X6.8537Y-4.85
X6.8537Y-4.95
X6.8537Y-5.25
X6.8537Y-5.35
X6.8537Y-5.45
X6.8537Y-5.55
T4
X7.1433Y-4.5514
T2
X3.1516Y-4.6933G85X3.1358Y-4.6933
G05
X3.1516Y-4.9787G85X3.1358Y-4.9787
G05
T0
M30
