G04 #@! TF.FileFunction,Legend,Top*
%FSLAX46Y46*%
G04 Gerber Fmt 4.6, Leading zero omitted, Abs format (unit mm)*
G04 Created by KiCad (PCBNEW 4.0.7-e2-6376~58~ubuntu16.04.1) date Thu Feb 15 15:21:06 2018*
%MOMM*%
%LPD*%
G01*
G04 APERTURE LIST*
%ADD10C,0.100000*%
%ADD11C,0.200000*%
%ADD12C,0.010000*%
%ADD13C,0.127000*%
%ADD14C,0.150000*%
%ADD15C,0.120000*%
%ADD16C,0.300000*%
G04 APERTURE END LIST*
D10*
D11*
X-32570681Y-12635100D02*
X-31570681Y-12635100D01*
X-31570681Y-12873195D01*
X-31618300Y-13016053D01*
X-31713538Y-13111291D01*
X-31808776Y-13158910D01*
X-31999252Y-13206529D01*
X-32142110Y-13206529D01*
X-32332586Y-13158910D01*
X-32427824Y-13111291D01*
X-32523062Y-13016053D01*
X-32570681Y-12873195D01*
X-32570681Y-12635100D01*
X-32284967Y-13587481D02*
X-32284967Y-14063672D01*
X-32570681Y-13492243D02*
X-31570681Y-13825576D01*
X-32570681Y-14158910D01*
X-31570681Y-14349386D02*
X-31570681Y-14920815D01*
X-32570681Y-14635100D02*
X-31570681Y-14635100D01*
X-32284967Y-15206529D02*
X-32284967Y-15682720D01*
X-32570681Y-15111291D02*
X-31570681Y-15444624D01*
X-32570681Y-15777958D01*
X-28805143Y-12695396D02*
X-28852762Y-12647777D01*
X-28900381Y-12504920D01*
X-28900381Y-12409682D01*
X-28852762Y-12266824D01*
X-28757524Y-12171586D01*
X-28662286Y-12123967D01*
X-28471810Y-12076348D01*
X-28328952Y-12076348D01*
X-28138476Y-12123967D01*
X-28043238Y-12171586D01*
X-27948000Y-12266824D01*
X-27900381Y-12409682D01*
X-27900381Y-12504920D01*
X-27948000Y-12647777D01*
X-27995619Y-12695396D01*
X-27900381Y-13314443D02*
X-27900381Y-13504920D01*
X-27948000Y-13600158D01*
X-28043238Y-13695396D01*
X-28233714Y-13743015D01*
X-28567048Y-13743015D01*
X-28757524Y-13695396D01*
X-28852762Y-13600158D01*
X-28900381Y-13504920D01*
X-28900381Y-13314443D01*
X-28852762Y-13219205D01*
X-28757524Y-13123967D01*
X-28567048Y-13076348D01*
X-28233714Y-13076348D01*
X-28043238Y-13123967D01*
X-27948000Y-13219205D01*
X-27900381Y-13314443D01*
X-28900381Y-14171586D02*
X-27900381Y-14171586D01*
X-28900381Y-14743015D01*
X-27900381Y-14743015D01*
X-28900381Y-15219205D02*
X-27900381Y-15219205D01*
X-28900381Y-15790634D01*
X-27900381Y-15790634D01*
X-2316171Y16522628D02*
X-2316171Y16855962D01*
X-2839981Y16855962D02*
X-1839981Y16855962D01*
X-1839981Y16379771D01*
X-2839981Y15998819D02*
X-1839981Y15998819D01*
X-1839981Y15617867D02*
X-2839981Y14951200D01*
X-1839981Y14951200D02*
X-2839981Y15617867D01*
X-42970629Y16092514D02*
X-43208724Y16759181D01*
X-43446820Y16092514D01*
X-44018248Y15759181D02*
X-44113487Y15759181D01*
X-44208725Y15806800D01*
X-44256344Y15854419D01*
X-44303963Y15949657D01*
X-44351582Y16140133D01*
X-44351582Y16378229D01*
X-44303963Y16568705D01*
X-44256344Y16663943D01*
X-44208725Y16711562D01*
X-44113487Y16759181D01*
X-44018248Y16759181D01*
X-43923010Y16711562D01*
X-43875391Y16663943D01*
X-43827772Y16568705D01*
X-43780153Y16378229D01*
X-43780153Y16140133D01*
X-43827772Y15949657D01*
X-43875391Y15854419D01*
X-43923010Y15806800D01*
X-44018248Y15759181D01*
X-44780153Y16663943D02*
X-44827772Y16711562D01*
X-44780153Y16759181D01*
X-44732534Y16711562D01*
X-44780153Y16663943D01*
X-44780153Y16759181D01*
X-45161105Y15759181D02*
X-45827772Y15759181D01*
X-45399200Y16759181D01*
X-31446743Y13109485D02*
X-31494362Y13157104D01*
X-31541981Y13299961D01*
X-31541981Y13395199D01*
X-31494362Y13538057D01*
X-31399124Y13633295D01*
X-31303886Y13680914D01*
X-31113410Y13728533D01*
X-30970552Y13728533D01*
X-30780076Y13680914D01*
X-30684838Y13633295D01*
X-30589600Y13538057D01*
X-30541981Y13395199D01*
X-30541981Y13299961D01*
X-30589600Y13157104D01*
X-30637219Y13109485D01*
X-31541981Y12680914D02*
X-30541981Y12680914D01*
X-31018171Y12680914D02*
X-31018171Y12109485D01*
X-31541981Y12109485D02*
X-30541981Y12109485D01*
X-30589600Y11109485D02*
X-30541981Y11204723D01*
X-30541981Y11347580D01*
X-30589600Y11490438D01*
X-30684838Y11585676D01*
X-30780076Y11633295D01*
X-30970552Y11680914D01*
X-31113410Y11680914D01*
X-31303886Y11633295D01*
X-31399124Y11585676D01*
X-31494362Y11490438D01*
X-31541981Y11347580D01*
X-31541981Y11252342D01*
X-31494362Y11109485D01*
X-31446743Y11061866D01*
X-31113410Y11061866D01*
X-31113410Y11252342D01*
X-31541981Y16916305D02*
X-30541981Y16916305D01*
X-30541981Y16535352D01*
X-30589600Y16440114D01*
X-30637219Y16392495D01*
X-30732457Y16344876D01*
X-30875314Y16344876D01*
X-30970552Y16392495D01*
X-31018171Y16440114D01*
X-31065790Y16535352D01*
X-31065790Y16916305D01*
X-30589600Y15392495D02*
X-30541981Y15487733D01*
X-30541981Y15630590D01*
X-30589600Y15773448D01*
X-30684838Y15868686D01*
X-30780076Y15916305D01*
X-30970552Y15963924D01*
X-31113410Y15963924D01*
X-31303886Y15916305D01*
X-31399124Y15868686D01*
X-31494362Y15773448D01*
X-31541981Y15630590D01*
X-31541981Y15535352D01*
X-31494362Y15392495D01*
X-31446743Y15344876D01*
X-31113410Y15344876D01*
X-31113410Y15535352D01*
X18603933Y16728986D02*
X18603933Y16252795D01*
X18318219Y16824224D02*
X19318219Y16490891D01*
X18318219Y16157557D01*
X18984886Y15395652D02*
X18318219Y15395652D01*
X19365838Y15633748D02*
X18651552Y15871843D01*
X18651552Y15252795D01*
X23620433Y16716286D02*
X23620433Y16240095D01*
X23334719Y16811524D02*
X24334719Y16478191D01*
X23334719Y16144857D01*
X24334719Y15335333D02*
X24334719Y15811524D01*
X23858529Y15859143D01*
X23906148Y15811524D01*
X23953767Y15716286D01*
X23953767Y15478190D01*
X23906148Y15382952D01*
X23858529Y15335333D01*
X23763290Y15287714D01*
X23525195Y15287714D01*
X23429957Y15335333D01*
X23382338Y15382952D01*
X23334719Y15478190D01*
X23334719Y15716286D01*
X23382338Y15811524D01*
X23429957Y15859143D01*
X28687733Y16716286D02*
X28687733Y16240095D01*
X28402019Y16811524D02*
X29402019Y16478191D01*
X28402019Y16144857D01*
X29402019Y15906762D02*
X29402019Y15287714D01*
X29021067Y15621048D01*
X29021067Y15478190D01*
X28973448Y15382952D01*
X28925829Y15335333D01*
X28830590Y15287714D01*
X28592495Y15287714D01*
X28497257Y15335333D01*
X28449638Y15382952D01*
X28402019Y15478190D01*
X28402019Y15763905D01*
X28449638Y15859143D01*
X28497257Y15906762D01*
X33456619Y16835286D02*
X34456619Y16835286D01*
X34456619Y16597191D01*
X34409000Y16454333D01*
X34313762Y16359095D01*
X34218524Y16311476D01*
X34028048Y16263857D01*
X33885190Y16263857D01*
X33694714Y16311476D01*
X33599476Y16359095D01*
X33504238Y16454333D01*
X33456619Y16597191D01*
X33456619Y16835286D01*
X33456619Y15311476D02*
X33456619Y15882905D01*
X33456619Y15597191D02*
X34456619Y15597191D01*
X34313762Y15692429D01*
X34218524Y15787667D01*
X34170905Y15882905D01*
X34456619Y14978143D02*
X34456619Y14359095D01*
X34075667Y14692429D01*
X34075667Y14549571D01*
X34028048Y14454333D01*
X33980429Y14406714D01*
X33885190Y14359095D01*
X33647095Y14359095D01*
X33551857Y14406714D01*
X33504238Y14454333D01*
X33456619Y14549571D01*
X33456619Y14835286D01*
X33504238Y14930524D01*
X33551857Y14978143D01*
D12*
G36*
X-9874108Y-11027289D02*
X-9819675Y-11031286D01*
X-9772154Y-11038061D01*
X-9746754Y-11043994D01*
X-9662446Y-11075398D01*
X-9586686Y-11118254D01*
X-9520150Y-11171945D01*
X-9463510Y-11235851D01*
X-9417444Y-11309353D01*
X-9389753Y-11371692D01*
X-9369870Y-11431313D01*
X-9355442Y-11490924D01*
X-9345608Y-11555061D01*
X-9339508Y-11628258D01*
X-9338884Y-11639869D01*
X-9334079Y-11734800D01*
X-10107145Y-11734800D01*
X-10102233Y-11754757D01*
X-10085518Y-11796363D01*
X-10057767Y-11836528D01*
X-10022258Y-11871425D01*
X-9982274Y-11897227D01*
X-9978616Y-11898951D01*
X-9921448Y-11917283D01*
X-9860790Y-11922508D01*
X-9798590Y-11914976D01*
X-9736799Y-11895036D01*
X-9677366Y-11863036D01*
X-9644826Y-11839155D01*
X-9604944Y-11806668D01*
X-9496029Y-11898038D01*
X-9462515Y-11926412D01*
X-9433181Y-11951744D01*
X-9409721Y-11972528D01*
X-9393831Y-11987259D01*
X-9387207Y-11994432D01*
X-9387115Y-11994728D01*
X-9392245Y-12002864D01*
X-9406008Y-12018091D01*
X-9425963Y-12038115D01*
X-9449670Y-12060646D01*
X-9474688Y-12083391D01*
X-9498577Y-12104057D01*
X-9518895Y-12120352D01*
X-9527269Y-12126358D01*
X-9589921Y-12161795D01*
X-9662313Y-12191273D01*
X-9714356Y-12206841D01*
X-9757808Y-12215338D01*
X-9810550Y-12221522D01*
X-9867524Y-12225148D01*
X-9923671Y-12225970D01*
X-9973932Y-12223743D01*
X-10000061Y-12220701D01*
X-10093125Y-12199435D01*
X-10179672Y-12166211D01*
X-10258610Y-12121702D01*
X-10328850Y-12066583D01*
X-10389302Y-12001528D01*
X-10417553Y-11962412D01*
X-10458636Y-11887418D01*
X-10487748Y-11806976D01*
X-10505171Y-11722815D01*
X-10511183Y-11636666D01*
X-10506063Y-11550259D01*
X-10502555Y-11531600D01*
X-10114643Y-11531600D01*
X-9720943Y-11531600D01*
X-9720943Y-11513730D01*
X-9725180Y-11487683D01*
X-9736384Y-11455625D01*
X-9752300Y-11422749D01*
X-9770668Y-11394248D01*
X-9775449Y-11388334D01*
X-9809243Y-11356969D01*
X-9847769Y-11337639D01*
X-9893738Y-11329173D01*
X-9913734Y-11328560D01*
X-9962783Y-11333137D01*
X-10003015Y-11347311D01*
X-10037437Y-11372259D01*
X-10045307Y-11380128D01*
X-10064764Y-11405806D01*
X-10084043Y-11439727D01*
X-10100125Y-11475899D01*
X-10109989Y-11508331D01*
X-10110017Y-11508469D01*
X-10114643Y-11531600D01*
X-10502555Y-11531600D01*
X-10490093Y-11465324D01*
X-10463551Y-11383593D01*
X-10426717Y-11306794D01*
X-10379871Y-11236660D01*
X-10323293Y-11174918D01*
X-10285082Y-11142843D01*
X-10237000Y-11110934D01*
X-10180964Y-11080836D01*
X-10123203Y-11055620D01*
X-10076543Y-11040082D01*
X-10036673Y-11032466D01*
X-9986829Y-11027829D01*
X-9931233Y-11026120D01*
X-9874108Y-11027289D01*
X-9874108Y-11027289D01*
G37*
X-9874108Y-11027289D02*
X-9819675Y-11031286D01*
X-9772154Y-11038061D01*
X-9746754Y-11043994D01*
X-9662446Y-11075398D01*
X-9586686Y-11118254D01*
X-9520150Y-11171945D01*
X-9463510Y-11235851D01*
X-9417444Y-11309353D01*
X-9389753Y-11371692D01*
X-9369870Y-11431313D01*
X-9355442Y-11490924D01*
X-9345608Y-11555061D01*
X-9339508Y-11628258D01*
X-9338884Y-11639869D01*
X-9334079Y-11734800D01*
X-10107145Y-11734800D01*
X-10102233Y-11754757D01*
X-10085518Y-11796363D01*
X-10057767Y-11836528D01*
X-10022258Y-11871425D01*
X-9982274Y-11897227D01*
X-9978616Y-11898951D01*
X-9921448Y-11917283D01*
X-9860790Y-11922508D01*
X-9798590Y-11914976D01*
X-9736799Y-11895036D01*
X-9677366Y-11863036D01*
X-9644826Y-11839155D01*
X-9604944Y-11806668D01*
X-9496029Y-11898038D01*
X-9462515Y-11926412D01*
X-9433181Y-11951744D01*
X-9409721Y-11972528D01*
X-9393831Y-11987259D01*
X-9387207Y-11994432D01*
X-9387115Y-11994728D01*
X-9392245Y-12002864D01*
X-9406008Y-12018091D01*
X-9425963Y-12038115D01*
X-9449670Y-12060646D01*
X-9474688Y-12083391D01*
X-9498577Y-12104057D01*
X-9518895Y-12120352D01*
X-9527269Y-12126358D01*
X-9589921Y-12161795D01*
X-9662313Y-12191273D01*
X-9714356Y-12206841D01*
X-9757808Y-12215338D01*
X-9810550Y-12221522D01*
X-9867524Y-12225148D01*
X-9923671Y-12225970D01*
X-9973932Y-12223743D01*
X-10000061Y-12220701D01*
X-10093125Y-12199435D01*
X-10179672Y-12166211D01*
X-10258610Y-12121702D01*
X-10328850Y-12066583D01*
X-10389302Y-12001528D01*
X-10417553Y-11962412D01*
X-10458636Y-11887418D01*
X-10487748Y-11806976D01*
X-10505171Y-11722815D01*
X-10511183Y-11636666D01*
X-10506063Y-11550259D01*
X-10502555Y-11531600D01*
X-10114643Y-11531600D01*
X-9720943Y-11531600D01*
X-9720943Y-11513730D01*
X-9725180Y-11487683D01*
X-9736384Y-11455625D01*
X-9752300Y-11422749D01*
X-9770668Y-11394248D01*
X-9775449Y-11388334D01*
X-9809243Y-11356969D01*
X-9847769Y-11337639D01*
X-9893738Y-11329173D01*
X-9913734Y-11328560D01*
X-9962783Y-11333137D01*
X-10003015Y-11347311D01*
X-10037437Y-11372259D01*
X-10045307Y-11380128D01*
X-10064764Y-11405806D01*
X-10084043Y-11439727D01*
X-10100125Y-11475899D01*
X-10109989Y-11508331D01*
X-10110017Y-11508469D01*
X-10114643Y-11531600D01*
X-10502555Y-11531600D01*
X-10490093Y-11465324D01*
X-10463551Y-11383593D01*
X-10426717Y-11306794D01*
X-10379871Y-11236660D01*
X-10323293Y-11174918D01*
X-10285082Y-11142843D01*
X-10237000Y-11110934D01*
X-10180964Y-11080836D01*
X-10123203Y-11055620D01*
X-10076543Y-11040082D01*
X-10036673Y-11032466D01*
X-9986829Y-11027829D01*
X-9931233Y-11026120D01*
X-9874108Y-11027289D01*
G36*
X-7436720Y-11422743D02*
X-7434869Y-12195629D01*
X-7641735Y-12193597D01*
X-7848600Y-12191565D01*
X-7848600Y-12052356D01*
X-7899351Y-12100232D01*
X-7926762Y-12124539D01*
X-7955672Y-12147679D01*
X-7981110Y-12165742D01*
X-7988251Y-12170129D01*
X-8052765Y-12199548D01*
X-8123685Y-12218087D01*
X-8197133Y-12225111D01*
X-8269233Y-12219985D01*
X-8280400Y-12217992D01*
X-8363071Y-12194930D01*
X-8438329Y-12159639D01*
X-8505661Y-12112658D01*
X-8564557Y-12054527D01*
X-8614506Y-11985784D01*
X-8654996Y-11906969D01*
X-8685517Y-11818620D01*
X-8694758Y-11781009D01*
X-8703669Y-11723013D01*
X-8707614Y-11656726D01*
X-8706697Y-11587421D01*
X-8701022Y-11520368D01*
X-8690694Y-11460840D01*
X-8688238Y-11450909D01*
X-8678705Y-11418314D01*
X-8666851Y-11383457D01*
X-8653811Y-11349060D01*
X-8640721Y-11317841D01*
X-8628717Y-11292521D01*
X-8618933Y-11275820D01*
X-8612887Y-11270406D01*
X-8607775Y-11276124D01*
X-8595415Y-11292267D01*
X-8576859Y-11317355D01*
X-8553160Y-11349905D01*
X-8525370Y-11388438D01*
X-8494542Y-11431472D01*
X-8461729Y-11477526D01*
X-8427985Y-11525121D01*
X-8394361Y-11572774D01*
X-8361910Y-11619004D01*
X-8331686Y-11662332D01*
X-8304740Y-11701277D01*
X-8282127Y-11734356D01*
X-8266607Y-11757497D01*
X-8239611Y-11798337D01*
X-7851221Y-11988551D01*
X-7781348Y-12022709D01*
X-7715428Y-12054817D01*
X-7654598Y-12084327D01*
X-7599998Y-12110693D01*
X-7552767Y-12133368D01*
X-7514043Y-12151805D01*
X-7484964Y-12165457D01*
X-7466670Y-12173778D01*
X-7460308Y-12176241D01*
X-7463802Y-12169948D01*
X-7474755Y-12152717D01*
X-7492457Y-12125610D01*
X-7516204Y-12089688D01*
X-7545287Y-12046014D01*
X-7578999Y-11995650D01*
X-7616635Y-11939658D01*
X-7657486Y-11879100D01*
X-7694921Y-11823780D01*
X-7932057Y-11473842D01*
X-8227019Y-11321293D01*
X-8287491Y-11290073D01*
X-8344007Y-11261002D01*
X-8395264Y-11234743D01*
X-8439958Y-11211958D01*
X-8476786Y-11193311D01*
X-8504445Y-11179464D01*
X-8521630Y-11171079D01*
X-8527027Y-11168743D01*
X-8536238Y-11174814D01*
X-8552043Y-11192380D01*
X-8573603Y-11220471D01*
X-8582197Y-11232392D01*
X-8595642Y-11249059D01*
X-8606476Y-11258556D01*
X-8610641Y-11259433D01*
X-8616910Y-11252347D01*
X-8629773Y-11235576D01*
X-8647560Y-11211369D01*
X-8668600Y-11181973D01*
X-8676769Y-11170383D01*
X-8699997Y-11137418D01*
X-8721873Y-11106594D01*
X-8740258Y-11080914D01*
X-8753009Y-11063379D01*
X-8755068Y-11060617D01*
X-8760985Y-11052338D01*
X-8763079Y-11047377D01*
X-8759913Y-11046253D01*
X-8750047Y-11049483D01*
X-8732044Y-11057585D01*
X-8704466Y-11071076D01*
X-8665875Y-11090475D01*
X-8650388Y-11098306D01*
X-8527143Y-11160665D01*
X-8505372Y-11140065D01*
X-8469036Y-11111106D01*
X-8423013Y-11082709D01*
X-8371966Y-11057614D01*
X-8349343Y-11048411D01*
X-8326249Y-11040045D01*
X-8306317Y-11034291D01*
X-8285892Y-11030661D01*
X-8261316Y-11028670D01*
X-8228934Y-11027830D01*
X-8193315Y-11027660D01*
X-8150096Y-11027940D01*
X-8117802Y-11029129D01*
X-8092852Y-11031625D01*
X-8071666Y-11035829D01*
X-8050662Y-11042140D01*
X-8044543Y-11044263D01*
X-7992445Y-11067277D01*
X-7940790Y-11098222D01*
X-7895483Y-11133385D01*
X-7881204Y-11147033D01*
X-7852229Y-11176713D01*
X-7848600Y-10913285D01*
X-7844972Y-10649857D01*
X-7438572Y-10649857D01*
X-7436720Y-11422743D01*
X-7436720Y-11422743D01*
G37*
X-7436720Y-11422743D02*
X-7434869Y-12195629D01*
X-7641735Y-12193597D01*
X-7848600Y-12191565D01*
X-7848600Y-12052356D01*
X-7899351Y-12100232D01*
X-7926762Y-12124539D01*
X-7955672Y-12147679D01*
X-7981110Y-12165742D01*
X-7988251Y-12170129D01*
X-8052765Y-12199548D01*
X-8123685Y-12218087D01*
X-8197133Y-12225111D01*
X-8269233Y-12219985D01*
X-8280400Y-12217992D01*
X-8363071Y-12194930D01*
X-8438329Y-12159639D01*
X-8505661Y-12112658D01*
X-8564557Y-12054527D01*
X-8614506Y-11985784D01*
X-8654996Y-11906969D01*
X-8685517Y-11818620D01*
X-8694758Y-11781009D01*
X-8703669Y-11723013D01*
X-8707614Y-11656726D01*
X-8706697Y-11587421D01*
X-8701022Y-11520368D01*
X-8690694Y-11460840D01*
X-8688238Y-11450909D01*
X-8678705Y-11418314D01*
X-8666851Y-11383457D01*
X-8653811Y-11349060D01*
X-8640721Y-11317841D01*
X-8628717Y-11292521D01*
X-8618933Y-11275820D01*
X-8612887Y-11270406D01*
X-8607775Y-11276124D01*
X-8595415Y-11292267D01*
X-8576859Y-11317355D01*
X-8553160Y-11349905D01*
X-8525370Y-11388438D01*
X-8494542Y-11431472D01*
X-8461729Y-11477526D01*
X-8427985Y-11525121D01*
X-8394361Y-11572774D01*
X-8361910Y-11619004D01*
X-8331686Y-11662332D01*
X-8304740Y-11701277D01*
X-8282127Y-11734356D01*
X-8266607Y-11757497D01*
X-8239611Y-11798337D01*
X-7851221Y-11988551D01*
X-7781348Y-12022709D01*
X-7715428Y-12054817D01*
X-7654598Y-12084327D01*
X-7599998Y-12110693D01*
X-7552767Y-12133368D01*
X-7514043Y-12151805D01*
X-7484964Y-12165457D01*
X-7466670Y-12173778D01*
X-7460308Y-12176241D01*
X-7463802Y-12169948D01*
X-7474755Y-12152717D01*
X-7492457Y-12125610D01*
X-7516204Y-12089688D01*
X-7545287Y-12046014D01*
X-7578999Y-11995650D01*
X-7616635Y-11939658D01*
X-7657486Y-11879100D01*
X-7694921Y-11823780D01*
X-7932057Y-11473842D01*
X-8227019Y-11321293D01*
X-8287491Y-11290073D01*
X-8344007Y-11261002D01*
X-8395264Y-11234743D01*
X-8439958Y-11211958D01*
X-8476786Y-11193311D01*
X-8504445Y-11179464D01*
X-8521630Y-11171079D01*
X-8527027Y-11168743D01*
X-8536238Y-11174814D01*
X-8552043Y-11192380D01*
X-8573603Y-11220471D01*
X-8582197Y-11232392D01*
X-8595642Y-11249059D01*
X-8606476Y-11258556D01*
X-8610641Y-11259433D01*
X-8616910Y-11252347D01*
X-8629773Y-11235576D01*
X-8647560Y-11211369D01*
X-8668600Y-11181973D01*
X-8676769Y-11170383D01*
X-8699997Y-11137418D01*
X-8721873Y-11106594D01*
X-8740258Y-11080914D01*
X-8753009Y-11063379D01*
X-8755068Y-11060617D01*
X-8760985Y-11052338D01*
X-8763079Y-11047377D01*
X-8759913Y-11046253D01*
X-8750047Y-11049483D01*
X-8732044Y-11057585D01*
X-8704466Y-11071076D01*
X-8665875Y-11090475D01*
X-8650388Y-11098306D01*
X-8527143Y-11160665D01*
X-8505372Y-11140065D01*
X-8469036Y-11111106D01*
X-8423013Y-11082709D01*
X-8371966Y-11057614D01*
X-8349343Y-11048411D01*
X-8326249Y-11040045D01*
X-8306317Y-11034291D01*
X-8285892Y-11030661D01*
X-8261316Y-11028670D01*
X-8228934Y-11027830D01*
X-8193315Y-11027660D01*
X-8150096Y-11027940D01*
X-8117802Y-11029129D01*
X-8092852Y-11031625D01*
X-8071666Y-11035829D01*
X-8050662Y-11042140D01*
X-8044543Y-11044263D01*
X-7992445Y-11067277D01*
X-7940790Y-11098222D01*
X-7895483Y-11133385D01*
X-7881204Y-11147033D01*
X-7852229Y-11176713D01*
X-7848600Y-10913285D01*
X-7844972Y-10649857D01*
X-7438572Y-10649857D01*
X-7436720Y-11422743D01*
G36*
X-4860322Y-10905672D02*
X-4858357Y-11052629D01*
X-4582614Y-11052629D01*
X-4584564Y-11217729D01*
X-4586515Y-11382829D01*
X-4722586Y-11384803D01*
X-4858657Y-11386778D01*
X-4858657Y-11597435D01*
X-4858552Y-11663238D01*
X-4858064Y-11716118D01*
X-4856930Y-11757667D01*
X-4854891Y-11789476D01*
X-4851686Y-11813136D01*
X-4847053Y-11830238D01*
X-4840733Y-11842373D01*
X-4832465Y-11851134D01*
X-4821987Y-11858110D01*
X-4815352Y-11861677D01*
X-4791490Y-11868841D01*
X-4758216Y-11872106D01*
X-4720091Y-11871486D01*
X-4681680Y-11867000D01*
X-4655457Y-11861115D01*
X-4630240Y-11854049D01*
X-4608496Y-11848190D01*
X-4599215Y-11845840D01*
X-4582886Y-11841965D01*
X-4582886Y-12156513D01*
X-4622056Y-12173836D01*
X-4661176Y-12189765D01*
X-4698146Y-12201351D01*
X-4736802Y-12209323D01*
X-4780979Y-12214404D01*
X-4834512Y-12217322D01*
X-4855029Y-12217938D01*
X-4912975Y-12218574D01*
X-4958522Y-12217100D01*
X-4993642Y-12213423D01*
X-5008339Y-12210631D01*
X-5076474Y-12188976D01*
X-5134288Y-12157165D01*
X-5182055Y-12114940D01*
X-5220047Y-12062040D01*
X-5248536Y-11998209D01*
X-5255464Y-11976222D01*
X-5258708Y-11962868D01*
X-5261404Y-11946389D01*
X-5263622Y-11925260D01*
X-5265436Y-11897955D01*
X-5266919Y-11862951D01*
X-5268143Y-11818720D01*
X-5269181Y-11763739D01*
X-5270107Y-11696481D01*
X-5270521Y-11660415D01*
X-5273521Y-11386457D01*
X-5395686Y-11386457D01*
X-5395686Y-11052629D01*
X-5272615Y-11052629D01*
X-5270651Y-10905672D01*
X-5268686Y-10758715D01*
X-4862286Y-10758715D01*
X-4860322Y-10905672D01*
X-4860322Y-10905672D01*
G37*
X-4860322Y-10905672D02*
X-4858357Y-11052629D01*
X-4582614Y-11052629D01*
X-4584564Y-11217729D01*
X-4586515Y-11382829D01*
X-4722586Y-11384803D01*
X-4858657Y-11386778D01*
X-4858657Y-11597435D01*
X-4858552Y-11663238D01*
X-4858064Y-11716118D01*
X-4856930Y-11757667D01*
X-4854891Y-11789476D01*
X-4851686Y-11813136D01*
X-4847053Y-11830238D01*
X-4840733Y-11842373D01*
X-4832465Y-11851134D01*
X-4821987Y-11858110D01*
X-4815352Y-11861677D01*
X-4791490Y-11868841D01*
X-4758216Y-11872106D01*
X-4720091Y-11871486D01*
X-4681680Y-11867000D01*
X-4655457Y-11861115D01*
X-4630240Y-11854049D01*
X-4608496Y-11848190D01*
X-4599215Y-11845840D01*
X-4582886Y-11841965D01*
X-4582886Y-12156513D01*
X-4622056Y-12173836D01*
X-4661176Y-12189765D01*
X-4698146Y-12201351D01*
X-4736802Y-12209323D01*
X-4780979Y-12214404D01*
X-4834512Y-12217322D01*
X-4855029Y-12217938D01*
X-4912975Y-12218574D01*
X-4958522Y-12217100D01*
X-4993642Y-12213423D01*
X-5008339Y-12210631D01*
X-5076474Y-12188976D01*
X-5134288Y-12157165D01*
X-5182055Y-12114940D01*
X-5220047Y-12062040D01*
X-5248536Y-11998209D01*
X-5255464Y-11976222D01*
X-5258708Y-11962868D01*
X-5261404Y-11946389D01*
X-5263622Y-11925260D01*
X-5265436Y-11897955D01*
X-5266919Y-11862951D01*
X-5268143Y-11818720D01*
X-5269181Y-11763739D01*
X-5270107Y-11696481D01*
X-5270521Y-11660415D01*
X-5273521Y-11386457D01*
X-5395686Y-11386457D01*
X-5395686Y-11052629D01*
X-5272615Y-11052629D01*
X-5270651Y-10905672D01*
X-5268686Y-10758715D01*
X-4862286Y-10758715D01*
X-4860322Y-10905672D01*
G36*
X-11423213Y-10633826D02*
X-11371418Y-10637014D01*
X-11323231Y-10641930D01*
X-11281647Y-10648412D01*
X-11249664Y-10656295D01*
X-11235872Y-10661866D01*
X-11231400Y-10665455D01*
X-11228110Y-10672195D01*
X-11225825Y-10684086D01*
X-11224367Y-10703128D01*
X-11223558Y-10731319D01*
X-11223222Y-10770659D01*
X-11223172Y-10804932D01*
X-11223362Y-10847942D01*
X-11223891Y-10885784D01*
X-11224696Y-10916134D01*
X-11225717Y-10936670D01*
X-11226889Y-10945066D01*
X-11226917Y-10945097D01*
X-11235442Y-10945513D01*
X-11253354Y-10942578D01*
X-11268412Y-10939050D01*
X-11303771Y-10932580D01*
X-11343157Y-10929637D01*
X-11381925Y-10930176D01*
X-11415433Y-10934151D01*
X-11437411Y-10940702D01*
X-11459632Y-10958810D01*
X-11475591Y-10987404D01*
X-11483720Y-11023235D01*
X-11484429Y-11038094D01*
X-11484429Y-11066808D01*
X-11355615Y-11068790D01*
X-11226800Y-11070772D01*
X-11224836Y-11217729D01*
X-11222871Y-11364686D01*
X-11484429Y-11364686D01*
X-11484429Y-12192000D01*
X-11890829Y-12192000D01*
X-11890829Y-11364686D01*
X-12021457Y-11364686D01*
X-12021457Y-11052629D01*
X-11892961Y-11052629D01*
X-11888725Y-10985500D01*
X-11877904Y-10906910D01*
X-11856079Y-10837533D01*
X-11823475Y-10777641D01*
X-11780313Y-10727506D01*
X-11726817Y-10687400D01*
X-11663209Y-10657593D01*
X-11606554Y-10641634D01*
X-11570287Y-10636271D01*
X-11525643Y-10633291D01*
X-11475620Y-10632531D01*
X-11423213Y-10633826D01*
X-11423213Y-10633826D01*
G37*
X-11423213Y-10633826D02*
X-11371418Y-10637014D01*
X-11323231Y-10641930D01*
X-11281647Y-10648412D01*
X-11249664Y-10656295D01*
X-11235872Y-10661866D01*
X-11231400Y-10665455D01*
X-11228110Y-10672195D01*
X-11225825Y-10684086D01*
X-11224367Y-10703128D01*
X-11223558Y-10731319D01*
X-11223222Y-10770659D01*
X-11223172Y-10804932D01*
X-11223362Y-10847942D01*
X-11223891Y-10885784D01*
X-11224696Y-10916134D01*
X-11225717Y-10936670D01*
X-11226889Y-10945066D01*
X-11226917Y-10945097D01*
X-11235442Y-10945513D01*
X-11253354Y-10942578D01*
X-11268412Y-10939050D01*
X-11303771Y-10932580D01*
X-11343157Y-10929637D01*
X-11381925Y-10930176D01*
X-11415433Y-10934151D01*
X-11437411Y-10940702D01*
X-11459632Y-10958810D01*
X-11475591Y-10987404D01*
X-11483720Y-11023235D01*
X-11484429Y-11038094D01*
X-11484429Y-11066808D01*
X-11355615Y-11068790D01*
X-11226800Y-11070772D01*
X-11224836Y-11217729D01*
X-11222871Y-11364686D01*
X-11484429Y-11364686D01*
X-11484429Y-12192000D01*
X-11890829Y-12192000D01*
X-11890829Y-11364686D01*
X-12021457Y-11364686D01*
X-12021457Y-11052629D01*
X-11892961Y-11052629D01*
X-11888725Y-10985500D01*
X-11877904Y-10906910D01*
X-11856079Y-10837533D01*
X-11823475Y-10777641D01*
X-11780313Y-10727506D01*
X-11726817Y-10687400D01*
X-11663209Y-10657593D01*
X-11606554Y-10641634D01*
X-11570287Y-10636271D01*
X-11525643Y-10633291D01*
X-11475620Y-10632531D01*
X-11423213Y-10633826D01*
G36*
X-10657115Y-12192000D02*
X-11063515Y-12192000D01*
X-11063515Y-11052629D01*
X-10657115Y-11052629D01*
X-10657115Y-12192000D01*
X-10657115Y-12192000D01*
G37*
X-10657115Y-12192000D02*
X-11063515Y-12192000D01*
X-11063515Y-11052629D01*
X-10657115Y-11052629D01*
X-10657115Y-12192000D01*
G36*
X-8815582Y-11420929D02*
X-8813734Y-12192000D01*
X-9227523Y-12192000D01*
X-9225676Y-11420929D01*
X-9223829Y-10649857D01*
X-8817429Y-10649857D01*
X-8815582Y-11420929D01*
X-8815582Y-11420929D01*
G37*
X-8815582Y-11420929D02*
X-8813734Y-12192000D01*
X-9227523Y-12192000D01*
X-9225676Y-11420929D01*
X-9223829Y-10649857D01*
X-8817429Y-10649857D01*
X-8815582Y-11420929D01*
G36*
X-6845363Y-11034880D02*
X-6843486Y-11423531D01*
X-6524704Y-11052629D01*
X-6297652Y-11052629D01*
X-6241909Y-11052748D01*
X-6191129Y-11053087D01*
X-6147048Y-11053614D01*
X-6111404Y-11054302D01*
X-6085932Y-11055119D01*
X-6072372Y-11056035D01*
X-6070600Y-11056521D01*
X-6075177Y-11062446D01*
X-6088082Y-11077867D01*
X-6108084Y-11101362D01*
X-6133946Y-11131510D01*
X-6164436Y-11166890D01*
X-6198318Y-11206080D01*
X-6234359Y-11247657D01*
X-6271325Y-11290201D01*
X-6307981Y-11332290D01*
X-6343093Y-11372502D01*
X-6375427Y-11409415D01*
X-6403749Y-11441609D01*
X-6426825Y-11467661D01*
X-6443420Y-11486150D01*
X-6446640Y-11489672D01*
X-6464818Y-11509429D01*
X-6270100Y-11834386D01*
X-6232367Y-11897335D01*
X-6196645Y-11956886D01*
X-6163677Y-12011806D01*
X-6134202Y-12060863D01*
X-6108962Y-12102825D01*
X-6088698Y-12136459D01*
X-6074150Y-12160532D01*
X-6066061Y-12173812D01*
X-6064899Y-12175672D01*
X-6054417Y-12192000D01*
X-6503638Y-12192000D01*
X-6621338Y-11999890D01*
X-6739038Y-11807779D01*
X-6792971Y-11867447D01*
X-6846903Y-11927115D01*
X-6847009Y-12059557D01*
X-6847115Y-12192000D01*
X-7253515Y-12192000D01*
X-7253515Y-10646229D01*
X-6847241Y-10646229D01*
X-6845363Y-11034880D01*
X-6845363Y-11034880D01*
G37*
X-6845363Y-11034880D02*
X-6843486Y-11423531D01*
X-6524704Y-11052629D01*
X-6297652Y-11052629D01*
X-6241909Y-11052748D01*
X-6191129Y-11053087D01*
X-6147048Y-11053614D01*
X-6111404Y-11054302D01*
X-6085932Y-11055119D01*
X-6072372Y-11056035D01*
X-6070600Y-11056521D01*
X-6075177Y-11062446D01*
X-6088082Y-11077867D01*
X-6108084Y-11101362D01*
X-6133946Y-11131510D01*
X-6164436Y-11166890D01*
X-6198318Y-11206080D01*
X-6234359Y-11247657D01*
X-6271325Y-11290201D01*
X-6307981Y-11332290D01*
X-6343093Y-11372502D01*
X-6375427Y-11409415D01*
X-6403749Y-11441609D01*
X-6426825Y-11467661D01*
X-6443420Y-11486150D01*
X-6446640Y-11489672D01*
X-6464818Y-11509429D01*
X-6270100Y-11834386D01*
X-6232367Y-11897335D01*
X-6196645Y-11956886D01*
X-6163677Y-12011806D01*
X-6134202Y-12060863D01*
X-6108962Y-12102825D01*
X-6088698Y-12136459D01*
X-6074150Y-12160532D01*
X-6066061Y-12173812D01*
X-6064899Y-12175672D01*
X-6054417Y-12192000D01*
X-6503638Y-12192000D01*
X-6621338Y-11999890D01*
X-6739038Y-11807779D01*
X-6792971Y-11867447D01*
X-6846903Y-11927115D01*
X-6847009Y-12059557D01*
X-6847115Y-12192000D01*
X-7253515Y-12192000D01*
X-7253515Y-10646229D01*
X-6847241Y-10646229D01*
X-6845363Y-11034880D01*
G36*
X-5577115Y-12192000D02*
X-5990772Y-12192000D01*
X-5990772Y-11052629D01*
X-5577115Y-11052629D01*
X-5577115Y-12192000D01*
X-5577115Y-12192000D01*
G37*
X-5577115Y-12192000D02*
X-5990772Y-12192000D01*
X-5990772Y-11052629D01*
X-5577115Y-11052629D01*
X-5577115Y-12192000D01*
G36*
X-8040607Y-11515745D02*
X-8004634Y-11533637D01*
X-7984526Y-11552712D01*
X-7962431Y-11588973D01*
X-7952870Y-11628073D01*
X-7955291Y-11667254D01*
X-7969144Y-11703761D01*
X-7993880Y-11734839D01*
X-8025114Y-11755949D01*
X-8064275Y-11768945D01*
X-8101876Y-11768219D01*
X-8137665Y-11755514D01*
X-8171683Y-11731349D01*
X-8195184Y-11699386D01*
X-8207631Y-11662364D01*
X-8208488Y-11623023D01*
X-8197219Y-11584102D01*
X-8177312Y-11552927D01*
X-8147220Y-11526094D01*
X-8112048Y-11512334D01*
X-8084585Y-11509829D01*
X-8040607Y-11515745D01*
X-8040607Y-11515745D01*
G37*
X-8040607Y-11515745D02*
X-8004634Y-11533637D01*
X-7984526Y-11552712D01*
X-7962431Y-11588973D01*
X-7952870Y-11628073D01*
X-7955291Y-11667254D01*
X-7969144Y-11703761D01*
X-7993880Y-11734839D01*
X-8025114Y-11755949D01*
X-8064275Y-11768945D01*
X-8101876Y-11768219D01*
X-8137665Y-11755514D01*
X-8171683Y-11731349D01*
X-8195184Y-11699386D01*
X-8207631Y-11662364D01*
X-8208488Y-11623023D01*
X-8197219Y-11584102D01*
X-8177312Y-11552927D01*
X-8147220Y-11526094D01*
X-8112048Y-11512334D01*
X-8084585Y-11509829D01*
X-8040607Y-11515745D01*
G36*
X-10657115Y-10943772D02*
X-11085587Y-10943772D01*
X-11083622Y-10796815D01*
X-11081657Y-10649857D01*
X-10869386Y-10647933D01*
X-10657115Y-10646010D01*
X-10657115Y-10943772D01*
X-10657115Y-10943772D01*
G37*
X-10657115Y-10943772D02*
X-11085587Y-10943772D01*
X-11083622Y-10796815D01*
X-11081657Y-10649857D01*
X-10869386Y-10647933D01*
X-10657115Y-10646010D01*
X-10657115Y-10943772D01*
G36*
X-5562600Y-10943772D02*
X-5991072Y-10943772D01*
X-5989108Y-10796815D01*
X-5987143Y-10649857D01*
X-5774872Y-10647933D01*
X-5562600Y-10646010D01*
X-5562600Y-10943772D01*
X-5562600Y-10943772D01*
G37*
X-5562600Y-10943772D02*
X-5991072Y-10943772D01*
X-5989108Y-10796815D01*
X-5987143Y-10649857D01*
X-5774872Y-10647933D01*
X-5562600Y-10646010D01*
X-5562600Y-10943772D01*
G36*
X-15275491Y-6594633D02*
X-15219613Y-6595229D01*
X-15171501Y-6596447D01*
X-15128688Y-6598471D01*
X-15088710Y-6601483D01*
X-15049099Y-6605667D01*
X-15007391Y-6611207D01*
X-14961120Y-6618285D01*
X-14911529Y-6626460D01*
X-14741174Y-6661512D01*
X-14574264Y-6708526D01*
X-14411388Y-6767088D01*
X-14253134Y-6836786D01*
X-14100092Y-6917207D01*
X-13952851Y-7007937D01*
X-13812000Y-7108563D01*
X-13678129Y-7218673D01*
X-13551827Y-7337853D01*
X-13433683Y-7465690D01*
X-13324287Y-7601771D01*
X-13224227Y-7745684D01*
X-13156701Y-7856697D01*
X-13073096Y-8014965D01*
X-13001673Y-8176749D01*
X-12942418Y-8342099D01*
X-12895319Y-8511069D01*
X-12860364Y-8683710D01*
X-12837540Y-8860075D01*
X-12826833Y-9040217D01*
X-12827882Y-9215088D01*
X-12840643Y-9389968D01*
X-12865795Y-9563019D01*
X-12903085Y-9733602D01*
X-12952259Y-9901078D01*
X-13013066Y-10064807D01*
X-13085251Y-10224151D01*
X-13168562Y-10378471D01*
X-13262745Y-10527126D01*
X-13367547Y-10669478D01*
X-13437046Y-10753480D01*
X-13474365Y-10794910D01*
X-13518916Y-10841540D01*
X-13568159Y-10890918D01*
X-13619551Y-10940590D01*
X-13670553Y-10988104D01*
X-13718623Y-11031007D01*
X-13761219Y-11066845D01*
X-13764058Y-11069129D01*
X-13907277Y-11175986D01*
X-14056722Y-11272132D01*
X-14211703Y-11357189D01*
X-14371535Y-11430775D01*
X-14522450Y-11488078D01*
X-14694536Y-11540365D01*
X-14868715Y-11580252D01*
X-15044502Y-11607676D01*
X-15221411Y-11622571D01*
X-15398955Y-11624871D01*
X-15509875Y-11619896D01*
X-15686913Y-11601712D01*
X-15861304Y-11571261D01*
X-16032468Y-11528808D01*
X-16199822Y-11474617D01*
X-16362784Y-11408953D01*
X-16520773Y-11332080D01*
X-16673206Y-11244262D01*
X-16819502Y-11145765D01*
X-16959078Y-11036852D01*
X-17091353Y-10917787D01*
X-17122690Y-10886989D01*
X-17243784Y-10757068D01*
X-17354586Y-10620065D01*
X-17454919Y-10476579D01*
X-17544605Y-10327209D01*
X-17623466Y-10172553D01*
X-17691325Y-10013211D01*
X-17733691Y-9891053D01*
X-17485960Y-9891053D01*
X-17484706Y-9899842D01*
X-17478879Y-9918315D01*
X-17469212Y-9944615D01*
X-17456439Y-9976890D01*
X-17441294Y-10013284D01*
X-17424511Y-10051943D01*
X-17406868Y-10090915D01*
X-17389274Y-10126677D01*
X-17366351Y-10169939D01*
X-17339850Y-10217655D01*
X-17311519Y-10266781D01*
X-17283109Y-10314271D01*
X-17256367Y-10357079D01*
X-17237783Y-10385275D01*
X-17150566Y-10504351D01*
X-17053949Y-10619752D01*
X-16949799Y-10729606D01*
X-16839985Y-10832035D01*
X-16726375Y-10925166D01*
X-16632862Y-10992489D01*
X-16572151Y-11027618D01*
X-16500119Y-11058903D01*
X-16417626Y-11086097D01*
X-16325532Y-11108952D01*
X-16224696Y-11127218D01*
X-16122650Y-11139988D01*
X-16089405Y-11142136D01*
X-16047596Y-11143076D01*
X-16001298Y-11142853D01*
X-15954587Y-11141515D01*
X-15911537Y-11139109D01*
X-15890391Y-11137297D01*
X-15806757Y-11125318D01*
X-15729313Y-11107002D01*
X-15659496Y-11082845D01*
X-15598744Y-11053345D01*
X-15548797Y-11019246D01*
X-15516015Y-10988601D01*
X-15491522Y-10956101D01*
X-15473630Y-10918662D01*
X-15460649Y-10873200D01*
X-15456089Y-10850041D01*
X-15442289Y-10789215D01*
X-15423821Y-10738862D01*
X-15399726Y-10697308D01*
X-15369049Y-10662880D01*
X-15333271Y-10635468D01*
X-15299664Y-10616175D01*
X-15262272Y-10599631D01*
X-15220061Y-10585680D01*
X-15172000Y-10574167D01*
X-15117058Y-10564936D01*
X-15054203Y-10557830D01*
X-14982403Y-10552695D01*
X-14900626Y-10549375D01*
X-14807841Y-10547712D01*
X-14750394Y-10547448D01*
X-14601310Y-10545711D01*
X-14464315Y-10540691D01*
X-14339448Y-10532389D01*
X-14226747Y-10520810D01*
X-14126250Y-10505956D01*
X-14058900Y-10492666D01*
X-13933404Y-10459262D01*
X-13813791Y-10416361D01*
X-13700918Y-10364435D01*
X-13595642Y-10303957D01*
X-13498819Y-10235399D01*
X-13411305Y-10159235D01*
X-13361702Y-10107962D01*
X-13338456Y-10082231D01*
X-13404991Y-10115622D01*
X-13438915Y-10132014D01*
X-13476027Y-10148935D01*
X-13510786Y-10163900D01*
X-13528244Y-10170921D01*
X-13573961Y-10186845D01*
X-13628595Y-10203092D01*
X-13688425Y-10218745D01*
X-13749731Y-10232883D01*
X-13808790Y-10244589D01*
X-13858875Y-10252546D01*
X-13903540Y-10257181D01*
X-13957620Y-10260641D01*
X-14017884Y-10262898D01*
X-14081100Y-10263924D01*
X-14144035Y-10263694D01*
X-14203458Y-10262178D01*
X-14256136Y-10259350D01*
X-14290675Y-10256192D01*
X-14458743Y-10231078D01*
X-14629457Y-10194437D01*
X-14801178Y-10146696D01*
X-14972267Y-10088282D01*
X-15050580Y-10057835D01*
X-15076952Y-10047113D01*
X-15101757Y-10036851D01*
X-15126462Y-10026393D01*
X-15152535Y-10015081D01*
X-15181445Y-10002260D01*
X-15214660Y-9987272D01*
X-15253648Y-9969462D01*
X-15299878Y-9948171D01*
X-15354817Y-9922744D01*
X-15413038Y-9895727D01*
X-15581331Y-9822944D01*
X-15748396Y-9761380D01*
X-15913856Y-9711060D01*
X-16077334Y-9672007D01*
X-16238454Y-9644247D01*
X-16396838Y-9627806D01*
X-16552110Y-9622707D01*
X-16703892Y-9628976D01*
X-16851808Y-9646637D01*
X-16995481Y-9675716D01*
X-17134533Y-9716238D01*
X-17268588Y-9768227D01*
X-17278076Y-9772431D01*
X-17308973Y-9786929D01*
X-17342468Y-9803806D01*
X-17376560Y-9821918D01*
X-17409249Y-9840126D01*
X-17438535Y-9857287D01*
X-17462417Y-9872259D01*
X-17478895Y-9883903D01*
X-17485960Y-9891053D01*
X-17733691Y-9891053D01*
X-17748005Y-9849781D01*
X-17793327Y-9682863D01*
X-17827114Y-9513055D01*
X-17849189Y-9340956D01*
X-17859373Y-9167164D01*
X-17857996Y-9039190D01*
X-17627199Y-9039190D01*
X-17627165Y-9114282D01*
X-17625360Y-9191288D01*
X-17621879Y-9266984D01*
X-17616814Y-9338142D01*
X-17610260Y-9401538D01*
X-17606388Y-9429750D01*
X-17599414Y-9472674D01*
X-17591248Y-9518003D01*
X-17582260Y-9564139D01*
X-17572821Y-9609483D01*
X-17563301Y-9652437D01*
X-17554069Y-9691404D01*
X-17545495Y-9724784D01*
X-17537949Y-9750979D01*
X-17531801Y-9768391D01*
X-17527421Y-9775422D01*
X-17526442Y-9775207D01*
X-17523199Y-9769245D01*
X-17514573Y-9752700D01*
X-17500942Y-9726309D01*
X-17482681Y-9690808D01*
X-17460168Y-9646932D01*
X-17433779Y-9595419D01*
X-17403892Y-9537004D01*
X-17370883Y-9472424D01*
X-17335130Y-9402415D01*
X-17297008Y-9327713D01*
X-17256896Y-9249054D01*
X-17215169Y-9167175D01*
X-17213782Y-9164452D01*
X-17171995Y-9082502D01*
X-17131777Y-9003776D01*
X-17093505Y-8929009D01*
X-17057560Y-8858934D01*
X-17024320Y-8794285D01*
X-16994164Y-8735797D01*
X-16967471Y-8684203D01*
X-16944621Y-8640237D01*
X-16925993Y-8604634D01*
X-16911965Y-8578127D01*
X-16902917Y-8561451D01*
X-16899228Y-8555339D01*
X-16899201Y-8555326D01*
X-16895426Y-8560522D01*
X-16886220Y-8576011D01*
X-16872093Y-8600863D01*
X-16853557Y-8634146D01*
X-16831123Y-8674931D01*
X-16805302Y-8722285D01*
X-16776604Y-8775279D01*
X-16745542Y-8832982D01*
X-16712626Y-8894463D01*
X-16701349Y-8915601D01*
X-16667930Y-8978171D01*
X-16636214Y-9037313D01*
X-16606710Y-9092092D01*
X-16579929Y-9141571D01*
X-16556381Y-9184815D01*
X-16536574Y-9220890D01*
X-16521020Y-9248860D01*
X-16510228Y-9267789D01*
X-16504707Y-9276743D01*
X-16504129Y-9277350D01*
X-16500669Y-9271831D01*
X-16491772Y-9255769D01*
X-16477828Y-9229904D01*
X-16459226Y-9194980D01*
X-16436356Y-9151736D01*
X-16409608Y-9100914D01*
X-16379371Y-9043256D01*
X-16346035Y-8979502D01*
X-16309989Y-8910395D01*
X-16271623Y-8836676D01*
X-16231326Y-8759086D01*
X-16196322Y-8691562D01*
X-16154683Y-8611206D01*
X-16114653Y-8534025D01*
X-16076623Y-8460768D01*
X-16040982Y-8392183D01*
X-16008122Y-8329019D01*
X-15978432Y-8272023D01*
X-15952301Y-8221944D01*
X-15930121Y-8179531D01*
X-15912281Y-8145531D01*
X-15899171Y-8120693D01*
X-15891181Y-8105765D01*
X-15888717Y-8101436D01*
X-15885188Y-8106273D01*
X-15876122Y-8121552D01*
X-15861941Y-8146500D01*
X-15843069Y-8180343D01*
X-15819928Y-8222308D01*
X-15792941Y-8271622D01*
X-15762531Y-8327513D01*
X-15729121Y-8389207D01*
X-15693133Y-8455931D01*
X-15654991Y-8526912D01*
X-15615117Y-8601376D01*
X-15608300Y-8614131D01*
X-15568164Y-8689194D01*
X-15529711Y-8760984D01*
X-15493364Y-8828719D01*
X-15459546Y-8891619D01*
X-15428677Y-8948903D01*
X-15401180Y-8999789D01*
X-15377478Y-9043498D01*
X-15357992Y-9079247D01*
X-15343144Y-9106257D01*
X-15333357Y-9123745D01*
X-15329052Y-9130932D01*
X-15328900Y-9131074D01*
X-15325441Y-9125591D01*
X-15316752Y-9109908D01*
X-15303412Y-9085119D01*
X-15285999Y-9052320D01*
X-15265092Y-9012604D01*
X-15241269Y-8967066D01*
X-15215108Y-8916800D01*
X-15187187Y-8862902D01*
X-15186342Y-8861267D01*
X-15158352Y-8807271D01*
X-15132062Y-8756881D01*
X-15108056Y-8711191D01*
X-15086917Y-8671296D01*
X-15069228Y-8638290D01*
X-15055573Y-8613268D01*
X-15046534Y-8597324D01*
X-15042694Y-8591554D01*
X-15042667Y-8591550D01*
X-15039106Y-8597021D01*
X-15030008Y-8612905D01*
X-15015805Y-8638404D01*
X-14996930Y-8672722D01*
X-14973816Y-8715061D01*
X-14946896Y-8764624D01*
X-14916603Y-8820616D01*
X-14883369Y-8882238D01*
X-14847628Y-8948694D01*
X-14809812Y-9019187D01*
X-14772751Y-9088437D01*
X-14733079Y-9162634D01*
X-14694895Y-9234016D01*
X-14658656Y-9301734D01*
X-14624815Y-9364939D01*
X-14593827Y-9422783D01*
X-14566148Y-9474417D01*
X-14542231Y-9518994D01*
X-14522532Y-9555665D01*
X-14507506Y-9583582D01*
X-14497606Y-9601896D01*
X-14493487Y-9609412D01*
X-14479847Y-9633500D01*
X-14349177Y-9380812D01*
X-14322078Y-9328632D01*
X-14296666Y-9280129D01*
X-14273546Y-9236428D01*
X-14253325Y-9198656D01*
X-14236608Y-9167938D01*
X-14224002Y-9145400D01*
X-14216114Y-9132169D01*
X-14213633Y-9129032D01*
X-14209627Y-9134649D01*
X-14200372Y-9150233D01*
X-14186567Y-9174531D01*
X-14168907Y-9206289D01*
X-14148091Y-9244253D01*
X-14124816Y-9287169D01*
X-14099830Y-9333687D01*
X-14074880Y-9380072D01*
X-14051740Y-9422549D01*
X-14031094Y-9459901D01*
X-14013630Y-9490911D01*
X-14000032Y-9514361D01*
X-13990987Y-9529033D01*
X-13987180Y-9533711D01*
X-13987168Y-9533700D01*
X-13983719Y-9527590D01*
X-13974908Y-9511078D01*
X-13961196Y-9485049D01*
X-13943044Y-9450388D01*
X-13920912Y-9407978D01*
X-13895263Y-9358705D01*
X-13866556Y-9303453D01*
X-13835254Y-9243106D01*
X-13801816Y-9178550D01*
X-13766704Y-9110668D01*
X-13765579Y-9108494D01*
X-13730459Y-9040630D01*
X-13697010Y-8976154D01*
X-13665689Y-8915939D01*
X-13636955Y-8860858D01*
X-13611268Y-8811787D01*
X-13589086Y-8769600D01*
X-13570867Y-8735171D01*
X-13557070Y-8709373D01*
X-13548153Y-8693082D01*
X-13544576Y-8687172D01*
X-13544550Y-8687164D01*
X-13540935Y-8692547D01*
X-13531502Y-8708064D01*
X-13516762Y-8732840D01*
X-13497229Y-8765998D01*
X-13473413Y-8806664D01*
X-13445827Y-8853961D01*
X-13414982Y-8907014D01*
X-13381391Y-8964946D01*
X-13345566Y-9026883D01*
X-13316291Y-9077601D01*
X-13279088Y-9141938D01*
X-13243680Y-9202835D01*
X-13210579Y-9259431D01*
X-13180301Y-9310862D01*
X-13153359Y-9356266D01*
X-13130266Y-9394781D01*
X-13111536Y-9425544D01*
X-13097682Y-9447694D01*
X-13089218Y-9460367D01*
X-13086680Y-9463110D01*
X-13082456Y-9452620D01*
X-13078230Y-9431099D01*
X-13074130Y-9400218D01*
X-13070283Y-9361644D01*
X-13066818Y-9317048D01*
X-13063861Y-9268098D01*
X-13061542Y-9216464D01*
X-13059988Y-9163814D01*
X-13059327Y-9111818D01*
X-13059314Y-9105900D01*
X-13060970Y-8996685D01*
X-13066448Y-8896080D01*
X-13076149Y-8800464D01*
X-13090480Y-8706215D01*
X-13109842Y-8609713D01*
X-13119169Y-8569325D01*
X-13163807Y-8407856D01*
X-13219289Y-8252421D01*
X-13286041Y-8102048D01*
X-13364489Y-7955765D01*
X-13443603Y-7829550D01*
X-13489106Y-7763568D01*
X-13533292Y-7703870D01*
X-13578584Y-7647533D01*
X-13627407Y-7591636D01*
X-13682186Y-7533256D01*
X-13728344Y-7486377D01*
X-13812374Y-7405465D01*
X-13893834Y-7333647D01*
X-13975688Y-7268589D01*
X-14060898Y-7207952D01*
X-14152429Y-7149401D01*
X-14166712Y-7140758D01*
X-14314127Y-7059421D01*
X-14465765Y-6989790D01*
X-14620966Y-6931845D01*
X-14779070Y-6885570D01*
X-14939415Y-6850946D01*
X-15101343Y-6827955D01*
X-15264191Y-6816580D01*
X-15427299Y-6816802D01*
X-15590006Y-6828603D01*
X-15751653Y-6851966D01*
X-15911578Y-6886872D01*
X-16069121Y-6933304D01*
X-16223622Y-6991243D01*
X-16374419Y-7060671D01*
X-16520852Y-7141571D01*
X-16624300Y-7207650D01*
X-16761034Y-7307811D01*
X-16889097Y-7416964D01*
X-17008152Y-7534535D01*
X-17117863Y-7659950D01*
X-17217892Y-7792636D01*
X-17307904Y-7932017D01*
X-17387560Y-8077520D01*
X-17456526Y-8228571D01*
X-17514463Y-8384596D01*
X-17561035Y-8545021D01*
X-17595905Y-8709271D01*
X-17618738Y-8876773D01*
X-17621580Y-8907655D01*
X-17625369Y-8969239D01*
X-17627199Y-9039190D01*
X-17857996Y-9039190D01*
X-17857490Y-8992280D01*
X-17843361Y-8816901D01*
X-17816809Y-8641627D01*
X-17805471Y-8584767D01*
X-17762975Y-8413690D01*
X-17709060Y-8247498D01*
X-17644181Y-8086631D01*
X-17568793Y-7931526D01*
X-17483351Y-7782621D01*
X-17388309Y-7640356D01*
X-17284122Y-7505167D01*
X-17171245Y-7377494D01*
X-17050133Y-7257773D01*
X-16921240Y-7146445D01*
X-16785022Y-7043946D01*
X-16641932Y-6950715D01*
X-16492426Y-6867190D01*
X-16336958Y-6793810D01*
X-16175983Y-6731012D01*
X-16009957Y-6679235D01*
X-15839333Y-6638917D01*
X-15773400Y-6626695D01*
X-15721168Y-6617960D01*
X-15675411Y-6610939D01*
X-15633690Y-6605449D01*
X-15593568Y-6601308D01*
X-15552609Y-6598335D01*
X-15508373Y-6596347D01*
X-15458425Y-6595163D01*
X-15400327Y-6594600D01*
X-15341600Y-6594475D01*
X-15275491Y-6594633D01*
X-15275491Y-6594633D01*
G37*
X-15275491Y-6594633D02*
X-15219613Y-6595229D01*
X-15171501Y-6596447D01*
X-15128688Y-6598471D01*
X-15088710Y-6601483D01*
X-15049099Y-6605667D01*
X-15007391Y-6611207D01*
X-14961120Y-6618285D01*
X-14911529Y-6626460D01*
X-14741174Y-6661512D01*
X-14574264Y-6708526D01*
X-14411388Y-6767088D01*
X-14253134Y-6836786D01*
X-14100092Y-6917207D01*
X-13952851Y-7007937D01*
X-13812000Y-7108563D01*
X-13678129Y-7218673D01*
X-13551827Y-7337853D01*
X-13433683Y-7465690D01*
X-13324287Y-7601771D01*
X-13224227Y-7745684D01*
X-13156701Y-7856697D01*
X-13073096Y-8014965D01*
X-13001673Y-8176749D01*
X-12942418Y-8342099D01*
X-12895319Y-8511069D01*
X-12860364Y-8683710D01*
X-12837540Y-8860075D01*
X-12826833Y-9040217D01*
X-12827882Y-9215088D01*
X-12840643Y-9389968D01*
X-12865795Y-9563019D01*
X-12903085Y-9733602D01*
X-12952259Y-9901078D01*
X-13013066Y-10064807D01*
X-13085251Y-10224151D01*
X-13168562Y-10378471D01*
X-13262745Y-10527126D01*
X-13367547Y-10669478D01*
X-13437046Y-10753480D01*
X-13474365Y-10794910D01*
X-13518916Y-10841540D01*
X-13568159Y-10890918D01*
X-13619551Y-10940590D01*
X-13670553Y-10988104D01*
X-13718623Y-11031007D01*
X-13761219Y-11066845D01*
X-13764058Y-11069129D01*
X-13907277Y-11175986D01*
X-14056722Y-11272132D01*
X-14211703Y-11357189D01*
X-14371535Y-11430775D01*
X-14522450Y-11488078D01*
X-14694536Y-11540365D01*
X-14868715Y-11580252D01*
X-15044502Y-11607676D01*
X-15221411Y-11622571D01*
X-15398955Y-11624871D01*
X-15509875Y-11619896D01*
X-15686913Y-11601712D01*
X-15861304Y-11571261D01*
X-16032468Y-11528808D01*
X-16199822Y-11474617D01*
X-16362784Y-11408953D01*
X-16520773Y-11332080D01*
X-16673206Y-11244262D01*
X-16819502Y-11145765D01*
X-16959078Y-11036852D01*
X-17091353Y-10917787D01*
X-17122690Y-10886989D01*
X-17243784Y-10757068D01*
X-17354586Y-10620065D01*
X-17454919Y-10476579D01*
X-17544605Y-10327209D01*
X-17623466Y-10172553D01*
X-17691325Y-10013211D01*
X-17733691Y-9891053D01*
X-17485960Y-9891053D01*
X-17484706Y-9899842D01*
X-17478879Y-9918315D01*
X-17469212Y-9944615D01*
X-17456439Y-9976890D01*
X-17441294Y-10013284D01*
X-17424511Y-10051943D01*
X-17406868Y-10090915D01*
X-17389274Y-10126677D01*
X-17366351Y-10169939D01*
X-17339850Y-10217655D01*
X-17311519Y-10266781D01*
X-17283109Y-10314271D01*
X-17256367Y-10357079D01*
X-17237783Y-10385275D01*
X-17150566Y-10504351D01*
X-17053949Y-10619752D01*
X-16949799Y-10729606D01*
X-16839985Y-10832035D01*
X-16726375Y-10925166D01*
X-16632862Y-10992489D01*
X-16572151Y-11027618D01*
X-16500119Y-11058903D01*
X-16417626Y-11086097D01*
X-16325532Y-11108952D01*
X-16224696Y-11127218D01*
X-16122650Y-11139988D01*
X-16089405Y-11142136D01*
X-16047596Y-11143076D01*
X-16001298Y-11142853D01*
X-15954587Y-11141515D01*
X-15911537Y-11139109D01*
X-15890391Y-11137297D01*
X-15806757Y-11125318D01*
X-15729313Y-11107002D01*
X-15659496Y-11082845D01*
X-15598744Y-11053345D01*
X-15548797Y-11019246D01*
X-15516015Y-10988601D01*
X-15491522Y-10956101D01*
X-15473630Y-10918662D01*
X-15460649Y-10873200D01*
X-15456089Y-10850041D01*
X-15442289Y-10789215D01*
X-15423821Y-10738862D01*
X-15399726Y-10697308D01*
X-15369049Y-10662880D01*
X-15333271Y-10635468D01*
X-15299664Y-10616175D01*
X-15262272Y-10599631D01*
X-15220061Y-10585680D01*
X-15172000Y-10574167D01*
X-15117058Y-10564936D01*
X-15054203Y-10557830D01*
X-14982403Y-10552695D01*
X-14900626Y-10549375D01*
X-14807841Y-10547712D01*
X-14750394Y-10547448D01*
X-14601310Y-10545711D01*
X-14464315Y-10540691D01*
X-14339448Y-10532389D01*
X-14226747Y-10520810D01*
X-14126250Y-10505956D01*
X-14058900Y-10492666D01*
X-13933404Y-10459262D01*
X-13813791Y-10416361D01*
X-13700918Y-10364435D01*
X-13595642Y-10303957D01*
X-13498819Y-10235399D01*
X-13411305Y-10159235D01*
X-13361702Y-10107962D01*
X-13338456Y-10082231D01*
X-13404991Y-10115622D01*
X-13438915Y-10132014D01*
X-13476027Y-10148935D01*
X-13510786Y-10163900D01*
X-13528244Y-10170921D01*
X-13573961Y-10186845D01*
X-13628595Y-10203092D01*
X-13688425Y-10218745D01*
X-13749731Y-10232883D01*
X-13808790Y-10244589D01*
X-13858875Y-10252546D01*
X-13903540Y-10257181D01*
X-13957620Y-10260641D01*
X-14017884Y-10262898D01*
X-14081100Y-10263924D01*
X-14144035Y-10263694D01*
X-14203458Y-10262178D01*
X-14256136Y-10259350D01*
X-14290675Y-10256192D01*
X-14458743Y-10231078D01*
X-14629457Y-10194437D01*
X-14801178Y-10146696D01*
X-14972267Y-10088282D01*
X-15050580Y-10057835D01*
X-15076952Y-10047113D01*
X-15101757Y-10036851D01*
X-15126462Y-10026393D01*
X-15152535Y-10015081D01*
X-15181445Y-10002260D01*
X-15214660Y-9987272D01*
X-15253648Y-9969462D01*
X-15299878Y-9948171D01*
X-15354817Y-9922744D01*
X-15413038Y-9895727D01*
X-15581331Y-9822944D01*
X-15748396Y-9761380D01*
X-15913856Y-9711060D01*
X-16077334Y-9672007D01*
X-16238454Y-9644247D01*
X-16396838Y-9627806D01*
X-16552110Y-9622707D01*
X-16703892Y-9628976D01*
X-16851808Y-9646637D01*
X-16995481Y-9675716D01*
X-17134533Y-9716238D01*
X-17268588Y-9768227D01*
X-17278076Y-9772431D01*
X-17308973Y-9786929D01*
X-17342468Y-9803806D01*
X-17376560Y-9821918D01*
X-17409249Y-9840126D01*
X-17438535Y-9857287D01*
X-17462417Y-9872259D01*
X-17478895Y-9883903D01*
X-17485960Y-9891053D01*
X-17733691Y-9891053D01*
X-17748005Y-9849781D01*
X-17793327Y-9682863D01*
X-17827114Y-9513055D01*
X-17849189Y-9340956D01*
X-17859373Y-9167164D01*
X-17857996Y-9039190D01*
X-17627199Y-9039190D01*
X-17627165Y-9114282D01*
X-17625360Y-9191288D01*
X-17621879Y-9266984D01*
X-17616814Y-9338142D01*
X-17610260Y-9401538D01*
X-17606388Y-9429750D01*
X-17599414Y-9472674D01*
X-17591248Y-9518003D01*
X-17582260Y-9564139D01*
X-17572821Y-9609483D01*
X-17563301Y-9652437D01*
X-17554069Y-9691404D01*
X-17545495Y-9724784D01*
X-17537949Y-9750979D01*
X-17531801Y-9768391D01*
X-17527421Y-9775422D01*
X-17526442Y-9775207D01*
X-17523199Y-9769245D01*
X-17514573Y-9752700D01*
X-17500942Y-9726309D01*
X-17482681Y-9690808D01*
X-17460168Y-9646932D01*
X-17433779Y-9595419D01*
X-17403892Y-9537004D01*
X-17370883Y-9472424D01*
X-17335130Y-9402415D01*
X-17297008Y-9327713D01*
X-17256896Y-9249054D01*
X-17215169Y-9167175D01*
X-17213782Y-9164452D01*
X-17171995Y-9082502D01*
X-17131777Y-9003776D01*
X-17093505Y-8929009D01*
X-17057560Y-8858934D01*
X-17024320Y-8794285D01*
X-16994164Y-8735797D01*
X-16967471Y-8684203D01*
X-16944621Y-8640237D01*
X-16925993Y-8604634D01*
X-16911965Y-8578127D01*
X-16902917Y-8561451D01*
X-16899228Y-8555339D01*
X-16899201Y-8555326D01*
X-16895426Y-8560522D01*
X-16886220Y-8576011D01*
X-16872093Y-8600863D01*
X-16853557Y-8634146D01*
X-16831123Y-8674931D01*
X-16805302Y-8722285D01*
X-16776604Y-8775279D01*
X-16745542Y-8832982D01*
X-16712626Y-8894463D01*
X-16701349Y-8915601D01*
X-16667930Y-8978171D01*
X-16636214Y-9037313D01*
X-16606710Y-9092092D01*
X-16579929Y-9141571D01*
X-16556381Y-9184815D01*
X-16536574Y-9220890D01*
X-16521020Y-9248860D01*
X-16510228Y-9267789D01*
X-16504707Y-9276743D01*
X-16504129Y-9277350D01*
X-16500669Y-9271831D01*
X-16491772Y-9255769D01*
X-16477828Y-9229904D01*
X-16459226Y-9194980D01*
X-16436356Y-9151736D01*
X-16409608Y-9100914D01*
X-16379371Y-9043256D01*
X-16346035Y-8979502D01*
X-16309989Y-8910395D01*
X-16271623Y-8836676D01*
X-16231326Y-8759086D01*
X-16196322Y-8691562D01*
X-16154683Y-8611206D01*
X-16114653Y-8534025D01*
X-16076623Y-8460768D01*
X-16040982Y-8392183D01*
X-16008122Y-8329019D01*
X-15978432Y-8272023D01*
X-15952301Y-8221944D01*
X-15930121Y-8179531D01*
X-15912281Y-8145531D01*
X-15899171Y-8120693D01*
X-15891181Y-8105765D01*
X-15888717Y-8101436D01*
X-15885188Y-8106273D01*
X-15876122Y-8121552D01*
X-15861941Y-8146500D01*
X-15843069Y-8180343D01*
X-15819928Y-8222308D01*
X-15792941Y-8271622D01*
X-15762531Y-8327513D01*
X-15729121Y-8389207D01*
X-15693133Y-8455931D01*
X-15654991Y-8526912D01*
X-15615117Y-8601376D01*
X-15608300Y-8614131D01*
X-15568164Y-8689194D01*
X-15529711Y-8760984D01*
X-15493364Y-8828719D01*
X-15459546Y-8891619D01*
X-15428677Y-8948903D01*
X-15401180Y-8999789D01*
X-15377478Y-9043498D01*
X-15357992Y-9079247D01*
X-15343144Y-9106257D01*
X-15333357Y-9123745D01*
X-15329052Y-9130932D01*
X-15328900Y-9131074D01*
X-15325441Y-9125591D01*
X-15316752Y-9109908D01*
X-15303412Y-9085119D01*
X-15285999Y-9052320D01*
X-15265092Y-9012604D01*
X-15241269Y-8967066D01*
X-15215108Y-8916800D01*
X-15187187Y-8862902D01*
X-15186342Y-8861267D01*
X-15158352Y-8807271D01*
X-15132062Y-8756881D01*
X-15108056Y-8711191D01*
X-15086917Y-8671296D01*
X-15069228Y-8638290D01*
X-15055573Y-8613268D01*
X-15046534Y-8597324D01*
X-15042694Y-8591554D01*
X-15042667Y-8591550D01*
X-15039106Y-8597021D01*
X-15030008Y-8612905D01*
X-15015805Y-8638404D01*
X-14996930Y-8672722D01*
X-14973816Y-8715061D01*
X-14946896Y-8764624D01*
X-14916603Y-8820616D01*
X-14883369Y-8882238D01*
X-14847628Y-8948694D01*
X-14809812Y-9019187D01*
X-14772751Y-9088437D01*
X-14733079Y-9162634D01*
X-14694895Y-9234016D01*
X-14658656Y-9301734D01*
X-14624815Y-9364939D01*
X-14593827Y-9422783D01*
X-14566148Y-9474417D01*
X-14542231Y-9518994D01*
X-14522532Y-9555665D01*
X-14507506Y-9583582D01*
X-14497606Y-9601896D01*
X-14493487Y-9609412D01*
X-14479847Y-9633500D01*
X-14349177Y-9380812D01*
X-14322078Y-9328632D01*
X-14296666Y-9280129D01*
X-14273546Y-9236428D01*
X-14253325Y-9198656D01*
X-14236608Y-9167938D01*
X-14224002Y-9145400D01*
X-14216114Y-9132169D01*
X-14213633Y-9129032D01*
X-14209627Y-9134649D01*
X-14200372Y-9150233D01*
X-14186567Y-9174531D01*
X-14168907Y-9206289D01*
X-14148091Y-9244253D01*
X-14124816Y-9287169D01*
X-14099830Y-9333687D01*
X-14074880Y-9380072D01*
X-14051740Y-9422549D01*
X-14031094Y-9459901D01*
X-14013630Y-9490911D01*
X-14000032Y-9514361D01*
X-13990987Y-9529033D01*
X-13987180Y-9533711D01*
X-13987168Y-9533700D01*
X-13983719Y-9527590D01*
X-13974908Y-9511078D01*
X-13961196Y-9485049D01*
X-13943044Y-9450388D01*
X-13920912Y-9407978D01*
X-13895263Y-9358705D01*
X-13866556Y-9303453D01*
X-13835254Y-9243106D01*
X-13801816Y-9178550D01*
X-13766704Y-9110668D01*
X-13765579Y-9108494D01*
X-13730459Y-9040630D01*
X-13697010Y-8976154D01*
X-13665689Y-8915939D01*
X-13636955Y-8860858D01*
X-13611268Y-8811787D01*
X-13589086Y-8769600D01*
X-13570867Y-8735171D01*
X-13557070Y-8709373D01*
X-13548153Y-8693082D01*
X-13544576Y-8687172D01*
X-13544550Y-8687164D01*
X-13540935Y-8692547D01*
X-13531502Y-8708064D01*
X-13516762Y-8732840D01*
X-13497229Y-8765998D01*
X-13473413Y-8806664D01*
X-13445827Y-8853961D01*
X-13414982Y-8907014D01*
X-13381391Y-8964946D01*
X-13345566Y-9026883D01*
X-13316291Y-9077601D01*
X-13279088Y-9141938D01*
X-13243680Y-9202835D01*
X-13210579Y-9259431D01*
X-13180301Y-9310862D01*
X-13153359Y-9356266D01*
X-13130266Y-9394781D01*
X-13111536Y-9425544D01*
X-13097682Y-9447694D01*
X-13089218Y-9460367D01*
X-13086680Y-9463110D01*
X-13082456Y-9452620D01*
X-13078230Y-9431099D01*
X-13074130Y-9400218D01*
X-13070283Y-9361644D01*
X-13066818Y-9317048D01*
X-13063861Y-9268098D01*
X-13061542Y-9216464D01*
X-13059988Y-9163814D01*
X-13059327Y-9111818D01*
X-13059314Y-9105900D01*
X-13060970Y-8996685D01*
X-13066448Y-8896080D01*
X-13076149Y-8800464D01*
X-13090480Y-8706215D01*
X-13109842Y-8609713D01*
X-13119169Y-8569325D01*
X-13163807Y-8407856D01*
X-13219289Y-8252421D01*
X-13286041Y-8102048D01*
X-13364489Y-7955765D01*
X-13443603Y-7829550D01*
X-13489106Y-7763568D01*
X-13533292Y-7703870D01*
X-13578584Y-7647533D01*
X-13627407Y-7591636D01*
X-13682186Y-7533256D01*
X-13728344Y-7486377D01*
X-13812374Y-7405465D01*
X-13893834Y-7333647D01*
X-13975688Y-7268589D01*
X-14060898Y-7207952D01*
X-14152429Y-7149401D01*
X-14166712Y-7140758D01*
X-14314127Y-7059421D01*
X-14465765Y-6989790D01*
X-14620966Y-6931845D01*
X-14779070Y-6885570D01*
X-14939415Y-6850946D01*
X-15101343Y-6827955D01*
X-15264191Y-6816580D01*
X-15427299Y-6816802D01*
X-15590006Y-6828603D01*
X-15751653Y-6851966D01*
X-15911578Y-6886872D01*
X-16069121Y-6933304D01*
X-16223622Y-6991243D01*
X-16374419Y-7060671D01*
X-16520852Y-7141571D01*
X-16624300Y-7207650D01*
X-16761034Y-7307811D01*
X-16889097Y-7416964D01*
X-17008152Y-7534535D01*
X-17117863Y-7659950D01*
X-17217892Y-7792636D01*
X-17307904Y-7932017D01*
X-17387560Y-8077520D01*
X-17456526Y-8228571D01*
X-17514463Y-8384596D01*
X-17561035Y-8545021D01*
X-17595905Y-8709271D01*
X-17618738Y-8876773D01*
X-17621580Y-8907655D01*
X-17625369Y-8969239D01*
X-17627199Y-9039190D01*
X-17857996Y-9039190D01*
X-17857490Y-8992280D01*
X-17843361Y-8816901D01*
X-17816809Y-8641627D01*
X-17805471Y-8584767D01*
X-17762975Y-8413690D01*
X-17709060Y-8247498D01*
X-17644181Y-8086631D01*
X-17568793Y-7931526D01*
X-17483351Y-7782621D01*
X-17388309Y-7640356D01*
X-17284122Y-7505167D01*
X-17171245Y-7377494D01*
X-17050133Y-7257773D01*
X-16921240Y-7146445D01*
X-16785022Y-7043946D01*
X-16641932Y-6950715D01*
X-16492426Y-6867190D01*
X-16336958Y-6793810D01*
X-16175983Y-6731012D01*
X-16009957Y-6679235D01*
X-15839333Y-6638917D01*
X-15773400Y-6626695D01*
X-15721168Y-6617960D01*
X-15675411Y-6610939D01*
X-15633690Y-6605449D01*
X-15593568Y-6601308D01*
X-15552609Y-6598335D01*
X-15508373Y-6596347D01*
X-15458425Y-6595163D01*
X-15400327Y-6594600D01*
X-15341600Y-6594475D01*
X-15275491Y-6594633D01*
G36*
X73193Y-8540824D02*
X118448Y-8541035D01*
X157888Y-8541365D01*
X190017Y-8541796D01*
X213339Y-8542308D01*
X226357Y-8542884D01*
X228600Y-8543253D01*
X226383Y-8550483D01*
X219952Y-8568705D01*
X209636Y-8597056D01*
X195763Y-8634668D01*
X178663Y-8680676D01*
X158663Y-8734213D01*
X136094Y-8794413D01*
X111283Y-8860411D01*
X84559Y-8931341D01*
X56251Y-9006336D01*
X26689Y-9084530D01*
X-3800Y-9165058D01*
X-34886Y-9247053D01*
X-66241Y-9329649D01*
X-97536Y-9411980D01*
X-128442Y-9493181D01*
X-158630Y-9572385D01*
X-187772Y-9648726D01*
X-215538Y-9721338D01*
X-241601Y-9789355D01*
X-265630Y-9851911D01*
X-287298Y-9908140D01*
X-306276Y-9957176D01*
X-322234Y-9998154D01*
X-334845Y-10030206D01*
X-343778Y-10052467D01*
X-348706Y-10064071D01*
X-349035Y-10064750D01*
X-388992Y-10134992D01*
X-432491Y-10193273D01*
X-479905Y-10239925D01*
X-531605Y-10275285D01*
X-587963Y-10299687D01*
X-619125Y-10308133D01*
X-664954Y-10315682D01*
X-717554Y-10320235D01*
X-771294Y-10321528D01*
X-820543Y-10319295D01*
X-831718Y-10318128D01*
X-897963Y-10306460D01*
X-964206Y-10286739D01*
X-984250Y-10279305D01*
X-1011049Y-10268329D01*
X-1037641Y-10256352D01*
X-1061476Y-10244659D01*
X-1080003Y-10234532D01*
X-1090672Y-10227252D01*
X-1092267Y-10224996D01*
X-1089692Y-10217092D01*
X-1082497Y-10200009D01*
X-1071598Y-10175656D01*
X-1057909Y-10145941D01*
X-1042343Y-10112772D01*
X-1025814Y-10078058D01*
X-1009237Y-10043708D01*
X-993525Y-10011631D01*
X-979593Y-9983735D01*
X-968354Y-9961929D01*
X-960724Y-9948122D01*
X-957749Y-9944100D01*
X-949324Y-9946779D01*
X-933656Y-9953674D01*
X-920646Y-9960027D01*
X-869080Y-9981186D01*
X-818854Y-9992170D01*
X-771911Y-9992672D01*
X-746125Y-9987812D01*
X-725440Y-9978137D01*
X-703734Y-9961882D01*
X-684736Y-9942509D01*
X-672171Y-9923481D01*
X-669824Y-9916922D01*
X-671556Y-9908375D01*
X-678046Y-9888054D01*
X-689293Y-9855960D01*
X-705295Y-9812095D01*
X-726053Y-9756459D01*
X-751566Y-9689055D01*
X-781834Y-9609884D01*
X-816855Y-9518945D01*
X-856631Y-9416242D01*
X-901159Y-9301775D01*
X-930100Y-9227596D01*
X-964617Y-9139164D01*
X-997814Y-9054011D01*
X-1029403Y-8972887D01*
X-1059093Y-8896541D01*
X-1086593Y-8825723D01*
X-1111615Y-8761183D01*
X-1133866Y-8703670D01*
X-1153059Y-8653934D01*
X-1168901Y-8612723D01*
X-1181103Y-8580788D01*
X-1189375Y-8558879D01*
X-1193427Y-8547744D01*
X-1193800Y-8546472D01*
X-1187620Y-8544919D01*
X-1169748Y-8543672D01*
X-1141192Y-8542749D01*
X-1102958Y-8542173D01*
X-1056051Y-8541963D01*
X-1001477Y-8542140D01*
X-986365Y-8542250D01*
X-778930Y-8543925D01*
X-474594Y-9456945D01*
X-370791Y-9133785D01*
X-349314Y-9066888D01*
X-327603Y-8999203D01*
X-306240Y-8932548D01*
X-285807Y-8868737D01*
X-266884Y-8809586D01*
X-250053Y-8756912D01*
X-235894Y-8712529D01*
X-224990Y-8678255D01*
X-224174Y-8675687D01*
X-181361Y-8540750D01*
X23619Y-8540750D01*
X73193Y-8540824D01*
X73193Y-8540824D01*
G37*
X73193Y-8540824D02*
X118448Y-8541035D01*
X157888Y-8541365D01*
X190017Y-8541796D01*
X213339Y-8542308D01*
X226357Y-8542884D01*
X228600Y-8543253D01*
X226383Y-8550483D01*
X219952Y-8568705D01*
X209636Y-8597056D01*
X195763Y-8634668D01*
X178663Y-8680676D01*
X158663Y-8734213D01*
X136094Y-8794413D01*
X111283Y-8860411D01*
X84559Y-8931341D01*
X56251Y-9006336D01*
X26689Y-9084530D01*
X-3800Y-9165058D01*
X-34886Y-9247053D01*
X-66241Y-9329649D01*
X-97536Y-9411980D01*
X-128442Y-9493181D01*
X-158630Y-9572385D01*
X-187772Y-9648726D01*
X-215538Y-9721338D01*
X-241601Y-9789355D01*
X-265630Y-9851911D01*
X-287298Y-9908140D01*
X-306276Y-9957176D01*
X-322234Y-9998154D01*
X-334845Y-10030206D01*
X-343778Y-10052467D01*
X-348706Y-10064071D01*
X-349035Y-10064750D01*
X-388992Y-10134992D01*
X-432491Y-10193273D01*
X-479905Y-10239925D01*
X-531605Y-10275285D01*
X-587963Y-10299687D01*
X-619125Y-10308133D01*
X-664954Y-10315682D01*
X-717554Y-10320235D01*
X-771294Y-10321528D01*
X-820543Y-10319295D01*
X-831718Y-10318128D01*
X-897963Y-10306460D01*
X-964206Y-10286739D01*
X-984250Y-10279305D01*
X-1011049Y-10268329D01*
X-1037641Y-10256352D01*
X-1061476Y-10244659D01*
X-1080003Y-10234532D01*
X-1090672Y-10227252D01*
X-1092267Y-10224996D01*
X-1089692Y-10217092D01*
X-1082497Y-10200009D01*
X-1071598Y-10175656D01*
X-1057909Y-10145941D01*
X-1042343Y-10112772D01*
X-1025814Y-10078058D01*
X-1009237Y-10043708D01*
X-993525Y-10011631D01*
X-979593Y-9983735D01*
X-968354Y-9961929D01*
X-960724Y-9948122D01*
X-957749Y-9944100D01*
X-949324Y-9946779D01*
X-933656Y-9953674D01*
X-920646Y-9960027D01*
X-869080Y-9981186D01*
X-818854Y-9992170D01*
X-771911Y-9992672D01*
X-746125Y-9987812D01*
X-725440Y-9978137D01*
X-703734Y-9961882D01*
X-684736Y-9942509D01*
X-672171Y-9923481D01*
X-669824Y-9916922D01*
X-671556Y-9908375D01*
X-678046Y-9888054D01*
X-689293Y-9855960D01*
X-705295Y-9812095D01*
X-726053Y-9756459D01*
X-751566Y-9689055D01*
X-781834Y-9609884D01*
X-816855Y-9518945D01*
X-856631Y-9416242D01*
X-901159Y-9301775D01*
X-930100Y-9227596D01*
X-964617Y-9139164D01*
X-997814Y-9054011D01*
X-1029403Y-8972887D01*
X-1059093Y-8896541D01*
X-1086593Y-8825723D01*
X-1111615Y-8761183D01*
X-1133866Y-8703670D01*
X-1153059Y-8653934D01*
X-1168901Y-8612723D01*
X-1181103Y-8580788D01*
X-1189375Y-8558879D01*
X-1193427Y-8547744D01*
X-1193800Y-8546472D01*
X-1187620Y-8544919D01*
X-1169748Y-8543672D01*
X-1141192Y-8542749D01*
X-1102958Y-8542173D01*
X-1056051Y-8541963D01*
X-1001477Y-8542140D01*
X-986365Y-8542250D01*
X-778930Y-8543925D01*
X-474594Y-9456945D01*
X-370791Y-9133785D01*
X-349314Y-9066888D01*
X-327603Y-8999203D01*
X-306240Y-8932548D01*
X-285807Y-8868737D01*
X-266884Y-8809586D01*
X-250053Y-8756912D01*
X-235894Y-8712529D01*
X-224990Y-8678255D01*
X-224174Y-8675687D01*
X-181361Y-8540750D01*
X23619Y-8540750D01*
X73193Y-8540824D01*
G36*
X-11629490Y-8519066D02*
X-11542388Y-8531743D01*
X-11462645Y-8553247D01*
X-11388939Y-8584081D01*
X-11319945Y-8624748D01*
X-11254341Y-8675750D01*
X-11221438Y-8706219D01*
X-11181150Y-8745571D01*
X-11218628Y-8784448D01*
X-11235279Y-8801873D01*
X-11258368Y-8826247D01*
X-11285683Y-8855223D01*
X-11315010Y-8886455D01*
X-11340485Y-8913684D01*
X-11424863Y-9004044D01*
X-11468373Y-8964607D01*
X-11517258Y-8924042D01*
X-11563755Y-8893896D01*
X-11610504Y-8872927D01*
X-11660144Y-8859892D01*
X-11702370Y-8854448D01*
X-11766674Y-8854991D01*
X-11826592Y-8867449D01*
X-11882006Y-8891779D01*
X-11932800Y-8927934D01*
X-11958856Y-8952982D01*
X-12000169Y-9004946D01*
X-12030506Y-9061958D01*
X-12050184Y-9124870D01*
X-12059518Y-9194531D01*
X-12060430Y-9226550D01*
X-12054895Y-9298374D01*
X-12038507Y-9365145D01*
X-12011633Y-9425920D01*
X-11974638Y-9479755D01*
X-11953206Y-9503039D01*
X-11907497Y-9541514D01*
X-11858333Y-9569198D01*
X-11803978Y-9586758D01*
X-11742696Y-9594861D01*
X-11712370Y-9595600D01*
X-11651546Y-9590431D01*
X-11593520Y-9575019D01*
X-11536654Y-9548716D01*
X-11479310Y-9510870D01*
X-11459282Y-9495151D01*
X-11439907Y-9479511D01*
X-11423498Y-9466538D01*
X-11413284Y-9458780D01*
X-11412634Y-9458325D01*
X-11407879Y-9458168D01*
X-11399597Y-9462758D01*
X-11386881Y-9472909D01*
X-11368825Y-9489436D01*
X-11344524Y-9513153D01*
X-11313072Y-9544874D01*
X-11289465Y-9569039D01*
X-11175553Y-9686104D01*
X-11212289Y-9723419D01*
X-11264739Y-9771621D01*
X-11322720Y-9816024D01*
X-11383202Y-9854648D01*
X-11443151Y-9885514D01*
X-11486811Y-9902672D01*
X-11540324Y-9916941D01*
X-11602248Y-9927665D01*
X-11668725Y-9934581D01*
X-11735898Y-9937427D01*
X-11799908Y-9935939D01*
X-11856899Y-9929854D01*
X-11864975Y-9928461D01*
X-11956019Y-9905840D01*
X-12042545Y-9872512D01*
X-12123291Y-9829232D01*
X-12196997Y-9776756D01*
X-12262403Y-9715841D01*
X-12306041Y-9664025D01*
X-12356789Y-9586619D01*
X-12396454Y-9504679D01*
X-12425158Y-9419344D01*
X-12443025Y-9331753D01*
X-12450180Y-9243046D01*
X-12446745Y-9154364D01*
X-12432844Y-9066845D01*
X-12408602Y-8981630D01*
X-12374141Y-8899857D01*
X-12329586Y-8822668D01*
X-12275060Y-8751201D01*
X-12210688Y-8686597D01*
X-12198839Y-8676433D01*
X-12125047Y-8622121D01*
X-12046520Y-8579100D01*
X-11962703Y-8547181D01*
X-11873041Y-8526173D01*
X-11776981Y-8515889D01*
X-11725275Y-8514712D01*
X-11629490Y-8519066D01*
X-11629490Y-8519066D01*
G37*
X-11629490Y-8519066D02*
X-11542388Y-8531743D01*
X-11462645Y-8553247D01*
X-11388939Y-8584081D01*
X-11319945Y-8624748D01*
X-11254341Y-8675750D01*
X-11221438Y-8706219D01*
X-11181150Y-8745571D01*
X-11218628Y-8784448D01*
X-11235279Y-8801873D01*
X-11258368Y-8826247D01*
X-11285683Y-8855223D01*
X-11315010Y-8886455D01*
X-11340485Y-8913684D01*
X-11424863Y-9004044D01*
X-11468373Y-8964607D01*
X-11517258Y-8924042D01*
X-11563755Y-8893896D01*
X-11610504Y-8872927D01*
X-11660144Y-8859892D01*
X-11702370Y-8854448D01*
X-11766674Y-8854991D01*
X-11826592Y-8867449D01*
X-11882006Y-8891779D01*
X-11932800Y-8927934D01*
X-11958856Y-8952982D01*
X-12000169Y-9004946D01*
X-12030506Y-9061958D01*
X-12050184Y-9124870D01*
X-12059518Y-9194531D01*
X-12060430Y-9226550D01*
X-12054895Y-9298374D01*
X-12038507Y-9365145D01*
X-12011633Y-9425920D01*
X-11974638Y-9479755D01*
X-11953206Y-9503039D01*
X-11907497Y-9541514D01*
X-11858333Y-9569198D01*
X-11803978Y-9586758D01*
X-11742696Y-9594861D01*
X-11712370Y-9595600D01*
X-11651546Y-9590431D01*
X-11593520Y-9575019D01*
X-11536654Y-9548716D01*
X-11479310Y-9510870D01*
X-11459282Y-9495151D01*
X-11439907Y-9479511D01*
X-11423498Y-9466538D01*
X-11413284Y-9458780D01*
X-11412634Y-9458325D01*
X-11407879Y-9458168D01*
X-11399597Y-9462758D01*
X-11386881Y-9472909D01*
X-11368825Y-9489436D01*
X-11344524Y-9513153D01*
X-11313072Y-9544874D01*
X-11289465Y-9569039D01*
X-11175553Y-9686104D01*
X-11212289Y-9723419D01*
X-11264739Y-9771621D01*
X-11322720Y-9816024D01*
X-11383202Y-9854648D01*
X-11443151Y-9885514D01*
X-11486811Y-9902672D01*
X-11540324Y-9916941D01*
X-11602248Y-9927665D01*
X-11668725Y-9934581D01*
X-11735898Y-9937427D01*
X-11799908Y-9935939D01*
X-11856899Y-9929854D01*
X-11864975Y-9928461D01*
X-11956019Y-9905840D01*
X-12042545Y-9872512D01*
X-12123291Y-9829232D01*
X-12196997Y-9776756D01*
X-12262403Y-9715841D01*
X-12306041Y-9664025D01*
X-12356789Y-9586619D01*
X-12396454Y-9504679D01*
X-12425158Y-9419344D01*
X-12443025Y-9331753D01*
X-12450180Y-9243046D01*
X-12446745Y-9154364D01*
X-12432844Y-9066845D01*
X-12408602Y-8981630D01*
X-12374141Y-8899857D01*
X-12329586Y-8822668D01*
X-12275060Y-8751201D01*
X-12210688Y-8686597D01*
X-12198839Y-8676433D01*
X-12125047Y-8622121D01*
X-12046520Y-8579100D01*
X-11962703Y-8547181D01*
X-11873041Y-8526173D01*
X-11776981Y-8515889D01*
X-11725275Y-8514712D01*
X-11629490Y-8519066D01*
G36*
X-10322323Y-8515950D02*
X-10272610Y-8519925D01*
X-10238158Y-8524923D01*
X-10142618Y-8548697D01*
X-10053343Y-8582752D01*
X-9970991Y-8626537D01*
X-9896219Y-8679499D01*
X-9829688Y-8741086D01*
X-9772054Y-8810746D01*
X-9723977Y-8887926D01*
X-9686114Y-8972074D01*
X-9678108Y-8994775D01*
X-9655721Y-9080517D01*
X-9644174Y-9169406D01*
X-9643326Y-9259403D01*
X-9653037Y-9348468D01*
X-9673167Y-9434563D01*
X-9703577Y-9515649D01*
X-9715581Y-9540450D01*
X-9765060Y-9623482D01*
X-9823549Y-9697652D01*
X-9890714Y-9762696D01*
X-9966220Y-9818351D01*
X-10049731Y-9864353D01*
X-10140911Y-9900438D01*
X-10192808Y-9915602D01*
X-10221409Y-9922493D01*
X-10247686Y-9927440D01*
X-10275103Y-9930835D01*
X-10307121Y-9933071D01*
X-10347203Y-9934541D01*
X-10363200Y-9934934D01*
X-10421189Y-9935399D01*
X-10468400Y-9933856D01*
X-10506611Y-9930228D01*
X-10519686Y-9928191D01*
X-10615029Y-9905446D01*
X-10704157Y-9872250D01*
X-10786448Y-9829252D01*
X-10861282Y-9777104D01*
X-10928039Y-9716458D01*
X-10986096Y-9647963D01*
X-11034835Y-9572271D01*
X-11073634Y-9490034D01*
X-11101873Y-9401900D01*
X-11118930Y-9308523D01*
X-11120034Y-9298572D01*
X-11122454Y-9232264D01*
X-10733570Y-9232264D01*
X-10726683Y-9298030D01*
X-10709728Y-9361023D01*
X-10682923Y-9419433D01*
X-10646487Y-9471445D01*
X-10638006Y-9480982D01*
X-10599814Y-9518268D01*
X-10561617Y-9546589D01*
X-10519186Y-9568953D01*
X-10507167Y-9574070D01*
X-10461155Y-9587697D01*
X-10408582Y-9594783D01*
X-10353800Y-9595277D01*
X-10301164Y-9589130D01*
X-10256794Y-9576970D01*
X-10197208Y-9548155D01*
X-10146196Y-9510469D01*
X-10104407Y-9464485D01*
X-10074922Y-9415875D01*
X-10054228Y-9367787D01*
X-10041125Y-9322000D01*
X-10034463Y-9273417D01*
X-10033000Y-9229725D01*
X-10038099Y-9157550D01*
X-10053553Y-9092441D01*
X-10079599Y-9033789D01*
X-10116474Y-8980986D01*
X-10139281Y-8956354D01*
X-10190947Y-8913645D01*
X-10247666Y-8882169D01*
X-10308253Y-8862093D01*
X-10371526Y-8853586D01*
X-10436301Y-8856817D01*
X-10501395Y-8871953D01*
X-10560356Y-8896442D01*
X-10587502Y-8914252D01*
X-10617165Y-8940257D01*
X-10646317Y-8971225D01*
X-10671929Y-9003927D01*
X-10690972Y-9035131D01*
X-10691631Y-9036460D01*
X-10716263Y-9099666D01*
X-10730169Y-9165539D01*
X-10733570Y-9232264D01*
X-11122454Y-9232264D01*
X-11123335Y-9208143D01*
X-11114873Y-9117420D01*
X-11095131Y-9028347D01*
X-11064591Y-8942870D01*
X-11023736Y-8862932D01*
X-11004355Y-8832561D01*
X-10977838Y-8797458D01*
X-10944234Y-8758827D01*
X-10906979Y-8720249D01*
X-10869509Y-8685308D01*
X-10839775Y-8660932D01*
X-10776111Y-8619084D01*
X-10703793Y-8582170D01*
X-10626408Y-8551736D01*
X-10547543Y-8529328D01*
X-10522224Y-8524038D01*
X-10480470Y-8518392D01*
X-10430442Y-8515171D01*
X-10376330Y-8514361D01*
X-10322323Y-8515950D01*
X-10322323Y-8515950D01*
G37*
X-10322323Y-8515950D02*
X-10272610Y-8519925D01*
X-10238158Y-8524923D01*
X-10142618Y-8548697D01*
X-10053343Y-8582752D01*
X-9970991Y-8626537D01*
X-9896219Y-8679499D01*
X-9829688Y-8741086D01*
X-9772054Y-8810746D01*
X-9723977Y-8887926D01*
X-9686114Y-8972074D01*
X-9678108Y-8994775D01*
X-9655721Y-9080517D01*
X-9644174Y-9169406D01*
X-9643326Y-9259403D01*
X-9653037Y-9348468D01*
X-9673167Y-9434563D01*
X-9703577Y-9515649D01*
X-9715581Y-9540450D01*
X-9765060Y-9623482D01*
X-9823549Y-9697652D01*
X-9890714Y-9762696D01*
X-9966220Y-9818351D01*
X-10049731Y-9864353D01*
X-10140911Y-9900438D01*
X-10192808Y-9915602D01*
X-10221409Y-9922493D01*
X-10247686Y-9927440D01*
X-10275103Y-9930835D01*
X-10307121Y-9933071D01*
X-10347203Y-9934541D01*
X-10363200Y-9934934D01*
X-10421189Y-9935399D01*
X-10468400Y-9933856D01*
X-10506611Y-9930228D01*
X-10519686Y-9928191D01*
X-10615029Y-9905446D01*
X-10704157Y-9872250D01*
X-10786448Y-9829252D01*
X-10861282Y-9777104D01*
X-10928039Y-9716458D01*
X-10986096Y-9647963D01*
X-11034835Y-9572271D01*
X-11073634Y-9490034D01*
X-11101873Y-9401900D01*
X-11118930Y-9308523D01*
X-11120034Y-9298572D01*
X-11122454Y-9232264D01*
X-10733570Y-9232264D01*
X-10726683Y-9298030D01*
X-10709728Y-9361023D01*
X-10682923Y-9419433D01*
X-10646487Y-9471445D01*
X-10638006Y-9480982D01*
X-10599814Y-9518268D01*
X-10561617Y-9546589D01*
X-10519186Y-9568953D01*
X-10507167Y-9574070D01*
X-10461155Y-9587697D01*
X-10408582Y-9594783D01*
X-10353800Y-9595277D01*
X-10301164Y-9589130D01*
X-10256794Y-9576970D01*
X-10197208Y-9548155D01*
X-10146196Y-9510469D01*
X-10104407Y-9464485D01*
X-10074922Y-9415875D01*
X-10054228Y-9367787D01*
X-10041125Y-9322000D01*
X-10034463Y-9273417D01*
X-10033000Y-9229725D01*
X-10038099Y-9157550D01*
X-10053553Y-9092441D01*
X-10079599Y-9033789D01*
X-10116474Y-8980986D01*
X-10139281Y-8956354D01*
X-10190947Y-8913645D01*
X-10247666Y-8882169D01*
X-10308253Y-8862093D01*
X-10371526Y-8853586D01*
X-10436301Y-8856817D01*
X-10501395Y-8871953D01*
X-10560356Y-8896442D01*
X-10587502Y-8914252D01*
X-10617165Y-8940257D01*
X-10646317Y-8971225D01*
X-10671929Y-9003927D01*
X-10690972Y-9035131D01*
X-10691631Y-9036460D01*
X-10716263Y-9099666D01*
X-10730169Y-9165539D01*
X-10733570Y-9232264D01*
X-11122454Y-9232264D01*
X-11123335Y-9208143D01*
X-11114873Y-9117420D01*
X-11095131Y-9028347D01*
X-11064591Y-8942870D01*
X-11023736Y-8862932D01*
X-11004355Y-8832561D01*
X-10977838Y-8797458D01*
X-10944234Y-8758827D01*
X-10906979Y-8720249D01*
X-10869509Y-8685308D01*
X-10839775Y-8660932D01*
X-10776111Y-8619084D01*
X-10703793Y-8582170D01*
X-10626408Y-8551736D01*
X-10547543Y-8529328D01*
X-10522224Y-8524038D01*
X-10480470Y-8518392D01*
X-10430442Y-8515171D01*
X-10376330Y-8514361D01*
X-10322323Y-8515950D01*
G36*
X-6077699Y-8517352D02*
X-6026304Y-8521079D01*
X-5980586Y-8526816D01*
X-5946775Y-8533742D01*
X-5863480Y-8562126D01*
X-5787013Y-8601025D01*
X-5717738Y-8650028D01*
X-5656014Y-8708722D01*
X-5602204Y-8776692D01*
X-5556669Y-8853526D01*
X-5519769Y-8938811D01*
X-5491868Y-9032134D01*
X-5485391Y-9061224D01*
X-5481422Y-9085538D01*
X-5477743Y-9117349D01*
X-5474473Y-9154237D01*
X-5471734Y-9193779D01*
X-5469646Y-9233553D01*
X-5468331Y-9271138D01*
X-5467908Y-9304111D01*
X-5468500Y-9330051D01*
X-5470226Y-9346535D01*
X-5471017Y-9349365D01*
X-5472533Y-9351351D01*
X-5476014Y-9353073D01*
X-5482309Y-9354548D01*
X-5492263Y-9355796D01*
X-5506725Y-9356835D01*
X-5526541Y-9357685D01*
X-5552558Y-9358364D01*
X-5585625Y-9358890D01*
X-5626586Y-9359283D01*
X-5676291Y-9359561D01*
X-5735586Y-9359742D01*
X-5805318Y-9359847D01*
X-5886334Y-9359892D01*
X-5947455Y-9359900D01*
X-6023655Y-9359920D01*
X-6096046Y-9359980D01*
X-6163643Y-9360077D01*
X-6225458Y-9360206D01*
X-6280508Y-9360364D01*
X-6327807Y-9360548D01*
X-6366369Y-9360756D01*
X-6395208Y-9360983D01*
X-6413340Y-9361226D01*
X-6419779Y-9361481D01*
X-6419782Y-9361487D01*
X-6416924Y-9374377D01*
X-6410002Y-9394926D01*
X-6400478Y-9419360D01*
X-6389816Y-9443902D01*
X-6380416Y-9463042D01*
X-6347158Y-9512569D01*
X-6305298Y-9553057D01*
X-6255446Y-9584207D01*
X-6198214Y-9605723D01*
X-6134211Y-9617307D01*
X-6064047Y-9618661D01*
X-6061344Y-9618512D01*
X-5992029Y-9609085D01*
X-5926308Y-9588727D01*
X-5862799Y-9556869D01*
X-5800118Y-9512943D01*
X-5795235Y-9509001D01*
X-5759440Y-9479843D01*
X-5648772Y-9577034D01*
X-5617294Y-9604943D01*
X-5589259Y-9630306D01*
X-5566014Y-9651864D01*
X-5548904Y-9668355D01*
X-5539277Y-9678521D01*
X-5537652Y-9681013D01*
X-5541947Y-9688828D01*
X-5554105Y-9702984D01*
X-5572228Y-9721697D01*
X-5594420Y-9743183D01*
X-5618782Y-9765657D01*
X-5643418Y-9787335D01*
X-5666429Y-9806433D01*
X-5685919Y-9821167D01*
X-5688846Y-9823177D01*
X-5765236Y-9867063D01*
X-5848827Y-9900951D01*
X-5938468Y-9924411D01*
X-5978525Y-9931178D01*
X-6015951Y-9934781D01*
X-6061596Y-9936565D01*
X-6111120Y-9936587D01*
X-6160181Y-9934904D01*
X-6204438Y-9931572D01*
X-6232925Y-9927850D01*
X-6325975Y-9906412D01*
X-6412090Y-9874436D01*
X-6491791Y-9831664D01*
X-6565599Y-9777838D01*
X-6601854Y-9745364D01*
X-6664054Y-9677245D01*
X-6715732Y-9602088D01*
X-6756725Y-9520201D01*
X-6786872Y-9431891D01*
X-6801465Y-9366250D01*
X-6806190Y-9328335D01*
X-6808940Y-9281980D01*
X-6809751Y-9231128D01*
X-6808657Y-9179723D01*
X-6805694Y-9131706D01*
X-6803400Y-9112250D01*
X-6425012Y-9112250D01*
X-6139856Y-9112250D01*
X-6072159Y-9112225D01*
X-6016076Y-9112123D01*
X-5970520Y-9111900D01*
X-5934408Y-9111516D01*
X-5906651Y-9110927D01*
X-5886165Y-9110091D01*
X-5871864Y-9108966D01*
X-5862662Y-9107509D01*
X-5857472Y-9105678D01*
X-5855209Y-9103432D01*
X-5854776Y-9101137D01*
X-5857306Y-9082614D01*
X-5863874Y-9056726D01*
X-5873221Y-9027651D01*
X-5884089Y-8999567D01*
X-5888098Y-8990575D01*
X-5918005Y-8938405D01*
X-5954410Y-8896890D01*
X-5997991Y-8865396D01*
X-6044161Y-8845011D01*
X-6066416Y-8838407D01*
X-6087616Y-8834626D01*
X-6112131Y-8833203D01*
X-6144333Y-8833676D01*
X-6149303Y-8833852D01*
X-6180887Y-8835444D01*
X-6203996Y-8838066D01*
X-6222858Y-8842625D01*
X-6241696Y-8850028D01*
X-6255686Y-8856673D01*
X-6302063Y-8886468D01*
X-6342635Y-8926899D01*
X-6376725Y-8976985D01*
X-6403657Y-9035742D01*
X-6421834Y-9097962D01*
X-6425012Y-9112250D01*
X-6803400Y-9112250D01*
X-6800896Y-9091022D01*
X-6798921Y-9079902D01*
X-6774461Y-8985847D01*
X-6739963Y-8898463D01*
X-6696004Y-8818352D01*
X-6643160Y-8746116D01*
X-6582005Y-8682358D01*
X-6513116Y-8627680D01*
X-6437067Y-8582683D01*
X-6354434Y-8547969D01*
X-6268050Y-8524593D01*
X-6229944Y-8519256D01*
X-6183118Y-8516338D01*
X-6131170Y-8515737D01*
X-6077699Y-8517352D01*
X-6077699Y-8517352D01*
G37*
X-6077699Y-8517352D02*
X-6026304Y-8521079D01*
X-5980586Y-8526816D01*
X-5946775Y-8533742D01*
X-5863480Y-8562126D01*
X-5787013Y-8601025D01*
X-5717738Y-8650028D01*
X-5656014Y-8708722D01*
X-5602204Y-8776692D01*
X-5556669Y-8853526D01*
X-5519769Y-8938811D01*
X-5491868Y-9032134D01*
X-5485391Y-9061224D01*
X-5481422Y-9085538D01*
X-5477743Y-9117349D01*
X-5474473Y-9154237D01*
X-5471734Y-9193779D01*
X-5469646Y-9233553D01*
X-5468331Y-9271138D01*
X-5467908Y-9304111D01*
X-5468500Y-9330051D01*
X-5470226Y-9346535D01*
X-5471017Y-9349365D01*
X-5472533Y-9351351D01*
X-5476014Y-9353073D01*
X-5482309Y-9354548D01*
X-5492263Y-9355796D01*
X-5506725Y-9356835D01*
X-5526541Y-9357685D01*
X-5552558Y-9358364D01*
X-5585625Y-9358890D01*
X-5626586Y-9359283D01*
X-5676291Y-9359561D01*
X-5735586Y-9359742D01*
X-5805318Y-9359847D01*
X-5886334Y-9359892D01*
X-5947455Y-9359900D01*
X-6023655Y-9359920D01*
X-6096046Y-9359980D01*
X-6163643Y-9360077D01*
X-6225458Y-9360206D01*
X-6280508Y-9360364D01*
X-6327807Y-9360548D01*
X-6366369Y-9360756D01*
X-6395208Y-9360983D01*
X-6413340Y-9361226D01*
X-6419779Y-9361481D01*
X-6419782Y-9361487D01*
X-6416924Y-9374377D01*
X-6410002Y-9394926D01*
X-6400478Y-9419360D01*
X-6389816Y-9443902D01*
X-6380416Y-9463042D01*
X-6347158Y-9512569D01*
X-6305298Y-9553057D01*
X-6255446Y-9584207D01*
X-6198214Y-9605723D01*
X-6134211Y-9617307D01*
X-6064047Y-9618661D01*
X-6061344Y-9618512D01*
X-5992029Y-9609085D01*
X-5926308Y-9588727D01*
X-5862799Y-9556869D01*
X-5800118Y-9512943D01*
X-5795235Y-9509001D01*
X-5759440Y-9479843D01*
X-5648772Y-9577034D01*
X-5617294Y-9604943D01*
X-5589259Y-9630306D01*
X-5566014Y-9651864D01*
X-5548904Y-9668355D01*
X-5539277Y-9678521D01*
X-5537652Y-9681013D01*
X-5541947Y-9688828D01*
X-5554105Y-9702984D01*
X-5572228Y-9721697D01*
X-5594420Y-9743183D01*
X-5618782Y-9765657D01*
X-5643418Y-9787335D01*
X-5666429Y-9806433D01*
X-5685919Y-9821167D01*
X-5688846Y-9823177D01*
X-5765236Y-9867063D01*
X-5848827Y-9900951D01*
X-5938468Y-9924411D01*
X-5978525Y-9931178D01*
X-6015951Y-9934781D01*
X-6061596Y-9936565D01*
X-6111120Y-9936587D01*
X-6160181Y-9934904D01*
X-6204438Y-9931572D01*
X-6232925Y-9927850D01*
X-6325975Y-9906412D01*
X-6412090Y-9874436D01*
X-6491791Y-9831664D01*
X-6565599Y-9777838D01*
X-6601854Y-9745364D01*
X-6664054Y-9677245D01*
X-6715732Y-9602088D01*
X-6756725Y-9520201D01*
X-6786872Y-9431891D01*
X-6801465Y-9366250D01*
X-6806190Y-9328335D01*
X-6808940Y-9281980D01*
X-6809751Y-9231128D01*
X-6808657Y-9179723D01*
X-6805694Y-9131706D01*
X-6803400Y-9112250D01*
X-6425012Y-9112250D01*
X-6139856Y-9112250D01*
X-6072159Y-9112225D01*
X-6016076Y-9112123D01*
X-5970520Y-9111900D01*
X-5934408Y-9111516D01*
X-5906651Y-9110927D01*
X-5886165Y-9110091D01*
X-5871864Y-9108966D01*
X-5862662Y-9107509D01*
X-5857472Y-9105678D01*
X-5855209Y-9103432D01*
X-5854776Y-9101137D01*
X-5857306Y-9082614D01*
X-5863874Y-9056726D01*
X-5873221Y-9027651D01*
X-5884089Y-8999567D01*
X-5888098Y-8990575D01*
X-5918005Y-8938405D01*
X-5954410Y-8896890D01*
X-5997991Y-8865396D01*
X-6044161Y-8845011D01*
X-6066416Y-8838407D01*
X-6087616Y-8834626D01*
X-6112131Y-8833203D01*
X-6144333Y-8833676D01*
X-6149303Y-8833852D01*
X-6180887Y-8835444D01*
X-6203996Y-8838066D01*
X-6222858Y-8842625D01*
X-6241696Y-8850028D01*
X-6255686Y-8856673D01*
X-6302063Y-8886468D01*
X-6342635Y-8926899D01*
X-6376725Y-8976985D01*
X-6403657Y-9035742D01*
X-6421834Y-9097962D01*
X-6425012Y-9112250D01*
X-6803400Y-9112250D01*
X-6800896Y-9091022D01*
X-6798921Y-9079902D01*
X-6774461Y-8985847D01*
X-6739963Y-8898463D01*
X-6696004Y-8818352D01*
X-6643160Y-8746116D01*
X-6582005Y-8682358D01*
X-6513116Y-8627680D01*
X-6437067Y-8582683D01*
X-6354434Y-8547969D01*
X-6268050Y-8524593D01*
X-6229944Y-8519256D01*
X-6183118Y-8516338D01*
X-6131170Y-8515737D01*
X-6077699Y-8517352D01*
G36*
X-7425333Y-8519192D02*
X-7337392Y-8528803D01*
X-7246541Y-8548038D01*
X-7153558Y-8577082D01*
X-7150100Y-8578343D01*
X-7123375Y-8589034D01*
X-7092879Y-8602665D01*
X-7060987Y-8618001D01*
X-7030077Y-8633809D01*
X-7002521Y-8648857D01*
X-6980696Y-8661911D01*
X-6966977Y-8671737D01*
X-6963931Y-8675004D01*
X-6964495Y-8682871D01*
X-6970835Y-8699645D01*
X-6983170Y-8725788D01*
X-7001719Y-8761759D01*
X-7026700Y-8808020D01*
X-7029922Y-8813887D01*
X-7050246Y-8850797D01*
X-7068506Y-8883866D01*
X-7083824Y-8911512D01*
X-7095320Y-8932148D01*
X-7102115Y-8944191D01*
X-7103572Y-8946637D01*
X-7109711Y-8944967D01*
X-7125245Y-8938606D01*
X-7148157Y-8928438D01*
X-7176432Y-8915345D01*
X-7192980Y-8907484D01*
X-7228349Y-8891056D01*
X-7264410Y-8875190D01*
X-7297470Y-8861458D01*
X-7323835Y-8851427D01*
X-7329186Y-8849603D01*
X-7386120Y-8833967D01*
X-7439051Y-8825387D01*
X-7486926Y-8823631D01*
X-7528692Y-8828465D01*
X-7563293Y-8839656D01*
X-7589678Y-8856970D01*
X-7606791Y-8880175D01*
X-7613579Y-8909036D01*
X-7613650Y-8912594D01*
X-7609988Y-8938067D01*
X-7597831Y-8958626D01*
X-7578041Y-8976033D01*
X-7546419Y-8995200D01*
X-7502803Y-9016203D01*
X-7447027Y-9039121D01*
X-7378929Y-9064029D01*
X-7359650Y-9070681D01*
X-7282990Y-9098052D01*
X-7217626Y-9124069D01*
X-7162307Y-9149320D01*
X-7115779Y-9174393D01*
X-7076789Y-9199877D01*
X-7064132Y-9209441D01*
X-7015316Y-9253561D01*
X-6978039Y-9300664D01*
X-6951582Y-9352261D01*
X-6935230Y-9409862D01*
X-6928262Y-9474978D01*
X-6927895Y-9496171D01*
X-6933368Y-9572989D01*
X-6949535Y-9643066D01*
X-6976192Y-9706178D01*
X-7013129Y-9762098D01*
X-7060140Y-9810599D01*
X-7117019Y-9851457D01*
X-7183557Y-9884444D01*
X-7259548Y-9909334D01*
X-7317620Y-9921711D01*
X-7347129Y-9925386D01*
X-7385295Y-9928147D01*
X-7428238Y-9929908D01*
X-7472074Y-9930585D01*
X-7512921Y-9930092D01*
X-7546898Y-9928344D01*
X-7559675Y-9927027D01*
X-7635029Y-9913697D01*
X-7713907Y-9893375D01*
X-7790917Y-9867648D01*
X-7858812Y-9838991D01*
X-7883372Y-9826430D01*
X-7911859Y-9810538D01*
X-7941976Y-9792756D01*
X-7971424Y-9774526D01*
X-7997904Y-9757289D01*
X-8019118Y-9742487D01*
X-8032767Y-9731562D01*
X-8036223Y-9727717D01*
X-8033817Y-9721257D01*
X-8025547Y-9706024D01*
X-8012562Y-9683837D01*
X-7996012Y-9656512D01*
X-7977046Y-9625867D01*
X-7956812Y-9593717D01*
X-7936459Y-9561881D01*
X-7917138Y-9532174D01*
X-7899996Y-9506414D01*
X-7886182Y-9486417D01*
X-7876846Y-9474001D01*
X-7873816Y-9470911D01*
X-7866826Y-9472899D01*
X-7851500Y-9480573D01*
X-7830146Y-9492691D01*
X-7806706Y-9506985D01*
X-7731716Y-9549392D01*
X-7654846Y-9583991D01*
X-7579948Y-9609047D01*
X-7579774Y-9609094D01*
X-7551766Y-9615753D01*
X-7523955Y-9620047D01*
X-7492271Y-9622406D01*
X-7452642Y-9623260D01*
X-7445375Y-9623285D01*
X-7410454Y-9623129D01*
X-7385410Y-9622277D01*
X-7367422Y-9620359D01*
X-7353672Y-9617005D01*
X-7341340Y-9611845D01*
X-7335589Y-9608881D01*
X-7307271Y-9587625D01*
X-7289685Y-9560277D01*
X-7283478Y-9527852D01*
X-7283474Y-9527074D01*
X-7286867Y-9504292D01*
X-7297751Y-9483902D01*
X-7317122Y-9465174D01*
X-7345976Y-9447382D01*
X-7385306Y-9429799D01*
X-7436108Y-9411696D01*
X-7445375Y-9408701D01*
X-7506284Y-9389205D01*
X-7556454Y-9373052D01*
X-7597261Y-9359769D01*
X-7630079Y-9348884D01*
X-7656282Y-9339926D01*
X-7677247Y-9332421D01*
X-7694348Y-9325899D01*
X-7708960Y-9319886D01*
X-7722458Y-9313911D01*
X-7725550Y-9312492D01*
X-7794678Y-9274704D01*
X-7853130Y-9230052D01*
X-7881586Y-9201622D01*
X-7916806Y-9156795D01*
X-7942306Y-9109932D01*
X-7958923Y-9058660D01*
X-7967495Y-9000607D01*
X-7969157Y-8953753D01*
X-7966086Y-8891115D01*
X-7956619Y-8836556D01*
X-7940088Y-8786819D01*
X-7930708Y-8766238D01*
X-7894065Y-8705611D01*
X-7848286Y-8653109D01*
X-7794149Y-8608918D01*
X-7732432Y-8573226D01*
X-7663914Y-8546220D01*
X-7589373Y-8528087D01*
X-7509586Y-8519015D01*
X-7425333Y-8519192D01*
X-7425333Y-8519192D01*
G37*
X-7425333Y-8519192D02*
X-7337392Y-8528803D01*
X-7246541Y-8548038D01*
X-7153558Y-8577082D01*
X-7150100Y-8578343D01*
X-7123375Y-8589034D01*
X-7092879Y-8602665D01*
X-7060987Y-8618001D01*
X-7030077Y-8633809D01*
X-7002521Y-8648857D01*
X-6980696Y-8661911D01*
X-6966977Y-8671737D01*
X-6963931Y-8675004D01*
X-6964495Y-8682871D01*
X-6970835Y-8699645D01*
X-6983170Y-8725788D01*
X-7001719Y-8761759D01*
X-7026700Y-8808020D01*
X-7029922Y-8813887D01*
X-7050246Y-8850797D01*
X-7068506Y-8883866D01*
X-7083824Y-8911512D01*
X-7095320Y-8932148D01*
X-7102115Y-8944191D01*
X-7103572Y-8946637D01*
X-7109711Y-8944967D01*
X-7125245Y-8938606D01*
X-7148157Y-8928438D01*
X-7176432Y-8915345D01*
X-7192980Y-8907484D01*
X-7228349Y-8891056D01*
X-7264410Y-8875190D01*
X-7297470Y-8861458D01*
X-7323835Y-8851427D01*
X-7329186Y-8849603D01*
X-7386120Y-8833967D01*
X-7439051Y-8825387D01*
X-7486926Y-8823631D01*
X-7528692Y-8828465D01*
X-7563293Y-8839656D01*
X-7589678Y-8856970D01*
X-7606791Y-8880175D01*
X-7613579Y-8909036D01*
X-7613650Y-8912594D01*
X-7609988Y-8938067D01*
X-7597831Y-8958626D01*
X-7578041Y-8976033D01*
X-7546419Y-8995200D01*
X-7502803Y-9016203D01*
X-7447027Y-9039121D01*
X-7378929Y-9064029D01*
X-7359650Y-9070681D01*
X-7282990Y-9098052D01*
X-7217626Y-9124069D01*
X-7162307Y-9149320D01*
X-7115779Y-9174393D01*
X-7076789Y-9199877D01*
X-7064132Y-9209441D01*
X-7015316Y-9253561D01*
X-6978039Y-9300664D01*
X-6951582Y-9352261D01*
X-6935230Y-9409862D01*
X-6928262Y-9474978D01*
X-6927895Y-9496171D01*
X-6933368Y-9572989D01*
X-6949535Y-9643066D01*
X-6976192Y-9706178D01*
X-7013129Y-9762098D01*
X-7060140Y-9810599D01*
X-7117019Y-9851457D01*
X-7183557Y-9884444D01*
X-7259548Y-9909334D01*
X-7317620Y-9921711D01*
X-7347129Y-9925386D01*
X-7385295Y-9928147D01*
X-7428238Y-9929908D01*
X-7472074Y-9930585D01*
X-7512921Y-9930092D01*
X-7546898Y-9928344D01*
X-7559675Y-9927027D01*
X-7635029Y-9913697D01*
X-7713907Y-9893375D01*
X-7790917Y-9867648D01*
X-7858812Y-9838991D01*
X-7883372Y-9826430D01*
X-7911859Y-9810538D01*
X-7941976Y-9792756D01*
X-7971424Y-9774526D01*
X-7997904Y-9757289D01*
X-8019118Y-9742487D01*
X-8032767Y-9731562D01*
X-8036223Y-9727717D01*
X-8033817Y-9721257D01*
X-8025547Y-9706024D01*
X-8012562Y-9683837D01*
X-7996012Y-9656512D01*
X-7977046Y-9625867D01*
X-7956812Y-9593717D01*
X-7936459Y-9561881D01*
X-7917138Y-9532174D01*
X-7899996Y-9506414D01*
X-7886182Y-9486417D01*
X-7876846Y-9474001D01*
X-7873816Y-9470911D01*
X-7866826Y-9472899D01*
X-7851500Y-9480573D01*
X-7830146Y-9492691D01*
X-7806706Y-9506985D01*
X-7731716Y-9549392D01*
X-7654846Y-9583991D01*
X-7579948Y-9609047D01*
X-7579774Y-9609094D01*
X-7551766Y-9615753D01*
X-7523955Y-9620047D01*
X-7492271Y-9622406D01*
X-7452642Y-9623260D01*
X-7445375Y-9623285D01*
X-7410454Y-9623129D01*
X-7385410Y-9622277D01*
X-7367422Y-9620359D01*
X-7353672Y-9617005D01*
X-7341340Y-9611845D01*
X-7335589Y-9608881D01*
X-7307271Y-9587625D01*
X-7289685Y-9560277D01*
X-7283478Y-9527852D01*
X-7283474Y-9527074D01*
X-7286867Y-9504292D01*
X-7297751Y-9483902D01*
X-7317122Y-9465174D01*
X-7345976Y-9447382D01*
X-7385306Y-9429799D01*
X-7436108Y-9411696D01*
X-7445375Y-9408701D01*
X-7506284Y-9389205D01*
X-7556454Y-9373052D01*
X-7597261Y-9359769D01*
X-7630079Y-9348884D01*
X-7656282Y-9339926D01*
X-7677247Y-9332421D01*
X-7694348Y-9325899D01*
X-7708960Y-9319886D01*
X-7722458Y-9313911D01*
X-7725550Y-9312492D01*
X-7794678Y-9274704D01*
X-7853130Y-9230052D01*
X-7881586Y-9201622D01*
X-7916806Y-9156795D01*
X-7942306Y-9109932D01*
X-7958923Y-9058660D01*
X-7967495Y-9000607D01*
X-7969157Y-8953753D01*
X-7966086Y-8891115D01*
X-7956619Y-8836556D01*
X-7940088Y-8786819D01*
X-7930708Y-8766238D01*
X-7894065Y-8705611D01*
X-7848286Y-8653109D01*
X-7794149Y-8608918D01*
X-7732432Y-8573226D01*
X-7663914Y-8546220D01*
X-7589373Y-8528087D01*
X-7509586Y-8519015D01*
X-7425333Y-8519192D01*
G36*
X-2916332Y-8577262D02*
X-2920491Y-8588015D01*
X-2928956Y-8609784D01*
X-2941410Y-8641757D01*
X-2957537Y-8683122D01*
X-2977018Y-8733066D01*
X-2999538Y-8790778D01*
X-3024779Y-8855445D01*
X-3052424Y-8926254D01*
X-3082156Y-9002394D01*
X-3113658Y-9083052D01*
X-3146613Y-9167416D01*
X-3180704Y-9254673D01*
X-3184603Y-9264650D01*
X-3438924Y-9915525D01*
X-3618274Y-9917211D01*
X-3670837Y-9917658D01*
X-3712103Y-9917846D01*
X-3743472Y-9917702D01*
X-3766345Y-9917154D01*
X-3782125Y-9916129D01*
X-3792211Y-9914554D01*
X-3798004Y-9912357D01*
X-3800907Y-9909464D01*
X-3801730Y-9907686D01*
X-3804539Y-9900401D01*
X-3811672Y-9882047D01*
X-3822833Y-9853381D01*
X-3837725Y-9815164D01*
X-3856053Y-9768156D01*
X-3877520Y-9713115D01*
X-3901829Y-9650802D01*
X-3928685Y-9581976D01*
X-3957791Y-9507395D01*
X-3988851Y-9427821D01*
X-4021569Y-9344013D01*
X-4055648Y-9256729D01*
X-4068268Y-9224408D01*
X-4102698Y-9136186D01*
X-4135809Y-9051244D01*
X-4167309Y-8970335D01*
X-4196909Y-8894209D01*
X-4224318Y-8823619D01*
X-4249243Y-8759315D01*
X-4271396Y-8702048D01*
X-4290484Y-8652570D01*
X-4306217Y-8611633D01*
X-4318305Y-8579987D01*
X-4326455Y-8558384D01*
X-4330379Y-8547575D01*
X-4330700Y-8546459D01*
X-4324523Y-8544916D01*
X-4306671Y-8543674D01*
X-4278170Y-8542754D01*
X-4240043Y-8542178D01*
X-4193314Y-8541965D01*
X-4139005Y-8542136D01*
X-4123265Y-8542250D01*
X-3915830Y-8543925D01*
X-3766835Y-8990915D01*
X-3739690Y-9072051D01*
X-3714566Y-9146547D01*
X-3691686Y-9213764D01*
X-3671276Y-9273061D01*
X-3653559Y-9323800D01*
X-3638760Y-9365341D01*
X-3627103Y-9397045D01*
X-3618812Y-9418272D01*
X-3614112Y-9428384D01*
X-3613174Y-9429065D01*
X-3610434Y-9421733D01*
X-3603986Y-9403329D01*
X-3594161Y-9374820D01*
X-3581286Y-9337176D01*
X-3565692Y-9291365D01*
X-3547707Y-9238355D01*
X-3527661Y-9179116D01*
X-3505883Y-9114616D01*
X-3482702Y-9045823D01*
X-3460725Y-8980487D01*
X-3312942Y-8540750D01*
X-2902383Y-8540750D01*
X-2916332Y-8577262D01*
X-2916332Y-8577262D01*
G37*
X-2916332Y-8577262D02*
X-2920491Y-8588015D01*
X-2928956Y-8609784D01*
X-2941410Y-8641757D01*
X-2957537Y-8683122D01*
X-2977018Y-8733066D01*
X-2999538Y-8790778D01*
X-3024779Y-8855445D01*
X-3052424Y-8926254D01*
X-3082156Y-9002394D01*
X-3113658Y-9083052D01*
X-3146613Y-9167416D01*
X-3180704Y-9254673D01*
X-3184603Y-9264650D01*
X-3438924Y-9915525D01*
X-3618274Y-9917211D01*
X-3670837Y-9917658D01*
X-3712103Y-9917846D01*
X-3743472Y-9917702D01*
X-3766345Y-9917154D01*
X-3782125Y-9916129D01*
X-3792211Y-9914554D01*
X-3798004Y-9912357D01*
X-3800907Y-9909464D01*
X-3801730Y-9907686D01*
X-3804539Y-9900401D01*
X-3811672Y-9882047D01*
X-3822833Y-9853381D01*
X-3837725Y-9815164D01*
X-3856053Y-9768156D01*
X-3877520Y-9713115D01*
X-3901829Y-9650802D01*
X-3928685Y-9581976D01*
X-3957791Y-9507395D01*
X-3988851Y-9427821D01*
X-4021569Y-9344013D01*
X-4055648Y-9256729D01*
X-4068268Y-9224408D01*
X-4102698Y-9136186D01*
X-4135809Y-9051244D01*
X-4167309Y-8970335D01*
X-4196909Y-8894209D01*
X-4224318Y-8823619D01*
X-4249243Y-8759315D01*
X-4271396Y-8702048D01*
X-4290484Y-8652570D01*
X-4306217Y-8611633D01*
X-4318305Y-8579987D01*
X-4326455Y-8558384D01*
X-4330379Y-8547575D01*
X-4330700Y-8546459D01*
X-4324523Y-8544916D01*
X-4306671Y-8543674D01*
X-4278170Y-8542754D01*
X-4240043Y-8542178D01*
X-4193314Y-8541965D01*
X-4139005Y-8542136D01*
X-4123265Y-8542250D01*
X-3915830Y-8543925D01*
X-3766835Y-8990915D01*
X-3739690Y-9072051D01*
X-3714566Y-9146547D01*
X-3691686Y-9213764D01*
X-3671276Y-9273061D01*
X-3653559Y-9323800D01*
X-3638760Y-9365341D01*
X-3627103Y-9397045D01*
X-3618812Y-9418272D01*
X-3614112Y-9428384D01*
X-3613174Y-9429065D01*
X-3610434Y-9421733D01*
X-3603986Y-9403329D01*
X-3594161Y-9374820D01*
X-3581286Y-9337176D01*
X-3565692Y-9291365D01*
X-3547707Y-9238355D01*
X-3527661Y-9179116D01*
X-3505883Y-9114616D01*
X-3482702Y-9045823D01*
X-3460725Y-8980487D01*
X-3312942Y-8540750D01*
X-2902383Y-8540750D01*
X-2916332Y-8577262D01*
G36*
X-8623114Y-8518710D02*
X-8591597Y-8519443D01*
X-8567270Y-8520986D01*
X-8547383Y-8523602D01*
X-8529181Y-8527554D01*
X-8509911Y-8533105D01*
X-8509000Y-8533389D01*
X-8451967Y-8554694D01*
X-8403347Y-8581116D01*
X-8359158Y-8614998D01*
X-8340144Y-8632825D01*
X-8293064Y-8688178D01*
X-8255595Y-8751713D01*
X-8227868Y-8823163D01*
X-8210767Y-8897542D01*
X-8209473Y-8912084D01*
X-8208302Y-8938757D01*
X-8207259Y-8976994D01*
X-8206353Y-9026224D01*
X-8205590Y-9085881D01*
X-8204978Y-9155396D01*
X-8204524Y-9234199D01*
X-8204235Y-9321724D01*
X-8204119Y-9417402D01*
X-8204118Y-9420225D01*
X-8204008Y-9902825D01*
X-8400954Y-9904502D01*
X-8597900Y-9906180D01*
X-8597900Y-9491499D01*
X-8597919Y-9404926D01*
X-8598015Y-9330059D01*
X-8598252Y-9265903D01*
X-8598689Y-9211464D01*
X-8599389Y-9165748D01*
X-8600413Y-9127761D01*
X-8601824Y-9096507D01*
X-8603682Y-9070994D01*
X-8606050Y-9050226D01*
X-8608988Y-9033210D01*
X-8612559Y-9018951D01*
X-8616824Y-9006454D01*
X-8621845Y-8994726D01*
X-8627682Y-8982773D01*
X-8629663Y-8978874D01*
X-8654607Y-8942803D01*
X-8689078Y-8911645D01*
X-8724351Y-8890765D01*
X-8742389Y-8883017D01*
X-8759061Y-8878104D01*
X-8778183Y-8875403D01*
X-8803569Y-8874295D01*
X-8826500Y-8874135D01*
X-8858399Y-8874514D01*
X-8881417Y-8876065D01*
X-8899359Y-8879403D01*
X-8916032Y-8885146D01*
X-8928390Y-8890647D01*
X-8971437Y-8915771D01*
X-9004298Y-8946537D01*
X-9025069Y-8977350D01*
X-9032053Y-8990362D01*
X-9038081Y-9002559D01*
X-9043222Y-9014941D01*
X-9047548Y-9028510D01*
X-9051129Y-9044268D01*
X-9054036Y-9063214D01*
X-9056338Y-9086350D01*
X-9058106Y-9114677D01*
X-9059411Y-9149196D01*
X-9060323Y-9190909D01*
X-9060912Y-9240815D01*
X-9061249Y-9299917D01*
X-9061404Y-9369214D01*
X-9061448Y-9449709D01*
X-9061450Y-9494584D01*
X-9061450Y-9906000D01*
X-9455150Y-9906000D01*
X-9455150Y-8540750D01*
X-9061450Y-8540750D01*
X-9061462Y-8628062D01*
X-9061473Y-8715375D01*
X-8999296Y-8655050D01*
X-8958986Y-8617812D01*
X-8922731Y-8588903D01*
X-8887349Y-8566213D01*
X-8849660Y-8547632D01*
X-8819100Y-8535538D01*
X-8801106Y-8529247D01*
X-8785188Y-8524729D01*
X-8768699Y-8521693D01*
X-8748990Y-8519847D01*
X-8723415Y-8518899D01*
X-8689326Y-8518559D01*
X-8664575Y-8518525D01*
X-8623114Y-8518710D01*
X-8623114Y-8518710D01*
G37*
X-8623114Y-8518710D02*
X-8591597Y-8519443D01*
X-8567270Y-8520986D01*
X-8547383Y-8523602D01*
X-8529181Y-8527554D01*
X-8509911Y-8533105D01*
X-8509000Y-8533389D01*
X-8451967Y-8554694D01*
X-8403347Y-8581116D01*
X-8359158Y-8614998D01*
X-8340144Y-8632825D01*
X-8293064Y-8688178D01*
X-8255595Y-8751713D01*
X-8227868Y-8823163D01*
X-8210767Y-8897542D01*
X-8209473Y-8912084D01*
X-8208302Y-8938757D01*
X-8207259Y-8976994D01*
X-8206353Y-9026224D01*
X-8205590Y-9085881D01*
X-8204978Y-9155396D01*
X-8204524Y-9234199D01*
X-8204235Y-9321724D01*
X-8204119Y-9417402D01*
X-8204118Y-9420225D01*
X-8204008Y-9902825D01*
X-8400954Y-9904502D01*
X-8597900Y-9906180D01*
X-8597900Y-9491499D01*
X-8597919Y-9404926D01*
X-8598015Y-9330059D01*
X-8598252Y-9265903D01*
X-8598689Y-9211464D01*
X-8599389Y-9165748D01*
X-8600413Y-9127761D01*
X-8601824Y-9096507D01*
X-8603682Y-9070994D01*
X-8606050Y-9050226D01*
X-8608988Y-9033210D01*
X-8612559Y-9018951D01*
X-8616824Y-9006454D01*
X-8621845Y-8994726D01*
X-8627682Y-8982773D01*
X-8629663Y-8978874D01*
X-8654607Y-8942803D01*
X-8689078Y-8911645D01*
X-8724351Y-8890765D01*
X-8742389Y-8883017D01*
X-8759061Y-8878104D01*
X-8778183Y-8875403D01*
X-8803569Y-8874295D01*
X-8826500Y-8874135D01*
X-8858399Y-8874514D01*
X-8881417Y-8876065D01*
X-8899359Y-8879403D01*
X-8916032Y-8885146D01*
X-8928390Y-8890647D01*
X-8971437Y-8915771D01*
X-9004298Y-8946537D01*
X-9025069Y-8977350D01*
X-9032053Y-8990362D01*
X-9038081Y-9002559D01*
X-9043222Y-9014941D01*
X-9047548Y-9028510D01*
X-9051129Y-9044268D01*
X-9054036Y-9063214D01*
X-9056338Y-9086350D01*
X-9058106Y-9114677D01*
X-9059411Y-9149196D01*
X-9060323Y-9190909D01*
X-9060912Y-9240815D01*
X-9061249Y-9299917D01*
X-9061404Y-9369214D01*
X-9061448Y-9449709D01*
X-9061450Y-9494584D01*
X-9061450Y-9906000D01*
X-9455150Y-9906000D01*
X-9455150Y-8540750D01*
X-9061450Y-8540750D01*
X-9061462Y-8628062D01*
X-9061473Y-8715375D01*
X-8999296Y-8655050D01*
X-8958986Y-8617812D01*
X-8922731Y-8588903D01*
X-8887349Y-8566213D01*
X-8849660Y-8547632D01*
X-8819100Y-8535538D01*
X-8801106Y-8529247D01*
X-8785188Y-8524729D01*
X-8768699Y-8521693D01*
X-8748990Y-8519847D01*
X-8723415Y-8518899D01*
X-8689326Y-8518559D01*
X-8664575Y-8518525D01*
X-8623114Y-8518710D01*
G36*
X-4448329Y-8512703D02*
X-4432300Y-8516726D01*
X-4432300Y-8920003D01*
X-4485902Y-8924352D01*
X-4561924Y-8935511D01*
X-4629362Y-8956015D01*
X-4688337Y-8985963D01*
X-4738971Y-9025453D01*
X-4781388Y-9074586D01*
X-4815709Y-9133461D01*
X-4842057Y-9202177D01*
X-4846357Y-9217025D01*
X-4849523Y-9228973D01*
X-4852185Y-9240685D01*
X-4854396Y-9253367D01*
X-4856210Y-9268229D01*
X-4857679Y-9286480D01*
X-4858856Y-9309327D01*
X-4859795Y-9337980D01*
X-4860548Y-9373648D01*
X-4861168Y-9417538D01*
X-4861710Y-9470859D01*
X-4862225Y-9534820D01*
X-4862601Y-9586912D01*
X-4864848Y-9906000D01*
X-5257800Y-9906000D01*
X-5257800Y-8540750D01*
X-4864100Y-8540750D01*
X-4863956Y-8666162D01*
X-4863812Y-8791575D01*
X-4842797Y-8752590D01*
X-4805622Y-8692581D01*
X-4763061Y-8639607D01*
X-4716546Y-8594993D01*
X-4667510Y-8560065D01*
X-4617384Y-8536148D01*
X-4604390Y-8531909D01*
X-4578006Y-8525411D01*
X-4547002Y-8519686D01*
X-4514883Y-8515165D01*
X-4485154Y-8512278D01*
X-4461320Y-8511458D01*
X-4448329Y-8512703D01*
X-4448329Y-8512703D01*
G37*
X-4448329Y-8512703D02*
X-4432300Y-8516726D01*
X-4432300Y-8920003D01*
X-4485902Y-8924352D01*
X-4561924Y-8935511D01*
X-4629362Y-8956015D01*
X-4688337Y-8985963D01*
X-4738971Y-9025453D01*
X-4781388Y-9074586D01*
X-4815709Y-9133461D01*
X-4842057Y-9202177D01*
X-4846357Y-9217025D01*
X-4849523Y-9228973D01*
X-4852185Y-9240685D01*
X-4854396Y-9253367D01*
X-4856210Y-9268229D01*
X-4857679Y-9286480D01*
X-4858856Y-9309327D01*
X-4859795Y-9337980D01*
X-4860548Y-9373648D01*
X-4861168Y-9417538D01*
X-4861710Y-9470859D01*
X-4862225Y-9534820D01*
X-4862601Y-9586912D01*
X-4864848Y-9906000D01*
X-5257800Y-9906000D01*
X-5257800Y-8540750D01*
X-4864100Y-8540750D01*
X-4863956Y-8666162D01*
X-4863812Y-8791575D01*
X-4842797Y-8752590D01*
X-4805622Y-8692581D01*
X-4763061Y-8639607D01*
X-4716546Y-8594993D01*
X-4667510Y-8560065D01*
X-4617384Y-8536148D01*
X-4604390Y-8531909D01*
X-4578006Y-8525411D01*
X-4547002Y-8519686D01*
X-4514883Y-8515165D01*
X-4485154Y-8512278D01*
X-4461320Y-8511458D01*
X-4448329Y-8512703D01*
G36*
X-2366904Y-9221787D02*
X-2368432Y-9902825D01*
X-2565341Y-9904502D01*
X-2762250Y-9906180D01*
X-2762250Y-8540750D01*
X-2563813Y-8540749D01*
X-2365375Y-8540749D01*
X-2366904Y-9221787D01*
X-2366904Y-9221787D01*
G37*
X-2366904Y-9221787D02*
X-2368432Y-9902825D01*
X-2565341Y-9904502D01*
X-2762250Y-9906180D01*
X-2762250Y-8540750D01*
X-2563813Y-8540749D01*
X-2365375Y-8540749D01*
X-2366904Y-9221787D01*
G36*
X-1562100Y-8030487D02*
X-1512716Y-8030908D01*
X-1472632Y-8032292D01*
X-1438463Y-8035034D01*
X-1406822Y-8039529D01*
X-1374322Y-8046173D01*
X-1337578Y-8055360D01*
X-1328738Y-8057722D01*
X-1301750Y-8064989D01*
X-1301750Y-8230524D01*
X-1301797Y-8280629D01*
X-1302000Y-8319417D01*
X-1302454Y-8348268D01*
X-1303256Y-8368565D01*
X-1304500Y-8381690D01*
X-1306282Y-8389024D01*
X-1308697Y-8391949D01*
X-1311842Y-8391848D01*
X-1312863Y-8391467D01*
X-1346056Y-8380494D01*
X-1386580Y-8371191D01*
X-1429080Y-8364583D01*
X-1467809Y-8361708D01*
X-1514191Y-8364158D01*
X-1550863Y-8374138D01*
X-1578670Y-8392440D01*
X-1598457Y-8419852D01*
X-1611069Y-8457166D01*
X-1617092Y-8501309D01*
X-1620830Y-8553224D01*
X-1464227Y-8554924D01*
X-1307624Y-8556625D01*
X-1307624Y-8874125D01*
X-1612900Y-8877525D01*
X-1612900Y-9906000D01*
X-2006600Y-9906000D01*
X-2006600Y-8877300D01*
X-2165350Y-8877300D01*
X-2165350Y-8553450D01*
X-2008326Y-8553450D01*
X-2005030Y-8459787D01*
X-2002882Y-8418823D01*
X-1999529Y-8378973D01*
X-1995362Y-8344120D01*
X-1990850Y-8318500D01*
X-1969869Y-8250665D01*
X-1939921Y-8191814D01*
X-1900893Y-8141825D01*
X-1852667Y-8100578D01*
X-1795129Y-8067951D01*
X-1728162Y-8043824D01*
X-1728112Y-8043810D01*
X-1708431Y-8038822D01*
X-1689075Y-8035219D01*
X-1667450Y-8032792D01*
X-1640962Y-8031333D01*
X-1607015Y-8030634D01*
X-1563015Y-8030486D01*
X-1562100Y-8030487D01*
X-1562100Y-8030487D01*
G37*
X-1562100Y-8030487D02*
X-1512716Y-8030908D01*
X-1472632Y-8032292D01*
X-1438463Y-8035034D01*
X-1406822Y-8039529D01*
X-1374322Y-8046173D01*
X-1337578Y-8055360D01*
X-1328738Y-8057722D01*
X-1301750Y-8064989D01*
X-1301750Y-8230524D01*
X-1301797Y-8280629D01*
X-1302000Y-8319417D01*
X-1302454Y-8348268D01*
X-1303256Y-8368565D01*
X-1304500Y-8381690D01*
X-1306282Y-8389024D01*
X-1308697Y-8391949D01*
X-1311842Y-8391848D01*
X-1312863Y-8391467D01*
X-1346056Y-8380494D01*
X-1386580Y-8371191D01*
X-1429080Y-8364583D01*
X-1467809Y-8361708D01*
X-1514191Y-8364158D01*
X-1550863Y-8374138D01*
X-1578670Y-8392440D01*
X-1598457Y-8419852D01*
X-1611069Y-8457166D01*
X-1617092Y-8501309D01*
X-1620830Y-8553224D01*
X-1464227Y-8554924D01*
X-1307624Y-8556625D01*
X-1307624Y-8874125D01*
X-1612900Y-8877525D01*
X-1612900Y-9906000D01*
X-2006600Y-9906000D01*
X-2006600Y-8877300D01*
X-2165350Y-8877300D01*
X-2165350Y-8553450D01*
X-2008326Y-8553450D01*
X-2005030Y-8459787D01*
X-2002882Y-8418823D01*
X-1999529Y-8378973D01*
X-1995362Y-8344120D01*
X-1990850Y-8318500D01*
X-1969869Y-8250665D01*
X-1939921Y-8191814D01*
X-1900893Y-8141825D01*
X-1852667Y-8100578D01*
X-1795129Y-8067951D01*
X-1728162Y-8043824D01*
X-1728112Y-8043810D01*
X-1708431Y-8038822D01*
X-1689075Y-8035219D01*
X-1667450Y-8032792D01*
X-1640962Y-8031333D01*
X-1607015Y-8030634D01*
X-1563015Y-8030486D01*
X-1562100Y-8030487D01*
G36*
X-2355850Y-8394700D02*
X-2768600Y-8394700D01*
X-2768600Y-8045450D01*
X-2355850Y-8045450D01*
X-2355850Y-8394700D01*
X-2355850Y-8394700D01*
G37*
X-2355850Y-8394700D02*
X-2768600Y-8394700D01*
X-2768600Y-8045450D01*
X-2355850Y-8045450D01*
X-2355850Y-8394700D01*
G36*
X-15290171Y-7319860D02*
X-15221073Y-7334734D01*
X-15150310Y-7361610D01*
X-15132909Y-7369850D01*
X-15102036Y-7386007D01*
X-15076724Y-7402138D01*
X-15052697Y-7421367D01*
X-15025680Y-7446817D01*
X-15020504Y-7451965D01*
X-14994873Y-7478513D01*
X-14975826Y-7501138D01*
X-14960287Y-7524156D01*
X-14945176Y-7551887D01*
X-14936088Y-7570389D01*
X-14916345Y-7613809D01*
X-14902641Y-7650770D01*
X-14894011Y-7685408D01*
X-14889487Y-7721857D01*
X-14888104Y-7764252D01*
X-14888131Y-7775575D01*
X-14888514Y-7796928D01*
X-14889603Y-7816922D01*
X-14891792Y-7836502D01*
X-14895472Y-7856615D01*
X-14901034Y-7878205D01*
X-14908869Y-7902219D01*
X-14919370Y-7929604D01*
X-14932927Y-7961304D01*
X-14949934Y-7998266D01*
X-14970780Y-8041437D01*
X-14995858Y-8091761D01*
X-15025559Y-8150186D01*
X-15060275Y-8217656D01*
X-15100397Y-8295119D01*
X-15114184Y-8321675D01*
X-15146742Y-8384249D01*
X-15177772Y-8443663D01*
X-15206748Y-8498924D01*
X-15233147Y-8549043D01*
X-15256441Y-8593027D01*
X-15276106Y-8629885D01*
X-15291616Y-8658626D01*
X-15302447Y-8678259D01*
X-15308073Y-8687793D01*
X-15308516Y-8688387D01*
X-15323510Y-8697275D01*
X-15342629Y-8698864D01*
X-15359536Y-8692909D01*
X-15362413Y-8690479D01*
X-15368331Y-8681910D01*
X-15379441Y-8663209D01*
X-15395129Y-8635541D01*
X-15414781Y-8600070D01*
X-15437784Y-8557958D01*
X-15463522Y-8510370D01*
X-15491382Y-8458468D01*
X-15520749Y-8403418D01*
X-15551009Y-8346382D01*
X-15581548Y-8288524D01*
X-15611751Y-8231008D01*
X-15641005Y-8174997D01*
X-15668695Y-8121655D01*
X-15694207Y-8072145D01*
X-15716927Y-8027632D01*
X-15736239Y-7989279D01*
X-15751531Y-7958249D01*
X-15762188Y-7935706D01*
X-15767532Y-7923003D01*
X-15787626Y-7846603D01*
X-15795516Y-7771035D01*
X-15794840Y-7759242D01*
X-15658078Y-7759242D01*
X-15655002Y-7818524D01*
X-15641340Y-7874541D01*
X-15618119Y-7926267D01*
X-15586367Y-7972676D01*
X-15547113Y-8012741D01*
X-15501383Y-8045435D01*
X-15450206Y-8069732D01*
X-15394610Y-8084606D01*
X-15335622Y-8089030D01*
X-15274271Y-8081977D01*
X-15266512Y-8080243D01*
X-15206067Y-8059915D01*
X-15153060Y-8029619D01*
X-15108249Y-7990186D01*
X-15072390Y-7942450D01*
X-15046237Y-7887240D01*
X-15030548Y-7825389D01*
X-15029711Y-7819777D01*
X-15026916Y-7758446D01*
X-15035425Y-7699943D01*
X-15054144Y-7645317D01*
X-15081978Y-7595615D01*
X-15117833Y-7551886D01*
X-15160613Y-7515178D01*
X-15209225Y-7486540D01*
X-15262572Y-7467020D01*
X-15319561Y-7457666D01*
X-15379096Y-7459528D01*
X-15401925Y-7463345D01*
X-15465336Y-7482077D01*
X-15520712Y-7510348D01*
X-15567566Y-7547697D01*
X-15605413Y-7593664D01*
X-15633766Y-7647790D01*
X-15649540Y-7697722D01*
X-15658078Y-7759242D01*
X-15794840Y-7759242D01*
X-15791274Y-7697132D01*
X-15774968Y-7625729D01*
X-15746671Y-7557659D01*
X-15734929Y-7536438D01*
X-15692537Y-7476467D01*
X-15641417Y-7424893D01*
X-15582882Y-7382798D01*
X-15518245Y-7351266D01*
X-15504273Y-7346175D01*
X-15430091Y-7325688D01*
X-15359283Y-7316880D01*
X-15290171Y-7319860D01*
X-15290171Y-7319860D01*
G37*
X-15290171Y-7319860D02*
X-15221073Y-7334734D01*
X-15150310Y-7361610D01*
X-15132909Y-7369850D01*
X-15102036Y-7386007D01*
X-15076724Y-7402138D01*
X-15052697Y-7421367D01*
X-15025680Y-7446817D01*
X-15020504Y-7451965D01*
X-14994873Y-7478513D01*
X-14975826Y-7501138D01*
X-14960287Y-7524156D01*
X-14945176Y-7551887D01*
X-14936088Y-7570389D01*
X-14916345Y-7613809D01*
X-14902641Y-7650770D01*
X-14894011Y-7685408D01*
X-14889487Y-7721857D01*
X-14888104Y-7764252D01*
X-14888131Y-7775575D01*
X-14888514Y-7796928D01*
X-14889603Y-7816922D01*
X-14891792Y-7836502D01*
X-14895472Y-7856615D01*
X-14901034Y-7878205D01*
X-14908869Y-7902219D01*
X-14919370Y-7929604D01*
X-14932927Y-7961304D01*
X-14949934Y-7998266D01*
X-14970780Y-8041437D01*
X-14995858Y-8091761D01*
X-15025559Y-8150186D01*
X-15060275Y-8217656D01*
X-15100397Y-8295119D01*
X-15114184Y-8321675D01*
X-15146742Y-8384249D01*
X-15177772Y-8443663D01*
X-15206748Y-8498924D01*
X-15233147Y-8549043D01*
X-15256441Y-8593027D01*
X-15276106Y-8629885D01*
X-15291616Y-8658626D01*
X-15302447Y-8678259D01*
X-15308073Y-8687793D01*
X-15308516Y-8688387D01*
X-15323510Y-8697275D01*
X-15342629Y-8698864D01*
X-15359536Y-8692909D01*
X-15362413Y-8690479D01*
X-15368331Y-8681910D01*
X-15379441Y-8663209D01*
X-15395129Y-8635541D01*
X-15414781Y-8600070D01*
X-15437784Y-8557958D01*
X-15463522Y-8510370D01*
X-15491382Y-8458468D01*
X-15520749Y-8403418D01*
X-15551009Y-8346382D01*
X-15581548Y-8288524D01*
X-15611751Y-8231008D01*
X-15641005Y-8174997D01*
X-15668695Y-8121655D01*
X-15694207Y-8072145D01*
X-15716927Y-8027632D01*
X-15736239Y-7989279D01*
X-15751531Y-7958249D01*
X-15762188Y-7935706D01*
X-15767532Y-7923003D01*
X-15787626Y-7846603D01*
X-15795516Y-7771035D01*
X-15794840Y-7759242D01*
X-15658078Y-7759242D01*
X-15655002Y-7818524D01*
X-15641340Y-7874541D01*
X-15618119Y-7926267D01*
X-15586367Y-7972676D01*
X-15547113Y-8012741D01*
X-15501383Y-8045435D01*
X-15450206Y-8069732D01*
X-15394610Y-8084606D01*
X-15335622Y-8089030D01*
X-15274271Y-8081977D01*
X-15266512Y-8080243D01*
X-15206067Y-8059915D01*
X-15153060Y-8029619D01*
X-15108249Y-7990186D01*
X-15072390Y-7942450D01*
X-15046237Y-7887240D01*
X-15030548Y-7825389D01*
X-15029711Y-7819777D01*
X-15026916Y-7758446D01*
X-15035425Y-7699943D01*
X-15054144Y-7645317D01*
X-15081978Y-7595615D01*
X-15117833Y-7551886D01*
X-15160613Y-7515178D01*
X-15209225Y-7486540D01*
X-15262572Y-7467020D01*
X-15319561Y-7457666D01*
X-15379096Y-7459528D01*
X-15401925Y-7463345D01*
X-15465336Y-7482077D01*
X-15520712Y-7510348D01*
X-15567566Y-7547697D01*
X-15605413Y-7593664D01*
X-15633766Y-7647790D01*
X-15649540Y-7697722D01*
X-15658078Y-7759242D01*
X-15794840Y-7759242D01*
X-15791274Y-7697132D01*
X-15774968Y-7625729D01*
X-15746671Y-7557659D01*
X-15734929Y-7536438D01*
X-15692537Y-7476467D01*
X-15641417Y-7424893D01*
X-15582882Y-7382798D01*
X-15518245Y-7351266D01*
X-15504273Y-7346175D01*
X-15430091Y-7325688D01*
X-15359283Y-7316880D01*
X-15290171Y-7319860D01*
D13*
X-48747680Y-2689860D02*
X-48747680Y-1691640D01*
X-48049180Y-15689580D02*
X-48049180Y-14691360D01*
D14*
X-3187124Y10298258D02*
X-2197174Y11288208D01*
X-5449866Y12561000D02*
X-4459916Y13550950D01*
X-3187124Y10298258D02*
X-5449866Y12561000D01*
X-4459916Y13550950D02*
X-2197174Y11288208D01*
X-1928475Y11019509D02*
X-2918425Y10029559D01*
X334267Y8756767D02*
X-655683Y7766817D01*
X-1928475Y11019509D02*
X334267Y8756767D01*
X-655683Y7766817D02*
X-2918425Y10029559D01*
X-10733000Y-2616000D02*
X-9333000Y-2616000D01*
X-10733000Y584000D02*
X-9333000Y584000D01*
X-10733000Y-2616000D02*
X-10733000Y584000D01*
X-9333000Y584000D02*
X-9333000Y-2616000D01*
X4634000Y6426400D02*
X6034000Y6426400D01*
X4634000Y9626400D02*
X6034000Y9626400D01*
X4634000Y6426400D02*
X4634000Y9626400D01*
X6034000Y9626400D02*
X6034000Y6426400D01*
X-10252408Y5719176D02*
X-8852408Y5719176D01*
X-10252408Y8919176D02*
X-8852408Y8919176D01*
X-10252408Y5719176D02*
X-10252408Y8919176D01*
X-8852408Y8919176D02*
X-8852408Y5719176D01*
X1281200Y6426400D02*
X2681200Y6426400D01*
X1281200Y9626400D02*
X2681200Y9626400D01*
X1281200Y6426400D02*
X1281200Y9626400D01*
X2681200Y9626400D02*
X2681200Y6426400D01*
X2957600Y6426400D02*
X4357600Y6426400D01*
X2957600Y9626400D02*
X4357600Y9626400D01*
X2957600Y6426400D02*
X2957600Y9626400D01*
X4357600Y9626400D02*
X4357600Y6426400D01*
X-40076514Y6091344D02*
X-40076514Y4691344D01*
X-36876514Y6091344D02*
X-36876514Y4691344D01*
X-40076514Y6091344D02*
X-36876514Y6091344D01*
X-36876514Y4691344D02*
X-40076514Y4691344D01*
X-7836042Y15270594D02*
X-9236042Y15270594D01*
X-7836042Y12070594D02*
X-9236042Y12070594D01*
X-7836042Y15270594D02*
X-7836042Y12070594D01*
X-9236042Y12070594D02*
X-9236042Y15270594D01*
X-32285553Y10780941D02*
X-32285553Y12180941D01*
X-35485553Y10780941D02*
X-35485553Y12180941D01*
X-32285553Y10780941D02*
X-35485553Y10780941D01*
X-35485553Y12180941D02*
X-32285553Y12180941D01*
X-47662342Y9135305D02*
X-46262342Y9135305D01*
X-47662342Y12335305D02*
X-46262342Y12335305D01*
X-47662342Y9135305D02*
X-47662342Y12335305D01*
X-46262342Y12335305D02*
X-46262342Y9135305D01*
X-26352300Y-3846600D02*
X-26352300Y-5246600D01*
X-23152300Y-3846600D02*
X-23152300Y-5246600D01*
X-26352300Y-3846600D02*
X-23152300Y-3846600D01*
X-23152300Y-5246600D02*
X-26352300Y-5246600D01*
X-41072000Y10323600D02*
X-41072000Y11723600D01*
X-44272000Y10323600D02*
X-44272000Y11723600D01*
X-41072000Y10323600D02*
X-44272000Y10323600D01*
X-44272000Y11723600D02*
X-41072000Y11723600D01*
X-35499153Y8828141D02*
X-35499153Y7428141D01*
X-32299153Y8828141D02*
X-32299153Y7428141D01*
X-35499153Y8828141D02*
X-32299153Y8828141D01*
X-32299153Y7428141D02*
X-35499153Y7428141D01*
X-35485553Y7151741D02*
X-35485553Y5751741D01*
X-32285553Y7151741D02*
X-32285553Y5751741D01*
X-35485553Y7151741D02*
X-32285553Y7151741D01*
X-32285553Y5751741D02*
X-35485553Y5751741D01*
X-24039600Y1479223D02*
X-25439600Y1479223D01*
X-24039600Y-1720777D02*
X-25439600Y-1720777D01*
X-24039600Y1479223D02*
X-24039600Y-1720777D01*
X-25439600Y-1720777D02*
X-25439600Y1479223D01*
X-25883981Y1479223D02*
X-27283981Y1479223D01*
X-25883981Y-1720777D02*
X-27283981Y-1720777D01*
X-25883981Y1479223D02*
X-25883981Y-1720777D01*
X-27283981Y-1720777D02*
X-27283981Y1479223D01*
X-32543310Y-8862314D02*
X-32543310Y-10262314D01*
X-29343310Y-8862314D02*
X-29343310Y-10262314D01*
X-32543310Y-8862314D02*
X-29343310Y-8862314D01*
X-29343310Y-10262314D02*
X-32543310Y-10262314D01*
X-29343310Y-6706314D02*
X-29343310Y-5306314D01*
X-32543310Y-6706314D02*
X-32543310Y-5306314D01*
X-29343310Y-6706314D02*
X-32543310Y-6706314D01*
X-32543310Y-5306314D02*
X-29343310Y-5306314D01*
X-27697200Y1486600D02*
X-29097200Y1486600D01*
X-27697200Y-1713400D02*
X-29097200Y-1713400D01*
X-27697200Y1486600D02*
X-27697200Y-1713400D01*
X-29097200Y-1713400D02*
X-29097200Y1486600D01*
X-30502214Y5842844D02*
X-29102214Y5842844D01*
X-30502214Y9042844D02*
X-29102214Y9042844D01*
X-30502214Y5842844D02*
X-30502214Y9042844D01*
X-29102214Y9042844D02*
X-29102214Y5842844D01*
X-17428781Y5746823D02*
X-16028781Y5746823D01*
X-17428781Y8946823D02*
X-16028781Y8946823D01*
X-17428781Y5746823D02*
X-17428781Y8946823D01*
X-16028781Y8946823D02*
X-16028781Y5746823D01*
X-19155981Y5746823D02*
X-17755981Y5746823D01*
X-19155981Y8946823D02*
X-17755981Y8946823D01*
X-19155981Y5746823D02*
X-19155981Y8946823D01*
X-17755981Y8946823D02*
X-17755981Y5746823D01*
X36209200Y16789200D02*
X36209200Y13589200D01*
X36209200Y13589200D02*
X34809200Y13589200D01*
X34809200Y13589200D02*
X34809200Y16789200D01*
X34809200Y16789200D02*
X36209200Y16789200D01*
X36209200Y16789200D02*
X36209200Y16989200D01*
X36209200Y16989200D02*
X34809200Y16989200D01*
X34809200Y16989200D02*
X34809200Y16789200D01*
X-32602400Y-19380000D02*
X-32602400Y-16180000D01*
X-32602400Y-16180000D02*
X-31202400Y-16180000D01*
X-31202400Y-16180000D02*
X-31202400Y-19380000D01*
X-31202400Y-19380000D02*
X-32602400Y-19380000D01*
X-32602400Y-19380000D02*
X-32602400Y-19580000D01*
X-32602400Y-19580000D02*
X-31202400Y-19580000D01*
X-31202400Y-19580000D02*
X-31202400Y-19380000D01*
X-28936730Y-19399830D02*
X-28936730Y-16199830D01*
X-28936730Y-16199830D02*
X-27536730Y-16199830D01*
X-27536730Y-16199830D02*
X-27536730Y-19399830D01*
X-27536730Y-19399830D02*
X-28936730Y-19399830D01*
X-28936730Y-19399830D02*
X-28936730Y-19599830D01*
X-28936730Y-19599830D02*
X-27536730Y-19599830D01*
X-27536730Y-19599830D02*
X-27536730Y-19399830D01*
X31129200Y16789200D02*
X31129200Y13589200D01*
X31129200Y13589200D02*
X29729200Y13589200D01*
X29729200Y13589200D02*
X29729200Y16789200D01*
X29729200Y16789200D02*
X31129200Y16789200D01*
X31129200Y16789200D02*
X31129200Y16989200D01*
X31129200Y16989200D02*
X29729200Y16989200D01*
X29729200Y16989200D02*
X29729200Y16789200D01*
X21020000Y16789200D02*
X21020000Y13589200D01*
X21020000Y13589200D02*
X19620000Y13589200D01*
X19620000Y13589200D02*
X19620000Y16789200D01*
X19620000Y16789200D02*
X21020000Y16789200D01*
X21020000Y16789200D02*
X21020000Y16989200D01*
X21020000Y16989200D02*
X19620000Y16989200D01*
X19620000Y16989200D02*
X19620000Y16789200D01*
X26049200Y16789200D02*
X26049200Y13589200D01*
X26049200Y13589200D02*
X24649200Y13589200D01*
X24649200Y13589200D02*
X24649200Y16789200D01*
X24649200Y16789200D02*
X26049200Y16789200D01*
X26049200Y16789200D02*
X26049200Y16989200D01*
X26049200Y16989200D02*
X24649200Y16989200D01*
X24649200Y16989200D02*
X24649200Y16789200D01*
X-32569200Y13728000D02*
X-31969200Y13728000D01*
X-33969200Y15728000D02*
X-33969200Y13728000D01*
X-32719200Y15728000D02*
X-33219200Y15728000D01*
X-31969200Y13728000D02*
X-31969200Y15728000D01*
X-33969200Y13728000D02*
X-33369200Y13728000D01*
X-39869689Y-2101600D02*
G75*
G03X-39869689Y-2101600I-70711J0D01*
G01*
X-38490400Y-1751600D02*
X-38040400Y-1751600D01*
X-38890400Y-451600D02*
X-37990400Y-451600D01*
X-36990400Y-451600D02*
X-36990400Y-1751600D01*
X-39890400Y-451600D02*
X-39890400Y-1751600D01*
X-27000400Y15556000D02*
X-30200400Y15556000D01*
X-30200400Y15556000D02*
X-30200400Y16956000D01*
X-30200400Y16956000D02*
X-27000400Y16956000D01*
X-27000400Y16956000D02*
X-27000400Y15556000D01*
X-27000400Y15556000D02*
X-26800400Y15556000D01*
X-26800400Y15556000D02*
X-26800400Y16956000D01*
X-26800400Y16956000D02*
X-27000400Y16956000D01*
X-27000400Y12304800D02*
X-30200400Y12304800D01*
X-30200400Y12304800D02*
X-30200400Y13704800D01*
X-30200400Y13704800D02*
X-27000400Y13704800D01*
X-27000400Y13704800D02*
X-27000400Y12304800D01*
X-27000400Y12304800D02*
X-26800400Y12304800D01*
X-26800400Y12304800D02*
X-26800400Y13704800D01*
X-26800400Y13704800D02*
X-27000400Y13704800D01*
X1766800Y16752000D02*
X1766800Y13552000D01*
X1766800Y13552000D02*
X366800Y13552000D01*
X366800Y13552000D02*
X366800Y16752000D01*
X366800Y16752000D02*
X1766800Y16752000D01*
X1766800Y16752000D02*
X1766800Y16952000D01*
X1766800Y16952000D02*
X366800Y16952000D01*
X366800Y16952000D02*
X366800Y16752000D01*
X-37852400Y2402200D02*
X-38652400Y2402200D01*
X-37852400Y1052200D02*
X-38652400Y1052200D01*
D15*
X18392000Y-10408000D02*
X18392000Y-8608000D01*
X18392000Y-8608000D02*
X16542000Y-8608000D01*
X16542000Y-8608000D02*
X16542000Y-7868000D01*
X11072000Y-10408000D02*
X11072000Y-8608000D01*
X11072000Y-8608000D02*
X12922000Y-8608000D01*
X18392000Y-13728000D02*
X18392000Y-14278000D01*
X18392000Y-14278000D02*
X11072000Y-14278000D01*
X11072000Y-14278000D02*
X11072000Y-13728000D01*
X-16292400Y13953600D02*
X-16292400Y15753600D01*
X-16292400Y15753600D02*
X-18142400Y15753600D01*
X-18142400Y15753600D02*
X-18142400Y16493600D01*
X-26112400Y13953600D02*
X-26112400Y15753600D01*
X-26112400Y15753600D02*
X-24262400Y15753600D01*
X-16292400Y10633600D02*
X-16292400Y10083600D01*
X-16292400Y10083600D02*
X-26112400Y10083600D01*
X-26112400Y10083600D02*
X-26112400Y10633600D01*
D14*
X7491200Y-14300200D02*
X4091200Y-14300200D01*
X7491200Y-7950200D02*
X4091200Y-7950200D01*
D15*
X6045200Y-16094400D02*
X-14334800Y-16094400D01*
X-14334800Y-16094400D02*
X-14334800Y-18754400D01*
X-14334800Y-18754400D02*
X6045200Y-18754400D01*
X6045200Y-18754400D02*
X6045200Y-16094400D01*
X7315200Y-16094400D02*
X8645200Y-16094400D01*
X8645200Y-16094400D02*
X8645200Y-17424400D01*
D16*
X-43346089Y5911600D02*
G75*
G03X-43346089Y5911600I-70711J0D01*
G01*
D14*
X-46024800Y365600D02*
X-44474800Y365600D01*
X-44474800Y365600D02*
X-44474800Y915600D01*
X-46024800Y7965600D02*
X-44474800Y7965600D01*
X-44474800Y7965600D02*
X-44474800Y7415600D01*
X-48224800Y365600D02*
X-49324800Y365600D01*
X-49324800Y7965600D02*
X-48224800Y7965600D01*
X-49324800Y7965600D02*
X-49324800Y365600D01*
X-38604800Y-13276000D02*
X-38604800Y-11676000D01*
X-38604800Y-11676000D02*
X-37804800Y-11676000D01*
X-37804800Y-11676000D02*
X-37804800Y-15526000D01*
X-44054800Y-19276000D02*
X-39454800Y-19276000D01*
X-44904800Y-13276000D02*
X-44904800Y-11676000D01*
X-44904800Y-11676000D02*
X-45704800Y-11676000D01*
X-45704800Y-11676000D02*
X-45704800Y-15526000D01*
X-38604800Y-13276000D02*
X-39854800Y-13276000D01*
X-44904800Y-13276000D02*
X-43654800Y-13276000D01*
X-11995208Y5703976D02*
X-10595208Y5703976D01*
X-11995208Y8903976D02*
X-10595208Y8903976D01*
X-11995208Y5703976D02*
X-11995208Y8903976D01*
X-10595208Y8903976D02*
X-10595208Y5703976D01*
X-40076514Y4364144D02*
X-40076514Y2964144D01*
X-36876514Y4364144D02*
X-36876514Y2964144D01*
X-40076514Y4364144D02*
X-36876514Y4364144D01*
X-36876514Y2964144D02*
X-40076514Y2964144D01*
D15*
X-14749581Y-1187177D02*
X-21349581Y-1187177D01*
X-21349581Y5212823D02*
X-14749581Y5212823D01*
D14*
X38025200Y10597600D02*
X38025200Y11997600D01*
X37125200Y11997600D02*
X38025200Y11997600D01*
X35025200Y11997600D02*
X36025200Y11997600D01*
X35025200Y10597600D02*
X35025200Y11997600D01*
X36125200Y10597600D02*
X36925200Y10597600D01*
X32945200Y10579200D02*
X32945200Y11979200D01*
X32045200Y11979200D02*
X32945200Y11979200D01*
X29945200Y11979200D02*
X30945200Y11979200D01*
X29945200Y10579200D02*
X29945200Y11979200D01*
X31045200Y10579200D02*
X31845200Y10579200D01*
X22836000Y10597600D02*
X22836000Y11997600D01*
X21936000Y11997600D02*
X22836000Y11997600D01*
X19836000Y11997600D02*
X20836000Y11997600D01*
X19836000Y10597600D02*
X19836000Y11997600D01*
X20936000Y10597600D02*
X21736000Y10597600D01*
X27865200Y10630000D02*
X27865200Y12030000D01*
X26965200Y12030000D02*
X27865200Y12030000D01*
X24865200Y12030000D02*
X25865200Y12030000D01*
X24865200Y10630000D02*
X24865200Y12030000D01*
X25965200Y10630000D02*
X26765200Y10630000D01*
X-18959600Y-16180000D02*
X-20359600Y-16180000D01*
X-18959600Y-19380000D02*
X-20359600Y-19380000D01*
X-18959600Y-16180000D02*
X-18959600Y-19380000D01*
X-20359600Y-19380000D02*
X-20359600Y-16180000D01*
X-17232400Y-16180000D02*
X-18632400Y-16180000D01*
X-17232400Y-19380000D02*
X-18632400Y-19380000D01*
X-17232400Y-16180000D02*
X-17232400Y-19380000D01*
X-18632400Y-19380000D02*
X-18632400Y-16180000D01*
X38241200Y16789200D02*
X36841200Y16789200D01*
X38241200Y13589200D02*
X36841200Y13589200D01*
X38241200Y16789200D02*
X38241200Y13589200D01*
X36841200Y13589200D02*
X36841200Y16789200D01*
X-33031200Y-16180000D02*
X-34431200Y-16180000D01*
X-33031200Y-19380000D02*
X-34431200Y-19380000D01*
X-33031200Y-16180000D02*
X-33031200Y-19380000D01*
X-34431200Y-19380000D02*
X-34431200Y-16180000D01*
X-29373600Y-16230800D02*
X-30773600Y-16230800D01*
X-29373600Y-19430800D02*
X-30773600Y-19430800D01*
X-29373600Y-16230800D02*
X-29373600Y-19430800D01*
X-30773600Y-19430800D02*
X-30773600Y-16230800D01*
X20954800Y-18454600D02*
X20954800Y-17054600D01*
X17754800Y-18454600D02*
X17754800Y-17054600D01*
X20954800Y-18454600D02*
X17754800Y-18454600D01*
X17754800Y-17054600D02*
X20954800Y-17054600D01*
X20954800Y-16676600D02*
X20954800Y-15276600D01*
X17754800Y-16676600D02*
X17754800Y-15276600D01*
X20954800Y-16676600D02*
X17754800Y-16676600D01*
X17754800Y-15276600D02*
X20954800Y-15276600D01*
X10033200Y12688800D02*
X10033200Y11288800D01*
X13233200Y12688800D02*
X13233200Y11288800D01*
X10033200Y12688800D02*
X13233200Y12688800D01*
X13233200Y11288800D02*
X10033200Y11288800D01*
X17094000Y11288800D02*
X17094000Y12688800D01*
X13894000Y11288800D02*
X13894000Y12688800D01*
X17094000Y11288800D02*
X13894000Y11288800D01*
X13894000Y12688800D02*
X17094000Y12688800D01*
X33161200Y16789200D02*
X31761200Y16789200D01*
X33161200Y13589200D02*
X31761200Y13589200D01*
X33161200Y16789200D02*
X33161200Y13589200D01*
X31761200Y13589200D02*
X31761200Y16789200D01*
X23052000Y16789200D02*
X21652000Y16789200D01*
X23052000Y13589200D02*
X21652000Y13589200D01*
X23052000Y16789200D02*
X23052000Y13589200D01*
X21652000Y13589200D02*
X21652000Y16789200D01*
X28081200Y16789200D02*
X26681200Y16789200D01*
X28081200Y13589200D02*
X26681200Y13589200D01*
X28081200Y16789200D02*
X28081200Y13589200D01*
X26681200Y13589200D02*
X26681200Y16789200D01*
X-32285553Y9104541D02*
X-32285553Y10504541D01*
X-35485553Y9104541D02*
X-35485553Y10504541D01*
X-32285553Y9104541D02*
X-35485553Y9104541D01*
X-35485553Y10504541D02*
X-32285553Y10504541D01*
X-35115953Y16738541D02*
X-36515953Y16738541D01*
X-35115953Y13538541D02*
X-36515953Y13538541D01*
X-35115953Y16738541D02*
X-35115953Y13538541D01*
X-36515953Y13538541D02*
X-36515953Y16738541D01*
X5911642Y-133026D02*
X7311642Y-133026D01*
X5911642Y3066974D02*
X7311642Y3066974D01*
X5911642Y-133026D02*
X5911642Y3066974D01*
X7311642Y3066974D02*
X7311642Y-133026D01*
X-36893953Y16738541D02*
X-38293953Y16738541D01*
X-36893953Y13538541D02*
X-38293953Y13538541D01*
X-36893953Y16738541D02*
X-36893953Y13538541D01*
X-38293953Y13538541D02*
X-38293953Y16738541D01*
X-38621153Y16738541D02*
X-40021153Y16738541D01*
X-38621153Y13538541D02*
X-40021153Y13538541D01*
X-38621153Y16738541D02*
X-38621153Y13538541D01*
X-40021153Y13538541D02*
X-40021153Y16738541D01*
X4286042Y-133026D02*
X5686042Y-133026D01*
X4286042Y3066974D02*
X5686042Y3066974D01*
X4286042Y-133026D02*
X4286042Y3066974D01*
X5686042Y3066974D02*
X5686042Y-133026D01*
X-49313342Y9135305D02*
X-47913342Y9135305D01*
X-49313342Y12335305D02*
X-47913342Y12335305D01*
X-49313342Y9135305D02*
X-49313342Y12335305D01*
X-47913342Y12335305D02*
X-47913342Y9135305D01*
X-30200400Y15330400D02*
X-30200400Y13930400D01*
X-27000400Y15330400D02*
X-27000400Y13930400D01*
X-30200400Y15330400D02*
X-27000400Y15330400D01*
X-27000400Y13930400D02*
X-30200400Y13930400D01*
X-30200400Y12079200D02*
X-30200400Y10679200D01*
X-27000400Y12079200D02*
X-27000400Y10679200D01*
X-30200400Y12079200D02*
X-27000400Y12079200D01*
X-27000400Y10679200D02*
X-30200400Y10679200D01*
X-41799153Y13538541D02*
X-40399153Y13538541D01*
X-41799153Y16738541D02*
X-40399153Y16738541D01*
X-41799153Y13538541D02*
X-41799153Y16738541D01*
X-40399153Y16738541D02*
X-40399153Y13538541D01*
X34509711Y-9804605D02*
X34509711Y-11204605D01*
X37709711Y-9804605D02*
X37709711Y-11204605D01*
X34509711Y-9804605D02*
X37709711Y-9804605D01*
X37709711Y-11204605D02*
X34509711Y-11204605D01*
X34509711Y-11430205D02*
X34509711Y-12830205D01*
X37709711Y-11430205D02*
X37709711Y-12830205D01*
X34509711Y-11430205D02*
X37709711Y-11430205D01*
X37709711Y-12830205D02*
X34509711Y-12830205D01*
X-23712400Y-1720777D02*
X-22312400Y-1720777D01*
X-23712400Y1479223D02*
X-22312400Y1479223D01*
X-23712400Y-1720777D02*
X-23712400Y1479223D01*
X-22312400Y1479223D02*
X-22312400Y-1720777D01*
X-1411200Y13741600D02*
X-11200Y13741600D01*
X-1411200Y16941600D02*
X-11200Y16941600D01*
X-1411200Y13741600D02*
X-1411200Y16941600D01*
X-11200Y16941600D02*
X-11200Y13741600D01*
X-29343310Y-11989514D02*
X-29343310Y-10589514D01*
X-32543310Y-11989514D02*
X-32543310Y-10589514D01*
X-29343310Y-11989514D02*
X-32543310Y-11989514D01*
X-32543310Y-10589514D02*
X-29343310Y-10589514D01*
X-29343310Y-8484314D02*
X-29343310Y-7084314D01*
X-32543310Y-8484314D02*
X-32543310Y-7084314D01*
X-29343310Y-8484314D02*
X-32543310Y-8484314D01*
X-32543310Y-7084314D02*
X-29343310Y-7084314D01*
X-38150600Y-5015000D02*
X-38150600Y-6415000D01*
X-34950600Y-5015000D02*
X-34950600Y-6415000D01*
X-38150600Y-5015000D02*
X-34950600Y-5015000D01*
X-34950600Y-6415000D02*
X-38150600Y-6415000D01*
X-39943000Y-8508800D02*
X-38543000Y-8508800D01*
X-39943000Y-5308800D02*
X-38543000Y-5308800D01*
X-39943000Y-8508800D02*
X-39943000Y-5308800D01*
X-38543000Y-5308800D02*
X-38543000Y-8508800D01*
X-28757181Y5848423D02*
X-27357181Y5848423D01*
X-28757181Y9048423D02*
X-27357181Y9048423D01*
X-28757181Y5848423D02*
X-28757181Y9048423D01*
X-27357181Y9048423D02*
X-27357181Y5848423D01*
X-30505200Y5475200D02*
X-30505200Y4075200D01*
X-27305200Y5475200D02*
X-27305200Y4075200D01*
X-30505200Y5475200D02*
X-27305200Y5475200D01*
X-27305200Y4075200D02*
X-30505200Y4075200D01*
D15*
X11446469Y-19021829D02*
X11446469Y-18921829D01*
X11446469Y-15521829D02*
X11446469Y-15621829D01*
X16346469Y-15621829D02*
X16346469Y-15521829D01*
X16346469Y-19021829D02*
X16346469Y-18921829D01*
X16346469Y-17621829D02*
X16346469Y-16921829D01*
X11446469Y-17621829D02*
X11446469Y-16921829D01*
X11446469Y-19021829D02*
X16346469Y-19021829D01*
X16346469Y-15521829D02*
X11446469Y-15521829D01*
X16013600Y16823000D02*
X16013600Y16723000D01*
X16013600Y13323000D02*
X16013600Y13423000D01*
X11113600Y13423000D02*
X11113600Y13323000D01*
X11113600Y16823000D02*
X11113600Y16723000D01*
X11113600Y15423000D02*
X11113600Y14723000D01*
X16013600Y15423000D02*
X16013600Y14723000D01*
X16013600Y16823000D02*
X11113600Y16823000D01*
X11113600Y13323000D02*
X16013600Y13323000D01*
D16*
X-3942862Y6557856D02*
G75*
G03X-3942862Y6557856I-70711J0D01*
G01*
D14*
X-3200400Y-3730547D02*
X1749347Y1219200D01*
X-8150147Y1219200D02*
X-3200400Y6168947D01*
X-3200400Y6168947D02*
X1749347Y1219200D01*
X-8150147Y1219200D02*
X-3200400Y-3730547D01*
D10*
X55439600Y9993600D02*
X55439600Y12793600D01*
X55439600Y12793600D02*
X51739600Y12793600D01*
X51739600Y12793600D02*
X51739600Y9993600D01*
X51739600Y9993600D02*
X55439600Y9993600D01*
D15*
X-9718642Y12886208D02*
X-9718642Y14686208D01*
X-12938642Y14686208D02*
X-12938642Y12236208D01*
D16*
X-27397489Y-12123400D02*
G75*
G03X-27397489Y-12123400I-70711J0D01*
G01*
D14*
X-27418200Y-10923400D02*
X-22518200Y-10923400D01*
X-22518200Y-10923400D02*
X-22518200Y-7923400D01*
X-22518200Y-7923400D02*
X-27418200Y-7923400D01*
X-27418200Y-7923400D02*
X-27418200Y-10923400D01*
X-37522283Y10540733D02*
X-37122283Y10540733D01*
X-37122283Y10540733D02*
X-37122283Y10140733D01*
X-37522283Y7540733D02*
X-37122283Y7540733D01*
X-37122283Y7540733D02*
X-37122283Y7940733D01*
X-40122283Y7940733D02*
X-40122283Y7540733D01*
X-40122283Y7540733D02*
X-39722283Y7540733D01*
D16*
X-40551572Y10340733D02*
G75*
G03X-40551572Y10340733I-70711J0D01*
G01*
D14*
X-39722283Y10540733D02*
X-40122283Y10540733D01*
X-40122283Y10540733D02*
X-40122283Y10140733D01*
D16*
X26936311Y-14162400D02*
G75*
G03X26936311Y-14162400I-70711J0D01*
G01*
D14*
X28065600Y-14212400D02*
X28065600Y-19112400D01*
X28065600Y-19112400D02*
X31065600Y-19112400D01*
X31065600Y-19112400D02*
X31065600Y-14212400D01*
X31065600Y-14212400D02*
X28065600Y-14212400D01*
X-22102181Y4695223D02*
X-22102181Y6895223D01*
X-26352181Y3920223D02*
X-26352181Y6895223D01*
X-34877810Y-7174214D02*
X-37027810Y-7174214D01*
X-34052810Y-9424214D02*
X-37027810Y-9424214D01*
D15*
X51130900Y-8427400D02*
X55575900Y-8427400D01*
X51130900Y-13888400D02*
X55575900Y-13888400D01*
D14*
X23627793Y-663001D02*
G75*
G03X23627793Y-663001I-141421J0D01*
G01*
X28286372Y-263001D02*
X23086372Y-263001D01*
X28286372Y-4063001D02*
X28286372Y-263001D01*
X23086372Y-4063001D02*
X28286372Y-4063001D01*
X23086372Y-263001D02*
X23086372Y-4063001D01*
X54704755Y-7069800D02*
G75*
G03X54704755Y-7069800I-35355J0D01*
G01*
X54869400Y-7269800D02*
X52369400Y-7269800D01*
X52369400Y-7269800D02*
X52369400Y-4769800D01*
X52369400Y-4769800D02*
X54869400Y-4769800D01*
X54869400Y-4769800D02*
X54869400Y-7269800D01*
X-4897083Y8865623D02*
X-4189977Y8158517D01*
X-3836423Y9926283D02*
X-3129317Y9219177D01*
X24727600Y-15841600D02*
X24727600Y-14841600D01*
X23227600Y-15841600D02*
X23227600Y-14841600D01*
X24315800Y824800D02*
X25315800Y824800D01*
X24315800Y2324800D02*
X25315800Y2324800D01*
X-8624800Y6125576D02*
X-7224800Y6125576D01*
X-8624800Y9325576D02*
X-7224800Y9325576D01*
X-8624800Y6125576D02*
X-8624800Y9325576D01*
X-7224800Y9325576D02*
X-7224800Y6125576D01*
X51587600Y15228800D02*
X51587600Y13828800D01*
X54787600Y15228800D02*
X54787600Y13828800D01*
X51587600Y15228800D02*
X54787600Y15228800D01*
X54787600Y13828800D02*
X51587600Y13828800D01*
X51587600Y16854400D02*
X51587600Y15454400D01*
X54787600Y16854400D02*
X54787600Y15454400D01*
X51587600Y16854400D02*
X54787600Y16854400D01*
X54787600Y15454400D02*
X51587600Y15454400D01*
X29590800Y-13501600D02*
X29590800Y-12101600D01*
X26390800Y-13501600D02*
X26390800Y-12101600D01*
X29590800Y-13501600D02*
X26390800Y-13501600D01*
X26390800Y-12101600D02*
X29590800Y-12101600D01*
X35904400Y-13487600D02*
X34504400Y-13487600D01*
X35904400Y-16687600D02*
X34504400Y-16687600D01*
X35904400Y-13487600D02*
X35904400Y-16687600D01*
X34504400Y-16687600D02*
X34504400Y-13487600D01*
X49926271Y-15960263D02*
X48526271Y-15960263D01*
X49926271Y-19160263D02*
X48526271Y-19160263D01*
X49926271Y-15960263D02*
X49926271Y-19160263D01*
X48526271Y-19160263D02*
X48526271Y-15960263D01*
X50509400Y-9728400D02*
X49109400Y-9728400D01*
X50509400Y-12928400D02*
X49109400Y-12928400D01*
X50509400Y-9728400D02*
X50509400Y-12928400D01*
X49109400Y-12928400D02*
X49109400Y-9728400D01*
X53267982Y-15960263D02*
X51867982Y-15960263D01*
X53267982Y-19160263D02*
X51867982Y-19160263D01*
X53267982Y-15960263D02*
X53267982Y-19160263D01*
X51867982Y-19160263D02*
X51867982Y-15960263D01*
X51591582Y-15960263D02*
X50191582Y-15960263D01*
X51591582Y-19160263D02*
X50191582Y-19160263D01*
X51591582Y-15960263D02*
X51591582Y-19160263D01*
X50191582Y-19160263D02*
X50191582Y-15960263D01*
X21463200Y4433800D02*
X21463200Y3033800D01*
X24663200Y4433800D02*
X24663200Y3033800D01*
X21463200Y4433800D02*
X24663200Y4433800D01*
X24663200Y3033800D02*
X21463200Y3033800D01*
X22036000Y-699600D02*
X20636000Y-699600D01*
X22036000Y-3899600D02*
X20636000Y-3899600D01*
X22036000Y-699600D02*
X22036000Y-3899600D01*
X20636000Y-3899600D02*
X20636000Y-699600D01*
X28143000Y3033800D02*
X28143000Y4433800D01*
X24943000Y3033800D02*
X24943000Y4433800D01*
X28143000Y3033800D02*
X24943000Y3033800D01*
X24943000Y4433800D02*
X28143000Y4433800D01*
X24750800Y-8139600D02*
X26150800Y-8139600D01*
X24750800Y-4939600D02*
X26150800Y-4939600D01*
X24750800Y-8139600D02*
X24750800Y-4939600D01*
X26150800Y-4939600D02*
X26150800Y-8139600D01*
X51703200Y-4470600D02*
X50303200Y-4470600D01*
X51703200Y-7670600D02*
X50303200Y-7670600D01*
X51703200Y-4470600D02*
X51703200Y-7670600D01*
X50303200Y-7670600D02*
X50303200Y-4470600D01*
X54787600Y7580400D02*
X54787600Y8980400D01*
X51587600Y7580400D02*
X51587600Y8980400D01*
X54787600Y7580400D02*
X51587600Y7580400D01*
X51587600Y8980400D02*
X54787600Y8980400D01*
X51246000Y13030000D02*
X49846000Y13030000D01*
X51246000Y9830000D02*
X49846000Y9830000D01*
X51246000Y13030000D02*
X51246000Y9830000D01*
X49846000Y9830000D02*
X49846000Y13030000D01*
X29591200Y1208000D02*
X29591200Y-192000D01*
X32791200Y1208000D02*
X32791200Y-192000D01*
X29591200Y1208000D02*
X32791200Y1208000D01*
X32791200Y-192000D02*
X29591200Y-192000D01*
X29604370Y-449402D02*
X29604370Y-1849402D01*
X32804370Y-449402D02*
X32804370Y-1849402D01*
X29604370Y-449402D02*
X32804370Y-449402D01*
X32804370Y-1849402D02*
X29604370Y-1849402D01*
X33350000Y-13501600D02*
X33350000Y-12101600D01*
X30150000Y-13501600D02*
X30150000Y-12101600D01*
X33350000Y-13501600D02*
X30150000Y-13501600D01*
X30150000Y-12101600D02*
X33350000Y-12101600D01*
X24423600Y-4939600D02*
X23023600Y-4939600D01*
X24423600Y-8139600D02*
X23023600Y-8139600D01*
X24423600Y-4939600D02*
X24423600Y-8139600D01*
X23023600Y-8139600D02*
X23023600Y-4939600D01*
X22086800Y-4939600D02*
X20686800Y-4939600D01*
X22086800Y-8139600D02*
X20686800Y-8139600D01*
X22086800Y-4939600D02*
X22086800Y-8139600D01*
X20686800Y-8139600D02*
X20686800Y-4939600D01*
D15*
X38852800Y10160000D02*
X38852800Y-15300000D01*
X38852800Y-15300000D02*
X41512800Y-15300000D01*
X41512800Y-15300000D02*
X41512800Y10160000D01*
X41512800Y10160000D02*
X38852800Y10160000D01*
X38852800Y11430000D02*
X38852800Y12760000D01*
X38852800Y12760000D02*
X40182800Y12760000D01*
X45752800Y10160000D02*
X45752800Y-60000D01*
X45752800Y-60000D02*
X48412800Y-60000D01*
X48412800Y-60000D02*
X48412800Y10160000D01*
X48412800Y10160000D02*
X45752800Y10160000D01*
X45752800Y11430000D02*
X45752800Y12760000D01*
X45752800Y12760000D02*
X47082800Y12760000D01*
X45752800Y-7620000D02*
X45752800Y-15300000D01*
X45752800Y-15300000D02*
X48412800Y-15300000D01*
X48412800Y-15300000D02*
X48412800Y-7620000D01*
X48412800Y-7620000D02*
X45752800Y-7620000D01*
X45752800Y-6350000D02*
X45752800Y-5020000D01*
X45752800Y-5020000D02*
X47082800Y-5020000D01*
D14*
X-29743600Y-4446500D02*
X-29743600Y-3046500D01*
X-32943600Y-4446500D02*
X-32943600Y-3046500D01*
X-29743600Y-4446500D02*
X-32943600Y-4446500D01*
X-32943600Y-3046500D02*
X-29743600Y-3046500D01*
X31040300Y-2210000D02*
X29640300Y-2210000D01*
X31040300Y-5410000D02*
X29640300Y-5410000D01*
X31040300Y-2210000D02*
X31040300Y-5410000D01*
X29640300Y-5410000D02*
X29640300Y-2210000D01*
X-34961200Y3381000D02*
X-34961200Y-2619000D01*
X-34961200Y3381000D02*
X-29961200Y3381000D01*
X-29961200Y3381000D02*
X-29961200Y-2619000D01*
X-29961200Y-2619000D02*
X-34961200Y-2619000D01*
X55862400Y-17886800D02*
X55862400Y-16436800D01*
X53670200Y-18254000D02*
X53670200Y-16079000D01*
M02*
