G04 #@! TF.FileFunction,Legend,Bot*
%FSLAX46Y46*%
G04 Gerber Fmt 4.6, Leading zero omitted, Abs format (unit mm)*
G04 Created by KiCad (PCBNEW 4.0.7-e2-6376~58~ubuntu16.04.1) date Tue May  8 14:42:49 2018*
%MOMM*%
%LPD*%
G01*
G04 APERTURE LIST*
%ADD10C,0.100000*%
%ADD11C,0.381000*%
%ADD12C,0.127000*%
%ADD13C,0.010000*%
%ADD14C,0.152400*%
%ADD15C,0.304800*%
G04 APERTURE END LIST*
D10*
D11*
X18176240Y-3175000D02*
X26177240Y-3175000D01*
X26177240Y-3175000D02*
X26177240Y12827000D01*
X26177240Y12827000D02*
X12176760Y12827000D01*
X12176760Y12827000D02*
X10175240Y12827000D01*
X10175240Y12827000D02*
X10175240Y-3175000D01*
X10175240Y-3175000D02*
X18176240Y-3175000D01*
D12*
X-48747680Y-1691640D02*
X-33647380Y-1691640D01*
X-33647380Y-1691640D02*
X-33647380Y-15689580D01*
X-33647380Y-15689580D02*
X-48049180Y-15689580D01*
X-47147480Y-13990320D02*
X-47147480Y-4290060D01*
X-49507140Y-14091920D02*
X-49507140Y-4892040D01*
X-50408840Y-14091920D02*
X-50408840Y-4892040D01*
X-54208680Y-14091920D02*
X-54208680Y-4892040D01*
X-47147480Y-13992860D02*
G75*
G02X-48049180Y-14691360I-800100J101600D01*
G01*
X-48747680Y-2689860D02*
G75*
G02X-47147480Y-4290060I0J-1600200D01*
G01*
X-48308260Y-15290800D02*
G75*
G02X-49507140Y-14091920I0J1198880D01*
G01*
X-49507140Y-4889500D02*
G75*
G02X-48407320Y-3591560I1198880J99060D01*
G01*
X-49207420Y-15293340D02*
G75*
G02X-50408840Y-14091920I0J1201420D01*
G01*
X-50406300Y-4892040D02*
G75*
G02X-49309020Y-3591560I1198880J101600D01*
G01*
X-53007260Y-15293340D02*
G75*
G02X-54208680Y-14091920I0J1201420D01*
G01*
X-54206140Y-4892040D02*
G75*
G02X-53108860Y-3591560I1198880J101600D01*
G01*
D10*
X-17070060Y3991800D02*
X-17070060Y-17728200D01*
X-17070060Y-17728200D02*
X-31800060Y-17728200D01*
X-31800060Y-17728200D02*
X-31800060Y3991800D01*
X-31800060Y3991800D02*
X-17070060Y3991800D01*
X24656800Y-10050400D02*
X24526800Y-10050400D01*
X24656800Y-14130400D02*
X24526800Y-14130400D01*
X24656800Y-12820400D02*
X24656800Y-14130400D01*
X23876800Y-13380400D02*
X23876800Y-12980400D01*
X27766800Y-18080400D02*
G75*
G02X26976800Y-18870400I-790000J0D01*
G01*
X25816968Y-6109420D02*
G75*
G02X26606800Y-5310400I779832J19020D01*
G01*
X26956801Y-5310462D02*
G75*
G02X27766800Y-6110400I9999J-799938D01*
G01*
X25238234Y-17079293D02*
G75*
G02X25816800Y-17210400I258566J-201107D01*
G01*
X25249473Y-17072834D02*
G75*
G02X23996800Y-18170400I-5472673J4982434D01*
G01*
X25248260Y-7120703D02*
G75*
G03X25816800Y-6970400I248540J210303D01*
G01*
X25250774Y-7116789D02*
G75*
G03X24016800Y-6030400I-5473974J-4973611D01*
G01*
X15013411Y-7814522D02*
G75*
G02X25706800Y-9680400I4763389J-4275878D01*
G01*
X13887512Y-14583168D02*
G75*
G02X13536800Y-13490400I5889288J2492768D01*
G01*
X13539004Y-10682528D02*
G75*
G02X13886800Y-9600400I6237796J-1407872D01*
G01*
X25708331Y-14497252D02*
G75*
G02X15016800Y-16370400I-5931531J2406852D01*
G01*
X22616800Y-5265400D02*
X22722555Y-5312990D01*
X12993129Y-9141307D02*
X13035431Y-9040840D01*
X15282717Y-6217192D02*
X15372608Y-6148451D01*
X22722555Y-5312990D02*
X22823022Y-5355291D01*
X15102934Y-6359960D02*
X15192825Y-6285932D01*
X20977603Y-4794792D02*
X21088646Y-4815943D01*
X17244465Y-19039941D02*
X17143998Y-19002927D01*
X18682728Y-19404794D02*
X18571686Y-19383643D01*
X27767051Y-15851439D02*
X27767051Y-18072286D01*
X20612750Y-19436521D02*
X20501708Y-19447096D01*
X16747418Y-5344716D02*
X16847885Y-5297126D01*
X27270004Y-13672893D02*
X27270004Y-13667605D01*
X20639189Y-4747202D02*
X20755519Y-4757778D01*
X20417104Y-4726051D02*
X20533434Y-4731339D01*
X18349601Y-9141307D02*
X18222695Y-9141307D01*
X21019905Y-19235587D02*
X22220220Y-18865446D01*
X13252228Y-9030265D02*
X13083020Y-8940373D01*
X19475888Y-14984251D02*
X18349601Y-14984251D01*
X16826734Y-18870733D02*
X16720980Y-18823144D01*
X20951165Y-19388931D02*
X20834835Y-19410082D01*
X22696116Y-18881309D02*
X22585074Y-18928898D01*
X20866561Y-4778929D02*
X20977603Y-4794792D01*
X22796583Y-18839007D02*
X22696116Y-18881309D01*
X13035431Y-9040840D02*
X13083020Y-8940373D01*
X17143998Y-19002927D02*
X17032956Y-18960625D01*
X22484607Y-18971200D02*
X22378852Y-19008214D01*
X15462499Y-6084998D02*
X15557679Y-6016258D01*
X13849741Y-7671318D02*
X13913194Y-7581426D01*
X22585074Y-18928898D02*
X22484607Y-18971200D01*
X26159580Y-18722677D02*
X26101415Y-18680375D01*
X15192825Y-6285932D02*
X15282717Y-6217192D01*
X15018330Y-6428701D02*
X15102934Y-6359960D01*
X12818634Y-9564326D02*
X12866223Y-9458571D01*
X16720980Y-18823144D02*
X16620513Y-18780842D01*
X18487082Y-4810655D02*
X18592837Y-4789504D01*
X22823022Y-5355291D02*
X22923489Y-5397593D01*
X22299536Y-5138494D02*
X22410579Y-5186084D01*
X17165149Y-5170221D02*
X17270904Y-5133207D01*
X19021143Y-19447096D02*
X18904813Y-19436521D01*
X18904813Y-19436521D02*
X18793770Y-19420657D01*
X22410579Y-5186084D02*
X22511046Y-5223098D01*
X13981935Y-7486247D02*
X14050675Y-7406931D01*
X17059394Y-5207235D02*
X17165149Y-5170221D01*
X19126897Y-19457671D02*
X19021143Y-19447096D01*
X13913194Y-7581426D02*
X13981935Y-7486247D01*
X18931251Y-4747202D02*
X19047581Y-4731339D01*
X13781001Y-7761209D02*
X13849741Y-7671318D01*
X18793770Y-19420657D02*
X18682728Y-19404794D01*
X20723792Y-19420657D02*
X20612750Y-19436521D01*
X13717548Y-7856388D02*
X13781001Y-7761209D01*
X18592837Y-4789504D02*
X18709167Y-4773641D01*
X20834835Y-19410082D02*
X20723792Y-19420657D01*
X16932489Y-18913035D02*
X16826734Y-18870733D01*
X20501708Y-19447096D02*
X20385378Y-19457671D01*
X12850360Y-14698713D02*
X12813346Y-14592958D01*
X15372608Y-6148451D02*
X15462499Y-6084998D01*
X21056919Y-19373068D02*
X20951165Y-19388931D01*
X12945539Y-9252350D02*
X12993129Y-9141307D01*
X14050675Y-7406931D02*
X14129991Y-7317040D01*
X12903237Y-9352816D02*
X12945539Y-9252350D01*
X18571686Y-19383643D02*
X18460643Y-19362492D01*
X22897050Y-18791417D02*
X22796583Y-18839007D01*
X16847885Y-5297126D02*
X16958927Y-5254824D01*
X16646951Y-5392305D02*
X16747418Y-5344716D01*
X18825497Y-4757778D02*
X18931251Y-4747202D01*
X20755519Y-4757778D02*
X20866561Y-4778929D01*
X16958927Y-5254824D02*
X17059394Y-5207235D01*
X19047581Y-4731339D02*
X19158624Y-4720764D01*
X17032956Y-18960625D02*
X16932489Y-18913035D01*
X21046344Y-5006301D02*
X21088646Y-4815943D01*
X25609656Y-9453283D02*
X25593793Y-9442708D01*
X22378852Y-19008214D02*
X22278385Y-19045228D01*
X20967028Y-14291558D02*
X20967028Y-14984251D01*
X17942446Y-15745684D02*
X17942446Y-14587671D01*
X20068114Y-14984251D02*
X20068114Y-14291558D01*
X15166386Y-17881927D02*
X15087070Y-17807899D01*
X15087070Y-17807899D02*
X14997179Y-17733871D01*
X20924726Y-15037128D02*
X20924726Y-14984251D01*
X15018330Y-6428701D02*
X15124085Y-6523880D01*
X19179775Y-13091243D02*
X19179775Y-11092480D01*
X18222695Y-9442708D02*
X18349601Y-9442708D01*
X23572596Y-11092480D02*
X23572596Y-11330437D01*
X15599980Y-18024696D02*
X16710404Y-18611634D01*
X26344651Y-18817856D02*
X26281198Y-18791417D01*
X18497657Y-19182709D02*
X18460643Y-19362492D01*
X20380090Y-19267313D02*
X20385378Y-19457671D01*
X14108840Y-16845532D02*
X14204019Y-16745065D01*
X13072445Y-15216911D02*
X13024855Y-15111156D01*
X25725986Y-9516736D02*
X25715411Y-9516736D01*
X14621750Y-11192947D02*
X15150523Y-9892165D01*
X14267472Y-7449233D02*
X14129991Y-7317040D01*
X15573542Y-8157789D02*
X14457830Y-9950330D01*
X26228321Y-5598527D02*
X26228321Y-10584858D01*
X17942446Y-9596052D02*
X17942446Y-8432751D01*
X26281198Y-18791417D02*
X26217745Y-18759691D01*
X19327733Y-12313946D02*
X23186823Y-12313946D01*
X25710123Y-14471341D02*
X25710123Y-9707094D01*
X25651958Y-9500873D02*
X25641383Y-9485010D01*
X25963934Y-18527031D02*
X25926920Y-18468866D01*
X13024855Y-15111156D02*
X12977266Y-15010689D01*
X15351457Y-18019408D02*
X15256278Y-17950668D01*
X15441348Y-18082861D02*
X15351457Y-18019408D01*
X25821166Y-18141026D02*
X25815878Y-18072286D01*
X20068114Y-9294651D02*
X20967028Y-9294651D01*
X25641383Y-9485010D02*
X25625519Y-9479722D01*
X15256278Y-17950668D02*
X15166386Y-17881927D01*
X22823022Y-18675087D02*
X23885856Y-17998258D01*
X14204019Y-16745065D02*
X15124085Y-17596390D01*
X23572596Y-13091243D02*
X16181631Y-13091243D01*
X26545585Y-18865446D02*
X26476844Y-18854870D01*
X25625519Y-9479722D02*
X25620232Y-9469147D01*
X20068114Y-9093718D02*
X20967028Y-9093718D01*
X13072445Y-15216911D02*
X13188775Y-15142883D01*
X23944021Y-6159027D02*
X22833597Y-5572088D01*
X25715411Y-9516736D02*
X25694260Y-9511448D01*
X24155530Y-14291558D02*
X20967028Y-14291558D01*
X22267810Y-5281263D02*
X21046344Y-5006301D01*
X27270004Y-10505542D02*
X27270004Y-5598527D01*
X26371090Y-14587671D02*
X26371090Y-18082861D01*
X22511046Y-5223098D02*
X22616800Y-5265400D01*
X17942446Y-14587671D02*
X15028905Y-14587671D01*
X23885856Y-17998258D02*
X23991610Y-18167465D01*
X18487082Y-4810655D02*
X18529384Y-4948136D01*
X24150242Y-9892165D02*
X24155530Y-9892165D01*
X25747137Y-9516736D02*
X25725986Y-9516736D01*
X17276191Y-18902460D02*
X18497657Y-19182709D01*
X26667203Y-18082861D02*
X26371090Y-18082861D01*
X12961402Y-9596052D02*
X12716800Y-10690400D01*
X13188775Y-15142883D02*
X13860317Y-16205717D01*
X24155530Y-14286270D02*
X24150242Y-14286270D01*
X15800914Y-8305846D02*
X14685203Y-10093099D01*
X19227364Y-13091243D02*
X19227364Y-11092480D01*
X26371090Y-6095574D02*
X26371090Y-9596052D01*
X15124085Y-17596390D02*
X14997179Y-17733871D01*
X12616800Y-13490400D02*
X12998417Y-14534793D01*
X26963316Y-18870733D02*
X26614325Y-18870733D01*
X19475888Y-9892165D02*
X20068114Y-9892165D01*
X26667203Y-14587671D02*
X26376709Y-14587671D01*
X26226802Y-14518930D02*
X25706696Y-14518930D01*
X23875280Y-11200402D02*
X23875280Y-10791079D01*
X12998417Y-14534793D02*
X12813346Y-14592958D01*
X15800914Y-15883165D02*
X15018330Y-16369636D01*
X25895194Y-18405413D02*
X25868755Y-18341960D01*
X12977266Y-15010689D02*
X12934964Y-14910222D01*
X25926920Y-18468866D02*
X25895194Y-18405413D01*
X15800914Y-8305846D02*
X15018330Y-7819374D01*
X20068114Y-14291558D02*
X19475888Y-14291558D01*
X25747137Y-9516736D02*
X26226841Y-9516736D01*
X18354889Y-10791079D02*
X18354889Y-11092480D01*
X24012761Y-6032121D02*
X23944021Y-6159027D01*
X18349601Y-14291558D02*
X15150523Y-14291558D01*
X20068114Y-14741015D02*
X19475888Y-14741015D01*
X14685203Y-10093099D02*
X13886755Y-9596052D01*
X20967028Y-14788604D02*
X20068114Y-14788604D01*
X26614325Y-18870733D02*
X26545585Y-18865446D01*
X21146811Y-14587671D02*
X21146811Y-15745684D01*
X26376377Y-14587671D02*
X26371090Y-14587671D01*
X14685203Y-14090624D02*
X15800914Y-15883165D01*
X20068114Y-14984251D02*
X20967028Y-14984251D01*
X20422392Y-4868820D02*
X19163912Y-4916410D01*
X18349601Y-9294651D02*
X19475888Y-9294651D01*
X26376379Y-9596052D02*
X26667203Y-9596052D01*
X19163912Y-4916410D02*
X19158624Y-4720764D01*
X12818634Y-9564326D02*
X12961402Y-9596052D01*
X20967028Y-9892165D02*
X24155530Y-9892165D01*
X15531240Y-18146314D02*
X15441348Y-18082861D01*
X23572596Y-12850364D02*
X23572596Y-13091243D01*
X13844454Y-7919841D02*
X13252228Y-9030265D01*
X25815878Y-6973337D02*
X25815878Y-6111437D01*
X25868755Y-18341960D02*
X25847604Y-18278507D01*
X25847604Y-18278507D02*
X25831741Y-18209767D01*
X21146811Y-8432751D02*
X21146811Y-9596052D01*
X21146811Y-9596052D02*
X24520384Y-9596052D01*
X14040100Y-16755641D02*
X13971359Y-16665749D01*
X21056919Y-19373068D02*
X21019905Y-19235587D01*
X26228321Y-13598865D02*
X26228321Y-18585196D01*
X25593793Y-9442708D02*
X25588505Y-9426845D01*
X26667203Y-9596052D02*
X26667203Y-6095574D01*
X19121610Y-19314903D02*
X20380090Y-19267313D01*
X26101415Y-18680375D02*
X26053826Y-18632785D01*
X19327733Y-11864489D02*
X19327733Y-12313946D01*
X13860317Y-16205717D02*
X13696397Y-16306183D01*
X19475888Y-14291558D02*
X19475888Y-14984251D01*
X13828590Y-16491254D02*
X13765138Y-16401363D01*
X28163631Y-13725770D02*
X27767051Y-15851439D01*
X22299536Y-5138494D02*
X22267810Y-5281263D01*
X15028905Y-9596052D02*
X17942446Y-9596052D01*
X19475888Y-14788604D02*
X18349601Y-14788604D01*
X20417104Y-4726051D02*
X20422392Y-4868820D01*
X18529384Y-4948136D02*
X17323781Y-5318277D01*
X22833597Y-5572088D02*
X22923489Y-5397593D01*
X26413392Y-18844295D02*
X26344651Y-18817856D01*
X17244465Y-19039941D02*
X17276191Y-18902460D01*
X15531240Y-18146314D02*
X15599980Y-18024696D01*
X16720980Y-5513923D02*
X15658145Y-6180177D01*
X13971359Y-16665749D02*
X13897331Y-16581145D01*
X14108840Y-16845532D02*
X14040100Y-16755641D01*
X26053826Y-18632785D02*
X26006236Y-18585196D01*
X19126897Y-19457671D02*
X19121610Y-19314903D01*
X16181631Y-13091243D02*
X16181631Y-13387356D01*
X24520384Y-14587671D02*
X21146811Y-14587671D01*
X22220220Y-18865446D02*
X22278385Y-19045228D01*
X20967028Y-9093718D02*
X20967028Y-9892165D01*
X16646951Y-5392305D02*
X16720980Y-5513923D01*
X13717548Y-7856388D02*
X13844454Y-7919841D01*
X26476844Y-18854870D02*
X26413392Y-18844295D01*
X20068114Y-9141307D02*
X19475888Y-9141307D01*
X21146811Y-15745684D02*
X17942446Y-15745684D01*
X20068114Y-9892165D02*
X20068114Y-9093718D01*
X14457830Y-14233393D02*
X15573542Y-16020646D01*
X18222695Y-14741015D02*
X18222695Y-15037128D01*
X16181631Y-13387356D02*
X23875280Y-13387356D01*
X25588505Y-9426845D02*
X25583218Y-9416269D01*
X15124085Y-6523880D02*
X14267472Y-7449233D01*
X23875280Y-10791079D02*
X16181631Y-10791079D01*
X16181631Y-10791079D02*
X16181631Y-11092480D01*
X19475888Y-9093718D02*
X19475888Y-9892165D01*
X27270004Y-5598527D02*
X26228321Y-5598527D01*
X15028905Y-14587671D02*
X15028905Y-13979582D01*
X27270004Y-18585196D02*
X27270004Y-13672893D01*
X26614325Y-5312990D02*
X26963316Y-5312990D01*
X27767051Y-8332284D02*
X28163631Y-10457952D01*
X23176802Y-11864489D02*
X19327733Y-11864489D01*
X16710404Y-18611634D02*
X16620513Y-18780842D01*
X18349601Y-9892165D02*
X18349601Y-9093718D01*
X18222695Y-9141307D02*
X18222695Y-9442708D01*
X15658145Y-6180177D02*
X15557679Y-6016258D01*
X15028905Y-10204141D02*
X15028905Y-9596052D01*
X24520384Y-9596052D02*
X24520384Y-10050797D01*
X24520384Y-14132926D02*
X24520384Y-14587671D01*
X24657865Y-10050384D02*
X24657865Y-11390429D01*
X22897050Y-18791417D02*
X22823022Y-18675087D01*
X26667203Y-6095574D02*
X26371090Y-6095574D01*
X17323781Y-5318277D02*
X17270904Y-5133207D01*
X12934964Y-14910222D02*
X12892662Y-14804468D01*
X12892662Y-14804468D02*
X12850360Y-14698713D01*
X19475888Y-9442708D02*
X20068114Y-9442708D01*
X15150523Y-14291558D02*
X14621750Y-12990776D01*
X18349601Y-14984251D02*
X18349601Y-14291558D01*
X18354889Y-13091243D02*
X18354889Y-13387356D01*
X25815878Y-18072286D02*
X25815878Y-17205098D01*
X27767051Y-6111437D02*
X27767051Y-8332284D01*
X25683685Y-9511448D02*
X25673109Y-9506161D01*
X14685203Y-14090624D02*
X13886755Y-14587671D01*
X26228321Y-18585196D02*
X27270004Y-18585196D01*
X25694260Y-9511448D02*
X25683685Y-9511448D01*
X26371090Y-9596052D02*
X26376377Y-9596052D01*
X15150523Y-9892165D02*
X18349601Y-9892165D01*
X13897331Y-16581145D02*
X13828590Y-16491254D01*
X25620232Y-9469147D02*
X25609656Y-9453283D01*
X17942446Y-8432751D02*
X21146811Y-8432751D01*
X18349601Y-9093718D02*
X19475888Y-9093718D01*
X26217745Y-18759691D02*
X26159580Y-18722677D01*
X25831741Y-18209767D02*
X25821166Y-18141026D01*
X16181631Y-11092480D02*
X23572596Y-11092480D01*
X13765138Y-16401363D02*
X13696397Y-16306183D01*
X18222695Y-15037128D02*
X20924726Y-15037128D01*
X26667203Y-18082861D02*
X26667203Y-14587671D01*
X25673109Y-9506161D02*
X25651958Y-9500873D01*
X26006236Y-18585196D02*
X25963934Y-18527031D01*
X18349601Y-14741015D02*
X18222695Y-14741015D01*
X12866223Y-9458571D02*
X12903237Y-9352816D01*
X20533434Y-4731339D02*
X20639189Y-4747202D01*
X18709167Y-4773641D02*
X18825497Y-4757778D01*
D13*
G36*
X31715233Y4836091D02*
X31715829Y4780213D01*
X31717047Y4732101D01*
X31719071Y4689288D01*
X31722083Y4649310D01*
X31726267Y4609699D01*
X31731807Y4567991D01*
X31738885Y4521720D01*
X31747060Y4472129D01*
X31782112Y4301774D01*
X31829126Y4134864D01*
X31887688Y3971988D01*
X31957386Y3813734D01*
X32037807Y3660692D01*
X32128537Y3513451D01*
X32229163Y3372600D01*
X32339273Y3238729D01*
X32458453Y3112427D01*
X32586290Y2994283D01*
X32722371Y2884887D01*
X32866284Y2784827D01*
X32977297Y2717301D01*
X33135565Y2633696D01*
X33297349Y2562273D01*
X33462699Y2503018D01*
X33631669Y2455919D01*
X33804310Y2420964D01*
X33980675Y2398140D01*
X34160817Y2387433D01*
X34335688Y2388482D01*
X34510568Y2401243D01*
X34683619Y2426395D01*
X34854202Y2463685D01*
X35021678Y2512859D01*
X35185407Y2573666D01*
X35344751Y2645851D01*
X35499071Y2729162D01*
X35647726Y2823345D01*
X35790078Y2928147D01*
X35874080Y2997646D01*
X35915510Y3034965D01*
X35962140Y3079516D01*
X36011518Y3128759D01*
X36061190Y3180151D01*
X36108704Y3231153D01*
X36151607Y3279223D01*
X36187445Y3321819D01*
X36189729Y3324658D01*
X36296586Y3467877D01*
X36392732Y3617322D01*
X36477789Y3772303D01*
X36551375Y3932135D01*
X36608678Y4083050D01*
X36660965Y4255136D01*
X36700852Y4429315D01*
X36728276Y4605102D01*
X36743171Y4782011D01*
X36745471Y4959555D01*
X36740496Y5070475D01*
X36722312Y5247513D01*
X36691861Y5421904D01*
X36649408Y5593068D01*
X36595217Y5760422D01*
X36529553Y5923384D01*
X36452680Y6081373D01*
X36364862Y6233806D01*
X36266365Y6380102D01*
X36157452Y6519678D01*
X36038387Y6651953D01*
X36007589Y6683290D01*
X35877668Y6804384D01*
X35740665Y6915186D01*
X35597179Y7015519D01*
X35447809Y7105205D01*
X35293153Y7184066D01*
X35133811Y7251925D01*
X35011653Y7294291D01*
X35011653Y7046560D01*
X35020442Y7045306D01*
X35038915Y7039479D01*
X35065215Y7029812D01*
X35097490Y7017039D01*
X35133884Y7001894D01*
X35172543Y6985111D01*
X35211515Y6967468D01*
X35247277Y6949874D01*
X35290539Y6926951D01*
X35338255Y6900450D01*
X35387381Y6872119D01*
X35434871Y6843709D01*
X35477679Y6816967D01*
X35505875Y6798383D01*
X35624951Y6711166D01*
X35740352Y6614549D01*
X35850206Y6510399D01*
X35952635Y6400585D01*
X36045766Y6286975D01*
X36113089Y6193462D01*
X36148218Y6132751D01*
X36179503Y6060719D01*
X36206697Y5978226D01*
X36229552Y5886132D01*
X36247818Y5785296D01*
X36260588Y5683250D01*
X36262736Y5650005D01*
X36263676Y5608196D01*
X36263453Y5561898D01*
X36262115Y5515187D01*
X36259709Y5472137D01*
X36257897Y5450991D01*
X36245918Y5367357D01*
X36227602Y5289913D01*
X36203445Y5220096D01*
X36173945Y5159344D01*
X36139846Y5109397D01*
X36109201Y5076615D01*
X36076701Y5052122D01*
X36039262Y5034230D01*
X35993800Y5021249D01*
X35970641Y5016689D01*
X35909815Y5002889D01*
X35859462Y4984421D01*
X35817908Y4960326D01*
X35783480Y4929649D01*
X35756068Y4893871D01*
X35736775Y4860264D01*
X35720231Y4822872D01*
X35706280Y4780661D01*
X35694767Y4732600D01*
X35685536Y4677658D01*
X35678430Y4614803D01*
X35673295Y4543003D01*
X35669975Y4461226D01*
X35668312Y4368441D01*
X35668048Y4310994D01*
X35666311Y4161910D01*
X35661291Y4024915D01*
X35652989Y3900048D01*
X35641410Y3787347D01*
X35626556Y3686850D01*
X35613266Y3619500D01*
X35579862Y3494004D01*
X35536961Y3374391D01*
X35485035Y3261518D01*
X35424557Y3156242D01*
X35355999Y3059419D01*
X35279835Y2971905D01*
X35228562Y2922302D01*
X35202831Y2899056D01*
X35236222Y2965591D01*
X35252614Y2999515D01*
X35269535Y3036627D01*
X35284500Y3071386D01*
X35291521Y3088844D01*
X35307445Y3134561D01*
X35323692Y3189195D01*
X35339345Y3249025D01*
X35353483Y3310331D01*
X35365189Y3369390D01*
X35373146Y3419475D01*
X35377781Y3464140D01*
X35381241Y3518220D01*
X35383498Y3578484D01*
X35384524Y3641700D01*
X35384294Y3704635D01*
X35382778Y3764058D01*
X35379950Y3816736D01*
X35376792Y3851275D01*
X35351678Y4019343D01*
X35315037Y4190057D01*
X35267296Y4361778D01*
X35208882Y4532867D01*
X35178435Y4611180D01*
X35167713Y4637552D01*
X35157451Y4662357D01*
X35146993Y4687062D01*
X35135681Y4713135D01*
X35122860Y4742045D01*
X35107872Y4775260D01*
X35090062Y4814248D01*
X35068771Y4860478D01*
X35043344Y4915417D01*
X35016327Y4973638D01*
X34943544Y5141931D01*
X34881980Y5308996D01*
X34831660Y5474456D01*
X34792607Y5637934D01*
X34764847Y5799054D01*
X34748406Y5957438D01*
X34743307Y6112710D01*
X34749576Y6264492D01*
X34767237Y6412408D01*
X34796316Y6556081D01*
X34836838Y6695133D01*
X34888827Y6829188D01*
X34893031Y6838676D01*
X34907529Y6869573D01*
X34924406Y6903068D01*
X34942518Y6937160D01*
X34960726Y6969849D01*
X34977887Y6999135D01*
X34992859Y7023017D01*
X35004503Y7039495D01*
X35011653Y7046560D01*
X35011653Y7294291D01*
X34970381Y7308605D01*
X34803463Y7353927D01*
X34633655Y7387714D01*
X34461556Y7409789D01*
X34287764Y7419973D01*
X34159790Y7418596D01*
X34159790Y7187799D01*
X34234882Y7187765D01*
X34311888Y7185960D01*
X34387584Y7182479D01*
X34458742Y7177414D01*
X34522138Y7170860D01*
X34550350Y7166988D01*
X34593274Y7160014D01*
X34638603Y7151848D01*
X34684739Y7142860D01*
X34730083Y7133421D01*
X34773037Y7123901D01*
X34812004Y7114669D01*
X34845384Y7106095D01*
X34871579Y7098549D01*
X34888991Y7092401D01*
X34896022Y7088021D01*
X34895807Y7087042D01*
X34889845Y7083799D01*
X34873300Y7075173D01*
X34846909Y7061542D01*
X34811408Y7043281D01*
X34767532Y7020768D01*
X34716019Y6994379D01*
X34657604Y6964492D01*
X34593024Y6931483D01*
X34523015Y6895730D01*
X34448313Y6857608D01*
X34369654Y6817496D01*
X34287775Y6775769D01*
X34285052Y6774382D01*
X34203102Y6732595D01*
X34124376Y6692377D01*
X34049609Y6654105D01*
X33979534Y6618160D01*
X33914885Y6584920D01*
X33856397Y6554764D01*
X33804803Y6528071D01*
X33760837Y6505221D01*
X33725234Y6486593D01*
X33698727Y6472565D01*
X33682051Y6463517D01*
X33675939Y6459828D01*
X33675926Y6459801D01*
X33681122Y6456026D01*
X33696611Y6446820D01*
X33721463Y6432693D01*
X33754746Y6414157D01*
X33795531Y6391723D01*
X33842885Y6365902D01*
X33895879Y6337204D01*
X33953582Y6306142D01*
X34015063Y6273226D01*
X34036201Y6261949D01*
X34098771Y6228530D01*
X34157913Y6196814D01*
X34212692Y6167310D01*
X34262171Y6140529D01*
X34305415Y6116981D01*
X34341490Y6097174D01*
X34369460Y6081620D01*
X34388389Y6070828D01*
X34397343Y6065307D01*
X34397950Y6064729D01*
X34392431Y6061269D01*
X34376369Y6052372D01*
X34350504Y6038428D01*
X34315580Y6019826D01*
X34272336Y5996956D01*
X34221514Y5970208D01*
X34163856Y5939971D01*
X34100102Y5906635D01*
X34030995Y5870589D01*
X33957276Y5832223D01*
X33879686Y5791926D01*
X33812162Y5756922D01*
X33731806Y5715283D01*
X33654625Y5675253D01*
X33581368Y5637223D01*
X33512783Y5601582D01*
X33449619Y5568722D01*
X33392623Y5539032D01*
X33342544Y5512901D01*
X33300131Y5490721D01*
X33266131Y5472881D01*
X33241293Y5459771D01*
X33226365Y5451781D01*
X33222036Y5449317D01*
X33226873Y5445788D01*
X33242152Y5436722D01*
X33267100Y5422541D01*
X33300943Y5403669D01*
X33342908Y5380528D01*
X33392222Y5353541D01*
X33448113Y5323131D01*
X33509807Y5289721D01*
X33576531Y5253733D01*
X33647512Y5215591D01*
X33721976Y5175717D01*
X33734731Y5168900D01*
X33809794Y5128764D01*
X33881584Y5090311D01*
X33949319Y5053964D01*
X34012219Y5020146D01*
X34069503Y4989277D01*
X34120389Y4961780D01*
X34164098Y4938078D01*
X34199847Y4918592D01*
X34226857Y4903744D01*
X34244345Y4893957D01*
X34251532Y4889652D01*
X34251674Y4889500D01*
X34246191Y4886041D01*
X34230508Y4877352D01*
X34205719Y4864012D01*
X34172920Y4846599D01*
X34133204Y4825692D01*
X34087666Y4801869D01*
X34037400Y4775708D01*
X33983502Y4747787D01*
X33981867Y4746942D01*
X33927871Y4718952D01*
X33877481Y4692662D01*
X33831791Y4668656D01*
X33791896Y4647517D01*
X33758890Y4629828D01*
X33733868Y4616173D01*
X33717924Y4607134D01*
X33712154Y4603294D01*
X33712150Y4603267D01*
X33717621Y4599706D01*
X33733505Y4590608D01*
X33759004Y4576405D01*
X33793322Y4557530D01*
X33835661Y4534416D01*
X33885224Y4507496D01*
X33941216Y4477203D01*
X34002838Y4443969D01*
X34069294Y4408228D01*
X34139787Y4370412D01*
X34209037Y4333351D01*
X34283234Y4293679D01*
X34354616Y4255495D01*
X34422334Y4219256D01*
X34485539Y4185415D01*
X34543383Y4154427D01*
X34595017Y4126748D01*
X34639594Y4102831D01*
X34676265Y4083132D01*
X34704182Y4068106D01*
X34722496Y4058206D01*
X34730012Y4054087D01*
X34754100Y4040447D01*
X34501412Y3909777D01*
X34449232Y3882678D01*
X34400729Y3857266D01*
X34357028Y3834146D01*
X34319256Y3813925D01*
X34288538Y3797208D01*
X34266000Y3784602D01*
X34252769Y3776714D01*
X34249632Y3774233D01*
X34255249Y3770227D01*
X34270833Y3760972D01*
X34295131Y3747167D01*
X34326889Y3729507D01*
X34364853Y3708691D01*
X34407769Y3685416D01*
X34454287Y3660430D01*
X34500672Y3635480D01*
X34543149Y3612340D01*
X34580501Y3591694D01*
X34611511Y3574230D01*
X34634961Y3560632D01*
X34649633Y3551587D01*
X34654311Y3547780D01*
X34654300Y3547768D01*
X34648190Y3544319D01*
X34631678Y3535508D01*
X34605649Y3521796D01*
X34570988Y3503644D01*
X34528578Y3481512D01*
X34479305Y3455863D01*
X34424053Y3427156D01*
X34363706Y3395854D01*
X34299150Y3362416D01*
X34231268Y3327304D01*
X34229094Y3326179D01*
X34161230Y3291059D01*
X34096754Y3257610D01*
X34036539Y3226289D01*
X33981458Y3197555D01*
X33932387Y3171868D01*
X33890200Y3149686D01*
X33855771Y3131467D01*
X33829973Y3117670D01*
X33813682Y3108753D01*
X33807772Y3105176D01*
X33807764Y3105150D01*
X33813147Y3101535D01*
X33828664Y3092102D01*
X33853440Y3077362D01*
X33886598Y3057829D01*
X33927264Y3034013D01*
X33974561Y3006427D01*
X34027614Y2975582D01*
X34085546Y2941991D01*
X34147483Y2906166D01*
X34198201Y2876891D01*
X34262538Y2839688D01*
X34323435Y2804280D01*
X34380031Y2771179D01*
X34431462Y2740901D01*
X34476866Y2713959D01*
X34515381Y2690866D01*
X34546144Y2672136D01*
X34568294Y2658282D01*
X34580967Y2649818D01*
X34583710Y2647280D01*
X34573220Y2643056D01*
X34551699Y2638830D01*
X34520818Y2634730D01*
X34482244Y2630883D01*
X34437648Y2627418D01*
X34388698Y2624461D01*
X34337064Y2622142D01*
X34284414Y2620588D01*
X34232418Y2619927D01*
X34226500Y2619914D01*
X34117285Y2621570D01*
X34016680Y2627048D01*
X33921064Y2636749D01*
X33826815Y2651080D01*
X33730313Y2670442D01*
X33689925Y2679769D01*
X33528456Y2724407D01*
X33373021Y2779889D01*
X33222648Y2846641D01*
X33076365Y2925089D01*
X32950150Y3004203D01*
X32884168Y3049706D01*
X32824470Y3093892D01*
X32768133Y3139184D01*
X32712236Y3188007D01*
X32653856Y3242786D01*
X32606977Y3288944D01*
X32526065Y3372974D01*
X32454247Y3454434D01*
X32389189Y3536288D01*
X32328552Y3621498D01*
X32270001Y3713029D01*
X32261358Y3727312D01*
X32180021Y3874727D01*
X32110390Y4026365D01*
X32052445Y4181566D01*
X32006170Y4339670D01*
X31971546Y4500015D01*
X31948555Y4661943D01*
X31937180Y4824791D01*
X31937402Y4987899D01*
X31949203Y5150606D01*
X31972566Y5312253D01*
X32007472Y5472178D01*
X32053904Y5629721D01*
X32111843Y5784222D01*
X32181271Y5935019D01*
X32262171Y6081452D01*
X32328250Y6184900D01*
X32428411Y6321634D01*
X32537564Y6449697D01*
X32655135Y6568752D01*
X32780550Y6678463D01*
X32913236Y6778492D01*
X33052617Y6868504D01*
X33198120Y6948160D01*
X33349171Y7017126D01*
X33505196Y7075063D01*
X33665621Y7121635D01*
X33829871Y7156505D01*
X33997373Y7179338D01*
X34028255Y7182180D01*
X34089839Y7185969D01*
X34159790Y7187799D01*
X34159790Y7418596D01*
X34112880Y7418090D01*
X33937501Y7403961D01*
X33762227Y7377409D01*
X33705367Y7366071D01*
X33534290Y7323575D01*
X33368098Y7269660D01*
X33207231Y7204781D01*
X33052126Y7129393D01*
X32903221Y7043951D01*
X32760956Y6948909D01*
X32625767Y6844722D01*
X32498094Y6731845D01*
X32378373Y6610733D01*
X32267045Y6481840D01*
X32164546Y6345622D01*
X32071315Y6202532D01*
X31987790Y6053026D01*
X31914410Y5897558D01*
X31851612Y5736583D01*
X31799835Y5570557D01*
X31759517Y5399933D01*
X31747295Y5334000D01*
X31738560Y5281768D01*
X31731539Y5236011D01*
X31726049Y5194290D01*
X31721908Y5154168D01*
X31718935Y5113209D01*
X31716947Y5068973D01*
X31715763Y5019025D01*
X31715200Y4960927D01*
X31715075Y4902200D01*
X31715233Y4836091D01*
X31715233Y4836091D01*
G37*
X31715233Y4836091D02*
X31715829Y4780213D01*
X31717047Y4732101D01*
X31719071Y4689288D01*
X31722083Y4649310D01*
X31726267Y4609699D01*
X31731807Y4567991D01*
X31738885Y4521720D01*
X31747060Y4472129D01*
X31782112Y4301774D01*
X31829126Y4134864D01*
X31887688Y3971988D01*
X31957386Y3813734D01*
X32037807Y3660692D01*
X32128537Y3513451D01*
X32229163Y3372600D01*
X32339273Y3238729D01*
X32458453Y3112427D01*
X32586290Y2994283D01*
X32722371Y2884887D01*
X32866284Y2784827D01*
X32977297Y2717301D01*
X33135565Y2633696D01*
X33297349Y2562273D01*
X33462699Y2503018D01*
X33631669Y2455919D01*
X33804310Y2420964D01*
X33980675Y2398140D01*
X34160817Y2387433D01*
X34335688Y2388482D01*
X34510568Y2401243D01*
X34683619Y2426395D01*
X34854202Y2463685D01*
X35021678Y2512859D01*
X35185407Y2573666D01*
X35344751Y2645851D01*
X35499071Y2729162D01*
X35647726Y2823345D01*
X35790078Y2928147D01*
X35874080Y2997646D01*
X35915510Y3034965D01*
X35962140Y3079516D01*
X36011518Y3128759D01*
X36061190Y3180151D01*
X36108704Y3231153D01*
X36151607Y3279223D01*
X36187445Y3321819D01*
X36189729Y3324658D01*
X36296586Y3467877D01*
X36392732Y3617322D01*
X36477789Y3772303D01*
X36551375Y3932135D01*
X36608678Y4083050D01*
X36660965Y4255136D01*
X36700852Y4429315D01*
X36728276Y4605102D01*
X36743171Y4782011D01*
X36745471Y4959555D01*
X36740496Y5070475D01*
X36722312Y5247513D01*
X36691861Y5421904D01*
X36649408Y5593068D01*
X36595217Y5760422D01*
X36529553Y5923384D01*
X36452680Y6081373D01*
X36364862Y6233806D01*
X36266365Y6380102D01*
X36157452Y6519678D01*
X36038387Y6651953D01*
X36007589Y6683290D01*
X35877668Y6804384D01*
X35740665Y6915186D01*
X35597179Y7015519D01*
X35447809Y7105205D01*
X35293153Y7184066D01*
X35133811Y7251925D01*
X35011653Y7294291D01*
X35011653Y7046560D01*
X35020442Y7045306D01*
X35038915Y7039479D01*
X35065215Y7029812D01*
X35097490Y7017039D01*
X35133884Y7001894D01*
X35172543Y6985111D01*
X35211515Y6967468D01*
X35247277Y6949874D01*
X35290539Y6926951D01*
X35338255Y6900450D01*
X35387381Y6872119D01*
X35434871Y6843709D01*
X35477679Y6816967D01*
X35505875Y6798383D01*
X35624951Y6711166D01*
X35740352Y6614549D01*
X35850206Y6510399D01*
X35952635Y6400585D01*
X36045766Y6286975D01*
X36113089Y6193462D01*
X36148218Y6132751D01*
X36179503Y6060719D01*
X36206697Y5978226D01*
X36229552Y5886132D01*
X36247818Y5785296D01*
X36260588Y5683250D01*
X36262736Y5650005D01*
X36263676Y5608196D01*
X36263453Y5561898D01*
X36262115Y5515187D01*
X36259709Y5472137D01*
X36257897Y5450991D01*
X36245918Y5367357D01*
X36227602Y5289913D01*
X36203445Y5220096D01*
X36173945Y5159344D01*
X36139846Y5109397D01*
X36109201Y5076615D01*
X36076701Y5052122D01*
X36039262Y5034230D01*
X35993800Y5021249D01*
X35970641Y5016689D01*
X35909815Y5002889D01*
X35859462Y4984421D01*
X35817908Y4960326D01*
X35783480Y4929649D01*
X35756068Y4893871D01*
X35736775Y4860264D01*
X35720231Y4822872D01*
X35706280Y4780661D01*
X35694767Y4732600D01*
X35685536Y4677658D01*
X35678430Y4614803D01*
X35673295Y4543003D01*
X35669975Y4461226D01*
X35668312Y4368441D01*
X35668048Y4310994D01*
X35666311Y4161910D01*
X35661291Y4024915D01*
X35652989Y3900048D01*
X35641410Y3787347D01*
X35626556Y3686850D01*
X35613266Y3619500D01*
X35579862Y3494004D01*
X35536961Y3374391D01*
X35485035Y3261518D01*
X35424557Y3156242D01*
X35355999Y3059419D01*
X35279835Y2971905D01*
X35228562Y2922302D01*
X35202831Y2899056D01*
X35236222Y2965591D01*
X35252614Y2999515D01*
X35269535Y3036627D01*
X35284500Y3071386D01*
X35291521Y3088844D01*
X35307445Y3134561D01*
X35323692Y3189195D01*
X35339345Y3249025D01*
X35353483Y3310331D01*
X35365189Y3369390D01*
X35373146Y3419475D01*
X35377781Y3464140D01*
X35381241Y3518220D01*
X35383498Y3578484D01*
X35384524Y3641700D01*
X35384294Y3704635D01*
X35382778Y3764058D01*
X35379950Y3816736D01*
X35376792Y3851275D01*
X35351678Y4019343D01*
X35315037Y4190057D01*
X35267296Y4361778D01*
X35208882Y4532867D01*
X35178435Y4611180D01*
X35167713Y4637552D01*
X35157451Y4662357D01*
X35146993Y4687062D01*
X35135681Y4713135D01*
X35122860Y4742045D01*
X35107872Y4775260D01*
X35090062Y4814248D01*
X35068771Y4860478D01*
X35043344Y4915417D01*
X35016327Y4973638D01*
X34943544Y5141931D01*
X34881980Y5308996D01*
X34831660Y5474456D01*
X34792607Y5637934D01*
X34764847Y5799054D01*
X34748406Y5957438D01*
X34743307Y6112710D01*
X34749576Y6264492D01*
X34767237Y6412408D01*
X34796316Y6556081D01*
X34836838Y6695133D01*
X34888827Y6829188D01*
X34893031Y6838676D01*
X34907529Y6869573D01*
X34924406Y6903068D01*
X34942518Y6937160D01*
X34960726Y6969849D01*
X34977887Y6999135D01*
X34992859Y7023017D01*
X35004503Y7039495D01*
X35011653Y7046560D01*
X35011653Y7294291D01*
X34970381Y7308605D01*
X34803463Y7353927D01*
X34633655Y7387714D01*
X34461556Y7409789D01*
X34287764Y7419973D01*
X34159790Y7418596D01*
X34159790Y7187799D01*
X34234882Y7187765D01*
X34311888Y7185960D01*
X34387584Y7182479D01*
X34458742Y7177414D01*
X34522138Y7170860D01*
X34550350Y7166988D01*
X34593274Y7160014D01*
X34638603Y7151848D01*
X34684739Y7142860D01*
X34730083Y7133421D01*
X34773037Y7123901D01*
X34812004Y7114669D01*
X34845384Y7106095D01*
X34871579Y7098549D01*
X34888991Y7092401D01*
X34896022Y7088021D01*
X34895807Y7087042D01*
X34889845Y7083799D01*
X34873300Y7075173D01*
X34846909Y7061542D01*
X34811408Y7043281D01*
X34767532Y7020768D01*
X34716019Y6994379D01*
X34657604Y6964492D01*
X34593024Y6931483D01*
X34523015Y6895730D01*
X34448313Y6857608D01*
X34369654Y6817496D01*
X34287775Y6775769D01*
X34285052Y6774382D01*
X34203102Y6732595D01*
X34124376Y6692377D01*
X34049609Y6654105D01*
X33979534Y6618160D01*
X33914885Y6584920D01*
X33856397Y6554764D01*
X33804803Y6528071D01*
X33760837Y6505221D01*
X33725234Y6486593D01*
X33698727Y6472565D01*
X33682051Y6463517D01*
X33675939Y6459828D01*
X33675926Y6459801D01*
X33681122Y6456026D01*
X33696611Y6446820D01*
X33721463Y6432693D01*
X33754746Y6414157D01*
X33795531Y6391723D01*
X33842885Y6365902D01*
X33895879Y6337204D01*
X33953582Y6306142D01*
X34015063Y6273226D01*
X34036201Y6261949D01*
X34098771Y6228530D01*
X34157913Y6196814D01*
X34212692Y6167310D01*
X34262171Y6140529D01*
X34305415Y6116981D01*
X34341490Y6097174D01*
X34369460Y6081620D01*
X34388389Y6070828D01*
X34397343Y6065307D01*
X34397950Y6064729D01*
X34392431Y6061269D01*
X34376369Y6052372D01*
X34350504Y6038428D01*
X34315580Y6019826D01*
X34272336Y5996956D01*
X34221514Y5970208D01*
X34163856Y5939971D01*
X34100102Y5906635D01*
X34030995Y5870589D01*
X33957276Y5832223D01*
X33879686Y5791926D01*
X33812162Y5756922D01*
X33731806Y5715283D01*
X33654625Y5675253D01*
X33581368Y5637223D01*
X33512783Y5601582D01*
X33449619Y5568722D01*
X33392623Y5539032D01*
X33342544Y5512901D01*
X33300131Y5490721D01*
X33266131Y5472881D01*
X33241293Y5459771D01*
X33226365Y5451781D01*
X33222036Y5449317D01*
X33226873Y5445788D01*
X33242152Y5436722D01*
X33267100Y5422541D01*
X33300943Y5403669D01*
X33342908Y5380528D01*
X33392222Y5353541D01*
X33448113Y5323131D01*
X33509807Y5289721D01*
X33576531Y5253733D01*
X33647512Y5215591D01*
X33721976Y5175717D01*
X33734731Y5168900D01*
X33809794Y5128764D01*
X33881584Y5090311D01*
X33949319Y5053964D01*
X34012219Y5020146D01*
X34069503Y4989277D01*
X34120389Y4961780D01*
X34164098Y4938078D01*
X34199847Y4918592D01*
X34226857Y4903744D01*
X34244345Y4893957D01*
X34251532Y4889652D01*
X34251674Y4889500D01*
X34246191Y4886041D01*
X34230508Y4877352D01*
X34205719Y4864012D01*
X34172920Y4846599D01*
X34133204Y4825692D01*
X34087666Y4801869D01*
X34037400Y4775708D01*
X33983502Y4747787D01*
X33981867Y4746942D01*
X33927871Y4718952D01*
X33877481Y4692662D01*
X33831791Y4668656D01*
X33791896Y4647517D01*
X33758890Y4629828D01*
X33733868Y4616173D01*
X33717924Y4607134D01*
X33712154Y4603294D01*
X33712150Y4603267D01*
X33717621Y4599706D01*
X33733505Y4590608D01*
X33759004Y4576405D01*
X33793322Y4557530D01*
X33835661Y4534416D01*
X33885224Y4507496D01*
X33941216Y4477203D01*
X34002838Y4443969D01*
X34069294Y4408228D01*
X34139787Y4370412D01*
X34209037Y4333351D01*
X34283234Y4293679D01*
X34354616Y4255495D01*
X34422334Y4219256D01*
X34485539Y4185415D01*
X34543383Y4154427D01*
X34595017Y4126748D01*
X34639594Y4102831D01*
X34676265Y4083132D01*
X34704182Y4068106D01*
X34722496Y4058206D01*
X34730012Y4054087D01*
X34754100Y4040447D01*
X34501412Y3909777D01*
X34449232Y3882678D01*
X34400729Y3857266D01*
X34357028Y3834146D01*
X34319256Y3813925D01*
X34288538Y3797208D01*
X34266000Y3784602D01*
X34252769Y3776714D01*
X34249632Y3774233D01*
X34255249Y3770227D01*
X34270833Y3760972D01*
X34295131Y3747167D01*
X34326889Y3729507D01*
X34364853Y3708691D01*
X34407769Y3685416D01*
X34454287Y3660430D01*
X34500672Y3635480D01*
X34543149Y3612340D01*
X34580501Y3591694D01*
X34611511Y3574230D01*
X34634961Y3560632D01*
X34649633Y3551587D01*
X34654311Y3547780D01*
X34654300Y3547768D01*
X34648190Y3544319D01*
X34631678Y3535508D01*
X34605649Y3521796D01*
X34570988Y3503644D01*
X34528578Y3481512D01*
X34479305Y3455863D01*
X34424053Y3427156D01*
X34363706Y3395854D01*
X34299150Y3362416D01*
X34231268Y3327304D01*
X34229094Y3326179D01*
X34161230Y3291059D01*
X34096754Y3257610D01*
X34036539Y3226289D01*
X33981458Y3197555D01*
X33932387Y3171868D01*
X33890200Y3149686D01*
X33855771Y3131467D01*
X33829973Y3117670D01*
X33813682Y3108753D01*
X33807772Y3105176D01*
X33807764Y3105150D01*
X33813147Y3101535D01*
X33828664Y3092102D01*
X33853440Y3077362D01*
X33886598Y3057829D01*
X33927264Y3034013D01*
X33974561Y3006427D01*
X34027614Y2975582D01*
X34085546Y2941991D01*
X34147483Y2906166D01*
X34198201Y2876891D01*
X34262538Y2839688D01*
X34323435Y2804280D01*
X34380031Y2771179D01*
X34431462Y2740901D01*
X34476866Y2713959D01*
X34515381Y2690866D01*
X34546144Y2672136D01*
X34568294Y2658282D01*
X34580967Y2649818D01*
X34583710Y2647280D01*
X34573220Y2643056D01*
X34551699Y2638830D01*
X34520818Y2634730D01*
X34482244Y2630883D01*
X34437648Y2627418D01*
X34388698Y2624461D01*
X34337064Y2622142D01*
X34284414Y2620588D01*
X34232418Y2619927D01*
X34226500Y2619914D01*
X34117285Y2621570D01*
X34016680Y2627048D01*
X33921064Y2636749D01*
X33826815Y2651080D01*
X33730313Y2670442D01*
X33689925Y2679769D01*
X33528456Y2724407D01*
X33373021Y2779889D01*
X33222648Y2846641D01*
X33076365Y2925089D01*
X32950150Y3004203D01*
X32884168Y3049706D01*
X32824470Y3093892D01*
X32768133Y3139184D01*
X32712236Y3188007D01*
X32653856Y3242786D01*
X32606977Y3288944D01*
X32526065Y3372974D01*
X32454247Y3454434D01*
X32389189Y3536288D01*
X32328552Y3621498D01*
X32270001Y3713029D01*
X32261358Y3727312D01*
X32180021Y3874727D01*
X32110390Y4026365D01*
X32052445Y4181566D01*
X32006170Y4339670D01*
X31971546Y4500015D01*
X31948555Y4661943D01*
X31937180Y4824791D01*
X31937402Y4987899D01*
X31949203Y5150606D01*
X31972566Y5312253D01*
X32007472Y5472178D01*
X32053904Y5629721D01*
X32111843Y5784222D01*
X32181271Y5935019D01*
X32262171Y6081452D01*
X32328250Y6184900D01*
X32428411Y6321634D01*
X32537564Y6449697D01*
X32655135Y6568752D01*
X32780550Y6678463D01*
X32913236Y6778492D01*
X33052617Y6868504D01*
X33198120Y6948160D01*
X33349171Y7017126D01*
X33505196Y7075063D01*
X33665621Y7121635D01*
X33829871Y7156505D01*
X33997373Y7179338D01*
X34028255Y7182180D01*
X34089839Y7185969D01*
X34159790Y7187799D01*
X34159790Y7418596D01*
X34112880Y7418090D01*
X33937501Y7403961D01*
X33762227Y7377409D01*
X33705367Y7366071D01*
X33534290Y7323575D01*
X33368098Y7269660D01*
X33207231Y7204781D01*
X33052126Y7129393D01*
X32903221Y7043951D01*
X32760956Y6948909D01*
X32625767Y6844722D01*
X32498094Y6731845D01*
X32378373Y6610733D01*
X32267045Y6481840D01*
X32164546Y6345622D01*
X32071315Y6202532D01*
X31987790Y6053026D01*
X31914410Y5897558D01*
X31851612Y5736583D01*
X31799835Y5570557D01*
X31759517Y5399933D01*
X31747295Y5334000D01*
X31738560Y5281768D01*
X31731539Y5236011D01*
X31726049Y5194290D01*
X31721908Y5154168D01*
X31718935Y5113209D01*
X31716947Y5068973D01*
X31715763Y5019025D01*
X31715200Y4960927D01*
X31715075Y4902200D01*
X31715233Y4836091D01*
G36*
X33661424Y-10512593D02*
X33661635Y-10557848D01*
X33661965Y-10597288D01*
X33662396Y-10629417D01*
X33662908Y-10652739D01*
X33663484Y-10665757D01*
X33663853Y-10668000D01*
X33671083Y-10665783D01*
X33689305Y-10659352D01*
X33717656Y-10649036D01*
X33755268Y-10635163D01*
X33801276Y-10618063D01*
X33854813Y-10598063D01*
X33915013Y-10575494D01*
X33981011Y-10550683D01*
X34051941Y-10523959D01*
X34126936Y-10495651D01*
X34205130Y-10466089D01*
X34285658Y-10435600D01*
X34367653Y-10404514D01*
X34450249Y-10373159D01*
X34532580Y-10341864D01*
X34613781Y-10310958D01*
X34692985Y-10280770D01*
X34769326Y-10251628D01*
X34841938Y-10223862D01*
X34909955Y-10197799D01*
X34972511Y-10173770D01*
X35028740Y-10152102D01*
X35077776Y-10133124D01*
X35118754Y-10117166D01*
X35150806Y-10104555D01*
X35173067Y-10095622D01*
X35184671Y-10090694D01*
X35185350Y-10090365D01*
X35255592Y-10050408D01*
X35313873Y-10006909D01*
X35360525Y-9959495D01*
X35395885Y-9907795D01*
X35420287Y-9851437D01*
X35428733Y-9820275D01*
X35436282Y-9774446D01*
X35440835Y-9721846D01*
X35442128Y-9668106D01*
X35439895Y-9618857D01*
X35438728Y-9607682D01*
X35427060Y-9541437D01*
X35407339Y-9475194D01*
X35399905Y-9455150D01*
X35388929Y-9428351D01*
X35376952Y-9401759D01*
X35365259Y-9377924D01*
X35355132Y-9359397D01*
X35347852Y-9348728D01*
X35345596Y-9347133D01*
X35337692Y-9349708D01*
X35320609Y-9356903D01*
X35296256Y-9367802D01*
X35266541Y-9381491D01*
X35233372Y-9397057D01*
X35198658Y-9413586D01*
X35164308Y-9430163D01*
X35132231Y-9445875D01*
X35104335Y-9459807D01*
X35082529Y-9471046D01*
X35068722Y-9478676D01*
X35064700Y-9481651D01*
X35067379Y-9490076D01*
X35074274Y-9505744D01*
X35080627Y-9518754D01*
X35101786Y-9570320D01*
X35112770Y-9620546D01*
X35113272Y-9667489D01*
X35108412Y-9693275D01*
X35098737Y-9713960D01*
X35082482Y-9735666D01*
X35063109Y-9754664D01*
X35044081Y-9767229D01*
X35037522Y-9769576D01*
X35028975Y-9767844D01*
X35008654Y-9761354D01*
X34976560Y-9750107D01*
X34932695Y-9734105D01*
X34877059Y-9713347D01*
X34809655Y-9687834D01*
X34730484Y-9657566D01*
X34639545Y-9622545D01*
X34536842Y-9582769D01*
X34422375Y-9538241D01*
X34348196Y-9509300D01*
X34259764Y-9474783D01*
X34174611Y-9441586D01*
X34093487Y-9409997D01*
X34017141Y-9380307D01*
X33946323Y-9352807D01*
X33881783Y-9327785D01*
X33824270Y-9305534D01*
X33774534Y-9286341D01*
X33733323Y-9270499D01*
X33701388Y-9258297D01*
X33679479Y-9250025D01*
X33668344Y-9245973D01*
X33667072Y-9245600D01*
X33665519Y-9251780D01*
X33664272Y-9269652D01*
X33663349Y-9298208D01*
X33662773Y-9336442D01*
X33662563Y-9383349D01*
X33662740Y-9437923D01*
X33662850Y-9453035D01*
X33664525Y-9660470D01*
X34577545Y-9964806D01*
X34254385Y-10068609D01*
X34187488Y-10090086D01*
X34119803Y-10111797D01*
X34053148Y-10133160D01*
X33989337Y-10153593D01*
X33930186Y-10172516D01*
X33877512Y-10189347D01*
X33833129Y-10203506D01*
X33798855Y-10214410D01*
X33796287Y-10215226D01*
X33661350Y-10258039D01*
X33661350Y-10463019D01*
X33661424Y-10512593D01*
X33661424Y-10512593D01*
G37*
X33661424Y-10512593D02*
X33661635Y-10557848D01*
X33661965Y-10597288D01*
X33662396Y-10629417D01*
X33662908Y-10652739D01*
X33663484Y-10665757D01*
X33663853Y-10668000D01*
X33671083Y-10665783D01*
X33689305Y-10659352D01*
X33717656Y-10649036D01*
X33755268Y-10635163D01*
X33801276Y-10618063D01*
X33854813Y-10598063D01*
X33915013Y-10575494D01*
X33981011Y-10550683D01*
X34051941Y-10523959D01*
X34126936Y-10495651D01*
X34205130Y-10466089D01*
X34285658Y-10435600D01*
X34367653Y-10404514D01*
X34450249Y-10373159D01*
X34532580Y-10341864D01*
X34613781Y-10310958D01*
X34692985Y-10280770D01*
X34769326Y-10251628D01*
X34841938Y-10223862D01*
X34909955Y-10197799D01*
X34972511Y-10173770D01*
X35028740Y-10152102D01*
X35077776Y-10133124D01*
X35118754Y-10117166D01*
X35150806Y-10104555D01*
X35173067Y-10095622D01*
X35184671Y-10090694D01*
X35185350Y-10090365D01*
X35255592Y-10050408D01*
X35313873Y-10006909D01*
X35360525Y-9959495D01*
X35395885Y-9907795D01*
X35420287Y-9851437D01*
X35428733Y-9820275D01*
X35436282Y-9774446D01*
X35440835Y-9721846D01*
X35442128Y-9668106D01*
X35439895Y-9618857D01*
X35438728Y-9607682D01*
X35427060Y-9541437D01*
X35407339Y-9475194D01*
X35399905Y-9455150D01*
X35388929Y-9428351D01*
X35376952Y-9401759D01*
X35365259Y-9377924D01*
X35355132Y-9359397D01*
X35347852Y-9348728D01*
X35345596Y-9347133D01*
X35337692Y-9349708D01*
X35320609Y-9356903D01*
X35296256Y-9367802D01*
X35266541Y-9381491D01*
X35233372Y-9397057D01*
X35198658Y-9413586D01*
X35164308Y-9430163D01*
X35132231Y-9445875D01*
X35104335Y-9459807D01*
X35082529Y-9471046D01*
X35068722Y-9478676D01*
X35064700Y-9481651D01*
X35067379Y-9490076D01*
X35074274Y-9505744D01*
X35080627Y-9518754D01*
X35101786Y-9570320D01*
X35112770Y-9620546D01*
X35113272Y-9667489D01*
X35108412Y-9693275D01*
X35098737Y-9713960D01*
X35082482Y-9735666D01*
X35063109Y-9754664D01*
X35044081Y-9767229D01*
X35037522Y-9769576D01*
X35028975Y-9767844D01*
X35008654Y-9761354D01*
X34976560Y-9750107D01*
X34932695Y-9734105D01*
X34877059Y-9713347D01*
X34809655Y-9687834D01*
X34730484Y-9657566D01*
X34639545Y-9622545D01*
X34536842Y-9582769D01*
X34422375Y-9538241D01*
X34348196Y-9509300D01*
X34259764Y-9474783D01*
X34174611Y-9441586D01*
X34093487Y-9409997D01*
X34017141Y-9380307D01*
X33946323Y-9352807D01*
X33881783Y-9327785D01*
X33824270Y-9305534D01*
X33774534Y-9286341D01*
X33733323Y-9270499D01*
X33701388Y-9258297D01*
X33679479Y-9250025D01*
X33668344Y-9245973D01*
X33667072Y-9245600D01*
X33665519Y-9251780D01*
X33664272Y-9269652D01*
X33663349Y-9298208D01*
X33662773Y-9336442D01*
X33662563Y-9383349D01*
X33662740Y-9437923D01*
X33662850Y-9453035D01*
X33664525Y-9660470D01*
X34577545Y-9964806D01*
X34254385Y-10068609D01*
X34187488Y-10090086D01*
X34119803Y-10111797D01*
X34053148Y-10133160D01*
X33989337Y-10153593D01*
X33930186Y-10172516D01*
X33877512Y-10189347D01*
X33833129Y-10203506D01*
X33798855Y-10214410D01*
X33796287Y-10215226D01*
X33661350Y-10258039D01*
X33661350Y-10463019D01*
X33661424Y-10512593D01*
G36*
X33639666Y1190090D02*
X33652343Y1102988D01*
X33673847Y1023245D01*
X33704681Y949539D01*
X33745348Y880545D01*
X33796350Y814941D01*
X33826819Y782038D01*
X33866171Y741750D01*
X33905048Y779228D01*
X33922473Y795879D01*
X33946847Y818968D01*
X33975823Y846283D01*
X34007055Y875610D01*
X34034284Y901085D01*
X34124644Y985463D01*
X34085207Y1028973D01*
X34044642Y1077858D01*
X34014496Y1124355D01*
X33993527Y1171104D01*
X33980492Y1220744D01*
X33975048Y1262970D01*
X33975591Y1327274D01*
X33988049Y1387192D01*
X34012379Y1442606D01*
X34048534Y1493400D01*
X34073582Y1519456D01*
X34125546Y1560769D01*
X34182558Y1591106D01*
X34245470Y1610784D01*
X34315131Y1620118D01*
X34347150Y1621030D01*
X34418974Y1615495D01*
X34485745Y1599107D01*
X34546520Y1572233D01*
X34600355Y1535238D01*
X34623639Y1513806D01*
X34662114Y1468097D01*
X34689798Y1418933D01*
X34707358Y1364578D01*
X34715461Y1303296D01*
X34716200Y1272970D01*
X34711031Y1212146D01*
X34695619Y1154120D01*
X34669316Y1097254D01*
X34631470Y1039910D01*
X34615751Y1019882D01*
X34600111Y1000507D01*
X34587138Y984098D01*
X34579380Y973884D01*
X34578925Y973234D01*
X34578768Y968479D01*
X34583358Y960197D01*
X34593509Y947481D01*
X34610036Y929425D01*
X34633753Y905124D01*
X34665474Y873672D01*
X34689639Y850065D01*
X34806704Y736153D01*
X34844019Y772889D01*
X34892221Y825339D01*
X34936624Y883320D01*
X34975248Y943802D01*
X35006114Y1003751D01*
X35023272Y1047411D01*
X35037541Y1100924D01*
X35048265Y1162848D01*
X35055181Y1229325D01*
X35058027Y1296498D01*
X35056539Y1360508D01*
X35050454Y1417499D01*
X35049061Y1425575D01*
X35026440Y1516619D01*
X34993112Y1603145D01*
X34949832Y1683891D01*
X34897356Y1757597D01*
X34836441Y1823003D01*
X34784625Y1866641D01*
X34707219Y1917389D01*
X34625279Y1957054D01*
X34539944Y1985758D01*
X34452353Y2003625D01*
X34363646Y2010780D01*
X34274964Y2007345D01*
X34187445Y1993444D01*
X34102230Y1969202D01*
X34020457Y1934741D01*
X33943268Y1890186D01*
X33871801Y1835660D01*
X33807197Y1771288D01*
X33797033Y1759439D01*
X33742721Y1685647D01*
X33699700Y1607120D01*
X33667781Y1523303D01*
X33646773Y1433641D01*
X33636489Y1337581D01*
X33635312Y1285875D01*
X33639666Y1190090D01*
X33639666Y1190090D01*
G37*
X33639666Y1190090D02*
X33652343Y1102988D01*
X33673847Y1023245D01*
X33704681Y949539D01*
X33745348Y880545D01*
X33796350Y814941D01*
X33826819Y782038D01*
X33866171Y741750D01*
X33905048Y779228D01*
X33922473Y795879D01*
X33946847Y818968D01*
X33975823Y846283D01*
X34007055Y875610D01*
X34034284Y901085D01*
X34124644Y985463D01*
X34085207Y1028973D01*
X34044642Y1077858D01*
X34014496Y1124355D01*
X33993527Y1171104D01*
X33980492Y1220744D01*
X33975048Y1262970D01*
X33975591Y1327274D01*
X33988049Y1387192D01*
X34012379Y1442606D01*
X34048534Y1493400D01*
X34073582Y1519456D01*
X34125546Y1560769D01*
X34182558Y1591106D01*
X34245470Y1610784D01*
X34315131Y1620118D01*
X34347150Y1621030D01*
X34418974Y1615495D01*
X34485745Y1599107D01*
X34546520Y1572233D01*
X34600355Y1535238D01*
X34623639Y1513806D01*
X34662114Y1468097D01*
X34689798Y1418933D01*
X34707358Y1364578D01*
X34715461Y1303296D01*
X34716200Y1272970D01*
X34711031Y1212146D01*
X34695619Y1154120D01*
X34669316Y1097254D01*
X34631470Y1039910D01*
X34615751Y1019882D01*
X34600111Y1000507D01*
X34587138Y984098D01*
X34579380Y973884D01*
X34578925Y973234D01*
X34578768Y968479D01*
X34583358Y960197D01*
X34593509Y947481D01*
X34610036Y929425D01*
X34633753Y905124D01*
X34665474Y873672D01*
X34689639Y850065D01*
X34806704Y736153D01*
X34844019Y772889D01*
X34892221Y825339D01*
X34936624Y883320D01*
X34975248Y943802D01*
X35006114Y1003751D01*
X35023272Y1047411D01*
X35037541Y1100924D01*
X35048265Y1162848D01*
X35055181Y1229325D01*
X35058027Y1296498D01*
X35056539Y1360508D01*
X35050454Y1417499D01*
X35049061Y1425575D01*
X35026440Y1516619D01*
X34993112Y1603145D01*
X34949832Y1683891D01*
X34897356Y1757597D01*
X34836441Y1823003D01*
X34784625Y1866641D01*
X34707219Y1917389D01*
X34625279Y1957054D01*
X34539944Y1985758D01*
X34452353Y2003625D01*
X34363646Y2010780D01*
X34274964Y2007345D01*
X34187445Y1993444D01*
X34102230Y1969202D01*
X34020457Y1934741D01*
X33943268Y1890186D01*
X33871801Y1835660D01*
X33807197Y1771288D01*
X33797033Y1759439D01*
X33742721Y1685647D01*
X33699700Y1607120D01*
X33667781Y1523303D01*
X33646773Y1433641D01*
X33636489Y1337581D01*
X33635312Y1285875D01*
X33639666Y1190090D01*
G36*
X33636550Y-117077D02*
X33640525Y-166790D01*
X33645523Y-201242D01*
X33669297Y-296782D01*
X33703352Y-386057D01*
X33747137Y-468409D01*
X33800099Y-543181D01*
X33861686Y-609712D01*
X33931346Y-667346D01*
X34008526Y-715423D01*
X34092674Y-753286D01*
X34115375Y-761292D01*
X34201117Y-783679D01*
X34290006Y-795226D01*
X34380003Y-796074D01*
X34469068Y-786363D01*
X34555163Y-766233D01*
X34636249Y-735823D01*
X34661050Y-723819D01*
X34744082Y-674340D01*
X34818252Y-615851D01*
X34883296Y-548686D01*
X34938951Y-473180D01*
X34984953Y-389669D01*
X35021038Y-298489D01*
X35036202Y-246592D01*
X35043093Y-217991D01*
X35048040Y-191714D01*
X35051435Y-164297D01*
X35053671Y-132279D01*
X35055141Y-92197D01*
X35055534Y-76200D01*
X35055999Y-18211D01*
X35054456Y29000D01*
X35050828Y67211D01*
X35048791Y80286D01*
X35026046Y175629D01*
X34992850Y264757D01*
X34949852Y347048D01*
X34897704Y421882D01*
X34837058Y488639D01*
X34768563Y546696D01*
X34692871Y595435D01*
X34610634Y634234D01*
X34522500Y662473D01*
X34429123Y679530D01*
X34419172Y680634D01*
X34352864Y683054D01*
X34352864Y294170D01*
X34418630Y287283D01*
X34481623Y270328D01*
X34540033Y243523D01*
X34592045Y207087D01*
X34601582Y198606D01*
X34638868Y160414D01*
X34667189Y122217D01*
X34689553Y79786D01*
X34694670Y67767D01*
X34708297Y21755D01*
X34715383Y-30818D01*
X34715877Y-85600D01*
X34709730Y-138236D01*
X34697570Y-182606D01*
X34668755Y-242192D01*
X34631069Y-293204D01*
X34585085Y-334993D01*
X34536475Y-364478D01*
X34488387Y-385172D01*
X34442600Y-398275D01*
X34394017Y-404937D01*
X34350325Y-406400D01*
X34278150Y-401301D01*
X34213041Y-385847D01*
X34154389Y-359801D01*
X34101586Y-322926D01*
X34076954Y-300119D01*
X34034245Y-248453D01*
X34002769Y-191734D01*
X33982693Y-131147D01*
X33974186Y-67874D01*
X33977417Y-3099D01*
X33992553Y61995D01*
X34017042Y120956D01*
X34034852Y148102D01*
X34060857Y177765D01*
X34091825Y206917D01*
X34124527Y232529D01*
X34155731Y251572D01*
X34157060Y252231D01*
X34220266Y276863D01*
X34286139Y290769D01*
X34352864Y294170D01*
X34352864Y683054D01*
X34328743Y683935D01*
X34238020Y675473D01*
X34148947Y655731D01*
X34063470Y625191D01*
X33983532Y584336D01*
X33953161Y564955D01*
X33918058Y538438D01*
X33879427Y504834D01*
X33840849Y467579D01*
X33805908Y430109D01*
X33781532Y400375D01*
X33739684Y336711D01*
X33702770Y264393D01*
X33672336Y187008D01*
X33649928Y108143D01*
X33644638Y82824D01*
X33638992Y41070D01*
X33635771Y-8958D01*
X33634961Y-63070D01*
X33636550Y-117077D01*
X33636550Y-117077D01*
G37*
X33636550Y-117077D02*
X33640525Y-166790D01*
X33645523Y-201242D01*
X33669297Y-296782D01*
X33703352Y-386057D01*
X33747137Y-468409D01*
X33800099Y-543181D01*
X33861686Y-609712D01*
X33931346Y-667346D01*
X34008526Y-715423D01*
X34092674Y-753286D01*
X34115375Y-761292D01*
X34201117Y-783679D01*
X34290006Y-795226D01*
X34380003Y-796074D01*
X34469068Y-786363D01*
X34555163Y-766233D01*
X34636249Y-735823D01*
X34661050Y-723819D01*
X34744082Y-674340D01*
X34818252Y-615851D01*
X34883296Y-548686D01*
X34938951Y-473180D01*
X34984953Y-389669D01*
X35021038Y-298489D01*
X35036202Y-246592D01*
X35043093Y-217991D01*
X35048040Y-191714D01*
X35051435Y-164297D01*
X35053671Y-132279D01*
X35055141Y-92197D01*
X35055534Y-76200D01*
X35055999Y-18211D01*
X35054456Y29000D01*
X35050828Y67211D01*
X35048791Y80286D01*
X35026046Y175629D01*
X34992850Y264757D01*
X34949852Y347048D01*
X34897704Y421882D01*
X34837058Y488639D01*
X34768563Y546696D01*
X34692871Y595435D01*
X34610634Y634234D01*
X34522500Y662473D01*
X34429123Y679530D01*
X34419172Y680634D01*
X34352864Y683054D01*
X34352864Y294170D01*
X34418630Y287283D01*
X34481623Y270328D01*
X34540033Y243523D01*
X34592045Y207087D01*
X34601582Y198606D01*
X34638868Y160414D01*
X34667189Y122217D01*
X34689553Y79786D01*
X34694670Y67767D01*
X34708297Y21755D01*
X34715383Y-30818D01*
X34715877Y-85600D01*
X34709730Y-138236D01*
X34697570Y-182606D01*
X34668755Y-242192D01*
X34631069Y-293204D01*
X34585085Y-334993D01*
X34536475Y-364478D01*
X34488387Y-385172D01*
X34442600Y-398275D01*
X34394017Y-404937D01*
X34350325Y-406400D01*
X34278150Y-401301D01*
X34213041Y-385847D01*
X34154389Y-359801D01*
X34101586Y-322926D01*
X34076954Y-300119D01*
X34034245Y-248453D01*
X34002769Y-191734D01*
X33982693Y-131147D01*
X33974186Y-67874D01*
X33977417Y-3099D01*
X33992553Y61995D01*
X34017042Y120956D01*
X34034852Y148102D01*
X34060857Y177765D01*
X34091825Y206917D01*
X34124527Y232529D01*
X34155731Y251572D01*
X34157060Y252231D01*
X34220266Y276863D01*
X34286139Y290769D01*
X34352864Y294170D01*
X34352864Y683054D01*
X34328743Y683935D01*
X34238020Y675473D01*
X34148947Y655731D01*
X34063470Y625191D01*
X33983532Y584336D01*
X33953161Y564955D01*
X33918058Y538438D01*
X33879427Y504834D01*
X33840849Y467579D01*
X33805908Y430109D01*
X33781532Y400375D01*
X33739684Y336711D01*
X33702770Y264393D01*
X33672336Y187008D01*
X33649928Y108143D01*
X33644638Y82824D01*
X33638992Y41070D01*
X33635771Y-8958D01*
X33634961Y-63070D01*
X33636550Y-117077D01*
G36*
X33637952Y-4361701D02*
X33641679Y-4413096D01*
X33647416Y-4458814D01*
X33654342Y-4492625D01*
X33682726Y-4575920D01*
X33721625Y-4652387D01*
X33770628Y-4721662D01*
X33829322Y-4783386D01*
X33897292Y-4837196D01*
X33974126Y-4882731D01*
X34059411Y-4919631D01*
X34152734Y-4947532D01*
X34181824Y-4954009D01*
X34206138Y-4957978D01*
X34237949Y-4961657D01*
X34274837Y-4964927D01*
X34314379Y-4967666D01*
X34354153Y-4969754D01*
X34391738Y-4971069D01*
X34424711Y-4971492D01*
X34450651Y-4970900D01*
X34467135Y-4969174D01*
X34469965Y-4968383D01*
X34471951Y-4966867D01*
X34473673Y-4963386D01*
X34475148Y-4957091D01*
X34476396Y-4947137D01*
X34477435Y-4932675D01*
X34478285Y-4912859D01*
X34478964Y-4886842D01*
X34479490Y-4853775D01*
X34479883Y-4812814D01*
X34480161Y-4763109D01*
X34480342Y-4703814D01*
X34480447Y-4634082D01*
X34480492Y-4553066D01*
X34480500Y-4491945D01*
X34480520Y-4415745D01*
X34480580Y-4343354D01*
X34480677Y-4275757D01*
X34480806Y-4213942D01*
X34480964Y-4158892D01*
X34481148Y-4111593D01*
X34481356Y-4073031D01*
X34481583Y-4044192D01*
X34481826Y-4026060D01*
X34482081Y-4019621D01*
X34482087Y-4019618D01*
X34494977Y-4022476D01*
X34515526Y-4029398D01*
X34539960Y-4038922D01*
X34564502Y-4049584D01*
X34583642Y-4058984D01*
X34633169Y-4092242D01*
X34673657Y-4134102D01*
X34704807Y-4183954D01*
X34726323Y-4241186D01*
X34737907Y-4305189D01*
X34739261Y-4375353D01*
X34739112Y-4378056D01*
X34729685Y-4447371D01*
X34709327Y-4513092D01*
X34677469Y-4576601D01*
X34633543Y-4639282D01*
X34629601Y-4644165D01*
X34600443Y-4679960D01*
X34697634Y-4790628D01*
X34725543Y-4822106D01*
X34750906Y-4850141D01*
X34772464Y-4873386D01*
X34788955Y-4890496D01*
X34799121Y-4900123D01*
X34801613Y-4901748D01*
X34809428Y-4897453D01*
X34823584Y-4885295D01*
X34842297Y-4867172D01*
X34863783Y-4844980D01*
X34886257Y-4820618D01*
X34907935Y-4795982D01*
X34927033Y-4772971D01*
X34941767Y-4753481D01*
X34943777Y-4750554D01*
X34987663Y-4674164D01*
X35021551Y-4590573D01*
X35045011Y-4500932D01*
X35051778Y-4460875D01*
X35055381Y-4423449D01*
X35057165Y-4377804D01*
X35057187Y-4328280D01*
X35055504Y-4279219D01*
X35052172Y-4234962D01*
X35048450Y-4206475D01*
X35027012Y-4113425D01*
X34995036Y-4027310D01*
X34952264Y-3947609D01*
X34898438Y-3873801D01*
X34865964Y-3837546D01*
X34797845Y-3775346D01*
X34722688Y-3723668D01*
X34640801Y-3682675D01*
X34552491Y-3652528D01*
X34486850Y-3637935D01*
X34448935Y-3633210D01*
X34402580Y-3630460D01*
X34351728Y-3629649D01*
X34300323Y-3630743D01*
X34252306Y-3633706D01*
X34232850Y-3636000D01*
X34232850Y-4014388D01*
X34232850Y-4299544D01*
X34232825Y-4367241D01*
X34232723Y-4423324D01*
X34232500Y-4468880D01*
X34232116Y-4504992D01*
X34231527Y-4532749D01*
X34230691Y-4553235D01*
X34229566Y-4567536D01*
X34228109Y-4576738D01*
X34226278Y-4581928D01*
X34224032Y-4584191D01*
X34221737Y-4584624D01*
X34203214Y-4582094D01*
X34177326Y-4575526D01*
X34148251Y-4566179D01*
X34120167Y-4555311D01*
X34111175Y-4551302D01*
X34059005Y-4521395D01*
X34017490Y-4484990D01*
X33985996Y-4441409D01*
X33965611Y-4395239D01*
X33959007Y-4372984D01*
X33955226Y-4351784D01*
X33953803Y-4327269D01*
X33954276Y-4295067D01*
X33954452Y-4290097D01*
X33956044Y-4258513D01*
X33958666Y-4235404D01*
X33963225Y-4216542D01*
X33970628Y-4197704D01*
X33977273Y-4183714D01*
X34007068Y-4137337D01*
X34047499Y-4096765D01*
X34097585Y-4062675D01*
X34156342Y-4035743D01*
X34218562Y-4017566D01*
X34232850Y-4014388D01*
X34232850Y-3636000D01*
X34211622Y-3638504D01*
X34200502Y-3640479D01*
X34106447Y-3664939D01*
X34019063Y-3699437D01*
X33938952Y-3743396D01*
X33866716Y-3796240D01*
X33802958Y-3857395D01*
X33748280Y-3926284D01*
X33703283Y-4002333D01*
X33668569Y-4084966D01*
X33645193Y-4171350D01*
X33639856Y-4209456D01*
X33636938Y-4256282D01*
X33636337Y-4308230D01*
X33637952Y-4361701D01*
X33637952Y-4361701D01*
G37*
X33637952Y-4361701D02*
X33641679Y-4413096D01*
X33647416Y-4458814D01*
X33654342Y-4492625D01*
X33682726Y-4575920D01*
X33721625Y-4652387D01*
X33770628Y-4721662D01*
X33829322Y-4783386D01*
X33897292Y-4837196D01*
X33974126Y-4882731D01*
X34059411Y-4919631D01*
X34152734Y-4947532D01*
X34181824Y-4954009D01*
X34206138Y-4957978D01*
X34237949Y-4961657D01*
X34274837Y-4964927D01*
X34314379Y-4967666D01*
X34354153Y-4969754D01*
X34391738Y-4971069D01*
X34424711Y-4971492D01*
X34450651Y-4970900D01*
X34467135Y-4969174D01*
X34469965Y-4968383D01*
X34471951Y-4966867D01*
X34473673Y-4963386D01*
X34475148Y-4957091D01*
X34476396Y-4947137D01*
X34477435Y-4932675D01*
X34478285Y-4912859D01*
X34478964Y-4886842D01*
X34479490Y-4853775D01*
X34479883Y-4812814D01*
X34480161Y-4763109D01*
X34480342Y-4703814D01*
X34480447Y-4634082D01*
X34480492Y-4553066D01*
X34480500Y-4491945D01*
X34480520Y-4415745D01*
X34480580Y-4343354D01*
X34480677Y-4275757D01*
X34480806Y-4213942D01*
X34480964Y-4158892D01*
X34481148Y-4111593D01*
X34481356Y-4073031D01*
X34481583Y-4044192D01*
X34481826Y-4026060D01*
X34482081Y-4019621D01*
X34482087Y-4019618D01*
X34494977Y-4022476D01*
X34515526Y-4029398D01*
X34539960Y-4038922D01*
X34564502Y-4049584D01*
X34583642Y-4058984D01*
X34633169Y-4092242D01*
X34673657Y-4134102D01*
X34704807Y-4183954D01*
X34726323Y-4241186D01*
X34737907Y-4305189D01*
X34739261Y-4375353D01*
X34739112Y-4378056D01*
X34729685Y-4447371D01*
X34709327Y-4513092D01*
X34677469Y-4576601D01*
X34633543Y-4639282D01*
X34629601Y-4644165D01*
X34600443Y-4679960D01*
X34697634Y-4790628D01*
X34725543Y-4822106D01*
X34750906Y-4850141D01*
X34772464Y-4873386D01*
X34788955Y-4890496D01*
X34799121Y-4900123D01*
X34801613Y-4901748D01*
X34809428Y-4897453D01*
X34823584Y-4885295D01*
X34842297Y-4867172D01*
X34863783Y-4844980D01*
X34886257Y-4820618D01*
X34907935Y-4795982D01*
X34927033Y-4772971D01*
X34941767Y-4753481D01*
X34943777Y-4750554D01*
X34987663Y-4674164D01*
X35021551Y-4590573D01*
X35045011Y-4500932D01*
X35051778Y-4460875D01*
X35055381Y-4423449D01*
X35057165Y-4377804D01*
X35057187Y-4328280D01*
X35055504Y-4279219D01*
X35052172Y-4234962D01*
X35048450Y-4206475D01*
X35027012Y-4113425D01*
X34995036Y-4027310D01*
X34952264Y-3947609D01*
X34898438Y-3873801D01*
X34865964Y-3837546D01*
X34797845Y-3775346D01*
X34722688Y-3723668D01*
X34640801Y-3682675D01*
X34552491Y-3652528D01*
X34486850Y-3637935D01*
X34448935Y-3633210D01*
X34402580Y-3630460D01*
X34351728Y-3629649D01*
X34300323Y-3630743D01*
X34252306Y-3633706D01*
X34232850Y-3636000D01*
X34232850Y-4014388D01*
X34232850Y-4299544D01*
X34232825Y-4367241D01*
X34232723Y-4423324D01*
X34232500Y-4468880D01*
X34232116Y-4504992D01*
X34231527Y-4532749D01*
X34230691Y-4553235D01*
X34229566Y-4567536D01*
X34228109Y-4576738D01*
X34226278Y-4581928D01*
X34224032Y-4584191D01*
X34221737Y-4584624D01*
X34203214Y-4582094D01*
X34177326Y-4575526D01*
X34148251Y-4566179D01*
X34120167Y-4555311D01*
X34111175Y-4551302D01*
X34059005Y-4521395D01*
X34017490Y-4484990D01*
X33985996Y-4441409D01*
X33965611Y-4395239D01*
X33959007Y-4372984D01*
X33955226Y-4351784D01*
X33953803Y-4327269D01*
X33954276Y-4295067D01*
X33954452Y-4290097D01*
X33956044Y-4258513D01*
X33958666Y-4235404D01*
X33963225Y-4216542D01*
X33970628Y-4197704D01*
X33977273Y-4183714D01*
X34007068Y-4137337D01*
X34047499Y-4096765D01*
X34097585Y-4062675D01*
X34156342Y-4035743D01*
X34218562Y-4017566D01*
X34232850Y-4014388D01*
X34232850Y-3636000D01*
X34211622Y-3638504D01*
X34200502Y-3640479D01*
X34106447Y-3664939D01*
X34019063Y-3699437D01*
X33938952Y-3743396D01*
X33866716Y-3796240D01*
X33802958Y-3857395D01*
X33748280Y-3926284D01*
X33703283Y-4002333D01*
X33668569Y-4084966D01*
X33645193Y-4171350D01*
X33639856Y-4209456D01*
X33636938Y-4256282D01*
X33636337Y-4308230D01*
X33637952Y-4361701D01*
G36*
X33639792Y-3014067D02*
X33649403Y-3102008D01*
X33668638Y-3192859D01*
X33697682Y-3285842D01*
X33698943Y-3289300D01*
X33709634Y-3316025D01*
X33723265Y-3346521D01*
X33738601Y-3378413D01*
X33754409Y-3409323D01*
X33769457Y-3436879D01*
X33782511Y-3458704D01*
X33792337Y-3472423D01*
X33795604Y-3475469D01*
X33803471Y-3474905D01*
X33820245Y-3468565D01*
X33846388Y-3456230D01*
X33882359Y-3437681D01*
X33928620Y-3412700D01*
X33934487Y-3409478D01*
X33971397Y-3389154D01*
X34004466Y-3370894D01*
X34032112Y-3355576D01*
X34052748Y-3344080D01*
X34064791Y-3337285D01*
X34067237Y-3335828D01*
X34065567Y-3329689D01*
X34059206Y-3314155D01*
X34049038Y-3291243D01*
X34035945Y-3262968D01*
X34028084Y-3246420D01*
X34011656Y-3211051D01*
X33995790Y-3174990D01*
X33982058Y-3141930D01*
X33972027Y-3115565D01*
X33970203Y-3110214D01*
X33954567Y-3053280D01*
X33945987Y-3000349D01*
X33944231Y-2952474D01*
X33949065Y-2910708D01*
X33960256Y-2876107D01*
X33977570Y-2849722D01*
X34000775Y-2832609D01*
X34029636Y-2825821D01*
X34033194Y-2825750D01*
X34058667Y-2829412D01*
X34079226Y-2841569D01*
X34096633Y-2861359D01*
X34115800Y-2892981D01*
X34136803Y-2936597D01*
X34159721Y-2992373D01*
X34184629Y-3060471D01*
X34191281Y-3079750D01*
X34218652Y-3156410D01*
X34244669Y-3221774D01*
X34269920Y-3277093D01*
X34294993Y-3323621D01*
X34320477Y-3362611D01*
X34330041Y-3375268D01*
X34374161Y-3424084D01*
X34421264Y-3461361D01*
X34472861Y-3487818D01*
X34530462Y-3504170D01*
X34595578Y-3511138D01*
X34616771Y-3511505D01*
X34693589Y-3506032D01*
X34763666Y-3489865D01*
X34826778Y-3463208D01*
X34882698Y-3426271D01*
X34931199Y-3379260D01*
X34972057Y-3322381D01*
X35005044Y-3255843D01*
X35029934Y-3179852D01*
X35042311Y-3121780D01*
X35045986Y-3092271D01*
X35048747Y-3054105D01*
X35050508Y-3011162D01*
X35051185Y-2967326D01*
X35050692Y-2926479D01*
X35048944Y-2892502D01*
X35047627Y-2879725D01*
X35034297Y-2804371D01*
X35013975Y-2725493D01*
X34988248Y-2648483D01*
X34959591Y-2580588D01*
X34947030Y-2556028D01*
X34931138Y-2527541D01*
X34913356Y-2497424D01*
X34895126Y-2467976D01*
X34877889Y-2441496D01*
X34863087Y-2420282D01*
X34852162Y-2406633D01*
X34848317Y-2403177D01*
X34841857Y-2405583D01*
X34826624Y-2413853D01*
X34804437Y-2426838D01*
X34777112Y-2443388D01*
X34746467Y-2462354D01*
X34714317Y-2482588D01*
X34682481Y-2502941D01*
X34652774Y-2522262D01*
X34627014Y-2539404D01*
X34607017Y-2553218D01*
X34594601Y-2562554D01*
X34591511Y-2565584D01*
X34593499Y-2572574D01*
X34601173Y-2587900D01*
X34613291Y-2609254D01*
X34627585Y-2632694D01*
X34669992Y-2707684D01*
X34704591Y-2784554D01*
X34729647Y-2859452D01*
X34729694Y-2859626D01*
X34736353Y-2887634D01*
X34740647Y-2915445D01*
X34743006Y-2947129D01*
X34743860Y-2986758D01*
X34743885Y-2994025D01*
X34743729Y-3028946D01*
X34742877Y-3053990D01*
X34740959Y-3071978D01*
X34737605Y-3085728D01*
X34732445Y-3098060D01*
X34729481Y-3103811D01*
X34708225Y-3132129D01*
X34680877Y-3149715D01*
X34648452Y-3155922D01*
X34647674Y-3155926D01*
X34624892Y-3152533D01*
X34604502Y-3141649D01*
X34585774Y-3122278D01*
X34567982Y-3093424D01*
X34550399Y-3054094D01*
X34532296Y-3003292D01*
X34529301Y-2994025D01*
X34509805Y-2933116D01*
X34493652Y-2882946D01*
X34480369Y-2842139D01*
X34469484Y-2809321D01*
X34460526Y-2783118D01*
X34453021Y-2762153D01*
X34446499Y-2745052D01*
X34440486Y-2730440D01*
X34434511Y-2716942D01*
X34433092Y-2713850D01*
X34395304Y-2644722D01*
X34350652Y-2586270D01*
X34322222Y-2557814D01*
X34277395Y-2522594D01*
X34230532Y-2497094D01*
X34179260Y-2480477D01*
X34121207Y-2471905D01*
X34074353Y-2470243D01*
X34011715Y-2473314D01*
X33957156Y-2482781D01*
X33907419Y-2499312D01*
X33886838Y-2508692D01*
X33826211Y-2545335D01*
X33773709Y-2591114D01*
X33729518Y-2645251D01*
X33693826Y-2706968D01*
X33666820Y-2775486D01*
X33648687Y-2850027D01*
X33639615Y-2929814D01*
X33639792Y-3014067D01*
X33639792Y-3014067D01*
G37*
X33639792Y-3014067D02*
X33649403Y-3102008D01*
X33668638Y-3192859D01*
X33697682Y-3285842D01*
X33698943Y-3289300D01*
X33709634Y-3316025D01*
X33723265Y-3346521D01*
X33738601Y-3378413D01*
X33754409Y-3409323D01*
X33769457Y-3436879D01*
X33782511Y-3458704D01*
X33792337Y-3472423D01*
X33795604Y-3475469D01*
X33803471Y-3474905D01*
X33820245Y-3468565D01*
X33846388Y-3456230D01*
X33882359Y-3437681D01*
X33928620Y-3412700D01*
X33934487Y-3409478D01*
X33971397Y-3389154D01*
X34004466Y-3370894D01*
X34032112Y-3355576D01*
X34052748Y-3344080D01*
X34064791Y-3337285D01*
X34067237Y-3335828D01*
X34065567Y-3329689D01*
X34059206Y-3314155D01*
X34049038Y-3291243D01*
X34035945Y-3262968D01*
X34028084Y-3246420D01*
X34011656Y-3211051D01*
X33995790Y-3174990D01*
X33982058Y-3141930D01*
X33972027Y-3115565D01*
X33970203Y-3110214D01*
X33954567Y-3053280D01*
X33945987Y-3000349D01*
X33944231Y-2952474D01*
X33949065Y-2910708D01*
X33960256Y-2876107D01*
X33977570Y-2849722D01*
X34000775Y-2832609D01*
X34029636Y-2825821D01*
X34033194Y-2825750D01*
X34058667Y-2829412D01*
X34079226Y-2841569D01*
X34096633Y-2861359D01*
X34115800Y-2892981D01*
X34136803Y-2936597D01*
X34159721Y-2992373D01*
X34184629Y-3060471D01*
X34191281Y-3079750D01*
X34218652Y-3156410D01*
X34244669Y-3221774D01*
X34269920Y-3277093D01*
X34294993Y-3323621D01*
X34320477Y-3362611D01*
X34330041Y-3375268D01*
X34374161Y-3424084D01*
X34421264Y-3461361D01*
X34472861Y-3487818D01*
X34530462Y-3504170D01*
X34595578Y-3511138D01*
X34616771Y-3511505D01*
X34693589Y-3506032D01*
X34763666Y-3489865D01*
X34826778Y-3463208D01*
X34882698Y-3426271D01*
X34931199Y-3379260D01*
X34972057Y-3322381D01*
X35005044Y-3255843D01*
X35029934Y-3179852D01*
X35042311Y-3121780D01*
X35045986Y-3092271D01*
X35048747Y-3054105D01*
X35050508Y-3011162D01*
X35051185Y-2967326D01*
X35050692Y-2926479D01*
X35048944Y-2892502D01*
X35047627Y-2879725D01*
X35034297Y-2804371D01*
X35013975Y-2725493D01*
X34988248Y-2648483D01*
X34959591Y-2580588D01*
X34947030Y-2556028D01*
X34931138Y-2527541D01*
X34913356Y-2497424D01*
X34895126Y-2467976D01*
X34877889Y-2441496D01*
X34863087Y-2420282D01*
X34852162Y-2406633D01*
X34848317Y-2403177D01*
X34841857Y-2405583D01*
X34826624Y-2413853D01*
X34804437Y-2426838D01*
X34777112Y-2443388D01*
X34746467Y-2462354D01*
X34714317Y-2482588D01*
X34682481Y-2502941D01*
X34652774Y-2522262D01*
X34627014Y-2539404D01*
X34607017Y-2553218D01*
X34594601Y-2562554D01*
X34591511Y-2565584D01*
X34593499Y-2572574D01*
X34601173Y-2587900D01*
X34613291Y-2609254D01*
X34627585Y-2632694D01*
X34669992Y-2707684D01*
X34704591Y-2784554D01*
X34729647Y-2859452D01*
X34729694Y-2859626D01*
X34736353Y-2887634D01*
X34740647Y-2915445D01*
X34743006Y-2947129D01*
X34743860Y-2986758D01*
X34743885Y-2994025D01*
X34743729Y-3028946D01*
X34742877Y-3053990D01*
X34740959Y-3071978D01*
X34737605Y-3085728D01*
X34732445Y-3098060D01*
X34729481Y-3103811D01*
X34708225Y-3132129D01*
X34680877Y-3149715D01*
X34648452Y-3155922D01*
X34647674Y-3155926D01*
X34624892Y-3152533D01*
X34604502Y-3141649D01*
X34585774Y-3122278D01*
X34567982Y-3093424D01*
X34550399Y-3054094D01*
X34532296Y-3003292D01*
X34529301Y-2994025D01*
X34509805Y-2933116D01*
X34493652Y-2882946D01*
X34480369Y-2842139D01*
X34469484Y-2809321D01*
X34460526Y-2783118D01*
X34453021Y-2762153D01*
X34446499Y-2745052D01*
X34440486Y-2730440D01*
X34434511Y-2716942D01*
X34433092Y-2713850D01*
X34395304Y-2644722D01*
X34350652Y-2586270D01*
X34322222Y-2557814D01*
X34277395Y-2522594D01*
X34230532Y-2497094D01*
X34179260Y-2480477D01*
X34121207Y-2471905D01*
X34074353Y-2470243D01*
X34011715Y-2473314D01*
X33957156Y-2482781D01*
X33907419Y-2499312D01*
X33886838Y-2508692D01*
X33826211Y-2545335D01*
X33773709Y-2591114D01*
X33729518Y-2645251D01*
X33693826Y-2706968D01*
X33666820Y-2775486D01*
X33648687Y-2850027D01*
X33639615Y-2929814D01*
X33639792Y-3014067D01*
G36*
X33697862Y-7523068D02*
X33708615Y-7518909D01*
X33730384Y-7510444D01*
X33762357Y-7497990D01*
X33803722Y-7481863D01*
X33853666Y-7462382D01*
X33911378Y-7439862D01*
X33976045Y-7414621D01*
X34046854Y-7386976D01*
X34122994Y-7357244D01*
X34203652Y-7325742D01*
X34288016Y-7292787D01*
X34375273Y-7258696D01*
X34385250Y-7254797D01*
X35036125Y-7000476D01*
X35037811Y-6821126D01*
X35038258Y-6768563D01*
X35038446Y-6727297D01*
X35038302Y-6695928D01*
X35037754Y-6673055D01*
X35036729Y-6657275D01*
X35035154Y-6647189D01*
X35032957Y-6641396D01*
X35030064Y-6638493D01*
X35028286Y-6637670D01*
X35021001Y-6634861D01*
X35002647Y-6627728D01*
X34973981Y-6616567D01*
X34935764Y-6601675D01*
X34888756Y-6583347D01*
X34833715Y-6561880D01*
X34771402Y-6537571D01*
X34702576Y-6510715D01*
X34627995Y-6481609D01*
X34548421Y-6450549D01*
X34464613Y-6417831D01*
X34377329Y-6383752D01*
X34345008Y-6371132D01*
X34256786Y-6336702D01*
X34171844Y-6303591D01*
X34090935Y-6272091D01*
X34014809Y-6242491D01*
X33944219Y-6215082D01*
X33879915Y-6190157D01*
X33822648Y-6168004D01*
X33773170Y-6148916D01*
X33732233Y-6133183D01*
X33700587Y-6121095D01*
X33678984Y-6112945D01*
X33668175Y-6109021D01*
X33667059Y-6108700D01*
X33665516Y-6114877D01*
X33664274Y-6132729D01*
X33663354Y-6161230D01*
X33662778Y-6199357D01*
X33662565Y-6246086D01*
X33662736Y-6300395D01*
X33662850Y-6316135D01*
X33664525Y-6523570D01*
X34111515Y-6672565D01*
X34192651Y-6699710D01*
X34267147Y-6724834D01*
X34334364Y-6747714D01*
X34393661Y-6768124D01*
X34444400Y-6785841D01*
X34485941Y-6800640D01*
X34517645Y-6812297D01*
X34538872Y-6820588D01*
X34548984Y-6825288D01*
X34549665Y-6826226D01*
X34542333Y-6828966D01*
X34523929Y-6835414D01*
X34495420Y-6845239D01*
X34457776Y-6858114D01*
X34411965Y-6873708D01*
X34358955Y-6891693D01*
X34299716Y-6911739D01*
X34235216Y-6933517D01*
X34166423Y-6956698D01*
X34101087Y-6978675D01*
X33661350Y-7126458D01*
X33661350Y-7537017D01*
X33697862Y-7523068D01*
X33697862Y-7523068D01*
G37*
X33697862Y-7523068D02*
X33708615Y-7518909D01*
X33730384Y-7510444D01*
X33762357Y-7497990D01*
X33803722Y-7481863D01*
X33853666Y-7462382D01*
X33911378Y-7439862D01*
X33976045Y-7414621D01*
X34046854Y-7386976D01*
X34122994Y-7357244D01*
X34203652Y-7325742D01*
X34288016Y-7292787D01*
X34375273Y-7258696D01*
X34385250Y-7254797D01*
X35036125Y-7000476D01*
X35037811Y-6821126D01*
X35038258Y-6768563D01*
X35038446Y-6727297D01*
X35038302Y-6695928D01*
X35037754Y-6673055D01*
X35036729Y-6657275D01*
X35035154Y-6647189D01*
X35032957Y-6641396D01*
X35030064Y-6638493D01*
X35028286Y-6637670D01*
X35021001Y-6634861D01*
X35002647Y-6627728D01*
X34973981Y-6616567D01*
X34935764Y-6601675D01*
X34888756Y-6583347D01*
X34833715Y-6561880D01*
X34771402Y-6537571D01*
X34702576Y-6510715D01*
X34627995Y-6481609D01*
X34548421Y-6450549D01*
X34464613Y-6417831D01*
X34377329Y-6383752D01*
X34345008Y-6371132D01*
X34256786Y-6336702D01*
X34171844Y-6303591D01*
X34090935Y-6272091D01*
X34014809Y-6242491D01*
X33944219Y-6215082D01*
X33879915Y-6190157D01*
X33822648Y-6168004D01*
X33773170Y-6148916D01*
X33732233Y-6133183D01*
X33700587Y-6121095D01*
X33678984Y-6112945D01*
X33668175Y-6109021D01*
X33667059Y-6108700D01*
X33665516Y-6114877D01*
X33664274Y-6132729D01*
X33663354Y-6161230D01*
X33662778Y-6199357D01*
X33662565Y-6246086D01*
X33662736Y-6300395D01*
X33662850Y-6316135D01*
X33664525Y-6523570D01*
X34111515Y-6672565D01*
X34192651Y-6699710D01*
X34267147Y-6724834D01*
X34334364Y-6747714D01*
X34393661Y-6768124D01*
X34444400Y-6785841D01*
X34485941Y-6800640D01*
X34517645Y-6812297D01*
X34538872Y-6820588D01*
X34548984Y-6825288D01*
X34549665Y-6826226D01*
X34542333Y-6828966D01*
X34523929Y-6835414D01*
X34495420Y-6845239D01*
X34457776Y-6858114D01*
X34411965Y-6873708D01*
X34358955Y-6891693D01*
X34299716Y-6911739D01*
X34235216Y-6933517D01*
X34166423Y-6956698D01*
X34101087Y-6978675D01*
X33661350Y-7126458D01*
X33661350Y-7537017D01*
X33697862Y-7523068D01*
G36*
X33639310Y-1816286D02*
X33640043Y-1847803D01*
X33641586Y-1872130D01*
X33644202Y-1892017D01*
X33648154Y-1910219D01*
X33653705Y-1929489D01*
X33653989Y-1930400D01*
X33675294Y-1987433D01*
X33701716Y-2036053D01*
X33735598Y-2080242D01*
X33753425Y-2099256D01*
X33808778Y-2146336D01*
X33872313Y-2183805D01*
X33943763Y-2211532D01*
X34018142Y-2228633D01*
X34032684Y-2229927D01*
X34059357Y-2231098D01*
X34097594Y-2232141D01*
X34146824Y-2233047D01*
X34206481Y-2233810D01*
X34275996Y-2234422D01*
X34354799Y-2234876D01*
X34442324Y-2235165D01*
X34538002Y-2235281D01*
X34540825Y-2235282D01*
X35023425Y-2235392D01*
X35025102Y-2038446D01*
X35026780Y-1841500D01*
X34612099Y-1841500D01*
X34525526Y-1841481D01*
X34450659Y-1841385D01*
X34386503Y-1841148D01*
X34332064Y-1840711D01*
X34286348Y-1840011D01*
X34248361Y-1838987D01*
X34217107Y-1837576D01*
X34191594Y-1835718D01*
X34170826Y-1833350D01*
X34153810Y-1830412D01*
X34139551Y-1826841D01*
X34127054Y-1822576D01*
X34115326Y-1817555D01*
X34103373Y-1811718D01*
X34099474Y-1809737D01*
X34063403Y-1784793D01*
X34032245Y-1750322D01*
X34011365Y-1715049D01*
X34003617Y-1697011D01*
X33998704Y-1680339D01*
X33996003Y-1661217D01*
X33994895Y-1635831D01*
X33994735Y-1612900D01*
X33995114Y-1581001D01*
X33996665Y-1557983D01*
X34000003Y-1540041D01*
X34005746Y-1523368D01*
X34011247Y-1511010D01*
X34036371Y-1467963D01*
X34067137Y-1435102D01*
X34097950Y-1414331D01*
X34110962Y-1407347D01*
X34123159Y-1401319D01*
X34135541Y-1396178D01*
X34149110Y-1391852D01*
X34164868Y-1388271D01*
X34183814Y-1385364D01*
X34206950Y-1383062D01*
X34235277Y-1381294D01*
X34269796Y-1379989D01*
X34311509Y-1379077D01*
X34361415Y-1378488D01*
X34420517Y-1378151D01*
X34489814Y-1377996D01*
X34570309Y-1377952D01*
X34615184Y-1377950D01*
X35026600Y-1377950D01*
X35026600Y-984250D01*
X33661350Y-984250D01*
X33661350Y-1377950D01*
X33748662Y-1377938D01*
X33835975Y-1377927D01*
X33775650Y-1440104D01*
X33738412Y-1480414D01*
X33709503Y-1516669D01*
X33686813Y-1552051D01*
X33668232Y-1589740D01*
X33656138Y-1620300D01*
X33649847Y-1638294D01*
X33645329Y-1654212D01*
X33642293Y-1670701D01*
X33640447Y-1690410D01*
X33639499Y-1715985D01*
X33639159Y-1750074D01*
X33639125Y-1774825D01*
X33639310Y-1816286D01*
X33639310Y-1816286D01*
G37*
X33639310Y-1816286D02*
X33640043Y-1847803D01*
X33641586Y-1872130D01*
X33644202Y-1892017D01*
X33648154Y-1910219D01*
X33653705Y-1929489D01*
X33653989Y-1930400D01*
X33675294Y-1987433D01*
X33701716Y-2036053D01*
X33735598Y-2080242D01*
X33753425Y-2099256D01*
X33808778Y-2146336D01*
X33872313Y-2183805D01*
X33943763Y-2211532D01*
X34018142Y-2228633D01*
X34032684Y-2229927D01*
X34059357Y-2231098D01*
X34097594Y-2232141D01*
X34146824Y-2233047D01*
X34206481Y-2233810D01*
X34275996Y-2234422D01*
X34354799Y-2234876D01*
X34442324Y-2235165D01*
X34538002Y-2235281D01*
X34540825Y-2235282D01*
X35023425Y-2235392D01*
X35025102Y-2038446D01*
X35026780Y-1841500D01*
X34612099Y-1841500D01*
X34525526Y-1841481D01*
X34450659Y-1841385D01*
X34386503Y-1841148D01*
X34332064Y-1840711D01*
X34286348Y-1840011D01*
X34248361Y-1838987D01*
X34217107Y-1837576D01*
X34191594Y-1835718D01*
X34170826Y-1833350D01*
X34153810Y-1830412D01*
X34139551Y-1826841D01*
X34127054Y-1822576D01*
X34115326Y-1817555D01*
X34103373Y-1811718D01*
X34099474Y-1809737D01*
X34063403Y-1784793D01*
X34032245Y-1750322D01*
X34011365Y-1715049D01*
X34003617Y-1697011D01*
X33998704Y-1680339D01*
X33996003Y-1661217D01*
X33994895Y-1635831D01*
X33994735Y-1612900D01*
X33995114Y-1581001D01*
X33996665Y-1557983D01*
X34000003Y-1540041D01*
X34005746Y-1523368D01*
X34011247Y-1511010D01*
X34036371Y-1467963D01*
X34067137Y-1435102D01*
X34097950Y-1414331D01*
X34110962Y-1407347D01*
X34123159Y-1401319D01*
X34135541Y-1396178D01*
X34149110Y-1391852D01*
X34164868Y-1388271D01*
X34183814Y-1385364D01*
X34206950Y-1383062D01*
X34235277Y-1381294D01*
X34269796Y-1379989D01*
X34311509Y-1379077D01*
X34361415Y-1378488D01*
X34420517Y-1378151D01*
X34489814Y-1377996D01*
X34570309Y-1377952D01*
X34615184Y-1377950D01*
X35026600Y-1377950D01*
X35026600Y-984250D01*
X33661350Y-984250D01*
X33661350Y-1377950D01*
X33748662Y-1377938D01*
X33835975Y-1377927D01*
X33775650Y-1440104D01*
X33738412Y-1480414D01*
X33709503Y-1516669D01*
X33686813Y-1552051D01*
X33668232Y-1589740D01*
X33656138Y-1620300D01*
X33649847Y-1638294D01*
X33645329Y-1654212D01*
X33642293Y-1670701D01*
X33640447Y-1690410D01*
X33639499Y-1715985D01*
X33639159Y-1750074D01*
X33639125Y-1774825D01*
X33639310Y-1816286D01*
G36*
X33633303Y-5991071D02*
X33637326Y-6007100D01*
X34040603Y-6007100D01*
X34044952Y-5953498D01*
X34056111Y-5877476D01*
X34076615Y-5810038D01*
X34106563Y-5751063D01*
X34146053Y-5700429D01*
X34195186Y-5658012D01*
X34254061Y-5623691D01*
X34322777Y-5597343D01*
X34337625Y-5593043D01*
X34349573Y-5589877D01*
X34361285Y-5587215D01*
X34373967Y-5585004D01*
X34388829Y-5583190D01*
X34407080Y-5581721D01*
X34429927Y-5580544D01*
X34458580Y-5579605D01*
X34494248Y-5578852D01*
X34538138Y-5578232D01*
X34591459Y-5577690D01*
X34655420Y-5577175D01*
X34707512Y-5576799D01*
X35026600Y-5574552D01*
X35026600Y-5181600D01*
X33661350Y-5181600D01*
X33661350Y-5575300D01*
X33786762Y-5575444D01*
X33912175Y-5575588D01*
X33873190Y-5596603D01*
X33813181Y-5633778D01*
X33760207Y-5676339D01*
X33715593Y-5722854D01*
X33680665Y-5771890D01*
X33656748Y-5822016D01*
X33652509Y-5835010D01*
X33646011Y-5861394D01*
X33640286Y-5892398D01*
X33635765Y-5924517D01*
X33632878Y-5954246D01*
X33632058Y-5978080D01*
X33633303Y-5991071D01*
X33633303Y-5991071D01*
G37*
X33633303Y-5991071D02*
X33637326Y-6007100D01*
X34040603Y-6007100D01*
X34044952Y-5953498D01*
X34056111Y-5877476D01*
X34076615Y-5810038D01*
X34106563Y-5751063D01*
X34146053Y-5700429D01*
X34195186Y-5658012D01*
X34254061Y-5623691D01*
X34322777Y-5597343D01*
X34337625Y-5593043D01*
X34349573Y-5589877D01*
X34361285Y-5587215D01*
X34373967Y-5585004D01*
X34388829Y-5583190D01*
X34407080Y-5581721D01*
X34429927Y-5580544D01*
X34458580Y-5579605D01*
X34494248Y-5578852D01*
X34538138Y-5578232D01*
X34591459Y-5577690D01*
X34655420Y-5577175D01*
X34707512Y-5576799D01*
X35026600Y-5574552D01*
X35026600Y-5181600D01*
X33661350Y-5181600D01*
X33661350Y-5575300D01*
X33786762Y-5575444D01*
X33912175Y-5575588D01*
X33873190Y-5596603D01*
X33813181Y-5633778D01*
X33760207Y-5676339D01*
X33715593Y-5722854D01*
X33680665Y-5771890D01*
X33656748Y-5822016D01*
X33652509Y-5835010D01*
X33646011Y-5861394D01*
X33640286Y-5892398D01*
X33635765Y-5924517D01*
X33632878Y-5954246D01*
X33632058Y-5978080D01*
X33633303Y-5991071D01*
G36*
X34342387Y-8072496D02*
X35023425Y-8070968D01*
X35025102Y-7874059D01*
X35026780Y-7677150D01*
X33661350Y-7677150D01*
X33661349Y-7875587D01*
X33661349Y-8074025D01*
X34342387Y-8072496D01*
X34342387Y-8072496D01*
G37*
X34342387Y-8072496D02*
X35023425Y-8070968D01*
X35025102Y-7874059D01*
X35026780Y-7677150D01*
X33661350Y-7677150D01*
X33661349Y-7875587D01*
X33661349Y-8074025D01*
X34342387Y-8072496D01*
G36*
X33151087Y-8877300D02*
X33151508Y-8926684D01*
X33152892Y-8966768D01*
X33155634Y-9000937D01*
X33160129Y-9032578D01*
X33166773Y-9065078D01*
X33175960Y-9101822D01*
X33178322Y-9110662D01*
X33185589Y-9137650D01*
X33351124Y-9137650D01*
X33401229Y-9137603D01*
X33440017Y-9137400D01*
X33468868Y-9136946D01*
X33489165Y-9136144D01*
X33502290Y-9134900D01*
X33509624Y-9133118D01*
X33512549Y-9130703D01*
X33512448Y-9127558D01*
X33512067Y-9126537D01*
X33501094Y-9093344D01*
X33491791Y-9052820D01*
X33485183Y-9010320D01*
X33482308Y-8971591D01*
X33484758Y-8925209D01*
X33494738Y-8888537D01*
X33513040Y-8860730D01*
X33540452Y-8840943D01*
X33577766Y-8828331D01*
X33621909Y-8822308D01*
X33673824Y-8818570D01*
X33675524Y-8975173D01*
X33677225Y-9131776D01*
X33994725Y-9131776D01*
X33998125Y-8826500D01*
X35026600Y-8826500D01*
X35026600Y-8432800D01*
X33997900Y-8432800D01*
X33997900Y-8274050D01*
X33674050Y-8274050D01*
X33674050Y-8431074D01*
X33580387Y-8434370D01*
X33539423Y-8436518D01*
X33499573Y-8439871D01*
X33464720Y-8444038D01*
X33439100Y-8448550D01*
X33371265Y-8469531D01*
X33312414Y-8499479D01*
X33262425Y-8538507D01*
X33221178Y-8586733D01*
X33188551Y-8644271D01*
X33164424Y-8711238D01*
X33164410Y-8711288D01*
X33159422Y-8730969D01*
X33155819Y-8750325D01*
X33153392Y-8771950D01*
X33151933Y-8798438D01*
X33151234Y-8832385D01*
X33151086Y-8876385D01*
X33151087Y-8877300D01*
X33151087Y-8877300D01*
G37*
X33151087Y-8877300D02*
X33151508Y-8926684D01*
X33152892Y-8966768D01*
X33155634Y-9000937D01*
X33160129Y-9032578D01*
X33166773Y-9065078D01*
X33175960Y-9101822D01*
X33178322Y-9110662D01*
X33185589Y-9137650D01*
X33351124Y-9137650D01*
X33401229Y-9137603D01*
X33440017Y-9137400D01*
X33468868Y-9136946D01*
X33489165Y-9136144D01*
X33502290Y-9134900D01*
X33509624Y-9133118D01*
X33512549Y-9130703D01*
X33512448Y-9127558D01*
X33512067Y-9126537D01*
X33501094Y-9093344D01*
X33491791Y-9052820D01*
X33485183Y-9010320D01*
X33482308Y-8971591D01*
X33484758Y-8925209D01*
X33494738Y-8888537D01*
X33513040Y-8860730D01*
X33540452Y-8840943D01*
X33577766Y-8828331D01*
X33621909Y-8822308D01*
X33673824Y-8818570D01*
X33675524Y-8975173D01*
X33677225Y-9131776D01*
X33994725Y-9131776D01*
X33998125Y-8826500D01*
X35026600Y-8826500D01*
X35026600Y-8432800D01*
X33997900Y-8432800D01*
X33997900Y-8274050D01*
X33674050Y-8274050D01*
X33674050Y-8431074D01*
X33580387Y-8434370D01*
X33539423Y-8436518D01*
X33499573Y-8439871D01*
X33464720Y-8444038D01*
X33439100Y-8448550D01*
X33371265Y-8469531D01*
X33312414Y-8499479D01*
X33262425Y-8538507D01*
X33221178Y-8586733D01*
X33188551Y-8644271D01*
X33164424Y-8711238D01*
X33164410Y-8711288D01*
X33159422Y-8730969D01*
X33155819Y-8750325D01*
X33153392Y-8771950D01*
X33151933Y-8798438D01*
X33151234Y-8832385D01*
X33151086Y-8876385D01*
X33151087Y-8877300D01*
G36*
X33515300Y-8083550D02*
X33515300Y-7670800D01*
X33166050Y-7670800D01*
X33166050Y-8083550D01*
X33515300Y-8083550D01*
X33515300Y-8083550D01*
G37*
X33515300Y-8083550D02*
X33515300Y-7670800D01*
X33166050Y-7670800D01*
X33166050Y-8083550D01*
X33515300Y-8083550D01*
G36*
X32440460Y4850771D02*
X32455334Y4781673D01*
X32482210Y4710910D01*
X32490450Y4693509D01*
X32506607Y4662636D01*
X32522738Y4637324D01*
X32541967Y4613297D01*
X32567417Y4586280D01*
X32572565Y4581104D01*
X32599113Y4555473D01*
X32621738Y4536426D01*
X32644756Y4520887D01*
X32672487Y4505776D01*
X32690989Y4496688D01*
X32734409Y4476945D01*
X32771370Y4463241D01*
X32806008Y4454611D01*
X32842457Y4450087D01*
X32884852Y4448704D01*
X32896175Y4448731D01*
X32917528Y4449114D01*
X32937522Y4450203D01*
X32957102Y4452392D01*
X32977215Y4456072D01*
X32998805Y4461634D01*
X33022819Y4469469D01*
X33050204Y4479970D01*
X33081904Y4493527D01*
X33118866Y4510534D01*
X33162037Y4531380D01*
X33212361Y4556458D01*
X33270786Y4586159D01*
X33338256Y4620875D01*
X33415719Y4660997D01*
X33442275Y4674784D01*
X33504849Y4707342D01*
X33564263Y4738372D01*
X33619524Y4767348D01*
X33669643Y4793747D01*
X33713627Y4817041D01*
X33750485Y4836706D01*
X33779226Y4852216D01*
X33798859Y4863047D01*
X33808393Y4868673D01*
X33808987Y4869116D01*
X33817875Y4884110D01*
X33819464Y4903229D01*
X33813509Y4920136D01*
X33811079Y4923013D01*
X33802510Y4928931D01*
X33783809Y4940041D01*
X33756141Y4955729D01*
X33720670Y4975381D01*
X33678558Y4998384D01*
X33630970Y5024122D01*
X33579068Y5051982D01*
X33524018Y5081349D01*
X33466982Y5111609D01*
X33409124Y5142148D01*
X33351608Y5172351D01*
X33295597Y5201605D01*
X33242255Y5229295D01*
X33192745Y5254807D01*
X33148232Y5277527D01*
X33109879Y5296839D01*
X33078849Y5312131D01*
X33056306Y5322788D01*
X33043603Y5328132D01*
X32967203Y5348226D01*
X32891635Y5356116D01*
X32879842Y5355440D01*
X32879842Y5218678D01*
X32939124Y5215602D01*
X32995141Y5201940D01*
X33046867Y5178719D01*
X33093276Y5146967D01*
X33133341Y5107713D01*
X33166035Y5061983D01*
X33190332Y5010806D01*
X33205206Y4955210D01*
X33209630Y4896222D01*
X33202577Y4834871D01*
X33200843Y4827112D01*
X33180515Y4766667D01*
X33150219Y4713660D01*
X33110786Y4668849D01*
X33063050Y4632990D01*
X33007840Y4606837D01*
X32945989Y4591148D01*
X32940377Y4590311D01*
X32879046Y4587516D01*
X32820543Y4596025D01*
X32765917Y4614744D01*
X32716215Y4642578D01*
X32672486Y4678433D01*
X32635778Y4721213D01*
X32607140Y4769825D01*
X32587620Y4823172D01*
X32578266Y4880161D01*
X32580128Y4939696D01*
X32583945Y4962525D01*
X32602677Y5025936D01*
X32630948Y5081312D01*
X32668297Y5128166D01*
X32714264Y5166013D01*
X32768390Y5194366D01*
X32818322Y5210140D01*
X32879842Y5218678D01*
X32879842Y5355440D01*
X32817732Y5351874D01*
X32746329Y5335568D01*
X32678259Y5307271D01*
X32657038Y5295529D01*
X32597067Y5253137D01*
X32545493Y5202017D01*
X32503398Y5143482D01*
X32471866Y5078845D01*
X32466775Y5064873D01*
X32446288Y4990691D01*
X32437480Y4919883D01*
X32440460Y4850771D01*
X32440460Y4850771D01*
G37*
X32440460Y4850771D02*
X32455334Y4781673D01*
X32482210Y4710910D01*
X32490450Y4693509D01*
X32506607Y4662636D01*
X32522738Y4637324D01*
X32541967Y4613297D01*
X32567417Y4586280D01*
X32572565Y4581104D01*
X32599113Y4555473D01*
X32621738Y4536426D01*
X32644756Y4520887D01*
X32672487Y4505776D01*
X32690989Y4496688D01*
X32734409Y4476945D01*
X32771370Y4463241D01*
X32806008Y4454611D01*
X32842457Y4450087D01*
X32884852Y4448704D01*
X32896175Y4448731D01*
X32917528Y4449114D01*
X32937522Y4450203D01*
X32957102Y4452392D01*
X32977215Y4456072D01*
X32998805Y4461634D01*
X33022819Y4469469D01*
X33050204Y4479970D01*
X33081904Y4493527D01*
X33118866Y4510534D01*
X33162037Y4531380D01*
X33212361Y4556458D01*
X33270786Y4586159D01*
X33338256Y4620875D01*
X33415719Y4660997D01*
X33442275Y4674784D01*
X33504849Y4707342D01*
X33564263Y4738372D01*
X33619524Y4767348D01*
X33669643Y4793747D01*
X33713627Y4817041D01*
X33750485Y4836706D01*
X33779226Y4852216D01*
X33798859Y4863047D01*
X33808393Y4868673D01*
X33808987Y4869116D01*
X33817875Y4884110D01*
X33819464Y4903229D01*
X33813509Y4920136D01*
X33811079Y4923013D01*
X33802510Y4928931D01*
X33783809Y4940041D01*
X33756141Y4955729D01*
X33720670Y4975381D01*
X33678558Y4998384D01*
X33630970Y5024122D01*
X33579068Y5051982D01*
X33524018Y5081349D01*
X33466982Y5111609D01*
X33409124Y5142148D01*
X33351608Y5172351D01*
X33295597Y5201605D01*
X33242255Y5229295D01*
X33192745Y5254807D01*
X33148232Y5277527D01*
X33109879Y5296839D01*
X33078849Y5312131D01*
X33056306Y5322788D01*
X33043603Y5328132D01*
X32967203Y5348226D01*
X32891635Y5356116D01*
X32879842Y5355440D01*
X32879842Y5218678D01*
X32939124Y5215602D01*
X32995141Y5201940D01*
X33046867Y5178719D01*
X33093276Y5146967D01*
X33133341Y5107713D01*
X33166035Y5061983D01*
X33190332Y5010806D01*
X33205206Y4955210D01*
X33209630Y4896222D01*
X33202577Y4834871D01*
X33200843Y4827112D01*
X33180515Y4766667D01*
X33150219Y4713660D01*
X33110786Y4668849D01*
X33063050Y4632990D01*
X33007840Y4606837D01*
X32945989Y4591148D01*
X32940377Y4590311D01*
X32879046Y4587516D01*
X32820543Y4596025D01*
X32765917Y4614744D01*
X32716215Y4642578D01*
X32672486Y4678433D01*
X32635778Y4721213D01*
X32607140Y4769825D01*
X32587620Y4823172D01*
X32578266Y4880161D01*
X32580128Y4939696D01*
X32583945Y4962525D01*
X32602677Y5025936D01*
X32630948Y5081312D01*
X32668297Y5128166D01*
X32714264Y5166013D01*
X32768390Y5194366D01*
X32818322Y5210140D01*
X32879842Y5218678D01*
X32879842Y5355440D01*
X32817732Y5351874D01*
X32746329Y5335568D01*
X32678259Y5307271D01*
X32657038Y5295529D01*
X32597067Y5253137D01*
X32545493Y5202017D01*
X32503398Y5143482D01*
X32471866Y5078845D01*
X32466775Y5064873D01*
X32446288Y4990691D01*
X32437480Y4919883D01*
X32440460Y4850771D01*
G36*
X36325689Y-463692D02*
X36329686Y-518125D01*
X36336461Y-565646D01*
X36342394Y-591046D01*
X36373798Y-675354D01*
X36416654Y-751114D01*
X36470345Y-817650D01*
X36534251Y-874290D01*
X36607753Y-920356D01*
X36670092Y-948047D01*
X36729713Y-967930D01*
X36789324Y-982358D01*
X36853461Y-992192D01*
X36926658Y-998292D01*
X36938269Y-998916D01*
X37033200Y-1003721D01*
X37033200Y-230655D01*
X37053157Y-235567D01*
X37094763Y-252282D01*
X37134928Y-280033D01*
X37169825Y-315542D01*
X37195627Y-355526D01*
X37197351Y-359184D01*
X37215683Y-416352D01*
X37220908Y-477010D01*
X37213376Y-539210D01*
X37193436Y-601001D01*
X37161436Y-660434D01*
X37137555Y-692974D01*
X37105068Y-732856D01*
X37196438Y-841771D01*
X37224812Y-875285D01*
X37250144Y-904619D01*
X37270928Y-928079D01*
X37285659Y-943969D01*
X37292832Y-950593D01*
X37293128Y-950685D01*
X37301264Y-945555D01*
X37316491Y-931792D01*
X37336515Y-911837D01*
X37359046Y-888130D01*
X37381791Y-863112D01*
X37402457Y-839223D01*
X37418752Y-818905D01*
X37424758Y-810531D01*
X37460195Y-747879D01*
X37489673Y-675487D01*
X37505241Y-623444D01*
X37513738Y-579992D01*
X37519922Y-527250D01*
X37523548Y-470276D01*
X37524370Y-414129D01*
X37522143Y-363868D01*
X37519101Y-337739D01*
X37497835Y-244675D01*
X37464611Y-158128D01*
X37420102Y-79190D01*
X37364983Y-8950D01*
X37299928Y51502D01*
X37260812Y79753D01*
X37185818Y120836D01*
X37105376Y149948D01*
X37021215Y167371D01*
X36935066Y173383D01*
X36848659Y168263D01*
X36830000Y164755D01*
X36830000Y-223157D01*
X36830000Y-616857D01*
X36812130Y-616857D01*
X36786083Y-612620D01*
X36754025Y-601416D01*
X36721149Y-585500D01*
X36692648Y-567132D01*
X36686734Y-562351D01*
X36655369Y-528557D01*
X36636039Y-490031D01*
X36627573Y-444062D01*
X36626960Y-424066D01*
X36631537Y-375017D01*
X36645711Y-334785D01*
X36670659Y-300363D01*
X36678528Y-292493D01*
X36704206Y-273036D01*
X36738127Y-253757D01*
X36774299Y-237675D01*
X36806731Y-227811D01*
X36806869Y-227783D01*
X36830000Y-223157D01*
X36830000Y164755D01*
X36763724Y152293D01*
X36681993Y125751D01*
X36605194Y88917D01*
X36535060Y42071D01*
X36473318Y-14507D01*
X36441243Y-52718D01*
X36409334Y-100800D01*
X36379236Y-156836D01*
X36354020Y-214597D01*
X36338482Y-261257D01*
X36330866Y-301127D01*
X36326229Y-350971D01*
X36324520Y-406567D01*
X36325689Y-463692D01*
X36325689Y-463692D01*
G37*
X36325689Y-463692D02*
X36329686Y-518125D01*
X36336461Y-565646D01*
X36342394Y-591046D01*
X36373798Y-675354D01*
X36416654Y-751114D01*
X36470345Y-817650D01*
X36534251Y-874290D01*
X36607753Y-920356D01*
X36670092Y-948047D01*
X36729713Y-967930D01*
X36789324Y-982358D01*
X36853461Y-992192D01*
X36926658Y-998292D01*
X36938269Y-998916D01*
X37033200Y-1003721D01*
X37033200Y-230655D01*
X37053157Y-235567D01*
X37094763Y-252282D01*
X37134928Y-280033D01*
X37169825Y-315542D01*
X37195627Y-355526D01*
X37197351Y-359184D01*
X37215683Y-416352D01*
X37220908Y-477010D01*
X37213376Y-539210D01*
X37193436Y-601001D01*
X37161436Y-660434D01*
X37137555Y-692974D01*
X37105068Y-732856D01*
X37196438Y-841771D01*
X37224812Y-875285D01*
X37250144Y-904619D01*
X37270928Y-928079D01*
X37285659Y-943969D01*
X37292832Y-950593D01*
X37293128Y-950685D01*
X37301264Y-945555D01*
X37316491Y-931792D01*
X37336515Y-911837D01*
X37359046Y-888130D01*
X37381791Y-863112D01*
X37402457Y-839223D01*
X37418752Y-818905D01*
X37424758Y-810531D01*
X37460195Y-747879D01*
X37489673Y-675487D01*
X37505241Y-623444D01*
X37513738Y-579992D01*
X37519922Y-527250D01*
X37523548Y-470276D01*
X37524370Y-414129D01*
X37522143Y-363868D01*
X37519101Y-337739D01*
X37497835Y-244675D01*
X37464611Y-158128D01*
X37420102Y-79190D01*
X37364983Y-8950D01*
X37299928Y51502D01*
X37260812Y79753D01*
X37185818Y120836D01*
X37105376Y149948D01*
X37021215Y167371D01*
X36935066Y173383D01*
X36848659Y168263D01*
X36830000Y164755D01*
X36830000Y-223157D01*
X36830000Y-616857D01*
X36812130Y-616857D01*
X36786083Y-612620D01*
X36754025Y-601416D01*
X36721149Y-585500D01*
X36692648Y-567132D01*
X36686734Y-562351D01*
X36655369Y-528557D01*
X36636039Y-490031D01*
X36627573Y-444062D01*
X36626960Y-424066D01*
X36631537Y-375017D01*
X36645711Y-334785D01*
X36670659Y-300363D01*
X36678528Y-292493D01*
X36704206Y-273036D01*
X36738127Y-253757D01*
X36774299Y-237675D01*
X36806731Y-227811D01*
X36806869Y-227783D01*
X36830000Y-223157D01*
X36830000Y164755D01*
X36763724Y152293D01*
X36681993Y125751D01*
X36605194Y88917D01*
X36535060Y42071D01*
X36473318Y-14507D01*
X36441243Y-52718D01*
X36409334Y-100800D01*
X36379236Y-156836D01*
X36354020Y-214597D01*
X36338482Y-261257D01*
X36330866Y-301127D01*
X36326229Y-350971D01*
X36324520Y-406567D01*
X36325689Y-463692D01*
G36*
X36721143Y-2901080D02*
X37494029Y-2902931D01*
X37491997Y-2696065D01*
X37489965Y-2489200D01*
X37350756Y-2489200D01*
X37398632Y-2438449D01*
X37422939Y-2411038D01*
X37446079Y-2382128D01*
X37464142Y-2356690D01*
X37468529Y-2349549D01*
X37497948Y-2285035D01*
X37516487Y-2214115D01*
X37523511Y-2140667D01*
X37518385Y-2068567D01*
X37516392Y-2057400D01*
X37493330Y-1974729D01*
X37458039Y-1899471D01*
X37411058Y-1832139D01*
X37352927Y-1773243D01*
X37284184Y-1723294D01*
X37205369Y-1682804D01*
X37117020Y-1652283D01*
X37079409Y-1643042D01*
X37021413Y-1634131D01*
X36955126Y-1630186D01*
X36885821Y-1631103D01*
X36818768Y-1636778D01*
X36759240Y-1647106D01*
X36749309Y-1649562D01*
X36716714Y-1659095D01*
X36681857Y-1670949D01*
X36647460Y-1683989D01*
X36616241Y-1697079D01*
X36590921Y-1709083D01*
X36574220Y-1718867D01*
X36568806Y-1724913D01*
X36574524Y-1730025D01*
X36590667Y-1742385D01*
X36615755Y-1760941D01*
X36648305Y-1784640D01*
X36686838Y-1812430D01*
X36729872Y-1843258D01*
X36775926Y-1876071D01*
X36823521Y-1909815D01*
X36871174Y-1943439D01*
X36917404Y-1975890D01*
X36960732Y-2006114D01*
X36999677Y-2033060D01*
X37032756Y-2055673D01*
X37055897Y-2071193D01*
X37096737Y-2098189D01*
X37286951Y-2486579D01*
X37321109Y-2556452D01*
X37353217Y-2622372D01*
X37382727Y-2683202D01*
X37409093Y-2737802D01*
X37431768Y-2785033D01*
X37450205Y-2823757D01*
X37463857Y-2852836D01*
X37472178Y-2871130D01*
X37474641Y-2877492D01*
X37468348Y-2873998D01*
X37451117Y-2863045D01*
X37424010Y-2845343D01*
X37388088Y-2821596D01*
X37344414Y-2792513D01*
X37294050Y-2758801D01*
X37238058Y-2721165D01*
X37177500Y-2680314D01*
X37122180Y-2642879D01*
X36772242Y-2405743D01*
X36619693Y-2110781D01*
X36588473Y-2050309D01*
X36559402Y-1993793D01*
X36533143Y-1942536D01*
X36510358Y-1897842D01*
X36491711Y-1861014D01*
X36477864Y-1833355D01*
X36469479Y-1816170D01*
X36467143Y-1810773D01*
X36473214Y-1801562D01*
X36490780Y-1785757D01*
X36518871Y-1764197D01*
X36530792Y-1755603D01*
X36547459Y-1742158D01*
X36556956Y-1731324D01*
X36557833Y-1727159D01*
X36550747Y-1720890D01*
X36533976Y-1708027D01*
X36509769Y-1690240D01*
X36480373Y-1669200D01*
X36468783Y-1661031D01*
X36435818Y-1637803D01*
X36404994Y-1615927D01*
X36379314Y-1597542D01*
X36361779Y-1584791D01*
X36359017Y-1582732D01*
X36350738Y-1576815D01*
X36345777Y-1574721D01*
X36344653Y-1577887D01*
X36347883Y-1587753D01*
X36355985Y-1605756D01*
X36369476Y-1633334D01*
X36388875Y-1671925D01*
X36396706Y-1687412D01*
X36459065Y-1810657D01*
X36438465Y-1832428D01*
X36409506Y-1868764D01*
X36381109Y-1914787D01*
X36356014Y-1965834D01*
X36346811Y-1988457D01*
X36338445Y-2011551D01*
X36332691Y-2031483D01*
X36329061Y-2051908D01*
X36327070Y-2076484D01*
X36326230Y-2108866D01*
X36326060Y-2144485D01*
X36326340Y-2187704D01*
X36327529Y-2219998D01*
X36330025Y-2244948D01*
X36334229Y-2266134D01*
X36340540Y-2287138D01*
X36342663Y-2293257D01*
X36365677Y-2345355D01*
X36396622Y-2397010D01*
X36431785Y-2442317D01*
X36445433Y-2456596D01*
X36475113Y-2485571D01*
X36211685Y-2489200D01*
X35948257Y-2492828D01*
X35948257Y-2899228D01*
X36721143Y-2901080D01*
X36721143Y-2901080D01*
G37*
X36721143Y-2901080D02*
X37494029Y-2902931D01*
X37491997Y-2696065D01*
X37489965Y-2489200D01*
X37350756Y-2489200D01*
X37398632Y-2438449D01*
X37422939Y-2411038D01*
X37446079Y-2382128D01*
X37464142Y-2356690D01*
X37468529Y-2349549D01*
X37497948Y-2285035D01*
X37516487Y-2214115D01*
X37523511Y-2140667D01*
X37518385Y-2068567D01*
X37516392Y-2057400D01*
X37493330Y-1974729D01*
X37458039Y-1899471D01*
X37411058Y-1832139D01*
X37352927Y-1773243D01*
X37284184Y-1723294D01*
X37205369Y-1682804D01*
X37117020Y-1652283D01*
X37079409Y-1643042D01*
X37021413Y-1634131D01*
X36955126Y-1630186D01*
X36885821Y-1631103D01*
X36818768Y-1636778D01*
X36759240Y-1647106D01*
X36749309Y-1649562D01*
X36716714Y-1659095D01*
X36681857Y-1670949D01*
X36647460Y-1683989D01*
X36616241Y-1697079D01*
X36590921Y-1709083D01*
X36574220Y-1718867D01*
X36568806Y-1724913D01*
X36574524Y-1730025D01*
X36590667Y-1742385D01*
X36615755Y-1760941D01*
X36648305Y-1784640D01*
X36686838Y-1812430D01*
X36729872Y-1843258D01*
X36775926Y-1876071D01*
X36823521Y-1909815D01*
X36871174Y-1943439D01*
X36917404Y-1975890D01*
X36960732Y-2006114D01*
X36999677Y-2033060D01*
X37032756Y-2055673D01*
X37055897Y-2071193D01*
X37096737Y-2098189D01*
X37286951Y-2486579D01*
X37321109Y-2556452D01*
X37353217Y-2622372D01*
X37382727Y-2683202D01*
X37409093Y-2737802D01*
X37431768Y-2785033D01*
X37450205Y-2823757D01*
X37463857Y-2852836D01*
X37472178Y-2871130D01*
X37474641Y-2877492D01*
X37468348Y-2873998D01*
X37451117Y-2863045D01*
X37424010Y-2845343D01*
X37388088Y-2821596D01*
X37344414Y-2792513D01*
X37294050Y-2758801D01*
X37238058Y-2721165D01*
X37177500Y-2680314D01*
X37122180Y-2642879D01*
X36772242Y-2405743D01*
X36619693Y-2110781D01*
X36588473Y-2050309D01*
X36559402Y-1993793D01*
X36533143Y-1942536D01*
X36510358Y-1897842D01*
X36491711Y-1861014D01*
X36477864Y-1833355D01*
X36469479Y-1816170D01*
X36467143Y-1810773D01*
X36473214Y-1801562D01*
X36490780Y-1785757D01*
X36518871Y-1764197D01*
X36530792Y-1755603D01*
X36547459Y-1742158D01*
X36556956Y-1731324D01*
X36557833Y-1727159D01*
X36550747Y-1720890D01*
X36533976Y-1708027D01*
X36509769Y-1690240D01*
X36480373Y-1669200D01*
X36468783Y-1661031D01*
X36435818Y-1637803D01*
X36404994Y-1615927D01*
X36379314Y-1597542D01*
X36361779Y-1584791D01*
X36359017Y-1582732D01*
X36350738Y-1576815D01*
X36345777Y-1574721D01*
X36344653Y-1577887D01*
X36347883Y-1587753D01*
X36355985Y-1605756D01*
X36369476Y-1633334D01*
X36388875Y-1671925D01*
X36396706Y-1687412D01*
X36459065Y-1810657D01*
X36438465Y-1832428D01*
X36409506Y-1868764D01*
X36381109Y-1914787D01*
X36356014Y-1965834D01*
X36346811Y-1988457D01*
X36338445Y-2011551D01*
X36332691Y-2031483D01*
X36329061Y-2051908D01*
X36327070Y-2076484D01*
X36326230Y-2108866D01*
X36326060Y-2144485D01*
X36326340Y-2187704D01*
X36327529Y-2219998D01*
X36330025Y-2244948D01*
X36334229Y-2266134D01*
X36340540Y-2287138D01*
X36342663Y-2293257D01*
X36365677Y-2345355D01*
X36396622Y-2397010D01*
X36431785Y-2442317D01*
X36445433Y-2456596D01*
X36475113Y-2485571D01*
X36211685Y-2489200D01*
X35948257Y-2492828D01*
X35948257Y-2899228D01*
X36721143Y-2901080D01*
G36*
X36204072Y-5477478D02*
X36351029Y-5479443D01*
X36351029Y-5755186D01*
X36516129Y-5753236D01*
X36681229Y-5751285D01*
X36683203Y-5615214D01*
X36685178Y-5479143D01*
X36895835Y-5479143D01*
X36961638Y-5479248D01*
X37014518Y-5479736D01*
X37056067Y-5480870D01*
X37087876Y-5482909D01*
X37111536Y-5486114D01*
X37128638Y-5490747D01*
X37140773Y-5497067D01*
X37149534Y-5505335D01*
X37156510Y-5515813D01*
X37160077Y-5522448D01*
X37167241Y-5546310D01*
X37170506Y-5579584D01*
X37169886Y-5617709D01*
X37165400Y-5656120D01*
X37159515Y-5682343D01*
X37152449Y-5707560D01*
X37146590Y-5729304D01*
X37144240Y-5738585D01*
X37140365Y-5754914D01*
X37454913Y-5754914D01*
X37472236Y-5715744D01*
X37488165Y-5676624D01*
X37499751Y-5639654D01*
X37507723Y-5600998D01*
X37512804Y-5556821D01*
X37515722Y-5503288D01*
X37516338Y-5482771D01*
X37516974Y-5424825D01*
X37515500Y-5379278D01*
X37511823Y-5344158D01*
X37509031Y-5329461D01*
X37487376Y-5261326D01*
X37455565Y-5203512D01*
X37413340Y-5155745D01*
X37360440Y-5117753D01*
X37296609Y-5089264D01*
X37274622Y-5082336D01*
X37261268Y-5079092D01*
X37244789Y-5076396D01*
X37223660Y-5074178D01*
X37196355Y-5072364D01*
X37161351Y-5070881D01*
X37117120Y-5069657D01*
X37062139Y-5068619D01*
X36994881Y-5067693D01*
X36958815Y-5067279D01*
X36684857Y-5064279D01*
X36684857Y-4942114D01*
X36351029Y-4942114D01*
X36351029Y-5065185D01*
X36204072Y-5067149D01*
X36057115Y-5069114D01*
X36057115Y-5475514D01*
X36204072Y-5477478D01*
X36204072Y-5477478D01*
G37*
X36204072Y-5477478D02*
X36351029Y-5479443D01*
X36351029Y-5755186D01*
X36516129Y-5753236D01*
X36681229Y-5751285D01*
X36683203Y-5615214D01*
X36685178Y-5479143D01*
X36895835Y-5479143D01*
X36961638Y-5479248D01*
X37014518Y-5479736D01*
X37056067Y-5480870D01*
X37087876Y-5482909D01*
X37111536Y-5486114D01*
X37128638Y-5490747D01*
X37140773Y-5497067D01*
X37149534Y-5505335D01*
X37156510Y-5515813D01*
X37160077Y-5522448D01*
X37167241Y-5546310D01*
X37170506Y-5579584D01*
X37169886Y-5617709D01*
X37165400Y-5656120D01*
X37159515Y-5682343D01*
X37152449Y-5707560D01*
X37146590Y-5729304D01*
X37144240Y-5738585D01*
X37140365Y-5754914D01*
X37454913Y-5754914D01*
X37472236Y-5715744D01*
X37488165Y-5676624D01*
X37499751Y-5639654D01*
X37507723Y-5600998D01*
X37512804Y-5556821D01*
X37515722Y-5503288D01*
X37516338Y-5482771D01*
X37516974Y-5424825D01*
X37515500Y-5379278D01*
X37511823Y-5344158D01*
X37509031Y-5329461D01*
X37487376Y-5261326D01*
X37455565Y-5203512D01*
X37413340Y-5155745D01*
X37360440Y-5117753D01*
X37296609Y-5089264D01*
X37274622Y-5082336D01*
X37261268Y-5079092D01*
X37244789Y-5076396D01*
X37223660Y-5074178D01*
X37196355Y-5072364D01*
X37161351Y-5070881D01*
X37117120Y-5069657D01*
X37062139Y-5068619D01*
X36994881Y-5067693D01*
X36958815Y-5067279D01*
X36684857Y-5064279D01*
X36684857Y-4942114D01*
X36351029Y-4942114D01*
X36351029Y-5065185D01*
X36204072Y-5067149D01*
X36057115Y-5069114D01*
X36057115Y-5475514D01*
X36204072Y-5477478D01*
G36*
X35932226Y1085413D02*
X35935414Y1033618D01*
X35940330Y985431D01*
X35946812Y943847D01*
X35954695Y911864D01*
X35960266Y898072D01*
X35963855Y893600D01*
X35970595Y890310D01*
X35982486Y888025D01*
X36001528Y886567D01*
X36029719Y885758D01*
X36069059Y885422D01*
X36103332Y885372D01*
X36146342Y885562D01*
X36184184Y886091D01*
X36214534Y886896D01*
X36235070Y887917D01*
X36243466Y889089D01*
X36243497Y889117D01*
X36243913Y897642D01*
X36240978Y915554D01*
X36237450Y930612D01*
X36230980Y965971D01*
X36228037Y1005357D01*
X36228576Y1044125D01*
X36232551Y1077633D01*
X36239102Y1099611D01*
X36257210Y1121832D01*
X36285804Y1137791D01*
X36321635Y1145920D01*
X36336494Y1146629D01*
X36365208Y1146629D01*
X36367190Y1017815D01*
X36369172Y889000D01*
X36516129Y887036D01*
X36663086Y885071D01*
X36663086Y1146629D01*
X37490400Y1146629D01*
X37490400Y1553029D01*
X36663086Y1553029D01*
X36663086Y1683657D01*
X36351029Y1683657D01*
X36351029Y1555161D01*
X36283900Y1550925D01*
X36205310Y1540104D01*
X36135933Y1518279D01*
X36076041Y1485675D01*
X36025906Y1442513D01*
X35985800Y1389017D01*
X35955993Y1325409D01*
X35940034Y1268754D01*
X35934671Y1232487D01*
X35931691Y1187843D01*
X35930931Y1137820D01*
X35932226Y1085413D01*
X35932226Y1085413D01*
G37*
X35932226Y1085413D02*
X35935414Y1033618D01*
X35940330Y985431D01*
X35946812Y943847D01*
X35954695Y911864D01*
X35960266Y898072D01*
X35963855Y893600D01*
X35970595Y890310D01*
X35982486Y888025D01*
X36001528Y886567D01*
X36029719Y885758D01*
X36069059Y885422D01*
X36103332Y885372D01*
X36146342Y885562D01*
X36184184Y886091D01*
X36214534Y886896D01*
X36235070Y887917D01*
X36243466Y889089D01*
X36243497Y889117D01*
X36243913Y897642D01*
X36240978Y915554D01*
X36237450Y930612D01*
X36230980Y965971D01*
X36228037Y1005357D01*
X36228576Y1044125D01*
X36232551Y1077633D01*
X36239102Y1099611D01*
X36257210Y1121832D01*
X36285804Y1137791D01*
X36321635Y1145920D01*
X36336494Y1146629D01*
X36365208Y1146629D01*
X36367190Y1017815D01*
X36369172Y889000D01*
X36516129Y887036D01*
X36663086Y885071D01*
X36663086Y1146629D01*
X37490400Y1146629D01*
X37490400Y1553029D01*
X36663086Y1553029D01*
X36663086Y1683657D01*
X36351029Y1683657D01*
X36351029Y1555161D01*
X36283900Y1550925D01*
X36205310Y1540104D01*
X36135933Y1518279D01*
X36076041Y1485675D01*
X36025906Y1442513D01*
X35985800Y1389017D01*
X35955993Y1325409D01*
X35940034Y1268754D01*
X35934671Y1232487D01*
X35931691Y1187843D01*
X35930931Y1137820D01*
X35932226Y1085413D01*
G36*
X37490400Y319315D02*
X37490400Y725715D01*
X36351029Y725715D01*
X36351029Y319315D01*
X37490400Y319315D01*
X37490400Y319315D01*
G37*
X37490400Y319315D02*
X37490400Y725715D01*
X36351029Y725715D01*
X36351029Y319315D01*
X37490400Y319315D01*
G36*
X36719329Y-1522218D02*
X37490400Y-1524066D01*
X37490400Y-1110277D01*
X36719329Y-1112124D01*
X35948257Y-1113971D01*
X35948257Y-1520371D01*
X36719329Y-1522218D01*
X36719329Y-1522218D01*
G37*
X36719329Y-1522218D02*
X37490400Y-1524066D01*
X37490400Y-1110277D01*
X36719329Y-1112124D01*
X35948257Y-1113971D01*
X35948257Y-1520371D01*
X36719329Y-1522218D01*
G36*
X36333280Y-3492437D02*
X36721931Y-3494314D01*
X36351029Y-3813096D01*
X36351029Y-4040148D01*
X36351148Y-4095891D01*
X36351487Y-4146671D01*
X36352014Y-4190752D01*
X36352702Y-4226396D01*
X36353519Y-4251868D01*
X36354435Y-4265428D01*
X36354921Y-4267200D01*
X36360846Y-4262623D01*
X36376267Y-4249718D01*
X36399762Y-4229716D01*
X36429910Y-4203854D01*
X36465290Y-4173364D01*
X36504480Y-4139482D01*
X36546057Y-4103441D01*
X36588601Y-4066475D01*
X36630690Y-4029819D01*
X36670902Y-3994707D01*
X36707815Y-3962373D01*
X36740009Y-3934051D01*
X36766061Y-3910975D01*
X36784550Y-3894380D01*
X36788072Y-3891160D01*
X36807829Y-3872982D01*
X37132786Y-4067700D01*
X37195735Y-4105433D01*
X37255286Y-4141155D01*
X37310206Y-4174123D01*
X37359263Y-4203598D01*
X37401225Y-4228838D01*
X37434859Y-4249102D01*
X37458932Y-4263650D01*
X37472212Y-4271739D01*
X37474072Y-4272901D01*
X37490400Y-4283383D01*
X37490400Y-3834162D01*
X37298290Y-3716462D01*
X37106179Y-3598762D01*
X37165847Y-3544829D01*
X37225515Y-3490897D01*
X37357957Y-3490791D01*
X37490400Y-3490685D01*
X37490400Y-3084285D01*
X35944629Y-3084285D01*
X35944629Y-3490559D01*
X36333280Y-3492437D01*
X36333280Y-3492437D01*
G37*
X36333280Y-3492437D02*
X36721931Y-3494314D01*
X36351029Y-3813096D01*
X36351029Y-4040148D01*
X36351148Y-4095891D01*
X36351487Y-4146671D01*
X36352014Y-4190752D01*
X36352702Y-4226396D01*
X36353519Y-4251868D01*
X36354435Y-4265428D01*
X36354921Y-4267200D01*
X36360846Y-4262623D01*
X36376267Y-4249718D01*
X36399762Y-4229716D01*
X36429910Y-4203854D01*
X36465290Y-4173364D01*
X36504480Y-4139482D01*
X36546057Y-4103441D01*
X36588601Y-4066475D01*
X36630690Y-4029819D01*
X36670902Y-3994707D01*
X36707815Y-3962373D01*
X36740009Y-3934051D01*
X36766061Y-3910975D01*
X36784550Y-3894380D01*
X36788072Y-3891160D01*
X36807829Y-3872982D01*
X37132786Y-4067700D01*
X37195735Y-4105433D01*
X37255286Y-4141155D01*
X37310206Y-4174123D01*
X37359263Y-4203598D01*
X37401225Y-4228838D01*
X37434859Y-4249102D01*
X37458932Y-4263650D01*
X37472212Y-4271739D01*
X37474072Y-4272901D01*
X37490400Y-4283383D01*
X37490400Y-3834162D01*
X37298290Y-3716462D01*
X37106179Y-3598762D01*
X37165847Y-3544829D01*
X37225515Y-3490897D01*
X37357957Y-3490791D01*
X37490400Y-3490685D01*
X37490400Y-3084285D01*
X35944629Y-3084285D01*
X35944629Y-3490559D01*
X36333280Y-3492437D01*
G36*
X37490400Y-4760685D02*
X37490400Y-4347028D01*
X36351029Y-4347028D01*
X36351029Y-4760685D01*
X37490400Y-4760685D01*
X37490400Y-4760685D01*
G37*
X37490400Y-4760685D02*
X37490400Y-4347028D01*
X36351029Y-4347028D01*
X36351029Y-4760685D01*
X37490400Y-4760685D01*
G36*
X36814145Y-2297193D02*
X36832037Y-2333166D01*
X36851112Y-2353274D01*
X36887373Y-2375369D01*
X36926473Y-2384930D01*
X36965654Y-2382509D01*
X37002161Y-2368656D01*
X37033239Y-2343920D01*
X37054349Y-2312686D01*
X37067345Y-2273525D01*
X37066619Y-2235924D01*
X37053914Y-2200135D01*
X37029749Y-2166117D01*
X36997786Y-2142616D01*
X36960764Y-2130169D01*
X36921423Y-2129312D01*
X36882502Y-2140581D01*
X36851327Y-2160488D01*
X36824494Y-2190580D01*
X36810734Y-2225752D01*
X36808229Y-2253215D01*
X36814145Y-2297193D01*
X36814145Y-2297193D01*
G37*
X36814145Y-2297193D02*
X36832037Y-2333166D01*
X36851112Y-2353274D01*
X36887373Y-2375369D01*
X36926473Y-2384930D01*
X36965654Y-2382509D01*
X37002161Y-2368656D01*
X37033239Y-2343920D01*
X37054349Y-2312686D01*
X37067345Y-2273525D01*
X37066619Y-2235924D01*
X37053914Y-2200135D01*
X37029749Y-2166117D01*
X36997786Y-2142616D01*
X36960764Y-2130169D01*
X36921423Y-2129312D01*
X36882502Y-2140581D01*
X36851327Y-2160488D01*
X36824494Y-2190580D01*
X36810734Y-2225752D01*
X36808229Y-2253215D01*
X36814145Y-2297193D01*
G36*
X36242172Y319315D02*
X36242172Y747787D01*
X36095215Y745822D01*
X35948257Y743857D01*
X35946333Y531586D01*
X35944410Y319315D01*
X36242172Y319315D01*
X36242172Y319315D01*
G37*
X36242172Y319315D02*
X36242172Y747787D01*
X36095215Y745822D01*
X35948257Y743857D01*
X35946333Y531586D01*
X35944410Y319315D01*
X36242172Y319315D01*
G36*
X36242172Y-4775200D02*
X36242172Y-4346728D01*
X36095215Y-4348692D01*
X35948257Y-4350657D01*
X35946333Y-4562928D01*
X35944410Y-4775200D01*
X36242172Y-4775200D01*
X36242172Y-4775200D01*
G37*
X36242172Y-4775200D02*
X36242172Y-4346728D01*
X36095215Y-4348692D01*
X35948257Y-4350657D01*
X35946333Y-4562928D01*
X35944410Y-4775200D01*
X36242172Y-4775200D01*
G36*
X53352574Y2044247D02*
X53352097Y2088950D01*
X53351122Y2127439D01*
X53349503Y2161689D01*
X53347094Y2193672D01*
X53343746Y2225360D01*
X53339315Y2258727D01*
X53333652Y2295744D01*
X53327112Y2335417D01*
X53299070Y2471700D01*
X53261460Y2605228D01*
X53214610Y2735530D01*
X53158851Y2862133D01*
X53094515Y2984567D01*
X53021931Y3102359D01*
X52941430Y3215040D01*
X52853342Y3322136D01*
X52757998Y3423178D01*
X52655728Y3517693D01*
X52546863Y3605210D01*
X52431733Y3685258D01*
X52342923Y3739279D01*
X52216308Y3806163D01*
X52086881Y3863302D01*
X51954601Y3910705D01*
X51819425Y3948384D01*
X51681312Y3976349D01*
X51540220Y3994608D01*
X51396106Y4003173D01*
X51256209Y4002335D01*
X51116306Y3992126D01*
X50977865Y3972004D01*
X50841398Y3942172D01*
X50707418Y3902832D01*
X50576434Y3854187D01*
X50448959Y3796439D01*
X50325504Y3729791D01*
X50206580Y3654444D01*
X50092698Y3570602D01*
X50025496Y3515003D01*
X49992352Y3485148D01*
X49955048Y3449507D01*
X49915546Y3410113D01*
X49875808Y3368999D01*
X49837797Y3328197D01*
X49803475Y3289742D01*
X49774804Y3255665D01*
X49772977Y3253393D01*
X49687491Y3138818D01*
X49610574Y3019263D01*
X49542529Y2895277D01*
X49483660Y2767412D01*
X49437817Y2646680D01*
X49395988Y2509011D01*
X49364078Y2369668D01*
X49342139Y2229038D01*
X49330224Y2087511D01*
X49328383Y1945476D01*
X49332364Y1856740D01*
X49346911Y1715110D01*
X49371271Y1575596D01*
X49405234Y1438665D01*
X49448586Y1304782D01*
X49501118Y1174412D01*
X49562616Y1048021D01*
X49632870Y926075D01*
X49711668Y809038D01*
X49798799Y697377D01*
X49894050Y591557D01*
X49918689Y566488D01*
X50022626Y469613D01*
X50132228Y380971D01*
X50247017Y300705D01*
X50366513Y228956D01*
X50490238Y165867D01*
X50617711Y111580D01*
X50715438Y77687D01*
X50715438Y275872D01*
X50708406Y276875D01*
X50693628Y281537D01*
X50672588Y289270D01*
X50646768Y299489D01*
X50617653Y311605D01*
X50586726Y325031D01*
X50555548Y339145D01*
X50526938Y353221D01*
X50492329Y371559D01*
X50454156Y392760D01*
X50414855Y415424D01*
X50376863Y438153D01*
X50342617Y459546D01*
X50320060Y474414D01*
X50224800Y544187D01*
X50132478Y621481D01*
X50044595Y704801D01*
X49962652Y792652D01*
X49888148Y883540D01*
X49834289Y958350D01*
X49806186Y1006919D01*
X49781158Y1064545D01*
X49759402Y1130539D01*
X49741119Y1204214D01*
X49726506Y1284883D01*
X49716290Y1366520D01*
X49714571Y1393116D01*
X49713820Y1426563D01*
X49713998Y1463601D01*
X49715068Y1500970D01*
X49716993Y1535411D01*
X49718442Y1552327D01*
X49728026Y1619234D01*
X49742678Y1681190D01*
X49762004Y1737043D01*
X49785604Y1785644D01*
X49812883Y1825602D01*
X49837400Y1851828D01*
X49863399Y1871422D01*
X49893350Y1885736D01*
X49929720Y1896121D01*
X49948247Y1899769D01*
X49996908Y1910809D01*
X50037191Y1925583D01*
X50070434Y1944859D01*
X50097976Y1969401D01*
X50119906Y1998023D01*
X50135340Y2024908D01*
X50148576Y2054823D01*
X50159736Y2088591D01*
X50168947Y2127040D01*
X50176332Y2170993D01*
X50182016Y2221277D01*
X50186124Y2278717D01*
X50188780Y2344139D01*
X50190110Y2418367D01*
X50190322Y2464325D01*
X50191711Y2583592D01*
X50195728Y2693188D01*
X50202369Y2793082D01*
X50211632Y2883242D01*
X50223515Y2963640D01*
X50234147Y3017520D01*
X50260870Y3117917D01*
X50295191Y3213607D01*
X50336732Y3303906D01*
X50385115Y3388126D01*
X50439961Y3465585D01*
X50500892Y3535596D01*
X50541910Y3575278D01*
X50562495Y3593875D01*
X50535782Y3540647D01*
X50522669Y3513508D01*
X50509132Y3483819D01*
X50497160Y3456011D01*
X50491544Y3442044D01*
X50478804Y3405471D01*
X50465806Y3361764D01*
X50453284Y3313900D01*
X50441973Y3264855D01*
X50432609Y3217608D01*
X50426243Y3177540D01*
X50422535Y3141808D01*
X50419767Y3098544D01*
X50417962Y3050333D01*
X50417141Y2999760D01*
X50417325Y2949412D01*
X50418538Y2901874D01*
X50420800Y2859731D01*
X50423326Y2832100D01*
X50443417Y2697645D01*
X50472730Y2561074D01*
X50510923Y2423698D01*
X50557654Y2286826D01*
X50582012Y2224176D01*
X50590590Y2203078D01*
X50598799Y2183234D01*
X50607166Y2163471D01*
X50616215Y2142612D01*
X50626472Y2119484D01*
X50638462Y2092912D01*
X50652711Y2061721D01*
X50669743Y2024738D01*
X50690085Y1980786D01*
X50711699Y1934210D01*
X50769925Y1799575D01*
X50819176Y1665923D01*
X50859432Y1533555D01*
X50890674Y1402772D01*
X50912882Y1273877D01*
X50926036Y1147169D01*
X50930115Y1022952D01*
X50925100Y901526D01*
X50910970Y783193D01*
X50887707Y668255D01*
X50855290Y557014D01*
X50813699Y449770D01*
X50810335Y442179D01*
X50798737Y417461D01*
X50785235Y390665D01*
X50770745Y363392D01*
X50756179Y337241D01*
X50742451Y313812D01*
X50730473Y294706D01*
X50721158Y281524D01*
X50715438Y275872D01*
X50715438Y77687D01*
X50748455Y66236D01*
X50881990Y29978D01*
X51017836Y2949D01*
X51155516Y-14711D01*
X51294549Y-22859D01*
X51396928Y-21757D01*
X51396928Y162881D01*
X51336855Y162908D01*
X51275249Y164352D01*
X51214693Y167137D01*
X51157766Y171189D01*
X51107050Y176432D01*
X51084480Y179529D01*
X51050141Y185109D01*
X51013878Y191642D01*
X50976969Y198832D01*
X50940694Y206383D01*
X50906330Y213999D01*
X50875157Y221385D01*
X50848453Y228244D01*
X50827497Y234281D01*
X50813567Y239199D01*
X50807942Y242703D01*
X50808114Y243487D01*
X50812884Y246081D01*
X50826120Y252981D01*
X50847233Y263887D01*
X50875634Y278495D01*
X50910734Y296506D01*
X50951945Y317617D01*
X50998677Y341526D01*
X51050341Y367933D01*
X51106348Y396536D01*
X51166110Y427033D01*
X51229037Y459123D01*
X51294540Y492504D01*
X51296719Y493614D01*
X51362279Y527044D01*
X51425259Y559218D01*
X51485073Y589836D01*
X51541133Y618592D01*
X51592852Y645184D01*
X51639643Y669309D01*
X51680918Y690663D01*
X51716090Y708943D01*
X51744573Y723846D01*
X51765778Y735068D01*
X51779119Y742306D01*
X51784009Y745258D01*
X51784019Y745279D01*
X51779862Y748299D01*
X51767471Y755664D01*
X51747590Y766965D01*
X51720963Y781794D01*
X51688336Y799741D01*
X51650452Y820399D01*
X51608057Y843356D01*
X51561894Y868206D01*
X51512710Y894539D01*
X51495800Y903561D01*
X51445743Y930296D01*
X51398429Y955669D01*
X51354607Y979272D01*
X51315024Y1000696D01*
X51280428Y1019535D01*
X51251568Y1035381D01*
X51229192Y1047824D01*
X51214049Y1056458D01*
X51206885Y1060874D01*
X51206400Y1061336D01*
X51210816Y1064105D01*
X51223665Y1071222D01*
X51244357Y1082378D01*
X51272296Y1097259D01*
X51306891Y1115555D01*
X51347549Y1136954D01*
X51393675Y1161143D01*
X51444678Y1187812D01*
X51499964Y1216649D01*
X51558939Y1247342D01*
X51621011Y1279579D01*
X51675030Y1307582D01*
X51739316Y1340894D01*
X51801060Y1372918D01*
X51859666Y1403342D01*
X51914534Y1431854D01*
X51965065Y1458142D01*
X52010662Y1481894D01*
X52050725Y1502799D01*
X52084656Y1520543D01*
X52111856Y1534815D01*
X52131726Y1545303D01*
X52143668Y1551695D01*
X52147131Y1553666D01*
X52143261Y1556490D01*
X52131038Y1563742D01*
X52111080Y1575087D01*
X52084006Y1590185D01*
X52050434Y1608697D01*
X52010982Y1630287D01*
X51966270Y1654615D01*
X51916915Y1681343D01*
X51863536Y1710133D01*
X51806751Y1740647D01*
X51747179Y1772547D01*
X51736975Y1778000D01*
X51676925Y1810109D01*
X51619493Y1840871D01*
X51565305Y1869948D01*
X51514985Y1897003D01*
X51469158Y1921698D01*
X51428449Y1943696D01*
X51393482Y1962658D01*
X51364882Y1978246D01*
X51343275Y1990125D01*
X51329284Y1997954D01*
X51323534Y2001398D01*
X51323421Y2001520D01*
X51327807Y2004287D01*
X51340354Y2011239D01*
X51360185Y2021911D01*
X51386424Y2035841D01*
X51418197Y2052566D01*
X51454628Y2071625D01*
X51494840Y2092554D01*
X51537959Y2114890D01*
X51539267Y2115566D01*
X51582463Y2137959D01*
X51622775Y2158990D01*
X51659327Y2178195D01*
X51691244Y2195106D01*
X51717648Y2209257D01*
X51737666Y2220182D01*
X51750421Y2227413D01*
X51755037Y2230485D01*
X51755040Y2230507D01*
X51750663Y2233355D01*
X51737956Y2240634D01*
X51717557Y2251996D01*
X51690103Y2267096D01*
X51656232Y2285587D01*
X51616581Y2307123D01*
X51571788Y2331358D01*
X51522490Y2357945D01*
X51469325Y2386537D01*
X51412931Y2416790D01*
X51357530Y2446439D01*
X51298173Y2478177D01*
X51241067Y2508724D01*
X51186893Y2537715D01*
X51136329Y2564788D01*
X51090054Y2589578D01*
X51048746Y2611722D01*
X51013085Y2630855D01*
X50983748Y2646614D01*
X50961415Y2658635D01*
X50946764Y2666555D01*
X50940750Y2669850D01*
X50921480Y2680762D01*
X51123630Y2785298D01*
X51165374Y2806977D01*
X51204177Y2827307D01*
X51239137Y2845803D01*
X51269355Y2861980D01*
X51293930Y2875354D01*
X51311960Y2885438D01*
X51322545Y2891749D01*
X51325054Y2893734D01*
X51320561Y2896938D01*
X51308094Y2904342D01*
X51288655Y2915387D01*
X51263249Y2929514D01*
X51232877Y2946167D01*
X51198545Y2964787D01*
X51161330Y2984776D01*
X51124222Y3004736D01*
X51090241Y3023248D01*
X51060359Y3039764D01*
X51035551Y3053736D01*
X51016792Y3064614D01*
X51005054Y3071850D01*
X51001311Y3074896D01*
X51001320Y3074906D01*
X51006208Y3077665D01*
X51019418Y3084714D01*
X51040241Y3095683D01*
X51067970Y3110205D01*
X51101898Y3127910D01*
X51141316Y3148430D01*
X51185518Y3171395D01*
X51233795Y3196437D01*
X51285440Y3223187D01*
X51339745Y3251277D01*
X51341485Y3252176D01*
X51395776Y3280272D01*
X51447357Y3307032D01*
X51495529Y3332089D01*
X51539594Y3355076D01*
X51578850Y3375625D01*
X51612600Y3393371D01*
X51640144Y3407947D01*
X51660782Y3418984D01*
X51673814Y3426117D01*
X51678543Y3428979D01*
X51678549Y3429000D01*
X51674243Y3431892D01*
X51661829Y3439438D01*
X51642008Y3451230D01*
X51615481Y3466857D01*
X51582949Y3485910D01*
X51545111Y3507979D01*
X51502669Y3532654D01*
X51456323Y3559527D01*
X51406773Y3588187D01*
X51366199Y3611607D01*
X51314730Y3641370D01*
X51266012Y3669696D01*
X51220736Y3696176D01*
X51179591Y3720399D01*
X51143268Y3741953D01*
X51112456Y3760427D01*
X51087845Y3775411D01*
X51070125Y3786494D01*
X51059987Y3793265D01*
X51057792Y3795296D01*
X51066184Y3798675D01*
X51083401Y3802056D01*
X51108106Y3805336D01*
X51138965Y3808413D01*
X51174642Y3811186D01*
X51213802Y3813551D01*
X51255109Y3815406D01*
X51297229Y3816649D01*
X51338826Y3817178D01*
X51343560Y3817189D01*
X51430932Y3815864D01*
X51511416Y3811482D01*
X51587909Y3803720D01*
X51663308Y3792256D01*
X51740510Y3776766D01*
X51772820Y3769304D01*
X51901995Y3733594D01*
X52026343Y3689209D01*
X52146642Y3635807D01*
X52263668Y3573049D01*
X52364640Y3509758D01*
X52417426Y3473355D01*
X52465184Y3438006D01*
X52510254Y3401773D01*
X52554971Y3362714D01*
X52601675Y3318891D01*
X52639179Y3281965D01*
X52703908Y3214741D01*
X52761362Y3149573D01*
X52813409Y3084090D01*
X52861919Y3015921D01*
X52908760Y2942697D01*
X52915674Y2931270D01*
X52980743Y2813339D01*
X53036448Y2692028D01*
X53082804Y2567867D01*
X53119824Y2441384D01*
X53147523Y2313108D01*
X53165916Y2183566D01*
X53175016Y2053287D01*
X53174838Y1922801D01*
X53165397Y1792635D01*
X53146707Y1663317D01*
X53118782Y1535377D01*
X53081637Y1409343D01*
X53035286Y1285743D01*
X52979743Y1165105D01*
X52915023Y1047959D01*
X52862160Y965200D01*
X52782031Y855813D01*
X52694709Y753362D01*
X52600652Y658118D01*
X52500320Y570350D01*
X52394172Y490326D01*
X52282667Y418317D01*
X52166264Y354592D01*
X52045423Y299419D01*
X51920603Y253070D01*
X51792264Y215812D01*
X51660863Y187916D01*
X51526861Y169650D01*
X51502156Y167376D01*
X51452889Y164345D01*
X51396928Y162881D01*
X51396928Y-21757D01*
X51434456Y-21352D01*
X51574759Y-10049D01*
X51714978Y11193D01*
X51760466Y20263D01*
X51897328Y54260D01*
X52030282Y97392D01*
X52158975Y149295D01*
X52283059Y209605D01*
X52402183Y277959D01*
X52515995Y353993D01*
X52624146Y437342D01*
X52726285Y527644D01*
X52822061Y624533D01*
X52911124Y727648D01*
X52993123Y836623D01*
X53067708Y951095D01*
X53134528Y1070699D01*
X53193232Y1195074D01*
X53243470Y1323853D01*
X53284892Y1456674D01*
X53317146Y1593174D01*
X53326924Y1645920D01*
X53333912Y1687705D01*
X53339529Y1724311D01*
X53343921Y1757688D01*
X53347233Y1789785D01*
X53349612Y1822553D01*
X53351202Y1857941D01*
X53352150Y1897900D01*
X53352600Y1944378D01*
X53352700Y1991360D01*
X53352574Y2044247D01*
X53352574Y2044247D01*
G37*
X53352574Y2044247D02*
X53352097Y2088950D01*
X53351122Y2127439D01*
X53349503Y2161689D01*
X53347094Y2193672D01*
X53343746Y2225360D01*
X53339315Y2258727D01*
X53333652Y2295744D01*
X53327112Y2335417D01*
X53299070Y2471700D01*
X53261460Y2605228D01*
X53214610Y2735530D01*
X53158851Y2862133D01*
X53094515Y2984567D01*
X53021931Y3102359D01*
X52941430Y3215040D01*
X52853342Y3322136D01*
X52757998Y3423178D01*
X52655728Y3517693D01*
X52546863Y3605210D01*
X52431733Y3685258D01*
X52342923Y3739279D01*
X52216308Y3806163D01*
X52086881Y3863302D01*
X51954601Y3910705D01*
X51819425Y3948384D01*
X51681312Y3976349D01*
X51540220Y3994608D01*
X51396106Y4003173D01*
X51256209Y4002335D01*
X51116306Y3992126D01*
X50977865Y3972004D01*
X50841398Y3942172D01*
X50707418Y3902832D01*
X50576434Y3854187D01*
X50448959Y3796439D01*
X50325504Y3729791D01*
X50206580Y3654444D01*
X50092698Y3570602D01*
X50025496Y3515003D01*
X49992352Y3485148D01*
X49955048Y3449507D01*
X49915546Y3410113D01*
X49875808Y3368999D01*
X49837797Y3328197D01*
X49803475Y3289742D01*
X49774804Y3255665D01*
X49772977Y3253393D01*
X49687491Y3138818D01*
X49610574Y3019263D01*
X49542529Y2895277D01*
X49483660Y2767412D01*
X49437817Y2646680D01*
X49395988Y2509011D01*
X49364078Y2369668D01*
X49342139Y2229038D01*
X49330224Y2087511D01*
X49328383Y1945476D01*
X49332364Y1856740D01*
X49346911Y1715110D01*
X49371271Y1575596D01*
X49405234Y1438665D01*
X49448586Y1304782D01*
X49501118Y1174412D01*
X49562616Y1048021D01*
X49632870Y926075D01*
X49711668Y809038D01*
X49798799Y697377D01*
X49894050Y591557D01*
X49918689Y566488D01*
X50022626Y469613D01*
X50132228Y380971D01*
X50247017Y300705D01*
X50366513Y228956D01*
X50490238Y165867D01*
X50617711Y111580D01*
X50715438Y77687D01*
X50715438Y275872D01*
X50708406Y276875D01*
X50693628Y281537D01*
X50672588Y289270D01*
X50646768Y299489D01*
X50617653Y311605D01*
X50586726Y325031D01*
X50555548Y339145D01*
X50526938Y353221D01*
X50492329Y371559D01*
X50454156Y392760D01*
X50414855Y415424D01*
X50376863Y438153D01*
X50342617Y459546D01*
X50320060Y474414D01*
X50224800Y544187D01*
X50132478Y621481D01*
X50044595Y704801D01*
X49962652Y792652D01*
X49888148Y883540D01*
X49834289Y958350D01*
X49806186Y1006919D01*
X49781158Y1064545D01*
X49759402Y1130539D01*
X49741119Y1204214D01*
X49726506Y1284883D01*
X49716290Y1366520D01*
X49714571Y1393116D01*
X49713820Y1426563D01*
X49713998Y1463601D01*
X49715068Y1500970D01*
X49716993Y1535411D01*
X49718442Y1552327D01*
X49728026Y1619234D01*
X49742678Y1681190D01*
X49762004Y1737043D01*
X49785604Y1785644D01*
X49812883Y1825602D01*
X49837400Y1851828D01*
X49863399Y1871422D01*
X49893350Y1885736D01*
X49929720Y1896121D01*
X49948247Y1899769D01*
X49996908Y1910809D01*
X50037191Y1925583D01*
X50070434Y1944859D01*
X50097976Y1969401D01*
X50119906Y1998023D01*
X50135340Y2024908D01*
X50148576Y2054823D01*
X50159736Y2088591D01*
X50168947Y2127040D01*
X50176332Y2170993D01*
X50182016Y2221277D01*
X50186124Y2278717D01*
X50188780Y2344139D01*
X50190110Y2418367D01*
X50190322Y2464325D01*
X50191711Y2583592D01*
X50195728Y2693188D01*
X50202369Y2793082D01*
X50211632Y2883242D01*
X50223515Y2963640D01*
X50234147Y3017520D01*
X50260870Y3117917D01*
X50295191Y3213607D01*
X50336732Y3303906D01*
X50385115Y3388126D01*
X50439961Y3465585D01*
X50500892Y3535596D01*
X50541910Y3575278D01*
X50562495Y3593875D01*
X50535782Y3540647D01*
X50522669Y3513508D01*
X50509132Y3483819D01*
X50497160Y3456011D01*
X50491544Y3442044D01*
X50478804Y3405471D01*
X50465806Y3361764D01*
X50453284Y3313900D01*
X50441973Y3264855D01*
X50432609Y3217608D01*
X50426243Y3177540D01*
X50422535Y3141808D01*
X50419767Y3098544D01*
X50417962Y3050333D01*
X50417141Y2999760D01*
X50417325Y2949412D01*
X50418538Y2901874D01*
X50420800Y2859731D01*
X50423326Y2832100D01*
X50443417Y2697645D01*
X50472730Y2561074D01*
X50510923Y2423698D01*
X50557654Y2286826D01*
X50582012Y2224176D01*
X50590590Y2203078D01*
X50598799Y2183234D01*
X50607166Y2163471D01*
X50616215Y2142612D01*
X50626472Y2119484D01*
X50638462Y2092912D01*
X50652711Y2061721D01*
X50669743Y2024738D01*
X50690085Y1980786D01*
X50711699Y1934210D01*
X50769925Y1799575D01*
X50819176Y1665923D01*
X50859432Y1533555D01*
X50890674Y1402772D01*
X50912882Y1273877D01*
X50926036Y1147169D01*
X50930115Y1022952D01*
X50925100Y901526D01*
X50910970Y783193D01*
X50887707Y668255D01*
X50855290Y557014D01*
X50813699Y449770D01*
X50810335Y442179D01*
X50798737Y417461D01*
X50785235Y390665D01*
X50770745Y363392D01*
X50756179Y337241D01*
X50742451Y313812D01*
X50730473Y294706D01*
X50721158Y281524D01*
X50715438Y275872D01*
X50715438Y77687D01*
X50748455Y66236D01*
X50881990Y29978D01*
X51017836Y2949D01*
X51155516Y-14711D01*
X51294549Y-22859D01*
X51396928Y-21757D01*
X51396928Y162881D01*
X51336855Y162908D01*
X51275249Y164352D01*
X51214693Y167137D01*
X51157766Y171189D01*
X51107050Y176432D01*
X51084480Y179529D01*
X51050141Y185109D01*
X51013878Y191642D01*
X50976969Y198832D01*
X50940694Y206383D01*
X50906330Y213999D01*
X50875157Y221385D01*
X50848453Y228244D01*
X50827497Y234281D01*
X50813567Y239199D01*
X50807942Y242703D01*
X50808114Y243487D01*
X50812884Y246081D01*
X50826120Y252981D01*
X50847233Y263887D01*
X50875634Y278495D01*
X50910734Y296506D01*
X50951945Y317617D01*
X50998677Y341526D01*
X51050341Y367933D01*
X51106348Y396536D01*
X51166110Y427033D01*
X51229037Y459123D01*
X51294540Y492504D01*
X51296719Y493614D01*
X51362279Y527044D01*
X51425259Y559218D01*
X51485073Y589836D01*
X51541133Y618592D01*
X51592852Y645184D01*
X51639643Y669309D01*
X51680918Y690663D01*
X51716090Y708943D01*
X51744573Y723846D01*
X51765778Y735068D01*
X51779119Y742306D01*
X51784009Y745258D01*
X51784019Y745279D01*
X51779862Y748299D01*
X51767471Y755664D01*
X51747590Y766965D01*
X51720963Y781794D01*
X51688336Y799741D01*
X51650452Y820399D01*
X51608057Y843356D01*
X51561894Y868206D01*
X51512710Y894539D01*
X51495800Y903561D01*
X51445743Y930296D01*
X51398429Y955669D01*
X51354607Y979272D01*
X51315024Y1000696D01*
X51280428Y1019535D01*
X51251568Y1035381D01*
X51229192Y1047824D01*
X51214049Y1056458D01*
X51206885Y1060874D01*
X51206400Y1061336D01*
X51210816Y1064105D01*
X51223665Y1071222D01*
X51244357Y1082378D01*
X51272296Y1097259D01*
X51306891Y1115555D01*
X51347549Y1136954D01*
X51393675Y1161143D01*
X51444678Y1187812D01*
X51499964Y1216649D01*
X51558939Y1247342D01*
X51621011Y1279579D01*
X51675030Y1307582D01*
X51739316Y1340894D01*
X51801060Y1372918D01*
X51859666Y1403342D01*
X51914534Y1431854D01*
X51965065Y1458142D01*
X52010662Y1481894D01*
X52050725Y1502799D01*
X52084656Y1520543D01*
X52111856Y1534815D01*
X52131726Y1545303D01*
X52143668Y1551695D01*
X52147131Y1553666D01*
X52143261Y1556490D01*
X52131038Y1563742D01*
X52111080Y1575087D01*
X52084006Y1590185D01*
X52050434Y1608697D01*
X52010982Y1630287D01*
X51966270Y1654615D01*
X51916915Y1681343D01*
X51863536Y1710133D01*
X51806751Y1740647D01*
X51747179Y1772547D01*
X51736975Y1778000D01*
X51676925Y1810109D01*
X51619493Y1840871D01*
X51565305Y1869948D01*
X51514985Y1897003D01*
X51469158Y1921698D01*
X51428449Y1943696D01*
X51393482Y1962658D01*
X51364882Y1978246D01*
X51343275Y1990125D01*
X51329284Y1997954D01*
X51323534Y2001398D01*
X51323421Y2001520D01*
X51327807Y2004287D01*
X51340354Y2011239D01*
X51360185Y2021911D01*
X51386424Y2035841D01*
X51418197Y2052566D01*
X51454628Y2071625D01*
X51494840Y2092554D01*
X51537959Y2114890D01*
X51539267Y2115566D01*
X51582463Y2137959D01*
X51622775Y2158990D01*
X51659327Y2178195D01*
X51691244Y2195106D01*
X51717648Y2209257D01*
X51737666Y2220182D01*
X51750421Y2227413D01*
X51755037Y2230485D01*
X51755040Y2230507D01*
X51750663Y2233355D01*
X51737956Y2240634D01*
X51717557Y2251996D01*
X51690103Y2267096D01*
X51656232Y2285587D01*
X51616581Y2307123D01*
X51571788Y2331358D01*
X51522490Y2357945D01*
X51469325Y2386537D01*
X51412931Y2416790D01*
X51357530Y2446439D01*
X51298173Y2478177D01*
X51241067Y2508724D01*
X51186893Y2537715D01*
X51136329Y2564788D01*
X51090054Y2589578D01*
X51048746Y2611722D01*
X51013085Y2630855D01*
X50983748Y2646614D01*
X50961415Y2658635D01*
X50946764Y2666555D01*
X50940750Y2669850D01*
X50921480Y2680762D01*
X51123630Y2785298D01*
X51165374Y2806977D01*
X51204177Y2827307D01*
X51239137Y2845803D01*
X51269355Y2861980D01*
X51293930Y2875354D01*
X51311960Y2885438D01*
X51322545Y2891749D01*
X51325054Y2893734D01*
X51320561Y2896938D01*
X51308094Y2904342D01*
X51288655Y2915387D01*
X51263249Y2929514D01*
X51232877Y2946167D01*
X51198545Y2964787D01*
X51161330Y2984776D01*
X51124222Y3004736D01*
X51090241Y3023248D01*
X51060359Y3039764D01*
X51035551Y3053736D01*
X51016792Y3064614D01*
X51005054Y3071850D01*
X51001311Y3074896D01*
X51001320Y3074906D01*
X51006208Y3077665D01*
X51019418Y3084714D01*
X51040241Y3095683D01*
X51067970Y3110205D01*
X51101898Y3127910D01*
X51141316Y3148430D01*
X51185518Y3171395D01*
X51233795Y3196437D01*
X51285440Y3223187D01*
X51339745Y3251277D01*
X51341485Y3252176D01*
X51395776Y3280272D01*
X51447357Y3307032D01*
X51495529Y3332089D01*
X51539594Y3355076D01*
X51578850Y3375625D01*
X51612600Y3393371D01*
X51640144Y3407947D01*
X51660782Y3418984D01*
X51673814Y3426117D01*
X51678543Y3428979D01*
X51678549Y3429000D01*
X51674243Y3431892D01*
X51661829Y3439438D01*
X51642008Y3451230D01*
X51615481Y3466857D01*
X51582949Y3485910D01*
X51545111Y3507979D01*
X51502669Y3532654D01*
X51456323Y3559527D01*
X51406773Y3588187D01*
X51366199Y3611607D01*
X51314730Y3641370D01*
X51266012Y3669696D01*
X51220736Y3696176D01*
X51179591Y3720399D01*
X51143268Y3741953D01*
X51112456Y3760427D01*
X51087845Y3775411D01*
X51070125Y3786494D01*
X51059987Y3793265D01*
X51057792Y3795296D01*
X51066184Y3798675D01*
X51083401Y3802056D01*
X51108106Y3805336D01*
X51138965Y3808413D01*
X51174642Y3811186D01*
X51213802Y3813551D01*
X51255109Y3815406D01*
X51297229Y3816649D01*
X51338826Y3817178D01*
X51343560Y3817189D01*
X51430932Y3815864D01*
X51511416Y3811482D01*
X51587909Y3803720D01*
X51663308Y3792256D01*
X51740510Y3776766D01*
X51772820Y3769304D01*
X51901995Y3733594D01*
X52026343Y3689209D01*
X52146642Y3635807D01*
X52263668Y3573049D01*
X52364640Y3509758D01*
X52417426Y3473355D01*
X52465184Y3438006D01*
X52510254Y3401773D01*
X52554971Y3362714D01*
X52601675Y3318891D01*
X52639179Y3281965D01*
X52703908Y3214741D01*
X52761362Y3149573D01*
X52813409Y3084090D01*
X52861919Y3015921D01*
X52908760Y2942697D01*
X52915674Y2931270D01*
X52980743Y2813339D01*
X53036448Y2692028D01*
X53082804Y2567867D01*
X53119824Y2441384D01*
X53147523Y2313108D01*
X53165916Y2183566D01*
X53175016Y2053287D01*
X53174838Y1922801D01*
X53165397Y1792635D01*
X53146707Y1663317D01*
X53118782Y1535377D01*
X53081637Y1409343D01*
X53035286Y1285743D01*
X52979743Y1165105D01*
X52915023Y1047959D01*
X52862160Y965200D01*
X52782031Y855813D01*
X52694709Y753362D01*
X52600652Y658118D01*
X52500320Y570350D01*
X52394172Y490326D01*
X52282667Y418317D01*
X52166264Y354592D01*
X52045423Y299419D01*
X51920603Y253070D01*
X51792264Y215812D01*
X51660863Y187916D01*
X51526861Y169650D01*
X51502156Y167376D01*
X51452889Y164345D01*
X51396928Y162881D01*
X51396928Y-21757D01*
X51434456Y-21352D01*
X51574759Y-10049D01*
X51714978Y11193D01*
X51760466Y20263D01*
X51897328Y54260D01*
X52030282Y97392D01*
X52158975Y149295D01*
X52283059Y209605D01*
X52402183Y277959D01*
X52515995Y353993D01*
X52624146Y437342D01*
X52726285Y527644D01*
X52822061Y624533D01*
X52911124Y727648D01*
X52993123Y836623D01*
X53067708Y951095D01*
X53134528Y1070699D01*
X53193232Y1195074D01*
X53243470Y1323853D01*
X53284892Y1456674D01*
X53317146Y1593174D01*
X53326924Y1645920D01*
X53333912Y1687705D01*
X53339529Y1724311D01*
X53343921Y1757688D01*
X53347233Y1789785D01*
X53349612Y1822553D01*
X53351202Y1857941D01*
X53352150Y1897900D01*
X53352600Y1944378D01*
X53352700Y1991360D01*
X53352574Y2044247D01*
G36*
X51795621Y14323194D02*
X51795452Y14359398D01*
X51795188Y14390951D01*
X51794844Y14416654D01*
X51794434Y14435311D01*
X51793973Y14445726D01*
X51793677Y14447520D01*
X51787894Y14445746D01*
X51773316Y14440602D01*
X51750635Y14432349D01*
X51720546Y14421250D01*
X51683740Y14407570D01*
X51640910Y14391571D01*
X51592749Y14373515D01*
X51539951Y14353666D01*
X51483207Y14332287D01*
X51423211Y14309641D01*
X51360656Y14285991D01*
X51296234Y14261600D01*
X51230638Y14236731D01*
X51164561Y14211647D01*
X51098696Y14186611D01*
X51033735Y14161886D01*
X50970372Y14137736D01*
X50909300Y14114422D01*
X50851210Y14092209D01*
X50796796Y14071359D01*
X50746751Y14052136D01*
X50701768Y14034801D01*
X50662539Y14019619D01*
X50629757Y14006852D01*
X50604116Y13996764D01*
X50586307Y13989617D01*
X50577024Y13985675D01*
X50576480Y13985412D01*
X50520286Y13953447D01*
X50473662Y13918647D01*
X50436340Y13880716D01*
X50408052Y13839356D01*
X50388531Y13794269D01*
X50381774Y13769340D01*
X50375735Y13732677D01*
X50372092Y13690597D01*
X50371058Y13647604D01*
X50372844Y13608205D01*
X50373778Y13599266D01*
X50383112Y13546269D01*
X50398889Y13493275D01*
X50404836Y13477240D01*
X50413617Y13455801D01*
X50423198Y13434527D01*
X50432553Y13415459D01*
X50440655Y13400637D01*
X50446478Y13392102D01*
X50448284Y13390826D01*
X50454606Y13392887D01*
X50468273Y13398642D01*
X50487755Y13407361D01*
X50511528Y13418313D01*
X50538063Y13430766D01*
X50565834Y13443989D01*
X50593313Y13457250D01*
X50618975Y13469820D01*
X50641292Y13480965D01*
X50658737Y13489956D01*
X50669783Y13496061D01*
X50673000Y13498441D01*
X50670857Y13505181D01*
X50665341Y13517715D01*
X50660258Y13528123D01*
X50643331Y13569376D01*
X50634544Y13609556D01*
X50634143Y13647111D01*
X50638031Y13667740D01*
X50645771Y13684288D01*
X50658774Y13701653D01*
X50674273Y13716851D01*
X50689495Y13726903D01*
X50694743Y13728781D01*
X50701580Y13727395D01*
X50717837Y13722203D01*
X50743512Y13713206D01*
X50778604Y13700404D01*
X50823113Y13683798D01*
X50877036Y13663387D01*
X50940373Y13639173D01*
X51013124Y13611156D01*
X51095286Y13579335D01*
X51186860Y13543712D01*
X51246203Y13520560D01*
X51316949Y13492947D01*
X51385072Y13466389D01*
X51449971Y13441118D01*
X51511047Y13417366D01*
X51567701Y13395365D01*
X51619334Y13375348D01*
X51665344Y13357547D01*
X51705133Y13342193D01*
X51738102Y13329519D01*
X51763649Y13319757D01*
X51781177Y13313140D01*
X51790085Y13309899D01*
X51791103Y13309600D01*
X51792345Y13314544D01*
X51793343Y13328841D01*
X51794081Y13351686D01*
X51794542Y13382274D01*
X51794710Y13419799D01*
X51794568Y13463458D01*
X51794480Y13475548D01*
X51793140Y13641496D01*
X51427932Y13763230D01*
X51062724Y13884965D01*
X51321252Y13968007D01*
X51374770Y13985189D01*
X51428917Y14002558D01*
X51482242Y14019648D01*
X51533291Y14035994D01*
X51580611Y14051133D01*
X51622751Y14064598D01*
X51658257Y14075925D01*
X51685676Y14084648D01*
X51687730Y14085300D01*
X51795680Y14119551D01*
X51795680Y14283535D01*
X51795621Y14323194D01*
X51795621Y14323194D01*
G37*
X51795621Y14323194D02*
X51795452Y14359398D01*
X51795188Y14390951D01*
X51794844Y14416654D01*
X51794434Y14435311D01*
X51793973Y14445726D01*
X51793677Y14447520D01*
X51787894Y14445746D01*
X51773316Y14440602D01*
X51750635Y14432349D01*
X51720546Y14421250D01*
X51683740Y14407570D01*
X51640910Y14391571D01*
X51592749Y14373515D01*
X51539951Y14353666D01*
X51483207Y14332287D01*
X51423211Y14309641D01*
X51360656Y14285991D01*
X51296234Y14261600D01*
X51230638Y14236731D01*
X51164561Y14211647D01*
X51098696Y14186611D01*
X51033735Y14161886D01*
X50970372Y14137736D01*
X50909300Y14114422D01*
X50851210Y14092209D01*
X50796796Y14071359D01*
X50746751Y14052136D01*
X50701768Y14034801D01*
X50662539Y14019619D01*
X50629757Y14006852D01*
X50604116Y13996764D01*
X50586307Y13989617D01*
X50577024Y13985675D01*
X50576480Y13985412D01*
X50520286Y13953447D01*
X50473662Y13918647D01*
X50436340Y13880716D01*
X50408052Y13839356D01*
X50388531Y13794269D01*
X50381774Y13769340D01*
X50375735Y13732677D01*
X50372092Y13690597D01*
X50371058Y13647604D01*
X50372844Y13608205D01*
X50373778Y13599266D01*
X50383112Y13546269D01*
X50398889Y13493275D01*
X50404836Y13477240D01*
X50413617Y13455801D01*
X50423198Y13434527D01*
X50432553Y13415459D01*
X50440655Y13400637D01*
X50446478Y13392102D01*
X50448284Y13390826D01*
X50454606Y13392887D01*
X50468273Y13398642D01*
X50487755Y13407361D01*
X50511528Y13418313D01*
X50538063Y13430766D01*
X50565834Y13443989D01*
X50593313Y13457250D01*
X50618975Y13469820D01*
X50641292Y13480965D01*
X50658737Y13489956D01*
X50669783Y13496061D01*
X50673000Y13498441D01*
X50670857Y13505181D01*
X50665341Y13517715D01*
X50660258Y13528123D01*
X50643331Y13569376D01*
X50634544Y13609556D01*
X50634143Y13647111D01*
X50638031Y13667740D01*
X50645771Y13684288D01*
X50658774Y13701653D01*
X50674273Y13716851D01*
X50689495Y13726903D01*
X50694743Y13728781D01*
X50701580Y13727395D01*
X50717837Y13722203D01*
X50743512Y13713206D01*
X50778604Y13700404D01*
X50823113Y13683798D01*
X50877036Y13663387D01*
X50940373Y13639173D01*
X51013124Y13611156D01*
X51095286Y13579335D01*
X51186860Y13543712D01*
X51246203Y13520560D01*
X51316949Y13492947D01*
X51385072Y13466389D01*
X51449971Y13441118D01*
X51511047Y13417366D01*
X51567701Y13395365D01*
X51619334Y13375348D01*
X51665344Y13357547D01*
X51705133Y13342193D01*
X51738102Y13329519D01*
X51763649Y13319757D01*
X51781177Y13313140D01*
X51790085Y13309899D01*
X51791103Y13309600D01*
X51792345Y13314544D01*
X51793343Y13328841D01*
X51794081Y13351686D01*
X51794542Y13382274D01*
X51794710Y13419799D01*
X51794568Y13463458D01*
X51794480Y13475548D01*
X51793140Y13641496D01*
X51427932Y13763230D01*
X51062724Y13884965D01*
X51321252Y13968007D01*
X51374770Y13985189D01*
X51428917Y14002558D01*
X51482242Y14019648D01*
X51533291Y14035994D01*
X51580611Y14051133D01*
X51622751Y14064598D01*
X51658257Y14075925D01*
X51685676Y14084648D01*
X51687730Y14085300D01*
X51795680Y14119551D01*
X51795680Y14283535D01*
X51795621Y14323194D01*
G36*
X51813028Y4961048D02*
X51802886Y5030729D01*
X51785682Y5094524D01*
X51761015Y5153489D01*
X51728482Y5208684D01*
X51687680Y5261167D01*
X51663305Y5287490D01*
X51631823Y5319720D01*
X51600722Y5289737D01*
X51586782Y5276417D01*
X51567283Y5257945D01*
X51544101Y5236093D01*
X51519116Y5212632D01*
X51497333Y5192252D01*
X51425045Y5124749D01*
X51456594Y5089941D01*
X51489046Y5050833D01*
X51513163Y5013636D01*
X51529938Y4976237D01*
X51540367Y4936524D01*
X51544721Y4902744D01*
X51544287Y4851300D01*
X51534321Y4803366D01*
X51514857Y4759035D01*
X51485933Y4718400D01*
X51465894Y4697555D01*
X51424324Y4664505D01*
X51378714Y4640235D01*
X51328384Y4624493D01*
X51272655Y4617025D01*
X51247040Y4616296D01*
X51189581Y4620724D01*
X51136164Y4633834D01*
X51087544Y4655334D01*
X51044476Y4684930D01*
X51025849Y4702075D01*
X50995069Y4738642D01*
X50972922Y4777973D01*
X50958874Y4821457D01*
X50952391Y4870483D01*
X50951800Y4894744D01*
X50955935Y4943403D01*
X50968265Y4989824D01*
X50989307Y5035317D01*
X51019584Y5081192D01*
X51032160Y5097214D01*
X51044671Y5112714D01*
X51055050Y5125842D01*
X51061256Y5134013D01*
X51061620Y5134533D01*
X51061746Y5138337D01*
X51058074Y5144963D01*
X51049953Y5155135D01*
X51036731Y5169580D01*
X51017758Y5189020D01*
X50992381Y5214182D01*
X50973049Y5233068D01*
X50879397Y5324198D01*
X50849545Y5294809D01*
X50810983Y5252849D01*
X50775461Y5206464D01*
X50744562Y5158079D01*
X50719869Y5110119D01*
X50706143Y5075191D01*
X50694728Y5032381D01*
X50686148Y4982841D01*
X50680615Y4929660D01*
X50678339Y4875921D01*
X50679529Y4824713D01*
X50684397Y4779121D01*
X50685512Y4772660D01*
X50703608Y4699824D01*
X50730271Y4630604D01*
X50764895Y4566007D01*
X50806875Y4507042D01*
X50855607Y4454718D01*
X50897060Y4419807D01*
X50958985Y4379208D01*
X51024537Y4347477D01*
X51092805Y4324514D01*
X51162878Y4310220D01*
X51233843Y4304496D01*
X51304789Y4307244D01*
X51374804Y4318365D01*
X51442976Y4337759D01*
X51508394Y4365327D01*
X51570146Y4400971D01*
X51627319Y4444592D01*
X51679002Y4496090D01*
X51687134Y4505569D01*
X51730583Y4564602D01*
X51765000Y4627424D01*
X51790535Y4694478D01*
X51807341Y4766207D01*
X51815569Y4843055D01*
X51816511Y4884420D01*
X51813028Y4961048D01*
X51813028Y4961048D01*
G37*
X51813028Y4961048D02*
X51802886Y5030729D01*
X51785682Y5094524D01*
X51761015Y5153489D01*
X51728482Y5208684D01*
X51687680Y5261167D01*
X51663305Y5287490D01*
X51631823Y5319720D01*
X51600722Y5289737D01*
X51586782Y5276417D01*
X51567283Y5257945D01*
X51544101Y5236093D01*
X51519116Y5212632D01*
X51497333Y5192252D01*
X51425045Y5124749D01*
X51456594Y5089941D01*
X51489046Y5050833D01*
X51513163Y5013636D01*
X51529938Y4976237D01*
X51540367Y4936524D01*
X51544721Y4902744D01*
X51544287Y4851300D01*
X51534321Y4803366D01*
X51514857Y4759035D01*
X51485933Y4718400D01*
X51465894Y4697555D01*
X51424324Y4664505D01*
X51378714Y4640235D01*
X51328384Y4624493D01*
X51272655Y4617025D01*
X51247040Y4616296D01*
X51189581Y4620724D01*
X51136164Y4633834D01*
X51087544Y4655334D01*
X51044476Y4684930D01*
X51025849Y4702075D01*
X50995069Y4738642D01*
X50972922Y4777973D01*
X50958874Y4821457D01*
X50952391Y4870483D01*
X50951800Y4894744D01*
X50955935Y4943403D01*
X50968265Y4989824D01*
X50989307Y5035317D01*
X51019584Y5081192D01*
X51032160Y5097214D01*
X51044671Y5112714D01*
X51055050Y5125842D01*
X51061256Y5134013D01*
X51061620Y5134533D01*
X51061746Y5138337D01*
X51058074Y5144963D01*
X51049953Y5155135D01*
X51036731Y5169580D01*
X51017758Y5189020D01*
X50992381Y5214182D01*
X50973049Y5233068D01*
X50879397Y5324198D01*
X50849545Y5294809D01*
X50810983Y5252849D01*
X50775461Y5206464D01*
X50744562Y5158079D01*
X50719869Y5110119D01*
X50706143Y5075191D01*
X50694728Y5032381D01*
X50686148Y4982841D01*
X50680615Y4929660D01*
X50678339Y4875921D01*
X50679529Y4824713D01*
X50684397Y4779121D01*
X50685512Y4772660D01*
X50703608Y4699824D01*
X50730271Y4630604D01*
X50764895Y4566007D01*
X50806875Y4507042D01*
X50855607Y4454718D01*
X50897060Y4419807D01*
X50958985Y4379208D01*
X51024537Y4347477D01*
X51092805Y4324514D01*
X51162878Y4310220D01*
X51233843Y4304496D01*
X51304789Y4307244D01*
X51374804Y4318365D01*
X51442976Y4337759D01*
X51508394Y4365327D01*
X51570146Y4400971D01*
X51627319Y4444592D01*
X51679002Y4496090D01*
X51687134Y4505569D01*
X51730583Y4564602D01*
X51765000Y4627424D01*
X51790535Y4694478D01*
X51807341Y4766207D01*
X51815569Y4843055D01*
X51816511Y4884420D01*
X51813028Y4961048D01*
G36*
X51815520Y6006782D02*
X51812340Y6046552D01*
X51808342Y6074113D01*
X51789323Y6150545D01*
X51762079Y6221966D01*
X51727051Y6287847D01*
X51684681Y6347664D01*
X51635411Y6400890D01*
X51579684Y6446996D01*
X51517940Y6485458D01*
X51450621Y6515748D01*
X51432460Y6522153D01*
X51363867Y6540063D01*
X51292755Y6549301D01*
X51220758Y6549979D01*
X51149506Y6542210D01*
X51080630Y6526106D01*
X51015761Y6501779D01*
X50995920Y6492175D01*
X50929494Y6452592D01*
X50870159Y6405801D01*
X50818123Y6352068D01*
X50773599Y6291664D01*
X50736798Y6224855D01*
X50707930Y6151911D01*
X50695799Y6110393D01*
X50690285Y6087513D01*
X50686328Y6066491D01*
X50683612Y6044558D01*
X50681823Y6018943D01*
X50680647Y5986877D01*
X50680333Y5974080D01*
X50679961Y5927689D01*
X50681195Y5889920D01*
X50684098Y5859351D01*
X50685727Y5848891D01*
X50703923Y5772616D01*
X50730480Y5701314D01*
X50764878Y5635482D01*
X50806597Y5575614D01*
X50855114Y5522209D01*
X50909910Y5475763D01*
X50970463Y5436772D01*
X51036253Y5405732D01*
X51106760Y5383142D01*
X51181462Y5369496D01*
X51189422Y5368613D01*
X51242469Y5366677D01*
X51242469Y5677784D01*
X51189856Y5683293D01*
X51139461Y5696857D01*
X51092734Y5718301D01*
X51051124Y5747450D01*
X51043495Y5754235D01*
X51013665Y5784789D01*
X50991009Y5815346D01*
X50973118Y5849291D01*
X50969024Y5858907D01*
X50958123Y5895716D01*
X50952454Y5937774D01*
X50952058Y5981600D01*
X50956976Y6023708D01*
X50966704Y6059205D01*
X50989756Y6106873D01*
X51019905Y6147683D01*
X51056692Y6181114D01*
X51095580Y6204702D01*
X51134050Y6221257D01*
X51170680Y6231740D01*
X51209547Y6237070D01*
X51244500Y6238240D01*
X51302240Y6234161D01*
X51354327Y6221797D01*
X51401249Y6200960D01*
X51443492Y6171461D01*
X51463197Y6153215D01*
X51497364Y6111882D01*
X51522545Y6066507D01*
X51538606Y6018037D01*
X51545411Y5967419D01*
X51542827Y5915599D01*
X51530718Y5863524D01*
X51511126Y5816355D01*
X51496878Y5794638D01*
X51476075Y5770908D01*
X51451300Y5747586D01*
X51425139Y5727097D01*
X51400175Y5711862D01*
X51399112Y5711335D01*
X51348547Y5691630D01*
X51295849Y5680504D01*
X51242469Y5677784D01*
X51242469Y5366677D01*
X51261766Y5365972D01*
X51334344Y5372742D01*
X51405602Y5388535D01*
X51473984Y5412967D01*
X51537934Y5445651D01*
X51562231Y5461156D01*
X51590313Y5482370D01*
X51621219Y5509253D01*
X51652081Y5539057D01*
X51680034Y5569033D01*
X51699535Y5592820D01*
X51733013Y5643751D01*
X51762544Y5701606D01*
X51786891Y5763513D01*
X51804818Y5826606D01*
X51809050Y5846861D01*
X51813566Y5880264D01*
X51816143Y5920286D01*
X51816791Y5963576D01*
X51815520Y6006782D01*
X51815520Y6006782D01*
G37*
X51815520Y6006782D02*
X51812340Y6046552D01*
X51808342Y6074113D01*
X51789323Y6150545D01*
X51762079Y6221966D01*
X51727051Y6287847D01*
X51684681Y6347664D01*
X51635411Y6400890D01*
X51579684Y6446996D01*
X51517940Y6485458D01*
X51450621Y6515748D01*
X51432460Y6522153D01*
X51363867Y6540063D01*
X51292755Y6549301D01*
X51220758Y6549979D01*
X51149506Y6542210D01*
X51080630Y6526106D01*
X51015761Y6501779D01*
X50995920Y6492175D01*
X50929494Y6452592D01*
X50870159Y6405801D01*
X50818123Y6352068D01*
X50773599Y6291664D01*
X50736798Y6224855D01*
X50707930Y6151911D01*
X50695799Y6110393D01*
X50690285Y6087513D01*
X50686328Y6066491D01*
X50683612Y6044558D01*
X50681823Y6018943D01*
X50680647Y5986877D01*
X50680333Y5974080D01*
X50679961Y5927689D01*
X50681195Y5889920D01*
X50684098Y5859351D01*
X50685727Y5848891D01*
X50703923Y5772616D01*
X50730480Y5701314D01*
X50764878Y5635482D01*
X50806597Y5575614D01*
X50855114Y5522209D01*
X50909910Y5475763D01*
X50970463Y5436772D01*
X51036253Y5405732D01*
X51106760Y5383142D01*
X51181462Y5369496D01*
X51189422Y5368613D01*
X51242469Y5366677D01*
X51242469Y5677784D01*
X51189856Y5683293D01*
X51139461Y5696857D01*
X51092734Y5718301D01*
X51051124Y5747450D01*
X51043495Y5754235D01*
X51013665Y5784789D01*
X50991009Y5815346D01*
X50973118Y5849291D01*
X50969024Y5858907D01*
X50958123Y5895716D01*
X50952454Y5937774D01*
X50952058Y5981600D01*
X50956976Y6023708D01*
X50966704Y6059205D01*
X50989756Y6106873D01*
X51019905Y6147683D01*
X51056692Y6181114D01*
X51095580Y6204702D01*
X51134050Y6221257D01*
X51170680Y6231740D01*
X51209547Y6237070D01*
X51244500Y6238240D01*
X51302240Y6234161D01*
X51354327Y6221797D01*
X51401249Y6200960D01*
X51443492Y6171461D01*
X51463197Y6153215D01*
X51497364Y6111882D01*
X51522545Y6066507D01*
X51538606Y6018037D01*
X51545411Y5967419D01*
X51542827Y5915599D01*
X51530718Y5863524D01*
X51511126Y5816355D01*
X51496878Y5794638D01*
X51476075Y5770908D01*
X51451300Y5747586D01*
X51425139Y5727097D01*
X51400175Y5711862D01*
X51399112Y5711335D01*
X51348547Y5691630D01*
X51295849Y5680504D01*
X51242469Y5677784D01*
X51242469Y5366677D01*
X51261766Y5365972D01*
X51334344Y5372742D01*
X51405602Y5388535D01*
X51473984Y5412967D01*
X51537934Y5445651D01*
X51562231Y5461156D01*
X51590313Y5482370D01*
X51621219Y5509253D01*
X51652081Y5539057D01*
X51680034Y5569033D01*
X51699535Y5592820D01*
X51733013Y5643751D01*
X51762544Y5701606D01*
X51786891Y5763513D01*
X51804818Y5826606D01*
X51809050Y5846861D01*
X51813566Y5880264D01*
X51816143Y5920286D01*
X51816791Y5963576D01*
X51815520Y6006782D01*
G36*
X51814399Y9402481D02*
X51811417Y9443596D01*
X51806827Y9480171D01*
X51801286Y9507220D01*
X51778580Y9573856D01*
X51747460Y9635029D01*
X51708257Y9690450D01*
X51661303Y9739829D01*
X51606927Y9782877D01*
X51545459Y9819305D01*
X51477231Y9848824D01*
X51402573Y9871146D01*
X51379301Y9876327D01*
X51359850Y9879502D01*
X51334401Y9882446D01*
X51304890Y9885061D01*
X51273257Y9887253D01*
X51241438Y9888923D01*
X51211370Y9889975D01*
X51184992Y9890313D01*
X51164240Y9889840D01*
X51151052Y9888459D01*
X51148788Y9887826D01*
X51147199Y9886614D01*
X51145822Y9883829D01*
X51144642Y9878793D01*
X51143643Y9870829D01*
X51142812Y9859260D01*
X51142132Y9843407D01*
X51141589Y9822593D01*
X51141168Y9796140D01*
X51140854Y9763371D01*
X51140632Y9723607D01*
X51140486Y9676171D01*
X51140403Y9620385D01*
X51140366Y9555572D01*
X51140360Y9506676D01*
X51140344Y9445716D01*
X51140296Y9387803D01*
X51140219Y9333726D01*
X51140116Y9284273D01*
X51139989Y9240233D01*
X51139841Y9202394D01*
X51139676Y9171545D01*
X51139494Y9148473D01*
X51139300Y9133968D01*
X51139095Y9128817D01*
X51139090Y9128814D01*
X51128778Y9131101D01*
X51112339Y9136639D01*
X51092792Y9144257D01*
X51073158Y9152787D01*
X51057846Y9160307D01*
X51018225Y9186914D01*
X50985835Y9220402D01*
X50960914Y9260283D01*
X50943702Y9306069D01*
X50934435Y9357271D01*
X50933351Y9413402D01*
X50933471Y9415565D01*
X50941012Y9471017D01*
X50957298Y9523593D01*
X50982785Y9574401D01*
X51017926Y9624545D01*
X51021079Y9628452D01*
X51044405Y9657088D01*
X50966653Y9745622D01*
X50944326Y9770805D01*
X50924035Y9793232D01*
X50906789Y9811829D01*
X50893596Y9825516D01*
X50885464Y9833218D01*
X50883470Y9834518D01*
X50877218Y9831082D01*
X50865893Y9821356D01*
X50850922Y9806857D01*
X50833734Y9789104D01*
X50815755Y9769614D01*
X50798412Y9749906D01*
X50783134Y9731497D01*
X50771347Y9715905D01*
X50769739Y9713563D01*
X50734630Y9652451D01*
X50707520Y9585579D01*
X50688751Y9513866D01*
X50683337Y9481820D01*
X50680455Y9451879D01*
X50679028Y9415363D01*
X50679011Y9375744D01*
X50680357Y9336495D01*
X50683022Y9301090D01*
X50686000Y9278300D01*
X50703150Y9203860D01*
X50728731Y9134968D01*
X50762949Y9071207D01*
X50806010Y9012161D01*
X50831989Y8983157D01*
X50886484Y8933397D01*
X50946610Y8892055D01*
X51012119Y8859260D01*
X51082767Y8835142D01*
X51135280Y8823468D01*
X51165612Y8819688D01*
X51202696Y8817488D01*
X51243378Y8816839D01*
X51284502Y8817714D01*
X51322915Y8820085D01*
X51338480Y8821920D01*
X51338480Y9124631D01*
X51338480Y9352755D01*
X51338500Y9406913D01*
X51338582Y9451779D01*
X51338760Y9488224D01*
X51339067Y9517114D01*
X51339539Y9539319D01*
X51340207Y9555708D01*
X51341107Y9567149D01*
X51342273Y9574511D01*
X51343737Y9578662D01*
X51345535Y9580473D01*
X51347370Y9580819D01*
X51362189Y9578795D01*
X51382899Y9573541D01*
X51406159Y9566063D01*
X51428626Y9557369D01*
X51435820Y9554162D01*
X51477556Y9530236D01*
X51510768Y9501112D01*
X51535963Y9466247D01*
X51552271Y9429311D01*
X51557555Y9411507D01*
X51560580Y9394547D01*
X51561717Y9374935D01*
X51561339Y9349173D01*
X51561198Y9345197D01*
X51559925Y9319930D01*
X51557828Y9301443D01*
X51554180Y9286354D01*
X51548258Y9271283D01*
X51542941Y9260091D01*
X51519106Y9222989D01*
X51486761Y9190532D01*
X51446692Y9163260D01*
X51399686Y9141714D01*
X51349910Y9127173D01*
X51338480Y9124631D01*
X51338480Y8821920D01*
X51355462Y8823923D01*
X51364358Y8825503D01*
X51439603Y8845071D01*
X51509510Y8872669D01*
X51573599Y8907836D01*
X51631387Y8950112D01*
X51682393Y8999036D01*
X51726136Y9054147D01*
X51762134Y9114987D01*
X51789905Y9181093D01*
X51808605Y9250200D01*
X51812876Y9280684D01*
X51815210Y9318145D01*
X51815690Y9359704D01*
X51814399Y9402481D01*
X51814399Y9402481D01*
G37*
X51814399Y9402481D02*
X51811417Y9443596D01*
X51806827Y9480171D01*
X51801286Y9507220D01*
X51778580Y9573856D01*
X51747460Y9635029D01*
X51708257Y9690450D01*
X51661303Y9739829D01*
X51606927Y9782877D01*
X51545459Y9819305D01*
X51477231Y9848824D01*
X51402573Y9871146D01*
X51379301Y9876327D01*
X51359850Y9879502D01*
X51334401Y9882446D01*
X51304890Y9885061D01*
X51273257Y9887253D01*
X51241438Y9888923D01*
X51211370Y9889975D01*
X51184992Y9890313D01*
X51164240Y9889840D01*
X51151052Y9888459D01*
X51148788Y9887826D01*
X51147199Y9886614D01*
X51145822Y9883829D01*
X51144642Y9878793D01*
X51143643Y9870829D01*
X51142812Y9859260D01*
X51142132Y9843407D01*
X51141589Y9822593D01*
X51141168Y9796140D01*
X51140854Y9763371D01*
X51140632Y9723607D01*
X51140486Y9676171D01*
X51140403Y9620385D01*
X51140366Y9555572D01*
X51140360Y9506676D01*
X51140344Y9445716D01*
X51140296Y9387803D01*
X51140219Y9333726D01*
X51140116Y9284273D01*
X51139989Y9240233D01*
X51139841Y9202394D01*
X51139676Y9171545D01*
X51139494Y9148473D01*
X51139300Y9133968D01*
X51139095Y9128817D01*
X51139090Y9128814D01*
X51128778Y9131101D01*
X51112339Y9136639D01*
X51092792Y9144257D01*
X51073158Y9152787D01*
X51057846Y9160307D01*
X51018225Y9186914D01*
X50985835Y9220402D01*
X50960914Y9260283D01*
X50943702Y9306069D01*
X50934435Y9357271D01*
X50933351Y9413402D01*
X50933471Y9415565D01*
X50941012Y9471017D01*
X50957298Y9523593D01*
X50982785Y9574401D01*
X51017926Y9624545D01*
X51021079Y9628452D01*
X51044405Y9657088D01*
X50966653Y9745622D01*
X50944326Y9770805D01*
X50924035Y9793232D01*
X50906789Y9811829D01*
X50893596Y9825516D01*
X50885464Y9833218D01*
X50883470Y9834518D01*
X50877218Y9831082D01*
X50865893Y9821356D01*
X50850922Y9806857D01*
X50833734Y9789104D01*
X50815755Y9769614D01*
X50798412Y9749906D01*
X50783134Y9731497D01*
X50771347Y9715905D01*
X50769739Y9713563D01*
X50734630Y9652451D01*
X50707520Y9585579D01*
X50688751Y9513866D01*
X50683337Y9481820D01*
X50680455Y9451879D01*
X50679028Y9415363D01*
X50679011Y9375744D01*
X50680357Y9336495D01*
X50683022Y9301090D01*
X50686000Y9278300D01*
X50703150Y9203860D01*
X50728731Y9134968D01*
X50762949Y9071207D01*
X50806010Y9012161D01*
X50831989Y8983157D01*
X50886484Y8933397D01*
X50946610Y8892055D01*
X51012119Y8859260D01*
X51082767Y8835142D01*
X51135280Y8823468D01*
X51165612Y8819688D01*
X51202696Y8817488D01*
X51243378Y8816839D01*
X51284502Y8817714D01*
X51322915Y8820085D01*
X51338480Y8821920D01*
X51338480Y9124631D01*
X51338480Y9352755D01*
X51338500Y9406913D01*
X51338582Y9451779D01*
X51338760Y9488224D01*
X51339067Y9517114D01*
X51339539Y9539319D01*
X51340207Y9555708D01*
X51341107Y9567149D01*
X51342273Y9574511D01*
X51343737Y9578662D01*
X51345535Y9580473D01*
X51347370Y9580819D01*
X51362189Y9578795D01*
X51382899Y9573541D01*
X51406159Y9566063D01*
X51428626Y9557369D01*
X51435820Y9554162D01*
X51477556Y9530236D01*
X51510768Y9501112D01*
X51535963Y9466247D01*
X51552271Y9429311D01*
X51557555Y9411507D01*
X51560580Y9394547D01*
X51561717Y9374935D01*
X51561339Y9349173D01*
X51561198Y9345197D01*
X51559925Y9319930D01*
X51557828Y9301443D01*
X51554180Y9286354D01*
X51548258Y9271283D01*
X51542941Y9260091D01*
X51519106Y9222989D01*
X51486761Y9190532D01*
X51446692Y9163260D01*
X51399686Y9141714D01*
X51349910Y9127173D01*
X51338480Y9124631D01*
X51338480Y8821920D01*
X51355462Y8823923D01*
X51364358Y8825503D01*
X51439603Y8845071D01*
X51509510Y8872669D01*
X51573599Y8907836D01*
X51631387Y8950112D01*
X51682393Y8999036D01*
X51726136Y9054147D01*
X51762134Y9114987D01*
X51789905Y9181093D01*
X51808605Y9250200D01*
X51812876Y9280684D01*
X51815210Y9318145D01*
X51815690Y9359704D01*
X51814399Y9402481D01*
G36*
X51812927Y8324373D02*
X51805238Y8394726D01*
X51789850Y8467407D01*
X51766614Y8541793D01*
X51765606Y8544560D01*
X51757053Y8565940D01*
X51746148Y8590337D01*
X51733880Y8615850D01*
X51721233Y8640579D01*
X51709194Y8662623D01*
X51698751Y8680083D01*
X51690890Y8691058D01*
X51688277Y8693495D01*
X51681983Y8693044D01*
X51668564Y8687972D01*
X51647650Y8678104D01*
X51618873Y8663265D01*
X51581864Y8643280D01*
X51577171Y8640703D01*
X51547643Y8624443D01*
X51521187Y8609835D01*
X51499071Y8597581D01*
X51482562Y8588384D01*
X51472927Y8582948D01*
X51470970Y8581782D01*
X51472306Y8576871D01*
X51477395Y8564444D01*
X51485530Y8546114D01*
X51496004Y8523495D01*
X51502293Y8510256D01*
X51515435Y8481961D01*
X51528128Y8453112D01*
X51539114Y8426664D01*
X51547139Y8405572D01*
X51548598Y8401291D01*
X51561107Y8355744D01*
X51567971Y8313399D01*
X51569375Y8275099D01*
X51565508Y8241687D01*
X51556555Y8214005D01*
X51542704Y8192898D01*
X51524140Y8179207D01*
X51501051Y8173776D01*
X51498205Y8173720D01*
X51477826Y8176649D01*
X51461379Y8186375D01*
X51447454Y8202207D01*
X51432120Y8227504D01*
X51415317Y8262398D01*
X51396984Y8307018D01*
X51377057Y8361497D01*
X51371735Y8376920D01*
X51349838Y8438248D01*
X51329025Y8490539D01*
X51308824Y8534794D01*
X51288766Y8572017D01*
X51268379Y8603209D01*
X51260728Y8613334D01*
X51225431Y8652387D01*
X51187749Y8682209D01*
X51146472Y8703374D01*
X51100391Y8716456D01*
X51048298Y8722030D01*
X51031343Y8722324D01*
X50969889Y8717946D01*
X50913827Y8705012D01*
X50863338Y8683687D01*
X50818602Y8654137D01*
X50779801Y8616528D01*
X50747115Y8571025D01*
X50720725Y8517794D01*
X50700813Y8457002D01*
X50690912Y8410544D01*
X50687972Y8386937D01*
X50685763Y8356404D01*
X50684353Y8322050D01*
X50683812Y8286981D01*
X50684206Y8254303D01*
X50685605Y8227122D01*
X50686658Y8216900D01*
X50697322Y8156617D01*
X50713580Y8093514D01*
X50734162Y8031906D01*
X50757087Y7977590D01*
X50767136Y7957943D01*
X50779850Y7935153D01*
X50794075Y7911059D01*
X50808660Y7887501D01*
X50822449Y7866317D01*
X50834290Y7849346D01*
X50843031Y7838426D01*
X50846106Y7835661D01*
X50851275Y7837586D01*
X50863461Y7844202D01*
X50881210Y7854590D01*
X50903070Y7867830D01*
X50927587Y7883003D01*
X50953306Y7899191D01*
X50978776Y7915472D01*
X51002541Y7930930D01*
X51023149Y7944643D01*
X51039146Y7955694D01*
X51049079Y7963163D01*
X51051552Y7965587D01*
X51049961Y7971179D01*
X51043822Y7983440D01*
X51034127Y8000523D01*
X51022692Y8019275D01*
X50988766Y8079267D01*
X50961088Y8140763D01*
X50941043Y8200682D01*
X50941005Y8200821D01*
X50935678Y8223227D01*
X50932242Y8245476D01*
X50930355Y8270823D01*
X50929672Y8302526D01*
X50929652Y8308340D01*
X50929777Y8336276D01*
X50930458Y8356312D01*
X50931993Y8370702D01*
X50934676Y8381702D01*
X50938804Y8391568D01*
X50941175Y8396169D01*
X50958180Y8418823D01*
X50980059Y8432892D01*
X51005998Y8437858D01*
X51006621Y8437861D01*
X51024846Y8435146D01*
X51041159Y8426439D01*
X51056141Y8410942D01*
X51070374Y8387859D01*
X51084441Y8356395D01*
X51098923Y8315753D01*
X51101320Y8308340D01*
X51116916Y8259612D01*
X51129839Y8219476D01*
X51140465Y8186831D01*
X51149173Y8160577D01*
X51156339Y8139614D01*
X51162343Y8122842D01*
X51167561Y8109161D01*
X51172371Y8097472D01*
X51177152Y8086673D01*
X51178286Y8084200D01*
X51208517Y8028897D01*
X51244238Y7982136D01*
X51266982Y7959371D01*
X51302844Y7931195D01*
X51340335Y7910795D01*
X51381352Y7897502D01*
X51427794Y7890644D01*
X51465278Y7889315D01*
X51515388Y7891771D01*
X51559036Y7899345D01*
X51598825Y7912569D01*
X51615290Y7920074D01*
X51663791Y7949388D01*
X51705793Y7986011D01*
X51741146Y8029321D01*
X51769699Y8078694D01*
X51791304Y8133509D01*
X51805810Y8193142D01*
X51813068Y8256971D01*
X51812927Y8324373D01*
X51812927Y8324373D01*
G37*
X51812927Y8324373D02*
X51805238Y8394726D01*
X51789850Y8467407D01*
X51766614Y8541793D01*
X51765606Y8544560D01*
X51757053Y8565940D01*
X51746148Y8590337D01*
X51733880Y8615850D01*
X51721233Y8640579D01*
X51709194Y8662623D01*
X51698751Y8680083D01*
X51690890Y8691058D01*
X51688277Y8693495D01*
X51681983Y8693044D01*
X51668564Y8687972D01*
X51647650Y8678104D01*
X51618873Y8663265D01*
X51581864Y8643280D01*
X51577171Y8640703D01*
X51547643Y8624443D01*
X51521187Y8609835D01*
X51499071Y8597581D01*
X51482562Y8588384D01*
X51472927Y8582948D01*
X51470970Y8581782D01*
X51472306Y8576871D01*
X51477395Y8564444D01*
X51485530Y8546114D01*
X51496004Y8523495D01*
X51502293Y8510256D01*
X51515435Y8481961D01*
X51528128Y8453112D01*
X51539114Y8426664D01*
X51547139Y8405572D01*
X51548598Y8401291D01*
X51561107Y8355744D01*
X51567971Y8313399D01*
X51569375Y8275099D01*
X51565508Y8241687D01*
X51556555Y8214005D01*
X51542704Y8192898D01*
X51524140Y8179207D01*
X51501051Y8173776D01*
X51498205Y8173720D01*
X51477826Y8176649D01*
X51461379Y8186375D01*
X51447454Y8202207D01*
X51432120Y8227504D01*
X51415317Y8262398D01*
X51396984Y8307018D01*
X51377057Y8361497D01*
X51371735Y8376920D01*
X51349838Y8438248D01*
X51329025Y8490539D01*
X51308824Y8534794D01*
X51288766Y8572017D01*
X51268379Y8603209D01*
X51260728Y8613334D01*
X51225431Y8652387D01*
X51187749Y8682209D01*
X51146472Y8703374D01*
X51100391Y8716456D01*
X51048298Y8722030D01*
X51031343Y8722324D01*
X50969889Y8717946D01*
X50913827Y8705012D01*
X50863338Y8683687D01*
X50818602Y8654137D01*
X50779801Y8616528D01*
X50747115Y8571025D01*
X50720725Y8517794D01*
X50700813Y8457002D01*
X50690912Y8410544D01*
X50687972Y8386937D01*
X50685763Y8356404D01*
X50684353Y8322050D01*
X50683812Y8286981D01*
X50684206Y8254303D01*
X50685605Y8227122D01*
X50686658Y8216900D01*
X50697322Y8156617D01*
X50713580Y8093514D01*
X50734162Y8031906D01*
X50757087Y7977590D01*
X50767136Y7957943D01*
X50779850Y7935153D01*
X50794075Y7911059D01*
X50808660Y7887501D01*
X50822449Y7866317D01*
X50834290Y7849346D01*
X50843031Y7838426D01*
X50846106Y7835661D01*
X50851275Y7837586D01*
X50863461Y7844202D01*
X50881210Y7854590D01*
X50903070Y7867830D01*
X50927587Y7883003D01*
X50953306Y7899191D01*
X50978776Y7915472D01*
X51002541Y7930930D01*
X51023149Y7944643D01*
X51039146Y7955694D01*
X51049079Y7963163D01*
X51051552Y7965587D01*
X51049961Y7971179D01*
X51043822Y7983440D01*
X51034127Y8000523D01*
X51022692Y8019275D01*
X50988766Y8079267D01*
X50961088Y8140763D01*
X50941043Y8200682D01*
X50941005Y8200821D01*
X50935678Y8223227D01*
X50932242Y8245476D01*
X50930355Y8270823D01*
X50929672Y8302526D01*
X50929652Y8308340D01*
X50929777Y8336276D01*
X50930458Y8356312D01*
X50931993Y8370702D01*
X50934676Y8381702D01*
X50938804Y8391568D01*
X50941175Y8396169D01*
X50958180Y8418823D01*
X50980059Y8432892D01*
X51005998Y8437858D01*
X51006621Y8437861D01*
X51024846Y8435146D01*
X51041159Y8426439D01*
X51056141Y8410942D01*
X51070374Y8387859D01*
X51084441Y8356395D01*
X51098923Y8315753D01*
X51101320Y8308340D01*
X51116916Y8259612D01*
X51129839Y8219476D01*
X51140465Y8186831D01*
X51149173Y8160577D01*
X51156339Y8139614D01*
X51162343Y8122842D01*
X51167561Y8109161D01*
X51172371Y8097472D01*
X51177152Y8086673D01*
X51178286Y8084200D01*
X51208517Y8028897D01*
X51244238Y7982136D01*
X51266982Y7959371D01*
X51302844Y7931195D01*
X51340335Y7910795D01*
X51381352Y7897502D01*
X51427794Y7890644D01*
X51465278Y7889315D01*
X51515388Y7891771D01*
X51559036Y7899345D01*
X51598825Y7912569D01*
X51615290Y7920074D01*
X51663791Y7949388D01*
X51705793Y7986011D01*
X51741146Y8029321D01*
X51769699Y8078694D01*
X51791304Y8133509D01*
X51805810Y8193142D01*
X51813068Y8256971D01*
X51812927Y8324373D01*
G36*
X51766470Y11931574D02*
X51757868Y11928247D01*
X51740453Y11921475D01*
X51714875Y11911512D01*
X51681783Y11898611D01*
X51641827Y11883025D01*
X51595658Y11865010D01*
X51543924Y11844817D01*
X51487277Y11822701D01*
X51426365Y11798915D01*
X51361839Y11773714D01*
X51294348Y11747349D01*
X51224542Y11720076D01*
X51216560Y11716958D01*
X50695860Y11513501D01*
X50694511Y11370021D01*
X50694154Y11327970D01*
X50694004Y11294958D01*
X50694118Y11269863D01*
X50694557Y11251564D01*
X50695377Y11238940D01*
X50696637Y11230871D01*
X50698395Y11226236D01*
X50700709Y11223914D01*
X50702131Y11223256D01*
X50707959Y11221009D01*
X50722643Y11215303D01*
X50745575Y11206374D01*
X50776149Y11194460D01*
X50813756Y11179798D01*
X50857788Y11162624D01*
X50907639Y11143177D01*
X50962700Y11121692D01*
X51022364Y11098407D01*
X51086023Y11073559D01*
X51153070Y11047385D01*
X51222897Y11020121D01*
X51248754Y11010025D01*
X51319331Y10982481D01*
X51387285Y10955993D01*
X51452012Y10930792D01*
X51512913Y10907112D01*
X51569385Y10885186D01*
X51620828Y10865245D01*
X51666642Y10847523D01*
X51706224Y10832253D01*
X51738974Y10819666D01*
X51764291Y10809996D01*
X51781573Y10803476D01*
X51790220Y10800337D01*
X51791113Y10800080D01*
X51792347Y10805022D01*
X51793341Y10819303D01*
X51794077Y10842104D01*
X51794538Y10872605D01*
X51794708Y10909989D01*
X51794571Y10953436D01*
X51794480Y10966028D01*
X51793140Y11131976D01*
X51435548Y11251172D01*
X51370639Y11272888D01*
X51311042Y11292987D01*
X51257269Y11311291D01*
X51209831Y11327619D01*
X51169240Y11341792D01*
X51136007Y11353632D01*
X51110644Y11362957D01*
X51093662Y11369590D01*
X51085573Y11373350D01*
X51085028Y11374100D01*
X51090894Y11376293D01*
X51105617Y11381451D01*
X51128424Y11389311D01*
X51158539Y11399611D01*
X51195188Y11412086D01*
X51237596Y11426474D01*
X51284987Y11442511D01*
X51336587Y11459934D01*
X51391622Y11478479D01*
X51443890Y11496060D01*
X51795680Y11614286D01*
X51795680Y11942734D01*
X51766470Y11931574D01*
X51766470Y11931574D01*
G37*
X51766470Y11931574D02*
X51757868Y11928247D01*
X51740453Y11921475D01*
X51714875Y11911512D01*
X51681783Y11898611D01*
X51641827Y11883025D01*
X51595658Y11865010D01*
X51543924Y11844817D01*
X51487277Y11822701D01*
X51426365Y11798915D01*
X51361839Y11773714D01*
X51294348Y11747349D01*
X51224542Y11720076D01*
X51216560Y11716958D01*
X50695860Y11513501D01*
X50694511Y11370021D01*
X50694154Y11327970D01*
X50694004Y11294958D01*
X50694118Y11269863D01*
X50694557Y11251564D01*
X50695377Y11238940D01*
X50696637Y11230871D01*
X50698395Y11226236D01*
X50700709Y11223914D01*
X50702131Y11223256D01*
X50707959Y11221009D01*
X50722643Y11215303D01*
X50745575Y11206374D01*
X50776149Y11194460D01*
X50813756Y11179798D01*
X50857788Y11162624D01*
X50907639Y11143177D01*
X50962700Y11121692D01*
X51022364Y11098407D01*
X51086023Y11073559D01*
X51153070Y11047385D01*
X51222897Y11020121D01*
X51248754Y11010025D01*
X51319331Y10982481D01*
X51387285Y10955993D01*
X51452012Y10930792D01*
X51512913Y10907112D01*
X51569385Y10885186D01*
X51620828Y10865245D01*
X51666642Y10847523D01*
X51706224Y10832253D01*
X51738974Y10819666D01*
X51764291Y10809996D01*
X51781573Y10803476D01*
X51790220Y10800337D01*
X51791113Y10800080D01*
X51792347Y10805022D01*
X51793341Y10819303D01*
X51794077Y10842104D01*
X51794538Y10872605D01*
X51794708Y10909989D01*
X51794571Y10953436D01*
X51794480Y10966028D01*
X51793140Y11131976D01*
X51435548Y11251172D01*
X51370639Y11272888D01*
X51311042Y11292987D01*
X51257269Y11311291D01*
X51209831Y11327619D01*
X51169240Y11341792D01*
X51136007Y11353632D01*
X51110644Y11362957D01*
X51093662Y11369590D01*
X51085573Y11373350D01*
X51085028Y11374100D01*
X51090894Y11376293D01*
X51105617Y11381451D01*
X51128424Y11389311D01*
X51158539Y11399611D01*
X51195188Y11412086D01*
X51237596Y11426474D01*
X51284987Y11442511D01*
X51336587Y11459934D01*
X51391622Y11478479D01*
X51443890Y11496060D01*
X51795680Y11614286D01*
X51795680Y11942734D01*
X51766470Y11931574D01*
G36*
X51813312Y7366149D02*
X51812726Y7391363D01*
X51811491Y7410824D01*
X51809398Y7426734D01*
X51806237Y7441295D01*
X51801796Y7456711D01*
X51801569Y7457440D01*
X51784525Y7503066D01*
X51763388Y7541963D01*
X51736282Y7577313D01*
X51722020Y7592525D01*
X51677738Y7630189D01*
X51626909Y7660164D01*
X51569750Y7682345D01*
X51510247Y7696027D01*
X51498613Y7697061D01*
X51477274Y7697999D01*
X51446685Y7698833D01*
X51407301Y7699558D01*
X51359575Y7700168D01*
X51303964Y7700657D01*
X51240921Y7701021D01*
X51170901Y7701252D01*
X51094358Y7701345D01*
X51092100Y7701346D01*
X50706020Y7701433D01*
X50704678Y7543876D01*
X50703336Y7386320D01*
X51035081Y7386320D01*
X51104339Y7386305D01*
X51164233Y7386228D01*
X51215558Y7386039D01*
X51259109Y7385689D01*
X51295682Y7385129D01*
X51326072Y7384309D01*
X51351074Y7383181D01*
X51371485Y7381694D01*
X51388099Y7379800D01*
X51401712Y7377449D01*
X51413119Y7374593D01*
X51423117Y7371181D01*
X51432499Y7367164D01*
X51442062Y7362494D01*
X51445181Y7360909D01*
X51474038Y7340955D01*
X51498964Y7313378D01*
X51515668Y7285159D01*
X51521866Y7270729D01*
X51525797Y7257391D01*
X51527957Y7242094D01*
X51528844Y7221784D01*
X51528972Y7203440D01*
X51528669Y7177920D01*
X51527428Y7159507D01*
X51524757Y7145153D01*
X51520163Y7131814D01*
X51515763Y7121928D01*
X51495663Y7087490D01*
X51471051Y7061201D01*
X51446400Y7044584D01*
X51435990Y7038997D01*
X51426233Y7034175D01*
X51416327Y7030062D01*
X51405472Y7026601D01*
X51392866Y7023736D01*
X51377709Y7021411D01*
X51359200Y7019570D01*
X51336538Y7018155D01*
X51308923Y7017111D01*
X51275553Y7016382D01*
X51235628Y7015910D01*
X51188347Y7015641D01*
X51132909Y7015516D01*
X51068513Y7015481D01*
X51032613Y7015480D01*
X50703480Y7015480D01*
X50703480Y6700520D01*
X51795680Y6700520D01*
X51795680Y7015480D01*
X51725830Y7015470D01*
X51655980Y7015461D01*
X51704240Y7065203D01*
X51734031Y7097451D01*
X51757158Y7126455D01*
X51775310Y7154761D01*
X51790174Y7184912D01*
X51799850Y7209360D01*
X51804883Y7223755D01*
X51808497Y7236489D01*
X51810926Y7249681D01*
X51812403Y7265448D01*
X51813161Y7285908D01*
X51813433Y7313179D01*
X51813460Y7332980D01*
X51813312Y7366149D01*
X51813312Y7366149D01*
G37*
X51813312Y7366149D02*
X51812726Y7391363D01*
X51811491Y7410824D01*
X51809398Y7426734D01*
X51806237Y7441295D01*
X51801796Y7456711D01*
X51801569Y7457440D01*
X51784525Y7503066D01*
X51763388Y7541963D01*
X51736282Y7577313D01*
X51722020Y7592525D01*
X51677738Y7630189D01*
X51626909Y7660164D01*
X51569750Y7682345D01*
X51510247Y7696027D01*
X51498613Y7697061D01*
X51477274Y7697999D01*
X51446685Y7698833D01*
X51407301Y7699558D01*
X51359575Y7700168D01*
X51303964Y7700657D01*
X51240921Y7701021D01*
X51170901Y7701252D01*
X51094358Y7701345D01*
X51092100Y7701346D01*
X50706020Y7701433D01*
X50704678Y7543876D01*
X50703336Y7386320D01*
X51035081Y7386320D01*
X51104339Y7386305D01*
X51164233Y7386228D01*
X51215558Y7386039D01*
X51259109Y7385689D01*
X51295682Y7385129D01*
X51326072Y7384309D01*
X51351074Y7383181D01*
X51371485Y7381694D01*
X51388099Y7379800D01*
X51401712Y7377449D01*
X51413119Y7374593D01*
X51423117Y7371181D01*
X51432499Y7367164D01*
X51442062Y7362494D01*
X51445181Y7360909D01*
X51474038Y7340955D01*
X51498964Y7313378D01*
X51515668Y7285159D01*
X51521866Y7270729D01*
X51525797Y7257391D01*
X51527957Y7242094D01*
X51528844Y7221784D01*
X51528972Y7203440D01*
X51528669Y7177920D01*
X51527428Y7159507D01*
X51524757Y7145153D01*
X51520163Y7131814D01*
X51515763Y7121928D01*
X51495663Y7087490D01*
X51471051Y7061201D01*
X51446400Y7044584D01*
X51435990Y7038997D01*
X51426233Y7034175D01*
X51416327Y7030062D01*
X51405472Y7026601D01*
X51392866Y7023736D01*
X51377709Y7021411D01*
X51359200Y7019570D01*
X51336538Y7018155D01*
X51308923Y7017111D01*
X51275553Y7016382D01*
X51235628Y7015910D01*
X51188347Y7015641D01*
X51132909Y7015516D01*
X51068513Y7015481D01*
X51032613Y7015480D01*
X50703480Y7015480D01*
X50703480Y6700520D01*
X51795680Y6700520D01*
X51795680Y7015480D01*
X51725830Y7015470D01*
X51655980Y7015461D01*
X51704240Y7065203D01*
X51734031Y7097451D01*
X51757158Y7126455D01*
X51775310Y7154761D01*
X51790174Y7184912D01*
X51799850Y7209360D01*
X51804883Y7223755D01*
X51808497Y7236489D01*
X51810926Y7249681D01*
X51812403Y7265448D01*
X51813161Y7285908D01*
X51813433Y7313179D01*
X51813460Y7332980D01*
X51813312Y7366149D01*
G36*
X51818117Y10705977D02*
X51814899Y10718800D01*
X51492278Y10718800D01*
X51488798Y10675919D01*
X51479871Y10615101D01*
X51463468Y10561151D01*
X51439510Y10513971D01*
X51407918Y10473463D01*
X51368611Y10439530D01*
X51321511Y10412073D01*
X51266538Y10390995D01*
X51254660Y10387555D01*
X51245101Y10385022D01*
X51235732Y10382892D01*
X51225586Y10381123D01*
X51213697Y10379672D01*
X51199096Y10378497D01*
X51180818Y10377555D01*
X51157896Y10376804D01*
X51129362Y10376202D01*
X51094250Y10375705D01*
X51051593Y10375272D01*
X51000424Y10374860D01*
X50958750Y10374559D01*
X50703480Y10372762D01*
X50703480Y10058400D01*
X51795680Y10058400D01*
X51795680Y10373360D01*
X51595020Y10373590D01*
X51626208Y10390402D01*
X51674216Y10420142D01*
X51716595Y10454191D01*
X51752286Y10491403D01*
X51780228Y10530632D01*
X51799362Y10570732D01*
X51802753Y10581128D01*
X51807951Y10602235D01*
X51812531Y10627039D01*
X51816148Y10652733D01*
X51818457Y10676517D01*
X51819114Y10695584D01*
X51818117Y10705977D01*
X51818117Y10705977D01*
G37*
X51818117Y10705977D02*
X51814899Y10718800D01*
X51492278Y10718800D01*
X51488798Y10675919D01*
X51479871Y10615101D01*
X51463468Y10561151D01*
X51439510Y10513971D01*
X51407918Y10473463D01*
X51368611Y10439530D01*
X51321511Y10412073D01*
X51266538Y10390995D01*
X51254660Y10387555D01*
X51245101Y10385022D01*
X51235732Y10382892D01*
X51225586Y10381123D01*
X51213697Y10379672D01*
X51199096Y10378497D01*
X51180818Y10377555D01*
X51157896Y10376804D01*
X51129362Y10376202D01*
X51094250Y10375705D01*
X51051593Y10375272D01*
X51000424Y10374860D01*
X50958750Y10374559D01*
X50703480Y10372762D01*
X50703480Y10058400D01*
X51795680Y10058400D01*
X51795680Y10373360D01*
X51595020Y10373590D01*
X51626208Y10390402D01*
X51674216Y10420142D01*
X51716595Y10454191D01*
X51752286Y10491403D01*
X51780228Y10530632D01*
X51799362Y10570732D01*
X51802753Y10581128D01*
X51807951Y10602235D01*
X51812531Y10627039D01*
X51816148Y10652733D01*
X51818457Y10676517D01*
X51819114Y10695584D01*
X51818117Y10705977D01*
G36*
X51250851Y12371117D02*
X50706020Y12369895D01*
X50704678Y12212367D01*
X50703336Y12054840D01*
X51795680Y12054840D01*
X51795681Y12213590D01*
X51795681Y12372340D01*
X51250851Y12371117D01*
X51250851Y12371117D01*
G37*
X51250851Y12371117D02*
X50706020Y12369895D01*
X50704678Y12212367D01*
X50703336Y12054840D01*
X51795680Y12054840D01*
X51795681Y12213590D01*
X51795681Y12372340D01*
X51250851Y12371117D01*
G36*
X52203890Y13014960D02*
X52203553Y13054467D01*
X52202446Y13086534D01*
X52200253Y13113869D01*
X52196657Y13139182D01*
X52191342Y13165182D01*
X52183992Y13194578D01*
X52182103Y13201650D01*
X52176289Y13223240D01*
X52043861Y13223240D01*
X52003777Y13223202D01*
X51972747Y13223040D01*
X51949666Y13222677D01*
X51933428Y13222035D01*
X51922928Y13221040D01*
X51917061Y13219614D01*
X51914721Y13217682D01*
X51914802Y13215167D01*
X51915107Y13214350D01*
X51923885Y13187795D01*
X51931328Y13155376D01*
X51936613Y13121376D01*
X51938913Y13090392D01*
X51936953Y13053287D01*
X51928969Y13023949D01*
X51914328Y13001704D01*
X51892398Y12985875D01*
X51862547Y12975784D01*
X51827233Y12970967D01*
X51785701Y12967976D01*
X51784341Y13093258D01*
X51782980Y13218541D01*
X51528980Y13218541D01*
X51527620Y13096430D01*
X51526260Y12974320D01*
X50703480Y12974320D01*
X50703480Y12659360D01*
X51526440Y12659360D01*
X51526440Y12532360D01*
X51785520Y12532360D01*
X51785520Y12657979D01*
X51860450Y12660616D01*
X51893221Y12662334D01*
X51925102Y12665016D01*
X51952984Y12668350D01*
X51973480Y12671960D01*
X52027748Y12688745D01*
X52074829Y12712703D01*
X52114820Y12743926D01*
X52147818Y12782506D01*
X52173919Y12828537D01*
X52193221Y12882110D01*
X52193232Y12882150D01*
X52197222Y12897895D01*
X52200105Y12913380D01*
X52202046Y12930680D01*
X52203214Y12951870D01*
X52203773Y12979028D01*
X52203891Y13014228D01*
X52203890Y13014960D01*
X52203890Y13014960D01*
G37*
X52203890Y13014960D02*
X52203553Y13054467D01*
X52202446Y13086534D01*
X52200253Y13113869D01*
X52196657Y13139182D01*
X52191342Y13165182D01*
X52183992Y13194578D01*
X52182103Y13201650D01*
X52176289Y13223240D01*
X52043861Y13223240D01*
X52003777Y13223202D01*
X51972747Y13223040D01*
X51949666Y13222677D01*
X51933428Y13222035D01*
X51922928Y13221040D01*
X51917061Y13219614D01*
X51914721Y13217682D01*
X51914802Y13215167D01*
X51915107Y13214350D01*
X51923885Y13187795D01*
X51931328Y13155376D01*
X51936613Y13121376D01*
X51938913Y13090392D01*
X51936953Y13053287D01*
X51928969Y13023949D01*
X51914328Y13001704D01*
X51892398Y12985875D01*
X51862547Y12975784D01*
X51827233Y12970967D01*
X51785701Y12967976D01*
X51784341Y13093258D01*
X51782980Y13218541D01*
X51528980Y13218541D01*
X51527620Y13096430D01*
X51526260Y12974320D01*
X50703480Y12974320D01*
X50703480Y12659360D01*
X51526440Y12659360D01*
X51526440Y12532360D01*
X51785520Y12532360D01*
X51785520Y12657979D01*
X51860450Y12660616D01*
X51893221Y12662334D01*
X51925102Y12665016D01*
X51952984Y12668350D01*
X51973480Y12671960D01*
X52027748Y12688745D01*
X52074829Y12712703D01*
X52114820Y12743926D01*
X52147818Y12782506D01*
X52173919Y12828537D01*
X52193221Y12882110D01*
X52193232Y12882150D01*
X52197222Y12897895D01*
X52200105Y12913380D01*
X52202046Y12930680D01*
X52203214Y12951870D01*
X52203773Y12979028D01*
X52203891Y13014228D01*
X52203890Y13014960D01*
G36*
X51912520Y12379960D02*
X51912520Y12049760D01*
X52191920Y12049760D01*
X52191920Y12379960D01*
X51912520Y12379960D01*
X51912520Y12379960D01*
G37*
X51912520Y12379960D02*
X51912520Y12049760D01*
X52191920Y12049760D01*
X52191920Y12379960D01*
X51912520Y12379960D01*
G36*
X52772392Y2032503D02*
X52760493Y2087781D01*
X52738992Y2144392D01*
X52732400Y2158313D01*
X52719475Y2183011D01*
X52706570Y2203261D01*
X52691187Y2222483D01*
X52670827Y2244096D01*
X52666708Y2248237D01*
X52645470Y2268742D01*
X52627370Y2283979D01*
X52608955Y2296411D01*
X52586770Y2308499D01*
X52571969Y2315770D01*
X52537233Y2331564D01*
X52507664Y2342527D01*
X52479954Y2349431D01*
X52450794Y2353050D01*
X52416878Y2354156D01*
X52407820Y2354135D01*
X52390737Y2353829D01*
X52374742Y2352957D01*
X52359078Y2351206D01*
X52342988Y2348262D01*
X52325716Y2343813D01*
X52306505Y2337545D01*
X52284597Y2329144D01*
X52259237Y2318298D01*
X52229667Y2304693D01*
X52195131Y2288016D01*
X52154871Y2267954D01*
X52108131Y2244193D01*
X52054155Y2216420D01*
X51992185Y2184322D01*
X51970940Y2173293D01*
X51920881Y2147246D01*
X51873350Y2122422D01*
X51829141Y2099241D01*
X51789046Y2078123D01*
X51753859Y2059487D01*
X51724372Y2043755D01*
X51701379Y2031347D01*
X51685673Y2022682D01*
X51678046Y2018181D01*
X51677570Y2017827D01*
X51670460Y2005832D01*
X51669189Y1990537D01*
X51673953Y1977011D01*
X51675897Y1974709D01*
X51682752Y1969975D01*
X51697713Y1961087D01*
X51719847Y1948537D01*
X51748224Y1932815D01*
X51781914Y1914413D01*
X51819984Y1893822D01*
X51861505Y1871534D01*
X51905546Y1848041D01*
X51951175Y1823833D01*
X51997461Y1799402D01*
X52043474Y1775239D01*
X52088283Y1751836D01*
X52130956Y1729684D01*
X52170564Y1709274D01*
X52206174Y1691099D01*
X52236857Y1675648D01*
X52261681Y1663415D01*
X52279715Y1654889D01*
X52289878Y1650614D01*
X52350998Y1634539D01*
X52411452Y1628227D01*
X52420887Y1628768D01*
X52420887Y1738177D01*
X52373461Y1740638D01*
X52328647Y1751568D01*
X52287266Y1770145D01*
X52250139Y1795546D01*
X52218088Y1826950D01*
X52191932Y1863533D01*
X52172494Y1904475D01*
X52160595Y1948952D01*
X52157056Y1996142D01*
X52162698Y2045223D01*
X52164085Y2051430D01*
X52180348Y2099787D01*
X52204585Y2142192D01*
X52236131Y2178040D01*
X52274320Y2206728D01*
X52318488Y2227650D01*
X52367969Y2240201D01*
X52372459Y2240871D01*
X52421523Y2243107D01*
X52468326Y2236300D01*
X52512027Y2221325D01*
X52551788Y2199057D01*
X52586772Y2170373D01*
X52616138Y2136149D01*
X52639048Y2097260D01*
X52654664Y2054582D01*
X52662147Y2008991D01*
X52660658Y1961363D01*
X52657604Y1943100D01*
X52642618Y1892371D01*
X52620002Y1848071D01*
X52590123Y1810587D01*
X52553349Y1780310D01*
X52510048Y1757627D01*
X52470103Y1745008D01*
X52420887Y1738177D01*
X52420887Y1628768D01*
X52470575Y1631621D01*
X52527697Y1644665D01*
X52582153Y1667303D01*
X52599130Y1676696D01*
X52647107Y1710610D01*
X52688366Y1751506D01*
X52722042Y1798334D01*
X52747267Y1850044D01*
X52751340Y1861221D01*
X52767730Y1920567D01*
X52774776Y1977213D01*
X52772392Y2032503D01*
X52772392Y2032503D01*
G37*
X52772392Y2032503D02*
X52760493Y2087781D01*
X52738992Y2144392D01*
X52732400Y2158313D01*
X52719475Y2183011D01*
X52706570Y2203261D01*
X52691187Y2222483D01*
X52670827Y2244096D01*
X52666708Y2248237D01*
X52645470Y2268742D01*
X52627370Y2283979D01*
X52608955Y2296411D01*
X52586770Y2308499D01*
X52571969Y2315770D01*
X52537233Y2331564D01*
X52507664Y2342527D01*
X52479954Y2349431D01*
X52450794Y2353050D01*
X52416878Y2354156D01*
X52407820Y2354135D01*
X52390737Y2353829D01*
X52374742Y2352957D01*
X52359078Y2351206D01*
X52342988Y2348262D01*
X52325716Y2343813D01*
X52306505Y2337545D01*
X52284597Y2329144D01*
X52259237Y2318298D01*
X52229667Y2304693D01*
X52195131Y2288016D01*
X52154871Y2267954D01*
X52108131Y2244193D01*
X52054155Y2216420D01*
X51992185Y2184322D01*
X51970940Y2173293D01*
X51920881Y2147246D01*
X51873350Y2122422D01*
X51829141Y2099241D01*
X51789046Y2078123D01*
X51753859Y2059487D01*
X51724372Y2043755D01*
X51701379Y2031347D01*
X51685673Y2022682D01*
X51678046Y2018181D01*
X51677570Y2017827D01*
X51670460Y2005832D01*
X51669189Y1990537D01*
X51673953Y1977011D01*
X51675897Y1974709D01*
X51682752Y1969975D01*
X51697713Y1961087D01*
X51719847Y1948537D01*
X51748224Y1932815D01*
X51781914Y1914413D01*
X51819984Y1893822D01*
X51861505Y1871534D01*
X51905546Y1848041D01*
X51951175Y1823833D01*
X51997461Y1799402D01*
X52043474Y1775239D01*
X52088283Y1751836D01*
X52130956Y1729684D01*
X52170564Y1709274D01*
X52206174Y1691099D01*
X52236857Y1675648D01*
X52261681Y1663415D01*
X52279715Y1654889D01*
X52289878Y1650614D01*
X52350998Y1634539D01*
X52411452Y1628227D01*
X52420887Y1628768D01*
X52420887Y1738177D01*
X52373461Y1740638D01*
X52328647Y1751568D01*
X52287266Y1770145D01*
X52250139Y1795546D01*
X52218088Y1826950D01*
X52191932Y1863533D01*
X52172494Y1904475D01*
X52160595Y1948952D01*
X52157056Y1996142D01*
X52162698Y2045223D01*
X52164085Y2051430D01*
X52180348Y2099787D01*
X52204585Y2142192D01*
X52236131Y2178040D01*
X52274320Y2206728D01*
X52318488Y2227650D01*
X52367969Y2240201D01*
X52372459Y2240871D01*
X52421523Y2243107D01*
X52468326Y2236300D01*
X52512027Y2221325D01*
X52551788Y2199057D01*
X52586772Y2170373D01*
X52616138Y2136149D01*
X52639048Y2097260D01*
X52654664Y2054582D01*
X52662147Y2008991D01*
X52660658Y1961363D01*
X52657604Y1943100D01*
X52642618Y1892371D01*
X52620002Y1848071D01*
X52590123Y1810587D01*
X52553349Y1780310D01*
X52510048Y1757627D01*
X52470103Y1745008D01*
X52420887Y1738177D01*
X52420887Y1628768D01*
X52470575Y1631621D01*
X52527697Y1644665D01*
X52582153Y1667303D01*
X52599130Y1676696D01*
X52647107Y1710610D01*
X52688366Y1751506D01*
X52722042Y1798334D01*
X52747267Y1850044D01*
X52751340Y1861221D01*
X52767730Y1920567D01*
X52774776Y1977213D01*
X52772392Y2032503D01*
D14*
X-5588000Y-6096000D02*
X-8382000Y-6096000D01*
X-5334000Y-7874000D02*
G75*
G02X-5588000Y-8128000I-254000J0D01*
G01*
X-8382000Y-8128000D02*
G75*
G02X-8636000Y-7874000I0J254000D01*
G01*
X-8382000Y-6096000D02*
G75*
G03X-8636000Y-6350000I0J-254000D01*
G01*
X-5334000Y-6350000D02*
G75*
G03X-5588000Y-6096000I-254000J0D01*
G01*
X-5334000Y-6350000D02*
X-5334000Y-7874000D01*
X-8636000Y-6350000D02*
X-8636000Y-7874000D01*
X-8382000Y-8128000D02*
X-5588000Y-8128000D01*
D15*
X25368069Y-994229D02*
X25368069Y-123372D01*
X25368069Y-558800D02*
X23844069Y-558800D01*
X24061783Y-413657D01*
X24206926Y-268515D01*
X24279497Y-123372D01*
M02*
