G04 #@! TF.FileFunction,Soldermask,Bot*
%FSLAX46Y46*%
G04 Gerber Fmt 4.6, Leading zero omitted, Abs format (unit mm)*
G04 Created by KiCad (PCBNEW 4.0.7) date Tuesday, June 19, 2018 'PMt' 03:40:23 PM*
%MOMM*%
%LPD*%
G01*
G04 APERTURE LIST*
%ADD10C,0.100000*%
%ADD11C,2.403200*%
%ADD12R,1.203960X2.202180*%
%ADD13R,1.701800X0.901700*%
%ADD14R,1.602740X2.001520*%
%ADD15R,2.103120X1.602740*%
%ADD16R,1.903200X1.903200*%
%ADD17O,1.903200X1.903200*%
%ADD18R,1.473200X4.403200*%
%ADD19R,0.800000X2.300000*%
%ADD20R,2.300000X0.800000*%
%ADD21R,4.703200X2.503200*%
%ADD22C,1.253200*%
%ADD23C,1.503200*%
%ADD24C,1.403200*%
%ADD25C,1.903200*%
%ADD26R,1.371600X1.803400*%
G04 APERTURE END LIST*
D10*
D11*
X40107200Y-18026600D03*
D12*
X24925020Y-3175000D03*
X23426420Y-3175000D03*
X21925280Y-3175000D03*
X20426680Y-3175000D03*
X18925540Y-3175000D03*
X17426940Y-3175000D03*
X15925800Y-3175000D03*
X14427200Y-3175000D03*
X12926060Y-3175000D03*
X11427460Y-3175000D03*
X11427460Y12827000D03*
X12926060Y12827000D03*
X14427200Y12827000D03*
X15925800Y12827000D03*
X17426940Y12827000D03*
X18925540Y12827000D03*
X20426680Y12827000D03*
X21925280Y12827000D03*
X23426420Y12827000D03*
X24925020Y12827000D03*
D13*
X-44246800Y-6690360D03*
X-43848020Y-7790180D03*
X-44246800Y-8890000D03*
X-44648120Y-9989820D03*
X-44246800Y-11089640D03*
X-44648120Y-12192000D03*
X-44246800Y-13291820D03*
X-44246800Y-14391640D03*
D14*
X-34048700Y-13690600D03*
X-34048700Y-7691120D03*
D15*
X-47147480Y-15290800D03*
X-48049180Y-2090420D03*
D16*
X7315200Y-17424400D03*
D17*
X4775200Y-17424400D03*
X2235200Y-17424400D03*
X-304800Y-17424400D03*
X-2844800Y-17424400D03*
X-5384800Y-17424400D03*
X-7924800Y-17424400D03*
X-10464800Y-17424400D03*
X-13004800Y-17424400D03*
D18*
X3037200Y14884400D03*
X8037200Y14884400D03*
D11*
X-47839740Y-18027140D03*
X40107820Y15420720D03*
X-47839440Y15420880D03*
D19*
X-22020530Y-17729200D03*
X-23036530Y-17729200D03*
X-24052531Y-17729200D03*
X-25068531Y-17729200D03*
X-26084530Y-17729200D03*
X-27100530Y-17729200D03*
X-28116530Y-17729200D03*
X-29132530Y-17729200D03*
X-18972530Y-17729200D03*
D20*
X-31802930Y-12009750D03*
X-31802930Y-13025750D03*
X-31802930Y-14041750D03*
X-31802930Y-15057750D03*
X-31802930Y-7945750D03*
X-31802930Y-5913747D03*
X-31802930Y-4897750D03*
X-31802930Y-3881750D03*
X-31802930Y-2865750D03*
X-17072660Y-14049970D03*
X-17072660Y-13033970D03*
X-17072660Y-12017970D03*
X-17072660Y-11001970D03*
X-17072660Y-9985970D03*
X-17072660Y-8969970D03*
X-17072660Y-7953970D03*
X-17072660Y-6937966D03*
X-17072660Y-5921966D03*
X-17072660Y-4905970D03*
D21*
X28316800Y-12090400D03*
X11916800Y-12090400D03*
D22*
X16616800Y-12090400D03*
D23*
X24066800Y-12090400D03*
D24*
X-44999800Y10590600D03*
X-44999800Y5740600D03*
D25*
X-47649800Y11790600D03*
X-47649800Y4540600D03*
D26*
X-7747000Y-7112000D03*
X-6223000Y-7112000D03*
M02*
