G04 #@! TF.GenerationSoftware,KiCad,Pcbnew,5.0.0-fee4fd1~66~ubuntu16.04.1*
G04 #@! TF.CreationDate,2018-09-07T15:36:00-07:00*
G04 #@! TF.ProjectId,fk-naturalist,666B2D6E61747572616C6973742E6B69,0.1*
G04 #@! TF.SameCoordinates,PX791ddc0PY791ddc0*
G04 #@! TF.FileFunction,Legend,Bot*
G04 #@! TF.FilePolarity,Positive*
%FSLAX46Y46*%
G04 Gerber Fmt 4.6, Leading zero omitted, Abs format (unit mm)*
G04 Created by KiCad (PCBNEW 5.0.0-fee4fd1~66~ubuntu16.04.1) date Fri Sep  7 15:36:00 2018*
%MOMM*%
%LPD*%
G01*
G04 APERTURE LIST*
%ADD10C,0.100000*%
%ADD11C,0.127000*%
%ADD12C,0.150000*%
%ADD13C,0.381000*%
%ADD14C,0.300000*%
%ADD15C,0.152400*%
G04 APERTURE END LIST*
D10*
X-11999091Y-19086247D02*
X-11499091Y-19086247D01*
X-11499091Y-18895771D01*
X-11522900Y-18848152D01*
X-11546710Y-18824342D01*
X-11594329Y-18800533D01*
X-11665758Y-18800533D01*
X-11713377Y-18824342D01*
X-11737186Y-18848152D01*
X-11760996Y-18895771D01*
X-11760996Y-19086247D01*
X-11737186Y-18586247D02*
X-11737186Y-18419580D01*
X-11999091Y-18348152D02*
X-11999091Y-18586247D01*
X-11499091Y-18586247D01*
X-11499091Y-18348152D01*
X-11999091Y-17848152D02*
X-11760996Y-18014819D01*
X-11999091Y-18133866D02*
X-11499091Y-18133866D01*
X-11499091Y-17943390D01*
X-11522900Y-17895771D01*
X-11546710Y-17871961D01*
X-11594329Y-17848152D01*
X-11665758Y-17848152D01*
X-11713377Y-17871961D01*
X-11737186Y-17895771D01*
X-11760996Y-17943390D01*
X-11760996Y-18133866D01*
X-11999091Y-17633866D02*
X-11499091Y-17633866D01*
X-11999091Y-17395771D02*
X-11499091Y-17395771D01*
X-11499091Y-17205295D01*
X-11522900Y-17157676D01*
X-11546710Y-17133866D01*
X-11594329Y-17110057D01*
X-11665758Y-17110057D01*
X-11713377Y-17133866D01*
X-11737186Y-17157676D01*
X-11760996Y-17205295D01*
X-11760996Y-17395771D01*
X-11999091Y-16895771D02*
X-11499091Y-16895771D01*
X-11737186Y-16895771D02*
X-11737186Y-16610057D01*
X-11999091Y-16610057D02*
X-11499091Y-16610057D01*
X-12046710Y-16491009D02*
X-12046710Y-16110057D01*
X-11499091Y-16038628D02*
X-11499091Y-15729104D01*
X-11689567Y-15895771D01*
X-11689567Y-15824342D01*
X-11713377Y-15776723D01*
X-11737186Y-15752914D01*
X-11784805Y-15729104D01*
X-11903853Y-15729104D01*
X-11951472Y-15752914D01*
X-11975281Y-15776723D01*
X-11999091Y-15824342D01*
X-11999091Y-15967200D01*
X-11975281Y-16014819D01*
X-11951472Y-16038628D01*
X-11499091Y-15586247D02*
X-11999091Y-15419580D01*
X-11499091Y-15252914D01*
X-11499091Y-15133866D02*
X-11499091Y-14824342D01*
X-11689567Y-14991009D01*
X-11689567Y-14919580D01*
X-11713377Y-14871961D01*
X-11737186Y-14848152D01*
X-11784805Y-14824342D01*
X-11903853Y-14824342D01*
X-11951472Y-14848152D01*
X-11975281Y-14871961D01*
X-11999091Y-14919580D01*
X-11999091Y-15062438D01*
X-11975281Y-15110057D01*
X-11951472Y-15133866D01*
X-6138100Y-18840295D02*
X-6114291Y-18887914D01*
X-6114291Y-18959342D01*
X-6138100Y-19030771D01*
X-6185720Y-19078390D01*
X-6233339Y-19102200D01*
X-6328577Y-19126009D01*
X-6400005Y-19126009D01*
X-6495243Y-19102200D01*
X-6542862Y-19078390D01*
X-6590481Y-19030771D01*
X-6614291Y-18959342D01*
X-6614291Y-18911723D01*
X-6590481Y-18840295D01*
X-6566672Y-18816485D01*
X-6400005Y-18816485D01*
X-6400005Y-18911723D01*
X-6614291Y-18602200D02*
X-6114291Y-18602200D01*
X-6114291Y-18411723D01*
X-6138100Y-18364104D01*
X-6161910Y-18340295D01*
X-6209529Y-18316485D01*
X-6280958Y-18316485D01*
X-6328577Y-18340295D01*
X-6352386Y-18364104D01*
X-6376196Y-18411723D01*
X-6376196Y-18602200D01*
X-6590481Y-18126009D02*
X-6614291Y-18054580D01*
X-6614291Y-17935533D01*
X-6590481Y-17887914D01*
X-6566672Y-17864104D01*
X-6519053Y-17840295D01*
X-6471434Y-17840295D01*
X-6423815Y-17864104D01*
X-6400005Y-17887914D01*
X-6376196Y-17935533D01*
X-6352386Y-18030771D01*
X-6328577Y-18078390D01*
X-6304767Y-18102200D01*
X-6257148Y-18126009D01*
X-6209529Y-18126009D01*
X-6161910Y-18102200D01*
X-6138100Y-18078390D01*
X-6114291Y-18030771D01*
X-6114291Y-17911723D01*
X-6138100Y-17840295D01*
X-6661910Y-17745057D02*
X-6661910Y-17364104D01*
X-6114291Y-17292676D02*
X-6114291Y-16983152D01*
X-6304767Y-17149819D01*
X-6304767Y-17078390D01*
X-6328577Y-17030771D01*
X-6352386Y-17006961D01*
X-6400005Y-16983152D01*
X-6519053Y-16983152D01*
X-6566672Y-17006961D01*
X-6590481Y-17030771D01*
X-6614291Y-17078390D01*
X-6614291Y-17221247D01*
X-6590481Y-17268866D01*
X-6566672Y-17292676D01*
X-6114291Y-16840295D02*
X-6614291Y-16673628D01*
X-6114291Y-16506961D01*
X-6114291Y-16387914D02*
X-6114291Y-16078390D01*
X-6304767Y-16245057D01*
X-6304767Y-16173628D01*
X-6328577Y-16126009D01*
X-6352386Y-16102200D01*
X-6400005Y-16078390D01*
X-6519053Y-16078390D01*
X-6566672Y-16102200D01*
X-6590481Y-16126009D01*
X-6614291Y-16173628D01*
X-6614291Y-16316485D01*
X-6590481Y-16364104D01*
X-6566672Y-16387914D01*
X-19314291Y4912800D02*
X-18814291Y4912800D01*
X-19171434Y5079467D01*
X-18814291Y5246134D01*
X-19314291Y5246134D01*
X-18814291Y5579467D02*
X-18814291Y5674705D01*
X-18838100Y5722324D01*
X-18885720Y5769943D01*
X-18980958Y5793753D01*
X-19147624Y5793753D01*
X-19242862Y5769943D01*
X-19290481Y5722324D01*
X-19314291Y5674705D01*
X-19314291Y5579467D01*
X-19290481Y5531848D01*
X-19242862Y5484229D01*
X-19147624Y5460420D01*
X-18980958Y5460420D01*
X-18885720Y5484229D01*
X-18838100Y5531848D01*
X-18814291Y5579467D01*
X-19314291Y6008039D02*
X-18814291Y6008039D01*
X-18814291Y6127086D01*
X-18838100Y6198515D01*
X-18885720Y6246134D01*
X-18933339Y6269943D01*
X-19028577Y6293753D01*
X-19100005Y6293753D01*
X-19195243Y6269943D01*
X-19242862Y6246134D01*
X-19290481Y6198515D01*
X-19314291Y6127086D01*
X-19314291Y6008039D01*
X-18814291Y6508039D02*
X-19219053Y6508039D01*
X-19266672Y6531848D01*
X-19290481Y6555658D01*
X-19314291Y6603277D01*
X-19314291Y6698515D01*
X-19290481Y6746134D01*
X-19266672Y6769943D01*
X-19219053Y6793753D01*
X-18814291Y6793753D01*
X-19314291Y7269943D02*
X-19314291Y7031848D01*
X-18814291Y7031848D01*
X-19052386Y7436610D02*
X-19052386Y7603277D01*
X-19314291Y7674705D02*
X-19314291Y7436610D01*
X-18814291Y7436610D01*
X-18814291Y7674705D01*
X-19361910Y7769943D02*
X-19361910Y8150896D01*
X-18814291Y8222324D02*
X-18814291Y8531848D01*
X-19004767Y8365181D01*
X-19004767Y8436610D01*
X-19028577Y8484229D01*
X-19052386Y8508039D01*
X-19100005Y8531848D01*
X-19219053Y8531848D01*
X-19266672Y8508039D01*
X-19290481Y8484229D01*
X-19314291Y8436610D01*
X-19314291Y8293753D01*
X-19290481Y8246134D01*
X-19266672Y8222324D01*
X-18814291Y8674705D02*
X-19314291Y8841372D01*
X-18814291Y9008039D01*
X-18814291Y9127086D02*
X-18814291Y9436610D01*
X-19004767Y9269943D01*
X-19004767Y9341372D01*
X-19028577Y9388991D01*
X-19052386Y9412800D01*
X-19100005Y9436610D01*
X-19219053Y9436610D01*
X-19266672Y9412800D01*
X-19290481Y9388991D01*
X-19314291Y9341372D01*
X-19314291Y9198515D01*
X-19290481Y9150896D01*
X-19266672Y9127086D01*
D11*
G04 #@! TO.C,M7*
X-52227480Y-716280D02*
X-37127180Y-716280D01*
X-37127180Y-716280D02*
X-37127180Y-14714220D01*
X-37127180Y-14714220D02*
X-51528980Y-14714220D01*
X-50627280Y-13014960D02*
X-50627280Y-3314700D01*
X-52986940Y-13116560D02*
X-52986940Y-3916680D01*
X-53888640Y-13116560D02*
X-53888640Y-3916680D01*
X-57688480Y-13116560D02*
X-57688480Y-3916680D01*
X-50627280Y-13017500D02*
G75*
G02X-51528980Y-13716000I-800100J101600D01*
G01*
X-52227480Y-1714500D02*
G75*
G02X-50627280Y-3314700I0J-1600200D01*
G01*
X-51788060Y-14315440D02*
G75*
G02X-52986940Y-13116560I0J1198880D01*
G01*
X-52986940Y-3914140D02*
G75*
G02X-51887120Y-2616200I1198880J99060D01*
G01*
X-52687220Y-14317980D02*
G75*
G02X-53888640Y-13116560I0J1201420D01*
G01*
X-53886100Y-3916680D02*
G75*
G02X-52788820Y-2616200I1198880J101600D01*
G01*
X-56487060Y-14317980D02*
G75*
G02X-57688480Y-13116560I0J1201420D01*
G01*
X-57685940Y-3916680D02*
G75*
G02X-56588660Y-2616200I1198880J101600D01*
G01*
D10*
G04 #@! TO.C,U1*
X-16231860Y4271200D02*
X-16231860Y-17448800D01*
X-16231860Y-17448800D02*
X-30961860Y-17448800D01*
X-30961860Y-17448800D02*
X-30961860Y4271200D01*
X-30961860Y4271200D02*
X-16231860Y4271200D01*
D12*
G04 #@! TO.C,U10*
X26888440Y-3530600D02*
G75*
G03X26888440Y-3530600I-254000J0D01*
G01*
D13*
X19014440Y-2895600D02*
X27015440Y-2895600D01*
X27015440Y-2895600D02*
X27015440Y13106400D01*
X27015440Y13106400D02*
X13014960Y13106400D01*
X13014960Y13106400D02*
X11013440Y13106400D01*
X11013440Y13106400D02*
X11013440Y-2895600D01*
X11013440Y-2895600D02*
X19014440Y-2895600D01*
D10*
G04 #@! TO.C,BT1*
X27308204Y-13393493D02*
X27308204Y-13388205D01*
X26266521Y-5319127D02*
X26266521Y-10305458D01*
X27308204Y-10226142D02*
X27308204Y-5319127D01*
X26266521Y-13319465D02*
X26266521Y-18305796D01*
X27308204Y-5319127D02*
X26266521Y-5319127D01*
X27308204Y-18305796D02*
X27308204Y-13393493D01*
X26266521Y-18305796D02*
X27308204Y-18305796D01*
D14*
G04 #@! TO.C,U3*
X28343511Y8536500D02*
G75*
G03X28343511Y8536500I-70711J0D01*
G01*
D12*
X28372800Y7936500D02*
X28372800Y-8063500D01*
X44372800Y7936500D02*
X44372800Y-8063500D01*
D15*
G04 #@! TO.C,J12*
X-6858000Y-18923000D02*
X-6858000Y-16129000D01*
X-8636000Y-19177000D02*
G75*
G02X-8890000Y-18923000I0J254000D01*
G01*
X-8890000Y-16129000D02*
G75*
G02X-8636000Y-15875000I254000J0D01*
G01*
X-6858000Y-16129000D02*
G75*
G03X-7112000Y-15875000I-254000J0D01*
G01*
X-7112000Y-19177000D02*
G75*
G03X-6858000Y-18923000I0J254000D01*
G01*
X-7112000Y-19177000D02*
X-8636000Y-19177000D01*
X-7112000Y-15875000D02*
X-8636000Y-15875000D01*
X-8890000Y-16129000D02*
X-8890000Y-18923000D01*
G04 #@! TO.C,J2*
X-9207500Y-18923000D02*
X-9207500Y-16129000D01*
X-10985500Y-19177000D02*
G75*
G02X-11239500Y-18923000I0J254000D01*
G01*
X-11239500Y-16129000D02*
G75*
G02X-10985500Y-15875000I254000J0D01*
G01*
X-9207500Y-16129000D02*
G75*
G03X-9461500Y-15875000I-254000J0D01*
G01*
X-9461500Y-19177000D02*
G75*
G03X-9207500Y-18923000I0J254000D01*
G01*
X-9461500Y-19177000D02*
X-10985500Y-19177000D01*
X-9461500Y-15875000D02*
X-10985500Y-15875000D01*
X-11239500Y-16129000D02*
X-11239500Y-18923000D01*
G04 #@! TO.C,J14*
X-19634200Y5651500D02*
X-19634200Y8445500D01*
X-21412200Y5397500D02*
G75*
G02X-21666200Y5651500I0J254000D01*
G01*
X-21666200Y8445500D02*
G75*
G02X-21412200Y8699500I254000J0D01*
G01*
X-19634200Y8445500D02*
G75*
G03X-19888200Y8699500I-254000J0D01*
G01*
X-19888200Y5397500D02*
G75*
G03X-19634200Y5651500I0J254000D01*
G01*
X-19888200Y5397500D02*
X-21412200Y5397500D01*
X-19888200Y8699500D02*
X-21412200Y8699500D01*
X-21666200Y8445500D02*
X-21666200Y5651500D01*
D12*
G04 #@! TO.C,U14*
X-28095200Y9866000D02*
X-22095200Y9866000D01*
X-28095200Y9866000D02*
X-28095200Y4866000D01*
X-28095200Y4866000D02*
X-22095200Y4866000D01*
X-22095200Y4866000D02*
X-22095200Y9866000D01*
G04 #@! TD*
M02*
