G04 #@! TF.FileFunction,Legend,Top*
%FSLAX46Y46*%
G04 Gerber Fmt 4.6, Leading zero omitted, Abs format (unit mm)*
G04 Created by KiCad (PCBNEW 4.0.7) date Tuesday, June 19, 2018 'PMt' 03:40:23 PM*
%MOMM*%
%LPD*%
G01*
G04 APERTURE LIST*
%ADD10C,0.100000*%
%ADD11C,0.300000*%
%ADD12C,0.200000*%
%ADD13C,0.010000*%
%ADD14C,0.127000*%
%ADD15C,0.150000*%
%ADD16C,0.120000*%
G04 APERTURE END LIST*
D10*
D11*
X-33431889Y-9454290D02*
G75*
G03X-33431889Y-9454290I-70711J0D01*
G01*
X-25410979Y3429000D02*
G75*
G03X-25410979Y3429000I-70711J0D01*
G01*
X25673911Y-13639800D02*
G75*
G03X25673911Y-13639800I-70711J0D01*
G01*
X22854511Y76200D02*
G75*
G03X22854511Y76200I-70711J0D01*
G01*
D12*
X-34393000Y-15692381D02*
X-34393000Y-14692381D01*
X-34154905Y-14692381D01*
X-34012047Y-14740000D01*
X-33916809Y-14835238D01*
X-33869190Y-14930476D01*
X-33821571Y-15120952D01*
X-33821571Y-15263810D01*
X-33869190Y-15454286D01*
X-33916809Y-15549524D01*
X-34012047Y-15644762D01*
X-34154905Y-15692381D01*
X-34393000Y-15692381D01*
X-33440619Y-15406667D02*
X-32964428Y-15406667D01*
X-33535857Y-15692381D02*
X-33202524Y-14692381D01*
X-32869190Y-15692381D01*
X-32678714Y-14692381D02*
X-32107285Y-14692381D01*
X-32393000Y-15692381D02*
X-32393000Y-14692381D01*
X-31821571Y-15406667D02*
X-31345380Y-15406667D01*
X-31916809Y-15692381D02*
X-31583476Y-14692381D01*
X-31250142Y-15692381D01*
X-30281404Y-15597143D02*
X-30329023Y-15644762D01*
X-30471880Y-15692381D01*
X-30567118Y-15692381D01*
X-30709976Y-15644762D01*
X-30805214Y-15549524D01*
X-30852833Y-15454286D01*
X-30900452Y-15263810D01*
X-30900452Y-15120952D01*
X-30852833Y-14930476D01*
X-30805214Y-14835238D01*
X-30709976Y-14740000D01*
X-30567118Y-14692381D01*
X-30471880Y-14692381D01*
X-30329023Y-14740000D01*
X-30281404Y-14787619D01*
X-29662357Y-14692381D02*
X-29471880Y-14692381D01*
X-29376642Y-14740000D01*
X-29281404Y-14835238D01*
X-29233785Y-15025714D01*
X-29233785Y-15359048D01*
X-29281404Y-15549524D01*
X-29376642Y-15644762D01*
X-29471880Y-15692381D01*
X-29662357Y-15692381D01*
X-29757595Y-15644762D01*
X-29852833Y-15549524D01*
X-29900452Y-15359048D01*
X-29900452Y-15025714D01*
X-29852833Y-14835238D01*
X-29757595Y-14740000D01*
X-29662357Y-14692381D01*
X-28805214Y-15692381D02*
X-28805214Y-14692381D01*
X-28233785Y-15692381D01*
X-28233785Y-14692381D01*
X-27757595Y-15692381D02*
X-27757595Y-14692381D01*
X-27186166Y-15692381D01*
X-27186166Y-14692381D01*
X-2316171Y16322628D02*
X-2316171Y16655962D01*
X-2839981Y16655962D02*
X-1839981Y16655962D01*
X-1839981Y16179771D01*
X-2839981Y15798819D02*
X-1839981Y15798819D01*
X-1839981Y15417867D02*
X-2839981Y14751200D01*
X-1839981Y14751200D02*
X-2839981Y15417867D01*
X-42970629Y16092514D02*
X-43208724Y16759181D01*
X-43446820Y16092514D01*
X-44018248Y15759181D02*
X-44113487Y15759181D01*
X-44208725Y15806800D01*
X-44256344Y15854419D01*
X-44303963Y15949657D01*
X-44351582Y16140133D01*
X-44351582Y16378229D01*
X-44303963Y16568705D01*
X-44256344Y16663943D01*
X-44208725Y16711562D01*
X-44113487Y16759181D01*
X-44018248Y16759181D01*
X-43923010Y16711562D01*
X-43875391Y16663943D01*
X-43827772Y16568705D01*
X-43780153Y16378229D01*
X-43780153Y16140133D01*
X-43827772Y15949657D01*
X-43875391Y15854419D01*
X-43923010Y15806800D01*
X-44018248Y15759181D01*
X-44780153Y16663943D02*
X-44827772Y16711562D01*
X-44780153Y16759181D01*
X-44732534Y16711562D01*
X-44780153Y16663943D01*
X-44780153Y16759181D01*
X-45303962Y16759181D02*
X-45494438Y16759181D01*
X-45589677Y16711562D01*
X-45637296Y16663943D01*
X-45732534Y16521086D01*
X-45780153Y16330610D01*
X-45780153Y15949657D01*
X-45732534Y15854419D01*
X-45684915Y15806800D01*
X-45589677Y15759181D01*
X-45399200Y15759181D01*
X-45303962Y15806800D01*
X-45256343Y15854419D01*
X-45208724Y15949657D01*
X-45208724Y16187752D01*
X-45256343Y16282990D01*
X-45303962Y16330610D01*
X-45399200Y16378229D01*
X-45589677Y16378229D01*
X-45684915Y16330610D01*
X-45732534Y16282990D01*
X-45780153Y16187752D01*
X-31446743Y12909485D02*
X-31494362Y12957104D01*
X-31541981Y13099961D01*
X-31541981Y13195199D01*
X-31494362Y13338057D01*
X-31399124Y13433295D01*
X-31303886Y13480914D01*
X-31113410Y13528533D01*
X-30970552Y13528533D01*
X-30780076Y13480914D01*
X-30684838Y13433295D01*
X-30589600Y13338057D01*
X-30541981Y13195199D01*
X-30541981Y13099961D01*
X-30589600Y12957104D01*
X-30637219Y12909485D01*
X-31541981Y12480914D02*
X-30541981Y12480914D01*
X-31018171Y12480914D02*
X-31018171Y11909485D01*
X-31541981Y11909485D02*
X-30541981Y11909485D01*
X-30589600Y10909485D02*
X-30541981Y11004723D01*
X-30541981Y11147580D01*
X-30589600Y11290438D01*
X-30684838Y11385676D01*
X-30780076Y11433295D01*
X-30970552Y11480914D01*
X-31113410Y11480914D01*
X-31303886Y11433295D01*
X-31399124Y11385676D01*
X-31494362Y11290438D01*
X-31541981Y11147580D01*
X-31541981Y11052342D01*
X-31494362Y10909485D01*
X-31446743Y10861866D01*
X-31113410Y10861866D01*
X-31113410Y11052342D01*
X-31541981Y16716305D02*
X-30541981Y16716305D01*
X-30541981Y16335352D01*
X-30589600Y16240114D01*
X-30637219Y16192495D01*
X-30732457Y16144876D01*
X-30875314Y16144876D01*
X-30970552Y16192495D01*
X-31018171Y16240114D01*
X-31065790Y16335352D01*
X-31065790Y16716305D01*
X-30589600Y15192495D02*
X-30541981Y15287733D01*
X-30541981Y15430590D01*
X-30589600Y15573448D01*
X-30684838Y15668686D01*
X-30780076Y15716305D01*
X-30970552Y15763924D01*
X-31113410Y15763924D01*
X-31303886Y15716305D01*
X-31399124Y15668686D01*
X-31494362Y15573448D01*
X-31541981Y15430590D01*
X-31541981Y15335352D01*
X-31494362Y15192495D01*
X-31446743Y15144876D01*
X-31113410Y15144876D01*
X-31113410Y15335352D01*
X18603933Y16528986D02*
X18603933Y16052795D01*
X18318219Y16624224D02*
X19318219Y16290891D01*
X18318219Y15957557D01*
X18984886Y15195652D02*
X18318219Y15195652D01*
X19365838Y15433748D02*
X18651552Y15671843D01*
X18651552Y15052795D01*
X23620433Y16516286D02*
X23620433Y16040095D01*
X23334719Y16611524D02*
X24334719Y16278191D01*
X23334719Y15944857D01*
X24334719Y15135333D02*
X24334719Y15611524D01*
X23858529Y15659143D01*
X23906148Y15611524D01*
X23953767Y15516286D01*
X23953767Y15278190D01*
X23906148Y15182952D01*
X23858529Y15135333D01*
X23763290Y15087714D01*
X23525195Y15087714D01*
X23429957Y15135333D01*
X23382338Y15182952D01*
X23334719Y15278190D01*
X23334719Y15516286D01*
X23382338Y15611524D01*
X23429957Y15659143D01*
X28687733Y16516286D02*
X28687733Y16040095D01*
X28402019Y16611524D02*
X29402019Y16278191D01*
X28402019Y15944857D01*
X29402019Y15706762D02*
X29402019Y15087714D01*
X29021067Y15421048D01*
X29021067Y15278190D01*
X28973448Y15182952D01*
X28925829Y15135333D01*
X28830590Y15087714D01*
X28592495Y15087714D01*
X28497257Y15135333D01*
X28449638Y15182952D01*
X28402019Y15278190D01*
X28402019Y15563905D01*
X28449638Y15659143D01*
X28497257Y15706762D01*
X33456619Y16635286D02*
X34456619Y16635286D01*
X34456619Y16397191D01*
X34409000Y16254333D01*
X34313762Y16159095D01*
X34218524Y16111476D01*
X34028048Y16063857D01*
X33885190Y16063857D01*
X33694714Y16111476D01*
X33599476Y16159095D01*
X33504238Y16254333D01*
X33456619Y16397191D01*
X33456619Y16635286D01*
X33456619Y15111476D02*
X33456619Y15682905D01*
X33456619Y15397191D02*
X34456619Y15397191D01*
X34313762Y15492429D01*
X34218524Y15587667D01*
X34170905Y15682905D01*
X34456619Y14778143D02*
X34456619Y14159095D01*
X34075667Y14492429D01*
X34075667Y14349571D01*
X34028048Y14254333D01*
X33980429Y14206714D01*
X33885190Y14159095D01*
X33647095Y14159095D01*
X33551857Y14206714D01*
X33504238Y14254333D01*
X33456619Y14349571D01*
X33456619Y14635286D01*
X33504238Y14730524D01*
X33551857Y14778143D01*
D13*
G36*
X13026604Y480050D02*
X13050359Y430911D01*
X13068252Y386369D01*
X13075814Y361406D01*
X13090771Y272691D01*
X13091537Y185653D01*
X13078307Y101185D01*
X13051283Y20181D01*
X13010661Y-56465D01*
X12970520Y-111615D01*
X12928828Y-158645D01*
X12884417Y-200945D01*
X12833790Y-241530D01*
X12773450Y-283412D01*
X12763706Y-289758D01*
X12683896Y-341384D01*
X12297363Y328111D01*
X12282536Y313878D01*
X12254861Y278599D01*
X12233953Y234484D01*
X12221486Y186284D01*
X12219133Y138756D01*
X12219469Y134726D01*
X12232177Y76051D01*
X12257981Y20907D01*
X12295603Y-29194D01*
X12343768Y-72737D01*
X12401197Y-108207D01*
X12438148Y-124447D01*
X12486224Y-142742D01*
X12461553Y-282750D01*
X12453737Y-325961D01*
X12446466Y-364031D01*
X12440196Y-394740D01*
X12435384Y-415867D01*
X12432484Y-425190D01*
X12432274Y-425418D01*
X12422663Y-425043D01*
X12402594Y-420737D01*
X12375275Y-413468D01*
X12343910Y-404203D01*
X12311703Y-393909D01*
X12281861Y-383553D01*
X12257590Y-374105D01*
X12248202Y-369856D01*
X12186186Y-333316D01*
X12124462Y-285362D01*
X12084958Y-248075D01*
X12055873Y-214693D01*
X12024147Y-172109D01*
X11992520Y-124581D01*
X11963734Y-76368D01*
X11940532Y-31727D01*
X11930102Y-7577D01*
X11901987Y83651D01*
X11887487Y175215D01*
X11886563Y265832D01*
X11899178Y354221D01*
X11925291Y439102D01*
X11945041Y483126D01*
X11989446Y556202D01*
X12044555Y621634D01*
X12108729Y678804D01*
X12180330Y727085D01*
X12257721Y765854D01*
X12275634Y772146D01*
X12469590Y436204D01*
X12666440Y95250D01*
X12681916Y104185D01*
X12702355Y120878D01*
X12724516Y146610D01*
X12745030Y176831D01*
X12760528Y206989D01*
X12763259Y214086D01*
X12773525Y259035D01*
X12771002Y302065D01*
X12755350Y346108D01*
X12745883Y363732D01*
X12717394Y403921D01*
X12685003Y431676D01*
X12646187Y449012D01*
X12635437Y451893D01*
X12603471Y455905D01*
X12564455Y455640D01*
X12525088Y451482D01*
X12492069Y443808D01*
X12491935Y443763D01*
X12469590Y436204D01*
X12275634Y772146D01*
X12339262Y794491D01*
X12423314Y812371D01*
X12508241Y818871D01*
X12592402Y813368D01*
X12674161Y795241D01*
X12721044Y778187D01*
X12772719Y752501D01*
X12826803Y719022D01*
X12877521Y681607D01*
X12914307Y648967D01*
X12940838Y618247D01*
X12969776Y577399D01*
X12999054Y530106D01*
X13026604Y480050D01*
X13026604Y480050D01*
G37*
X13026604Y480050D02*
X13050359Y430911D01*
X13068252Y386369D01*
X13075814Y361406D01*
X13090771Y272691D01*
X13091537Y185653D01*
X13078307Y101185D01*
X13051283Y20181D01*
X13010661Y-56465D01*
X12970520Y-111615D01*
X12928828Y-158645D01*
X12884417Y-200945D01*
X12833790Y-241530D01*
X12773450Y-283412D01*
X12763706Y-289758D01*
X12683896Y-341384D01*
X12297363Y328111D01*
X12282536Y313878D01*
X12254861Y278599D01*
X12233953Y234484D01*
X12221486Y186284D01*
X12219133Y138756D01*
X12219469Y134726D01*
X12232177Y76051D01*
X12257981Y20907D01*
X12295603Y-29194D01*
X12343768Y-72737D01*
X12401197Y-108207D01*
X12438148Y-124447D01*
X12486224Y-142742D01*
X12461553Y-282750D01*
X12453737Y-325961D01*
X12446466Y-364031D01*
X12440196Y-394740D01*
X12435384Y-415867D01*
X12432484Y-425190D01*
X12432274Y-425418D01*
X12422663Y-425043D01*
X12402594Y-420737D01*
X12375275Y-413468D01*
X12343910Y-404203D01*
X12311703Y-393909D01*
X12281861Y-383553D01*
X12257590Y-374105D01*
X12248202Y-369856D01*
X12186186Y-333316D01*
X12124462Y-285362D01*
X12084958Y-248075D01*
X12055873Y-214693D01*
X12024147Y-172109D01*
X11992520Y-124581D01*
X11963734Y-76368D01*
X11940532Y-31727D01*
X11930102Y-7577D01*
X11901987Y83651D01*
X11887487Y175215D01*
X11886563Y265832D01*
X11899178Y354221D01*
X11925291Y439102D01*
X11945041Y483126D01*
X11989446Y556202D01*
X12044555Y621634D01*
X12108729Y678804D01*
X12180330Y727085D01*
X12257721Y765854D01*
X12275634Y772146D01*
X12469590Y436204D01*
X12666440Y95250D01*
X12681916Y104185D01*
X12702355Y120878D01*
X12724516Y146610D01*
X12745030Y176831D01*
X12760528Y206989D01*
X12763259Y214086D01*
X12773525Y259035D01*
X12771002Y302065D01*
X12755350Y346108D01*
X12745883Y363732D01*
X12717394Y403921D01*
X12685003Y431676D01*
X12646187Y449012D01*
X12635437Y451893D01*
X12603471Y455905D01*
X12564455Y455640D01*
X12525088Y451482D01*
X12492069Y443808D01*
X12491935Y443763D01*
X12469590Y436204D01*
X12275634Y772146D01*
X12339262Y794491D01*
X12423314Y812371D01*
X12508241Y818871D01*
X12592402Y813368D01*
X12674161Y795241D01*
X12721044Y778187D01*
X12772719Y752501D01*
X12826803Y719022D01*
X12877521Y681607D01*
X12914307Y648967D01*
X12940838Y618247D01*
X12969776Y577399D01*
X12999054Y530106D01*
X13026604Y480050D01*
G36*
X13902825Y-1828517D02*
X13234411Y-2216563D01*
X13132738Y-2036396D01*
X13031065Y-1856229D01*
X13151624Y-1786625D01*
X13084787Y-1766611D01*
X13050031Y-1755026D01*
X13015536Y-1741559D01*
X12987174Y-1728561D01*
X12979804Y-1724570D01*
X12922069Y-1683409D01*
X12870554Y-1631260D01*
X12827747Y-1571164D01*
X12796136Y-1506160D01*
X12792279Y-1495493D01*
X12770916Y-1412367D01*
X12763850Y-1329546D01*
X12770870Y-1247744D01*
X12791765Y-1167673D01*
X12826324Y-1090045D01*
X12874335Y-1015572D01*
X12935587Y-944965D01*
X12963538Y-918157D01*
X13009309Y-881442D01*
X13064743Y-844882D01*
X13125221Y-811024D01*
X13186128Y-782412D01*
X13242845Y-761592D01*
X13252673Y-758753D01*
X13285668Y-750712D01*
X13321782Y-743549D01*
X13358091Y-737644D01*
X13391672Y-733370D01*
X13419602Y-731106D01*
X13438957Y-731229D01*
X13446669Y-733758D01*
X13444273Y-741044D01*
X13436473Y-759820D01*
X13424024Y-788434D01*
X13407684Y-825232D01*
X13388209Y-868566D01*
X13366354Y-916781D01*
X13342877Y-968225D01*
X13318530Y-1021245D01*
X13294074Y-1074191D01*
X13270263Y-1125409D01*
X13247852Y-1173248D01*
X13227597Y-1216056D01*
X13210256Y-1252179D01*
X13197976Y-1277191D01*
X13176105Y-1320990D01*
X13205570Y-1752452D01*
X13210925Y-1830043D01*
X13216079Y-1903186D01*
X13220937Y-1970621D01*
X13225404Y-2031089D01*
X13229382Y-2083330D01*
X13232777Y-2126084D01*
X13235494Y-2158093D01*
X13237434Y-2178097D01*
X13238482Y-2184838D01*
X13242185Y-2178666D01*
X13251631Y-2160565D01*
X13266256Y-2131681D01*
X13285491Y-2093154D01*
X13308773Y-2046131D01*
X13335533Y-1991753D01*
X13365206Y-1931163D01*
X13397225Y-1865506D01*
X13426416Y-1805427D01*
X13610903Y-1425092D01*
X13595534Y-1093373D01*
X13592335Y-1025393D01*
X13589253Y-961913D01*
X13586366Y-904393D01*
X13583751Y-854295D01*
X13581486Y-813077D01*
X13579648Y-782200D01*
X13578317Y-763125D01*
X13577642Y-757283D01*
X13567779Y-752342D01*
X13544663Y-747437D01*
X13509556Y-742811D01*
X13494935Y-741329D01*
X13473779Y-738019D01*
X13460137Y-733385D01*
X13457295Y-730216D01*
X13460297Y-721244D01*
X13468390Y-701719D01*
X13480460Y-674212D01*
X13495398Y-641292D01*
X13501350Y-628423D01*
X13518285Y-591824D01*
X13534041Y-557467D01*
X13547088Y-528705D01*
X13555899Y-508895D01*
X13557261Y-505731D01*
X13561472Y-496467D01*
X13564722Y-492173D01*
X13567278Y-494353D01*
X13569414Y-504512D01*
X13571399Y-524154D01*
X13573504Y-554783D01*
X13576000Y-597903D01*
X13576961Y-615231D01*
X13584579Y-753144D01*
X13613305Y-761698D01*
X13656552Y-778686D01*
X13704156Y-804345D01*
X13751413Y-836006D01*
X13770694Y-850996D01*
X13789486Y-866813D01*
X13804436Y-881198D01*
X13817792Y-897071D01*
X13831804Y-917359D01*
X13848722Y-944983D01*
X13866679Y-975745D01*
X13888046Y-1013314D01*
X13903163Y-1041876D01*
X13913477Y-1064731D01*
X13920429Y-1085180D01*
X13925466Y-1106526D01*
X13926687Y-1112887D01*
X13932805Y-1169512D01*
X13931833Y-1229719D01*
X13924035Y-1286537D01*
X13919355Y-1305727D01*
X13908138Y-1345661D01*
X14138088Y-1217089D01*
X14368038Y-1088517D01*
X14571238Y-1440470D01*
X13902825Y-1828517D01*
X13902825Y-1828517D01*
G37*
X13902825Y-1828517D02*
X13234411Y-2216563D01*
X13132738Y-2036396D01*
X13031065Y-1856229D01*
X13151624Y-1786625D01*
X13084787Y-1766611D01*
X13050031Y-1755026D01*
X13015536Y-1741559D01*
X12987174Y-1728561D01*
X12979804Y-1724570D01*
X12922069Y-1683409D01*
X12870554Y-1631260D01*
X12827747Y-1571164D01*
X12796136Y-1506160D01*
X12792279Y-1495493D01*
X12770916Y-1412367D01*
X12763850Y-1329546D01*
X12770870Y-1247744D01*
X12791765Y-1167673D01*
X12826324Y-1090045D01*
X12874335Y-1015572D01*
X12935587Y-944965D01*
X12963538Y-918157D01*
X13009309Y-881442D01*
X13064743Y-844882D01*
X13125221Y-811024D01*
X13186128Y-782412D01*
X13242845Y-761592D01*
X13252673Y-758753D01*
X13285668Y-750712D01*
X13321782Y-743549D01*
X13358091Y-737644D01*
X13391672Y-733370D01*
X13419602Y-731106D01*
X13438957Y-731229D01*
X13446669Y-733758D01*
X13444273Y-741044D01*
X13436473Y-759820D01*
X13424024Y-788434D01*
X13407684Y-825232D01*
X13388209Y-868566D01*
X13366354Y-916781D01*
X13342877Y-968225D01*
X13318530Y-1021245D01*
X13294074Y-1074191D01*
X13270263Y-1125409D01*
X13247852Y-1173248D01*
X13227597Y-1216056D01*
X13210256Y-1252179D01*
X13197976Y-1277191D01*
X13176105Y-1320990D01*
X13205570Y-1752452D01*
X13210925Y-1830043D01*
X13216079Y-1903186D01*
X13220937Y-1970621D01*
X13225404Y-2031089D01*
X13229382Y-2083330D01*
X13232777Y-2126084D01*
X13235494Y-2158093D01*
X13237434Y-2178097D01*
X13238482Y-2184838D01*
X13242185Y-2178666D01*
X13251631Y-2160565D01*
X13266256Y-2131681D01*
X13285491Y-2093154D01*
X13308773Y-2046131D01*
X13335533Y-1991753D01*
X13365206Y-1931163D01*
X13397225Y-1865506D01*
X13426416Y-1805427D01*
X13610903Y-1425092D01*
X13595534Y-1093373D01*
X13592335Y-1025393D01*
X13589253Y-961913D01*
X13586366Y-904393D01*
X13583751Y-854295D01*
X13581486Y-813077D01*
X13579648Y-782200D01*
X13578317Y-763125D01*
X13577642Y-757283D01*
X13567779Y-752342D01*
X13544663Y-747437D01*
X13509556Y-742811D01*
X13494935Y-741329D01*
X13473779Y-738019D01*
X13460137Y-733385D01*
X13457295Y-730216D01*
X13460297Y-721244D01*
X13468390Y-701719D01*
X13480460Y-674212D01*
X13495398Y-641292D01*
X13501350Y-628423D01*
X13518285Y-591824D01*
X13534041Y-557467D01*
X13547088Y-528705D01*
X13555899Y-508895D01*
X13557261Y-505731D01*
X13561472Y-496467D01*
X13564722Y-492173D01*
X13567278Y-494353D01*
X13569414Y-504512D01*
X13571399Y-524154D01*
X13573504Y-554783D01*
X13576000Y-597903D01*
X13576961Y-615231D01*
X13584579Y-753144D01*
X13613305Y-761698D01*
X13656552Y-778686D01*
X13704156Y-804345D01*
X13751413Y-836006D01*
X13770694Y-850996D01*
X13789486Y-866813D01*
X13804436Y-881198D01*
X13817792Y-897071D01*
X13831804Y-917359D01*
X13848722Y-944983D01*
X13866679Y-975745D01*
X13888046Y-1013314D01*
X13903163Y-1041876D01*
X13913477Y-1064731D01*
X13920429Y-1085180D01*
X13925466Y-1106526D01*
X13926687Y-1112887D01*
X13932805Y-1169512D01*
X13931833Y-1229719D01*
X13924035Y-1286537D01*
X13919355Y-1305727D01*
X13908138Y-1345661D01*
X14138088Y-1217089D01*
X14368038Y-1088517D01*
X14571238Y-1440470D01*
X13902825Y-1828517D01*
G36*
X15638820Y-3801207D02*
X15512534Y-3876388D01*
X15650406Y-4115188D01*
X15506450Y-4196049D01*
X15362494Y-4276910D01*
X15292749Y-4160056D01*
X15223003Y-4043202D01*
X15040569Y-4148531D01*
X14983634Y-4181523D01*
X14938083Y-4208386D01*
X14902667Y-4230143D01*
X14876139Y-4247813D01*
X14857251Y-4262418D01*
X14844757Y-4274982D01*
X14837408Y-4286523D01*
X14833955Y-4298063D01*
X14833152Y-4310626D01*
X14833381Y-4318155D01*
X14839108Y-4342402D01*
X14852917Y-4372851D01*
X14872516Y-4405558D01*
X14895607Y-4436580D01*
X14913815Y-4456347D01*
X14932543Y-4474653D01*
X14948489Y-4490554D01*
X14955164Y-4497417D01*
X14966685Y-4509621D01*
X14694278Y-4666895D01*
X14659691Y-4641634D01*
X14626336Y-4615719D01*
X14597817Y-4589496D01*
X14571585Y-4560004D01*
X14545097Y-4524287D01*
X14515803Y-4479385D01*
X14505011Y-4461924D01*
X14475487Y-4412060D01*
X14453990Y-4371878D01*
X14439615Y-4339624D01*
X14434684Y-4325500D01*
X14419371Y-4255666D01*
X14418013Y-4189692D01*
X14430697Y-4127213D01*
X14457514Y-4067860D01*
X14498549Y-4011273D01*
X14514126Y-3994279D01*
X14524069Y-3984793D01*
X14536992Y-3974219D01*
X14554181Y-3961733D01*
X14576921Y-3946510D01*
X14606494Y-3927724D01*
X14644187Y-3904548D01*
X14691283Y-3876159D01*
X14749067Y-3841728D01*
X14780094Y-3823336D01*
X15015849Y-3683759D01*
X14954766Y-3577961D01*
X15243870Y-3411047D01*
X15305405Y-3517630D01*
X15433656Y-3445852D01*
X15561907Y-3374075D01*
X15765107Y-3726028D01*
X15638820Y-3801207D01*
X15638820Y-3801207D01*
G37*
X15638820Y-3801207D02*
X15512534Y-3876388D01*
X15650406Y-4115188D01*
X15506450Y-4196049D01*
X15362494Y-4276910D01*
X15292749Y-4160056D01*
X15223003Y-4043202D01*
X15040569Y-4148531D01*
X14983634Y-4181523D01*
X14938083Y-4208386D01*
X14902667Y-4230143D01*
X14876139Y-4247813D01*
X14857251Y-4262418D01*
X14844757Y-4274982D01*
X14837408Y-4286523D01*
X14833955Y-4298063D01*
X14833152Y-4310626D01*
X14833381Y-4318155D01*
X14839108Y-4342402D01*
X14852917Y-4372851D01*
X14872516Y-4405558D01*
X14895607Y-4436580D01*
X14913815Y-4456347D01*
X14932543Y-4474653D01*
X14948489Y-4490554D01*
X14955164Y-4497417D01*
X14966685Y-4509621D01*
X14694278Y-4666895D01*
X14659691Y-4641634D01*
X14626336Y-4615719D01*
X14597817Y-4589496D01*
X14571585Y-4560004D01*
X14545097Y-4524287D01*
X14515803Y-4479385D01*
X14505011Y-4461924D01*
X14475487Y-4412060D01*
X14453990Y-4371878D01*
X14439615Y-4339624D01*
X14434684Y-4325500D01*
X14419371Y-4255666D01*
X14418013Y-4189692D01*
X14430697Y-4127213D01*
X14457514Y-4067860D01*
X14498549Y-4011273D01*
X14514126Y-3994279D01*
X14524069Y-3984793D01*
X14536992Y-3974219D01*
X14554181Y-3961733D01*
X14576921Y-3946510D01*
X14606494Y-3927724D01*
X14644187Y-3904548D01*
X14691283Y-3876159D01*
X14749067Y-3841728D01*
X14780094Y-3823336D01*
X15015849Y-3683759D01*
X14954766Y-3577961D01*
X15243870Y-3411047D01*
X15305405Y-3517630D01*
X15433656Y-3445852D01*
X15561907Y-3374075D01*
X15765107Y-3726028D01*
X15638820Y-3801207D01*
G36*
X12592800Y2018346D02*
X12615937Y1971896D01*
X12635773Y1927707D01*
X12650952Y1888453D01*
X12660116Y1856814D01*
X12662188Y1842084D01*
X12661315Y1836416D01*
X12657123Y1830197D01*
X12647968Y1822273D01*
X12632206Y1811489D01*
X12608196Y1796693D01*
X12574295Y1776732D01*
X12544639Y1759552D01*
X12507296Y1738212D01*
X12474259Y1719749D01*
X12447573Y1705271D01*
X12429278Y1695887D01*
X12421421Y1692704D01*
X12421380Y1692713D01*
X12416757Y1699888D01*
X12410343Y1716868D01*
X12405869Y1731672D01*
X12393793Y1765529D01*
X12376649Y1801110D01*
X12356798Y1834414D01*
X12336601Y1861446D01*
X12319939Y1877204D01*
X12293147Y1887394D01*
X12260404Y1886918D01*
X12225309Y1876042D01*
X12212086Y1869226D01*
X12187219Y1854869D01*
X12249910Y1742322D01*
X12312601Y1629774D01*
X12186314Y1554595D01*
X12060028Y1479415D01*
X11929249Y1705930D01*
X11212774Y1292273D01*
X11009574Y1644226D01*
X11726049Y2057883D01*
X11660735Y2171010D01*
X11930984Y2327039D01*
X11995232Y2215758D01*
X12055486Y2245654D01*
X12128957Y2275578D01*
X12199952Y2291365D01*
X12268122Y2293075D01*
X12333121Y2280764D01*
X12394602Y2254488D01*
X12452220Y2214305D01*
X12494368Y2173220D01*
X12517146Y2144493D01*
X12542049Y2107320D01*
X12567718Y2064379D01*
X12592800Y2018346D01*
X12592800Y2018346D01*
G37*
X12592800Y2018346D02*
X12615937Y1971896D01*
X12635773Y1927707D01*
X12650952Y1888453D01*
X12660116Y1856814D01*
X12662188Y1842084D01*
X12661315Y1836416D01*
X12657123Y1830197D01*
X12647968Y1822273D01*
X12632206Y1811489D01*
X12608196Y1796693D01*
X12574295Y1776732D01*
X12544639Y1759552D01*
X12507296Y1738212D01*
X12474259Y1719749D01*
X12447573Y1705271D01*
X12429278Y1695887D01*
X12421421Y1692704D01*
X12421380Y1692713D01*
X12416757Y1699888D01*
X12410343Y1716868D01*
X12405869Y1731672D01*
X12393793Y1765529D01*
X12376649Y1801110D01*
X12356798Y1834414D01*
X12336601Y1861446D01*
X12319939Y1877204D01*
X12293147Y1887394D01*
X12260404Y1886918D01*
X12225309Y1876042D01*
X12212086Y1869226D01*
X12187219Y1854869D01*
X12249910Y1742322D01*
X12312601Y1629774D01*
X12186314Y1554595D01*
X12060028Y1479415D01*
X11929249Y1705930D01*
X11212774Y1292273D01*
X11009574Y1644226D01*
X11726049Y2057883D01*
X11660735Y2171010D01*
X11930984Y2327039D01*
X11995232Y2215758D01*
X12055486Y2245654D01*
X12128957Y2275578D01*
X12199952Y2291365D01*
X12268122Y2293075D01*
X12333121Y2280764D01*
X12394602Y2254488D01*
X12452220Y2214305D01*
X12494368Y2173220D01*
X12517146Y2144493D01*
X12542049Y2107320D01*
X12567718Y2064379D01*
X12592800Y2018346D01*
G36*
X11626431Y575799D02*
X11423231Y927751D01*
X12409955Y1497437D01*
X12613155Y1145484D01*
X11626431Y575799D01*
X11626431Y575799D01*
G37*
X11626431Y575799D02*
X11423231Y927751D01*
X12409955Y1497437D01*
X12613155Y1145484D01*
X11626431Y575799D01*
G36*
X13214965Y-633480D02*
X12548122Y-1020616D01*
X12341227Y-662264D01*
X13009918Y-278329D01*
X13678609Y105608D01*
X13881809Y-246345D01*
X13214965Y-633480D01*
X13214965Y-633480D01*
G37*
X13214965Y-633480D02*
X12548122Y-1020616D01*
X12341227Y-662264D01*
X13009918Y-278329D01*
X13678609Y105608D01*
X13881809Y-246345D01*
X13214965Y-633480D01*
G36*
X14534402Y-2146716D02*
X14198759Y-2342667D01*
X14679361Y-2433289D01*
X14792887Y-2629922D01*
X14820655Y-2678256D01*
X14845752Y-2722402D01*
X14867336Y-2760841D01*
X14884562Y-2792054D01*
X14896590Y-2814522D01*
X14902577Y-2826723D01*
X14903042Y-2828500D01*
X14895623Y-2827499D01*
X14875815Y-2824034D01*
X14845467Y-2818459D01*
X14806427Y-2811136D01*
X14760542Y-2802421D01*
X14709661Y-2792673D01*
X14655634Y-2782249D01*
X14600307Y-2771508D01*
X14545529Y-2760807D01*
X14493148Y-2750505D01*
X14445014Y-2740960D01*
X14402972Y-2732529D01*
X14368872Y-2725571D01*
X14344563Y-2720443D01*
X14339903Y-2719416D01*
X14313703Y-2713552D01*
X14129641Y-3044661D01*
X14093993Y-3108813D01*
X14060281Y-3169525D01*
X14029203Y-3225536D01*
X14001456Y-3275591D01*
X13977735Y-3318430D01*
X13958740Y-3352796D01*
X13945166Y-3377432D01*
X13937709Y-3391077D01*
X13936680Y-3393013D01*
X13927780Y-3410255D01*
X13703170Y-3021218D01*
X13810692Y-2823232D01*
X13918215Y-2625245D01*
X13839574Y-2608372D01*
X13760934Y-2591499D01*
X13646183Y-2657629D01*
X13531431Y-2723758D01*
X13328231Y-2371806D01*
X14666908Y-1598920D01*
X14870045Y-1950764D01*
X14534402Y-2146716D01*
X14534402Y-2146716D01*
G37*
X14534402Y-2146716D02*
X14198759Y-2342667D01*
X14679361Y-2433289D01*
X14792887Y-2629922D01*
X14820655Y-2678256D01*
X14845752Y-2722402D01*
X14867336Y-2760841D01*
X14884562Y-2792054D01*
X14896590Y-2814522D01*
X14902577Y-2826723D01*
X14903042Y-2828500D01*
X14895623Y-2827499D01*
X14875815Y-2824034D01*
X14845467Y-2818459D01*
X14806427Y-2811136D01*
X14760542Y-2802421D01*
X14709661Y-2792673D01*
X14655634Y-2782249D01*
X14600307Y-2771508D01*
X14545529Y-2760807D01*
X14493148Y-2750505D01*
X14445014Y-2740960D01*
X14402972Y-2732529D01*
X14368872Y-2725571D01*
X14344563Y-2720443D01*
X14339903Y-2719416D01*
X14313703Y-2713552D01*
X14129641Y-3044661D01*
X14093993Y-3108813D01*
X14060281Y-3169525D01*
X14029203Y-3225536D01*
X14001456Y-3275591D01*
X13977735Y-3318430D01*
X13958740Y-3352796D01*
X13945166Y-3377432D01*
X13937709Y-3391077D01*
X13936680Y-3393013D01*
X13927780Y-3410255D01*
X13703170Y-3021218D01*
X13810692Y-2823232D01*
X13918215Y-2625245D01*
X13839574Y-2608372D01*
X13760934Y-2591499D01*
X13646183Y-2657629D01*
X13531431Y-2723758D01*
X13328231Y-2371806D01*
X14666908Y-1598920D01*
X14870045Y-1950764D01*
X14534402Y-2146716D01*
G36*
X14166431Y-3823611D02*
X13959603Y-3465373D01*
X14946327Y-2895688D01*
X15153155Y-3253925D01*
X14166431Y-3823611D01*
X14166431Y-3823611D01*
G37*
X14166431Y-3823611D02*
X13959603Y-3465373D01*
X14946327Y-2895688D01*
X15153155Y-3253925D01*
X14166431Y-3823611D01*
G36*
X13520339Y-1352036D02*
X13522831Y-1392136D01*
X13516365Y-1419087D01*
X13496010Y-1456353D01*
X13466929Y-1484183D01*
X13431787Y-1501677D01*
X13393244Y-1507933D01*
X13353962Y-1502050D01*
X13320063Y-1485556D01*
X13289228Y-1458139D01*
X13271056Y-1425213D01*
X13264164Y-1387866D01*
X13268083Y-1346323D01*
X13284013Y-1309989D01*
X13309851Y-1280699D01*
X13343493Y-1260286D01*
X13382834Y-1250585D01*
X13419786Y-1252237D01*
X13458070Y-1264881D01*
X13487573Y-1288461D01*
X13503474Y-1310992D01*
X13520339Y-1352036D01*
X13520339Y-1352036D01*
G37*
X13520339Y-1352036D02*
X13522831Y-1392136D01*
X13516365Y-1419087D01*
X13496010Y-1456353D01*
X13466929Y-1484183D01*
X13431787Y-1501677D01*
X13393244Y-1507933D01*
X13353962Y-1502050D01*
X13320063Y-1485556D01*
X13289228Y-1458139D01*
X13271056Y-1425213D01*
X13264164Y-1387866D01*
X13268083Y-1346323D01*
X13284013Y-1309989D01*
X13309851Y-1280699D01*
X13343493Y-1260286D01*
X13382834Y-1250585D01*
X13419786Y-1252237D01*
X13458070Y-1264881D01*
X13487573Y-1288461D01*
X13503474Y-1310992D01*
X13520339Y-1352036D01*
G36*
X12707428Y1199913D02*
X12493192Y1570980D01*
X12621443Y1642757D01*
X12749695Y1714534D01*
X12857497Y1531664D01*
X12965298Y1348794D01*
X12707428Y1199913D01*
X12707428Y1199913D01*
G37*
X12707428Y1199913D02*
X12493192Y1570980D01*
X12621443Y1642757D01*
X12749695Y1714534D01*
X12857497Y1531664D01*
X12965298Y1348794D01*
X12707428Y1199913D01*
G36*
X15254686Y-3212067D02*
X15040450Y-2840999D01*
X15168700Y-2769222D01*
X15296952Y-2697444D01*
X15404754Y-2880314D01*
X15512555Y-3063186D01*
X15254686Y-3212067D01*
X15254686Y-3212067D01*
G37*
X15254686Y-3212067D02*
X15040450Y-2840999D01*
X15168700Y-2769222D01*
X15296952Y-2697444D01*
X15404754Y-2880314D01*
X15512555Y-3063186D01*
X15254686Y-3212067D01*
G36*
X13496474Y8064472D02*
X13523897Y8015782D01*
X13546898Y7973507D01*
X13566552Y7935418D01*
X13583932Y7899290D01*
X13600114Y7862894D01*
X13616171Y7824004D01*
X13633176Y7780393D01*
X13650892Y7733358D01*
X13705714Y7568300D01*
X13748453Y7400245D01*
X13779175Y7229909D01*
X13797942Y7058008D01*
X13804816Y6885260D01*
X13799862Y6712380D01*
X13783143Y6540087D01*
X13754721Y6369096D01*
X13714659Y6200125D01*
X13663021Y6033891D01*
X13599869Y5871111D01*
X13525267Y5712500D01*
X13462890Y5598514D01*
X13367628Y5446976D01*
X13263230Y5304230D01*
X13149661Y5170239D01*
X13026878Y5044965D01*
X12894844Y4928372D01*
X12753519Y4820424D01*
X12602865Y4721080D01*
X12450898Y4634553D01*
X12293067Y4558164D01*
X12130624Y4493421D01*
X11964250Y4440424D01*
X11794625Y4399272D01*
X11622428Y4370068D01*
X11448339Y4352910D01*
X11273039Y4347899D01*
X11097208Y4355136D01*
X10921527Y4374722D01*
X10814029Y4392908D01*
X10759490Y4404513D01*
X10696832Y4419780D01*
X10629448Y4437737D01*
X10560735Y4457407D01*
X10494086Y4477819D01*
X10432895Y4497998D01*
X10380561Y4516968D01*
X10377163Y4518285D01*
X10213013Y4588887D01*
X10055026Y4670238D01*
X9903874Y4761927D01*
X9760230Y4863552D01*
X9635147Y4965597D01*
X9503822Y5088484D01*
X9382189Y5219384D01*
X9270546Y5357908D01*
X9169192Y5503668D01*
X9078428Y5656276D01*
X9027277Y5754823D01*
X8954505Y5917234D01*
X8893681Y6083487D01*
X8844865Y6252946D01*
X8808118Y6424974D01*
X8783504Y6598935D01*
X8771084Y6774194D01*
X8770920Y6950114D01*
X8783073Y7126059D01*
X8807606Y7301392D01*
X8844582Y7475478D01*
X8855585Y7518015D01*
X8907553Y7687846D01*
X8970800Y7852305D01*
X9044896Y8010939D01*
X9129411Y8163294D01*
X9223917Y8308918D01*
X9327982Y8447357D01*
X9412591Y8545126D01*
X9536456Y8330584D01*
X9529472Y8325104D01*
X9516387Y8310821D01*
X9498444Y8289299D01*
X9476880Y8262100D01*
X9452934Y8230787D01*
X9427846Y8196923D01*
X9402917Y8162158D01*
X9380743Y8129040D01*
X9354738Y8087557D01*
X9326665Y8040748D01*
X9298287Y7991650D01*
X9271364Y7943301D01*
X9247662Y7898738D01*
X9232536Y7868546D01*
X9173021Y7733476D01*
X9121390Y7592102D01*
X9078328Y7446979D01*
X9044529Y7300663D01*
X9020680Y7155708D01*
X9009134Y7041062D01*
X9009066Y6970920D01*
X9017989Y6892896D01*
X9035685Y6807858D01*
X9061939Y6716675D01*
X9096538Y6620215D01*
X9136502Y6525456D01*
X9151264Y6495591D01*
X9171354Y6458913D01*
X9194696Y6418929D01*
X9219211Y6379145D01*
X9242819Y6343066D01*
X9254962Y6325659D01*
X9307153Y6259219D01*
X9361737Y6201309D01*
X9417566Y6152924D01*
X9473490Y6115061D01*
X9527994Y6088855D01*
X9570924Y6075788D01*
X9611316Y6070826D01*
X9652686Y6074051D01*
X9698547Y6085540D01*
X9720884Y6093171D01*
X9780460Y6111632D01*
X9833301Y6120815D01*
X9881336Y6120725D01*
X9926490Y6111372D01*
X9968118Y6094094D01*
X10001630Y6074635D01*
X10034654Y6050525D01*
X10067841Y6020945D01*
X10101842Y5985079D01*
X10137307Y5942114D01*
X10174889Y5891233D01*
X10215236Y5831619D01*
X10259000Y5762458D01*
X10306832Y5682936D01*
X10335784Y5633317D01*
X10411831Y5505075D01*
X10484676Y5388944D01*
X10554299Y5284957D01*
X10620677Y5193145D01*
X10683789Y5113539D01*
X10728974Y5061857D01*
X10820651Y4969876D01*
X10917611Y4887739D01*
X11019016Y4815951D01*
X11124030Y4755018D01*
X11231814Y4705446D01*
X11341531Y4667739D01*
X11410736Y4650418D01*
X11444643Y4643152D01*
X11382458Y4684077D01*
X11351300Y4705260D01*
X11318090Y4728940D01*
X11287751Y4751559D01*
X11272941Y4763168D01*
X11236292Y4794798D01*
X11194905Y4833989D01*
X11151434Y4877977D01*
X11108537Y4924000D01*
X11068870Y4969294D01*
X11036936Y5008690D01*
X11010590Y5045054D01*
X10980553Y5090158D01*
X10948467Y5141220D01*
X10915970Y5195454D01*
X10884702Y5250072D01*
X10856303Y5302292D01*
X10832414Y5349326D01*
X10817879Y5380817D01*
X10755594Y5538925D01*
X10701969Y5705088D01*
X10657454Y5877673D01*
X10622497Y6055048D01*
X10609709Y6138092D01*
X10605808Y6166292D01*
X10602293Y6192905D01*
X10598997Y6219529D01*
X10595757Y6247765D01*
X10592405Y6279212D01*
X10588778Y6315471D01*
X10584708Y6358141D01*
X10580031Y6408823D01*
X10574582Y6469115D01*
X10568869Y6533044D01*
X10547755Y6715182D01*
X10517538Y6890646D01*
X10478387Y7059099D01*
X10430468Y7220201D01*
X10373949Y7373615D01*
X10308996Y7519001D01*
X10235776Y7656020D01*
X10154455Y7784332D01*
X10065203Y7903601D01*
X9968183Y8013486D01*
X9863564Y8113647D01*
X9751513Y8203748D01*
X9743128Y8209863D01*
X9715124Y8229371D01*
X9683760Y8249940D01*
X9651029Y8270409D01*
X9618916Y8289614D01*
X9589411Y8306396D01*
X9564504Y8319593D01*
X9546181Y8328041D01*
X9536456Y8330584D01*
X9412591Y8545126D01*
X9441176Y8578158D01*
X9563070Y8700867D01*
X9693235Y8815031D01*
X9831240Y8920198D01*
X9976656Y9015914D01*
X10088173Y9078708D01*
X10203572Y8878832D01*
X10138557Y8841257D01*
X10072770Y8801191D01*
X10008956Y8760328D01*
X9949864Y8720363D01*
X9898239Y8682989D01*
X9875742Y8665530D01*
X9842056Y8638028D01*
X9806883Y8608291D01*
X9771422Y8577440D01*
X9736872Y8546593D01*
X9704433Y8516872D01*
X9675303Y8489393D01*
X9650682Y8465278D01*
X9631769Y8445645D01*
X9619764Y8431615D01*
X9615865Y8424306D01*
X9616541Y8423566D01*
X9623325Y8423738D01*
X9641967Y8424540D01*
X9671638Y8425931D01*
X9711513Y8427867D01*
X9760767Y8430308D01*
X9818573Y8433211D01*
X9884106Y8436536D01*
X9956538Y8440239D01*
X10035044Y8444281D01*
X10118799Y8448617D01*
X10206976Y8453209D01*
X10298748Y8458011D01*
X10301800Y8458172D01*
X10393664Y8462958D01*
X10481952Y8467491D01*
X10565838Y8471730D01*
X10644497Y8475639D01*
X10717105Y8479176D01*
X10782835Y8482305D01*
X10840863Y8484985D01*
X10890364Y8487179D01*
X10930511Y8488848D01*
X10960481Y8489953D01*
X10979447Y8490455D01*
X10986584Y8490317D01*
X10986609Y8490300D01*
X10983997Y8484432D01*
X10975186Y8468715D01*
X10960727Y8444055D01*
X10941171Y8411361D01*
X10917067Y8371540D01*
X10888968Y8325501D01*
X10857423Y8274151D01*
X10822981Y8218399D01*
X10786195Y8159152D01*
X10773528Y8138817D01*
X10736050Y8078591D01*
X10700690Y8021553D01*
X10668002Y7968612D01*
X10638542Y7920680D01*
X10612866Y7878664D01*
X10591527Y7843473D01*
X10575082Y7816018D01*
X10564085Y7797208D01*
X10559091Y7787949D01*
X10558854Y7787145D01*
X10565364Y7786908D01*
X10583722Y7787234D01*
X10613094Y7788091D01*
X10652640Y7789443D01*
X10701525Y7791259D01*
X10758913Y7793506D01*
X10823964Y7796149D01*
X10895845Y7799156D01*
X10973716Y7802493D01*
X11056742Y7806126D01*
X11144085Y7810023D01*
X11220065Y7813471D01*
X11310475Y7817588D01*
X11397330Y7821512D01*
X11479788Y7825205D01*
X11557005Y7828632D01*
X11628136Y7831756D01*
X11692341Y7834542D01*
X11748776Y7836951D01*
X11796597Y7838949D01*
X11834962Y7840499D01*
X11863027Y7841565D01*
X11879950Y7842109D01*
X11884931Y7842140D01*
X11882507Y7836665D01*
X11873808Y7821174D01*
X11859293Y7796419D01*
X11839420Y7763154D01*
X11814648Y7722131D01*
X11785434Y7674102D01*
X11752236Y7619821D01*
X11715512Y7560040D01*
X11675722Y7495512D01*
X11633321Y7426989D01*
X11588771Y7355225D01*
X11581133Y7342944D01*
X11536195Y7270654D01*
X11493249Y7201458D01*
X11452762Y7136113D01*
X11415198Y7075375D01*
X11381023Y7020000D01*
X11350703Y6970744D01*
X11324701Y6928363D01*
X11303485Y6893613D01*
X11287517Y6867249D01*
X11277266Y6850029D01*
X11273194Y6842708D01*
X11273147Y6842505D01*
X11279625Y6842251D01*
X11297551Y6842568D01*
X11325689Y6843409D01*
X11362801Y6844729D01*
X11407649Y6846481D01*
X11458998Y6848618D01*
X11515610Y6851095D01*
X11576247Y6853864D01*
X11578086Y6853950D01*
X11638843Y6856708D01*
X11695627Y6859135D01*
X11747199Y6861190D01*
X11792318Y6862831D01*
X11829747Y6864015D01*
X11858244Y6864700D01*
X11876571Y6864844D01*
X11883488Y6864403D01*
X11883505Y6864382D01*
X11880548Y6858563D01*
X11871341Y6842742D01*
X11856359Y6817692D01*
X11836077Y6784187D01*
X11810967Y6743000D01*
X11781504Y6694905D01*
X11748160Y6640674D01*
X11711411Y6581082D01*
X11671729Y6516901D01*
X11629588Y6448905D01*
X11588146Y6382184D01*
X11543726Y6310729D01*
X11500999Y6241970D01*
X11460473Y6176727D01*
X11422657Y6115817D01*
X11388056Y6060059D01*
X11357179Y6010271D01*
X11330533Y5967270D01*
X11308625Y5931874D01*
X11291961Y5904903D01*
X11281050Y5887172D01*
X11276601Y5879847D01*
X11262560Y5855991D01*
X11546729Y5869171D01*
X11605468Y5871793D01*
X11660179Y5874037D01*
X11709585Y5875865D01*
X11752407Y5877239D01*
X11787368Y5878120D01*
X11813190Y5878472D01*
X11828592Y5878257D01*
X11832549Y5877677D01*
X11829688Y5871399D01*
X11820819Y5855592D01*
X11806679Y5831487D01*
X11788006Y5800314D01*
X11765536Y5763305D01*
X11740007Y5721690D01*
X11712214Y5676793D01*
X11684519Y5631993D01*
X11659302Y5590715D01*
X11637278Y5554159D01*
X11619154Y5523529D01*
X11605645Y5500028D01*
X11597461Y5484859D01*
X11595313Y5479223D01*
X11595329Y5479218D01*
X11602345Y5479286D01*
X11621050Y5479912D01*
X11650448Y5481051D01*
X11689541Y5482662D01*
X11737335Y5484700D01*
X11792831Y5487124D01*
X11855035Y5489889D01*
X11922948Y5492954D01*
X11995574Y5496274D01*
X12071917Y5499807D01*
X12074363Y5499919D01*
X12150695Y5503437D01*
X12223257Y5506707D01*
X12291065Y5509690D01*
X12353134Y5512346D01*
X12408474Y5514636D01*
X12456100Y5516519D01*
X12495026Y5517955D01*
X12524266Y5518906D01*
X12542833Y5519329D01*
X12549740Y5519186D01*
X12549760Y5519168D01*
X12546905Y5513345D01*
X12538184Y5497418D01*
X12524097Y5472265D01*
X12505148Y5438769D01*
X12481838Y5397811D01*
X12454671Y5350273D01*
X12424148Y5297033D01*
X12390773Y5238977D01*
X12355046Y5176983D01*
X12325761Y5126271D01*
X12288645Y5061884D01*
X12253610Y5000771D01*
X12221147Y4943807D01*
X12191746Y4891870D01*
X12165896Y4845835D01*
X12144087Y4806579D01*
X12126811Y4774977D01*
X12114555Y4751904D01*
X12107812Y4738237D01*
X12106706Y4734668D01*
X12117902Y4736255D01*
X12138653Y4743355D01*
X12167447Y4755245D01*
X12202776Y4771200D01*
X12243130Y4790498D01*
X12287000Y4812412D01*
X12332876Y4836220D01*
X12379250Y4861200D01*
X12424610Y4886625D01*
X12429742Y4889573D01*
X12523496Y4945615D01*
X12607884Y5000661D01*
X12685839Y5056871D01*
X12760296Y5116406D01*
X12834188Y5181425D01*
X12864502Y5209696D01*
X12982019Y5329089D01*
X13088889Y5454855D01*
X13185739Y5587850D01*
X13273200Y5728930D01*
X13342949Y5860552D01*
X13377339Y5932950D01*
X13406946Y6001065D01*
X13433089Y6068457D01*
X13457086Y6138688D01*
X13480255Y6215318D01*
X13497775Y6278731D01*
X13525831Y6391960D01*
X13547298Y6498415D01*
X13562713Y6601832D01*
X13572621Y6705944D01*
X13577562Y6814488D01*
X13577905Y6831179D01*
X13574638Y6999512D01*
X13559121Y7165650D01*
X13531702Y7329031D01*
X13492726Y7489090D01*
X13442538Y7645265D01*
X13381485Y7796994D01*
X13309912Y7943712D01*
X13228166Y8084857D01*
X13136593Y8219865D01*
X13035536Y8348174D01*
X12925344Y8469220D01*
X12806361Y8582440D01*
X12678934Y8687273D01*
X12543409Y8783153D01*
X12400131Y8869517D01*
X12291181Y8926066D01*
X12136072Y8994401D01*
X11977512Y9050730D01*
X11816165Y9095049D01*
X11652696Y9127355D01*
X11487773Y9147639D01*
X11322059Y9155901D01*
X11156222Y9152134D01*
X10990925Y9136335D01*
X10826835Y9108497D01*
X10664616Y9068617D01*
X10504937Y9016691D01*
X10348459Y8952713D01*
X10320294Y8939734D01*
X10265066Y8912223D01*
X10203572Y8878832D01*
X10088173Y9078708D01*
X10129051Y9101725D01*
X10287998Y9177179D01*
X10453066Y9241821D01*
X10507977Y9260432D01*
X10677382Y9309168D01*
X10848266Y9345572D01*
X11020021Y9369819D01*
X11192040Y9382083D01*
X11363716Y9382541D01*
X11534442Y9371365D01*
X11703613Y9348731D01*
X11870620Y9314813D01*
X12034857Y9269787D01*
X12195716Y9213826D01*
X12352592Y9147108D01*
X12504877Y9069804D01*
X12651965Y8982090D01*
X12793248Y8884141D01*
X12928120Y8776132D01*
X13055974Y8658237D01*
X13176202Y8530632D01*
X13219753Y8479643D01*
X13253434Y8438776D01*
X13282393Y8402660D01*
X13308008Y8369273D01*
X13331655Y8336597D01*
X13354709Y8302612D01*
X13378549Y8265297D01*
X13404548Y8222633D01*
X13434085Y8172600D01*
X13463556Y8121803D01*
X13496474Y8064472D01*
X13496474Y8064472D01*
G37*
X13496474Y8064472D02*
X13523897Y8015782D01*
X13546898Y7973507D01*
X13566552Y7935418D01*
X13583932Y7899290D01*
X13600114Y7862894D01*
X13616171Y7824004D01*
X13633176Y7780393D01*
X13650892Y7733358D01*
X13705714Y7568300D01*
X13748453Y7400245D01*
X13779175Y7229909D01*
X13797942Y7058008D01*
X13804816Y6885260D01*
X13799862Y6712380D01*
X13783143Y6540087D01*
X13754721Y6369096D01*
X13714659Y6200125D01*
X13663021Y6033891D01*
X13599869Y5871111D01*
X13525267Y5712500D01*
X13462890Y5598514D01*
X13367628Y5446976D01*
X13263230Y5304230D01*
X13149661Y5170239D01*
X13026878Y5044965D01*
X12894844Y4928372D01*
X12753519Y4820424D01*
X12602865Y4721080D01*
X12450898Y4634553D01*
X12293067Y4558164D01*
X12130624Y4493421D01*
X11964250Y4440424D01*
X11794625Y4399272D01*
X11622428Y4370068D01*
X11448339Y4352910D01*
X11273039Y4347899D01*
X11097208Y4355136D01*
X10921527Y4374722D01*
X10814029Y4392908D01*
X10759490Y4404513D01*
X10696832Y4419780D01*
X10629448Y4437737D01*
X10560735Y4457407D01*
X10494086Y4477819D01*
X10432895Y4497998D01*
X10380561Y4516968D01*
X10377163Y4518285D01*
X10213013Y4588887D01*
X10055026Y4670238D01*
X9903874Y4761927D01*
X9760230Y4863552D01*
X9635147Y4965597D01*
X9503822Y5088484D01*
X9382189Y5219384D01*
X9270546Y5357908D01*
X9169192Y5503668D01*
X9078428Y5656276D01*
X9027277Y5754823D01*
X8954505Y5917234D01*
X8893681Y6083487D01*
X8844865Y6252946D01*
X8808118Y6424974D01*
X8783504Y6598935D01*
X8771084Y6774194D01*
X8770920Y6950114D01*
X8783073Y7126059D01*
X8807606Y7301392D01*
X8844582Y7475478D01*
X8855585Y7518015D01*
X8907553Y7687846D01*
X8970800Y7852305D01*
X9044896Y8010939D01*
X9129411Y8163294D01*
X9223917Y8308918D01*
X9327982Y8447357D01*
X9412591Y8545126D01*
X9536456Y8330584D01*
X9529472Y8325104D01*
X9516387Y8310821D01*
X9498444Y8289299D01*
X9476880Y8262100D01*
X9452934Y8230787D01*
X9427846Y8196923D01*
X9402917Y8162158D01*
X9380743Y8129040D01*
X9354738Y8087557D01*
X9326665Y8040748D01*
X9298287Y7991650D01*
X9271364Y7943301D01*
X9247662Y7898738D01*
X9232536Y7868546D01*
X9173021Y7733476D01*
X9121390Y7592102D01*
X9078328Y7446979D01*
X9044529Y7300663D01*
X9020680Y7155708D01*
X9009134Y7041062D01*
X9009066Y6970920D01*
X9017989Y6892896D01*
X9035685Y6807858D01*
X9061939Y6716675D01*
X9096538Y6620215D01*
X9136502Y6525456D01*
X9151264Y6495591D01*
X9171354Y6458913D01*
X9194696Y6418929D01*
X9219211Y6379145D01*
X9242819Y6343066D01*
X9254962Y6325659D01*
X9307153Y6259219D01*
X9361737Y6201309D01*
X9417566Y6152924D01*
X9473490Y6115061D01*
X9527994Y6088855D01*
X9570924Y6075788D01*
X9611316Y6070826D01*
X9652686Y6074051D01*
X9698547Y6085540D01*
X9720884Y6093171D01*
X9780460Y6111632D01*
X9833301Y6120815D01*
X9881336Y6120725D01*
X9926490Y6111372D01*
X9968118Y6094094D01*
X10001630Y6074635D01*
X10034654Y6050525D01*
X10067841Y6020945D01*
X10101842Y5985079D01*
X10137307Y5942114D01*
X10174889Y5891233D01*
X10215236Y5831619D01*
X10259000Y5762458D01*
X10306832Y5682936D01*
X10335784Y5633317D01*
X10411831Y5505075D01*
X10484676Y5388944D01*
X10554299Y5284957D01*
X10620677Y5193145D01*
X10683789Y5113539D01*
X10728974Y5061857D01*
X10820651Y4969876D01*
X10917611Y4887739D01*
X11019016Y4815951D01*
X11124030Y4755018D01*
X11231814Y4705446D01*
X11341531Y4667739D01*
X11410736Y4650418D01*
X11444643Y4643152D01*
X11382458Y4684077D01*
X11351300Y4705260D01*
X11318090Y4728940D01*
X11287751Y4751559D01*
X11272941Y4763168D01*
X11236292Y4794798D01*
X11194905Y4833989D01*
X11151434Y4877977D01*
X11108537Y4924000D01*
X11068870Y4969294D01*
X11036936Y5008690D01*
X11010590Y5045054D01*
X10980553Y5090158D01*
X10948467Y5141220D01*
X10915970Y5195454D01*
X10884702Y5250072D01*
X10856303Y5302292D01*
X10832414Y5349326D01*
X10817879Y5380817D01*
X10755594Y5538925D01*
X10701969Y5705088D01*
X10657454Y5877673D01*
X10622497Y6055048D01*
X10609709Y6138092D01*
X10605808Y6166292D01*
X10602293Y6192905D01*
X10598997Y6219529D01*
X10595757Y6247765D01*
X10592405Y6279212D01*
X10588778Y6315471D01*
X10584708Y6358141D01*
X10580031Y6408823D01*
X10574582Y6469115D01*
X10568869Y6533044D01*
X10547755Y6715182D01*
X10517538Y6890646D01*
X10478387Y7059099D01*
X10430468Y7220201D01*
X10373949Y7373615D01*
X10308996Y7519001D01*
X10235776Y7656020D01*
X10154455Y7784332D01*
X10065203Y7903601D01*
X9968183Y8013486D01*
X9863564Y8113647D01*
X9751513Y8203748D01*
X9743128Y8209863D01*
X9715124Y8229371D01*
X9683760Y8249940D01*
X9651029Y8270409D01*
X9618916Y8289614D01*
X9589411Y8306396D01*
X9564504Y8319593D01*
X9546181Y8328041D01*
X9536456Y8330584D01*
X9412591Y8545126D01*
X9441176Y8578158D01*
X9563070Y8700867D01*
X9693235Y8815031D01*
X9831240Y8920198D01*
X9976656Y9015914D01*
X10088173Y9078708D01*
X10203572Y8878832D01*
X10138557Y8841257D01*
X10072770Y8801191D01*
X10008956Y8760328D01*
X9949864Y8720363D01*
X9898239Y8682989D01*
X9875742Y8665530D01*
X9842056Y8638028D01*
X9806883Y8608291D01*
X9771422Y8577440D01*
X9736872Y8546593D01*
X9704433Y8516872D01*
X9675303Y8489393D01*
X9650682Y8465278D01*
X9631769Y8445645D01*
X9619764Y8431615D01*
X9615865Y8424306D01*
X9616541Y8423566D01*
X9623325Y8423738D01*
X9641967Y8424540D01*
X9671638Y8425931D01*
X9711513Y8427867D01*
X9760767Y8430308D01*
X9818573Y8433211D01*
X9884106Y8436536D01*
X9956538Y8440239D01*
X10035044Y8444281D01*
X10118799Y8448617D01*
X10206976Y8453209D01*
X10298748Y8458011D01*
X10301800Y8458172D01*
X10393664Y8462958D01*
X10481952Y8467491D01*
X10565838Y8471730D01*
X10644497Y8475639D01*
X10717105Y8479176D01*
X10782835Y8482305D01*
X10840863Y8484985D01*
X10890364Y8487179D01*
X10930511Y8488848D01*
X10960481Y8489953D01*
X10979447Y8490455D01*
X10986584Y8490317D01*
X10986609Y8490300D01*
X10983997Y8484432D01*
X10975186Y8468715D01*
X10960727Y8444055D01*
X10941171Y8411361D01*
X10917067Y8371540D01*
X10888968Y8325501D01*
X10857423Y8274151D01*
X10822981Y8218399D01*
X10786195Y8159152D01*
X10773528Y8138817D01*
X10736050Y8078591D01*
X10700690Y8021553D01*
X10668002Y7968612D01*
X10638542Y7920680D01*
X10612866Y7878664D01*
X10591527Y7843473D01*
X10575082Y7816018D01*
X10564085Y7797208D01*
X10559091Y7787949D01*
X10558854Y7787145D01*
X10565364Y7786908D01*
X10583722Y7787234D01*
X10613094Y7788091D01*
X10652640Y7789443D01*
X10701525Y7791259D01*
X10758913Y7793506D01*
X10823964Y7796149D01*
X10895845Y7799156D01*
X10973716Y7802493D01*
X11056742Y7806126D01*
X11144085Y7810023D01*
X11220065Y7813471D01*
X11310475Y7817588D01*
X11397330Y7821512D01*
X11479788Y7825205D01*
X11557005Y7828632D01*
X11628136Y7831756D01*
X11692341Y7834542D01*
X11748776Y7836951D01*
X11796597Y7838949D01*
X11834962Y7840499D01*
X11863027Y7841565D01*
X11879950Y7842109D01*
X11884931Y7842140D01*
X11882507Y7836665D01*
X11873808Y7821174D01*
X11859293Y7796419D01*
X11839420Y7763154D01*
X11814648Y7722131D01*
X11785434Y7674102D01*
X11752236Y7619821D01*
X11715512Y7560040D01*
X11675722Y7495512D01*
X11633321Y7426989D01*
X11588771Y7355225D01*
X11581133Y7342944D01*
X11536195Y7270654D01*
X11493249Y7201458D01*
X11452762Y7136113D01*
X11415198Y7075375D01*
X11381023Y7020000D01*
X11350703Y6970744D01*
X11324701Y6928363D01*
X11303485Y6893613D01*
X11287517Y6867249D01*
X11277266Y6850029D01*
X11273194Y6842708D01*
X11273147Y6842505D01*
X11279625Y6842251D01*
X11297551Y6842568D01*
X11325689Y6843409D01*
X11362801Y6844729D01*
X11407649Y6846481D01*
X11458998Y6848618D01*
X11515610Y6851095D01*
X11576247Y6853864D01*
X11578086Y6853950D01*
X11638843Y6856708D01*
X11695627Y6859135D01*
X11747199Y6861190D01*
X11792318Y6862831D01*
X11829747Y6864015D01*
X11858244Y6864700D01*
X11876571Y6864844D01*
X11883488Y6864403D01*
X11883505Y6864382D01*
X11880548Y6858563D01*
X11871341Y6842742D01*
X11856359Y6817692D01*
X11836077Y6784187D01*
X11810967Y6743000D01*
X11781504Y6694905D01*
X11748160Y6640674D01*
X11711411Y6581082D01*
X11671729Y6516901D01*
X11629588Y6448905D01*
X11588146Y6382184D01*
X11543726Y6310729D01*
X11500999Y6241970D01*
X11460473Y6176727D01*
X11422657Y6115817D01*
X11388056Y6060059D01*
X11357179Y6010271D01*
X11330533Y5967270D01*
X11308625Y5931874D01*
X11291961Y5904903D01*
X11281050Y5887172D01*
X11276601Y5879847D01*
X11262560Y5855991D01*
X11546729Y5869171D01*
X11605468Y5871793D01*
X11660179Y5874037D01*
X11709585Y5875865D01*
X11752407Y5877239D01*
X11787368Y5878120D01*
X11813190Y5878472D01*
X11828592Y5878257D01*
X11832549Y5877677D01*
X11829688Y5871399D01*
X11820819Y5855592D01*
X11806679Y5831487D01*
X11788006Y5800314D01*
X11765536Y5763305D01*
X11740007Y5721690D01*
X11712214Y5676793D01*
X11684519Y5631993D01*
X11659302Y5590715D01*
X11637278Y5554159D01*
X11619154Y5523529D01*
X11605645Y5500028D01*
X11597461Y5484859D01*
X11595313Y5479223D01*
X11595329Y5479218D01*
X11602345Y5479286D01*
X11621050Y5479912D01*
X11650448Y5481051D01*
X11689541Y5482662D01*
X11737335Y5484700D01*
X11792831Y5487124D01*
X11855035Y5489889D01*
X11922948Y5492954D01*
X11995574Y5496274D01*
X12071917Y5499807D01*
X12074363Y5499919D01*
X12150695Y5503437D01*
X12223257Y5506707D01*
X12291065Y5509690D01*
X12353134Y5512346D01*
X12408474Y5514636D01*
X12456100Y5516519D01*
X12495026Y5517955D01*
X12524266Y5518906D01*
X12542833Y5519329D01*
X12549740Y5519186D01*
X12549760Y5519168D01*
X12546905Y5513345D01*
X12538184Y5497418D01*
X12524097Y5472265D01*
X12505148Y5438769D01*
X12481838Y5397811D01*
X12454671Y5350273D01*
X12424148Y5297033D01*
X12390773Y5238977D01*
X12355046Y5176983D01*
X12325761Y5126271D01*
X12288645Y5061884D01*
X12253610Y5000771D01*
X12221147Y4943807D01*
X12191746Y4891870D01*
X12165896Y4845835D01*
X12144087Y4806579D01*
X12126811Y4774977D01*
X12114555Y4751904D01*
X12107812Y4738237D01*
X12106706Y4734668D01*
X12117902Y4736255D01*
X12138653Y4743355D01*
X12167447Y4755245D01*
X12202776Y4771200D01*
X12243130Y4790498D01*
X12287000Y4812412D01*
X12332876Y4836220D01*
X12379250Y4861200D01*
X12424610Y4886625D01*
X12429742Y4889573D01*
X12523496Y4945615D01*
X12607884Y5000661D01*
X12685839Y5056871D01*
X12760296Y5116406D01*
X12834188Y5181425D01*
X12864502Y5209696D01*
X12982019Y5329089D01*
X13088889Y5454855D01*
X13185739Y5587850D01*
X13273200Y5728930D01*
X13342949Y5860552D01*
X13377339Y5932950D01*
X13406946Y6001065D01*
X13433089Y6068457D01*
X13457086Y6138688D01*
X13480255Y6215318D01*
X13497775Y6278731D01*
X13525831Y6391960D01*
X13547298Y6498415D01*
X13562713Y6601832D01*
X13572621Y6705944D01*
X13577562Y6814488D01*
X13577905Y6831179D01*
X13574638Y6999512D01*
X13559121Y7165650D01*
X13531702Y7329031D01*
X13492726Y7489090D01*
X13442538Y7645265D01*
X13381485Y7796994D01*
X13309912Y7943712D01*
X13228166Y8084857D01*
X13136593Y8219865D01*
X13035536Y8348174D01*
X12925344Y8469220D01*
X12806361Y8582440D01*
X12678934Y8687273D01*
X12543409Y8783153D01*
X12400131Y8869517D01*
X12291181Y8926066D01*
X12136072Y8994401D01*
X11977512Y9050730D01*
X11816165Y9095049D01*
X11652696Y9127355D01*
X11487773Y9147639D01*
X11322059Y9155901D01*
X11156222Y9152134D01*
X10990925Y9136335D01*
X10826835Y9108497D01*
X10664616Y9068617D01*
X10504937Y9016691D01*
X10348459Y8952713D01*
X10320294Y8939734D01*
X10265066Y8912223D01*
X10203572Y8878832D01*
X10088173Y9078708D01*
X10129051Y9101725D01*
X10287998Y9177179D01*
X10453066Y9241821D01*
X10507977Y9260432D01*
X10677382Y9309168D01*
X10848266Y9345572D01*
X11020021Y9369819D01*
X11192040Y9382083D01*
X11363716Y9382541D01*
X11534442Y9371365D01*
X11703613Y9348731D01*
X11870620Y9314813D01*
X12034857Y9269787D01*
X12195716Y9213826D01*
X12352592Y9147108D01*
X12504877Y9069804D01*
X12651965Y8982090D01*
X12793248Y8884141D01*
X12928120Y8776132D01*
X13055974Y8658237D01*
X13176202Y8530632D01*
X13219753Y8479643D01*
X13253434Y8438776D01*
X13282393Y8402660D01*
X13308008Y8369273D01*
X13331655Y8336597D01*
X13354709Y8302612D01*
X13378549Y8265297D01*
X13404548Y8222633D01*
X13434085Y8172600D01*
X13463556Y8121803D01*
X13496474Y8064472D01*
G36*
X19485365Y-6200974D02*
X19507810Y-6240271D01*
X19527244Y-6274592D01*
X19542935Y-6302632D01*
X19554153Y-6323086D01*
X19560163Y-6334648D01*
X19560965Y-6336775D01*
X19553595Y-6338470D01*
X19534599Y-6342011D01*
X19504888Y-6347253D01*
X19465379Y-6354044D01*
X19416985Y-6362239D01*
X19360620Y-6371687D01*
X19297201Y-6382242D01*
X19227640Y-6393754D01*
X19152851Y-6406075D01*
X19073749Y-6419057D01*
X18991250Y-6432553D01*
X18906266Y-6446413D01*
X18819713Y-6460489D01*
X18732506Y-6474633D01*
X18645557Y-6488696D01*
X18559782Y-6502531D01*
X18476096Y-6515990D01*
X18395411Y-6528922D01*
X18318645Y-6541182D01*
X18246709Y-6552620D01*
X18180519Y-6563088D01*
X18120989Y-6572437D01*
X18069034Y-6580520D01*
X18025567Y-6587189D01*
X17991504Y-6592293D01*
X17967758Y-6595688D01*
X17955245Y-6597222D01*
X17954493Y-6597277D01*
X17873683Y-6597794D01*
X17801460Y-6589263D01*
X17737352Y-6571527D01*
X17680879Y-6544434D01*
X17631567Y-6507827D01*
X17608672Y-6485063D01*
X17579220Y-6449149D01*
X17548977Y-6405872D01*
X17520987Y-6359979D01*
X17498296Y-6316211D01*
X17493719Y-6305950D01*
X17470702Y-6242746D01*
X17454659Y-6175517D01*
X17451075Y-6154442D01*
X17447181Y-6125745D01*
X17444257Y-6096727D01*
X17442466Y-6070239D01*
X17441973Y-6049131D01*
X17442943Y-6036251D01*
X17444099Y-6033742D01*
X17452232Y-6032020D01*
X17470624Y-6029709D01*
X17497164Y-6026972D01*
X17529742Y-6023969D01*
X17566250Y-6020865D01*
X17604578Y-6017823D01*
X17642614Y-6015004D01*
X17678250Y-6012572D01*
X17709375Y-6010690D01*
X17733879Y-6009520D01*
X17749651Y-6009224D01*
X17754622Y-6009790D01*
X17756514Y-6018426D01*
X17758377Y-6035442D01*
X17759380Y-6049885D01*
X17766839Y-6105122D01*
X17782439Y-6154111D01*
X17805476Y-6195016D01*
X17822578Y-6214917D01*
X17841299Y-6227994D01*
X17866229Y-6238664D01*
X17892506Y-6245430D01*
X17915267Y-6246798D01*
X17922121Y-6245551D01*
X17928657Y-6239778D01*
X17943010Y-6223997D01*
X17965181Y-6198209D01*
X17995168Y-6162419D01*
X18032971Y-6116624D01*
X18078588Y-6060827D01*
X18132019Y-5995029D01*
X18193264Y-5919230D01*
X18262319Y-5833431D01*
X18339186Y-5737636D01*
X18388957Y-5675482D01*
X18448283Y-5601374D01*
X18505429Y-5530048D01*
X18559890Y-5462129D01*
X18611162Y-5398244D01*
X18658742Y-5339019D01*
X18702125Y-5285079D01*
X18740807Y-5237053D01*
X18774283Y-5195563D01*
X18802052Y-5161238D01*
X18823607Y-5134704D01*
X18838445Y-5116585D01*
X18846062Y-5107509D01*
X18846977Y-5106550D01*
X18851412Y-5111125D01*
X18861428Y-5125979D01*
X18876506Y-5150248D01*
X18896121Y-5183072D01*
X18919757Y-5223589D01*
X18946891Y-5270940D01*
X18954351Y-5284083D01*
X19056618Y-5464564D01*
X18418088Y-6184637D01*
X18749854Y-6112953D01*
X18818527Y-6098104D01*
X18887999Y-6083064D01*
X18956406Y-6068237D01*
X19021884Y-6054027D01*
X19082572Y-6040839D01*
X19136604Y-6029078D01*
X19182121Y-6019149D01*
X19217255Y-6011455D01*
X19219887Y-6010878D01*
X19358152Y-5980486D01*
X19460642Y-6158004D01*
X19485365Y-6200974D01*
X19485365Y-6200974D01*
G37*
X19485365Y-6200974D02*
X19507810Y-6240271D01*
X19527244Y-6274592D01*
X19542935Y-6302632D01*
X19554153Y-6323086D01*
X19560163Y-6334648D01*
X19560965Y-6336775D01*
X19553595Y-6338470D01*
X19534599Y-6342011D01*
X19504888Y-6347253D01*
X19465379Y-6354044D01*
X19416985Y-6362239D01*
X19360620Y-6371687D01*
X19297201Y-6382242D01*
X19227640Y-6393754D01*
X19152851Y-6406075D01*
X19073749Y-6419057D01*
X18991250Y-6432553D01*
X18906266Y-6446413D01*
X18819713Y-6460489D01*
X18732506Y-6474633D01*
X18645557Y-6488696D01*
X18559782Y-6502531D01*
X18476096Y-6515990D01*
X18395411Y-6528922D01*
X18318645Y-6541182D01*
X18246709Y-6552620D01*
X18180519Y-6563088D01*
X18120989Y-6572437D01*
X18069034Y-6580520D01*
X18025567Y-6587189D01*
X17991504Y-6592293D01*
X17967758Y-6595688D01*
X17955245Y-6597222D01*
X17954493Y-6597277D01*
X17873683Y-6597794D01*
X17801460Y-6589263D01*
X17737352Y-6571527D01*
X17680879Y-6544434D01*
X17631567Y-6507827D01*
X17608672Y-6485063D01*
X17579220Y-6449149D01*
X17548977Y-6405872D01*
X17520987Y-6359979D01*
X17498296Y-6316211D01*
X17493719Y-6305950D01*
X17470702Y-6242746D01*
X17454659Y-6175517D01*
X17451075Y-6154442D01*
X17447181Y-6125745D01*
X17444257Y-6096727D01*
X17442466Y-6070239D01*
X17441973Y-6049131D01*
X17442943Y-6036251D01*
X17444099Y-6033742D01*
X17452232Y-6032020D01*
X17470624Y-6029709D01*
X17497164Y-6026972D01*
X17529742Y-6023969D01*
X17566250Y-6020865D01*
X17604578Y-6017823D01*
X17642614Y-6015004D01*
X17678250Y-6012572D01*
X17709375Y-6010690D01*
X17733879Y-6009520D01*
X17749651Y-6009224D01*
X17754622Y-6009790D01*
X17756514Y-6018426D01*
X17758377Y-6035442D01*
X17759380Y-6049885D01*
X17766839Y-6105122D01*
X17782439Y-6154111D01*
X17805476Y-6195016D01*
X17822578Y-6214917D01*
X17841299Y-6227994D01*
X17866229Y-6238664D01*
X17892506Y-6245430D01*
X17915267Y-6246798D01*
X17922121Y-6245551D01*
X17928657Y-6239778D01*
X17943010Y-6223997D01*
X17965181Y-6198209D01*
X17995168Y-6162419D01*
X18032971Y-6116624D01*
X18078588Y-6060827D01*
X18132019Y-5995029D01*
X18193264Y-5919230D01*
X18262319Y-5833431D01*
X18339186Y-5737636D01*
X18388957Y-5675482D01*
X18448283Y-5601374D01*
X18505429Y-5530048D01*
X18559890Y-5462129D01*
X18611162Y-5398244D01*
X18658742Y-5339019D01*
X18702125Y-5285079D01*
X18740807Y-5237053D01*
X18774283Y-5195563D01*
X18802052Y-5161238D01*
X18823607Y-5134704D01*
X18838445Y-5116585D01*
X18846062Y-5107509D01*
X18846977Y-5106550D01*
X18851412Y-5111125D01*
X18861428Y-5125979D01*
X18876506Y-5150248D01*
X18896121Y-5183072D01*
X18919757Y-5223589D01*
X18946891Y-5270940D01*
X18954351Y-5284083D01*
X19056618Y-5464564D01*
X18418088Y-6184637D01*
X18749854Y-6112953D01*
X18818527Y-6098104D01*
X18887999Y-6083064D01*
X18956406Y-6068237D01*
X19021884Y-6054027D01*
X19082572Y-6040839D01*
X19136604Y-6029078D01*
X19182121Y-6019149D01*
X19217255Y-6011455D01*
X19219887Y-6010878D01*
X19358152Y-5980486D01*
X19460642Y-6158004D01*
X19485365Y-6200974D01*
G36*
X13652867Y3944726D02*
X13685439Y3862955D01*
X13706688Y3783144D01*
X13716838Y3703895D01*
X13716116Y3623811D01*
X13704749Y3541496D01*
X13694813Y3497766D01*
X13680878Y3443200D01*
X13628470Y3456218D01*
X13605054Y3461926D01*
X13572401Y3469734D01*
X13533650Y3478902D01*
X13491938Y3488684D01*
X13455620Y3497131D01*
X13335177Y3525025D01*
X13347575Y3582424D01*
X13358263Y3645042D01*
X13361122Y3700383D01*
X13355907Y3751353D01*
X13342376Y3800860D01*
X13325977Y3840151D01*
X13293355Y3895568D01*
X13252607Y3941230D01*
X13203830Y3977055D01*
X13147122Y4002966D01*
X13112401Y4013007D01*
X13046743Y4022803D01*
X12982200Y4020570D01*
X12917878Y4006156D01*
X12852883Y3979409D01*
X12824698Y3964189D01*
X12765264Y3923484D01*
X12715632Y3875906D01*
X12676437Y3822245D01*
X12648312Y3763289D01*
X12638863Y3733086D01*
X12628397Y3674263D01*
X12629004Y3617844D01*
X12640974Y3561991D01*
X12664598Y3504868D01*
X12679121Y3478235D01*
X12714009Y3428145D01*
X12756370Y3385599D01*
X12807582Y3349503D01*
X12869029Y3318764D01*
X12892656Y3309279D01*
X12915888Y3300320D01*
X12935328Y3292596D01*
X12947153Y3287629D01*
X12947873Y3287294D01*
X12950386Y3283254D01*
X12950552Y3273787D01*
X12948119Y3257699D01*
X12942834Y3233799D01*
X12934445Y3200895D01*
X12922700Y3157796D01*
X12913576Y3125269D01*
X12869151Y2968086D01*
X12818467Y2981243D01*
X12750498Y3002565D01*
X12683053Y3030576D01*
X12619363Y3063643D01*
X12562657Y3100128D01*
X12525968Y3129359D01*
X12486854Y3168569D01*
X12446605Y3216834D01*
X12407377Y3270947D01*
X12371326Y3327698D01*
X12340610Y3383876D01*
X12317384Y3436274D01*
X12314552Y3443965D01*
X12288621Y3534121D01*
X12274221Y3625719D01*
X12271329Y3717287D01*
X12279922Y3807357D01*
X12299973Y3894457D01*
X12323028Y3958157D01*
X12364689Y4040809D01*
X12415819Y4116130D01*
X12475369Y4183656D01*
X12542292Y4242925D01*
X12615537Y4293474D01*
X12694055Y4334841D01*
X12776799Y4366562D01*
X12862718Y4388175D01*
X12950766Y4399217D01*
X13039892Y4399226D01*
X13129047Y4387739D01*
X13217182Y4364293D01*
X13231908Y4359113D01*
X13315840Y4322364D01*
X13392361Y4275868D01*
X13461912Y4219239D01*
X13524936Y4152094D01*
X13581873Y4074046D01*
X13608745Y4029855D01*
X13652867Y3944726D01*
X13652867Y3944726D01*
G37*
X13652867Y3944726D02*
X13685439Y3862955D01*
X13706688Y3783144D01*
X13716838Y3703895D01*
X13716116Y3623811D01*
X13704749Y3541496D01*
X13694813Y3497766D01*
X13680878Y3443200D01*
X13628470Y3456218D01*
X13605054Y3461926D01*
X13572401Y3469734D01*
X13533650Y3478902D01*
X13491938Y3488684D01*
X13455620Y3497131D01*
X13335177Y3525025D01*
X13347575Y3582424D01*
X13358263Y3645042D01*
X13361122Y3700383D01*
X13355907Y3751353D01*
X13342376Y3800860D01*
X13325977Y3840151D01*
X13293355Y3895568D01*
X13252607Y3941230D01*
X13203830Y3977055D01*
X13147122Y4002966D01*
X13112401Y4013007D01*
X13046743Y4022803D01*
X12982200Y4020570D01*
X12917878Y4006156D01*
X12852883Y3979409D01*
X12824698Y3964189D01*
X12765264Y3923484D01*
X12715632Y3875906D01*
X12676437Y3822245D01*
X12648312Y3763289D01*
X12638863Y3733086D01*
X12628397Y3674263D01*
X12629004Y3617844D01*
X12640974Y3561991D01*
X12664598Y3504868D01*
X12679121Y3478235D01*
X12714009Y3428145D01*
X12756370Y3385599D01*
X12807582Y3349503D01*
X12869029Y3318764D01*
X12892656Y3309279D01*
X12915888Y3300320D01*
X12935328Y3292596D01*
X12947153Y3287629D01*
X12947873Y3287294D01*
X12950386Y3283254D01*
X12950552Y3273787D01*
X12948119Y3257699D01*
X12942834Y3233799D01*
X12934445Y3200895D01*
X12922700Y3157796D01*
X12913576Y3125269D01*
X12869151Y2968086D01*
X12818467Y2981243D01*
X12750498Y3002565D01*
X12683053Y3030576D01*
X12619363Y3063643D01*
X12562657Y3100128D01*
X12525968Y3129359D01*
X12486854Y3168569D01*
X12446605Y3216834D01*
X12407377Y3270947D01*
X12371326Y3327698D01*
X12340610Y3383876D01*
X12317384Y3436274D01*
X12314552Y3443965D01*
X12288621Y3534121D01*
X12274221Y3625719D01*
X12271329Y3717287D01*
X12279922Y3807357D01*
X12299973Y3894457D01*
X12323028Y3958157D01*
X12364689Y4040809D01*
X12415819Y4116130D01*
X12475369Y4183656D01*
X12542292Y4242925D01*
X12615537Y4293474D01*
X12694055Y4334841D01*
X12776799Y4366562D01*
X12862718Y4388175D01*
X12950766Y4399217D01*
X13039892Y4399226D01*
X13129047Y4387739D01*
X13217182Y4364293D01*
X13231908Y4359113D01*
X13315840Y4322364D01*
X13392361Y4275868D01*
X13461912Y4219239D01*
X13524936Y4152094D01*
X13581873Y4074046D01*
X13608745Y4029855D01*
X13652867Y3944726D01*
G36*
X14309149Y2814244D02*
X14330563Y2769204D01*
X14343460Y2736869D01*
X14370641Y2642242D01*
X14385786Y2547900D01*
X14389044Y2454688D01*
X14380563Y2363453D01*
X14360493Y2275042D01*
X14328982Y2190299D01*
X14286181Y2110073D01*
X14232238Y2035209D01*
X14216582Y2016925D01*
X14153520Y1954666D01*
X14082314Y1900222D01*
X14004798Y1854489D01*
X13922810Y1818367D01*
X13838185Y1792752D01*
X13752757Y1778545D01*
X13725277Y1776540D01*
X13628629Y1777874D01*
X13535152Y1791442D01*
X13445240Y1817087D01*
X13359288Y1854649D01*
X13277693Y1903971D01*
X13200853Y1964893D01*
X13161772Y2002255D01*
X13141504Y2023579D01*
X13124081Y2043862D01*
X13107432Y2065908D01*
X13089487Y2092518D01*
X13068173Y2126495D01*
X13059834Y2140153D01*
X13030437Y2190140D01*
X13008168Y2231798D01*
X12992204Y2266703D01*
X12987431Y2279045D01*
X12959457Y2372987D01*
X12943641Y2466772D01*
X12939733Y2559537D01*
X12947478Y2650419D01*
X12966620Y2738556D01*
X12996910Y2823082D01*
X13038092Y2903137D01*
X13089912Y2977857D01*
X13152119Y3046379D01*
X13224457Y3107840D01*
X13232523Y3113771D01*
X13288737Y3149021D01*
X13483179Y2812238D01*
X13429668Y2773390D01*
X13383592Y2727210D01*
X13346409Y2674792D01*
X13319584Y2617231D01*
X13315565Y2605118D01*
X13302370Y2553399D01*
X13296942Y2506159D01*
X13298790Y2458231D01*
X13300368Y2445264D01*
X13311573Y2398603D01*
X13331722Y2349530D01*
X13358686Y2301841D01*
X13390327Y2259330D01*
X13423043Y2226984D01*
X13477790Y2189789D01*
X13535933Y2164454D01*
X13596651Y2151256D01*
X13653491Y2150026D01*
X13705484Y2156149D01*
X13751688Y2167695D01*
X13797093Y2186217D01*
X13835663Y2206796D01*
X13895619Y2247299D01*
X13944278Y2293237D01*
X13982049Y2345120D01*
X14009340Y2403456D01*
X14019269Y2435523D01*
X14030423Y2501622D01*
X14029322Y2566480D01*
X14016415Y2628988D01*
X13992146Y2688037D01*
X13956960Y2742519D01*
X13911305Y2791324D01*
X13860616Y2830141D01*
X13831620Y2844745D01*
X13794267Y2857431D01*
X13752872Y2867194D01*
X13711745Y2873023D01*
X13675200Y2873913D01*
X13673720Y2873819D01*
X13606666Y2863548D01*
X13542665Y2842655D01*
X13483179Y2812238D01*
X13288737Y3149021D01*
X13309186Y3161844D01*
X13391985Y3199878D01*
X13478996Y3227317D01*
X13568291Y3243607D01*
X13657947Y3248195D01*
X13693940Y3246596D01*
X13737598Y3241183D01*
X13787856Y3231396D01*
X13839893Y3218422D01*
X13888887Y3203442D01*
X13924865Y3189880D01*
X13992938Y3155669D01*
X14061066Y3111497D01*
X14126115Y3059697D01*
X14184953Y3002601D01*
X14202194Y2983320D01*
X14227960Y2949983D01*
X14255764Y2908268D01*
X14283521Y2861810D01*
X14309149Y2814244D01*
X14309149Y2814244D01*
G37*
X14309149Y2814244D02*
X14330563Y2769204D01*
X14343460Y2736869D01*
X14370641Y2642242D01*
X14385786Y2547900D01*
X14389044Y2454688D01*
X14380563Y2363453D01*
X14360493Y2275042D01*
X14328982Y2190299D01*
X14286181Y2110073D01*
X14232238Y2035209D01*
X14216582Y2016925D01*
X14153520Y1954666D01*
X14082314Y1900222D01*
X14004798Y1854489D01*
X13922810Y1818367D01*
X13838185Y1792752D01*
X13752757Y1778545D01*
X13725277Y1776540D01*
X13628629Y1777874D01*
X13535152Y1791442D01*
X13445240Y1817087D01*
X13359288Y1854649D01*
X13277693Y1903971D01*
X13200853Y1964893D01*
X13161772Y2002255D01*
X13141504Y2023579D01*
X13124081Y2043862D01*
X13107432Y2065908D01*
X13089487Y2092518D01*
X13068173Y2126495D01*
X13059834Y2140153D01*
X13030437Y2190140D01*
X13008168Y2231798D01*
X12992204Y2266703D01*
X12987431Y2279045D01*
X12959457Y2372987D01*
X12943641Y2466772D01*
X12939733Y2559537D01*
X12947478Y2650419D01*
X12966620Y2738556D01*
X12996910Y2823082D01*
X13038092Y2903137D01*
X13089912Y2977857D01*
X13152119Y3046379D01*
X13224457Y3107840D01*
X13232523Y3113771D01*
X13288737Y3149021D01*
X13483179Y2812238D01*
X13429668Y2773390D01*
X13383592Y2727210D01*
X13346409Y2674792D01*
X13319584Y2617231D01*
X13315565Y2605118D01*
X13302370Y2553399D01*
X13296942Y2506159D01*
X13298790Y2458231D01*
X13300368Y2445264D01*
X13311573Y2398603D01*
X13331722Y2349530D01*
X13358686Y2301841D01*
X13390327Y2259330D01*
X13423043Y2226984D01*
X13477790Y2189789D01*
X13535933Y2164454D01*
X13596651Y2151256D01*
X13653491Y2150026D01*
X13705484Y2156149D01*
X13751688Y2167695D01*
X13797093Y2186217D01*
X13835663Y2206796D01*
X13895619Y2247299D01*
X13944278Y2293237D01*
X13982049Y2345120D01*
X14009340Y2403456D01*
X14019269Y2435523D01*
X14030423Y2501622D01*
X14029322Y2566480D01*
X14016415Y2628988D01*
X13992146Y2688037D01*
X13956960Y2742519D01*
X13911305Y2791324D01*
X13860616Y2830141D01*
X13831620Y2844745D01*
X13794267Y2857431D01*
X13752872Y2867194D01*
X13711745Y2873023D01*
X13675200Y2873913D01*
X13673720Y2873819D01*
X13606666Y2863548D01*
X13542665Y2842655D01*
X13483179Y2812238D01*
X13288737Y3149021D01*
X13309186Y3161844D01*
X13391985Y3199878D01*
X13478996Y3227317D01*
X13568291Y3243607D01*
X13657947Y3248195D01*
X13693940Y3246596D01*
X13737598Y3241183D01*
X13787856Y3231396D01*
X13839893Y3218422D01*
X13888887Y3203442D01*
X13924865Y3189880D01*
X13992938Y3155669D01*
X14061066Y3111497D01*
X14126115Y3059697D01*
X14184953Y3002601D01*
X14202194Y2983320D01*
X14227960Y2949983D01*
X14255764Y2908268D01*
X14283521Y2861810D01*
X14309149Y2814244D01*
G36*
X16430247Y-862409D02*
X16452716Y-908782D01*
X16470607Y-951243D01*
X16481514Y-983987D01*
X16498581Y-1070315D01*
X16503127Y-1155987D01*
X16495326Y-1240482D01*
X16475358Y-1323284D01*
X16443399Y-1403870D01*
X16399626Y-1481721D01*
X16344217Y-1556320D01*
X16277348Y-1627145D01*
X16255394Y-1647299D01*
X16236322Y-1662893D01*
X16210612Y-1681985D01*
X16180301Y-1703261D01*
X16147426Y-1725404D01*
X16114025Y-1747099D01*
X16082133Y-1767030D01*
X16053789Y-1783883D01*
X16031028Y-1796340D01*
X16015889Y-1803088D01*
X16013043Y-1803817D01*
X16010565Y-1803498D01*
X16007333Y-1801344D01*
X16002909Y-1796630D01*
X15996851Y-1788633D01*
X15988720Y-1776628D01*
X15978076Y-1759892D01*
X15964479Y-1737700D01*
X15947490Y-1709327D01*
X15926669Y-1674050D01*
X15901576Y-1631143D01*
X15871772Y-1579883D01*
X15836815Y-1519545D01*
X15796268Y-1449406D01*
X15765701Y-1396478D01*
X15727583Y-1330496D01*
X15691336Y-1267834D01*
X15657453Y-1209342D01*
X15626434Y-1155873D01*
X15598772Y-1108277D01*
X15574963Y-1067407D01*
X15555502Y-1034115D01*
X15540886Y-1009254D01*
X15531610Y-993672D01*
X15528169Y-988224D01*
X15528163Y-988224D01*
X15518429Y-997144D01*
X15504094Y-1013413D01*
X15487695Y-1033878D01*
X15471772Y-1055383D01*
X15459896Y-1073093D01*
X15433634Y-1126659D01*
X15419500Y-1183155D01*
X15417450Y-1241903D01*
X15427432Y-1302225D01*
X15449402Y-1363446D01*
X15483311Y-1424886D01*
X15484792Y-1427153D01*
X15527613Y-1482468D01*
X15578104Y-1529205D01*
X15637448Y-1568276D01*
X15706830Y-1600597D01*
X15712685Y-1602854D01*
X15755834Y-1619275D01*
X15726999Y-1763712D01*
X15718568Y-1804927D01*
X15710620Y-1841887D01*
X15703573Y-1872797D01*
X15697846Y-1895860D01*
X15693856Y-1909281D01*
X15692510Y-1911934D01*
X15683595Y-1912122D01*
X15665256Y-1908671D01*
X15639989Y-1902332D01*
X15610285Y-1893856D01*
X15578641Y-1883995D01*
X15547550Y-1873499D01*
X15519505Y-1863120D01*
X15497000Y-1853608D01*
X15493795Y-1852078D01*
X15417594Y-1807865D01*
X15346451Y-1752417D01*
X15281313Y-1686516D01*
X15255424Y-1655209D01*
X15233591Y-1624599D01*
X15209224Y-1585961D01*
X15184442Y-1543083D01*
X15161369Y-1499753D01*
X15142127Y-1459760D01*
X15131106Y-1433228D01*
X15103147Y-1341926D01*
X15087782Y-1251360D01*
X15084973Y-1160951D01*
X15094684Y-1070118D01*
X15104679Y-1022483D01*
X15132572Y-934557D01*
X15171821Y-852224D01*
X15222241Y-775780D01*
X15283646Y-705517D01*
X15333196Y-660058D01*
X15363669Y-637009D01*
X15402439Y-611450D01*
X15446072Y-585321D01*
X15491137Y-560566D01*
X15534203Y-539124D01*
X15552199Y-531382D01*
X15741393Y-859076D01*
X15883971Y-1106028D01*
X15917841Y-1164643D01*
X15945971Y-1213162D01*
X15968942Y-1252503D01*
X15987331Y-1283585D01*
X16001720Y-1307328D01*
X16012687Y-1324652D01*
X16020811Y-1336474D01*
X16026674Y-1343715D01*
X16030855Y-1347294D01*
X16033931Y-1348131D01*
X16036135Y-1347358D01*
X16050912Y-1335906D01*
X16070047Y-1317274D01*
X16090554Y-1294642D01*
X16109441Y-1271188D01*
X16115224Y-1263220D01*
X16145451Y-1211235D01*
X16163201Y-1158949D01*
X16168686Y-1105460D01*
X16163255Y-1055283D01*
X16157846Y-1032708D01*
X16150521Y-1012458D01*
X16139496Y-990515D01*
X16122985Y-962864D01*
X16120348Y-958648D01*
X16103177Y-932092D01*
X16089352Y-913390D01*
X16075972Y-899334D01*
X16060142Y-886721D01*
X16047392Y-877928D01*
X15998401Y-852662D01*
X15943100Y-837741D01*
X15882680Y-833261D01*
X15818329Y-839316D01*
X15755356Y-854684D01*
X15741393Y-859076D01*
X15552199Y-531382D01*
X15571835Y-522937D01*
X15582453Y-519087D01*
X15676137Y-493243D01*
X15769063Y-479427D01*
X15860420Y-477441D01*
X15949401Y-487087D01*
X16035194Y-508170D01*
X16116991Y-540491D01*
X16193984Y-583853D01*
X16265364Y-638058D01*
X16328800Y-701181D01*
X16352475Y-731513D01*
X16378415Y-770606D01*
X16404910Y-815294D01*
X16430247Y-862409D01*
X16430247Y-862409D01*
G37*
X16430247Y-862409D02*
X16452716Y-908782D01*
X16470607Y-951243D01*
X16481514Y-983987D01*
X16498581Y-1070315D01*
X16503127Y-1155987D01*
X16495326Y-1240482D01*
X16475358Y-1323284D01*
X16443399Y-1403870D01*
X16399626Y-1481721D01*
X16344217Y-1556320D01*
X16277348Y-1627145D01*
X16255394Y-1647299D01*
X16236322Y-1662893D01*
X16210612Y-1681985D01*
X16180301Y-1703261D01*
X16147426Y-1725404D01*
X16114025Y-1747099D01*
X16082133Y-1767030D01*
X16053789Y-1783883D01*
X16031028Y-1796340D01*
X16015889Y-1803088D01*
X16013043Y-1803817D01*
X16010565Y-1803498D01*
X16007333Y-1801344D01*
X16002909Y-1796630D01*
X15996851Y-1788633D01*
X15988720Y-1776628D01*
X15978076Y-1759892D01*
X15964479Y-1737700D01*
X15947490Y-1709327D01*
X15926669Y-1674050D01*
X15901576Y-1631143D01*
X15871772Y-1579883D01*
X15836815Y-1519545D01*
X15796268Y-1449406D01*
X15765701Y-1396478D01*
X15727583Y-1330496D01*
X15691336Y-1267834D01*
X15657453Y-1209342D01*
X15626434Y-1155873D01*
X15598772Y-1108277D01*
X15574963Y-1067407D01*
X15555502Y-1034115D01*
X15540886Y-1009254D01*
X15531610Y-993672D01*
X15528169Y-988224D01*
X15528163Y-988224D01*
X15518429Y-997144D01*
X15504094Y-1013413D01*
X15487695Y-1033878D01*
X15471772Y-1055383D01*
X15459896Y-1073093D01*
X15433634Y-1126659D01*
X15419500Y-1183155D01*
X15417450Y-1241903D01*
X15427432Y-1302225D01*
X15449402Y-1363446D01*
X15483311Y-1424886D01*
X15484792Y-1427153D01*
X15527613Y-1482468D01*
X15578104Y-1529205D01*
X15637448Y-1568276D01*
X15706830Y-1600597D01*
X15712685Y-1602854D01*
X15755834Y-1619275D01*
X15726999Y-1763712D01*
X15718568Y-1804927D01*
X15710620Y-1841887D01*
X15703573Y-1872797D01*
X15697846Y-1895860D01*
X15693856Y-1909281D01*
X15692510Y-1911934D01*
X15683595Y-1912122D01*
X15665256Y-1908671D01*
X15639989Y-1902332D01*
X15610285Y-1893856D01*
X15578641Y-1883995D01*
X15547550Y-1873499D01*
X15519505Y-1863120D01*
X15497000Y-1853608D01*
X15493795Y-1852078D01*
X15417594Y-1807865D01*
X15346451Y-1752417D01*
X15281313Y-1686516D01*
X15255424Y-1655209D01*
X15233591Y-1624599D01*
X15209224Y-1585961D01*
X15184442Y-1543083D01*
X15161369Y-1499753D01*
X15142127Y-1459760D01*
X15131106Y-1433228D01*
X15103147Y-1341926D01*
X15087782Y-1251360D01*
X15084973Y-1160951D01*
X15094684Y-1070118D01*
X15104679Y-1022483D01*
X15132572Y-934557D01*
X15171821Y-852224D01*
X15222241Y-775780D01*
X15283646Y-705517D01*
X15333196Y-660058D01*
X15363669Y-637009D01*
X15402439Y-611450D01*
X15446072Y-585321D01*
X15491137Y-560566D01*
X15534203Y-539124D01*
X15552199Y-531382D01*
X15741393Y-859076D01*
X15883971Y-1106028D01*
X15917841Y-1164643D01*
X15945971Y-1213162D01*
X15968942Y-1252503D01*
X15987331Y-1283585D01*
X16001720Y-1307328D01*
X16012687Y-1324652D01*
X16020811Y-1336474D01*
X16026674Y-1343715D01*
X16030855Y-1347294D01*
X16033931Y-1348131D01*
X16036135Y-1347358D01*
X16050912Y-1335906D01*
X16070047Y-1317274D01*
X16090554Y-1294642D01*
X16109441Y-1271188D01*
X16115224Y-1263220D01*
X16145451Y-1211235D01*
X16163201Y-1158949D01*
X16168686Y-1105460D01*
X16163255Y-1055283D01*
X16157846Y-1032708D01*
X16150521Y-1012458D01*
X16139496Y-990515D01*
X16122985Y-962864D01*
X16120348Y-958648D01*
X16103177Y-932092D01*
X16089352Y-913390D01*
X16075972Y-899334D01*
X16060142Y-886721D01*
X16047392Y-877928D01*
X15998401Y-852662D01*
X15943100Y-837741D01*
X15882680Y-833261D01*
X15818329Y-839316D01*
X15755356Y-854684D01*
X15741393Y-859076D01*
X15552199Y-531382D01*
X15571835Y-522937D01*
X15582453Y-519087D01*
X15676137Y-493243D01*
X15769063Y-479427D01*
X15860420Y-477441D01*
X15949401Y-487087D01*
X16035194Y-508170D01*
X16116991Y-540491D01*
X16193984Y-583853D01*
X16265364Y-638058D01*
X16328800Y-701181D01*
X16352475Y-731513D01*
X16378415Y-770606D01*
X16404910Y-815294D01*
X16430247Y-862409D01*
G36*
X15754836Y303756D02*
X15790483Y222792D01*
X15819251Y134495D01*
X15840589Y39447D01*
X15841226Y35822D01*
X15845330Y7332D01*
X15848773Y-25894D01*
X15851438Y-61181D01*
X15853203Y-95854D01*
X15853949Y-127242D01*
X15853556Y-152670D01*
X15851906Y-169464D01*
X15850600Y-173736D01*
X15843505Y-177181D01*
X15825808Y-180077D01*
X15797000Y-182466D01*
X15756574Y-184388D01*
X15704020Y-185884D01*
X15697328Y-186027D01*
X15655201Y-186881D01*
X15617433Y-187602D01*
X15585831Y-188159D01*
X15562212Y-188521D01*
X15548385Y-188658D01*
X15545538Y-188619D01*
X15543915Y-182468D01*
X15541657Y-165835D01*
X15539007Y-140908D01*
X15536208Y-109875D01*
X15534742Y-91613D01*
X15531284Y-52769D01*
X15526994Y-13606D01*
X15522357Y21891D01*
X15517861Y49739D01*
X15516765Y55285D01*
X15501839Y112409D01*
X15482804Y162539D01*
X15460388Y204878D01*
X15435318Y238631D01*
X15408326Y263001D01*
X15380139Y277194D01*
X15351487Y280412D01*
X15323098Y271860D01*
X15319981Y270143D01*
X15299752Y254235D01*
X15288026Y233427D01*
X15282846Y207585D01*
X15282058Y170616D01*
X15285677Y122342D01*
X15293717Y62579D01*
X15306195Y-8849D01*
X15310074Y-28871D01*
X15324700Y-108946D01*
X15334851Y-178562D01*
X15340642Y-239095D01*
X15342192Y-291926D01*
X15339618Y-338434D01*
X15337663Y-354177D01*
X15323862Y-418513D01*
X15301708Y-474348D01*
X15270253Y-523059D01*
X15228545Y-566020D01*
X15175637Y-604613D01*
X15157466Y-615527D01*
X15088204Y-649196D01*
X15019432Y-670234D01*
X14951447Y-678704D01*
X14884550Y-674676D01*
X14819041Y-658214D01*
X14755218Y-629384D01*
X14693381Y-588254D01*
X14633830Y-534889D01*
X14594075Y-490785D01*
X14576138Y-467067D01*
X14554664Y-435395D01*
X14531668Y-399086D01*
X14509163Y-361461D01*
X14489167Y-325840D01*
X14473692Y-295541D01*
X14468444Y-283818D01*
X14442311Y-211894D01*
X14420472Y-133423D01*
X14404247Y-53867D01*
X14395117Y19261D01*
X14393715Y46811D01*
X14393235Y79427D01*
X14393576Y114400D01*
X14394639Y149018D01*
X14396327Y180569D01*
X14398539Y206342D01*
X14401176Y223625D01*
X14402778Y228540D01*
X14409575Y229686D01*
X14426902Y230141D01*
X14452609Y229989D01*
X14484549Y229319D01*
X14520571Y228216D01*
X14558531Y226768D01*
X14596278Y225060D01*
X14631665Y223181D01*
X14662545Y221216D01*
X14686770Y219251D01*
X14702191Y217374D01*
X14706382Y216294D01*
X14708155Y209247D01*
X14709172Y192137D01*
X14709355Y167585D01*
X14708696Y140139D01*
X14709465Y53992D01*
X14717937Y-29879D01*
X14733686Y-107271D01*
X14733733Y-107445D01*
X14741970Y-135030D01*
X14752157Y-161262D01*
X14765956Y-189881D01*
X14785031Y-224627D01*
X14788642Y-230933D01*
X14806238Y-261098D01*
X14819498Y-282361D01*
X14830153Y-296980D01*
X14839933Y-307210D01*
X14850567Y-315310D01*
X14856010Y-318809D01*
X14888577Y-332705D01*
X14921054Y-334261D01*
X14952238Y-323424D01*
X14952914Y-323038D01*
X14970947Y-308709D01*
X14983164Y-289088D01*
X14989697Y-262948D01*
X14990678Y-229064D01*
X14986241Y-186212D01*
X14976517Y-133164D01*
X14974478Y-123641D01*
X14960907Y-61145D01*
X14949811Y-9620D01*
X14940911Y32362D01*
X14933929Y66226D01*
X14928585Y93397D01*
X14924602Y115306D01*
X14921700Y133377D01*
X14919601Y149037D01*
X14918027Y163715D01*
X14917710Y167102D01*
X14915871Y245862D01*
X14925315Y318809D01*
X14935708Y357668D01*
X14956919Y410583D01*
X14984754Y456098D01*
X15020848Y496125D01*
X15066837Y532575D01*
X15106583Y557441D01*
X15162365Y586101D01*
X15214348Y605181D01*
X15265687Y615734D01*
X15288200Y617901D01*
X15359026Y616481D01*
X15427384Y603086D01*
X15492723Y578297D01*
X15554492Y542695D01*
X15612139Y496860D01*
X15665113Y441372D01*
X15712863Y376810D01*
X15754836Y303756D01*
X15754836Y303756D01*
G37*
X15754836Y303756D02*
X15790483Y222792D01*
X15819251Y134495D01*
X15840589Y39447D01*
X15841226Y35822D01*
X15845330Y7332D01*
X15848773Y-25894D01*
X15851438Y-61181D01*
X15853203Y-95854D01*
X15853949Y-127242D01*
X15853556Y-152670D01*
X15851906Y-169464D01*
X15850600Y-173736D01*
X15843505Y-177181D01*
X15825808Y-180077D01*
X15797000Y-182466D01*
X15756574Y-184388D01*
X15704020Y-185884D01*
X15697328Y-186027D01*
X15655201Y-186881D01*
X15617433Y-187602D01*
X15585831Y-188159D01*
X15562212Y-188521D01*
X15548385Y-188658D01*
X15545538Y-188619D01*
X15543915Y-182468D01*
X15541657Y-165835D01*
X15539007Y-140908D01*
X15536208Y-109875D01*
X15534742Y-91613D01*
X15531284Y-52769D01*
X15526994Y-13606D01*
X15522357Y21891D01*
X15517861Y49739D01*
X15516765Y55285D01*
X15501839Y112409D01*
X15482804Y162539D01*
X15460388Y204878D01*
X15435318Y238631D01*
X15408326Y263001D01*
X15380139Y277194D01*
X15351487Y280412D01*
X15323098Y271860D01*
X15319981Y270143D01*
X15299752Y254235D01*
X15288026Y233427D01*
X15282846Y207585D01*
X15282058Y170616D01*
X15285677Y122342D01*
X15293717Y62579D01*
X15306195Y-8849D01*
X15310074Y-28871D01*
X15324700Y-108946D01*
X15334851Y-178562D01*
X15340642Y-239095D01*
X15342192Y-291926D01*
X15339618Y-338434D01*
X15337663Y-354177D01*
X15323862Y-418513D01*
X15301708Y-474348D01*
X15270253Y-523059D01*
X15228545Y-566020D01*
X15175637Y-604613D01*
X15157466Y-615527D01*
X15088204Y-649196D01*
X15019432Y-670234D01*
X14951447Y-678704D01*
X14884550Y-674676D01*
X14819041Y-658214D01*
X14755218Y-629384D01*
X14693381Y-588254D01*
X14633830Y-534889D01*
X14594075Y-490785D01*
X14576138Y-467067D01*
X14554664Y-435395D01*
X14531668Y-399086D01*
X14509163Y-361461D01*
X14489167Y-325840D01*
X14473692Y-295541D01*
X14468444Y-283818D01*
X14442311Y-211894D01*
X14420472Y-133423D01*
X14404247Y-53867D01*
X14395117Y19261D01*
X14393715Y46811D01*
X14393235Y79427D01*
X14393576Y114400D01*
X14394639Y149018D01*
X14396327Y180569D01*
X14398539Y206342D01*
X14401176Y223625D01*
X14402778Y228540D01*
X14409575Y229686D01*
X14426902Y230141D01*
X14452609Y229989D01*
X14484549Y229319D01*
X14520571Y228216D01*
X14558531Y226768D01*
X14596278Y225060D01*
X14631665Y223181D01*
X14662545Y221216D01*
X14686770Y219251D01*
X14702191Y217374D01*
X14706382Y216294D01*
X14708155Y209247D01*
X14709172Y192137D01*
X14709355Y167585D01*
X14708696Y140139D01*
X14709465Y53992D01*
X14717937Y-29879D01*
X14733686Y-107271D01*
X14733733Y-107445D01*
X14741970Y-135030D01*
X14752157Y-161262D01*
X14765956Y-189881D01*
X14785031Y-224627D01*
X14788642Y-230933D01*
X14806238Y-261098D01*
X14819498Y-282361D01*
X14830153Y-296980D01*
X14839933Y-307210D01*
X14850567Y-315310D01*
X14856010Y-318809D01*
X14888577Y-332705D01*
X14921054Y-334261D01*
X14952238Y-323424D01*
X14952914Y-323038D01*
X14970947Y-308709D01*
X14983164Y-289088D01*
X14989697Y-262948D01*
X14990678Y-229064D01*
X14986241Y-186212D01*
X14976517Y-133164D01*
X14974478Y-123641D01*
X14960907Y-61145D01*
X14949811Y-9620D01*
X14940911Y32362D01*
X14933929Y66226D01*
X14928585Y93397D01*
X14924602Y115306D01*
X14921700Y133377D01*
X14919601Y149037D01*
X14918027Y163715D01*
X14917710Y167102D01*
X14915871Y245862D01*
X14925315Y318809D01*
X14935708Y357668D01*
X14956919Y410583D01*
X14984754Y456098D01*
X15020848Y496125D01*
X15066837Y532575D01*
X15106583Y557441D01*
X15162365Y586101D01*
X15214348Y605181D01*
X15265687Y615734D01*
X15288200Y617901D01*
X15359026Y616481D01*
X15427384Y603086D01*
X15492723Y578297D01*
X15554492Y542695D01*
X15612139Y496860D01*
X15665113Y441372D01*
X15712863Y376810D01*
X15754836Y303756D01*
G36*
X17959046Y-3630188D02*
X17947655Y-3631963D01*
X17924570Y-3635516D01*
X17890653Y-3640717D01*
X17846767Y-3647434D01*
X17793773Y-3655534D01*
X17732533Y-3664888D01*
X17663909Y-3675362D01*
X17588765Y-3686825D01*
X17507959Y-3699146D01*
X17422356Y-3712194D01*
X17332818Y-3725836D01*
X17240205Y-3739941D01*
X17229615Y-3741553D01*
X16538781Y-3846742D01*
X16447646Y-3692263D01*
X16420977Y-3646966D01*
X16400181Y-3611322D01*
X16384621Y-3584084D01*
X16373659Y-3564001D01*
X16366657Y-3549823D01*
X16362978Y-3540301D01*
X16361984Y-3534185D01*
X16363038Y-3530225D01*
X16364166Y-3528623D01*
X16369071Y-3522548D01*
X16381400Y-3507193D01*
X16400644Y-3483195D01*
X16426295Y-3451189D01*
X16457842Y-3411813D01*
X16494775Y-3365701D01*
X16536585Y-3313493D01*
X16582762Y-3255822D01*
X16632798Y-3193325D01*
X16686181Y-3126639D01*
X16742402Y-3056400D01*
X16800953Y-2983245D01*
X16822634Y-2956155D01*
X16881821Y-2882227D01*
X16938828Y-2811081D01*
X16993147Y-2743347D01*
X17044274Y-2679649D01*
X17091702Y-2620618D01*
X17134928Y-2566880D01*
X17173447Y-2519061D01*
X17206752Y-2477792D01*
X17234338Y-2443698D01*
X17255700Y-2417406D01*
X17270334Y-2399547D01*
X17277733Y-2390744D01*
X17278539Y-2389908D01*
X17282963Y-2394486D01*
X17292965Y-2409325D01*
X17308012Y-2433548D01*
X17327575Y-2466279D01*
X17351124Y-2506641D01*
X17378130Y-2553759D01*
X17385901Y-2567447D01*
X17488168Y-2747929D01*
X17175561Y-3100457D01*
X17118868Y-3164534D01*
X17066914Y-3223540D01*
X17020143Y-3276963D01*
X16978995Y-3324287D01*
X16943912Y-3365000D01*
X16915336Y-3398587D01*
X16893708Y-3424534D01*
X16879470Y-3442328D01*
X16873063Y-3451454D01*
X16872942Y-3452607D01*
X16880662Y-3451314D01*
X16899824Y-3447696D01*
X16929426Y-3441950D01*
X16968465Y-3434278D01*
X17015935Y-3424877D01*
X17070836Y-3413948D01*
X17132161Y-3401689D01*
X17198909Y-3388299D01*
X17270076Y-3373978D01*
X17337647Y-3360342D01*
X17792362Y-3268458D01*
X17997641Y-3624012D01*
X17959046Y-3630188D01*
X17959046Y-3630188D01*
G37*
X17959046Y-3630188D02*
X17947655Y-3631963D01*
X17924570Y-3635516D01*
X17890653Y-3640717D01*
X17846767Y-3647434D01*
X17793773Y-3655534D01*
X17732533Y-3664888D01*
X17663909Y-3675362D01*
X17588765Y-3686825D01*
X17507959Y-3699146D01*
X17422356Y-3712194D01*
X17332818Y-3725836D01*
X17240205Y-3739941D01*
X17229615Y-3741553D01*
X16538781Y-3846742D01*
X16447646Y-3692263D01*
X16420977Y-3646966D01*
X16400181Y-3611322D01*
X16384621Y-3584084D01*
X16373659Y-3564001D01*
X16366657Y-3549823D01*
X16362978Y-3540301D01*
X16361984Y-3534185D01*
X16363038Y-3530225D01*
X16364166Y-3528623D01*
X16369071Y-3522548D01*
X16381400Y-3507193D01*
X16400644Y-3483195D01*
X16426295Y-3451189D01*
X16457842Y-3411813D01*
X16494775Y-3365701D01*
X16536585Y-3313493D01*
X16582762Y-3255822D01*
X16632798Y-3193325D01*
X16686181Y-3126639D01*
X16742402Y-3056400D01*
X16800953Y-2983245D01*
X16822634Y-2956155D01*
X16881821Y-2882227D01*
X16938828Y-2811081D01*
X16993147Y-2743347D01*
X17044274Y-2679649D01*
X17091702Y-2620618D01*
X17134928Y-2566880D01*
X17173447Y-2519061D01*
X17206752Y-2477792D01*
X17234338Y-2443698D01*
X17255700Y-2417406D01*
X17270334Y-2399547D01*
X17277733Y-2390744D01*
X17278539Y-2389908D01*
X17282963Y-2394486D01*
X17292965Y-2409325D01*
X17308012Y-2433548D01*
X17327575Y-2466279D01*
X17351124Y-2506641D01*
X17378130Y-2553759D01*
X17385901Y-2567447D01*
X17488168Y-2747929D01*
X17175561Y-3100457D01*
X17118868Y-3164534D01*
X17066914Y-3223540D01*
X17020143Y-3276963D01*
X16978995Y-3324287D01*
X16943912Y-3365000D01*
X16915336Y-3398587D01*
X16893708Y-3424534D01*
X16879470Y-3442328D01*
X16873063Y-3451454D01*
X16872942Y-3452607D01*
X16880662Y-3451314D01*
X16899824Y-3447696D01*
X16929426Y-3441950D01*
X16968465Y-3434278D01*
X17015935Y-3424877D01*
X17070836Y-3413948D01*
X17132161Y-3401689D01*
X17198909Y-3388299D01*
X17270076Y-3373978D01*
X17337647Y-3360342D01*
X17792362Y-3268458D01*
X17997641Y-3624012D01*
X17959046Y-3630188D01*
G36*
X15156363Y1341306D02*
X15171487Y1313645D01*
X15182314Y1291806D01*
X15189992Y1273275D01*
X15195670Y1255536D01*
X15200498Y1236072D01*
X15200708Y1235141D01*
X15210773Y1175096D01*
X15212201Y1119779D01*
X15204953Y1064569D01*
X15199021Y1039189D01*
X15174624Y970740D01*
X15138336Y906524D01*
X15090322Y846787D01*
X15034458Y794787D01*
X15022512Y786395D01*
X14999998Y772045D01*
X14967405Y752023D01*
X14925223Y726623D01*
X14873940Y696134D01*
X14814045Y660847D01*
X14746026Y621052D01*
X14670372Y577039D01*
X14587570Y529100D01*
X14585126Y527687D01*
X14167237Y286292D01*
X14067312Y456014D01*
X13967386Y625735D01*
X14326510Y833076D01*
X14401475Y876379D01*
X14466264Y913895D01*
X14521706Y946178D01*
X14568633Y973776D01*
X14607874Y997241D01*
X14640260Y1017121D01*
X14666621Y1033970D01*
X14687787Y1048335D01*
X14704589Y1060770D01*
X14717856Y1071823D01*
X14728419Y1082045D01*
X14737109Y1091987D01*
X14744756Y1102199D01*
X14752189Y1113231D01*
X14754575Y1116896D01*
X14773341Y1156533D01*
X14783089Y1201965D01*
X14783535Y1242952D01*
X14781226Y1262448D01*
X14777145Y1279343D01*
X14769923Y1297253D01*
X14758190Y1319792D01*
X14746863Y1339731D01*
X14730585Y1367167D01*
X14717733Y1386326D01*
X14705871Y1400195D01*
X14692561Y1411763D01*
X14681618Y1419714D01*
X14638337Y1444432D01*
X14595262Y1457508D01*
X14558192Y1460089D01*
X14543431Y1459632D01*
X14529854Y1458754D01*
X14516560Y1457015D01*
X14502646Y1453977D01*
X14487209Y1449199D01*
X14469348Y1442243D01*
X14448160Y1432669D01*
X14422744Y1420037D01*
X14392198Y1403907D01*
X14355617Y1383841D01*
X14312103Y1359398D01*
X14260750Y1330139D01*
X14200660Y1295624D01*
X14130927Y1255415D01*
X14092063Y1232979D01*
X13735767Y1027271D01*
X13538917Y1368225D01*
X14721258Y2050850D01*
X14918108Y1709896D01*
X14842487Y1666251D01*
X14766867Y1622604D01*
X14850198Y1598919D01*
X14902602Y1582629D01*
X14945766Y1565686D01*
X14983107Y1546389D01*
X15018043Y1523040D01*
X15043797Y1502621D01*
X15058242Y1490183D01*
X15070113Y1478657D01*
X15080987Y1465895D01*
X15092440Y1449749D01*
X15106049Y1428075D01*
X15123388Y1398723D01*
X15135793Y1377305D01*
X15156363Y1341306D01*
X15156363Y1341306D01*
G37*
X15156363Y1341306D02*
X15171487Y1313645D01*
X15182314Y1291806D01*
X15189992Y1273275D01*
X15195670Y1255536D01*
X15200498Y1236072D01*
X15200708Y1235141D01*
X15210773Y1175096D01*
X15212201Y1119779D01*
X15204953Y1064569D01*
X15199021Y1039189D01*
X15174624Y970740D01*
X15138336Y906524D01*
X15090322Y846787D01*
X15034458Y794787D01*
X15022512Y786395D01*
X14999998Y772045D01*
X14967405Y752023D01*
X14925223Y726623D01*
X14873940Y696134D01*
X14814045Y660847D01*
X14746026Y621052D01*
X14670372Y577039D01*
X14587570Y529100D01*
X14585126Y527687D01*
X14167237Y286292D01*
X14067312Y456014D01*
X13967386Y625735D01*
X14326510Y833076D01*
X14401475Y876379D01*
X14466264Y913895D01*
X14521706Y946178D01*
X14568633Y973776D01*
X14607874Y997241D01*
X14640260Y1017121D01*
X14666621Y1033970D01*
X14687787Y1048335D01*
X14704589Y1060770D01*
X14717856Y1071823D01*
X14728419Y1082045D01*
X14737109Y1091987D01*
X14744756Y1102199D01*
X14752189Y1113231D01*
X14754575Y1116896D01*
X14773341Y1156533D01*
X14783089Y1201965D01*
X14783535Y1242952D01*
X14781226Y1262448D01*
X14777145Y1279343D01*
X14769923Y1297253D01*
X14758190Y1319792D01*
X14746863Y1339731D01*
X14730585Y1367167D01*
X14717733Y1386326D01*
X14705871Y1400195D01*
X14692561Y1411763D01*
X14681618Y1419714D01*
X14638337Y1444432D01*
X14595262Y1457508D01*
X14558192Y1460089D01*
X14543431Y1459632D01*
X14529854Y1458754D01*
X14516560Y1457015D01*
X14502646Y1453977D01*
X14487209Y1449199D01*
X14469348Y1442243D01*
X14448160Y1432669D01*
X14422744Y1420037D01*
X14392198Y1403907D01*
X14355617Y1383841D01*
X14312103Y1359398D01*
X14260750Y1330139D01*
X14200660Y1295624D01*
X14130927Y1255415D01*
X14092063Y1232979D01*
X13735767Y1027271D01*
X13538917Y1368225D01*
X14721258Y2050850D01*
X14918108Y1709896D01*
X14842487Y1666251D01*
X14766867Y1622604D01*
X14850198Y1598919D01*
X14902602Y1582629D01*
X14945766Y1565686D01*
X14983107Y1546389D01*
X15018043Y1523040D01*
X15043797Y1502621D01*
X15058242Y1490183D01*
X15070113Y1478657D01*
X15080987Y1465895D01*
X15092440Y1449749D01*
X15106049Y1428075D01*
X15123388Y1398723D01*
X15135793Y1377305D01*
X15156363Y1341306D01*
G36*
X17248958Y-2271160D02*
X17253488Y-2287053D01*
X16904240Y-2488692D01*
X16873673Y-2444446D01*
X16825998Y-2384188D01*
X16774522Y-2336037D01*
X16719099Y-2299937D01*
X16659582Y-2275832D01*
X16595823Y-2263664D01*
X16527675Y-2263379D01*
X16454992Y-2274919D01*
X16439983Y-2278619D01*
X16428053Y-2281851D01*
X16416579Y-2285402D01*
X16404490Y-2289828D01*
X16390712Y-2295688D01*
X16374172Y-2303541D01*
X16353798Y-2313945D01*
X16328514Y-2327459D01*
X16297248Y-2344641D01*
X16258928Y-2366049D01*
X16212480Y-2392240D01*
X16156830Y-2423774D01*
X16111529Y-2449495D01*
X15834068Y-2607093D01*
X15637592Y-2266786D01*
X16819933Y-1584161D01*
X17016783Y-1925116D01*
X16908245Y-1987946D01*
X16799706Y-2050777D01*
X16843975Y-2049484D01*
X16914532Y-2051674D01*
X16981690Y-2062046D01*
X17043584Y-2080023D01*
X17098350Y-2105025D01*
X17144126Y-2136477D01*
X17154294Y-2145610D01*
X17173114Y-2165211D01*
X17193574Y-2189198D01*
X17213549Y-2214754D01*
X17230913Y-2239056D01*
X17243540Y-2259287D01*
X17248958Y-2271160D01*
X17248958Y-2271160D01*
G37*
X17248958Y-2271160D02*
X17253488Y-2287053D01*
X16904240Y-2488692D01*
X16873673Y-2444446D01*
X16825998Y-2384188D01*
X16774522Y-2336037D01*
X16719099Y-2299937D01*
X16659582Y-2275832D01*
X16595823Y-2263664D01*
X16527675Y-2263379D01*
X16454992Y-2274919D01*
X16439983Y-2278619D01*
X16428053Y-2281851D01*
X16416579Y-2285402D01*
X16404490Y-2289828D01*
X16390712Y-2295688D01*
X16374172Y-2303541D01*
X16353798Y-2313945D01*
X16328514Y-2327459D01*
X16297248Y-2344641D01*
X16258928Y-2366049D01*
X16212480Y-2392240D01*
X16156830Y-2423774D01*
X16111529Y-2449495D01*
X15834068Y-2607093D01*
X15637592Y-2266786D01*
X16819933Y-1584161D01*
X17016783Y-1925116D01*
X16908245Y-1987946D01*
X16799706Y-2050777D01*
X16843975Y-2049484D01*
X16914532Y-2051674D01*
X16981690Y-2062046D01*
X17043584Y-2080023D01*
X17098350Y-2105025D01*
X17144126Y-2136477D01*
X17154294Y-2145610D01*
X17173114Y-2165211D01*
X17193574Y-2189198D01*
X17213549Y-2214754D01*
X17230913Y-2239056D01*
X17243540Y-2259287D01*
X17248958Y-2271160D01*
G36*
X17675585Y-4428269D02*
X17085025Y-4767465D01*
X16985118Y-4597775D01*
X16885211Y-4428086D01*
X18067708Y-3745371D01*
X18166927Y-3917222D01*
X18266146Y-4089074D01*
X17675585Y-4428269D01*
X17675585Y-4428269D01*
G37*
X17675585Y-4428269D02*
X17085025Y-4767465D01*
X16985118Y-4597775D01*
X16885211Y-4428086D01*
X18067708Y-3745371D01*
X18166927Y-3917222D01*
X18266146Y-4089074D01*
X17675585Y-4428269D01*
G36*
X19109684Y-4529600D02*
X19134011Y-4572578D01*
X19152854Y-4607984D01*
X19167564Y-4638946D01*
X19179492Y-4668596D01*
X19189988Y-4700063D01*
X19200404Y-4736478D01*
X19202778Y-4745315D01*
X19209979Y-4772321D01*
X19066621Y-4855088D01*
X19023206Y-4880100D01*
X18989513Y-4899318D01*
X18964300Y-4913350D01*
X18946321Y-4922804D01*
X18934333Y-4928290D01*
X18927090Y-4930413D01*
X18923350Y-4929784D01*
X18921865Y-4927010D01*
X18921684Y-4925935D01*
X18914591Y-4891703D01*
X18902385Y-4851957D01*
X18886858Y-4811847D01*
X18869983Y-4776869D01*
X18844670Y-4737926D01*
X18817692Y-4711157D01*
X18787938Y-4696226D01*
X18754305Y-4692796D01*
X18715684Y-4700531D01*
X18674444Y-4717386D01*
X18627615Y-4740107D01*
X18704444Y-4876579D01*
X18781273Y-5013052D01*
X18506310Y-5171802D01*
X18350727Y-4909125D01*
X17460042Y-5423362D01*
X17263192Y-5082408D01*
X18154072Y-4568058D01*
X18074697Y-4430577D01*
X18355159Y-4268652D01*
X18433671Y-4404638D01*
X18516434Y-4360661D01*
X18552984Y-4342040D01*
X18589171Y-4325018D01*
X18621438Y-4311201D01*
X18645882Y-4302298D01*
X18715119Y-4286551D01*
X18781060Y-4283061D01*
X18843865Y-4291866D01*
X18903699Y-4313007D01*
X18960724Y-4346523D01*
X19015102Y-4392455D01*
X19015139Y-4392491D01*
X19029300Y-4407041D01*
X19042098Y-4422002D01*
X19055012Y-4439517D01*
X19069520Y-4461726D01*
X19087099Y-4490776D01*
X19109227Y-4528807D01*
X19109684Y-4529600D01*
X19109684Y-4529600D01*
G37*
X19109684Y-4529600D02*
X19134011Y-4572578D01*
X19152854Y-4607984D01*
X19167564Y-4638946D01*
X19179492Y-4668596D01*
X19189988Y-4700063D01*
X19200404Y-4736478D01*
X19202778Y-4745315D01*
X19209979Y-4772321D01*
X19066621Y-4855088D01*
X19023206Y-4880100D01*
X18989513Y-4899318D01*
X18964300Y-4913350D01*
X18946321Y-4922804D01*
X18934333Y-4928290D01*
X18927090Y-4930413D01*
X18923350Y-4929784D01*
X18921865Y-4927010D01*
X18921684Y-4925935D01*
X18914591Y-4891703D01*
X18902385Y-4851957D01*
X18886858Y-4811847D01*
X18869983Y-4776869D01*
X18844670Y-4737926D01*
X18817692Y-4711157D01*
X18787938Y-4696226D01*
X18754305Y-4692796D01*
X18715684Y-4700531D01*
X18674444Y-4717386D01*
X18627615Y-4740107D01*
X18704444Y-4876579D01*
X18781273Y-5013052D01*
X18506310Y-5171802D01*
X18350727Y-4909125D01*
X17460042Y-5423362D01*
X17263192Y-5082408D01*
X18154072Y-4568058D01*
X18074697Y-4430577D01*
X18355159Y-4268652D01*
X18433671Y-4404638D01*
X18516434Y-4360661D01*
X18552984Y-4342040D01*
X18589171Y-4325018D01*
X18621438Y-4311201D01*
X18645882Y-4302298D01*
X18715119Y-4286551D01*
X18781060Y-4283061D01*
X18843865Y-4291866D01*
X18903699Y-4313007D01*
X18960724Y-4346523D01*
X19015102Y-4392455D01*
X19015139Y-4392491D01*
X19029300Y-4407041D01*
X19042098Y-4422002D01*
X19055012Y-4439517D01*
X19069520Y-4461726D01*
X19087099Y-4490776D01*
X19109227Y-4528807D01*
X19109684Y-4529600D01*
G36*
X18397391Y-4024299D02*
X18191016Y-3666847D01*
X18493475Y-3492222D01*
X18699850Y-3849674D01*
X18397391Y-4024299D01*
X18397391Y-4024299D01*
G37*
X18397391Y-4024299D02*
X18191016Y-3666847D01*
X18493475Y-3492222D01*
X18699850Y-3849674D01*
X18397391Y-4024299D01*
G36*
X12861069Y7714572D02*
X12882737Y7647294D01*
X12894843Y7572574D01*
X12896407Y7553384D01*
X12897852Y7518569D01*
X12896538Y7488582D01*
X12891898Y7458160D01*
X12883367Y7422037D01*
X12881496Y7414981D01*
X12871321Y7379510D01*
X12861250Y7351702D01*
X12849086Y7326736D01*
X12832625Y7299784D01*
X12821146Y7282662D01*
X12793415Y7243854D01*
X12768258Y7213506D01*
X12742575Y7188713D01*
X12713271Y7166571D01*
X12677248Y7144176D01*
X12667428Y7138537D01*
X12648745Y7128193D01*
X12630885Y7119139D01*
X12612833Y7111244D01*
X12593575Y7104375D01*
X12572097Y7098397D01*
X12547382Y7093175D01*
X12518416Y7088577D01*
X12484184Y7084467D01*
X12443671Y7080715D01*
X12395861Y7077183D01*
X12339740Y7073739D01*
X12274292Y7070248D01*
X12198503Y7066578D01*
X12111357Y7062593D01*
X12081465Y7061255D01*
X12010996Y7058164D01*
X11944027Y7055330D01*
X11881681Y7052793D01*
X11825077Y7050596D01*
X11775339Y7048777D01*
X11733587Y7047379D01*
X11700941Y7046440D01*
X11678523Y7046004D01*
X11667453Y7046109D01*
X11666717Y7046196D01*
X11651523Y7054737D01*
X11640588Y7070500D01*
X11637291Y7088119D01*
X11637957Y7091826D01*
X11642419Y7101235D01*
X11653060Y7120207D01*
X11669177Y7147628D01*
X11690070Y7182382D01*
X11715038Y7223359D01*
X11743382Y7269443D01*
X11774400Y7319522D01*
X11807391Y7372479D01*
X11841656Y7427203D01*
X11876493Y7482580D01*
X11911202Y7537494D01*
X11945082Y7590834D01*
X11977432Y7641486D01*
X12007553Y7688335D01*
X12034743Y7730267D01*
X12058301Y7766169D01*
X12077528Y7794927D01*
X12091722Y7815428D01*
X12100051Y7826407D01*
X12156169Y7882009D01*
X12217668Y7926626D01*
X12228219Y7931937D01*
X12296600Y7813498D01*
X12246798Y7781193D01*
X12205117Y7741353D01*
X12171931Y7695380D01*
X12147616Y7644677D01*
X12132545Y7590650D01*
X12127097Y7534699D01*
X12131643Y7478230D01*
X12146560Y7422646D01*
X12172223Y7369349D01*
X12209006Y7319744D01*
X12214388Y7313891D01*
X12262215Y7271708D01*
X12314955Y7240951D01*
X12371511Y7221860D01*
X12430781Y7214673D01*
X12491671Y7219629D01*
X12553080Y7236967D01*
X12558358Y7239048D01*
X12612870Y7267293D01*
X12659281Y7303914D01*
X12697229Y7347438D01*
X12726355Y7396394D01*
X12746298Y7449310D01*
X12756698Y7504712D01*
X12757193Y7561131D01*
X12747424Y7617090D01*
X12727031Y7671121D01*
X12695650Y7721749D01*
X12680930Y7739611D01*
X12633002Y7785161D01*
X12580831Y7818982D01*
X12525059Y7840884D01*
X12466327Y7850677D01*
X12405276Y7848169D01*
X12354146Y7836863D01*
X12296600Y7813498D01*
X12228219Y7931937D01*
X12283790Y7959904D01*
X12353780Y7981484D01*
X12426879Y7991013D01*
X12451128Y7991455D01*
X12524260Y7984727D01*
X12594485Y7966243D01*
X12660208Y7936598D01*
X12719834Y7896387D01*
X12731229Y7886832D01*
X12786062Y7832832D01*
X12829094Y7775915D01*
X12861069Y7714572D01*
X12861069Y7714572D01*
G37*
X12861069Y7714572D02*
X12882737Y7647294D01*
X12894843Y7572574D01*
X12896407Y7553384D01*
X12897852Y7518569D01*
X12896538Y7488582D01*
X12891898Y7458160D01*
X12883367Y7422037D01*
X12881496Y7414981D01*
X12871321Y7379510D01*
X12861250Y7351702D01*
X12849086Y7326736D01*
X12832625Y7299784D01*
X12821146Y7282662D01*
X12793415Y7243854D01*
X12768258Y7213506D01*
X12742575Y7188713D01*
X12713271Y7166571D01*
X12677248Y7144176D01*
X12667428Y7138537D01*
X12648745Y7128193D01*
X12630885Y7119139D01*
X12612833Y7111244D01*
X12593575Y7104375D01*
X12572097Y7098397D01*
X12547382Y7093175D01*
X12518416Y7088577D01*
X12484184Y7084467D01*
X12443671Y7080715D01*
X12395861Y7077183D01*
X12339740Y7073739D01*
X12274292Y7070248D01*
X12198503Y7066578D01*
X12111357Y7062593D01*
X12081465Y7061255D01*
X12010996Y7058164D01*
X11944027Y7055330D01*
X11881681Y7052793D01*
X11825077Y7050596D01*
X11775339Y7048777D01*
X11733587Y7047379D01*
X11700941Y7046440D01*
X11678523Y7046004D01*
X11667453Y7046109D01*
X11666717Y7046196D01*
X11651523Y7054737D01*
X11640588Y7070500D01*
X11637291Y7088119D01*
X11637957Y7091826D01*
X11642419Y7101235D01*
X11653060Y7120207D01*
X11669177Y7147628D01*
X11690070Y7182382D01*
X11715038Y7223359D01*
X11743382Y7269443D01*
X11774400Y7319522D01*
X11807391Y7372479D01*
X11841656Y7427203D01*
X11876493Y7482580D01*
X11911202Y7537494D01*
X11945082Y7590834D01*
X11977432Y7641486D01*
X12007553Y7688335D01*
X12034743Y7730267D01*
X12058301Y7766169D01*
X12077528Y7794927D01*
X12091722Y7815428D01*
X12100051Y7826407D01*
X12156169Y7882009D01*
X12217668Y7926626D01*
X12228219Y7931937D01*
X12296600Y7813498D01*
X12246798Y7781193D01*
X12205117Y7741353D01*
X12171931Y7695380D01*
X12147616Y7644677D01*
X12132545Y7590650D01*
X12127097Y7534699D01*
X12131643Y7478230D01*
X12146560Y7422646D01*
X12172223Y7369349D01*
X12209006Y7319744D01*
X12214388Y7313891D01*
X12262215Y7271708D01*
X12314955Y7240951D01*
X12371511Y7221860D01*
X12430781Y7214673D01*
X12491671Y7219629D01*
X12553080Y7236967D01*
X12558358Y7239048D01*
X12612870Y7267293D01*
X12659281Y7303914D01*
X12697229Y7347438D01*
X12726355Y7396394D01*
X12746298Y7449310D01*
X12756698Y7504712D01*
X12757193Y7561131D01*
X12747424Y7617090D01*
X12727031Y7671121D01*
X12695650Y7721749D01*
X12680930Y7739611D01*
X12633002Y7785161D01*
X12580831Y7818982D01*
X12525059Y7840884D01*
X12466327Y7850677D01*
X12405276Y7848169D01*
X12354146Y7836863D01*
X12296600Y7813498D01*
X12228219Y7931937D01*
X12283790Y7959904D01*
X12353780Y7981484D01*
X12426879Y7991013D01*
X12451128Y7991455D01*
X12524260Y7984727D01*
X12594485Y7966243D01*
X12660208Y7936598D01*
X12719834Y7896387D01*
X12731229Y7886832D01*
X12786062Y7832832D01*
X12829094Y7775915D01*
X12861069Y7714572D01*
D14*
X-48747680Y-2689860D02*
X-48747680Y-1691640D01*
X-48049180Y-15689580D02*
X-48049180Y-14691360D01*
D15*
X-3187124Y10298258D02*
X-2197174Y11288208D01*
X-5449866Y12561000D02*
X-4459916Y13550950D01*
X-3187124Y10298258D02*
X-5449866Y12561000D01*
X-4459916Y13550950D02*
X-2197174Y11288208D01*
X-1928475Y11019509D02*
X-2918425Y10029559D01*
X334267Y8756767D02*
X-655683Y7766817D01*
X-1928475Y11019509D02*
X334267Y8756767D01*
X-655683Y7766817D02*
X-2918425Y10029559D01*
X-9180600Y-2337000D02*
X-10580600Y-2337000D01*
X-9180600Y-5537000D02*
X-10580600Y-5537000D01*
X-9180600Y-2337000D02*
X-9180600Y-5537000D01*
X-10580600Y-5537000D02*
X-10580600Y-2337000D01*
X4634000Y6426400D02*
X6034000Y6426400D01*
X4634000Y9626400D02*
X6034000Y9626400D01*
X4634000Y6426400D02*
X4634000Y9626400D01*
X6034000Y9626400D02*
X6034000Y6426400D01*
X-10252408Y5719176D02*
X-8852408Y5719176D01*
X-10252408Y8919176D02*
X-8852408Y8919176D01*
X-10252408Y5719176D02*
X-10252408Y8919176D01*
X-8852408Y8919176D02*
X-8852408Y5719176D01*
X1281200Y6426400D02*
X2681200Y6426400D01*
X1281200Y9626400D02*
X2681200Y9626400D01*
X1281200Y6426400D02*
X1281200Y9626400D01*
X2681200Y9626400D02*
X2681200Y6426400D01*
X2957600Y6426400D02*
X4357600Y6426400D01*
X2957600Y9626400D02*
X4357600Y9626400D01*
X2957600Y6426400D02*
X2957600Y9626400D01*
X4357600Y9626400D02*
X4357600Y6426400D01*
X-40076514Y6091344D02*
X-40076514Y4691344D01*
X-36876514Y6091344D02*
X-36876514Y4691344D01*
X-40076514Y6091344D02*
X-36876514Y6091344D01*
X-36876514Y4691344D02*
X-40076514Y4691344D01*
X-7836042Y15270594D02*
X-9236042Y15270594D01*
X-7836042Y12070594D02*
X-9236042Y12070594D01*
X-7836042Y15270594D02*
X-7836042Y12070594D01*
X-9236042Y12070594D02*
X-9236042Y15270594D01*
X-32285553Y10780941D02*
X-32285553Y12180941D01*
X-35485553Y10780941D02*
X-35485553Y12180941D01*
X-32285553Y10780941D02*
X-35485553Y10780941D01*
X-35485553Y12180941D02*
X-32285553Y12180941D01*
X-45918024Y1264425D02*
X-45918024Y2664425D01*
X-49118024Y1264425D02*
X-49118024Y2664425D01*
X-45918024Y1264425D02*
X-49118024Y1264425D01*
X-49118024Y2664425D02*
X-45918024Y2664425D01*
X-26352300Y-3846600D02*
X-26352300Y-5246600D01*
X-23152300Y-3846600D02*
X-23152300Y-5246600D01*
X-26352300Y-3846600D02*
X-23152300Y-3846600D01*
X-23152300Y-5246600D02*
X-26352300Y-5246600D01*
X-43562500Y11671500D02*
X-42162500Y11671500D01*
X-43562500Y14871500D02*
X-42162500Y14871500D01*
X-43562500Y11671500D02*
X-43562500Y14871500D01*
X-42162500Y14871500D02*
X-42162500Y11671500D01*
X-35499153Y8828141D02*
X-35499153Y7428141D01*
X-32299153Y8828141D02*
X-32299153Y7428141D01*
X-35499153Y8828141D02*
X-32299153Y8828141D01*
X-32299153Y7428141D02*
X-35499153Y7428141D01*
X-35485553Y7151741D02*
X-35485553Y5751741D01*
X-32285553Y7151741D02*
X-32285553Y5751741D01*
X-35485553Y7151741D02*
X-32285553Y7151741D01*
X-32285553Y5751741D02*
X-35485553Y5751741D01*
X-24039600Y1479223D02*
X-25439600Y1479223D01*
X-24039600Y-1720777D02*
X-25439600Y-1720777D01*
X-24039600Y1479223D02*
X-24039600Y-1720777D01*
X-25439600Y-1720777D02*
X-25439600Y1479223D01*
X-25883981Y1479223D02*
X-27283981Y1479223D01*
X-25883981Y-1720777D02*
X-27283981Y-1720777D01*
X-25883981Y1479223D02*
X-25883981Y-1720777D01*
X-27283981Y-1720777D02*
X-27283981Y1479223D01*
X-32543310Y-8862314D02*
X-32543310Y-10262314D01*
X-29343310Y-8862314D02*
X-29343310Y-10262314D01*
X-32543310Y-8862314D02*
X-29343310Y-8862314D01*
X-29343310Y-10262314D02*
X-32543310Y-10262314D01*
X-29343310Y-6706314D02*
X-29343310Y-5306314D01*
X-32543310Y-6706314D02*
X-32543310Y-5306314D01*
X-29343310Y-6706314D02*
X-32543310Y-6706314D01*
X-32543310Y-5306314D02*
X-29343310Y-5306314D01*
X-27697200Y1486600D02*
X-29097200Y1486600D01*
X-27697200Y-1713400D02*
X-29097200Y-1713400D01*
X-27697200Y1486600D02*
X-27697200Y-1713400D01*
X-29097200Y-1713400D02*
X-29097200Y1486600D01*
X-30502214Y5842844D02*
X-29102214Y5842844D01*
X-30502214Y9042844D02*
X-29102214Y9042844D01*
X-30502214Y5842844D02*
X-30502214Y9042844D01*
X-29102214Y9042844D02*
X-29102214Y5842844D01*
X-17428781Y5746823D02*
X-16028781Y5746823D01*
X-17428781Y8946823D02*
X-16028781Y8946823D01*
X-17428781Y5746823D02*
X-17428781Y8946823D01*
X-16028781Y8946823D02*
X-16028781Y5746823D01*
X-19155981Y5746823D02*
X-17755981Y5746823D01*
X-19155981Y8946823D02*
X-17755981Y8946823D01*
X-19155981Y5746823D02*
X-19155981Y8946823D01*
X-17755981Y8946823D02*
X-17755981Y5746823D01*
X36209200Y16589200D02*
X36209200Y13389200D01*
X36209200Y13389200D02*
X34809200Y13389200D01*
X34809200Y13389200D02*
X34809200Y16589200D01*
X34809200Y16589200D02*
X36209200Y16589200D01*
X36209200Y16589200D02*
X36209200Y16789200D01*
X36209200Y16789200D02*
X34809200Y16789200D01*
X34809200Y16789200D02*
X34809200Y16589200D01*
X-32602400Y-19180000D02*
X-32602400Y-15980000D01*
X-32602400Y-15980000D02*
X-31202400Y-15980000D01*
X-31202400Y-15980000D02*
X-31202400Y-19180000D01*
X-31202400Y-19180000D02*
X-32602400Y-19180000D01*
X-32602400Y-19180000D02*
X-32602400Y-19380000D01*
X-32602400Y-19380000D02*
X-31202400Y-19380000D01*
X-31202400Y-19380000D02*
X-31202400Y-19180000D01*
X-28936730Y-19199830D02*
X-28936730Y-15999830D01*
X-28936730Y-15999830D02*
X-27536730Y-15999830D01*
X-27536730Y-15999830D02*
X-27536730Y-19199830D01*
X-27536730Y-19199830D02*
X-28936730Y-19199830D01*
X-28936730Y-19199830D02*
X-28936730Y-19399830D01*
X-28936730Y-19399830D02*
X-27536730Y-19399830D01*
X-27536730Y-19399830D02*
X-27536730Y-19199830D01*
X31129200Y16589200D02*
X31129200Y13389200D01*
X31129200Y13389200D02*
X29729200Y13389200D01*
X29729200Y13389200D02*
X29729200Y16589200D01*
X29729200Y16589200D02*
X31129200Y16589200D01*
X31129200Y16589200D02*
X31129200Y16789200D01*
X31129200Y16789200D02*
X29729200Y16789200D01*
X29729200Y16789200D02*
X29729200Y16589200D01*
X21020000Y16589200D02*
X21020000Y13389200D01*
X21020000Y13389200D02*
X19620000Y13389200D01*
X19620000Y13389200D02*
X19620000Y16589200D01*
X19620000Y16589200D02*
X21020000Y16589200D01*
X21020000Y16589200D02*
X21020000Y16789200D01*
X21020000Y16789200D02*
X19620000Y16789200D01*
X19620000Y16789200D02*
X19620000Y16589200D01*
X26049200Y16589200D02*
X26049200Y13389200D01*
X26049200Y13389200D02*
X24649200Y13389200D01*
X24649200Y13389200D02*
X24649200Y16589200D01*
X24649200Y16589200D02*
X26049200Y16589200D01*
X26049200Y16589200D02*
X26049200Y16789200D01*
X26049200Y16789200D02*
X24649200Y16789200D01*
X24649200Y16789200D02*
X24649200Y16589200D01*
X-32569200Y13728000D02*
X-31969200Y13728000D01*
X-33969200Y15728000D02*
X-33969200Y13728000D01*
X-32719200Y15728000D02*
X-33219200Y15728000D01*
X-31969200Y13728000D02*
X-31969200Y15728000D01*
X-33969200Y13728000D02*
X-33369200Y13728000D01*
X-39869689Y-2101600D02*
G75*
G03X-39869689Y-2101600I-70711J0D01*
G01*
X-38490400Y-1751600D02*
X-38040400Y-1751600D01*
X-38890400Y-451600D02*
X-37990400Y-451600D01*
X-36990400Y-451600D02*
X-36990400Y-1751600D01*
X-39890400Y-451600D02*
X-39890400Y-1751600D01*
X-27000400Y15356000D02*
X-30200400Y15356000D01*
X-30200400Y15356000D02*
X-30200400Y16756000D01*
X-30200400Y16756000D02*
X-27000400Y16756000D01*
X-27000400Y16756000D02*
X-27000400Y15356000D01*
X-27000400Y15356000D02*
X-26800400Y15356000D01*
X-26800400Y15356000D02*
X-26800400Y16756000D01*
X-26800400Y16756000D02*
X-27000400Y16756000D01*
X-27000400Y12104800D02*
X-30200400Y12104800D01*
X-30200400Y12104800D02*
X-30200400Y13504800D01*
X-30200400Y13504800D02*
X-27000400Y13504800D01*
X-27000400Y13504800D02*
X-27000400Y12104800D01*
X-27000400Y12104800D02*
X-26800400Y12104800D01*
X-26800400Y12104800D02*
X-26800400Y13504800D01*
X-26800400Y13504800D02*
X-27000400Y13504800D01*
X1766800Y16552000D02*
X1766800Y13352000D01*
X1766800Y13352000D02*
X366800Y13352000D01*
X366800Y13352000D02*
X366800Y16552000D01*
X366800Y16552000D02*
X1766800Y16552000D01*
X1766800Y16552000D02*
X1766800Y16752000D01*
X1766800Y16752000D02*
X366800Y16752000D01*
X366800Y16752000D02*
X366800Y16552000D01*
X-37852400Y2402200D02*
X-38652400Y2402200D01*
X-37852400Y1052200D02*
X-38652400Y1052200D01*
D16*
X18392000Y-10408000D02*
X18392000Y-8608000D01*
X18392000Y-8608000D02*
X16542000Y-8608000D01*
X16542000Y-8608000D02*
X16542000Y-7868000D01*
X11072000Y-10408000D02*
X11072000Y-8608000D01*
X11072000Y-8608000D02*
X12922000Y-8608000D01*
X18392000Y-13728000D02*
X18392000Y-14278000D01*
X18392000Y-14278000D02*
X11072000Y-14278000D01*
X11072000Y-14278000D02*
X11072000Y-13728000D01*
X-16292400Y13953600D02*
X-16292400Y15753600D01*
X-16292400Y15753600D02*
X-18142400Y15753600D01*
X-18142400Y15753600D02*
X-18142400Y16493600D01*
X-26112400Y13953600D02*
X-26112400Y15753600D01*
X-26112400Y15753600D02*
X-24262400Y15753600D01*
X-16292400Y10633600D02*
X-16292400Y10083600D01*
X-16292400Y10083600D02*
X-26112400Y10083600D01*
X-26112400Y10083600D02*
X-26112400Y10633600D01*
D15*
X7491200Y-14300200D02*
X4091200Y-14300200D01*
X7491200Y-7950200D02*
X4091200Y-7950200D01*
D16*
X6045200Y-16094400D02*
X-14334800Y-16094400D01*
X-14334800Y-16094400D02*
X-14334800Y-18754400D01*
X-14334800Y-18754400D02*
X6045200Y-18754400D01*
X6045200Y-18754400D02*
X6045200Y-16094400D01*
X7315200Y-16094400D02*
X8645200Y-16094400D01*
X8645200Y-16094400D02*
X8645200Y-17424400D01*
D15*
X-38604800Y-13276000D02*
X-38604800Y-11676000D01*
X-38604800Y-11676000D02*
X-37804800Y-11676000D01*
X-37804800Y-11676000D02*
X-37804800Y-15526000D01*
X-44054800Y-19276000D02*
X-39454800Y-19276000D01*
X-44904800Y-13276000D02*
X-44904800Y-11676000D01*
X-44904800Y-11676000D02*
X-45704800Y-11676000D01*
X-45704800Y-11676000D02*
X-45704800Y-15526000D01*
X-38604800Y-13276000D02*
X-39854800Y-13276000D01*
X-44904800Y-13276000D02*
X-43654800Y-13276000D01*
X-11995208Y5703976D02*
X-10595208Y5703976D01*
X-11995208Y8903976D02*
X-10595208Y8903976D01*
X-11995208Y5703976D02*
X-11995208Y8903976D01*
X-10595208Y8903976D02*
X-10595208Y5703976D01*
X-40076514Y4364144D02*
X-40076514Y2964144D01*
X-36876514Y4364144D02*
X-36876514Y2964144D01*
X-40076514Y4364144D02*
X-36876514Y4364144D01*
X-36876514Y2964144D02*
X-40076514Y2964144D01*
D16*
X-14749581Y-1187177D02*
X-21349581Y-1187177D01*
X-21349581Y5212823D02*
X-14749581Y5212823D01*
D15*
X38025200Y10397600D02*
X38025200Y11797600D01*
X37125200Y11797600D02*
X38025200Y11797600D01*
X35025200Y11797600D02*
X36025200Y11797600D01*
X35025200Y10397600D02*
X35025200Y11797600D01*
X36125200Y10397600D02*
X36925200Y10397600D01*
X32945200Y10379200D02*
X32945200Y11779200D01*
X32045200Y11779200D02*
X32945200Y11779200D01*
X29945200Y11779200D02*
X30945200Y11779200D01*
X29945200Y10379200D02*
X29945200Y11779200D01*
X31045200Y10379200D02*
X31845200Y10379200D01*
X22836000Y10397600D02*
X22836000Y11797600D01*
X21936000Y11797600D02*
X22836000Y11797600D01*
X19836000Y11797600D02*
X20836000Y11797600D01*
X19836000Y10397600D02*
X19836000Y11797600D01*
X20936000Y10397600D02*
X21736000Y10397600D01*
X27865200Y10430000D02*
X27865200Y11830000D01*
X26965200Y11830000D02*
X27865200Y11830000D01*
X24865200Y11830000D02*
X25865200Y11830000D01*
X24865200Y10430000D02*
X24865200Y11830000D01*
X25965200Y10430000D02*
X26765200Y10430000D01*
X-18959600Y-15980000D02*
X-20359600Y-15980000D01*
X-18959600Y-19180000D02*
X-20359600Y-19180000D01*
X-18959600Y-15980000D02*
X-18959600Y-19180000D01*
X-20359600Y-19180000D02*
X-20359600Y-15980000D01*
X-17232400Y-15980000D02*
X-18632400Y-15980000D01*
X-17232400Y-19180000D02*
X-18632400Y-19180000D01*
X-17232400Y-15980000D02*
X-17232400Y-19180000D01*
X-18632400Y-19180000D02*
X-18632400Y-15980000D01*
X38241200Y16589200D02*
X36841200Y16589200D01*
X38241200Y13389200D02*
X36841200Y13389200D01*
X38241200Y16589200D02*
X38241200Y13389200D01*
X36841200Y13389200D02*
X36841200Y16589200D01*
X-33031200Y-15980000D02*
X-34431200Y-15980000D01*
X-33031200Y-19180000D02*
X-34431200Y-19180000D01*
X-33031200Y-15980000D02*
X-33031200Y-19180000D01*
X-34431200Y-19180000D02*
X-34431200Y-15980000D01*
X-29373600Y-16030800D02*
X-30773600Y-16030800D01*
X-29373600Y-19230800D02*
X-30773600Y-19230800D01*
X-29373600Y-16030800D02*
X-29373600Y-19230800D01*
X-30773600Y-19230800D02*
X-30773600Y-16030800D01*
X20954800Y-18454600D02*
X20954800Y-17054600D01*
X17754800Y-18454600D02*
X17754800Y-17054600D01*
X20954800Y-18454600D02*
X17754800Y-18454600D01*
X17754800Y-17054600D02*
X20954800Y-17054600D01*
X20954800Y-16676600D02*
X20954800Y-15276600D01*
X17754800Y-16676600D02*
X17754800Y-15276600D01*
X20954800Y-16676600D02*
X17754800Y-16676600D01*
X17754800Y-15276600D02*
X20954800Y-15276600D01*
X10033200Y12688800D02*
X10033200Y11288800D01*
X13233200Y12688800D02*
X13233200Y11288800D01*
X10033200Y12688800D02*
X13233200Y12688800D01*
X13233200Y11288800D02*
X10033200Y11288800D01*
X17094000Y11288800D02*
X17094000Y12688800D01*
X13894000Y11288800D02*
X13894000Y12688800D01*
X17094000Y11288800D02*
X13894000Y11288800D01*
X13894000Y12688800D02*
X17094000Y12688800D01*
X33161200Y16589200D02*
X31761200Y16589200D01*
X33161200Y13389200D02*
X31761200Y13389200D01*
X33161200Y16589200D02*
X33161200Y13389200D01*
X31761200Y13389200D02*
X31761200Y16589200D01*
X23052000Y16589200D02*
X21652000Y16589200D01*
X23052000Y13389200D02*
X21652000Y13389200D01*
X23052000Y16589200D02*
X23052000Y13389200D01*
X21652000Y13389200D02*
X21652000Y16589200D01*
X28081200Y16589200D02*
X26681200Y16589200D01*
X28081200Y13389200D02*
X26681200Y13389200D01*
X28081200Y16589200D02*
X28081200Y13389200D01*
X26681200Y13389200D02*
X26681200Y16589200D01*
X-32285553Y9104541D02*
X-32285553Y10504541D01*
X-35485553Y9104541D02*
X-35485553Y10504541D01*
X-32285553Y9104541D02*
X-35485553Y9104541D01*
X-35485553Y10504541D02*
X-32285553Y10504541D01*
X-35115953Y16738541D02*
X-36515953Y16738541D01*
X-35115953Y13538541D02*
X-36515953Y13538541D01*
X-35115953Y16738541D02*
X-35115953Y13538541D01*
X-36515953Y13538541D02*
X-36515953Y16738541D01*
X5911642Y-133026D02*
X7311642Y-133026D01*
X5911642Y3066974D02*
X7311642Y3066974D01*
X5911642Y-133026D02*
X5911642Y3066974D01*
X7311642Y3066974D02*
X7311642Y-133026D01*
X-36893953Y16738541D02*
X-38293953Y16738541D01*
X-36893953Y13538541D02*
X-38293953Y13538541D01*
X-36893953Y16738541D02*
X-36893953Y13538541D01*
X-38293953Y13538541D02*
X-38293953Y16738541D01*
X-38621153Y16738541D02*
X-40021153Y16738541D01*
X-38621153Y13538541D02*
X-40021153Y13538541D01*
X-38621153Y16738541D02*
X-38621153Y13538541D01*
X-40021153Y13538541D02*
X-40021153Y16738541D01*
X4286042Y-133026D02*
X5686042Y-133026D01*
X4286042Y3066974D02*
X5686042Y3066974D01*
X4286042Y-133026D02*
X4286042Y3066974D01*
X5686042Y3066974D02*
X5686042Y-133026D01*
X-45918024Y-386575D02*
X-45918024Y1013425D01*
X-49118024Y-386575D02*
X-49118024Y1013425D01*
X-45918024Y-386575D02*
X-49118024Y-386575D01*
X-49118024Y1013425D02*
X-45918024Y1013425D01*
X-30200400Y15130400D02*
X-30200400Y13730400D01*
X-27000400Y15130400D02*
X-27000400Y13730400D01*
X-30200400Y15130400D02*
X-27000400Y15130400D01*
X-27000400Y13730400D02*
X-30200400Y13730400D01*
X-30200400Y11879200D02*
X-30200400Y10479200D01*
X-27000400Y11879200D02*
X-27000400Y10479200D01*
X-30200400Y11879200D02*
X-27000400Y11879200D01*
X-27000400Y10479200D02*
X-30200400Y10479200D01*
X-41799153Y13538541D02*
X-40399153Y13538541D01*
X-41799153Y16738541D02*
X-40399153Y16738541D01*
X-41799153Y13538541D02*
X-41799153Y16738541D01*
X-40399153Y16738541D02*
X-40399153Y13538541D01*
X34509711Y-9804605D02*
X34509711Y-11204605D01*
X37709711Y-9804605D02*
X37709711Y-11204605D01*
X34509711Y-9804605D02*
X37709711Y-9804605D01*
X37709711Y-11204605D02*
X34509711Y-11204605D01*
X34509711Y-11430205D02*
X34509711Y-12830205D01*
X37709711Y-11430205D02*
X37709711Y-12830205D01*
X34509711Y-11430205D02*
X37709711Y-11430205D01*
X37709711Y-12830205D02*
X34509711Y-12830205D01*
X-23712400Y-1720777D02*
X-22312400Y-1720777D01*
X-23712400Y1479223D02*
X-22312400Y1479223D01*
X-23712400Y-1720777D02*
X-23712400Y1479223D01*
X-22312400Y1479223D02*
X-22312400Y-1720777D01*
X-1411200Y13360600D02*
X-11200Y13360600D01*
X-1411200Y16560600D02*
X-11200Y16560600D01*
X-1411200Y13360600D02*
X-1411200Y16560600D01*
X-11200Y16560600D02*
X-11200Y13360600D01*
X-29343310Y-11989514D02*
X-29343310Y-10589514D01*
X-32543310Y-11989514D02*
X-32543310Y-10589514D01*
X-29343310Y-11989514D02*
X-32543310Y-11989514D01*
X-32543310Y-10589514D02*
X-29343310Y-10589514D01*
X-29343310Y-8484314D02*
X-29343310Y-7084314D01*
X-32543310Y-8484314D02*
X-32543310Y-7084314D01*
X-29343310Y-8484314D02*
X-32543310Y-8484314D01*
X-32543310Y-7084314D02*
X-29343310Y-7084314D01*
X-38150600Y-5015000D02*
X-38150600Y-6415000D01*
X-34950600Y-5015000D02*
X-34950600Y-6415000D01*
X-38150600Y-5015000D02*
X-34950600Y-5015000D01*
X-34950600Y-6415000D02*
X-38150600Y-6415000D01*
X-39943000Y-8508800D02*
X-38543000Y-8508800D01*
X-39943000Y-5308800D02*
X-38543000Y-5308800D01*
X-39943000Y-8508800D02*
X-39943000Y-5308800D01*
X-38543000Y-5308800D02*
X-38543000Y-8508800D01*
X-28757181Y5848423D02*
X-27357181Y5848423D01*
X-28757181Y9048423D02*
X-27357181Y9048423D01*
X-28757181Y5848423D02*
X-28757181Y9048423D01*
X-27357181Y9048423D02*
X-27357181Y5848423D01*
X-30505200Y5475200D02*
X-30505200Y4075200D01*
X-27305200Y5475200D02*
X-27305200Y4075200D01*
X-30505200Y5475200D02*
X-27305200Y5475200D01*
X-27305200Y4075200D02*
X-30505200Y4075200D01*
D16*
X11446469Y-19021829D02*
X11446469Y-18921829D01*
X11446469Y-15521829D02*
X11446469Y-15621829D01*
X16346469Y-15621829D02*
X16346469Y-15521829D01*
X16346469Y-19021829D02*
X16346469Y-18921829D01*
X16346469Y-17621829D02*
X16346469Y-16921829D01*
X11446469Y-17621829D02*
X11446469Y-16921829D01*
X11446469Y-19021829D02*
X16346469Y-19021829D01*
X16346469Y-15521829D02*
X11446469Y-15521829D01*
X16013600Y16823000D02*
X16013600Y16723000D01*
X16013600Y13323000D02*
X16013600Y13423000D01*
X11113600Y13423000D02*
X11113600Y13323000D01*
X11113600Y16823000D02*
X11113600Y16723000D01*
X11113600Y15423000D02*
X11113600Y14723000D01*
X16013600Y15423000D02*
X16013600Y14723000D01*
X16013600Y16823000D02*
X11113600Y16823000D01*
X11113600Y13323000D02*
X16013600Y13323000D01*
D11*
X-3942862Y6557856D02*
G75*
G03X-3942862Y6557856I-70711J0D01*
G01*
D15*
X-3200400Y-3730547D02*
X1749347Y1219200D01*
X-8150147Y1219200D02*
X-3200400Y6168947D01*
X-3200400Y6168947D02*
X1749347Y1219200D01*
X-8150147Y1219200D02*
X-3200400Y-3730547D01*
D16*
X-9718642Y12886208D02*
X-9718642Y14686208D01*
X-12938642Y14686208D02*
X-12938642Y12236208D01*
D11*
X-27397489Y-12123400D02*
G75*
G03X-27397489Y-12123400I-70711J0D01*
G01*
D15*
X-27418200Y-10923400D02*
X-22518200Y-10923400D01*
X-22518200Y-10923400D02*
X-22518200Y-7923400D01*
X-22518200Y-7923400D02*
X-27418200Y-7923400D01*
X-27418200Y-7923400D02*
X-27418200Y-10923400D01*
X-37522283Y10540733D02*
X-37122283Y10540733D01*
X-37122283Y10540733D02*
X-37122283Y10140733D01*
X-37522283Y7540733D02*
X-37122283Y7540733D01*
X-37122283Y7540733D02*
X-37122283Y7940733D01*
X-40122283Y7940733D02*
X-40122283Y7540733D01*
X-40122283Y7540733D02*
X-39722283Y7540733D01*
D11*
X-40551572Y10340733D02*
G75*
G03X-40551572Y10340733I-70711J0D01*
G01*
D15*
X-39722283Y10540733D02*
X-40122283Y10540733D01*
X-40122283Y10540733D02*
X-40122283Y10140733D01*
D11*
X26936311Y-14162400D02*
G75*
G03X26936311Y-14162400I-70711J0D01*
G01*
D15*
X28065600Y-14212400D02*
X28065600Y-19112400D01*
X28065600Y-19112400D02*
X31065600Y-19112400D01*
X31065600Y-19112400D02*
X31065600Y-14212400D01*
X31065600Y-14212400D02*
X28065600Y-14212400D01*
X-22102181Y4695223D02*
X-22102181Y6895223D01*
X-26352181Y3920223D02*
X-26352181Y6895223D01*
X-34877810Y-7174214D02*
X-37027810Y-7174214D01*
X-34052810Y-9424214D02*
X-37027810Y-9424214D01*
X23627793Y-663001D02*
G75*
G03X23627793Y-663001I-141421J0D01*
G01*
X28286372Y-263001D02*
X23086372Y-263001D01*
X28286372Y-4063001D02*
X28286372Y-263001D01*
X23086372Y-4063001D02*
X28286372Y-4063001D01*
X23086372Y-263001D02*
X23086372Y-4063001D01*
X-4897083Y8865623D02*
X-4189977Y8158517D01*
X-3836423Y9926283D02*
X-3129317Y9219177D01*
X24727600Y-15841600D02*
X24727600Y-14841600D01*
X23227600Y-15841600D02*
X23227600Y-14841600D01*
X24315800Y824800D02*
X25315800Y824800D01*
X24315800Y2324800D02*
X25315800Y2324800D01*
X-8624800Y6125576D02*
X-7224800Y6125576D01*
X-8624800Y9325576D02*
X-7224800Y9325576D01*
X-8624800Y6125576D02*
X-8624800Y9325576D01*
X-7224800Y9325576D02*
X-7224800Y6125576D01*
X29590800Y-13501600D02*
X29590800Y-12101600D01*
X26390800Y-13501600D02*
X26390800Y-12101600D01*
X29590800Y-13501600D02*
X26390800Y-13501600D01*
X26390800Y-12101600D02*
X29590800Y-12101600D01*
X35904400Y-13487600D02*
X34504400Y-13487600D01*
X35904400Y-16687600D02*
X34504400Y-16687600D01*
X35904400Y-13487600D02*
X35904400Y-16687600D01*
X34504400Y-16687600D02*
X34504400Y-13487600D01*
X21463200Y4433800D02*
X21463200Y3033800D01*
X24663200Y4433800D02*
X24663200Y3033800D01*
X21463200Y4433800D02*
X24663200Y4433800D01*
X24663200Y3033800D02*
X21463200Y3033800D01*
X22036000Y-699600D02*
X20636000Y-699600D01*
X22036000Y-3899600D02*
X20636000Y-3899600D01*
X22036000Y-699600D02*
X22036000Y-3899600D01*
X20636000Y-3899600D02*
X20636000Y-699600D01*
X28143000Y3033800D02*
X28143000Y4433800D01*
X24943000Y3033800D02*
X24943000Y4433800D01*
X28143000Y3033800D02*
X24943000Y3033800D01*
X24943000Y4433800D02*
X28143000Y4433800D01*
X24750800Y-8139600D02*
X26150800Y-8139600D01*
X24750800Y-4939600D02*
X26150800Y-4939600D01*
X24750800Y-8139600D02*
X24750800Y-4939600D01*
X26150800Y-4939600D02*
X26150800Y-8139600D01*
X29591200Y1208000D02*
X29591200Y-192000D01*
X32791200Y1208000D02*
X32791200Y-192000D01*
X29591200Y1208000D02*
X32791200Y1208000D01*
X32791200Y-192000D02*
X29591200Y-192000D01*
X29604370Y-449402D02*
X29604370Y-1849402D01*
X32804370Y-449402D02*
X32804370Y-1849402D01*
X29604370Y-449402D02*
X32804370Y-449402D01*
X32804370Y-1849402D02*
X29604370Y-1849402D01*
X33350000Y-13501600D02*
X33350000Y-12101600D01*
X30150000Y-13501600D02*
X30150000Y-12101600D01*
X33350000Y-13501600D02*
X30150000Y-13501600D01*
X30150000Y-12101600D02*
X33350000Y-12101600D01*
X24423600Y-4939600D02*
X23023600Y-4939600D01*
X24423600Y-8139600D02*
X23023600Y-8139600D01*
X24423600Y-4939600D02*
X24423600Y-8139600D01*
X23023600Y-8139600D02*
X23023600Y-4939600D01*
X22086800Y-4939600D02*
X20686800Y-4939600D01*
X22086800Y-8139600D02*
X20686800Y-8139600D01*
X22086800Y-4939600D02*
X22086800Y-8139600D01*
X20686800Y-8139600D02*
X20686800Y-4939600D01*
X-29743600Y-4446500D02*
X-29743600Y-3046500D01*
X-32943600Y-4446500D02*
X-32943600Y-3046500D01*
X-29743600Y-4446500D02*
X-32943600Y-4446500D01*
X-32943600Y-3046500D02*
X-29743600Y-3046500D01*
X31040300Y-2210000D02*
X29640300Y-2210000D01*
X31040300Y-5410000D02*
X29640300Y-5410000D01*
X31040300Y-2210000D02*
X31040300Y-5410000D01*
X29640300Y-5410000D02*
X29640300Y-2210000D01*
X-34961200Y3381000D02*
X-34961200Y-2619000D01*
X-34961200Y3381000D02*
X-29961200Y3381000D01*
X-29961200Y3381000D02*
X-29961200Y-2619000D01*
X-29961200Y-2619000D02*
X-34961200Y-2619000D01*
D11*
X-43846089Y9911600D02*
G75*
G03X-43846089Y9911600I-70711J0D01*
G01*
D15*
X-46524800Y4365600D02*
X-44974800Y4365600D01*
X-44974800Y4365600D02*
X-44974800Y4915600D01*
X-46524800Y11965600D02*
X-44974800Y11965600D01*
X-44974800Y11965600D02*
X-44974800Y11415600D01*
X-48724800Y4365600D02*
X-49824800Y4365600D01*
X-49824800Y11965600D02*
X-48724800Y11965600D01*
X-49824800Y11965600D02*
X-49824800Y4365600D01*
X-11531500Y-9437500D02*
X-10131500Y-9437500D01*
X-10131500Y-8537500D02*
X-10131500Y-9437500D01*
X-10131500Y-6437500D02*
X-10131500Y-7437500D01*
X-11531500Y-6437500D02*
X-10131500Y-6437500D01*
X-11531500Y-7537500D02*
X-11531500Y-8337500D01*
X-9449000Y-11685500D02*
X-9449000Y-10285500D01*
X-12649000Y-11685500D02*
X-12649000Y-10285500D01*
X-9449000Y-11685500D02*
X-12649000Y-11685500D01*
X-12649000Y-10285500D02*
X-9449000Y-10285500D01*
D16*
X37941600Y-8903200D02*
X36291600Y-8903200D01*
X36291600Y-8903200D02*
X36291600Y-7053200D01*
X36291600Y-7053200D02*
X35501600Y-7053200D01*
X37941600Y3416800D02*
X36291600Y3416800D01*
X36291600Y3416800D02*
X36291600Y1566800D01*
X40911600Y-7583200D02*
X40911600Y2096800D01*
M02*
