G04 #@! TF.FileFunction,Paste,Bot*
%FSLAX46Y46*%
G04 Gerber Fmt 4.6, Leading zero omitted, Abs format (unit mm)*
G04 Created by KiCad (PCBNEW 4.0.7-e2-6376~58~ubuntu16.04.1) date Tue Jun 19 08:51:36 2018*
%MOMM*%
%LPD*%
G01*
G04 APERTURE LIST*
%ADD10C,0.100000*%
%ADD11R,0.900684X1.799082*%
%ADD12R,1.348740X0.628650*%
%ADD13R,1.259586X1.618488*%
%ADD14R,1.709928X1.259586*%
%ADD15R,1.143000X3.780000*%
%ADD16R,0.360000X1.710000*%
%ADD17R,1.710000X0.360000*%
%ADD18R,4.050000X2.070000*%
G04 APERTURE END LIST*
D10*
D11*
X24925020Y-3175000D03*
X23426420Y-3175000D03*
X21925280Y-3175000D03*
X20426680Y-3175000D03*
X18925540Y-3175000D03*
X17426940Y-3175000D03*
X15925800Y-3175000D03*
X14427200Y-3175000D03*
X12926060Y-3175000D03*
X11427460Y-3175000D03*
X11427460Y12827000D03*
X12926060Y12827000D03*
X14427200Y12827000D03*
X15925800Y12827000D03*
X17426940Y12827000D03*
X18925540Y12827000D03*
X20426680Y12827000D03*
X21925280Y12827000D03*
X23426420Y12827000D03*
X24925020Y12827000D03*
D12*
X-44246800Y-6690360D03*
X-43848020Y-7790180D03*
X-44246800Y-8890000D03*
X-44648120Y-9989820D03*
X-44246800Y-11089640D03*
X-44648120Y-12192000D03*
X-44246800Y-13291820D03*
X-44246800Y-14391640D03*
D13*
X-34048700Y-13690600D03*
X-34048700Y-7691120D03*
D14*
X-47147480Y-15290800D03*
X-48049180Y-2090420D03*
D15*
X3037200Y14884400D03*
X8037200Y14884400D03*
D16*
X-22020530Y-17729200D03*
X-23036530Y-17729200D03*
X-24052531Y-17729200D03*
X-25068531Y-17729200D03*
X-26084530Y-17729200D03*
X-27100530Y-17729200D03*
X-28116530Y-17729200D03*
X-29132530Y-17729200D03*
X-18972530Y-17729200D03*
D17*
X-31802930Y-12009750D03*
X-31802930Y-13025750D03*
X-31802930Y-14041750D03*
X-31802930Y-15057750D03*
X-31802930Y-7945750D03*
X-31802930Y-5913747D03*
X-31802930Y-4897750D03*
X-31802930Y-3881750D03*
X-31802930Y-2865750D03*
X-17072660Y-14049970D03*
X-17072660Y-13033970D03*
X-17072660Y-12017970D03*
X-17072660Y-11001970D03*
X-17072660Y-9985970D03*
X-17072660Y-8969970D03*
X-17072660Y-7953970D03*
X-17072660Y-6937966D03*
X-17072660Y-5921966D03*
X-17072660Y-4905970D03*
D18*
X28316800Y-12090400D03*
X11916800Y-12090400D03*
M02*
