G04 #@! TF.GenerationSoftware,KiCad,Pcbnew,5.0.0-fee4fd1~66~ubuntu16.04.1*
G04 #@! TF.CreationDate,2018-08-27T17:11:34-07:00*
G04 #@! TF.ProjectId,fk-naturalist,666B2D6E61747572616C6973742E6B69,0.1*
G04 #@! TF.SameCoordinates,PX791ddc0PY791ddc0*
G04 #@! TF.FileFunction,Legend,Top*
G04 #@! TF.FilePolarity,Positive*
%FSLAX46Y46*%
G04 Gerber Fmt 4.6, Leading zero omitted, Abs format (unit mm)*
G04 Created by KiCad (PCBNEW 5.0.0-fee4fd1~66~ubuntu16.04.1) date Mon Aug 27 17:11:34 2018*
%MOMM*%
%LPD*%
G01*
G04 APERTURE LIST*
%ADD10C,0.180000*%
%ADD11C,0.300000*%
%ADD12C,0.200000*%
%ADD13C,0.150000*%
%ADD14C,0.127000*%
%ADD15C,0.120000*%
%ADD16C,0.010000*%
G04 APERTURE END LIST*
D10*
X2817761Y-11847342D02*
X2865380Y-11704485D01*
X2865380Y-11466390D01*
X2817761Y-11371152D01*
X2770142Y-11323533D01*
X2674904Y-11275914D01*
X2579666Y-11275914D01*
X2484428Y-11323533D01*
X2436809Y-11371152D01*
X2389190Y-11466390D01*
X2341571Y-11656866D01*
X2293952Y-11752104D01*
X2246333Y-11799723D01*
X2151095Y-11847342D01*
X2055857Y-11847342D01*
X1960619Y-11799723D01*
X1913000Y-11752104D01*
X1865380Y-11656866D01*
X1865380Y-11418771D01*
X1913000Y-11275914D01*
X1865380Y-10942580D02*
X2865380Y-10704485D01*
X2151095Y-10514009D01*
X2865380Y-10323533D01*
X1865380Y-10085438D01*
X2865380Y-9704485D02*
X1865380Y-9704485D01*
X1865380Y-9466390D01*
X1913000Y-9323533D01*
X2008238Y-9228295D01*
X2103476Y-9180676D01*
X2293952Y-9133057D01*
X2436809Y-9133057D01*
X2627285Y-9180676D01*
X2722523Y-9228295D01*
X2817761Y-9323533D01*
X2865380Y-9466390D01*
X2865380Y-9704485D01*
X18560704Y-944500D02*
X18655942Y-992119D01*
X18798800Y-992119D01*
X18941657Y-944500D01*
X19036895Y-849261D01*
X19084514Y-754023D01*
X19132133Y-563547D01*
X19132133Y-420690D01*
X19084514Y-230214D01*
X19036895Y-134976D01*
X18941657Y-39738D01*
X18798800Y7881D01*
X18703561Y7881D01*
X18560704Y-39738D01*
X18513085Y-87357D01*
X18513085Y-420690D01*
X18703561Y-420690D01*
X18084514Y7881D02*
X18084514Y-992119D01*
X17703561Y-992119D01*
X17608323Y-944500D01*
X17560704Y-896880D01*
X17513085Y-801642D01*
X17513085Y-658785D01*
X17560704Y-563547D01*
X17608323Y-515928D01*
X17703561Y-468309D01*
X18084514Y-468309D01*
X17132133Y-39738D02*
X16989276Y7881D01*
X16751180Y7881D01*
X16655942Y-39738D01*
X16608323Y-87357D01*
X16560704Y-182595D01*
X16560704Y-277833D01*
X16608323Y-373071D01*
X16655942Y-420690D01*
X16751180Y-468309D01*
X16941657Y-515928D01*
X17036895Y-563547D01*
X17084514Y-611166D01*
X17132133Y-706404D01*
X17132133Y-801642D01*
X17084514Y-896880D01*
X17036895Y-944500D01*
X16941657Y-992119D01*
X16703561Y-992119D01*
X16560704Y-944500D01*
X16132133Y-373071D02*
X15370228Y-373071D01*
X14989276Y-992119D02*
X14322609Y-992119D01*
X14751180Y7881D01*
X14036895Y-992119D02*
X13417847Y-992119D01*
X13751180Y-611166D01*
X13608323Y-611166D01*
X13513085Y-563547D01*
X13465466Y-515928D01*
X13417847Y-420690D01*
X13417847Y-182595D01*
X13465466Y-87357D01*
X13513085Y-39738D01*
X13608323Y7881D01*
X13894038Y7881D01*
X13989276Y-39738D01*
X14036895Y-87357D01*
X12513085Y-992119D02*
X12989276Y-992119D01*
X13036895Y-515928D01*
X12989276Y-563547D01*
X12894038Y-611166D01*
X12655942Y-611166D01*
X12560704Y-563547D01*
X12513085Y-515928D01*
X12465466Y-420690D01*
X12465466Y-182595D01*
X12513085Y-87357D01*
X12560704Y-39738D01*
X12655942Y7881D01*
X12894038Y7881D01*
X12989276Y-39738D01*
X13036895Y-87357D01*
X20191361Y3697600D02*
X20238980Y3840458D01*
X20238980Y4078553D01*
X20191361Y4173791D01*
X20143742Y4221410D01*
X20048504Y4269029D01*
X19953266Y4269029D01*
X19858028Y4221410D01*
X19810409Y4173791D01*
X19762790Y4078553D01*
X19715171Y3888077D01*
X19667552Y3792839D01*
X19619933Y3745220D01*
X19524695Y3697600D01*
X19429457Y3697600D01*
X19334219Y3745220D01*
X19286600Y3792839D01*
X19238980Y3888077D01*
X19238980Y4126172D01*
X19286600Y4269029D01*
X19238980Y4602362D02*
X20238980Y4840458D01*
X19524695Y5030934D01*
X20238980Y5221410D01*
X19238980Y5459505D01*
X20238980Y5840458D02*
X19238980Y5840458D01*
X19238980Y6173791D02*
X19238980Y6745220D01*
X20238980Y6459505D02*
X19238980Y6459505D01*
X20143742Y7649981D02*
X20191361Y7602362D01*
X20238980Y7459505D01*
X20238980Y7364267D01*
X20191361Y7221410D01*
X20096123Y7126172D01*
X20000885Y7078553D01*
X19810409Y7030934D01*
X19667552Y7030934D01*
X19477076Y7078553D01*
X19381838Y7126172D01*
X19286600Y7221410D01*
X19238980Y7364267D01*
X19238980Y7459505D01*
X19286600Y7602362D01*
X19334219Y7649981D01*
X20238980Y8078553D02*
X19238980Y8078553D01*
X19715171Y8078553D02*
X19715171Y8649981D01*
X20238980Y8649981D02*
X19238980Y8649981D01*
X20800961Y-12888623D02*
X20848580Y-12745766D01*
X20848580Y-12507671D01*
X20800961Y-12412433D01*
X20753342Y-12364814D01*
X20658104Y-12317195D01*
X20562866Y-12317195D01*
X20467628Y-12364814D01*
X20420009Y-12412433D01*
X20372390Y-12507671D01*
X20324771Y-12698147D01*
X20277152Y-12793385D01*
X20229533Y-12841004D01*
X20134295Y-12888623D01*
X20039057Y-12888623D01*
X19943819Y-12841004D01*
X19896200Y-12793385D01*
X19848580Y-12698147D01*
X19848580Y-12460052D01*
X19896200Y-12317195D01*
X20324771Y-11888623D02*
X20324771Y-11555290D01*
X20848580Y-11412433D02*
X20848580Y-11888623D01*
X19848580Y-11888623D01*
X19848580Y-11412433D01*
X20848580Y-10412433D02*
X20372390Y-10745766D01*
X20848580Y-10983861D02*
X19848580Y-10983861D01*
X19848580Y-10602909D01*
X19896200Y-10507671D01*
X19943819Y-10460052D01*
X20039057Y-10412433D01*
X20181914Y-10412433D01*
X20277152Y-10460052D01*
X20324771Y-10507671D01*
X20372390Y-10602909D01*
X20372390Y-10983861D01*
X20848580Y-9983861D02*
X19848580Y-9983861D01*
X20562866Y-9555290D02*
X20562866Y-9079100D01*
X20848580Y-9650528D02*
X19848580Y-9317195D01*
X20848580Y-8983861D01*
X20848580Y-8174338D02*
X20848580Y-8650528D01*
X19848580Y-8650528D01*
X-41886239Y-3539857D02*
X-41838620Y-3397000D01*
X-41838620Y-3158904D01*
X-41886239Y-3063666D01*
X-41933858Y-3016047D01*
X-42029096Y-2968428D01*
X-42124334Y-2968428D01*
X-42219572Y-3016047D01*
X-42267191Y-3063666D01*
X-42314810Y-3158904D01*
X-42362429Y-3349380D01*
X-42410048Y-3444619D01*
X-42457667Y-3492238D01*
X-42552905Y-3539857D01*
X-42648143Y-3539857D01*
X-42743381Y-3492238D01*
X-42791000Y-3444619D01*
X-42838620Y-3349380D01*
X-42838620Y-3111285D01*
X-42791000Y-2968428D01*
X-42838620Y-2349380D02*
X-42838620Y-2158904D01*
X-42791000Y-2063666D01*
X-42695762Y-1968428D01*
X-42505286Y-1920809D01*
X-42171953Y-1920809D01*
X-41981477Y-1968428D01*
X-41886239Y-2063666D01*
X-41838620Y-2158904D01*
X-41838620Y-2349380D01*
X-41886239Y-2444619D01*
X-41981477Y-2539857D01*
X-42171953Y-2587476D01*
X-42505286Y-2587476D01*
X-42695762Y-2539857D01*
X-42791000Y-2444619D01*
X-42838620Y-2349380D01*
X-41838620Y-1016047D02*
X-41838620Y-1492238D01*
X-42838620Y-1492238D01*
X-42124334Y-730333D02*
X-42124334Y-254142D01*
X-41838620Y-825571D02*
X-42838620Y-492238D01*
X-41838620Y-158904D01*
X-41838620Y745858D02*
X-42314810Y412524D01*
X-41838620Y174429D02*
X-42838620Y174429D01*
X-42838620Y555381D01*
X-42791000Y650620D01*
X-42743381Y698239D01*
X-42648143Y745858D01*
X-42505286Y745858D01*
X-42410048Y698239D01*
X-42362429Y650620D01*
X-42314810Y555381D01*
X-42314810Y174429D01*
X-42362429Y-11660047D02*
X-42314810Y-11517190D01*
X-42267191Y-11469571D01*
X-42171953Y-11421952D01*
X-42029096Y-11421952D01*
X-41933858Y-11469571D01*
X-41886239Y-11517190D01*
X-41838620Y-11612428D01*
X-41838620Y-11993380D01*
X-42838620Y-11993380D01*
X-42838620Y-11660047D01*
X-42791000Y-11564809D01*
X-42743381Y-11517190D01*
X-42648143Y-11469571D01*
X-42552905Y-11469571D01*
X-42457667Y-11517190D01*
X-42410048Y-11564809D01*
X-42362429Y-11660047D01*
X-42362429Y-11993380D01*
X-42124334Y-11041000D02*
X-42124334Y-10564809D01*
X-41838620Y-11136238D02*
X-42838620Y-10802904D01*
X-41838620Y-10469571D01*
X-42838620Y-10279095D02*
X-42838620Y-9707666D01*
X-41838620Y-9993380D02*
X-42838620Y-9993380D01*
X-42838620Y-9517190D02*
X-42838620Y-8945761D01*
X-41838620Y-9231476D02*
X-42838620Y-9231476D01*
X17743419Y17690886D02*
X16933895Y17690886D01*
X16838657Y17643267D01*
X16791038Y17595648D01*
X16743419Y17500410D01*
X16743419Y17309934D01*
X16791038Y17214696D01*
X16838657Y17167077D01*
X16933895Y17119458D01*
X17743419Y17119458D01*
X16791038Y16690886D02*
X16743419Y16548029D01*
X16743419Y16309934D01*
X16791038Y16214696D01*
X16838657Y16167077D01*
X16933895Y16119458D01*
X17029133Y16119458D01*
X17124371Y16167077D01*
X17171990Y16214696D01*
X17219609Y16309934D01*
X17267228Y16500410D01*
X17314847Y16595648D01*
X17362466Y16643267D01*
X17457704Y16690886D01*
X17552942Y16690886D01*
X17648180Y16643267D01*
X17695800Y16595648D01*
X17743419Y16500410D01*
X17743419Y16262315D01*
X17695800Y16119458D01*
X17267228Y15690886D02*
X17267228Y15357553D01*
X16743419Y15214696D02*
X16743419Y15690886D01*
X17743419Y15690886D01*
X17743419Y15214696D01*
X16743419Y14214696D02*
X17219609Y14548029D01*
X16743419Y14786124D02*
X17743419Y14786124D01*
X17743419Y14405172D01*
X17695800Y14309934D01*
X17648180Y14262315D01*
X17552942Y14214696D01*
X17410085Y14214696D01*
X17314847Y14262315D01*
X17267228Y14309934D01*
X17219609Y14405172D01*
X17219609Y14786124D01*
X6278619Y-16724380D02*
X6754809Y-16391047D01*
X6278619Y-16152952D02*
X7278619Y-16152952D01*
X7278619Y-16533904D01*
X7231000Y-16629142D01*
X7183380Y-16676761D01*
X7088142Y-16724380D01*
X6945285Y-16724380D01*
X6850047Y-16676761D01*
X6802428Y-16629142D01*
X6754809Y-16533904D01*
X6754809Y-16152952D01*
X6326238Y-17105333D02*
X6278619Y-17248190D01*
X6278619Y-17486285D01*
X6326238Y-17581523D01*
X6373857Y-17629142D01*
X6469095Y-17676761D01*
X6564333Y-17676761D01*
X6659571Y-17629142D01*
X6707190Y-17581523D01*
X6754809Y-17486285D01*
X6802428Y-17295809D01*
X6850047Y-17200571D01*
X6897666Y-17152952D01*
X6992904Y-17105333D01*
X7088142Y-17105333D01*
X7183380Y-17152952D01*
X7231000Y-17200571D01*
X7278619Y-17295809D01*
X7278619Y-17533904D01*
X7231000Y-17676761D01*
X7278619Y-17962476D02*
X7278619Y-18533904D01*
X6278619Y-18248190D02*
X7278619Y-18248190D01*
D11*
X-32593689Y-9347200D02*
G75*
G03X-32593689Y-9347200I-70711J0D01*
G01*
X26537511Y-13360400D02*
G75*
G03X26537511Y-13360400I-70711J0D01*
G01*
D10*
X-26284181Y-15746600D02*
X-25284181Y-15746600D01*
X-25284181Y-15984695D01*
X-25331800Y-16127552D01*
X-25427039Y-16222790D01*
X-25522277Y-16270409D01*
X-25712753Y-16318028D01*
X-25855610Y-16318028D01*
X-26046086Y-16270409D01*
X-26141324Y-16222790D01*
X-26236562Y-16127552D01*
X-26284181Y-15984695D01*
X-26284181Y-15746600D01*
X-25998467Y-16698980D02*
X-25998467Y-17175171D01*
X-26284181Y-16603742D02*
X-25284181Y-16937076D01*
X-26284181Y-17270409D01*
X-25284181Y-17460885D02*
X-25284181Y-18032314D01*
X-26284181Y-17746600D02*
X-25284181Y-17746600D01*
X-25998467Y-18318028D02*
X-25998467Y-18794219D01*
X-26284181Y-18222790D02*
X-25284181Y-18556123D01*
X-26284181Y-18889457D01*
X-34901143Y-16010095D02*
X-34948762Y-15962476D01*
X-34996381Y-15819619D01*
X-34996381Y-15724380D01*
X-34948762Y-15581523D01*
X-34853524Y-15486285D01*
X-34758286Y-15438666D01*
X-34567810Y-15391047D01*
X-34424953Y-15391047D01*
X-34234477Y-15438666D01*
X-34139239Y-15486285D01*
X-34044000Y-15581523D01*
X-33996381Y-15724380D01*
X-33996381Y-15819619D01*
X-34044000Y-15962476D01*
X-34091620Y-16010095D01*
X-33996381Y-16629142D02*
X-33996381Y-16819619D01*
X-34044000Y-16914857D01*
X-34139239Y-17010095D01*
X-34329715Y-17057714D01*
X-34663048Y-17057714D01*
X-34853524Y-17010095D01*
X-34948762Y-16914857D01*
X-34996381Y-16819619D01*
X-34996381Y-16629142D01*
X-34948762Y-16533904D01*
X-34853524Y-16438666D01*
X-34663048Y-16391047D01*
X-34329715Y-16391047D01*
X-34139239Y-16438666D01*
X-34044000Y-16533904D01*
X-33996381Y-16629142D01*
X-34996381Y-17486285D02*
X-33996381Y-17486285D01*
X-34996381Y-18057714D01*
X-33996381Y-18057714D01*
X-34996381Y-18533904D02*
X-33996381Y-18533904D01*
X-34996381Y-19105333D01*
X-33996381Y-19105333D01*
D12*
X20899428Y16675029D02*
X20899428Y17008362D01*
X20375619Y17008362D02*
X21375619Y17008362D01*
X21375619Y16532172D01*
X20375619Y16151220D02*
X21375619Y16151220D01*
X21375619Y15770267D02*
X20375619Y15103600D01*
X21375619Y15103600D02*
X20375619Y15770267D01*
X-45339239Y16689415D02*
X-45577334Y17356081D01*
X-45815429Y16689415D01*
X-46386858Y16356081D02*
X-46482096Y16356081D01*
X-46577334Y16403700D01*
X-46624953Y16451320D01*
X-46672572Y16546558D01*
X-46720191Y16737034D01*
X-46720191Y16975129D01*
X-46672572Y17165605D01*
X-46624953Y17260843D01*
X-46577334Y17308462D01*
X-46482096Y17356081D01*
X-46386858Y17356081D01*
X-46291620Y17308462D01*
X-46244000Y17260843D01*
X-46196381Y17165605D01*
X-46148762Y16975129D01*
X-46148762Y16737034D01*
X-46196381Y16546558D01*
X-46244000Y16451320D01*
X-46291620Y16403700D01*
X-46386858Y16356081D01*
X-47148762Y17260843D02*
X-47196381Y17308462D01*
X-47148762Y17356081D01*
X-47101143Y17308462D01*
X-47148762Y17260843D01*
X-47148762Y17356081D01*
X-48148762Y17356081D02*
X-47577334Y17356081D01*
X-47863048Y17356081D02*
X-47863048Y16356081D01*
X-47767810Y16498939D01*
X-47672572Y16594177D01*
X-47577334Y16641796D01*
X-48767810Y16356081D02*
X-48863048Y16356081D01*
X-48958286Y16403700D01*
X-49005905Y16451320D01*
X-49053524Y16546558D01*
X-49101143Y16737034D01*
X-49101143Y16975129D01*
X-49053524Y17165605D01*
X-49005905Y17260843D01*
X-48958286Y17308462D01*
X-48863048Y17356081D01*
X-48767810Y17356081D01*
X-48672572Y17308462D01*
X-48624953Y17260843D01*
X-48577334Y17165605D01*
X-48529715Y16975129D01*
X-48529715Y16737034D01*
X-48577334Y16546558D01*
X-48624953Y16451320D01*
X-48672572Y16403700D01*
X-48767810Y16356081D01*
X-30608543Y13188886D02*
X-30656162Y13236505D01*
X-30703781Y13379362D01*
X-30703781Y13474600D01*
X-30656162Y13617458D01*
X-30560924Y13712696D01*
X-30465686Y13760315D01*
X-30275210Y13807934D01*
X-30132353Y13807934D01*
X-29941877Y13760315D01*
X-29846639Y13712696D01*
X-29751400Y13617458D01*
X-29703781Y13474600D01*
X-29703781Y13379362D01*
X-29751400Y13236505D01*
X-29799020Y13188886D01*
X-30703781Y12760315D02*
X-29703781Y12760315D01*
X-30179972Y12760315D02*
X-30179972Y12188886D01*
X-30703781Y12188886D02*
X-29703781Y12188886D01*
X-29751400Y11188886D02*
X-29703781Y11284124D01*
X-29703781Y11426981D01*
X-29751400Y11569839D01*
X-29846639Y11665077D01*
X-29941877Y11712696D01*
X-30132353Y11760315D01*
X-30275210Y11760315D01*
X-30465686Y11712696D01*
X-30560924Y11665077D01*
X-30656162Y11569839D01*
X-30703781Y11426981D01*
X-30703781Y11331743D01*
X-30656162Y11188886D01*
X-30608543Y11141267D01*
X-30275210Y11141267D01*
X-30275210Y11331743D01*
X-30703781Y16995705D02*
X-29703781Y16995705D01*
X-29703781Y16614753D01*
X-29751400Y16519515D01*
X-29799020Y16471896D01*
X-29894258Y16424277D01*
X-30037115Y16424277D01*
X-30132353Y16471896D01*
X-30179972Y16519515D01*
X-30227591Y16614753D01*
X-30227591Y16995705D01*
X-29751400Y15471896D02*
X-29703781Y15567134D01*
X-29703781Y15709991D01*
X-29751400Y15852848D01*
X-29846639Y15948086D01*
X-29941877Y15995705D01*
X-30132353Y16043324D01*
X-30275210Y16043324D01*
X-30465686Y15995705D01*
X-30560924Y15948086D01*
X-30656162Y15852848D01*
X-30703781Y15709991D01*
X-30703781Y15614753D01*
X-30656162Y15471896D01*
X-30608543Y15424277D01*
X-30275210Y15424277D01*
X-30275210Y15614753D01*
X39425619Y16873386D02*
X40425619Y16873386D01*
X40425619Y16635291D01*
X40378000Y16492434D01*
X40282761Y16397196D01*
X40187523Y16349577D01*
X39997047Y16301958D01*
X39854190Y16301958D01*
X39663714Y16349577D01*
X39568476Y16397196D01*
X39473238Y16492434D01*
X39425619Y16635291D01*
X39425619Y16873386D01*
X39425619Y15349577D02*
X39425619Y15921005D01*
X39425619Y15635291D02*
X40425619Y15635291D01*
X40282761Y15730529D01*
X40187523Y15825767D01*
X40139904Y15921005D01*
X40425619Y15016243D02*
X40425619Y14397196D01*
X40044666Y14730529D01*
X40044666Y14587672D01*
X39997047Y14492434D01*
X39949428Y14444815D01*
X39854190Y14397196D01*
X39616095Y14397196D01*
X39520857Y14444815D01*
X39473238Y14492434D01*
X39425619Y14587672D01*
X39425619Y14873386D01*
X39473238Y14968624D01*
X39520857Y15016243D01*
D13*
G04 #@! TO.C,J9*
X-52758500Y12245000D02*
X-52758500Y4645000D01*
X-52758500Y12245000D02*
X-51658500Y12245000D01*
X-51658500Y4645000D02*
X-52758500Y4645000D01*
X-47908500Y12245000D02*
X-47908500Y11695000D01*
X-49458500Y12245000D02*
X-47908500Y12245000D01*
X-47908500Y4645000D02*
X-47908500Y5195000D01*
X-49458500Y4645000D02*
X-47908500Y4645000D01*
D11*
X-46779789Y10191000D02*
G75*
G03X-46779789Y10191000I-70711J0D01*
G01*
D13*
G04 #@! TO.C,J10*
X-46639000Y-7312000D02*
X-46639000Y-8562000D01*
X-46639000Y-13612000D02*
X-46639000Y-12362000D01*
X-45039000Y-6512000D02*
X-48489000Y-6512000D01*
X-45039000Y-7312000D02*
X-45039000Y-6512000D01*
X-46639000Y-7312000D02*
X-45039000Y-7312000D01*
X-52639000Y-8162000D02*
X-52639000Y-12762000D01*
X-45039000Y-14412000D02*
X-48489000Y-14412000D01*
X-45039000Y-13612000D02*
X-45039000Y-14412000D01*
X-46639000Y-13612000D02*
X-45039000Y-13612000D01*
G04 #@! TO.C,J3*
X-46639000Y1769000D02*
X-46639000Y519000D01*
X-46639000Y-4531000D02*
X-46639000Y-3281000D01*
X-45039000Y2569000D02*
X-48489000Y2569000D01*
X-45039000Y1769000D02*
X-45039000Y2569000D01*
X-46639000Y1769000D02*
X-45039000Y1769000D01*
X-52639000Y919000D02*
X-52639000Y-3681000D01*
X-45039000Y-5331000D02*
X-48489000Y-5331000D01*
X-45039000Y-4531000D02*
X-45039000Y-5331000D01*
X-46639000Y-4531000D02*
X-45039000Y-4531000D01*
G04 #@! TO.C,C16*
X-6226802Y-15690022D02*
X-7626802Y-15690022D01*
X-6226802Y-18890022D02*
X-7626802Y-18890022D01*
X-6226802Y-15690022D02*
X-6226802Y-18890022D01*
X-7626802Y-18890022D02*
X-7626802Y-15690022D01*
D14*
G04 #@! TO.C,M7*
X-52227480Y-1714500D02*
X-52227480Y-716280D01*
X-51528980Y-14714220D02*
X-51528980Y-13716000D01*
D15*
G04 #@! TO.C,J5*
X19230200Y-10128600D02*
X19230200Y-8328600D01*
X19230200Y-8328600D02*
X17380200Y-8328600D01*
X17380200Y-8328600D02*
X17380200Y-7588600D01*
X11910200Y-10128600D02*
X11910200Y-8328600D01*
X11910200Y-8328600D02*
X13760200Y-8328600D01*
X19230200Y-13448600D02*
X19230200Y-13998600D01*
X19230200Y-13998600D02*
X11910200Y-13998600D01*
X11910200Y-13998600D02*
X11910200Y-13448600D01*
D16*
G04 #@! TO.C,G\002A\002A\002A*
G36*
X35045792Y-981589D02*
X35100225Y-985586D01*
X35147746Y-992361D01*
X35173146Y-998294D01*
X35257454Y-1029698D01*
X35333214Y-1072554D01*
X35399750Y-1126245D01*
X35456390Y-1190151D01*
X35502456Y-1263653D01*
X35530147Y-1325992D01*
X35550030Y-1385613D01*
X35564458Y-1445224D01*
X35574292Y-1509361D01*
X35580392Y-1582558D01*
X35581016Y-1594169D01*
X35585821Y-1689100D01*
X34812755Y-1689100D01*
X34817667Y-1709057D01*
X34834382Y-1750663D01*
X34862133Y-1790828D01*
X34897642Y-1825725D01*
X34937626Y-1851527D01*
X34941284Y-1853251D01*
X34998452Y-1871583D01*
X35059110Y-1876808D01*
X35121310Y-1869276D01*
X35183101Y-1849336D01*
X35242534Y-1817336D01*
X35275074Y-1793455D01*
X35314956Y-1760968D01*
X35423871Y-1852338D01*
X35457385Y-1880712D01*
X35486719Y-1906044D01*
X35510179Y-1926828D01*
X35526069Y-1941559D01*
X35532693Y-1948732D01*
X35532785Y-1949028D01*
X35527655Y-1957164D01*
X35513892Y-1972391D01*
X35493937Y-1992415D01*
X35470230Y-2014946D01*
X35445212Y-2037691D01*
X35421323Y-2058357D01*
X35401005Y-2074652D01*
X35392631Y-2080658D01*
X35329979Y-2116095D01*
X35257587Y-2145573D01*
X35205544Y-2161141D01*
X35162092Y-2169638D01*
X35109350Y-2175822D01*
X35052376Y-2179448D01*
X34996229Y-2180270D01*
X34945968Y-2178043D01*
X34919839Y-2175001D01*
X34826775Y-2153735D01*
X34740228Y-2120511D01*
X34661290Y-2076002D01*
X34591050Y-2020883D01*
X34530598Y-1955828D01*
X34502347Y-1916712D01*
X34461264Y-1841718D01*
X34432152Y-1761276D01*
X34414729Y-1677115D01*
X34408717Y-1590966D01*
X34413837Y-1504559D01*
X34417345Y-1485900D01*
X34805257Y-1485900D01*
X35198957Y-1485900D01*
X35198957Y-1468030D01*
X35194720Y-1441983D01*
X35183516Y-1409925D01*
X35167600Y-1377049D01*
X35149232Y-1348548D01*
X35144451Y-1342634D01*
X35110657Y-1311269D01*
X35072131Y-1291939D01*
X35026162Y-1283473D01*
X35006166Y-1282860D01*
X34957117Y-1287437D01*
X34916885Y-1301611D01*
X34882463Y-1326559D01*
X34874593Y-1334428D01*
X34855136Y-1360106D01*
X34835857Y-1394027D01*
X34819775Y-1430199D01*
X34809911Y-1462631D01*
X34809883Y-1462769D01*
X34805257Y-1485900D01*
X34417345Y-1485900D01*
X34429807Y-1419624D01*
X34456349Y-1337893D01*
X34493183Y-1261094D01*
X34540029Y-1190960D01*
X34596607Y-1129218D01*
X34634818Y-1097143D01*
X34682900Y-1065234D01*
X34738936Y-1035136D01*
X34796697Y-1009920D01*
X34843357Y-994382D01*
X34883227Y-986766D01*
X34933071Y-982129D01*
X34988667Y-980420D01*
X35045792Y-981589D01*
X35045792Y-981589D01*
G37*
X35045792Y-981589D02*
X35100225Y-985586D01*
X35147746Y-992361D01*
X35173146Y-998294D01*
X35257454Y-1029698D01*
X35333214Y-1072554D01*
X35399750Y-1126245D01*
X35456390Y-1190151D01*
X35502456Y-1263653D01*
X35530147Y-1325992D01*
X35550030Y-1385613D01*
X35564458Y-1445224D01*
X35574292Y-1509361D01*
X35580392Y-1582558D01*
X35581016Y-1594169D01*
X35585821Y-1689100D01*
X34812755Y-1689100D01*
X34817667Y-1709057D01*
X34834382Y-1750663D01*
X34862133Y-1790828D01*
X34897642Y-1825725D01*
X34937626Y-1851527D01*
X34941284Y-1853251D01*
X34998452Y-1871583D01*
X35059110Y-1876808D01*
X35121310Y-1869276D01*
X35183101Y-1849336D01*
X35242534Y-1817336D01*
X35275074Y-1793455D01*
X35314956Y-1760968D01*
X35423871Y-1852338D01*
X35457385Y-1880712D01*
X35486719Y-1906044D01*
X35510179Y-1926828D01*
X35526069Y-1941559D01*
X35532693Y-1948732D01*
X35532785Y-1949028D01*
X35527655Y-1957164D01*
X35513892Y-1972391D01*
X35493937Y-1992415D01*
X35470230Y-2014946D01*
X35445212Y-2037691D01*
X35421323Y-2058357D01*
X35401005Y-2074652D01*
X35392631Y-2080658D01*
X35329979Y-2116095D01*
X35257587Y-2145573D01*
X35205544Y-2161141D01*
X35162092Y-2169638D01*
X35109350Y-2175822D01*
X35052376Y-2179448D01*
X34996229Y-2180270D01*
X34945968Y-2178043D01*
X34919839Y-2175001D01*
X34826775Y-2153735D01*
X34740228Y-2120511D01*
X34661290Y-2076002D01*
X34591050Y-2020883D01*
X34530598Y-1955828D01*
X34502347Y-1916712D01*
X34461264Y-1841718D01*
X34432152Y-1761276D01*
X34414729Y-1677115D01*
X34408717Y-1590966D01*
X34413837Y-1504559D01*
X34417345Y-1485900D01*
X34805257Y-1485900D01*
X35198957Y-1485900D01*
X35198957Y-1468030D01*
X35194720Y-1441983D01*
X35183516Y-1409925D01*
X35167600Y-1377049D01*
X35149232Y-1348548D01*
X35144451Y-1342634D01*
X35110657Y-1311269D01*
X35072131Y-1291939D01*
X35026162Y-1283473D01*
X35006166Y-1282860D01*
X34957117Y-1287437D01*
X34916885Y-1301611D01*
X34882463Y-1326559D01*
X34874593Y-1334428D01*
X34855136Y-1360106D01*
X34835857Y-1394027D01*
X34819775Y-1430199D01*
X34809911Y-1462631D01*
X34809883Y-1462769D01*
X34805257Y-1485900D01*
X34417345Y-1485900D01*
X34429807Y-1419624D01*
X34456349Y-1337893D01*
X34493183Y-1261094D01*
X34540029Y-1190960D01*
X34596607Y-1129218D01*
X34634818Y-1097143D01*
X34682900Y-1065234D01*
X34738936Y-1035136D01*
X34796697Y-1009920D01*
X34843357Y-994382D01*
X34883227Y-986766D01*
X34933071Y-982129D01*
X34988667Y-980420D01*
X35045792Y-981589D01*
G36*
X37483180Y-1377043D02*
X37485031Y-2149929D01*
X37278165Y-2147897D01*
X37071300Y-2145865D01*
X37071300Y-2006656D01*
X37020549Y-2054532D01*
X36993138Y-2078839D01*
X36964228Y-2101979D01*
X36938790Y-2120042D01*
X36931649Y-2124429D01*
X36867135Y-2153848D01*
X36796215Y-2172387D01*
X36722767Y-2179411D01*
X36650667Y-2174285D01*
X36639500Y-2172292D01*
X36556829Y-2149230D01*
X36481571Y-2113939D01*
X36414239Y-2066958D01*
X36355343Y-2008827D01*
X36305394Y-1940084D01*
X36264904Y-1861269D01*
X36234383Y-1772920D01*
X36225142Y-1735309D01*
X36216231Y-1677313D01*
X36212286Y-1611026D01*
X36213203Y-1541721D01*
X36218878Y-1474668D01*
X36229206Y-1415140D01*
X36231662Y-1405209D01*
X36241195Y-1372614D01*
X36253049Y-1337757D01*
X36266089Y-1303360D01*
X36279179Y-1272141D01*
X36291183Y-1246821D01*
X36300967Y-1230120D01*
X36307013Y-1224706D01*
X36312125Y-1230424D01*
X36324485Y-1246567D01*
X36343041Y-1271655D01*
X36366740Y-1304205D01*
X36394530Y-1342738D01*
X36425358Y-1385772D01*
X36458171Y-1431826D01*
X36491915Y-1479421D01*
X36525539Y-1527074D01*
X36557990Y-1573304D01*
X36588214Y-1616632D01*
X36615160Y-1655577D01*
X36637773Y-1688656D01*
X36653293Y-1711797D01*
X36680289Y-1752637D01*
X37068679Y-1942851D01*
X37138552Y-1977009D01*
X37204472Y-2009117D01*
X37265302Y-2038627D01*
X37319902Y-2064993D01*
X37367133Y-2087668D01*
X37405857Y-2106105D01*
X37434936Y-2119757D01*
X37453230Y-2128078D01*
X37459592Y-2130541D01*
X37456098Y-2124248D01*
X37445145Y-2107017D01*
X37427443Y-2079910D01*
X37403696Y-2043988D01*
X37374613Y-2000314D01*
X37340901Y-1949950D01*
X37303265Y-1893958D01*
X37262414Y-1833400D01*
X37224979Y-1778080D01*
X36987843Y-1428142D01*
X36692881Y-1275593D01*
X36632409Y-1244373D01*
X36575893Y-1215302D01*
X36524636Y-1189043D01*
X36479942Y-1166258D01*
X36443114Y-1147611D01*
X36415455Y-1133764D01*
X36398270Y-1125379D01*
X36392873Y-1123043D01*
X36383662Y-1129114D01*
X36367857Y-1146680D01*
X36346297Y-1174771D01*
X36337703Y-1186692D01*
X36324258Y-1203359D01*
X36313424Y-1212856D01*
X36309259Y-1213733D01*
X36302990Y-1206647D01*
X36290127Y-1189876D01*
X36272340Y-1165669D01*
X36251300Y-1136273D01*
X36243131Y-1124683D01*
X36219903Y-1091718D01*
X36198027Y-1060894D01*
X36179642Y-1035214D01*
X36166891Y-1017679D01*
X36164832Y-1014917D01*
X36158915Y-1006638D01*
X36156821Y-1001677D01*
X36159987Y-1000553D01*
X36169853Y-1003783D01*
X36187856Y-1011885D01*
X36215434Y-1025376D01*
X36254025Y-1044775D01*
X36269512Y-1052606D01*
X36392757Y-1114965D01*
X36414528Y-1094365D01*
X36450864Y-1065406D01*
X36496887Y-1037009D01*
X36547934Y-1011914D01*
X36570557Y-1002711D01*
X36593651Y-994345D01*
X36613583Y-988591D01*
X36634008Y-984961D01*
X36658584Y-982970D01*
X36690966Y-982130D01*
X36726585Y-981960D01*
X36769804Y-982240D01*
X36802098Y-983429D01*
X36827048Y-985925D01*
X36848234Y-990129D01*
X36869238Y-996440D01*
X36875357Y-998563D01*
X36927455Y-1021577D01*
X36979110Y-1052522D01*
X37024417Y-1087685D01*
X37038696Y-1101333D01*
X37067671Y-1131013D01*
X37071300Y-867585D01*
X37074928Y-604157D01*
X37481328Y-604157D01*
X37483180Y-1377043D01*
X37483180Y-1377043D01*
G37*
X37483180Y-1377043D02*
X37485031Y-2149929D01*
X37278165Y-2147897D01*
X37071300Y-2145865D01*
X37071300Y-2006656D01*
X37020549Y-2054532D01*
X36993138Y-2078839D01*
X36964228Y-2101979D01*
X36938790Y-2120042D01*
X36931649Y-2124429D01*
X36867135Y-2153848D01*
X36796215Y-2172387D01*
X36722767Y-2179411D01*
X36650667Y-2174285D01*
X36639500Y-2172292D01*
X36556829Y-2149230D01*
X36481571Y-2113939D01*
X36414239Y-2066958D01*
X36355343Y-2008827D01*
X36305394Y-1940084D01*
X36264904Y-1861269D01*
X36234383Y-1772920D01*
X36225142Y-1735309D01*
X36216231Y-1677313D01*
X36212286Y-1611026D01*
X36213203Y-1541721D01*
X36218878Y-1474668D01*
X36229206Y-1415140D01*
X36231662Y-1405209D01*
X36241195Y-1372614D01*
X36253049Y-1337757D01*
X36266089Y-1303360D01*
X36279179Y-1272141D01*
X36291183Y-1246821D01*
X36300967Y-1230120D01*
X36307013Y-1224706D01*
X36312125Y-1230424D01*
X36324485Y-1246567D01*
X36343041Y-1271655D01*
X36366740Y-1304205D01*
X36394530Y-1342738D01*
X36425358Y-1385772D01*
X36458171Y-1431826D01*
X36491915Y-1479421D01*
X36525539Y-1527074D01*
X36557990Y-1573304D01*
X36588214Y-1616632D01*
X36615160Y-1655577D01*
X36637773Y-1688656D01*
X36653293Y-1711797D01*
X36680289Y-1752637D01*
X37068679Y-1942851D01*
X37138552Y-1977009D01*
X37204472Y-2009117D01*
X37265302Y-2038627D01*
X37319902Y-2064993D01*
X37367133Y-2087668D01*
X37405857Y-2106105D01*
X37434936Y-2119757D01*
X37453230Y-2128078D01*
X37459592Y-2130541D01*
X37456098Y-2124248D01*
X37445145Y-2107017D01*
X37427443Y-2079910D01*
X37403696Y-2043988D01*
X37374613Y-2000314D01*
X37340901Y-1949950D01*
X37303265Y-1893958D01*
X37262414Y-1833400D01*
X37224979Y-1778080D01*
X36987843Y-1428142D01*
X36692881Y-1275593D01*
X36632409Y-1244373D01*
X36575893Y-1215302D01*
X36524636Y-1189043D01*
X36479942Y-1166258D01*
X36443114Y-1147611D01*
X36415455Y-1133764D01*
X36398270Y-1125379D01*
X36392873Y-1123043D01*
X36383662Y-1129114D01*
X36367857Y-1146680D01*
X36346297Y-1174771D01*
X36337703Y-1186692D01*
X36324258Y-1203359D01*
X36313424Y-1212856D01*
X36309259Y-1213733D01*
X36302990Y-1206647D01*
X36290127Y-1189876D01*
X36272340Y-1165669D01*
X36251300Y-1136273D01*
X36243131Y-1124683D01*
X36219903Y-1091718D01*
X36198027Y-1060894D01*
X36179642Y-1035214D01*
X36166891Y-1017679D01*
X36164832Y-1014917D01*
X36158915Y-1006638D01*
X36156821Y-1001677D01*
X36159987Y-1000553D01*
X36169853Y-1003783D01*
X36187856Y-1011885D01*
X36215434Y-1025376D01*
X36254025Y-1044775D01*
X36269512Y-1052606D01*
X36392757Y-1114965D01*
X36414528Y-1094365D01*
X36450864Y-1065406D01*
X36496887Y-1037009D01*
X36547934Y-1011914D01*
X36570557Y-1002711D01*
X36593651Y-994345D01*
X36613583Y-988591D01*
X36634008Y-984961D01*
X36658584Y-982970D01*
X36690966Y-982130D01*
X36726585Y-981960D01*
X36769804Y-982240D01*
X36802098Y-983429D01*
X36827048Y-985925D01*
X36848234Y-990129D01*
X36869238Y-996440D01*
X36875357Y-998563D01*
X36927455Y-1021577D01*
X36979110Y-1052522D01*
X37024417Y-1087685D01*
X37038696Y-1101333D01*
X37067671Y-1131013D01*
X37071300Y-867585D01*
X37074928Y-604157D01*
X37481328Y-604157D01*
X37483180Y-1377043D01*
G36*
X40059578Y-859972D02*
X40061543Y-1006929D01*
X40337286Y-1006929D01*
X40335336Y-1172029D01*
X40333385Y-1337129D01*
X40197314Y-1339103D01*
X40061243Y-1341078D01*
X40061243Y-1551735D01*
X40061348Y-1617538D01*
X40061836Y-1670418D01*
X40062970Y-1711967D01*
X40065009Y-1743776D01*
X40068214Y-1767436D01*
X40072847Y-1784538D01*
X40079167Y-1796673D01*
X40087435Y-1805434D01*
X40097913Y-1812410D01*
X40104548Y-1815977D01*
X40128410Y-1823141D01*
X40161684Y-1826406D01*
X40199809Y-1825786D01*
X40238220Y-1821300D01*
X40264443Y-1815415D01*
X40289660Y-1808349D01*
X40311404Y-1802490D01*
X40320685Y-1800140D01*
X40337014Y-1796265D01*
X40337014Y-2110813D01*
X40297844Y-2128136D01*
X40258724Y-2144065D01*
X40221754Y-2155651D01*
X40183098Y-2163623D01*
X40138921Y-2168704D01*
X40085388Y-2171622D01*
X40064871Y-2172238D01*
X40006925Y-2172874D01*
X39961378Y-2171400D01*
X39926258Y-2167723D01*
X39911561Y-2164931D01*
X39843426Y-2143276D01*
X39785612Y-2111465D01*
X39737845Y-2069240D01*
X39699853Y-2016340D01*
X39671364Y-1952509D01*
X39664436Y-1930522D01*
X39661192Y-1917168D01*
X39658496Y-1900689D01*
X39656278Y-1879560D01*
X39654464Y-1852255D01*
X39652981Y-1817251D01*
X39651757Y-1773020D01*
X39650719Y-1718039D01*
X39649793Y-1650781D01*
X39649379Y-1614715D01*
X39646379Y-1340757D01*
X39524214Y-1340757D01*
X39524214Y-1006929D01*
X39647285Y-1006929D01*
X39649249Y-859972D01*
X39651214Y-713015D01*
X40057614Y-713015D01*
X40059578Y-859972D01*
X40059578Y-859972D01*
G37*
X40059578Y-859972D02*
X40061543Y-1006929D01*
X40337286Y-1006929D01*
X40335336Y-1172029D01*
X40333385Y-1337129D01*
X40197314Y-1339103D01*
X40061243Y-1341078D01*
X40061243Y-1551735D01*
X40061348Y-1617538D01*
X40061836Y-1670418D01*
X40062970Y-1711967D01*
X40065009Y-1743776D01*
X40068214Y-1767436D01*
X40072847Y-1784538D01*
X40079167Y-1796673D01*
X40087435Y-1805434D01*
X40097913Y-1812410D01*
X40104548Y-1815977D01*
X40128410Y-1823141D01*
X40161684Y-1826406D01*
X40199809Y-1825786D01*
X40238220Y-1821300D01*
X40264443Y-1815415D01*
X40289660Y-1808349D01*
X40311404Y-1802490D01*
X40320685Y-1800140D01*
X40337014Y-1796265D01*
X40337014Y-2110813D01*
X40297844Y-2128136D01*
X40258724Y-2144065D01*
X40221754Y-2155651D01*
X40183098Y-2163623D01*
X40138921Y-2168704D01*
X40085388Y-2171622D01*
X40064871Y-2172238D01*
X40006925Y-2172874D01*
X39961378Y-2171400D01*
X39926258Y-2167723D01*
X39911561Y-2164931D01*
X39843426Y-2143276D01*
X39785612Y-2111465D01*
X39737845Y-2069240D01*
X39699853Y-2016340D01*
X39671364Y-1952509D01*
X39664436Y-1930522D01*
X39661192Y-1917168D01*
X39658496Y-1900689D01*
X39656278Y-1879560D01*
X39654464Y-1852255D01*
X39652981Y-1817251D01*
X39651757Y-1773020D01*
X39650719Y-1718039D01*
X39649793Y-1650781D01*
X39649379Y-1614715D01*
X39646379Y-1340757D01*
X39524214Y-1340757D01*
X39524214Y-1006929D01*
X39647285Y-1006929D01*
X39649249Y-859972D01*
X39651214Y-713015D01*
X40057614Y-713015D01*
X40059578Y-859972D01*
G36*
X33496687Y-588126D02*
X33548482Y-591314D01*
X33596669Y-596230D01*
X33638253Y-602712D01*
X33670236Y-610595D01*
X33684028Y-616166D01*
X33688500Y-619755D01*
X33691790Y-626495D01*
X33694075Y-638386D01*
X33695533Y-657428D01*
X33696342Y-685619D01*
X33696678Y-724959D01*
X33696728Y-759232D01*
X33696538Y-802242D01*
X33696009Y-840084D01*
X33695204Y-870434D01*
X33694183Y-890970D01*
X33693011Y-899366D01*
X33692983Y-899397D01*
X33684458Y-899813D01*
X33666546Y-896878D01*
X33651488Y-893350D01*
X33616129Y-886880D01*
X33576743Y-883937D01*
X33537975Y-884476D01*
X33504467Y-888451D01*
X33482489Y-895002D01*
X33460268Y-913110D01*
X33444309Y-941704D01*
X33436180Y-977535D01*
X33435471Y-992394D01*
X33435471Y-1021108D01*
X33564285Y-1023090D01*
X33693100Y-1025072D01*
X33695064Y-1172029D01*
X33697029Y-1318986D01*
X33435471Y-1318986D01*
X33435471Y-2146300D01*
X33029071Y-2146300D01*
X33029071Y-1318986D01*
X32898443Y-1318986D01*
X32898443Y-1006929D01*
X33026939Y-1006929D01*
X33031175Y-939800D01*
X33041996Y-861210D01*
X33063821Y-791833D01*
X33096425Y-731941D01*
X33139587Y-681806D01*
X33193083Y-641700D01*
X33256691Y-611893D01*
X33313346Y-595934D01*
X33349613Y-590571D01*
X33394257Y-587591D01*
X33444280Y-586831D01*
X33496687Y-588126D01*
X33496687Y-588126D01*
G37*
X33496687Y-588126D02*
X33548482Y-591314D01*
X33596669Y-596230D01*
X33638253Y-602712D01*
X33670236Y-610595D01*
X33684028Y-616166D01*
X33688500Y-619755D01*
X33691790Y-626495D01*
X33694075Y-638386D01*
X33695533Y-657428D01*
X33696342Y-685619D01*
X33696678Y-724959D01*
X33696728Y-759232D01*
X33696538Y-802242D01*
X33696009Y-840084D01*
X33695204Y-870434D01*
X33694183Y-890970D01*
X33693011Y-899366D01*
X33692983Y-899397D01*
X33684458Y-899813D01*
X33666546Y-896878D01*
X33651488Y-893350D01*
X33616129Y-886880D01*
X33576743Y-883937D01*
X33537975Y-884476D01*
X33504467Y-888451D01*
X33482489Y-895002D01*
X33460268Y-913110D01*
X33444309Y-941704D01*
X33436180Y-977535D01*
X33435471Y-992394D01*
X33435471Y-1021108D01*
X33564285Y-1023090D01*
X33693100Y-1025072D01*
X33695064Y-1172029D01*
X33697029Y-1318986D01*
X33435471Y-1318986D01*
X33435471Y-2146300D01*
X33029071Y-2146300D01*
X33029071Y-1318986D01*
X32898443Y-1318986D01*
X32898443Y-1006929D01*
X33026939Y-1006929D01*
X33031175Y-939800D01*
X33041996Y-861210D01*
X33063821Y-791833D01*
X33096425Y-731941D01*
X33139587Y-681806D01*
X33193083Y-641700D01*
X33256691Y-611893D01*
X33313346Y-595934D01*
X33349613Y-590571D01*
X33394257Y-587591D01*
X33444280Y-586831D01*
X33496687Y-588126D01*
G36*
X34262785Y-2146300D02*
X33856385Y-2146300D01*
X33856385Y-1006929D01*
X34262785Y-1006929D01*
X34262785Y-2146300D01*
X34262785Y-2146300D01*
G37*
X34262785Y-2146300D02*
X33856385Y-2146300D01*
X33856385Y-1006929D01*
X34262785Y-1006929D01*
X34262785Y-2146300D01*
G36*
X36104318Y-1375229D02*
X36106166Y-2146300D01*
X35692377Y-2146300D01*
X35694224Y-1375229D01*
X35696071Y-604157D01*
X36102471Y-604157D01*
X36104318Y-1375229D01*
X36104318Y-1375229D01*
G37*
X36104318Y-1375229D02*
X36106166Y-2146300D01*
X35692377Y-2146300D01*
X35694224Y-1375229D01*
X35696071Y-604157D01*
X36102471Y-604157D01*
X36104318Y-1375229D01*
G36*
X38074537Y-989180D02*
X38076414Y-1377831D01*
X38395196Y-1006929D01*
X38622248Y-1006929D01*
X38677991Y-1007048D01*
X38728771Y-1007387D01*
X38772852Y-1007914D01*
X38808496Y-1008602D01*
X38833968Y-1009419D01*
X38847528Y-1010335D01*
X38849300Y-1010821D01*
X38844723Y-1016746D01*
X38831818Y-1032167D01*
X38811816Y-1055662D01*
X38785954Y-1085810D01*
X38755464Y-1121190D01*
X38721582Y-1160380D01*
X38685541Y-1201957D01*
X38648575Y-1244501D01*
X38611919Y-1286590D01*
X38576807Y-1326802D01*
X38544473Y-1363715D01*
X38516151Y-1395909D01*
X38493075Y-1421961D01*
X38476480Y-1440450D01*
X38473260Y-1443972D01*
X38455082Y-1463729D01*
X38649800Y-1788686D01*
X38687533Y-1851635D01*
X38723255Y-1911186D01*
X38756223Y-1966106D01*
X38785698Y-2015163D01*
X38810938Y-2057125D01*
X38831202Y-2090759D01*
X38845750Y-2114832D01*
X38853839Y-2128112D01*
X38855001Y-2129972D01*
X38865483Y-2146300D01*
X38416262Y-2146300D01*
X38298562Y-1954190D01*
X38180862Y-1762079D01*
X38126929Y-1821747D01*
X38072997Y-1881415D01*
X38072891Y-2013857D01*
X38072785Y-2146300D01*
X37666385Y-2146300D01*
X37666385Y-600529D01*
X38072659Y-600529D01*
X38074537Y-989180D01*
X38074537Y-989180D01*
G37*
X38074537Y-989180D02*
X38076414Y-1377831D01*
X38395196Y-1006929D01*
X38622248Y-1006929D01*
X38677991Y-1007048D01*
X38728771Y-1007387D01*
X38772852Y-1007914D01*
X38808496Y-1008602D01*
X38833968Y-1009419D01*
X38847528Y-1010335D01*
X38849300Y-1010821D01*
X38844723Y-1016746D01*
X38831818Y-1032167D01*
X38811816Y-1055662D01*
X38785954Y-1085810D01*
X38755464Y-1121190D01*
X38721582Y-1160380D01*
X38685541Y-1201957D01*
X38648575Y-1244501D01*
X38611919Y-1286590D01*
X38576807Y-1326802D01*
X38544473Y-1363715D01*
X38516151Y-1395909D01*
X38493075Y-1421961D01*
X38476480Y-1440450D01*
X38473260Y-1443972D01*
X38455082Y-1463729D01*
X38649800Y-1788686D01*
X38687533Y-1851635D01*
X38723255Y-1911186D01*
X38756223Y-1966106D01*
X38785698Y-2015163D01*
X38810938Y-2057125D01*
X38831202Y-2090759D01*
X38845750Y-2114832D01*
X38853839Y-2128112D01*
X38855001Y-2129972D01*
X38865483Y-2146300D01*
X38416262Y-2146300D01*
X38298562Y-1954190D01*
X38180862Y-1762079D01*
X38126929Y-1821747D01*
X38072997Y-1881415D01*
X38072891Y-2013857D01*
X38072785Y-2146300D01*
X37666385Y-2146300D01*
X37666385Y-600529D01*
X38072659Y-600529D01*
X38074537Y-989180D01*
G36*
X39342785Y-2146300D02*
X38929128Y-2146300D01*
X38929128Y-1006929D01*
X39342785Y-1006929D01*
X39342785Y-2146300D01*
X39342785Y-2146300D01*
G37*
X39342785Y-2146300D02*
X38929128Y-2146300D01*
X38929128Y-1006929D01*
X39342785Y-1006929D01*
X39342785Y-2146300D01*
G36*
X36879293Y-1470045D02*
X36915266Y-1487937D01*
X36935374Y-1507012D01*
X36957469Y-1543273D01*
X36967030Y-1582373D01*
X36964609Y-1621554D01*
X36950756Y-1658061D01*
X36926020Y-1689139D01*
X36894786Y-1710249D01*
X36855625Y-1723245D01*
X36818024Y-1722519D01*
X36782235Y-1709814D01*
X36748217Y-1685649D01*
X36724716Y-1653686D01*
X36712269Y-1616664D01*
X36711412Y-1577323D01*
X36722681Y-1538402D01*
X36742588Y-1507227D01*
X36772680Y-1480394D01*
X36807852Y-1466634D01*
X36835315Y-1464129D01*
X36879293Y-1470045D01*
X36879293Y-1470045D01*
G37*
X36879293Y-1470045D02*
X36915266Y-1487937D01*
X36935374Y-1507012D01*
X36957469Y-1543273D01*
X36967030Y-1582373D01*
X36964609Y-1621554D01*
X36950756Y-1658061D01*
X36926020Y-1689139D01*
X36894786Y-1710249D01*
X36855625Y-1723245D01*
X36818024Y-1722519D01*
X36782235Y-1709814D01*
X36748217Y-1685649D01*
X36724716Y-1653686D01*
X36712269Y-1616664D01*
X36711412Y-1577323D01*
X36722681Y-1538402D01*
X36742588Y-1507227D01*
X36772680Y-1480394D01*
X36807852Y-1466634D01*
X36835315Y-1464129D01*
X36879293Y-1470045D01*
G36*
X34262785Y-898072D02*
X33834313Y-898072D01*
X33836278Y-751115D01*
X33838243Y-604157D01*
X34050514Y-602233D01*
X34262785Y-600310D01*
X34262785Y-898072D01*
X34262785Y-898072D01*
G37*
X34262785Y-898072D02*
X33834313Y-898072D01*
X33836278Y-751115D01*
X33838243Y-604157D01*
X34050514Y-602233D01*
X34262785Y-600310D01*
X34262785Y-898072D01*
G36*
X39357300Y-898072D02*
X38928828Y-898072D01*
X38930792Y-751115D01*
X38932757Y-604157D01*
X39145028Y-602233D01*
X39357300Y-600310D01*
X39357300Y-898072D01*
X39357300Y-898072D01*
G37*
X39357300Y-898072D02*
X38928828Y-898072D01*
X38930792Y-751115D01*
X38932757Y-604157D01*
X39145028Y-602233D01*
X39357300Y-600310D01*
X39357300Y-898072D01*
G36*
X27929909Y3412967D02*
X27985787Y3412371D01*
X28033899Y3411153D01*
X28076712Y3409129D01*
X28116690Y3406117D01*
X28156301Y3401933D01*
X28198009Y3396393D01*
X28244280Y3389315D01*
X28293871Y3381140D01*
X28464226Y3346088D01*
X28631136Y3299074D01*
X28794012Y3240512D01*
X28952266Y3170814D01*
X29105308Y3090393D01*
X29252549Y2999663D01*
X29393400Y2899037D01*
X29527271Y2788927D01*
X29653573Y2669747D01*
X29771717Y2541910D01*
X29881113Y2405829D01*
X29981173Y2261916D01*
X30048699Y2150903D01*
X30132304Y1992635D01*
X30203727Y1830851D01*
X30262982Y1665501D01*
X30310081Y1496531D01*
X30345036Y1323890D01*
X30367860Y1147525D01*
X30378567Y967383D01*
X30377518Y792512D01*
X30364757Y617632D01*
X30339605Y444581D01*
X30302315Y273998D01*
X30253141Y106522D01*
X30192334Y-57207D01*
X30120149Y-216551D01*
X30036838Y-370871D01*
X29942655Y-519526D01*
X29837853Y-661878D01*
X29768354Y-745880D01*
X29731035Y-787310D01*
X29686484Y-833940D01*
X29637241Y-883318D01*
X29585849Y-932990D01*
X29534847Y-980504D01*
X29486777Y-1023407D01*
X29444181Y-1059245D01*
X29441342Y-1061529D01*
X29298123Y-1168386D01*
X29148678Y-1264532D01*
X28993697Y-1349589D01*
X28833865Y-1423175D01*
X28682950Y-1480478D01*
X28510864Y-1532765D01*
X28336685Y-1572652D01*
X28160898Y-1600076D01*
X27983989Y-1614971D01*
X27806445Y-1617271D01*
X27695525Y-1612296D01*
X27518487Y-1594112D01*
X27344096Y-1563661D01*
X27172932Y-1521208D01*
X27005578Y-1467017D01*
X26842616Y-1401353D01*
X26684627Y-1324480D01*
X26532194Y-1236662D01*
X26385898Y-1138165D01*
X26246322Y-1029252D01*
X26114047Y-910187D01*
X26082710Y-879389D01*
X25961616Y-749468D01*
X25850814Y-612465D01*
X25750481Y-468979D01*
X25660795Y-319609D01*
X25581934Y-164953D01*
X25514075Y-5611D01*
X25471709Y116547D01*
X25719440Y116547D01*
X25720694Y107758D01*
X25726521Y89285D01*
X25736188Y62985D01*
X25748961Y30710D01*
X25764106Y-5684D01*
X25780889Y-44343D01*
X25798532Y-83315D01*
X25816126Y-119077D01*
X25839049Y-162339D01*
X25865550Y-210055D01*
X25893881Y-259181D01*
X25922291Y-306671D01*
X25949033Y-349479D01*
X25967617Y-377675D01*
X26054834Y-496751D01*
X26151451Y-612152D01*
X26255601Y-722006D01*
X26365415Y-824435D01*
X26479025Y-917566D01*
X26572538Y-984889D01*
X26633249Y-1020018D01*
X26705281Y-1051303D01*
X26787774Y-1078497D01*
X26879868Y-1101352D01*
X26980704Y-1119618D01*
X27082750Y-1132388D01*
X27115995Y-1134536D01*
X27157804Y-1135476D01*
X27204102Y-1135253D01*
X27250813Y-1133915D01*
X27293863Y-1131509D01*
X27315009Y-1129697D01*
X27398643Y-1117718D01*
X27476087Y-1099402D01*
X27545904Y-1075245D01*
X27606656Y-1045745D01*
X27656603Y-1011646D01*
X27689385Y-981001D01*
X27713878Y-948501D01*
X27731770Y-911062D01*
X27744751Y-865600D01*
X27749311Y-842441D01*
X27763111Y-781615D01*
X27781579Y-731262D01*
X27805674Y-689708D01*
X27836351Y-655280D01*
X27872129Y-627868D01*
X27905736Y-608575D01*
X27943128Y-592031D01*
X27985339Y-578080D01*
X28033400Y-566567D01*
X28088342Y-557336D01*
X28151197Y-550230D01*
X28222997Y-545095D01*
X28304774Y-541775D01*
X28397559Y-540112D01*
X28455006Y-539848D01*
X28604090Y-538111D01*
X28741085Y-533091D01*
X28865952Y-524789D01*
X28978653Y-513210D01*
X29079150Y-498356D01*
X29146500Y-485066D01*
X29271996Y-451662D01*
X29391609Y-408761D01*
X29504482Y-356835D01*
X29609758Y-296357D01*
X29706581Y-227799D01*
X29794095Y-151635D01*
X29843698Y-100362D01*
X29866944Y-74631D01*
X29800409Y-108022D01*
X29766485Y-124414D01*
X29729373Y-141335D01*
X29694614Y-156300D01*
X29677156Y-163321D01*
X29631439Y-179245D01*
X29576805Y-195492D01*
X29516975Y-211145D01*
X29455669Y-225283D01*
X29396610Y-236989D01*
X29346525Y-244946D01*
X29301860Y-249581D01*
X29247780Y-253041D01*
X29187516Y-255298D01*
X29124300Y-256324D01*
X29061365Y-256094D01*
X29001942Y-254578D01*
X28949264Y-251750D01*
X28914725Y-248592D01*
X28746657Y-223478D01*
X28575943Y-186837D01*
X28404222Y-139096D01*
X28233133Y-80682D01*
X28154820Y-50235D01*
X28128448Y-39513D01*
X28103643Y-29251D01*
X28078938Y-18793D01*
X28052865Y-7481D01*
X28023955Y5340D01*
X27990740Y20328D01*
X27951752Y38138D01*
X27905522Y59429D01*
X27850583Y84856D01*
X27792362Y111873D01*
X27624069Y184656D01*
X27457004Y246220D01*
X27291544Y296540D01*
X27128066Y335593D01*
X26966946Y363353D01*
X26808562Y379794D01*
X26653290Y384893D01*
X26501508Y378624D01*
X26353592Y360963D01*
X26209919Y331884D01*
X26070867Y291362D01*
X25936812Y239373D01*
X25927324Y235169D01*
X25896427Y220671D01*
X25862932Y203794D01*
X25828840Y185682D01*
X25796151Y167474D01*
X25766865Y150313D01*
X25742983Y135341D01*
X25726505Y123697D01*
X25719440Y116547D01*
X25471709Y116547D01*
X25457395Y157819D01*
X25412073Y324737D01*
X25378286Y494545D01*
X25356211Y666644D01*
X25346027Y840436D01*
X25347404Y968410D01*
X25578201Y968410D01*
X25578235Y893318D01*
X25580040Y816312D01*
X25583521Y740616D01*
X25588586Y669458D01*
X25595140Y606062D01*
X25599012Y577850D01*
X25605986Y534926D01*
X25614152Y489597D01*
X25623140Y443461D01*
X25632579Y398117D01*
X25642099Y355163D01*
X25651331Y316196D01*
X25659905Y282816D01*
X25667451Y256621D01*
X25673599Y239209D01*
X25677979Y232178D01*
X25678958Y232393D01*
X25682201Y238355D01*
X25690827Y254900D01*
X25704458Y281291D01*
X25722719Y316792D01*
X25745232Y360668D01*
X25771621Y412181D01*
X25801508Y470596D01*
X25834517Y535176D01*
X25870270Y605185D01*
X25908392Y679887D01*
X25948504Y758546D01*
X25990231Y840425D01*
X25991618Y843148D01*
X26033405Y925098D01*
X26073623Y1003824D01*
X26111895Y1078591D01*
X26147840Y1148666D01*
X26181080Y1213315D01*
X26211236Y1271803D01*
X26237929Y1323397D01*
X26260779Y1367363D01*
X26279407Y1402966D01*
X26293435Y1429473D01*
X26302483Y1446149D01*
X26306172Y1452261D01*
X26306199Y1452274D01*
X26309974Y1447078D01*
X26319180Y1431589D01*
X26333307Y1406737D01*
X26351843Y1373454D01*
X26374277Y1332669D01*
X26400098Y1285315D01*
X26428796Y1232321D01*
X26459858Y1174618D01*
X26492774Y1113137D01*
X26504051Y1091999D01*
X26537470Y1029429D01*
X26569186Y970287D01*
X26598690Y915508D01*
X26625471Y866029D01*
X26649019Y822785D01*
X26668826Y786710D01*
X26684380Y758740D01*
X26695172Y739811D01*
X26700693Y730857D01*
X26701271Y730250D01*
X26704731Y735769D01*
X26713628Y751831D01*
X26727572Y777696D01*
X26746174Y812620D01*
X26769044Y855864D01*
X26795792Y906686D01*
X26826029Y964344D01*
X26859365Y1028098D01*
X26895411Y1097205D01*
X26933777Y1170924D01*
X26974074Y1248514D01*
X27009078Y1316038D01*
X27050717Y1396394D01*
X27090747Y1473575D01*
X27128777Y1546832D01*
X27164418Y1615417D01*
X27197278Y1678581D01*
X27226968Y1735577D01*
X27253099Y1785656D01*
X27275279Y1828069D01*
X27293119Y1862069D01*
X27306229Y1886907D01*
X27314219Y1901835D01*
X27316683Y1906164D01*
X27320212Y1901327D01*
X27329278Y1886048D01*
X27343459Y1861100D01*
X27362331Y1827257D01*
X27385472Y1785292D01*
X27412459Y1735978D01*
X27442869Y1680087D01*
X27476279Y1618393D01*
X27512267Y1551669D01*
X27550409Y1480688D01*
X27590283Y1406224D01*
X27597100Y1393469D01*
X27637236Y1318406D01*
X27675689Y1246616D01*
X27712036Y1178881D01*
X27745854Y1115981D01*
X27776723Y1058697D01*
X27804220Y1007811D01*
X27827922Y964102D01*
X27847408Y928353D01*
X27862256Y901343D01*
X27872043Y883855D01*
X27876348Y876668D01*
X27876500Y876526D01*
X27879959Y882009D01*
X27888648Y897692D01*
X27901988Y922481D01*
X27919401Y955280D01*
X27940308Y994996D01*
X27964131Y1040534D01*
X27990292Y1090800D01*
X28018213Y1144698D01*
X28019058Y1146333D01*
X28047048Y1200329D01*
X28073338Y1250719D01*
X28097344Y1296409D01*
X28118483Y1336304D01*
X28136172Y1369310D01*
X28149827Y1394332D01*
X28158866Y1410276D01*
X28162706Y1416046D01*
X28162733Y1416050D01*
X28166294Y1410579D01*
X28175392Y1394695D01*
X28189595Y1369196D01*
X28208470Y1334878D01*
X28231584Y1292539D01*
X28258504Y1242976D01*
X28288797Y1186984D01*
X28322031Y1125362D01*
X28357772Y1058906D01*
X28395588Y988413D01*
X28432649Y919163D01*
X28472321Y844966D01*
X28510505Y773584D01*
X28546744Y705866D01*
X28580585Y642661D01*
X28611573Y584817D01*
X28639252Y533183D01*
X28663169Y488606D01*
X28682868Y451935D01*
X28697894Y424018D01*
X28707794Y405704D01*
X28711913Y398188D01*
X28725553Y374100D01*
X28856223Y626788D01*
X28883322Y678968D01*
X28908734Y727471D01*
X28931854Y771172D01*
X28952075Y808944D01*
X28968792Y839662D01*
X28981398Y862200D01*
X28989286Y875431D01*
X28991767Y878568D01*
X28995773Y872951D01*
X29005028Y857367D01*
X29018833Y833069D01*
X29036493Y801311D01*
X29057309Y763347D01*
X29080584Y720431D01*
X29105570Y673913D01*
X29130520Y627528D01*
X29153660Y585051D01*
X29174306Y547699D01*
X29191770Y516689D01*
X29205368Y493239D01*
X29214413Y478567D01*
X29218220Y473889D01*
X29218232Y473900D01*
X29221681Y480010D01*
X29230492Y496522D01*
X29244204Y522551D01*
X29262356Y557212D01*
X29284488Y599622D01*
X29310137Y648895D01*
X29338844Y704147D01*
X29370146Y764494D01*
X29403584Y829050D01*
X29438696Y896932D01*
X29439821Y899106D01*
X29474941Y966970D01*
X29508390Y1031446D01*
X29539711Y1091661D01*
X29568445Y1146742D01*
X29594132Y1195813D01*
X29616314Y1238000D01*
X29634533Y1272429D01*
X29648330Y1298227D01*
X29657247Y1314518D01*
X29660824Y1320428D01*
X29660850Y1320436D01*
X29664465Y1315053D01*
X29673898Y1299536D01*
X29688638Y1274760D01*
X29708171Y1241602D01*
X29731987Y1200936D01*
X29759573Y1153639D01*
X29790418Y1100586D01*
X29824009Y1042654D01*
X29859834Y980717D01*
X29889109Y929999D01*
X29926312Y865662D01*
X29961720Y804765D01*
X29994821Y748169D01*
X30025099Y696738D01*
X30052041Y651334D01*
X30075134Y612819D01*
X30093864Y582056D01*
X30107718Y559906D01*
X30116182Y547233D01*
X30118720Y544490D01*
X30122944Y554980D01*
X30127170Y576501D01*
X30131270Y607382D01*
X30135117Y645956D01*
X30138582Y690552D01*
X30141539Y739502D01*
X30143858Y791136D01*
X30145412Y843786D01*
X30146073Y895782D01*
X30146086Y901700D01*
X30144430Y1010915D01*
X30138952Y1111520D01*
X30129251Y1207136D01*
X30114920Y1301385D01*
X30095558Y1397887D01*
X30086231Y1438275D01*
X30041593Y1599744D01*
X29986111Y1755179D01*
X29919359Y1905552D01*
X29840911Y2051835D01*
X29761797Y2178050D01*
X29716294Y2244032D01*
X29672108Y2303730D01*
X29626816Y2360067D01*
X29577993Y2415964D01*
X29523214Y2474344D01*
X29477056Y2521223D01*
X29393026Y2602135D01*
X29311566Y2673953D01*
X29229712Y2739011D01*
X29144502Y2799648D01*
X29052971Y2858199D01*
X29038688Y2866842D01*
X28891273Y2948179D01*
X28739635Y3017810D01*
X28584434Y3075755D01*
X28426330Y3122030D01*
X28265985Y3156654D01*
X28104057Y3179645D01*
X27941209Y3191020D01*
X27778101Y3190798D01*
X27615394Y3178997D01*
X27453747Y3155634D01*
X27293822Y3120728D01*
X27136279Y3074296D01*
X26981778Y3016357D01*
X26830981Y2946929D01*
X26684548Y2866029D01*
X26581100Y2799950D01*
X26444366Y2699789D01*
X26316303Y2590636D01*
X26197248Y2473065D01*
X26087537Y2347650D01*
X25987508Y2214964D01*
X25897496Y2075583D01*
X25817840Y1930080D01*
X25748874Y1779029D01*
X25690937Y1623004D01*
X25644365Y1462579D01*
X25609495Y1298329D01*
X25586662Y1130827D01*
X25583820Y1099945D01*
X25580031Y1038361D01*
X25578201Y968410D01*
X25347404Y968410D01*
X25347910Y1015320D01*
X25362039Y1190699D01*
X25388591Y1365973D01*
X25399929Y1422833D01*
X25442425Y1593910D01*
X25496340Y1760102D01*
X25561219Y1920969D01*
X25636607Y2076074D01*
X25722049Y2224979D01*
X25817091Y2367244D01*
X25921278Y2502433D01*
X26034155Y2630106D01*
X26155267Y2749827D01*
X26284160Y2861155D01*
X26420378Y2963654D01*
X26563468Y3056885D01*
X26712974Y3140410D01*
X26868442Y3213790D01*
X27029417Y3276588D01*
X27195443Y3328365D01*
X27366067Y3368683D01*
X27432000Y3380905D01*
X27484232Y3389640D01*
X27529989Y3396661D01*
X27571710Y3402151D01*
X27611832Y3406292D01*
X27652791Y3409265D01*
X27697027Y3411253D01*
X27746975Y3412437D01*
X27805073Y3413000D01*
X27863800Y3413125D01*
X27929909Y3412967D01*
X27929909Y3412967D01*
G37*
X27929909Y3412967D02*
X27985787Y3412371D01*
X28033899Y3411153D01*
X28076712Y3409129D01*
X28116690Y3406117D01*
X28156301Y3401933D01*
X28198009Y3396393D01*
X28244280Y3389315D01*
X28293871Y3381140D01*
X28464226Y3346088D01*
X28631136Y3299074D01*
X28794012Y3240512D01*
X28952266Y3170814D01*
X29105308Y3090393D01*
X29252549Y2999663D01*
X29393400Y2899037D01*
X29527271Y2788927D01*
X29653573Y2669747D01*
X29771717Y2541910D01*
X29881113Y2405829D01*
X29981173Y2261916D01*
X30048699Y2150903D01*
X30132304Y1992635D01*
X30203727Y1830851D01*
X30262982Y1665501D01*
X30310081Y1496531D01*
X30345036Y1323890D01*
X30367860Y1147525D01*
X30378567Y967383D01*
X30377518Y792512D01*
X30364757Y617632D01*
X30339605Y444581D01*
X30302315Y273998D01*
X30253141Y106522D01*
X30192334Y-57207D01*
X30120149Y-216551D01*
X30036838Y-370871D01*
X29942655Y-519526D01*
X29837853Y-661878D01*
X29768354Y-745880D01*
X29731035Y-787310D01*
X29686484Y-833940D01*
X29637241Y-883318D01*
X29585849Y-932990D01*
X29534847Y-980504D01*
X29486777Y-1023407D01*
X29444181Y-1059245D01*
X29441342Y-1061529D01*
X29298123Y-1168386D01*
X29148678Y-1264532D01*
X28993697Y-1349589D01*
X28833865Y-1423175D01*
X28682950Y-1480478D01*
X28510864Y-1532765D01*
X28336685Y-1572652D01*
X28160898Y-1600076D01*
X27983989Y-1614971D01*
X27806445Y-1617271D01*
X27695525Y-1612296D01*
X27518487Y-1594112D01*
X27344096Y-1563661D01*
X27172932Y-1521208D01*
X27005578Y-1467017D01*
X26842616Y-1401353D01*
X26684627Y-1324480D01*
X26532194Y-1236662D01*
X26385898Y-1138165D01*
X26246322Y-1029252D01*
X26114047Y-910187D01*
X26082710Y-879389D01*
X25961616Y-749468D01*
X25850814Y-612465D01*
X25750481Y-468979D01*
X25660795Y-319609D01*
X25581934Y-164953D01*
X25514075Y-5611D01*
X25471709Y116547D01*
X25719440Y116547D01*
X25720694Y107758D01*
X25726521Y89285D01*
X25736188Y62985D01*
X25748961Y30710D01*
X25764106Y-5684D01*
X25780889Y-44343D01*
X25798532Y-83315D01*
X25816126Y-119077D01*
X25839049Y-162339D01*
X25865550Y-210055D01*
X25893881Y-259181D01*
X25922291Y-306671D01*
X25949033Y-349479D01*
X25967617Y-377675D01*
X26054834Y-496751D01*
X26151451Y-612152D01*
X26255601Y-722006D01*
X26365415Y-824435D01*
X26479025Y-917566D01*
X26572538Y-984889D01*
X26633249Y-1020018D01*
X26705281Y-1051303D01*
X26787774Y-1078497D01*
X26879868Y-1101352D01*
X26980704Y-1119618D01*
X27082750Y-1132388D01*
X27115995Y-1134536D01*
X27157804Y-1135476D01*
X27204102Y-1135253D01*
X27250813Y-1133915D01*
X27293863Y-1131509D01*
X27315009Y-1129697D01*
X27398643Y-1117718D01*
X27476087Y-1099402D01*
X27545904Y-1075245D01*
X27606656Y-1045745D01*
X27656603Y-1011646D01*
X27689385Y-981001D01*
X27713878Y-948501D01*
X27731770Y-911062D01*
X27744751Y-865600D01*
X27749311Y-842441D01*
X27763111Y-781615D01*
X27781579Y-731262D01*
X27805674Y-689708D01*
X27836351Y-655280D01*
X27872129Y-627868D01*
X27905736Y-608575D01*
X27943128Y-592031D01*
X27985339Y-578080D01*
X28033400Y-566567D01*
X28088342Y-557336D01*
X28151197Y-550230D01*
X28222997Y-545095D01*
X28304774Y-541775D01*
X28397559Y-540112D01*
X28455006Y-539848D01*
X28604090Y-538111D01*
X28741085Y-533091D01*
X28865952Y-524789D01*
X28978653Y-513210D01*
X29079150Y-498356D01*
X29146500Y-485066D01*
X29271996Y-451662D01*
X29391609Y-408761D01*
X29504482Y-356835D01*
X29609758Y-296357D01*
X29706581Y-227799D01*
X29794095Y-151635D01*
X29843698Y-100362D01*
X29866944Y-74631D01*
X29800409Y-108022D01*
X29766485Y-124414D01*
X29729373Y-141335D01*
X29694614Y-156300D01*
X29677156Y-163321D01*
X29631439Y-179245D01*
X29576805Y-195492D01*
X29516975Y-211145D01*
X29455669Y-225283D01*
X29396610Y-236989D01*
X29346525Y-244946D01*
X29301860Y-249581D01*
X29247780Y-253041D01*
X29187516Y-255298D01*
X29124300Y-256324D01*
X29061365Y-256094D01*
X29001942Y-254578D01*
X28949264Y-251750D01*
X28914725Y-248592D01*
X28746657Y-223478D01*
X28575943Y-186837D01*
X28404222Y-139096D01*
X28233133Y-80682D01*
X28154820Y-50235D01*
X28128448Y-39513D01*
X28103643Y-29251D01*
X28078938Y-18793D01*
X28052865Y-7481D01*
X28023955Y5340D01*
X27990740Y20328D01*
X27951752Y38138D01*
X27905522Y59429D01*
X27850583Y84856D01*
X27792362Y111873D01*
X27624069Y184656D01*
X27457004Y246220D01*
X27291544Y296540D01*
X27128066Y335593D01*
X26966946Y363353D01*
X26808562Y379794D01*
X26653290Y384893D01*
X26501508Y378624D01*
X26353592Y360963D01*
X26209919Y331884D01*
X26070867Y291362D01*
X25936812Y239373D01*
X25927324Y235169D01*
X25896427Y220671D01*
X25862932Y203794D01*
X25828840Y185682D01*
X25796151Y167474D01*
X25766865Y150313D01*
X25742983Y135341D01*
X25726505Y123697D01*
X25719440Y116547D01*
X25471709Y116547D01*
X25457395Y157819D01*
X25412073Y324737D01*
X25378286Y494545D01*
X25356211Y666644D01*
X25346027Y840436D01*
X25347404Y968410D01*
X25578201Y968410D01*
X25578235Y893318D01*
X25580040Y816312D01*
X25583521Y740616D01*
X25588586Y669458D01*
X25595140Y606062D01*
X25599012Y577850D01*
X25605986Y534926D01*
X25614152Y489597D01*
X25623140Y443461D01*
X25632579Y398117D01*
X25642099Y355163D01*
X25651331Y316196D01*
X25659905Y282816D01*
X25667451Y256621D01*
X25673599Y239209D01*
X25677979Y232178D01*
X25678958Y232393D01*
X25682201Y238355D01*
X25690827Y254900D01*
X25704458Y281291D01*
X25722719Y316792D01*
X25745232Y360668D01*
X25771621Y412181D01*
X25801508Y470596D01*
X25834517Y535176D01*
X25870270Y605185D01*
X25908392Y679887D01*
X25948504Y758546D01*
X25990231Y840425D01*
X25991618Y843148D01*
X26033405Y925098D01*
X26073623Y1003824D01*
X26111895Y1078591D01*
X26147840Y1148666D01*
X26181080Y1213315D01*
X26211236Y1271803D01*
X26237929Y1323397D01*
X26260779Y1367363D01*
X26279407Y1402966D01*
X26293435Y1429473D01*
X26302483Y1446149D01*
X26306172Y1452261D01*
X26306199Y1452274D01*
X26309974Y1447078D01*
X26319180Y1431589D01*
X26333307Y1406737D01*
X26351843Y1373454D01*
X26374277Y1332669D01*
X26400098Y1285315D01*
X26428796Y1232321D01*
X26459858Y1174618D01*
X26492774Y1113137D01*
X26504051Y1091999D01*
X26537470Y1029429D01*
X26569186Y970287D01*
X26598690Y915508D01*
X26625471Y866029D01*
X26649019Y822785D01*
X26668826Y786710D01*
X26684380Y758740D01*
X26695172Y739811D01*
X26700693Y730857D01*
X26701271Y730250D01*
X26704731Y735769D01*
X26713628Y751831D01*
X26727572Y777696D01*
X26746174Y812620D01*
X26769044Y855864D01*
X26795792Y906686D01*
X26826029Y964344D01*
X26859365Y1028098D01*
X26895411Y1097205D01*
X26933777Y1170924D01*
X26974074Y1248514D01*
X27009078Y1316038D01*
X27050717Y1396394D01*
X27090747Y1473575D01*
X27128777Y1546832D01*
X27164418Y1615417D01*
X27197278Y1678581D01*
X27226968Y1735577D01*
X27253099Y1785656D01*
X27275279Y1828069D01*
X27293119Y1862069D01*
X27306229Y1886907D01*
X27314219Y1901835D01*
X27316683Y1906164D01*
X27320212Y1901327D01*
X27329278Y1886048D01*
X27343459Y1861100D01*
X27362331Y1827257D01*
X27385472Y1785292D01*
X27412459Y1735978D01*
X27442869Y1680087D01*
X27476279Y1618393D01*
X27512267Y1551669D01*
X27550409Y1480688D01*
X27590283Y1406224D01*
X27597100Y1393469D01*
X27637236Y1318406D01*
X27675689Y1246616D01*
X27712036Y1178881D01*
X27745854Y1115981D01*
X27776723Y1058697D01*
X27804220Y1007811D01*
X27827922Y964102D01*
X27847408Y928353D01*
X27862256Y901343D01*
X27872043Y883855D01*
X27876348Y876668D01*
X27876500Y876526D01*
X27879959Y882009D01*
X27888648Y897692D01*
X27901988Y922481D01*
X27919401Y955280D01*
X27940308Y994996D01*
X27964131Y1040534D01*
X27990292Y1090800D01*
X28018213Y1144698D01*
X28019058Y1146333D01*
X28047048Y1200329D01*
X28073338Y1250719D01*
X28097344Y1296409D01*
X28118483Y1336304D01*
X28136172Y1369310D01*
X28149827Y1394332D01*
X28158866Y1410276D01*
X28162706Y1416046D01*
X28162733Y1416050D01*
X28166294Y1410579D01*
X28175392Y1394695D01*
X28189595Y1369196D01*
X28208470Y1334878D01*
X28231584Y1292539D01*
X28258504Y1242976D01*
X28288797Y1186984D01*
X28322031Y1125362D01*
X28357772Y1058906D01*
X28395588Y988413D01*
X28432649Y919163D01*
X28472321Y844966D01*
X28510505Y773584D01*
X28546744Y705866D01*
X28580585Y642661D01*
X28611573Y584817D01*
X28639252Y533183D01*
X28663169Y488606D01*
X28682868Y451935D01*
X28697894Y424018D01*
X28707794Y405704D01*
X28711913Y398188D01*
X28725553Y374100D01*
X28856223Y626788D01*
X28883322Y678968D01*
X28908734Y727471D01*
X28931854Y771172D01*
X28952075Y808944D01*
X28968792Y839662D01*
X28981398Y862200D01*
X28989286Y875431D01*
X28991767Y878568D01*
X28995773Y872951D01*
X29005028Y857367D01*
X29018833Y833069D01*
X29036493Y801311D01*
X29057309Y763347D01*
X29080584Y720431D01*
X29105570Y673913D01*
X29130520Y627528D01*
X29153660Y585051D01*
X29174306Y547699D01*
X29191770Y516689D01*
X29205368Y493239D01*
X29214413Y478567D01*
X29218220Y473889D01*
X29218232Y473900D01*
X29221681Y480010D01*
X29230492Y496522D01*
X29244204Y522551D01*
X29262356Y557212D01*
X29284488Y599622D01*
X29310137Y648895D01*
X29338844Y704147D01*
X29370146Y764494D01*
X29403584Y829050D01*
X29438696Y896932D01*
X29439821Y899106D01*
X29474941Y966970D01*
X29508390Y1031446D01*
X29539711Y1091661D01*
X29568445Y1146742D01*
X29594132Y1195813D01*
X29616314Y1238000D01*
X29634533Y1272429D01*
X29648330Y1298227D01*
X29657247Y1314518D01*
X29660824Y1320428D01*
X29660850Y1320436D01*
X29664465Y1315053D01*
X29673898Y1299536D01*
X29688638Y1274760D01*
X29708171Y1241602D01*
X29731987Y1200936D01*
X29759573Y1153639D01*
X29790418Y1100586D01*
X29824009Y1042654D01*
X29859834Y980717D01*
X29889109Y929999D01*
X29926312Y865662D01*
X29961720Y804765D01*
X29994821Y748169D01*
X30025099Y696738D01*
X30052041Y651334D01*
X30075134Y612819D01*
X30093864Y582056D01*
X30107718Y559906D01*
X30116182Y547233D01*
X30118720Y544490D01*
X30122944Y554980D01*
X30127170Y576501D01*
X30131270Y607382D01*
X30135117Y645956D01*
X30138582Y690552D01*
X30141539Y739502D01*
X30143858Y791136D01*
X30145412Y843786D01*
X30146073Y895782D01*
X30146086Y901700D01*
X30144430Y1010915D01*
X30138952Y1111520D01*
X30129251Y1207136D01*
X30114920Y1301385D01*
X30095558Y1397887D01*
X30086231Y1438275D01*
X30041593Y1599744D01*
X29986111Y1755179D01*
X29919359Y1905552D01*
X29840911Y2051835D01*
X29761797Y2178050D01*
X29716294Y2244032D01*
X29672108Y2303730D01*
X29626816Y2360067D01*
X29577993Y2415964D01*
X29523214Y2474344D01*
X29477056Y2521223D01*
X29393026Y2602135D01*
X29311566Y2673953D01*
X29229712Y2739011D01*
X29144502Y2799648D01*
X29052971Y2858199D01*
X29038688Y2866842D01*
X28891273Y2948179D01*
X28739635Y3017810D01*
X28584434Y3075755D01*
X28426330Y3122030D01*
X28265985Y3156654D01*
X28104057Y3179645D01*
X27941209Y3191020D01*
X27778101Y3190798D01*
X27615394Y3178997D01*
X27453747Y3155634D01*
X27293822Y3120728D01*
X27136279Y3074296D01*
X26981778Y3016357D01*
X26830981Y2946929D01*
X26684548Y2866029D01*
X26581100Y2799950D01*
X26444366Y2699789D01*
X26316303Y2590636D01*
X26197248Y2473065D01*
X26087537Y2347650D01*
X25987508Y2214964D01*
X25897496Y2075583D01*
X25817840Y1930080D01*
X25748874Y1779029D01*
X25690937Y1623004D01*
X25644365Y1462579D01*
X25609495Y1298329D01*
X25586662Y1130827D01*
X25583820Y1099945D01*
X25580031Y1038361D01*
X25578201Y968410D01*
X25347404Y968410D01*
X25347910Y1015320D01*
X25362039Y1190699D01*
X25388591Y1365973D01*
X25399929Y1422833D01*
X25442425Y1593910D01*
X25496340Y1760102D01*
X25561219Y1920969D01*
X25636607Y2076074D01*
X25722049Y2224979D01*
X25817091Y2367244D01*
X25921278Y2502433D01*
X26034155Y2630106D01*
X26155267Y2749827D01*
X26284160Y2861155D01*
X26420378Y2963654D01*
X26563468Y3056885D01*
X26712974Y3140410D01*
X26868442Y3213790D01*
X27029417Y3276588D01*
X27195443Y3328365D01*
X27366067Y3368683D01*
X27432000Y3380905D01*
X27484232Y3389640D01*
X27529989Y3396661D01*
X27571710Y3402151D01*
X27611832Y3406292D01*
X27652791Y3409265D01*
X27697027Y3411253D01*
X27746975Y3412437D01*
X27805073Y3413000D01*
X27863800Y3413125D01*
X27929909Y3412967D01*
G36*
X43278593Y1466776D02*
X43323848Y1466565D01*
X43363288Y1466235D01*
X43395417Y1465804D01*
X43418739Y1465292D01*
X43431757Y1464716D01*
X43434000Y1464347D01*
X43431783Y1457117D01*
X43425352Y1438895D01*
X43415036Y1410544D01*
X43401163Y1372932D01*
X43384063Y1326924D01*
X43364063Y1273387D01*
X43341494Y1213187D01*
X43316683Y1147189D01*
X43289959Y1076259D01*
X43261651Y1001264D01*
X43232089Y923070D01*
X43201600Y842542D01*
X43170514Y760547D01*
X43139159Y677951D01*
X43107864Y595620D01*
X43076958Y514419D01*
X43046770Y435215D01*
X43017628Y358874D01*
X42989862Y286262D01*
X42963799Y218245D01*
X42939770Y155689D01*
X42918102Y99460D01*
X42899124Y50424D01*
X42883166Y9446D01*
X42870555Y-22606D01*
X42861622Y-44867D01*
X42856694Y-56471D01*
X42856365Y-57150D01*
X42816408Y-127392D01*
X42772909Y-185673D01*
X42725495Y-232325D01*
X42673795Y-267685D01*
X42617437Y-292087D01*
X42586275Y-300533D01*
X42540446Y-308082D01*
X42487846Y-312635D01*
X42434106Y-313928D01*
X42384857Y-311695D01*
X42373682Y-310528D01*
X42307437Y-298860D01*
X42241194Y-279139D01*
X42221150Y-271705D01*
X42194351Y-260729D01*
X42167759Y-248752D01*
X42143924Y-237059D01*
X42125397Y-226932D01*
X42114728Y-219652D01*
X42113133Y-217396D01*
X42115708Y-209492D01*
X42122903Y-192409D01*
X42133802Y-168056D01*
X42147491Y-138341D01*
X42163057Y-105172D01*
X42179586Y-70458D01*
X42196163Y-36108D01*
X42211875Y-4031D01*
X42225807Y23865D01*
X42237046Y45671D01*
X42244676Y59478D01*
X42247651Y63500D01*
X42256076Y60821D01*
X42271744Y53926D01*
X42284754Y47573D01*
X42336320Y26414D01*
X42386546Y15430D01*
X42433489Y14928D01*
X42459275Y19788D01*
X42479960Y29463D01*
X42501666Y45718D01*
X42520664Y65091D01*
X42533229Y84119D01*
X42535576Y90678D01*
X42533844Y99225D01*
X42527354Y119546D01*
X42516107Y151640D01*
X42500105Y195505D01*
X42479347Y251141D01*
X42453834Y318545D01*
X42423566Y397716D01*
X42388545Y488655D01*
X42348769Y591358D01*
X42304241Y705825D01*
X42275300Y780004D01*
X42240783Y868436D01*
X42207586Y953589D01*
X42175997Y1034713D01*
X42146307Y1111059D01*
X42118807Y1181877D01*
X42093785Y1246417D01*
X42071534Y1303930D01*
X42052341Y1353666D01*
X42036499Y1394877D01*
X42024297Y1426812D01*
X42016025Y1448721D01*
X42011973Y1459856D01*
X42011600Y1461128D01*
X42017780Y1462681D01*
X42035652Y1463928D01*
X42064208Y1464851D01*
X42102442Y1465427D01*
X42149349Y1465637D01*
X42203923Y1465460D01*
X42219035Y1465350D01*
X42426470Y1463675D01*
X42730806Y550655D01*
X42834609Y873815D01*
X42856086Y940712D01*
X42877797Y1008397D01*
X42899160Y1075052D01*
X42919593Y1138863D01*
X42938516Y1198014D01*
X42955347Y1250688D01*
X42969506Y1295071D01*
X42980410Y1329345D01*
X42981226Y1331913D01*
X43024039Y1466850D01*
X43229019Y1466850D01*
X43278593Y1466776D01*
X43278593Y1466776D01*
G37*
X43278593Y1466776D02*
X43323848Y1466565D01*
X43363288Y1466235D01*
X43395417Y1465804D01*
X43418739Y1465292D01*
X43431757Y1464716D01*
X43434000Y1464347D01*
X43431783Y1457117D01*
X43425352Y1438895D01*
X43415036Y1410544D01*
X43401163Y1372932D01*
X43384063Y1326924D01*
X43364063Y1273387D01*
X43341494Y1213187D01*
X43316683Y1147189D01*
X43289959Y1076259D01*
X43261651Y1001264D01*
X43232089Y923070D01*
X43201600Y842542D01*
X43170514Y760547D01*
X43139159Y677951D01*
X43107864Y595620D01*
X43076958Y514419D01*
X43046770Y435215D01*
X43017628Y358874D01*
X42989862Y286262D01*
X42963799Y218245D01*
X42939770Y155689D01*
X42918102Y99460D01*
X42899124Y50424D01*
X42883166Y9446D01*
X42870555Y-22606D01*
X42861622Y-44867D01*
X42856694Y-56471D01*
X42856365Y-57150D01*
X42816408Y-127392D01*
X42772909Y-185673D01*
X42725495Y-232325D01*
X42673795Y-267685D01*
X42617437Y-292087D01*
X42586275Y-300533D01*
X42540446Y-308082D01*
X42487846Y-312635D01*
X42434106Y-313928D01*
X42384857Y-311695D01*
X42373682Y-310528D01*
X42307437Y-298860D01*
X42241194Y-279139D01*
X42221150Y-271705D01*
X42194351Y-260729D01*
X42167759Y-248752D01*
X42143924Y-237059D01*
X42125397Y-226932D01*
X42114728Y-219652D01*
X42113133Y-217396D01*
X42115708Y-209492D01*
X42122903Y-192409D01*
X42133802Y-168056D01*
X42147491Y-138341D01*
X42163057Y-105172D01*
X42179586Y-70458D01*
X42196163Y-36108D01*
X42211875Y-4031D01*
X42225807Y23865D01*
X42237046Y45671D01*
X42244676Y59478D01*
X42247651Y63500D01*
X42256076Y60821D01*
X42271744Y53926D01*
X42284754Y47573D01*
X42336320Y26414D01*
X42386546Y15430D01*
X42433489Y14928D01*
X42459275Y19788D01*
X42479960Y29463D01*
X42501666Y45718D01*
X42520664Y65091D01*
X42533229Y84119D01*
X42535576Y90678D01*
X42533844Y99225D01*
X42527354Y119546D01*
X42516107Y151640D01*
X42500105Y195505D01*
X42479347Y251141D01*
X42453834Y318545D01*
X42423566Y397716D01*
X42388545Y488655D01*
X42348769Y591358D01*
X42304241Y705825D01*
X42275300Y780004D01*
X42240783Y868436D01*
X42207586Y953589D01*
X42175997Y1034713D01*
X42146307Y1111059D01*
X42118807Y1181877D01*
X42093785Y1246417D01*
X42071534Y1303930D01*
X42052341Y1353666D01*
X42036499Y1394877D01*
X42024297Y1426812D01*
X42016025Y1448721D01*
X42011973Y1459856D01*
X42011600Y1461128D01*
X42017780Y1462681D01*
X42035652Y1463928D01*
X42064208Y1464851D01*
X42102442Y1465427D01*
X42149349Y1465637D01*
X42203923Y1465460D01*
X42219035Y1465350D01*
X42426470Y1463675D01*
X42730806Y550655D01*
X42834609Y873815D01*
X42856086Y940712D01*
X42877797Y1008397D01*
X42899160Y1075052D01*
X42919593Y1138863D01*
X42938516Y1198014D01*
X42955347Y1250688D01*
X42969506Y1295071D01*
X42980410Y1329345D01*
X42981226Y1331913D01*
X43024039Y1466850D01*
X43229019Y1466850D01*
X43278593Y1466776D01*
G36*
X31575910Y1488534D02*
X31663012Y1475857D01*
X31742755Y1454353D01*
X31816461Y1423519D01*
X31885455Y1382852D01*
X31951059Y1331850D01*
X31983962Y1301381D01*
X32024250Y1262029D01*
X31986772Y1223152D01*
X31970121Y1205727D01*
X31947032Y1181353D01*
X31919717Y1152377D01*
X31890390Y1121145D01*
X31864915Y1093916D01*
X31780537Y1003556D01*
X31737027Y1042993D01*
X31688142Y1083558D01*
X31641645Y1113704D01*
X31594896Y1134673D01*
X31545256Y1147708D01*
X31503030Y1153152D01*
X31438726Y1152609D01*
X31378808Y1140151D01*
X31323394Y1115821D01*
X31272600Y1079666D01*
X31246544Y1054618D01*
X31205231Y1002654D01*
X31174894Y945642D01*
X31155216Y882730D01*
X31145882Y813069D01*
X31144970Y781050D01*
X31150505Y709226D01*
X31166893Y642455D01*
X31193767Y581680D01*
X31230762Y527845D01*
X31252194Y504561D01*
X31297903Y466086D01*
X31347067Y438402D01*
X31401422Y420842D01*
X31462704Y412739D01*
X31493030Y412000D01*
X31553854Y417169D01*
X31611880Y432581D01*
X31668746Y458884D01*
X31726090Y496730D01*
X31746118Y512449D01*
X31765493Y528089D01*
X31781902Y541062D01*
X31792116Y548820D01*
X31792766Y549275D01*
X31797521Y549432D01*
X31805803Y544842D01*
X31818519Y534691D01*
X31836575Y518164D01*
X31860876Y494447D01*
X31892328Y462726D01*
X31915935Y438561D01*
X32029847Y321496D01*
X31993111Y284181D01*
X31940661Y235979D01*
X31882680Y191576D01*
X31822198Y152952D01*
X31762249Y122086D01*
X31718589Y104928D01*
X31665076Y90659D01*
X31603152Y79935D01*
X31536675Y73019D01*
X31469502Y70173D01*
X31405492Y71661D01*
X31348501Y77746D01*
X31340425Y79139D01*
X31249381Y101760D01*
X31162855Y135088D01*
X31082109Y178368D01*
X31008403Y230844D01*
X30942997Y291759D01*
X30899359Y343575D01*
X30848611Y420981D01*
X30808946Y502921D01*
X30780242Y588256D01*
X30762375Y675847D01*
X30755220Y764554D01*
X30758655Y853236D01*
X30772556Y940755D01*
X30796798Y1025970D01*
X30831259Y1107743D01*
X30875814Y1184932D01*
X30930340Y1256399D01*
X30994712Y1321003D01*
X31006561Y1331167D01*
X31080353Y1385479D01*
X31158880Y1428500D01*
X31242697Y1460419D01*
X31332359Y1481427D01*
X31428419Y1491711D01*
X31480125Y1492888D01*
X31575910Y1488534D01*
X31575910Y1488534D01*
G37*
X31575910Y1488534D02*
X31663012Y1475857D01*
X31742755Y1454353D01*
X31816461Y1423519D01*
X31885455Y1382852D01*
X31951059Y1331850D01*
X31983962Y1301381D01*
X32024250Y1262029D01*
X31986772Y1223152D01*
X31970121Y1205727D01*
X31947032Y1181353D01*
X31919717Y1152377D01*
X31890390Y1121145D01*
X31864915Y1093916D01*
X31780537Y1003556D01*
X31737027Y1042993D01*
X31688142Y1083558D01*
X31641645Y1113704D01*
X31594896Y1134673D01*
X31545256Y1147708D01*
X31503030Y1153152D01*
X31438726Y1152609D01*
X31378808Y1140151D01*
X31323394Y1115821D01*
X31272600Y1079666D01*
X31246544Y1054618D01*
X31205231Y1002654D01*
X31174894Y945642D01*
X31155216Y882730D01*
X31145882Y813069D01*
X31144970Y781050D01*
X31150505Y709226D01*
X31166893Y642455D01*
X31193767Y581680D01*
X31230762Y527845D01*
X31252194Y504561D01*
X31297903Y466086D01*
X31347067Y438402D01*
X31401422Y420842D01*
X31462704Y412739D01*
X31493030Y412000D01*
X31553854Y417169D01*
X31611880Y432581D01*
X31668746Y458884D01*
X31726090Y496730D01*
X31746118Y512449D01*
X31765493Y528089D01*
X31781902Y541062D01*
X31792116Y548820D01*
X31792766Y549275D01*
X31797521Y549432D01*
X31805803Y544842D01*
X31818519Y534691D01*
X31836575Y518164D01*
X31860876Y494447D01*
X31892328Y462726D01*
X31915935Y438561D01*
X32029847Y321496D01*
X31993111Y284181D01*
X31940661Y235979D01*
X31882680Y191576D01*
X31822198Y152952D01*
X31762249Y122086D01*
X31718589Y104928D01*
X31665076Y90659D01*
X31603152Y79935D01*
X31536675Y73019D01*
X31469502Y70173D01*
X31405492Y71661D01*
X31348501Y77746D01*
X31340425Y79139D01*
X31249381Y101760D01*
X31162855Y135088D01*
X31082109Y178368D01*
X31008403Y230844D01*
X30942997Y291759D01*
X30899359Y343575D01*
X30848611Y420981D01*
X30808946Y502921D01*
X30780242Y588256D01*
X30762375Y675847D01*
X30755220Y764554D01*
X30758655Y853236D01*
X30772556Y940755D01*
X30796798Y1025970D01*
X30831259Y1107743D01*
X30875814Y1184932D01*
X30930340Y1256399D01*
X30994712Y1321003D01*
X31006561Y1331167D01*
X31080353Y1385479D01*
X31158880Y1428500D01*
X31242697Y1460419D01*
X31332359Y1481427D01*
X31428419Y1491711D01*
X31480125Y1492888D01*
X31575910Y1488534D01*
G36*
X32883077Y1491650D02*
X32932790Y1487675D01*
X32967242Y1482677D01*
X33062782Y1458903D01*
X33152057Y1424848D01*
X33234409Y1381063D01*
X33309181Y1328101D01*
X33375712Y1266514D01*
X33433346Y1196854D01*
X33481423Y1119674D01*
X33519286Y1035526D01*
X33527292Y1012825D01*
X33549679Y927083D01*
X33561226Y838194D01*
X33562074Y748197D01*
X33552363Y659132D01*
X33532233Y573037D01*
X33501823Y491951D01*
X33489819Y467150D01*
X33440340Y384118D01*
X33381851Y309948D01*
X33314686Y244904D01*
X33239180Y189249D01*
X33155669Y143247D01*
X33064489Y107162D01*
X33012592Y91998D01*
X32983991Y85107D01*
X32957714Y80160D01*
X32930297Y76765D01*
X32898279Y74529D01*
X32858197Y73059D01*
X32842200Y72666D01*
X32784211Y72201D01*
X32737000Y73744D01*
X32698789Y77372D01*
X32685714Y79409D01*
X32590371Y102154D01*
X32501243Y135350D01*
X32418952Y178348D01*
X32344118Y230496D01*
X32277361Y291142D01*
X32219304Y359637D01*
X32170565Y435329D01*
X32131766Y517566D01*
X32103527Y605700D01*
X32086470Y699077D01*
X32085366Y709028D01*
X32082946Y775336D01*
X32471830Y775336D01*
X32478717Y709570D01*
X32495672Y646577D01*
X32522477Y588167D01*
X32558913Y536155D01*
X32567394Y526618D01*
X32605586Y489332D01*
X32643783Y461011D01*
X32686214Y438647D01*
X32698233Y433530D01*
X32744245Y419903D01*
X32796818Y412817D01*
X32851600Y412323D01*
X32904236Y418470D01*
X32948606Y430630D01*
X33008192Y459445D01*
X33059204Y497131D01*
X33100993Y543115D01*
X33130478Y591725D01*
X33151172Y639813D01*
X33164275Y685600D01*
X33170937Y734183D01*
X33172400Y777875D01*
X33167301Y850050D01*
X33151847Y915159D01*
X33125801Y973811D01*
X33088926Y1026614D01*
X33066119Y1051246D01*
X33014453Y1093955D01*
X32957734Y1125431D01*
X32897147Y1145507D01*
X32833874Y1154014D01*
X32769099Y1150783D01*
X32704005Y1135647D01*
X32645044Y1111158D01*
X32617898Y1093348D01*
X32588235Y1067343D01*
X32559083Y1036375D01*
X32533471Y1003673D01*
X32514428Y972469D01*
X32513769Y971140D01*
X32489137Y907934D01*
X32475231Y842061D01*
X32471830Y775336D01*
X32082946Y775336D01*
X32082065Y799457D01*
X32090527Y890180D01*
X32110269Y979253D01*
X32140809Y1064730D01*
X32181664Y1144668D01*
X32201045Y1175039D01*
X32227562Y1210142D01*
X32261166Y1248773D01*
X32298421Y1287351D01*
X32335891Y1322292D01*
X32365625Y1346668D01*
X32429289Y1388516D01*
X32501607Y1425430D01*
X32578992Y1455864D01*
X32657857Y1478272D01*
X32683176Y1483562D01*
X32724930Y1489208D01*
X32774958Y1492429D01*
X32829070Y1493239D01*
X32883077Y1491650D01*
X32883077Y1491650D01*
G37*
X32883077Y1491650D02*
X32932790Y1487675D01*
X32967242Y1482677D01*
X33062782Y1458903D01*
X33152057Y1424848D01*
X33234409Y1381063D01*
X33309181Y1328101D01*
X33375712Y1266514D01*
X33433346Y1196854D01*
X33481423Y1119674D01*
X33519286Y1035526D01*
X33527292Y1012825D01*
X33549679Y927083D01*
X33561226Y838194D01*
X33562074Y748197D01*
X33552363Y659132D01*
X33532233Y573037D01*
X33501823Y491951D01*
X33489819Y467150D01*
X33440340Y384118D01*
X33381851Y309948D01*
X33314686Y244904D01*
X33239180Y189249D01*
X33155669Y143247D01*
X33064489Y107162D01*
X33012592Y91998D01*
X32983991Y85107D01*
X32957714Y80160D01*
X32930297Y76765D01*
X32898279Y74529D01*
X32858197Y73059D01*
X32842200Y72666D01*
X32784211Y72201D01*
X32737000Y73744D01*
X32698789Y77372D01*
X32685714Y79409D01*
X32590371Y102154D01*
X32501243Y135350D01*
X32418952Y178348D01*
X32344118Y230496D01*
X32277361Y291142D01*
X32219304Y359637D01*
X32170565Y435329D01*
X32131766Y517566D01*
X32103527Y605700D01*
X32086470Y699077D01*
X32085366Y709028D01*
X32082946Y775336D01*
X32471830Y775336D01*
X32478717Y709570D01*
X32495672Y646577D01*
X32522477Y588167D01*
X32558913Y536155D01*
X32567394Y526618D01*
X32605586Y489332D01*
X32643783Y461011D01*
X32686214Y438647D01*
X32698233Y433530D01*
X32744245Y419903D01*
X32796818Y412817D01*
X32851600Y412323D01*
X32904236Y418470D01*
X32948606Y430630D01*
X33008192Y459445D01*
X33059204Y497131D01*
X33100993Y543115D01*
X33130478Y591725D01*
X33151172Y639813D01*
X33164275Y685600D01*
X33170937Y734183D01*
X33172400Y777875D01*
X33167301Y850050D01*
X33151847Y915159D01*
X33125801Y973811D01*
X33088926Y1026614D01*
X33066119Y1051246D01*
X33014453Y1093955D01*
X32957734Y1125431D01*
X32897147Y1145507D01*
X32833874Y1154014D01*
X32769099Y1150783D01*
X32704005Y1135647D01*
X32645044Y1111158D01*
X32617898Y1093348D01*
X32588235Y1067343D01*
X32559083Y1036375D01*
X32533471Y1003673D01*
X32514428Y972469D01*
X32513769Y971140D01*
X32489137Y907934D01*
X32475231Y842061D01*
X32471830Y775336D01*
X32082946Y775336D01*
X32082065Y799457D01*
X32090527Y890180D01*
X32110269Y979253D01*
X32140809Y1064730D01*
X32181664Y1144668D01*
X32201045Y1175039D01*
X32227562Y1210142D01*
X32261166Y1248773D01*
X32298421Y1287351D01*
X32335891Y1322292D01*
X32365625Y1346668D01*
X32429289Y1388516D01*
X32501607Y1425430D01*
X32578992Y1455864D01*
X32657857Y1478272D01*
X32683176Y1483562D01*
X32724930Y1489208D01*
X32774958Y1492429D01*
X32829070Y1493239D01*
X32883077Y1491650D01*
G36*
X37127701Y1490248D02*
X37179096Y1486521D01*
X37224814Y1480784D01*
X37258625Y1473858D01*
X37341920Y1445474D01*
X37418387Y1406575D01*
X37487662Y1357572D01*
X37549386Y1298878D01*
X37603196Y1230908D01*
X37648731Y1154074D01*
X37685631Y1068789D01*
X37713532Y975466D01*
X37720009Y946376D01*
X37723978Y922062D01*
X37727657Y890251D01*
X37730927Y853363D01*
X37733666Y813821D01*
X37735754Y774047D01*
X37737069Y736462D01*
X37737492Y703489D01*
X37736900Y677549D01*
X37735174Y661065D01*
X37734383Y658235D01*
X37732867Y656249D01*
X37729386Y654527D01*
X37723091Y653052D01*
X37713137Y651804D01*
X37698675Y650765D01*
X37678859Y649915D01*
X37652842Y649236D01*
X37619775Y648710D01*
X37578814Y648317D01*
X37529109Y648039D01*
X37469814Y647858D01*
X37400082Y647753D01*
X37319066Y647708D01*
X37257945Y647700D01*
X37181745Y647680D01*
X37109354Y647620D01*
X37041757Y647523D01*
X36979942Y647394D01*
X36924892Y647236D01*
X36877593Y647052D01*
X36839031Y646844D01*
X36810192Y646617D01*
X36792060Y646374D01*
X36785621Y646119D01*
X36785618Y646113D01*
X36788476Y633223D01*
X36795398Y612674D01*
X36804922Y588240D01*
X36815584Y563698D01*
X36824984Y544558D01*
X36858242Y495031D01*
X36900102Y454543D01*
X36949954Y423393D01*
X37007186Y401877D01*
X37071189Y390293D01*
X37141353Y388939D01*
X37144056Y389088D01*
X37213371Y398515D01*
X37279092Y418873D01*
X37342601Y450731D01*
X37405282Y494657D01*
X37410165Y498599D01*
X37445960Y527757D01*
X37556628Y430566D01*
X37588106Y402657D01*
X37616141Y377294D01*
X37639386Y355736D01*
X37656496Y339245D01*
X37666123Y329079D01*
X37667748Y326587D01*
X37663453Y318772D01*
X37651295Y304616D01*
X37633172Y285903D01*
X37610980Y264417D01*
X37586618Y241943D01*
X37561982Y220265D01*
X37538971Y201167D01*
X37519481Y186433D01*
X37516554Y184423D01*
X37440164Y140537D01*
X37356573Y106649D01*
X37266932Y83189D01*
X37226875Y76422D01*
X37189449Y72819D01*
X37143804Y71035D01*
X37094280Y71013D01*
X37045219Y72696D01*
X37000962Y76028D01*
X36972475Y79750D01*
X36879425Y101188D01*
X36793310Y133164D01*
X36713609Y175936D01*
X36639801Y229762D01*
X36603546Y262236D01*
X36541346Y330355D01*
X36489668Y405512D01*
X36448675Y487399D01*
X36418528Y575709D01*
X36403935Y641350D01*
X36399210Y679265D01*
X36396460Y725620D01*
X36395649Y776472D01*
X36396743Y827877D01*
X36399706Y875894D01*
X36402000Y895350D01*
X36780388Y895350D01*
X37065544Y895350D01*
X37133241Y895375D01*
X37189324Y895477D01*
X37234880Y895700D01*
X37270992Y896084D01*
X37298749Y896673D01*
X37319235Y897509D01*
X37333536Y898634D01*
X37342738Y900091D01*
X37347928Y901922D01*
X37350191Y904168D01*
X37350624Y906463D01*
X37348094Y924986D01*
X37341526Y950874D01*
X37332179Y979949D01*
X37321311Y1008033D01*
X37317302Y1017025D01*
X37287395Y1069195D01*
X37250990Y1110710D01*
X37207409Y1142204D01*
X37161239Y1162589D01*
X37138984Y1169193D01*
X37117784Y1172974D01*
X37093269Y1174397D01*
X37061067Y1173924D01*
X37056097Y1173748D01*
X37024513Y1172156D01*
X37001404Y1169534D01*
X36982542Y1164975D01*
X36963704Y1157572D01*
X36949714Y1150927D01*
X36903337Y1121132D01*
X36862765Y1080701D01*
X36828675Y1030615D01*
X36801743Y971858D01*
X36783566Y909638D01*
X36780388Y895350D01*
X36402000Y895350D01*
X36404504Y916578D01*
X36406479Y927698D01*
X36430939Y1021753D01*
X36465437Y1109137D01*
X36509396Y1189248D01*
X36562240Y1261484D01*
X36623395Y1325242D01*
X36692284Y1379920D01*
X36768333Y1424917D01*
X36850966Y1459631D01*
X36937350Y1483007D01*
X36975456Y1488344D01*
X37022282Y1491262D01*
X37074230Y1491863D01*
X37127701Y1490248D01*
X37127701Y1490248D01*
G37*
X37127701Y1490248D02*
X37179096Y1486521D01*
X37224814Y1480784D01*
X37258625Y1473858D01*
X37341920Y1445474D01*
X37418387Y1406575D01*
X37487662Y1357572D01*
X37549386Y1298878D01*
X37603196Y1230908D01*
X37648731Y1154074D01*
X37685631Y1068789D01*
X37713532Y975466D01*
X37720009Y946376D01*
X37723978Y922062D01*
X37727657Y890251D01*
X37730927Y853363D01*
X37733666Y813821D01*
X37735754Y774047D01*
X37737069Y736462D01*
X37737492Y703489D01*
X37736900Y677549D01*
X37735174Y661065D01*
X37734383Y658235D01*
X37732867Y656249D01*
X37729386Y654527D01*
X37723091Y653052D01*
X37713137Y651804D01*
X37698675Y650765D01*
X37678859Y649915D01*
X37652842Y649236D01*
X37619775Y648710D01*
X37578814Y648317D01*
X37529109Y648039D01*
X37469814Y647858D01*
X37400082Y647753D01*
X37319066Y647708D01*
X37257945Y647700D01*
X37181745Y647680D01*
X37109354Y647620D01*
X37041757Y647523D01*
X36979942Y647394D01*
X36924892Y647236D01*
X36877593Y647052D01*
X36839031Y646844D01*
X36810192Y646617D01*
X36792060Y646374D01*
X36785621Y646119D01*
X36785618Y646113D01*
X36788476Y633223D01*
X36795398Y612674D01*
X36804922Y588240D01*
X36815584Y563698D01*
X36824984Y544558D01*
X36858242Y495031D01*
X36900102Y454543D01*
X36949954Y423393D01*
X37007186Y401877D01*
X37071189Y390293D01*
X37141353Y388939D01*
X37144056Y389088D01*
X37213371Y398515D01*
X37279092Y418873D01*
X37342601Y450731D01*
X37405282Y494657D01*
X37410165Y498599D01*
X37445960Y527757D01*
X37556628Y430566D01*
X37588106Y402657D01*
X37616141Y377294D01*
X37639386Y355736D01*
X37656496Y339245D01*
X37666123Y329079D01*
X37667748Y326587D01*
X37663453Y318772D01*
X37651295Y304616D01*
X37633172Y285903D01*
X37610980Y264417D01*
X37586618Y241943D01*
X37561982Y220265D01*
X37538971Y201167D01*
X37519481Y186433D01*
X37516554Y184423D01*
X37440164Y140537D01*
X37356573Y106649D01*
X37266932Y83189D01*
X37226875Y76422D01*
X37189449Y72819D01*
X37143804Y71035D01*
X37094280Y71013D01*
X37045219Y72696D01*
X37000962Y76028D01*
X36972475Y79750D01*
X36879425Y101188D01*
X36793310Y133164D01*
X36713609Y175936D01*
X36639801Y229762D01*
X36603546Y262236D01*
X36541346Y330355D01*
X36489668Y405512D01*
X36448675Y487399D01*
X36418528Y575709D01*
X36403935Y641350D01*
X36399210Y679265D01*
X36396460Y725620D01*
X36395649Y776472D01*
X36396743Y827877D01*
X36399706Y875894D01*
X36402000Y895350D01*
X36780388Y895350D01*
X37065544Y895350D01*
X37133241Y895375D01*
X37189324Y895477D01*
X37234880Y895700D01*
X37270992Y896084D01*
X37298749Y896673D01*
X37319235Y897509D01*
X37333536Y898634D01*
X37342738Y900091D01*
X37347928Y901922D01*
X37350191Y904168D01*
X37350624Y906463D01*
X37348094Y924986D01*
X37341526Y950874D01*
X37332179Y979949D01*
X37321311Y1008033D01*
X37317302Y1017025D01*
X37287395Y1069195D01*
X37250990Y1110710D01*
X37207409Y1142204D01*
X37161239Y1162589D01*
X37138984Y1169193D01*
X37117784Y1172974D01*
X37093269Y1174397D01*
X37061067Y1173924D01*
X37056097Y1173748D01*
X37024513Y1172156D01*
X37001404Y1169534D01*
X36982542Y1164975D01*
X36963704Y1157572D01*
X36949714Y1150927D01*
X36903337Y1121132D01*
X36862765Y1080701D01*
X36828675Y1030615D01*
X36801743Y971858D01*
X36783566Y909638D01*
X36780388Y895350D01*
X36402000Y895350D01*
X36404504Y916578D01*
X36406479Y927698D01*
X36430939Y1021753D01*
X36465437Y1109137D01*
X36509396Y1189248D01*
X36562240Y1261484D01*
X36623395Y1325242D01*
X36692284Y1379920D01*
X36768333Y1424917D01*
X36850966Y1459631D01*
X36937350Y1483007D01*
X36975456Y1488344D01*
X37022282Y1491262D01*
X37074230Y1491863D01*
X37127701Y1490248D01*
G36*
X35780067Y1488408D02*
X35868008Y1478797D01*
X35958859Y1459562D01*
X36051842Y1430518D01*
X36055300Y1429257D01*
X36082025Y1418566D01*
X36112521Y1404935D01*
X36144413Y1389599D01*
X36175323Y1373791D01*
X36202879Y1358743D01*
X36224704Y1345689D01*
X36238423Y1335863D01*
X36241469Y1332596D01*
X36240905Y1324729D01*
X36234565Y1307955D01*
X36222230Y1281812D01*
X36203681Y1245841D01*
X36178700Y1199580D01*
X36175478Y1193713D01*
X36155154Y1156803D01*
X36136894Y1123734D01*
X36121576Y1096088D01*
X36110080Y1075452D01*
X36103285Y1063409D01*
X36101828Y1060963D01*
X36095689Y1062633D01*
X36080155Y1068994D01*
X36057243Y1079162D01*
X36028968Y1092255D01*
X36012420Y1100116D01*
X35977051Y1116544D01*
X35940990Y1132410D01*
X35907930Y1146142D01*
X35881565Y1156173D01*
X35876214Y1157997D01*
X35819280Y1173633D01*
X35766349Y1182213D01*
X35718474Y1183969D01*
X35676708Y1179135D01*
X35642107Y1167944D01*
X35615722Y1150630D01*
X35598609Y1127425D01*
X35591821Y1098564D01*
X35591750Y1095006D01*
X35595412Y1069533D01*
X35607569Y1048974D01*
X35627359Y1031567D01*
X35658981Y1012400D01*
X35702597Y991397D01*
X35758373Y968479D01*
X35826471Y943571D01*
X35845750Y936919D01*
X35922410Y909548D01*
X35987774Y883531D01*
X36043093Y858280D01*
X36089621Y833207D01*
X36128611Y807723D01*
X36141268Y798159D01*
X36190084Y754039D01*
X36227361Y706936D01*
X36253818Y655339D01*
X36270170Y597738D01*
X36277138Y532622D01*
X36277505Y511429D01*
X36272032Y434611D01*
X36255865Y364534D01*
X36229208Y301422D01*
X36192271Y245502D01*
X36145260Y197001D01*
X36088381Y156143D01*
X36021843Y123156D01*
X35945852Y98266D01*
X35887780Y85889D01*
X35858271Y82214D01*
X35820105Y79453D01*
X35777162Y77692D01*
X35733326Y77015D01*
X35692479Y77508D01*
X35658502Y79256D01*
X35645725Y80573D01*
X35570371Y93903D01*
X35491493Y114225D01*
X35414483Y139952D01*
X35346588Y168609D01*
X35322028Y181170D01*
X35293541Y197062D01*
X35263424Y214844D01*
X35233976Y233074D01*
X35207496Y250311D01*
X35186282Y265113D01*
X35172633Y276038D01*
X35169177Y279883D01*
X35171583Y286343D01*
X35179853Y301576D01*
X35192838Y323763D01*
X35209388Y351088D01*
X35228354Y381733D01*
X35248588Y413883D01*
X35268941Y445719D01*
X35288262Y475426D01*
X35305404Y501186D01*
X35319218Y521183D01*
X35328554Y533599D01*
X35331584Y536689D01*
X35338574Y534701D01*
X35353900Y527027D01*
X35375254Y514909D01*
X35398694Y500615D01*
X35473684Y458208D01*
X35550554Y423609D01*
X35625452Y398553D01*
X35625626Y398506D01*
X35653634Y391847D01*
X35681445Y387553D01*
X35713129Y385194D01*
X35752758Y384340D01*
X35760025Y384315D01*
X35794946Y384471D01*
X35819990Y385323D01*
X35837978Y387241D01*
X35851728Y390595D01*
X35864060Y395755D01*
X35869811Y398719D01*
X35898129Y419975D01*
X35915715Y447323D01*
X35921922Y479748D01*
X35921926Y480526D01*
X35918533Y503308D01*
X35907649Y523698D01*
X35888278Y542426D01*
X35859424Y560218D01*
X35820094Y577801D01*
X35769292Y595904D01*
X35760025Y598899D01*
X35699116Y618395D01*
X35648946Y634548D01*
X35608139Y647831D01*
X35575321Y658716D01*
X35549118Y667674D01*
X35528153Y675179D01*
X35511052Y681701D01*
X35496440Y687714D01*
X35482942Y693689D01*
X35479850Y695108D01*
X35410722Y732896D01*
X35352270Y777548D01*
X35323814Y805978D01*
X35288594Y850805D01*
X35263094Y897668D01*
X35246477Y948940D01*
X35237905Y1006993D01*
X35236243Y1053847D01*
X35239314Y1116485D01*
X35248781Y1171044D01*
X35265312Y1220781D01*
X35274692Y1241362D01*
X35311335Y1301989D01*
X35357114Y1354491D01*
X35411251Y1398682D01*
X35472968Y1434374D01*
X35541486Y1461380D01*
X35616027Y1479513D01*
X35695814Y1488585D01*
X35780067Y1488408D01*
X35780067Y1488408D01*
G37*
X35780067Y1488408D02*
X35868008Y1478797D01*
X35958859Y1459562D01*
X36051842Y1430518D01*
X36055300Y1429257D01*
X36082025Y1418566D01*
X36112521Y1404935D01*
X36144413Y1389599D01*
X36175323Y1373791D01*
X36202879Y1358743D01*
X36224704Y1345689D01*
X36238423Y1335863D01*
X36241469Y1332596D01*
X36240905Y1324729D01*
X36234565Y1307955D01*
X36222230Y1281812D01*
X36203681Y1245841D01*
X36178700Y1199580D01*
X36175478Y1193713D01*
X36155154Y1156803D01*
X36136894Y1123734D01*
X36121576Y1096088D01*
X36110080Y1075452D01*
X36103285Y1063409D01*
X36101828Y1060963D01*
X36095689Y1062633D01*
X36080155Y1068994D01*
X36057243Y1079162D01*
X36028968Y1092255D01*
X36012420Y1100116D01*
X35977051Y1116544D01*
X35940990Y1132410D01*
X35907930Y1146142D01*
X35881565Y1156173D01*
X35876214Y1157997D01*
X35819280Y1173633D01*
X35766349Y1182213D01*
X35718474Y1183969D01*
X35676708Y1179135D01*
X35642107Y1167944D01*
X35615722Y1150630D01*
X35598609Y1127425D01*
X35591821Y1098564D01*
X35591750Y1095006D01*
X35595412Y1069533D01*
X35607569Y1048974D01*
X35627359Y1031567D01*
X35658981Y1012400D01*
X35702597Y991397D01*
X35758373Y968479D01*
X35826471Y943571D01*
X35845750Y936919D01*
X35922410Y909548D01*
X35987774Y883531D01*
X36043093Y858280D01*
X36089621Y833207D01*
X36128611Y807723D01*
X36141268Y798159D01*
X36190084Y754039D01*
X36227361Y706936D01*
X36253818Y655339D01*
X36270170Y597738D01*
X36277138Y532622D01*
X36277505Y511429D01*
X36272032Y434611D01*
X36255865Y364534D01*
X36229208Y301422D01*
X36192271Y245502D01*
X36145260Y197001D01*
X36088381Y156143D01*
X36021843Y123156D01*
X35945852Y98266D01*
X35887780Y85889D01*
X35858271Y82214D01*
X35820105Y79453D01*
X35777162Y77692D01*
X35733326Y77015D01*
X35692479Y77508D01*
X35658502Y79256D01*
X35645725Y80573D01*
X35570371Y93903D01*
X35491493Y114225D01*
X35414483Y139952D01*
X35346588Y168609D01*
X35322028Y181170D01*
X35293541Y197062D01*
X35263424Y214844D01*
X35233976Y233074D01*
X35207496Y250311D01*
X35186282Y265113D01*
X35172633Y276038D01*
X35169177Y279883D01*
X35171583Y286343D01*
X35179853Y301576D01*
X35192838Y323763D01*
X35209388Y351088D01*
X35228354Y381733D01*
X35248588Y413883D01*
X35268941Y445719D01*
X35288262Y475426D01*
X35305404Y501186D01*
X35319218Y521183D01*
X35328554Y533599D01*
X35331584Y536689D01*
X35338574Y534701D01*
X35353900Y527027D01*
X35375254Y514909D01*
X35398694Y500615D01*
X35473684Y458208D01*
X35550554Y423609D01*
X35625452Y398553D01*
X35625626Y398506D01*
X35653634Y391847D01*
X35681445Y387553D01*
X35713129Y385194D01*
X35752758Y384340D01*
X35760025Y384315D01*
X35794946Y384471D01*
X35819990Y385323D01*
X35837978Y387241D01*
X35851728Y390595D01*
X35864060Y395755D01*
X35869811Y398719D01*
X35898129Y419975D01*
X35915715Y447323D01*
X35921922Y479748D01*
X35921926Y480526D01*
X35918533Y503308D01*
X35907649Y523698D01*
X35888278Y542426D01*
X35859424Y560218D01*
X35820094Y577801D01*
X35769292Y595904D01*
X35760025Y598899D01*
X35699116Y618395D01*
X35648946Y634548D01*
X35608139Y647831D01*
X35575321Y658716D01*
X35549118Y667674D01*
X35528153Y675179D01*
X35511052Y681701D01*
X35496440Y687714D01*
X35482942Y693689D01*
X35479850Y695108D01*
X35410722Y732896D01*
X35352270Y777548D01*
X35323814Y805978D01*
X35288594Y850805D01*
X35263094Y897668D01*
X35246477Y948940D01*
X35237905Y1006993D01*
X35236243Y1053847D01*
X35239314Y1116485D01*
X35248781Y1171044D01*
X35265312Y1220781D01*
X35274692Y1241362D01*
X35311335Y1301989D01*
X35357114Y1354491D01*
X35411251Y1398682D01*
X35472968Y1434374D01*
X35541486Y1461380D01*
X35616027Y1479513D01*
X35695814Y1488585D01*
X35780067Y1488408D01*
G36*
X40289068Y1430338D02*
X40284909Y1419585D01*
X40276444Y1397816D01*
X40263990Y1365843D01*
X40247863Y1324478D01*
X40228382Y1274534D01*
X40205862Y1216822D01*
X40180621Y1152155D01*
X40152976Y1081346D01*
X40123244Y1005206D01*
X40091742Y924548D01*
X40058787Y840184D01*
X40024696Y752927D01*
X40020797Y742950D01*
X39766476Y92075D01*
X39587126Y90389D01*
X39534563Y89942D01*
X39493297Y89754D01*
X39461928Y89898D01*
X39439055Y90446D01*
X39423275Y91471D01*
X39413189Y93046D01*
X39407396Y95243D01*
X39404493Y98136D01*
X39403670Y99914D01*
X39400861Y107199D01*
X39393728Y125553D01*
X39382567Y154219D01*
X39367675Y192436D01*
X39349347Y239444D01*
X39327880Y294485D01*
X39303571Y356798D01*
X39276715Y425624D01*
X39247609Y500205D01*
X39216549Y579779D01*
X39183831Y663587D01*
X39149752Y750871D01*
X39137132Y783192D01*
X39102702Y871414D01*
X39069591Y956356D01*
X39038091Y1037265D01*
X39008491Y1113391D01*
X38981082Y1183981D01*
X38956157Y1248285D01*
X38934004Y1305552D01*
X38914916Y1355030D01*
X38899183Y1395967D01*
X38887095Y1427613D01*
X38878945Y1449216D01*
X38875021Y1460025D01*
X38874700Y1461141D01*
X38880877Y1462684D01*
X38898729Y1463926D01*
X38927230Y1464846D01*
X38965357Y1465422D01*
X39012086Y1465635D01*
X39066395Y1465464D01*
X39082135Y1465350D01*
X39289570Y1463675D01*
X39438565Y1016685D01*
X39465710Y935549D01*
X39490834Y861053D01*
X39513714Y793836D01*
X39534124Y734539D01*
X39551841Y683800D01*
X39566640Y642259D01*
X39578297Y610555D01*
X39586588Y589328D01*
X39591288Y579216D01*
X39592226Y578535D01*
X39594966Y585867D01*
X39601414Y604271D01*
X39611239Y632780D01*
X39624114Y670424D01*
X39639708Y716235D01*
X39657693Y769245D01*
X39677739Y828484D01*
X39699517Y892984D01*
X39722698Y961777D01*
X39744675Y1027113D01*
X39892458Y1466850D01*
X40303017Y1466850D01*
X40289068Y1430338D01*
X40289068Y1430338D01*
G37*
X40289068Y1430338D02*
X40284909Y1419585D01*
X40276444Y1397816D01*
X40263990Y1365843D01*
X40247863Y1324478D01*
X40228382Y1274534D01*
X40205862Y1216822D01*
X40180621Y1152155D01*
X40152976Y1081346D01*
X40123244Y1005206D01*
X40091742Y924548D01*
X40058787Y840184D01*
X40024696Y752927D01*
X40020797Y742950D01*
X39766476Y92075D01*
X39587126Y90389D01*
X39534563Y89942D01*
X39493297Y89754D01*
X39461928Y89898D01*
X39439055Y90446D01*
X39423275Y91471D01*
X39413189Y93046D01*
X39407396Y95243D01*
X39404493Y98136D01*
X39403670Y99914D01*
X39400861Y107199D01*
X39393728Y125553D01*
X39382567Y154219D01*
X39367675Y192436D01*
X39349347Y239444D01*
X39327880Y294485D01*
X39303571Y356798D01*
X39276715Y425624D01*
X39247609Y500205D01*
X39216549Y579779D01*
X39183831Y663587D01*
X39149752Y750871D01*
X39137132Y783192D01*
X39102702Y871414D01*
X39069591Y956356D01*
X39038091Y1037265D01*
X39008491Y1113391D01*
X38981082Y1183981D01*
X38956157Y1248285D01*
X38934004Y1305552D01*
X38914916Y1355030D01*
X38899183Y1395967D01*
X38887095Y1427613D01*
X38878945Y1449216D01*
X38875021Y1460025D01*
X38874700Y1461141D01*
X38880877Y1462684D01*
X38898729Y1463926D01*
X38927230Y1464846D01*
X38965357Y1465422D01*
X39012086Y1465635D01*
X39066395Y1465464D01*
X39082135Y1465350D01*
X39289570Y1463675D01*
X39438565Y1016685D01*
X39465710Y935549D01*
X39490834Y861053D01*
X39513714Y793836D01*
X39534124Y734539D01*
X39551841Y683800D01*
X39566640Y642259D01*
X39578297Y610555D01*
X39586588Y589328D01*
X39591288Y579216D01*
X39592226Y578535D01*
X39594966Y585867D01*
X39601414Y604271D01*
X39611239Y632780D01*
X39624114Y670424D01*
X39639708Y716235D01*
X39657693Y769245D01*
X39677739Y828484D01*
X39699517Y892984D01*
X39722698Y961777D01*
X39744675Y1027113D01*
X39892458Y1466850D01*
X40303017Y1466850D01*
X40289068Y1430338D01*
G36*
X34582286Y1488890D02*
X34613803Y1488157D01*
X34638130Y1486614D01*
X34658017Y1483998D01*
X34676219Y1480046D01*
X34695489Y1474495D01*
X34696400Y1474211D01*
X34753433Y1452906D01*
X34802053Y1426484D01*
X34846242Y1392602D01*
X34865256Y1374775D01*
X34912336Y1319422D01*
X34949805Y1255887D01*
X34977532Y1184437D01*
X34994633Y1110058D01*
X34995927Y1095516D01*
X34997098Y1068843D01*
X34998141Y1030606D01*
X34999047Y981376D01*
X34999810Y921719D01*
X35000422Y852204D01*
X35000876Y773401D01*
X35001165Y685876D01*
X35001281Y590198D01*
X35001282Y587375D01*
X35001392Y104775D01*
X34804446Y103098D01*
X34607500Y101420D01*
X34607500Y516101D01*
X34607481Y602674D01*
X34607385Y677541D01*
X34607148Y741697D01*
X34606711Y796136D01*
X34606011Y841852D01*
X34604987Y879839D01*
X34603576Y911093D01*
X34601718Y936606D01*
X34599350Y957374D01*
X34596412Y974390D01*
X34592841Y988649D01*
X34588576Y1001146D01*
X34583555Y1012874D01*
X34577718Y1024827D01*
X34575737Y1028726D01*
X34550793Y1064797D01*
X34516322Y1095955D01*
X34481049Y1116835D01*
X34463011Y1124583D01*
X34446339Y1129496D01*
X34427217Y1132197D01*
X34401831Y1133305D01*
X34378900Y1133465D01*
X34347001Y1133086D01*
X34323983Y1131535D01*
X34306041Y1128197D01*
X34289368Y1122454D01*
X34277010Y1116953D01*
X34233963Y1091829D01*
X34201102Y1061063D01*
X34180331Y1030250D01*
X34173347Y1017238D01*
X34167319Y1005041D01*
X34162178Y992659D01*
X34157852Y979090D01*
X34154271Y963332D01*
X34151364Y944386D01*
X34149062Y921250D01*
X34147294Y892923D01*
X34145989Y858404D01*
X34145077Y816691D01*
X34144488Y766785D01*
X34144151Y707683D01*
X34143996Y638386D01*
X34143952Y557891D01*
X34143950Y513016D01*
X34143950Y101600D01*
X33750250Y101600D01*
X33750250Y1466850D01*
X34143950Y1466850D01*
X34143938Y1379538D01*
X34143927Y1292225D01*
X34206104Y1352550D01*
X34246414Y1389788D01*
X34282669Y1418697D01*
X34318051Y1441387D01*
X34355740Y1459968D01*
X34386300Y1472062D01*
X34404294Y1478353D01*
X34420212Y1482871D01*
X34436701Y1485907D01*
X34456410Y1487753D01*
X34481985Y1488701D01*
X34516074Y1489041D01*
X34540825Y1489075D01*
X34582286Y1488890D01*
X34582286Y1488890D01*
G37*
X34582286Y1488890D02*
X34613803Y1488157D01*
X34638130Y1486614D01*
X34658017Y1483998D01*
X34676219Y1480046D01*
X34695489Y1474495D01*
X34696400Y1474211D01*
X34753433Y1452906D01*
X34802053Y1426484D01*
X34846242Y1392602D01*
X34865256Y1374775D01*
X34912336Y1319422D01*
X34949805Y1255887D01*
X34977532Y1184437D01*
X34994633Y1110058D01*
X34995927Y1095516D01*
X34997098Y1068843D01*
X34998141Y1030606D01*
X34999047Y981376D01*
X34999810Y921719D01*
X35000422Y852204D01*
X35000876Y773401D01*
X35001165Y685876D01*
X35001281Y590198D01*
X35001282Y587375D01*
X35001392Y104775D01*
X34804446Y103098D01*
X34607500Y101420D01*
X34607500Y516101D01*
X34607481Y602674D01*
X34607385Y677541D01*
X34607148Y741697D01*
X34606711Y796136D01*
X34606011Y841852D01*
X34604987Y879839D01*
X34603576Y911093D01*
X34601718Y936606D01*
X34599350Y957374D01*
X34596412Y974390D01*
X34592841Y988649D01*
X34588576Y1001146D01*
X34583555Y1012874D01*
X34577718Y1024827D01*
X34575737Y1028726D01*
X34550793Y1064797D01*
X34516322Y1095955D01*
X34481049Y1116835D01*
X34463011Y1124583D01*
X34446339Y1129496D01*
X34427217Y1132197D01*
X34401831Y1133305D01*
X34378900Y1133465D01*
X34347001Y1133086D01*
X34323983Y1131535D01*
X34306041Y1128197D01*
X34289368Y1122454D01*
X34277010Y1116953D01*
X34233963Y1091829D01*
X34201102Y1061063D01*
X34180331Y1030250D01*
X34173347Y1017238D01*
X34167319Y1005041D01*
X34162178Y992659D01*
X34157852Y979090D01*
X34154271Y963332D01*
X34151364Y944386D01*
X34149062Y921250D01*
X34147294Y892923D01*
X34145989Y858404D01*
X34145077Y816691D01*
X34144488Y766785D01*
X34144151Y707683D01*
X34143996Y638386D01*
X34143952Y557891D01*
X34143950Y513016D01*
X34143950Y101600D01*
X33750250Y101600D01*
X33750250Y1466850D01*
X34143950Y1466850D01*
X34143938Y1379538D01*
X34143927Y1292225D01*
X34206104Y1352550D01*
X34246414Y1389788D01*
X34282669Y1418697D01*
X34318051Y1441387D01*
X34355740Y1459968D01*
X34386300Y1472062D01*
X34404294Y1478353D01*
X34420212Y1482871D01*
X34436701Y1485907D01*
X34456410Y1487753D01*
X34481985Y1488701D01*
X34516074Y1489041D01*
X34540825Y1489075D01*
X34582286Y1488890D01*
G36*
X38757071Y1494897D02*
X38773100Y1490874D01*
X38773100Y1087597D01*
X38719498Y1083248D01*
X38643476Y1072089D01*
X38576038Y1051585D01*
X38517063Y1021637D01*
X38466429Y982147D01*
X38424012Y933014D01*
X38389691Y874139D01*
X38363343Y805423D01*
X38359043Y790575D01*
X38355877Y778627D01*
X38353215Y766915D01*
X38351004Y754233D01*
X38349190Y739371D01*
X38347721Y721120D01*
X38346544Y698273D01*
X38345605Y669620D01*
X38344852Y633952D01*
X38344232Y590062D01*
X38343690Y536741D01*
X38343175Y472780D01*
X38342799Y420688D01*
X38340552Y101600D01*
X37947600Y101600D01*
X37947600Y1466850D01*
X38341300Y1466850D01*
X38341444Y1341438D01*
X38341588Y1216025D01*
X38362603Y1255010D01*
X38399778Y1315019D01*
X38442339Y1367993D01*
X38488854Y1412607D01*
X38537890Y1447535D01*
X38588016Y1471452D01*
X38601010Y1475691D01*
X38627394Y1482189D01*
X38658398Y1487914D01*
X38690517Y1492435D01*
X38720246Y1495322D01*
X38744080Y1496142D01*
X38757071Y1494897D01*
X38757071Y1494897D01*
G37*
X38757071Y1494897D02*
X38773100Y1490874D01*
X38773100Y1087597D01*
X38719498Y1083248D01*
X38643476Y1072089D01*
X38576038Y1051585D01*
X38517063Y1021637D01*
X38466429Y982147D01*
X38424012Y933014D01*
X38389691Y874139D01*
X38363343Y805423D01*
X38359043Y790575D01*
X38355877Y778627D01*
X38353215Y766915D01*
X38351004Y754233D01*
X38349190Y739371D01*
X38347721Y721120D01*
X38346544Y698273D01*
X38345605Y669620D01*
X38344852Y633952D01*
X38344232Y590062D01*
X38343690Y536741D01*
X38343175Y472780D01*
X38342799Y420688D01*
X38340552Y101600D01*
X37947600Y101600D01*
X37947600Y1466850D01*
X38341300Y1466850D01*
X38341444Y1341438D01*
X38341588Y1216025D01*
X38362603Y1255010D01*
X38399778Y1315019D01*
X38442339Y1367993D01*
X38488854Y1412607D01*
X38537890Y1447535D01*
X38588016Y1471452D01*
X38601010Y1475691D01*
X38627394Y1482189D01*
X38658398Y1487914D01*
X38690517Y1492435D01*
X38720246Y1495322D01*
X38744080Y1496142D01*
X38757071Y1494897D01*
G36*
X40838496Y785813D02*
X40836968Y104775D01*
X40640059Y103098D01*
X40443150Y101420D01*
X40443150Y1466850D01*
X40641587Y1466851D01*
X40840025Y1466851D01*
X40838496Y785813D01*
X40838496Y785813D01*
G37*
X40838496Y785813D02*
X40836968Y104775D01*
X40640059Y103098D01*
X40443150Y101420D01*
X40443150Y1466850D01*
X40641587Y1466851D01*
X40840025Y1466851D01*
X40838496Y785813D01*
G36*
X41643300Y1977113D02*
X41692684Y1976692D01*
X41732768Y1975308D01*
X41766937Y1972566D01*
X41798578Y1968071D01*
X41831078Y1961427D01*
X41867822Y1952240D01*
X41876662Y1949878D01*
X41903650Y1942611D01*
X41903650Y1777076D01*
X41903603Y1726971D01*
X41903400Y1688183D01*
X41902946Y1659332D01*
X41902144Y1639035D01*
X41900900Y1625910D01*
X41899118Y1618576D01*
X41896703Y1615651D01*
X41893558Y1615752D01*
X41892537Y1616133D01*
X41859344Y1627106D01*
X41818820Y1636409D01*
X41776320Y1643017D01*
X41737591Y1645892D01*
X41691209Y1643442D01*
X41654537Y1633462D01*
X41626730Y1615160D01*
X41606943Y1587748D01*
X41594331Y1550434D01*
X41588308Y1506291D01*
X41584570Y1454376D01*
X41741173Y1452676D01*
X41897776Y1450975D01*
X41897776Y1133475D01*
X41592500Y1130075D01*
X41592500Y101600D01*
X41198800Y101600D01*
X41198800Y1130300D01*
X41040050Y1130300D01*
X41040050Y1454150D01*
X41197074Y1454150D01*
X41200370Y1547813D01*
X41202518Y1588777D01*
X41205871Y1628627D01*
X41210038Y1663480D01*
X41214550Y1689100D01*
X41235531Y1756935D01*
X41265479Y1815786D01*
X41304507Y1865775D01*
X41352733Y1907022D01*
X41410271Y1939649D01*
X41477238Y1963776D01*
X41477288Y1963790D01*
X41496969Y1968778D01*
X41516325Y1972381D01*
X41537950Y1974808D01*
X41564438Y1976267D01*
X41598385Y1976966D01*
X41642385Y1977114D01*
X41643300Y1977113D01*
X41643300Y1977113D01*
G37*
X41643300Y1977113D02*
X41692684Y1976692D01*
X41732768Y1975308D01*
X41766937Y1972566D01*
X41798578Y1968071D01*
X41831078Y1961427D01*
X41867822Y1952240D01*
X41876662Y1949878D01*
X41903650Y1942611D01*
X41903650Y1777076D01*
X41903603Y1726971D01*
X41903400Y1688183D01*
X41902946Y1659332D01*
X41902144Y1639035D01*
X41900900Y1625910D01*
X41899118Y1618576D01*
X41896703Y1615651D01*
X41893558Y1615752D01*
X41892537Y1616133D01*
X41859344Y1627106D01*
X41818820Y1636409D01*
X41776320Y1643017D01*
X41737591Y1645892D01*
X41691209Y1643442D01*
X41654537Y1633462D01*
X41626730Y1615160D01*
X41606943Y1587748D01*
X41594331Y1550434D01*
X41588308Y1506291D01*
X41584570Y1454376D01*
X41741173Y1452676D01*
X41897776Y1450975D01*
X41897776Y1133475D01*
X41592500Y1130075D01*
X41592500Y101600D01*
X41198800Y101600D01*
X41198800Y1130300D01*
X41040050Y1130300D01*
X41040050Y1454150D01*
X41197074Y1454150D01*
X41200370Y1547813D01*
X41202518Y1588777D01*
X41205871Y1628627D01*
X41210038Y1663480D01*
X41214550Y1689100D01*
X41235531Y1756935D01*
X41265479Y1815786D01*
X41304507Y1865775D01*
X41352733Y1907022D01*
X41410271Y1939649D01*
X41477238Y1963776D01*
X41477288Y1963790D01*
X41496969Y1968778D01*
X41516325Y1972381D01*
X41537950Y1974808D01*
X41564438Y1976267D01*
X41598385Y1976966D01*
X41642385Y1977114D01*
X41643300Y1977113D01*
G36*
X40849550Y1612900D02*
X40436800Y1612900D01*
X40436800Y1962150D01*
X40849550Y1962150D01*
X40849550Y1612900D01*
X40849550Y1612900D01*
G37*
X40849550Y1612900D02*
X40436800Y1612900D01*
X40436800Y1962150D01*
X40849550Y1962150D01*
X40849550Y1612900D01*
G36*
X27915229Y2687740D02*
X27984327Y2672866D01*
X28055090Y2645990D01*
X28072491Y2637750D01*
X28103364Y2621593D01*
X28128676Y2605462D01*
X28152703Y2586233D01*
X28179720Y2560783D01*
X28184896Y2555635D01*
X28210527Y2529087D01*
X28229574Y2506462D01*
X28245113Y2483444D01*
X28260224Y2455713D01*
X28269312Y2437211D01*
X28289055Y2393791D01*
X28302759Y2356830D01*
X28311389Y2322192D01*
X28315913Y2285743D01*
X28317296Y2243348D01*
X28317269Y2232025D01*
X28316886Y2210672D01*
X28315797Y2190678D01*
X28313608Y2171098D01*
X28309928Y2150985D01*
X28304366Y2129395D01*
X28296531Y2105381D01*
X28286030Y2077996D01*
X28272473Y2046296D01*
X28255466Y2009334D01*
X28234620Y1966163D01*
X28209542Y1915839D01*
X28179841Y1857414D01*
X28145125Y1789944D01*
X28105003Y1712481D01*
X28091216Y1685925D01*
X28058658Y1623351D01*
X28027628Y1563937D01*
X27998652Y1508676D01*
X27972253Y1458557D01*
X27948959Y1414573D01*
X27929294Y1377715D01*
X27913784Y1348974D01*
X27902953Y1329341D01*
X27897327Y1319807D01*
X27896884Y1319213D01*
X27881890Y1310325D01*
X27862771Y1308736D01*
X27845864Y1314691D01*
X27842987Y1317121D01*
X27837069Y1325690D01*
X27825959Y1344391D01*
X27810271Y1372059D01*
X27790619Y1407530D01*
X27767616Y1449642D01*
X27741878Y1497230D01*
X27714018Y1549132D01*
X27684651Y1604182D01*
X27654391Y1661218D01*
X27623852Y1719076D01*
X27593649Y1776592D01*
X27564395Y1832603D01*
X27536705Y1885945D01*
X27511193Y1935455D01*
X27488473Y1979968D01*
X27469161Y2018321D01*
X27453869Y2049351D01*
X27443212Y2071894D01*
X27437868Y2084597D01*
X27417774Y2160997D01*
X27409884Y2236565D01*
X27410560Y2248358D01*
X27547322Y2248358D01*
X27550398Y2189076D01*
X27564060Y2133059D01*
X27587281Y2081333D01*
X27619033Y2034924D01*
X27658287Y1994859D01*
X27704017Y1962165D01*
X27755194Y1937868D01*
X27810790Y1922994D01*
X27869778Y1918570D01*
X27931129Y1925623D01*
X27938888Y1927357D01*
X27999333Y1947685D01*
X28052340Y1977981D01*
X28097151Y2017414D01*
X28133010Y2065150D01*
X28159163Y2120360D01*
X28174852Y2182211D01*
X28175689Y2187823D01*
X28178484Y2249154D01*
X28169975Y2307657D01*
X28151256Y2362283D01*
X28123422Y2411985D01*
X28087567Y2455714D01*
X28044787Y2492422D01*
X27996175Y2521060D01*
X27942828Y2540580D01*
X27885839Y2549934D01*
X27826304Y2548072D01*
X27803475Y2544255D01*
X27740064Y2525523D01*
X27684688Y2497252D01*
X27637834Y2459903D01*
X27599987Y2413936D01*
X27571634Y2359810D01*
X27555860Y2309878D01*
X27547322Y2248358D01*
X27410560Y2248358D01*
X27414126Y2310468D01*
X27430432Y2381871D01*
X27458729Y2449941D01*
X27470471Y2471162D01*
X27512863Y2531133D01*
X27563983Y2582707D01*
X27622518Y2624802D01*
X27687155Y2656334D01*
X27701127Y2661425D01*
X27775309Y2681912D01*
X27846117Y2690720D01*
X27915229Y2687740D01*
X27915229Y2687740D01*
G37*
X27915229Y2687740D02*
X27984327Y2672866D01*
X28055090Y2645990D01*
X28072491Y2637750D01*
X28103364Y2621593D01*
X28128676Y2605462D01*
X28152703Y2586233D01*
X28179720Y2560783D01*
X28184896Y2555635D01*
X28210527Y2529087D01*
X28229574Y2506462D01*
X28245113Y2483444D01*
X28260224Y2455713D01*
X28269312Y2437211D01*
X28289055Y2393791D01*
X28302759Y2356830D01*
X28311389Y2322192D01*
X28315913Y2285743D01*
X28317296Y2243348D01*
X28317269Y2232025D01*
X28316886Y2210672D01*
X28315797Y2190678D01*
X28313608Y2171098D01*
X28309928Y2150985D01*
X28304366Y2129395D01*
X28296531Y2105381D01*
X28286030Y2077996D01*
X28272473Y2046296D01*
X28255466Y2009334D01*
X28234620Y1966163D01*
X28209542Y1915839D01*
X28179841Y1857414D01*
X28145125Y1789944D01*
X28105003Y1712481D01*
X28091216Y1685925D01*
X28058658Y1623351D01*
X28027628Y1563937D01*
X27998652Y1508676D01*
X27972253Y1458557D01*
X27948959Y1414573D01*
X27929294Y1377715D01*
X27913784Y1348974D01*
X27902953Y1329341D01*
X27897327Y1319807D01*
X27896884Y1319213D01*
X27881890Y1310325D01*
X27862771Y1308736D01*
X27845864Y1314691D01*
X27842987Y1317121D01*
X27837069Y1325690D01*
X27825959Y1344391D01*
X27810271Y1372059D01*
X27790619Y1407530D01*
X27767616Y1449642D01*
X27741878Y1497230D01*
X27714018Y1549132D01*
X27684651Y1604182D01*
X27654391Y1661218D01*
X27623852Y1719076D01*
X27593649Y1776592D01*
X27564395Y1832603D01*
X27536705Y1885945D01*
X27511193Y1935455D01*
X27488473Y1979968D01*
X27469161Y2018321D01*
X27453869Y2049351D01*
X27443212Y2071894D01*
X27437868Y2084597D01*
X27417774Y2160997D01*
X27409884Y2236565D01*
X27410560Y2248358D01*
X27547322Y2248358D01*
X27550398Y2189076D01*
X27564060Y2133059D01*
X27587281Y2081333D01*
X27619033Y2034924D01*
X27658287Y1994859D01*
X27704017Y1962165D01*
X27755194Y1937868D01*
X27810790Y1922994D01*
X27869778Y1918570D01*
X27931129Y1925623D01*
X27938888Y1927357D01*
X27999333Y1947685D01*
X28052340Y1977981D01*
X28097151Y2017414D01*
X28133010Y2065150D01*
X28159163Y2120360D01*
X28174852Y2182211D01*
X28175689Y2187823D01*
X28178484Y2249154D01*
X28169975Y2307657D01*
X28151256Y2362283D01*
X28123422Y2411985D01*
X28087567Y2455714D01*
X28044787Y2492422D01*
X27996175Y2521060D01*
X27942828Y2540580D01*
X27885839Y2549934D01*
X27826304Y2548072D01*
X27803475Y2544255D01*
X27740064Y2525523D01*
X27684688Y2497252D01*
X27637834Y2459903D01*
X27599987Y2413936D01*
X27571634Y2359810D01*
X27555860Y2309878D01*
X27547322Y2248358D01*
X27410560Y2248358D01*
X27414126Y2310468D01*
X27430432Y2381871D01*
X27458729Y2449941D01*
X27470471Y2471162D01*
X27512863Y2531133D01*
X27563983Y2582707D01*
X27622518Y2624802D01*
X27687155Y2656334D01*
X27701127Y2661425D01*
X27775309Y2681912D01*
X27846117Y2690720D01*
X27915229Y2687740D01*
G36*
X45477861Y16663717D02*
X45468104Y16669318D01*
X45466000Y16680645D01*
X45464994Y16693076D01*
X45459101Y16692210D01*
X45449724Y16684161D01*
X45425073Y16670986D01*
X45391980Y16664535D01*
X45357901Y16665703D01*
X45338940Y16670891D01*
X45316236Y16685336D01*
X45295704Y16706104D01*
X45294330Y16707968D01*
X45285892Y16721579D01*
X45280405Y16736644D01*
X45277255Y16757074D01*
X45275826Y16786777D01*
X45275500Y16827500D01*
X45275860Y16869741D01*
X45277351Y16898965D01*
X45280589Y16919084D01*
X45286189Y16934007D01*
X45294330Y16947032D01*
X45314172Y16967949D01*
X45337099Y16983301D01*
X45338940Y16984108D01*
X45369715Y16990644D01*
X45404298Y16988989D01*
X45435232Y16980034D01*
X45449724Y16970838D01*
X45456124Y16965635D01*
X45460579Y16965096D01*
X45463441Y16971492D01*
X45465063Y16987094D01*
X45465796Y17014173D01*
X45465993Y17055000D01*
X45466000Y17075830D01*
X45466000Y17195551D01*
X45438483Y17178774D01*
X45400176Y17164345D01*
X45361367Y17165388D01*
X45325557Y17180920D01*
X45296245Y17209960D01*
X45289587Y17220543D01*
X45282199Y17235316D01*
X45277095Y17251076D01*
X45273863Y17271236D01*
X45272091Y17299210D01*
X45271368Y17338414D01*
X45271266Y17372636D01*
X45271266Y17492133D01*
X45347466Y17492133D01*
X45347466Y17379145D01*
X45348086Y17326971D01*
X45350565Y17289376D01*
X45355837Y17264032D01*
X45364835Y17248611D01*
X45378492Y17240784D01*
X45397741Y17238224D01*
X45403971Y17238133D01*
X45425044Y17240336D01*
X45440495Y17248418D01*
X45451249Y17264590D01*
X45458230Y17291063D01*
X45462365Y17330047D01*
X45464556Y17382928D01*
X45467346Y17492133D01*
X45533733Y17492133D01*
X45533733Y16813139D01*
X45461695Y16813139D01*
X45460671Y16849682D01*
X45453759Y16883151D01*
X45441296Y16908111D01*
X45434715Y16914582D01*
X45412759Y16921761D01*
X45386292Y16918974D01*
X45363384Y16907591D01*
X45357422Y16901469D01*
X45352071Y16885486D01*
X45349230Y16858550D01*
X45348756Y16826010D01*
X45350511Y16793218D01*
X45354353Y16765525D01*
X45360143Y16748281D01*
X45361482Y16746598D01*
X45379696Y16738290D01*
X45405014Y16737050D01*
X45429540Y16742311D01*
X45444738Y16752570D01*
X45456497Y16778957D01*
X45461695Y16813139D01*
X45533733Y16813139D01*
X45533733Y16662400D01*
X45499867Y16662400D01*
X45477861Y16663717D01*
X45477861Y16663717D01*
G37*
X45477861Y16663717D02*
X45468104Y16669318D01*
X45466000Y16680645D01*
X45464994Y16693076D01*
X45459101Y16692210D01*
X45449724Y16684161D01*
X45425073Y16670986D01*
X45391980Y16664535D01*
X45357901Y16665703D01*
X45338940Y16670891D01*
X45316236Y16685336D01*
X45295704Y16706104D01*
X45294330Y16707968D01*
X45285892Y16721579D01*
X45280405Y16736644D01*
X45277255Y16757074D01*
X45275826Y16786777D01*
X45275500Y16827500D01*
X45275860Y16869741D01*
X45277351Y16898965D01*
X45280589Y16919084D01*
X45286189Y16934007D01*
X45294330Y16947032D01*
X45314172Y16967949D01*
X45337099Y16983301D01*
X45338940Y16984108D01*
X45369715Y16990644D01*
X45404298Y16988989D01*
X45435232Y16980034D01*
X45449724Y16970838D01*
X45456124Y16965635D01*
X45460579Y16965096D01*
X45463441Y16971492D01*
X45465063Y16987094D01*
X45465796Y17014173D01*
X45465993Y17055000D01*
X45466000Y17075830D01*
X45466000Y17195551D01*
X45438483Y17178774D01*
X45400176Y17164345D01*
X45361367Y17165388D01*
X45325557Y17180920D01*
X45296245Y17209960D01*
X45289587Y17220543D01*
X45282199Y17235316D01*
X45277095Y17251076D01*
X45273863Y17271236D01*
X45272091Y17299210D01*
X45271368Y17338414D01*
X45271266Y17372636D01*
X45271266Y17492133D01*
X45347466Y17492133D01*
X45347466Y17379145D01*
X45348086Y17326971D01*
X45350565Y17289376D01*
X45355837Y17264032D01*
X45364835Y17248611D01*
X45378492Y17240784D01*
X45397741Y17238224D01*
X45403971Y17238133D01*
X45425044Y17240336D01*
X45440495Y17248418D01*
X45451249Y17264590D01*
X45458230Y17291063D01*
X45462365Y17330047D01*
X45464556Y17382928D01*
X45467346Y17492133D01*
X45533733Y17492133D01*
X45533733Y16813139D01*
X45461695Y16813139D01*
X45460671Y16849682D01*
X45453759Y16883151D01*
X45441296Y16908111D01*
X45434715Y16914582D01*
X45412759Y16921761D01*
X45386292Y16918974D01*
X45363384Y16907591D01*
X45357422Y16901469D01*
X45352071Y16885486D01*
X45349230Y16858550D01*
X45348756Y16826010D01*
X45350511Y16793218D01*
X45354353Y16765525D01*
X45360143Y16748281D01*
X45361482Y16746598D01*
X45379696Y16738290D01*
X45405014Y16737050D01*
X45429540Y16742311D01*
X45444738Y16752570D01*
X45456497Y16778957D01*
X45461695Y16813139D01*
X45533733Y16813139D01*
X45533733Y16662400D01*
X45499867Y16662400D01*
X45477861Y16663717D01*
G36*
X45061068Y17167925D02*
X45020406Y17184831D01*
X44996644Y17205164D01*
X44988390Y17215579D01*
X44982547Y17226010D01*
X44978700Y17239455D01*
X44976431Y17258914D01*
X44975325Y17287384D01*
X44974964Y17327865D01*
X44974933Y17361549D01*
X44974933Y17492133D01*
X45008800Y17492133D01*
X45030006Y17490189D01*
X45041802Y17485334D01*
X45042667Y17483369D01*
X45047849Y17478929D01*
X45059043Y17483369D01*
X45084935Y17490633D01*
X45119393Y17492133D01*
X45155210Y17488272D01*
X45185180Y17479451D01*
X45191844Y17475965D01*
X45214977Y17453680D01*
X45231594Y17422530D01*
X45237400Y17392666D01*
X45236662Y17389683D01*
X45168518Y17389683D01*
X45164637Y17407008D01*
X45154850Y17415255D01*
X45135274Y17421348D01*
X45108308Y17423809D01*
X45080740Y17422703D01*
X45059357Y17418100D01*
X45052826Y17414240D01*
X45045230Y17398638D01*
X45042667Y17380373D01*
X45043486Y17367190D01*
X45048621Y17360108D01*
X45062084Y17357233D01*
X45087887Y17356669D01*
X45092862Y17356667D01*
X45129863Y17359113D01*
X45152270Y17366682D01*
X45156362Y17369971D01*
X45168518Y17389683D01*
X45236662Y17389683D01*
X45230676Y17365493D01*
X45213632Y17337485D01*
X45190956Y17315647D01*
X45182549Y17310754D01*
X45154981Y17302543D01*
X45117650Y17297974D01*
X45098537Y17297400D01*
X45068625Y17296976D01*
X45051875Y17294847D01*
X45044523Y17289726D01*
X45042801Y17280326D01*
X45042796Y17278350D01*
X45047166Y17254422D01*
X45061869Y17240064D01*
X45089902Y17232468D01*
X45092068Y17232167D01*
X45125238Y17232152D01*
X45148624Y17241669D01*
X45163925Y17250248D01*
X45175649Y17249691D01*
X45191401Y17239133D01*
X45194865Y17236410D01*
X45210430Y17221643D01*
X45217445Y17210022D01*
X45217422Y17208500D01*
X45207896Y17197874D01*
X45187183Y17185606D01*
X45160564Y17174000D01*
X45133321Y17165357D01*
X45110735Y17161980D01*
X45110723Y17161980D01*
X45061068Y17167925D01*
X45061068Y17167925D01*
G37*
X45061068Y17167925D02*
X45020406Y17184831D01*
X44996644Y17205164D01*
X44988390Y17215579D01*
X44982547Y17226010D01*
X44978700Y17239455D01*
X44976431Y17258914D01*
X44975325Y17287384D01*
X44974964Y17327865D01*
X44974933Y17361549D01*
X44974933Y17492133D01*
X45008800Y17492133D01*
X45030006Y17490189D01*
X45041802Y17485334D01*
X45042667Y17483369D01*
X45047849Y17478929D01*
X45059043Y17483369D01*
X45084935Y17490633D01*
X45119393Y17492133D01*
X45155210Y17488272D01*
X45185180Y17479451D01*
X45191844Y17475965D01*
X45214977Y17453680D01*
X45231594Y17422530D01*
X45237400Y17392666D01*
X45236662Y17389683D01*
X45168518Y17389683D01*
X45164637Y17407008D01*
X45154850Y17415255D01*
X45135274Y17421348D01*
X45108308Y17423809D01*
X45080740Y17422703D01*
X45059357Y17418100D01*
X45052826Y17414240D01*
X45045230Y17398638D01*
X45042667Y17380373D01*
X45043486Y17367190D01*
X45048621Y17360108D01*
X45062084Y17357233D01*
X45087887Y17356669D01*
X45092862Y17356667D01*
X45129863Y17359113D01*
X45152270Y17366682D01*
X45156362Y17369971D01*
X45168518Y17389683D01*
X45236662Y17389683D01*
X45230676Y17365493D01*
X45213632Y17337485D01*
X45190956Y17315647D01*
X45182549Y17310754D01*
X45154981Y17302543D01*
X45117650Y17297974D01*
X45098537Y17297400D01*
X45068625Y17296976D01*
X45051875Y17294847D01*
X45044523Y17289726D01*
X45042801Y17280326D01*
X45042796Y17278350D01*
X45047166Y17254422D01*
X45061869Y17240064D01*
X45089902Y17232468D01*
X45092068Y17232167D01*
X45125238Y17232152D01*
X45148624Y17241669D01*
X45163925Y17250248D01*
X45175649Y17249691D01*
X45191401Y17239133D01*
X45194865Y17236410D01*
X45210430Y17221643D01*
X45217445Y17210022D01*
X45217422Y17208500D01*
X45207896Y17197874D01*
X45187183Y17185606D01*
X45160564Y17174000D01*
X45133321Y17165357D01*
X45110735Y17161980D01*
X45110723Y17161980D01*
X45061068Y17167925D01*
G36*
X44734864Y17165890D02*
X44711856Y17174949D01*
X44686686Y17187965D01*
X44708841Y17217011D01*
X44724343Y17235189D01*
X44738416Y17242495D01*
X44758909Y17242162D01*
X44767286Y17241083D01*
X44793150Y17239467D01*
X44810261Y17244759D01*
X44821521Y17254054D01*
X44828921Y17262776D01*
X44833960Y17273610D01*
X44837086Y17289741D01*
X44838746Y17314356D01*
X44839386Y17350640D01*
X44839466Y17382067D01*
X44839466Y17492133D01*
X44906492Y17492133D01*
X44908962Y17330542D01*
X44909647Y17280196D01*
X44910086Y17236077D01*
X44910265Y17200813D01*
X44910172Y17177035D01*
X44909794Y17167373D01*
X44909756Y17167293D01*
X44901144Y17166979D01*
X44881648Y17168204D01*
X44873773Y17168907D01*
X44849303Y17173983D01*
X44839562Y17182738D01*
X44839466Y17183865D01*
X44835979Y17189574D01*
X44823649Y17185477D01*
X44811950Y17178774D01*
X44773573Y17163872D01*
X44734864Y17165890D01*
X44734864Y17165890D01*
G37*
X44734864Y17165890D02*
X44711856Y17174949D01*
X44686686Y17187965D01*
X44708841Y17217011D01*
X44724343Y17235189D01*
X44738416Y17242495D01*
X44758909Y17242162D01*
X44767286Y17241083D01*
X44793150Y17239467D01*
X44810261Y17244759D01*
X44821521Y17254054D01*
X44828921Y17262776D01*
X44833960Y17273610D01*
X44837086Y17289741D01*
X44838746Y17314356D01*
X44839386Y17350640D01*
X44839466Y17382067D01*
X44839466Y17492133D01*
X44906492Y17492133D01*
X44908962Y17330542D01*
X44909647Y17280196D01*
X44910086Y17236077D01*
X44910265Y17200813D01*
X44910172Y17177035D01*
X44909794Y17167373D01*
X44909756Y17167293D01*
X44901144Y17166979D01*
X44881648Y17168204D01*
X44873773Y17168907D01*
X44849303Y17173983D01*
X44839562Y17182738D01*
X44839466Y17183865D01*
X44835979Y17189574D01*
X44823649Y17185477D01*
X44811950Y17178774D01*
X44773573Y17163872D01*
X44734864Y17165890D01*
G36*
X44433066Y17492133D02*
X44466933Y17492133D01*
X44490339Y17490097D01*
X44500084Y17483262D01*
X44500800Y17479216D01*
X44502498Y17471305D01*
X44510564Y17471942D01*
X44525779Y17479216D01*
X44550145Y17487303D01*
X44580648Y17491803D01*
X44590126Y17492133D01*
X44618051Y17489932D01*
X44638512Y17480816D01*
X44657463Y17464164D01*
X44675232Y17443033D01*
X44685495Y17419927D01*
X44691524Y17387435D01*
X44691601Y17386824D01*
X44694142Y17350013D01*
X44694134Y17333595D01*
X44620723Y17333595D01*
X44617661Y17367180D01*
X44610342Y17394613D01*
X44602400Y17407466D01*
X44576993Y17422225D01*
X44548326Y17421417D01*
X44529216Y17412013D01*
X44516296Y17394252D01*
X44508161Y17365819D01*
X44504858Y17331851D01*
X44506432Y17297481D01*
X44512930Y17267844D01*
X44524400Y17248075D01*
X44527704Y17245491D01*
X44551118Y17238731D01*
X44579059Y17240733D01*
X44602099Y17250674D01*
X44603850Y17252145D01*
X44613870Y17270457D01*
X44619477Y17299480D01*
X44620723Y17333595D01*
X44694134Y17333595D01*
X44694119Y17307844D01*
X44692566Y17281733D01*
X44688459Y17249277D01*
X44681892Y17227407D01*
X44670329Y17209775D01*
X44658932Y17197581D01*
X44623626Y17172476D01*
X44585103Y17163822D01*
X44544679Y17171828D01*
X44532550Y17177420D01*
X44500800Y17193974D01*
X44500800Y17034933D01*
X44433066Y17034933D01*
X44433066Y17492133D01*
X44433066Y17492133D01*
G37*
X44433066Y17492133D02*
X44466933Y17492133D01*
X44490339Y17490097D01*
X44500084Y17483262D01*
X44500800Y17479216D01*
X44502498Y17471305D01*
X44510564Y17471942D01*
X44525779Y17479216D01*
X44550145Y17487303D01*
X44580648Y17491803D01*
X44590126Y17492133D01*
X44618051Y17489932D01*
X44638512Y17480816D01*
X44657463Y17464164D01*
X44675232Y17443033D01*
X44685495Y17419927D01*
X44691524Y17387435D01*
X44691601Y17386824D01*
X44694142Y17350013D01*
X44694134Y17333595D01*
X44620723Y17333595D01*
X44617661Y17367180D01*
X44610342Y17394613D01*
X44602400Y17407466D01*
X44576993Y17422225D01*
X44548326Y17421417D01*
X44529216Y17412013D01*
X44516296Y17394252D01*
X44508161Y17365819D01*
X44504858Y17331851D01*
X44506432Y17297481D01*
X44512930Y17267844D01*
X44524400Y17248075D01*
X44527704Y17245491D01*
X44551118Y17238731D01*
X44579059Y17240733D01*
X44602099Y17250674D01*
X44603850Y17252145D01*
X44613870Y17270457D01*
X44619477Y17299480D01*
X44620723Y17333595D01*
X44694134Y17333595D01*
X44694119Y17307844D01*
X44692566Y17281733D01*
X44688459Y17249277D01*
X44681892Y17227407D01*
X44670329Y17209775D01*
X44658932Y17197581D01*
X44623626Y17172476D01*
X44585103Y17163822D01*
X44544679Y17171828D01*
X44532550Y17177420D01*
X44500800Y17193974D01*
X44500800Y17034933D01*
X44433066Y17034933D01*
X44433066Y17492133D01*
G36*
X43988567Y17167691D02*
X43966461Y17169218D01*
X43956951Y17174903D01*
X43955588Y17183942D01*
X43958429Y17196948D01*
X43965765Y17223080D01*
X43976714Y17259408D01*
X43990396Y17303001D01*
X44003645Y17343967D01*
X44050816Y17487900D01*
X44114820Y17487900D01*
X44145583Y17383021D01*
X44176346Y17278143D01*
X44198192Y17349155D01*
X44209697Y17386777D01*
X44220658Y17422999D01*
X44229084Y17451235D01*
X44230525Y17456150D01*
X44238168Y17478545D01*
X44247174Y17488984D01*
X44262787Y17491995D01*
X44272214Y17492133D01*
X44303415Y17492133D01*
X44338392Y17384183D01*
X44360466Y17315720D01*
X44377520Y17262017D01*
X44389940Y17221787D01*
X44398111Y17193742D01*
X44402420Y17176595D01*
X44403252Y17169059D01*
X44403018Y17168574D01*
X44393782Y17167588D01*
X44373602Y17168188D01*
X44363445Y17168888D01*
X44338076Y17173027D01*
X44326496Y17181029D01*
X44325026Y17185930D01*
X44321479Y17205890D01*
X44314683Y17233674D01*
X44305763Y17265686D01*
X44295842Y17298332D01*
X44286045Y17328019D01*
X44277498Y17351151D01*
X44271324Y17364136D01*
X44268958Y17365133D01*
X44264280Y17352184D01*
X44255657Y17327075D01*
X44244427Y17293735D01*
X44234859Y17264967D01*
X44222882Y17229270D01*
X44212770Y17200078D01*
X44205723Y17180796D01*
X44203078Y17174774D01*
X44193523Y17171876D01*
X44176308Y17169107D01*
X44166533Y17168436D01*
X44158876Y17170847D01*
X44151962Y17178806D01*
X44144411Y17194780D01*
X44134846Y17221238D01*
X44121890Y17260646D01*
X44117350Y17274697D01*
X44082318Y17383228D01*
X44052376Y17275379D01*
X44022433Y17167531D01*
X43988567Y17167691D01*
X43988567Y17167691D01*
G37*
X43988567Y17167691D02*
X43966461Y17169218D01*
X43956951Y17174903D01*
X43955588Y17183942D01*
X43958429Y17196948D01*
X43965765Y17223080D01*
X43976714Y17259408D01*
X43990396Y17303001D01*
X44003645Y17343967D01*
X44050816Y17487900D01*
X44114820Y17487900D01*
X44145583Y17383021D01*
X44176346Y17278143D01*
X44198192Y17349155D01*
X44209697Y17386777D01*
X44220658Y17422999D01*
X44229084Y17451235D01*
X44230525Y17456150D01*
X44238168Y17478545D01*
X44247174Y17488984D01*
X44262787Y17491995D01*
X44272214Y17492133D01*
X44303415Y17492133D01*
X44338392Y17384183D01*
X44360466Y17315720D01*
X44377520Y17262017D01*
X44389940Y17221787D01*
X44398111Y17193742D01*
X44402420Y17176595D01*
X44403252Y17169059D01*
X44403018Y17168574D01*
X44393782Y17167588D01*
X44373602Y17168188D01*
X44363445Y17168888D01*
X44338076Y17173027D01*
X44326496Y17181029D01*
X44325026Y17185930D01*
X44321479Y17205890D01*
X44314683Y17233674D01*
X44305763Y17265686D01*
X44295842Y17298332D01*
X44286045Y17328019D01*
X44277498Y17351151D01*
X44271324Y17364136D01*
X44268958Y17365133D01*
X44264280Y17352184D01*
X44255657Y17327075D01*
X44244427Y17293735D01*
X44234859Y17264967D01*
X44222882Y17229270D01*
X44212770Y17200078D01*
X44205723Y17180796D01*
X44203078Y17174774D01*
X44193523Y17171876D01*
X44176308Y17169107D01*
X44166533Y17168436D01*
X44158876Y17170847D01*
X44151962Y17178806D01*
X44144411Y17194780D01*
X44134846Y17221238D01*
X44121890Y17260646D01*
X44117350Y17274697D01*
X44082318Y17383228D01*
X44052376Y17275379D01*
X44022433Y17167531D01*
X43988567Y17167691D01*
G36*
X43764380Y17170786D02*
X43735864Y17181994D01*
X43733071Y17183916D01*
X43716745Y17197530D01*
X43704905Y17212373D01*
X43696841Y17231338D01*
X43691845Y17257316D01*
X43689207Y17293199D01*
X43688219Y17341878D01*
X43688125Y17367250D01*
X43688000Y17492133D01*
X43721161Y17492133D01*
X43743888Y17489632D01*
X43757157Y17483283D01*
X43758203Y17481550D01*
X43763856Y17475212D01*
X43773301Y17481550D01*
X43789767Y17488322D01*
X43816763Y17491332D01*
X43848337Y17490702D01*
X43878539Y17486556D01*
X43901418Y17479019D01*
X43901677Y17478880D01*
X43929566Y17454893D01*
X43945623Y17422098D01*
X43948300Y17389138D01*
X43882733Y17389138D01*
X43877280Y17408200D01*
X43859766Y17419573D01*
X43828461Y17424191D01*
X43817330Y17424400D01*
X43790529Y17423540D01*
X43775566Y17419585D01*
X43767378Y17410473D01*
X43763990Y17402682D01*
X43756349Y17378407D01*
X43758161Y17364540D01*
X43771823Y17358242D01*
X43799736Y17356673D01*
X43802856Y17356667D01*
X43844918Y17359782D01*
X43871374Y17369167D01*
X43882373Y17384883D01*
X43882733Y17389138D01*
X43948300Y17389138D01*
X43948648Y17384867D01*
X43937623Y17347923D01*
X43918306Y17322885D01*
X43889645Y17306841D01*
X43849248Y17298802D01*
X43815420Y17297400D01*
X43784141Y17296949D01*
X43766176Y17294915D01*
X43757917Y17290272D01*
X43755755Y17281998D01*
X43755733Y17280467D01*
X43763105Y17257184D01*
X43782193Y17240226D01*
X43808458Y17231180D01*
X43837360Y17231630D01*
X43863759Y17242736D01*
X43877397Y17250382D01*
X43889338Y17249074D01*
X43906682Y17237865D01*
X43908116Y17236807D01*
X43925807Y17221233D01*
X43929189Y17208372D01*
X43918007Y17194092D01*
X43904862Y17183615D01*
X43878146Y17171736D01*
X43841705Y17165646D01*
X43801722Y17165332D01*
X43764380Y17170786D01*
X43764380Y17170786D01*
G37*
X43764380Y17170786D02*
X43735864Y17181994D01*
X43733071Y17183916D01*
X43716745Y17197530D01*
X43704905Y17212373D01*
X43696841Y17231338D01*
X43691845Y17257316D01*
X43689207Y17293199D01*
X43688219Y17341878D01*
X43688125Y17367250D01*
X43688000Y17492133D01*
X43721161Y17492133D01*
X43743888Y17489632D01*
X43757157Y17483283D01*
X43758203Y17481550D01*
X43763856Y17475212D01*
X43773301Y17481550D01*
X43789767Y17488322D01*
X43816763Y17491332D01*
X43848337Y17490702D01*
X43878539Y17486556D01*
X43901418Y17479019D01*
X43901677Y17478880D01*
X43929566Y17454893D01*
X43945623Y17422098D01*
X43948300Y17389138D01*
X43882733Y17389138D01*
X43877280Y17408200D01*
X43859766Y17419573D01*
X43828461Y17424191D01*
X43817330Y17424400D01*
X43790529Y17423540D01*
X43775566Y17419585D01*
X43767378Y17410473D01*
X43763990Y17402682D01*
X43756349Y17378407D01*
X43758161Y17364540D01*
X43771823Y17358242D01*
X43799736Y17356673D01*
X43802856Y17356667D01*
X43844918Y17359782D01*
X43871374Y17369167D01*
X43882373Y17384883D01*
X43882733Y17389138D01*
X43948300Y17389138D01*
X43948648Y17384867D01*
X43937623Y17347923D01*
X43918306Y17322885D01*
X43889645Y17306841D01*
X43849248Y17298802D01*
X43815420Y17297400D01*
X43784141Y17296949D01*
X43766176Y17294915D01*
X43757917Y17290272D01*
X43755755Y17281998D01*
X43755733Y17280467D01*
X43763105Y17257184D01*
X43782193Y17240226D01*
X43808458Y17231180D01*
X43837360Y17231630D01*
X43863759Y17242736D01*
X43877397Y17250382D01*
X43889338Y17249074D01*
X43906682Y17237865D01*
X43908116Y17236807D01*
X43925807Y17221233D01*
X43929189Y17208372D01*
X43918007Y17194092D01*
X43904862Y17183615D01*
X43878146Y17171736D01*
X43841705Y17165646D01*
X43801722Y17165332D01*
X43764380Y17170786D01*
G36*
X43438991Y17170150D02*
X43417408Y17179139D01*
X43410116Y17189632D01*
X43416138Y17205679D01*
X43426726Y17221002D01*
X43439427Y17235840D01*
X43452602Y17242096D01*
X43472982Y17242065D01*
X43484787Y17240790D01*
X43509028Y17239391D01*
X43526746Y17243194D01*
X43538939Y17254311D01*
X43546607Y17274853D01*
X43550748Y17306931D01*
X43552361Y17352656D01*
X43552533Y17383950D01*
X43552533Y17492133D01*
X43628733Y17492133D01*
X43628733Y17332678D01*
X43628541Y17282499D01*
X43628007Y17238394D01*
X43627193Y17203057D01*
X43626161Y17179185D01*
X43624976Y17169472D01*
X43624940Y17169429D01*
X43614907Y17167777D01*
X43594486Y17168280D01*
X43586840Y17168907D01*
X43562408Y17173779D01*
X43552825Y17182771D01*
X43552533Y17185301D01*
X43550942Y17193603D01*
X43543465Y17190011D01*
X43537161Y17184513D01*
X43508439Y17168936D01*
X43472274Y17164336D01*
X43438991Y17170150D01*
X43438991Y17170150D01*
G37*
X43438991Y17170150D02*
X43417408Y17179139D01*
X43410116Y17189632D01*
X43416138Y17205679D01*
X43426726Y17221002D01*
X43439427Y17235840D01*
X43452602Y17242096D01*
X43472982Y17242065D01*
X43484787Y17240790D01*
X43509028Y17239391D01*
X43526746Y17243194D01*
X43538939Y17254311D01*
X43546607Y17274853D01*
X43550748Y17306931D01*
X43552361Y17352656D01*
X43552533Y17383950D01*
X43552533Y17492133D01*
X43628733Y17492133D01*
X43628733Y17332678D01*
X43628541Y17282499D01*
X43628007Y17238394D01*
X43627193Y17203057D01*
X43626161Y17179185D01*
X43624976Y17169472D01*
X43624940Y17169429D01*
X43614907Y17167777D01*
X43594486Y17168280D01*
X43586840Y17168907D01*
X43562408Y17173779D01*
X43552825Y17182771D01*
X43552533Y17185301D01*
X43550942Y17193603D01*
X43543465Y17190011D01*
X43537161Y17184513D01*
X43508439Y17168936D01*
X43472274Y17164336D01*
X43438991Y17170150D01*
G36*
X43242921Y17169411D02*
X43216225Y17180037D01*
X43181152Y17203403D01*
X43157742Y17234233D01*
X43144107Y17275644D01*
X43139917Y17305914D01*
X43135315Y17356667D01*
X43238661Y17356667D01*
X43281868Y17356755D01*
X43310790Y17357365D01*
X43328074Y17359011D01*
X43336369Y17362210D01*
X43338322Y17367477D01*
X43336581Y17375329D01*
X43336468Y17375717D01*
X43321052Y17401398D01*
X43295279Y17418263D01*
X43264034Y17424880D01*
X43232198Y17419816D01*
X43215643Y17411145D01*
X43201911Y17403352D01*
X43190266Y17404674D01*
X43173617Y17416139D01*
X43171894Y17417495D01*
X43155643Y17431317D01*
X43147001Y17440584D01*
X43146602Y17441558D01*
X43152792Y17448301D01*
X43169122Y17460611D01*
X43181695Y17469075D01*
X43209717Y17484113D01*
X43237950Y17490683D01*
X43264245Y17491596D01*
X43293808Y17490049D01*
X43318498Y17486667D01*
X43328166Y17484010D01*
X43361603Y17461298D01*
X43387168Y17425806D01*
X43403323Y17380457D01*
X43408553Y17331322D01*
X43404840Y17297400D01*
X43339986Y17297400D01*
X43276926Y17297400D01*
X43243757Y17296764D01*
X43224326Y17294420D01*
X43215470Y17289711D01*
X43213866Y17284315D01*
X43219490Y17269764D01*
X43233174Y17251955D01*
X43234648Y17250448D01*
X43261607Y17232965D01*
X43289034Y17230920D01*
X43313194Y17243486D01*
X43330348Y17269833D01*
X43331069Y17271821D01*
X43339986Y17297400D01*
X43404840Y17297400D01*
X43402505Y17276074D01*
X43385618Y17230388D01*
X43359554Y17195571D01*
X43325975Y17172931D01*
X43286543Y17163775D01*
X43242921Y17169411D01*
X43242921Y17169411D01*
G37*
X43242921Y17169411D02*
X43216225Y17180037D01*
X43181152Y17203403D01*
X43157742Y17234233D01*
X43144107Y17275644D01*
X43139917Y17305914D01*
X43135315Y17356667D01*
X43238661Y17356667D01*
X43281868Y17356755D01*
X43310790Y17357365D01*
X43328074Y17359011D01*
X43336369Y17362210D01*
X43338322Y17367477D01*
X43336581Y17375329D01*
X43336468Y17375717D01*
X43321052Y17401398D01*
X43295279Y17418263D01*
X43264034Y17424880D01*
X43232198Y17419816D01*
X43215643Y17411145D01*
X43201911Y17403352D01*
X43190266Y17404674D01*
X43173617Y17416139D01*
X43171894Y17417495D01*
X43155643Y17431317D01*
X43147001Y17440584D01*
X43146602Y17441558D01*
X43152792Y17448301D01*
X43169122Y17460611D01*
X43181695Y17469075D01*
X43209717Y17484113D01*
X43237950Y17490683D01*
X43264245Y17491596D01*
X43293808Y17490049D01*
X43318498Y17486667D01*
X43328166Y17484010D01*
X43361603Y17461298D01*
X43387168Y17425806D01*
X43403323Y17380457D01*
X43408553Y17331322D01*
X43404840Y17297400D01*
X43339986Y17297400D01*
X43276926Y17297400D01*
X43243757Y17296764D01*
X43224326Y17294420D01*
X43215470Y17289711D01*
X43213866Y17284315D01*
X43219490Y17269764D01*
X43233174Y17251955D01*
X43234648Y17250448D01*
X43261607Y17232965D01*
X43289034Y17230920D01*
X43313194Y17243486D01*
X43330348Y17269833D01*
X43331069Y17271821D01*
X43339986Y17297400D01*
X43404840Y17297400D01*
X43402505Y17276074D01*
X43385618Y17230388D01*
X43359554Y17195571D01*
X43325975Y17172931D01*
X43286543Y17163775D01*
X43242921Y17169411D01*
G36*
X45212000Y17479433D02*
X45216233Y17483666D01*
X45220466Y17479433D01*
X45216233Y17475200D01*
X45212000Y17479433D01*
X45212000Y17479433D01*
G37*
X45212000Y17479433D02*
X45216233Y17483666D01*
X45220466Y17479433D01*
X45216233Y17475200D01*
X45212000Y17479433D01*
G36*
X45694028Y16665113D02*
X45654385Y16677733D01*
X45619940Y16702625D01*
X45605183Y16720609D01*
X45595099Y16737456D01*
X45588923Y16754864D01*
X45585732Y16777624D01*
X45584610Y16810529D01*
X45584533Y16828213D01*
X45585131Y16867199D01*
X45587492Y16893990D01*
X45592474Y16913300D01*
X45600929Y16929843D01*
X45603752Y16934198D01*
X45633644Y16964916D01*
X45672417Y16984784D01*
X45715445Y16992746D01*
X45758104Y16987747D01*
X45785694Y16975712D01*
X45814001Y16953780D01*
X45832641Y16926688D01*
X45843105Y16890962D01*
X45846883Y16843131D01*
X45846968Y16833013D01*
X45846477Y16822159D01*
X45779267Y16822159D01*
X45775495Y16867653D01*
X45764016Y16898586D01*
X45744587Y16915595D01*
X45743406Y16916090D01*
X45723976Y16922908D01*
X45710121Y16922774D01*
X45691920Y16915567D01*
X45691699Y16915466D01*
X45668323Y16895773D01*
X45655291Y16862850D01*
X45652382Y16829218D01*
X45654677Y16790981D01*
X45662269Y16765416D01*
X45676667Y16748690D01*
X45686449Y16742670D01*
X45709719Y16734999D01*
X45734046Y16738882D01*
X45736352Y16739666D01*
X45759169Y16751607D01*
X45772566Y16770280D01*
X45778489Y16799425D01*
X45779267Y16822159D01*
X45846477Y16822159D01*
X45844605Y16780842D01*
X45837354Y16743783D01*
X45833256Y16733363D01*
X45808484Y16698890D01*
X45774644Y16675891D01*
X45735304Y16664565D01*
X45694028Y16665113D01*
X45694028Y16665113D01*
G37*
X45694028Y16665113D02*
X45654385Y16677733D01*
X45619940Y16702625D01*
X45605183Y16720609D01*
X45595099Y16737456D01*
X45588923Y16754864D01*
X45585732Y16777624D01*
X45584610Y16810529D01*
X45584533Y16828213D01*
X45585131Y16867199D01*
X45587492Y16893990D01*
X45592474Y16913300D01*
X45600929Y16929843D01*
X45603752Y16934198D01*
X45633644Y16964916D01*
X45672417Y16984784D01*
X45715445Y16992746D01*
X45758104Y16987747D01*
X45785694Y16975712D01*
X45814001Y16953780D01*
X45832641Y16926688D01*
X45843105Y16890962D01*
X45846883Y16843131D01*
X45846968Y16833013D01*
X45846477Y16822159D01*
X45779267Y16822159D01*
X45775495Y16867653D01*
X45764016Y16898586D01*
X45744587Y16915595D01*
X45743406Y16916090D01*
X45723976Y16922908D01*
X45710121Y16922774D01*
X45691920Y16915567D01*
X45691699Y16915466D01*
X45668323Y16895773D01*
X45655291Y16862850D01*
X45652382Y16829218D01*
X45654677Y16790981D01*
X45662269Y16765416D01*
X45676667Y16748690D01*
X45686449Y16742670D01*
X45709719Y16734999D01*
X45734046Y16738882D01*
X45736352Y16739666D01*
X45759169Y16751607D01*
X45772566Y16770280D01*
X45778489Y16799425D01*
X45779267Y16822159D01*
X45846477Y16822159D01*
X45844605Y16780842D01*
X45837354Y16743783D01*
X45833256Y16733363D01*
X45808484Y16698890D01*
X45774644Y16675891D01*
X45735304Y16664565D01*
X45694028Y16665113D01*
G36*
X45053406Y16673027D02*
X45015813Y16692279D01*
X44989048Y16724497D01*
X44973003Y16769789D01*
X44968647Y16801082D01*
X44964148Y16857133D01*
X45169247Y16857133D01*
X45160657Y16879727D01*
X45149110Y16900661D01*
X45137584Y16913324D01*
X45114289Y16922434D01*
X45084212Y16923764D01*
X45055535Y16917461D01*
X45044482Y16911639D01*
X45030563Y16903780D01*
X45018480Y16904979D01*
X45000840Y16916039D01*
X45000265Y16916448D01*
X44983689Y16929681D01*
X44975261Y16939207D01*
X44974991Y16940260D01*
X44981393Y16948112D01*
X44997437Y16961073D01*
X45005628Y16966863D01*
X45042760Y16984226D01*
X45085415Y16992000D01*
X45127678Y16989916D01*
X45163637Y16977709D01*
X45169209Y16974263D01*
X45199635Y16948406D01*
X45219365Y16917712D01*
X45230006Y16878491D01*
X45233166Y16827500D01*
X45229238Y16780933D01*
X45161200Y16780933D01*
X45159601Y16789832D01*
X45152390Y16794930D01*
X45135947Y16797262D01*
X45106651Y16797862D01*
X45101933Y16797867D01*
X45070787Y16797410D01*
X45052943Y16795349D01*
X45044782Y16790651D01*
X45042683Y16782281D01*
X45042667Y16780933D01*
X45050237Y16758545D01*
X45069380Y16740252D01*
X45094740Y16730643D01*
X45101933Y16730133D01*
X45128052Y16736622D01*
X45149394Y16753030D01*
X45160605Y16774768D01*
X45161200Y16780933D01*
X45229238Y16780933D01*
X45228243Y16769139D01*
X45213267Y16724250D01*
X45187933Y16692457D01*
X45151932Y16673383D01*
X45104959Y16666653D01*
X45101933Y16666633D01*
X45053406Y16673027D01*
X45053406Y16673027D01*
G37*
X45053406Y16673027D02*
X45015813Y16692279D01*
X44989048Y16724497D01*
X44973003Y16769789D01*
X44968647Y16801082D01*
X44964148Y16857133D01*
X45169247Y16857133D01*
X45160657Y16879727D01*
X45149110Y16900661D01*
X45137584Y16913324D01*
X45114289Y16922434D01*
X45084212Y16923764D01*
X45055535Y16917461D01*
X45044482Y16911639D01*
X45030563Y16903780D01*
X45018480Y16904979D01*
X45000840Y16916039D01*
X45000265Y16916448D01*
X44983689Y16929681D01*
X44975261Y16939207D01*
X44974991Y16940260D01*
X44981393Y16948112D01*
X44997437Y16961073D01*
X45005628Y16966863D01*
X45042760Y16984226D01*
X45085415Y16992000D01*
X45127678Y16989916D01*
X45163637Y16977709D01*
X45169209Y16974263D01*
X45199635Y16948406D01*
X45219365Y16917712D01*
X45230006Y16878491D01*
X45233166Y16827500D01*
X45229238Y16780933D01*
X45161200Y16780933D01*
X45159601Y16789832D01*
X45152390Y16794930D01*
X45135947Y16797262D01*
X45106651Y16797862D01*
X45101933Y16797867D01*
X45070787Y16797410D01*
X45052943Y16795349D01*
X45044782Y16790651D01*
X45042683Y16782281D01*
X45042667Y16780933D01*
X45050237Y16758545D01*
X45069380Y16740252D01*
X45094740Y16730643D01*
X45101933Y16730133D01*
X45128052Y16736622D01*
X45149394Y16753030D01*
X45160605Y16774768D01*
X45161200Y16780933D01*
X45229238Y16780933D01*
X45228243Y16769139D01*
X45213267Y16724250D01*
X45187933Y16692457D01*
X45151932Y16673383D01*
X45104959Y16666653D01*
X45101933Y16666633D01*
X45053406Y16673027D01*
G36*
X44741660Y16667343D02*
X44714994Y16678990D01*
X44696127Y16692364D01*
X44682296Y16707930D01*
X44672706Y16728466D01*
X44666558Y16756746D01*
X44663056Y16795546D01*
X44661402Y16847643D01*
X44661145Y16866502D01*
X44659802Y16988367D01*
X44729400Y16993573D01*
X44729400Y16883958D01*
X44730248Y16829858D01*
X44733376Y16790441D01*
X44739662Y16763518D01*
X44749980Y16746896D01*
X44765207Y16738386D01*
X44786221Y16735795D01*
X44788666Y16735778D01*
X44810339Y16737911D01*
X44826121Y16745775D01*
X44836890Y16761560D01*
X44843528Y16787459D01*
X44846914Y16825665D01*
X44847928Y16878370D01*
X44847933Y16883471D01*
X44847933Y16992600D01*
X44882066Y16992600D01*
X44905950Y16990040D01*
X44919416Y16983368D01*
X44920368Y16981732D01*
X44921588Y16970086D01*
X44922406Y16944445D01*
X44922791Y16907742D01*
X44922709Y16862912D01*
X44922219Y16818749D01*
X44919900Y16666633D01*
X44888082Y16664001D01*
X44863684Y16664729D01*
X44852024Y16672713D01*
X44851273Y16674375D01*
X44845977Y16682436D01*
X44836032Y16681481D01*
X44822128Y16674890D01*
X44782646Y16663489D01*
X44741660Y16667343D01*
X44741660Y16667343D01*
G37*
X44741660Y16667343D02*
X44714994Y16678990D01*
X44696127Y16692364D01*
X44682296Y16707930D01*
X44672706Y16728466D01*
X44666558Y16756746D01*
X44663056Y16795546D01*
X44661402Y16847643D01*
X44661145Y16866502D01*
X44659802Y16988367D01*
X44729400Y16993573D01*
X44729400Y16883958D01*
X44730248Y16829858D01*
X44733376Y16790441D01*
X44739662Y16763518D01*
X44749980Y16746896D01*
X44765207Y16738386D01*
X44786221Y16735795D01*
X44788666Y16735778D01*
X44810339Y16737911D01*
X44826121Y16745775D01*
X44836890Y16761560D01*
X44843528Y16787459D01*
X44846914Y16825665D01*
X44847928Y16878370D01*
X44847933Y16883471D01*
X44847933Y16992600D01*
X44882066Y16992600D01*
X44905950Y16990040D01*
X44919416Y16983368D01*
X44920368Y16981732D01*
X44921588Y16970086D01*
X44922406Y16944445D01*
X44922791Y16907742D01*
X44922709Y16862912D01*
X44922219Y16818749D01*
X44919900Y16666633D01*
X44888082Y16664001D01*
X44863684Y16664729D01*
X44852024Y16672713D01*
X44851273Y16674375D01*
X44845977Y16682436D01*
X44836032Y16681481D01*
X44822128Y16674890D01*
X44782646Y16663489D01*
X44741660Y16667343D01*
G36*
X44291603Y16669830D02*
X44251372Y16686789D01*
X44240052Y16694573D01*
X44220604Y16709640D01*
X44241814Y16734324D01*
X44263024Y16759007D01*
X44293299Y16744570D01*
X44328244Y16732616D01*
X44359311Y16730510D01*
X44383328Y16737635D01*
X44397120Y16753377D01*
X44399200Y16765123D01*
X44397085Y16774629D01*
X44388709Y16781399D01*
X44371026Y16786538D01*
X44340989Y16791152D01*
X44320796Y16793560D01*
X44275446Y16804728D01*
X44241996Y16825534D01*
X44221645Y16854297D01*
X44215593Y16889338D01*
X44224693Y16928155D01*
X44245190Y16956621D01*
X44277407Y16977436D01*
X44317534Y16989700D01*
X44361763Y16992511D01*
X44406284Y16984970D01*
X44428833Y16976405D01*
X44454228Y16963338D01*
X44475548Y16950387D01*
X44479633Y16947427D01*
X44489941Y16938260D01*
X44490454Y16930226D01*
X44480246Y16917808D01*
X44473517Y16910946D01*
X44450467Y16887619D01*
X44417331Y16906243D01*
X44385711Y16919152D01*
X44353695Y16924269D01*
X44324850Y16922158D01*
X44302740Y16913381D01*
X44290932Y16898501D01*
X44290395Y16886207D01*
X44297149Y16874948D01*
X44314639Y16867251D01*
X44335766Y16862896D01*
X44381389Y16854576D01*
X44413484Y16846259D01*
X44435400Y16836573D01*
X44450486Y16824144D01*
X44459316Y16812222D01*
X44471325Y16779489D01*
X44471237Y16743762D01*
X44459449Y16711760D01*
X44452834Y16702907D01*
X44421826Y16679868D01*
X44381503Y16666553D01*
X44336537Y16663146D01*
X44291603Y16669830D01*
X44291603Y16669830D01*
G37*
X44291603Y16669830D02*
X44251372Y16686789D01*
X44240052Y16694573D01*
X44220604Y16709640D01*
X44241814Y16734324D01*
X44263024Y16759007D01*
X44293299Y16744570D01*
X44328244Y16732616D01*
X44359311Y16730510D01*
X44383328Y16737635D01*
X44397120Y16753377D01*
X44399200Y16765123D01*
X44397085Y16774629D01*
X44388709Y16781399D01*
X44371026Y16786538D01*
X44340989Y16791152D01*
X44320796Y16793560D01*
X44275446Y16804728D01*
X44241996Y16825534D01*
X44221645Y16854297D01*
X44215593Y16889338D01*
X44224693Y16928155D01*
X44245190Y16956621D01*
X44277407Y16977436D01*
X44317534Y16989700D01*
X44361763Y16992511D01*
X44406284Y16984970D01*
X44428833Y16976405D01*
X44454228Y16963338D01*
X44475548Y16950387D01*
X44479633Y16947427D01*
X44489941Y16938260D01*
X44490454Y16930226D01*
X44480246Y16917808D01*
X44473517Y16910946D01*
X44450467Y16887619D01*
X44417331Y16906243D01*
X44385711Y16919152D01*
X44353695Y16924269D01*
X44324850Y16922158D01*
X44302740Y16913381D01*
X44290932Y16898501D01*
X44290395Y16886207D01*
X44297149Y16874948D01*
X44314639Y16867251D01*
X44335766Y16862896D01*
X44381389Y16854576D01*
X44413484Y16846259D01*
X44435400Y16836573D01*
X44450486Y16824144D01*
X44459316Y16812222D01*
X44471325Y16779489D01*
X44471237Y16743762D01*
X44459449Y16711760D01*
X44452834Y16702907D01*
X44421826Y16679868D01*
X44381503Y16666553D01*
X44336537Y16663146D01*
X44291603Y16669830D01*
G36*
X44047834Y16663898D02*
X44041389Y16664314D01*
X44010407Y16668003D01*
X43988787Y16675792D01*
X43968986Y16690774D01*
X43962909Y16696516D01*
X43937181Y16729603D01*
X43922354Y16769835D01*
X43917582Y16820144D01*
X43918702Y16849978D01*
X43928000Y16904223D01*
X43947405Y16945142D01*
X43977145Y16973163D01*
X43987863Y16978998D01*
X44028891Y16990973D01*
X44071753Y16990979D01*
X44110194Y16979276D01*
X44119886Y16973550D01*
X44147818Y16952164D01*
X44166284Y16930479D01*
X44177124Y16904256D01*
X44182177Y16869256D01*
X44183280Y16828198D01*
X44111333Y16828198D01*
X44110792Y16860813D01*
X44108267Y16881298D01*
X44102409Y16894444D01*
X44091865Y16905043D01*
X44089025Y16907319D01*
X44066712Y16921487D01*
X44046714Y16923445D01*
X44022994Y16915115D01*
X44005141Y16902268D01*
X43996497Y16889311D01*
X43992250Y16864742D01*
X43991138Y16832740D01*
X43992927Y16800183D01*
X43997386Y16773949D01*
X44000681Y16765094D01*
X44018481Y16745959D01*
X44043125Y16735158D01*
X44066810Y16735891D01*
X44088731Y16746441D01*
X44102223Y16761661D01*
X44109131Y16785378D01*
X44111302Y16821419D01*
X44111333Y16828198D01*
X44183280Y16828198D01*
X44183300Y16827483D01*
X44181862Y16781302D01*
X44176296Y16747618D01*
X44164727Y16722145D01*
X44145275Y16700596D01*
X44119021Y16680701D01*
X44098382Y16668936D01*
X44077101Y16663852D01*
X44047834Y16663898D01*
X44047834Y16663898D01*
G37*
X44047834Y16663898D02*
X44041389Y16664314D01*
X44010407Y16668003D01*
X43988787Y16675792D01*
X43968986Y16690774D01*
X43962909Y16696516D01*
X43937181Y16729603D01*
X43922354Y16769835D01*
X43917582Y16820144D01*
X43918702Y16849978D01*
X43928000Y16904223D01*
X43947405Y16945142D01*
X43977145Y16973163D01*
X43987863Y16978998D01*
X44028891Y16990973D01*
X44071753Y16990979D01*
X44110194Y16979276D01*
X44119886Y16973550D01*
X44147818Y16952164D01*
X44166284Y16930479D01*
X44177124Y16904256D01*
X44182177Y16869256D01*
X44183280Y16828198D01*
X44111333Y16828198D01*
X44110792Y16860813D01*
X44108267Y16881298D01*
X44102409Y16894444D01*
X44091865Y16905043D01*
X44089025Y16907319D01*
X44066712Y16921487D01*
X44046714Y16923445D01*
X44022994Y16915115D01*
X44005141Y16902268D01*
X43996497Y16889311D01*
X43992250Y16864742D01*
X43991138Y16832740D01*
X43992927Y16800183D01*
X43997386Y16773949D01*
X44000681Y16765094D01*
X44018481Y16745959D01*
X44043125Y16735158D01*
X44066810Y16735891D01*
X44088731Y16746441D01*
X44102223Y16761661D01*
X44109131Y16785378D01*
X44111302Y16821419D01*
X44111333Y16828198D01*
X44183280Y16828198D01*
X44183300Y16827483D01*
X44181862Y16781302D01*
X44176296Y16747618D01*
X44164727Y16722145D01*
X44145275Y16700596D01*
X44119021Y16680701D01*
X44098382Y16668936D01*
X44077101Y16663852D01*
X44047834Y16663898D01*
G36*
X43645218Y16664030D02*
X43610903Y16666633D01*
X43610903Y16988367D01*
X43645218Y16990970D01*
X43667981Y16991181D01*
X43678028Y16986409D01*
X43679533Y16980169D01*
X43681150Y16971892D01*
X43688993Y16972285D01*
X43704513Y16979682D01*
X43739368Y16990353D01*
X43777543Y16990784D01*
X43811239Y16981070D01*
X43816077Y16978344D01*
X43835550Y16964212D01*
X43849758Y16947722D01*
X43859495Y16926080D01*
X43865559Y16896492D01*
X43868743Y16856166D01*
X43869844Y16802307D01*
X43869885Y16789400D01*
X43870033Y16666633D01*
X43834050Y16664030D01*
X43798066Y16661426D01*
X43798066Y16772365D01*
X43797912Y16817784D01*
X43797107Y16849508D01*
X43795142Y16870774D01*
X43791505Y16884819D01*
X43785686Y16894880D01*
X43777285Y16904085D01*
X43758070Y16918400D01*
X43739747Y16924839D01*
X43738800Y16924867D01*
X43720854Y16919115D01*
X43701418Y16905164D01*
X43700315Y16904085D01*
X43691836Y16894779D01*
X43686044Y16884692D01*
X43682428Y16870586D01*
X43680478Y16849222D01*
X43679684Y16817365D01*
X43679533Y16772365D01*
X43679533Y16661426D01*
X43645218Y16664030D01*
X43645218Y16664030D01*
G37*
X43645218Y16664030D02*
X43610903Y16666633D01*
X43610903Y16988367D01*
X43645218Y16990970D01*
X43667981Y16991181D01*
X43678028Y16986409D01*
X43679533Y16980169D01*
X43681150Y16971892D01*
X43688993Y16972285D01*
X43704513Y16979682D01*
X43739368Y16990353D01*
X43777543Y16990784D01*
X43811239Y16981070D01*
X43816077Y16978344D01*
X43835550Y16964212D01*
X43849758Y16947722D01*
X43859495Y16926080D01*
X43865559Y16896492D01*
X43868743Y16856166D01*
X43869844Y16802307D01*
X43869885Y16789400D01*
X43870033Y16666633D01*
X43834050Y16664030D01*
X43798066Y16661426D01*
X43798066Y16772365D01*
X43797912Y16817784D01*
X43797107Y16849508D01*
X43795142Y16870774D01*
X43791505Y16884819D01*
X43785686Y16894880D01*
X43777285Y16904085D01*
X43758070Y16918400D01*
X43739747Y16924839D01*
X43738800Y16924867D01*
X43720854Y16919115D01*
X43701418Y16905164D01*
X43700315Y16904085D01*
X43691836Y16894779D01*
X43686044Y16884692D01*
X43682428Y16870586D01*
X43680478Y16849222D01*
X43679684Y16817365D01*
X43679533Y16772365D01*
X43679533Y16661426D01*
X43645218Y16664030D01*
G36*
X43488194Y16663717D02*
X43478437Y16669318D01*
X43476333Y16680645D01*
X43475542Y16692967D01*
X43470329Y16692878D01*
X43458511Y16682762D01*
X43437896Y16672346D01*
X43408756Y16666903D01*
X43377584Y16666616D01*
X43350869Y16671670D01*
X43337404Y16679333D01*
X43330883Y16688819D01*
X43332987Y16699581D01*
X43345087Y16716616D01*
X43348908Y16721316D01*
X43364803Y16739095D01*
X43376448Y16745511D01*
X43389509Y16742930D01*
X43394973Y16740563D01*
X43423609Y16735603D01*
X43450203Y16744711D01*
X43467785Y16763848D01*
X43471878Y16780621D01*
X43474623Y16811493D01*
X43475836Y16853667D01*
X43475729Y16884903D01*
X43474258Y16988367D01*
X43544066Y16993573D01*
X43544066Y16662400D01*
X43510200Y16662400D01*
X43488194Y16663717D01*
X43488194Y16663717D01*
G37*
X43488194Y16663717D02*
X43478437Y16669318D01*
X43476333Y16680645D01*
X43475542Y16692967D01*
X43470329Y16692878D01*
X43458511Y16682762D01*
X43437896Y16672346D01*
X43408756Y16666903D01*
X43377584Y16666616D01*
X43350869Y16671670D01*
X43337404Y16679333D01*
X43330883Y16688819D01*
X43332987Y16699581D01*
X43345087Y16716616D01*
X43348908Y16721316D01*
X43364803Y16739095D01*
X43376448Y16745511D01*
X43389509Y16742930D01*
X43394973Y16740563D01*
X43423609Y16735603D01*
X43450203Y16744711D01*
X43467785Y16763848D01*
X43471878Y16780621D01*
X43474623Y16811493D01*
X43475836Y16853667D01*
X43475729Y16884903D01*
X43474258Y16988367D01*
X43544066Y16993573D01*
X43544066Y16662400D01*
X43510200Y16662400D01*
X43488194Y16663717D01*
G36*
X43165757Y16664996D02*
X43124943Y16678369D01*
X43091614Y16703886D01*
X43081244Y16716914D01*
X43081197Y16726401D01*
X43092250Y16739353D01*
X43095966Y16743081D01*
X43116737Y16763852D01*
X43151632Y16746588D01*
X43188859Y16735141D01*
X43220538Y16738987D01*
X43244898Y16756911D01*
X43260163Y16787699D01*
X43264666Y16824010D01*
X43261226Y16865197D01*
X43249927Y16893365D01*
X43229300Y16911177D01*
X43213038Y16917648D01*
X43190151Y16922659D01*
X43171798Y16919937D01*
X43149543Y16908569D01*
X43117954Y16889931D01*
X43096574Y16911311D01*
X43082853Y16926083D01*
X43080321Y16935710D01*
X43088124Y16946953D01*
X43091594Y16950812D01*
X43125392Y16976342D01*
X43167391Y16990374D01*
X43212456Y16991848D01*
X43247729Y16983088D01*
X43287710Y16958761D01*
X43315727Y16922536D01*
X43331671Y16874605D01*
X43335660Y16827500D01*
X43332280Y16778880D01*
X43321022Y16741430D01*
X43300214Y16710561D01*
X43288754Y16698947D01*
X43252091Y16675174D01*
X43209616Y16663894D01*
X43165757Y16664996D01*
X43165757Y16664996D01*
G37*
X43165757Y16664996D02*
X43124943Y16678369D01*
X43091614Y16703886D01*
X43081244Y16716914D01*
X43081197Y16726401D01*
X43092250Y16739353D01*
X43095966Y16743081D01*
X43116737Y16763852D01*
X43151632Y16746588D01*
X43188859Y16735141D01*
X43220538Y16738987D01*
X43244898Y16756911D01*
X43260163Y16787699D01*
X43264666Y16824010D01*
X43261226Y16865197D01*
X43249927Y16893365D01*
X43229300Y16911177D01*
X43213038Y16917648D01*
X43190151Y16922659D01*
X43171798Y16919937D01*
X43149543Y16908569D01*
X43117954Y16889931D01*
X43096574Y16911311D01*
X43082853Y16926083D01*
X43080321Y16935710D01*
X43088124Y16946953D01*
X43091594Y16950812D01*
X43125392Y16976342D01*
X43167391Y16990374D01*
X43212456Y16991848D01*
X43247729Y16983088D01*
X43287710Y16958761D01*
X43315727Y16922536D01*
X43331671Y16874605D01*
X43335660Y16827500D01*
X43332280Y16778880D01*
X43321022Y16741430D01*
X43300214Y16710561D01*
X43288754Y16698947D01*
X43252091Y16675174D01*
X43209616Y16663894D01*
X43165757Y16664996D01*
G36*
X42920991Y16664348D02*
X42873458Y16674832D01*
X42837497Y16697646D01*
X42813229Y16732647D01*
X42800773Y16779690D01*
X42799000Y16810295D01*
X42799000Y16857133D01*
X42896937Y16857133D01*
X42938793Y16857233D01*
X42966427Y16857904D01*
X42982549Y16859706D01*
X42989871Y16863197D01*
X42991103Y16868937D01*
X42989335Y16876183D01*
X42973608Y16903718D01*
X42947808Y16919980D01*
X42915381Y16923894D01*
X42879769Y16914385D01*
X42874751Y16911934D01*
X42856909Y16904247D01*
X42843476Y16905453D01*
X42826061Y16916514D01*
X42824448Y16917703D01*
X42808494Y16930746D01*
X42804830Y16939795D01*
X42811582Y16950128D01*
X42812547Y16951202D01*
X42844292Y16974650D01*
X42885381Y16988316D01*
X42930791Y16991380D01*
X42975499Y16983024D01*
X42985266Y16979354D01*
X43009302Y16964094D01*
X43031760Y16941762D01*
X43036066Y16935961D01*
X43046299Y16919117D01*
X43052606Y16902063D01*
X43055906Y16880045D01*
X43057121Y16848309D01*
X43057233Y16826624D01*
X43055891Y16784782D01*
X42993733Y16784782D01*
X42990684Y16791644D01*
X42979434Y16795674D01*
X42956827Y16797522D01*
X42930233Y16797867D01*
X42896931Y16797238D01*
X42877374Y16794920D01*
X42868407Y16790262D01*
X42866733Y16784782D01*
X42873793Y16766732D01*
X42891096Y16748303D01*
X42912832Y16734498D01*
X42930233Y16730133D01*
X42951207Y16736208D01*
X42972620Y16751100D01*
X42988662Y16769806D01*
X42993733Y16784782D01*
X43055891Y16784782D01*
X43055756Y16780578D01*
X43050055Y16746985D01*
X43038227Y16721525D01*
X43018369Y16699877D01*
X42992955Y16680696D01*
X42970205Y16668130D01*
X42946425Y16663555D01*
X42920991Y16664348D01*
X42920991Y16664348D01*
G37*
X42920991Y16664348D02*
X42873458Y16674832D01*
X42837497Y16697646D01*
X42813229Y16732647D01*
X42800773Y16779690D01*
X42799000Y16810295D01*
X42799000Y16857133D01*
X42896937Y16857133D01*
X42938793Y16857233D01*
X42966427Y16857904D01*
X42982549Y16859706D01*
X42989871Y16863197D01*
X42991103Y16868937D01*
X42989335Y16876183D01*
X42973608Y16903718D01*
X42947808Y16919980D01*
X42915381Y16923894D01*
X42879769Y16914385D01*
X42874751Y16911934D01*
X42856909Y16904247D01*
X42843476Y16905453D01*
X42826061Y16916514D01*
X42824448Y16917703D01*
X42808494Y16930746D01*
X42804830Y16939795D01*
X42811582Y16950128D01*
X42812547Y16951202D01*
X42844292Y16974650D01*
X42885381Y16988316D01*
X42930791Y16991380D01*
X42975499Y16983024D01*
X42985266Y16979354D01*
X43009302Y16964094D01*
X43031760Y16941762D01*
X43036066Y16935961D01*
X43046299Y16919117D01*
X43052606Y16902063D01*
X43055906Y16880045D01*
X43057121Y16848309D01*
X43057233Y16826624D01*
X43055891Y16784782D01*
X42993733Y16784782D01*
X42990684Y16791644D01*
X42979434Y16795674D01*
X42956827Y16797522D01*
X42930233Y16797867D01*
X42896931Y16797238D01*
X42877374Y16794920D01*
X42868407Y16790262D01*
X42866733Y16784782D01*
X42873793Y16766732D01*
X42891096Y16748303D01*
X42912832Y16734498D01*
X42930233Y16730133D01*
X42951207Y16736208D01*
X42972620Y16751100D01*
X42988662Y16769806D01*
X42993733Y16784782D01*
X43055891Y16784782D01*
X43055756Y16780578D01*
X43050055Y16746985D01*
X43038227Y16721525D01*
X43018369Y16699877D01*
X42992955Y16680696D01*
X42970205Y16668130D01*
X42946425Y16663555D01*
X42920991Y16664348D01*
G36*
X43332400Y16734367D02*
X43336633Y16738600D01*
X43340866Y16734367D01*
X43336633Y16730133D01*
X43332400Y16734367D01*
X43332400Y16734367D01*
G37*
X43332400Y16734367D02*
X43336633Y16738600D01*
X43340866Y16734367D01*
X43336633Y16730133D01*
X43332400Y16734367D01*
G36*
X44128418Y14446250D02*
X44118969Y14495789D01*
X44109841Y14539818D01*
X44101678Y14575519D01*
X44095122Y14600071D01*
X44090925Y14610551D01*
X44079942Y14617254D01*
X44056452Y14628639D01*
X44023712Y14643213D01*
X43984983Y14659482D01*
X43977674Y14662457D01*
X43873649Y14704577D01*
X43842208Y14683099D01*
X43775430Y14637632D01*
X43721372Y14601184D01*
X43678905Y14573029D01*
X43646902Y14552440D01*
X43624235Y14538690D01*
X43609775Y14531054D01*
X43602582Y14528800D01*
X43592737Y14534598D01*
X43573712Y14550421D01*
X43547873Y14573912D01*
X43517583Y14602715D01*
X43485209Y14634473D01*
X43453115Y14666830D01*
X43423667Y14697430D01*
X43399230Y14723915D01*
X43382168Y14743929D01*
X43374846Y14755116D01*
X43374733Y14755824D01*
X43379324Y14766138D01*
X43392030Y14787771D01*
X43411252Y14818177D01*
X43435391Y14854806D01*
X43455023Y14883758D01*
X43482153Y14923667D01*
X43506037Y14959482D01*
X43524943Y14988552D01*
X43537138Y15008224D01*
X43540759Y15014993D01*
X43539934Y15029394D01*
X43532729Y15055130D01*
X43520718Y15088588D01*
X43505475Y15126152D01*
X43488575Y15164210D01*
X43471591Y15199148D01*
X43456098Y15227351D01*
X43443669Y15245205D01*
X43438706Y15249306D01*
X43426716Y15252538D01*
X43401532Y15258154D01*
X43366615Y15265474D01*
X43325424Y15273821D01*
X43281421Y15282514D01*
X43238066Y15290875D01*
X43198819Y15298226D01*
X43167140Y15303886D01*
X43146490Y15307177D01*
X43140932Y15307733D01*
X43139935Y15315773D01*
X43139271Y15338194D01*
X43138963Y15372444D01*
X43139029Y15415974D01*
X43139490Y15466234D01*
X43139604Y15474918D01*
X43141900Y15642103D01*
X43175766Y15648874D01*
X43196589Y15652993D01*
X43229829Y15659517D01*
X43271279Y15667622D01*
X43316735Y15676486D01*
X43327286Y15678540D01*
X43444939Y15701433D01*
X43489967Y15811500D01*
X43506324Y15852343D01*
X43520073Y15888309D01*
X43530018Y15916150D01*
X43534966Y15932613D01*
X43535298Y15934868D01*
X43530818Y15946014D01*
X43518225Y15968434D01*
X43499108Y15999523D01*
X43475054Y16036675D01*
X43455308Y16066101D01*
X43428633Y16106001D01*
X43405690Y16141691D01*
X43388076Y16170575D01*
X43377387Y16190059D01*
X43374875Y16196855D01*
X43380601Y16206641D01*
X43396314Y16225655D01*
X43419668Y16251526D01*
X43448315Y16281879D01*
X43479910Y16314341D01*
X43512106Y16346538D01*
X43542558Y16376097D01*
X43568920Y16400645D01*
X43588845Y16417807D01*
X43599987Y16425211D01*
X43600717Y16425333D01*
X43610664Y16420732D01*
X43631944Y16407998D01*
X43662035Y16388735D01*
X43698416Y16364545D01*
X43727203Y16344900D01*
X43766325Y16318195D01*
X43800710Y16295240D01*
X43827908Y16277630D01*
X43845469Y16266959D01*
X43850799Y16264467D01*
X43861176Y16268043D01*
X43882455Y16277527D01*
X43910495Y16291050D01*
X43917679Y16294643D01*
X43945969Y16308430D01*
X43967761Y16318185D01*
X43979287Y16322248D01*
X43980144Y16322160D01*
X43984012Y16313863D01*
X43993362Y16292191D01*
X44007246Y16259433D01*
X44024713Y16217879D01*
X44044811Y16169816D01*
X44066591Y16117534D01*
X44089103Y16063322D01*
X44111395Y16009468D01*
X44132518Y15958262D01*
X44151522Y15911991D01*
X44167455Y15872946D01*
X44179367Y15843415D01*
X44186309Y15825686D01*
X44186467Y15825262D01*
X44194359Y15802455D01*
X44195702Y15790037D01*
X44190211Y15782662D01*
X44183960Y15778695D01*
X44169732Y15768780D01*
X44147157Y15751380D01*
X44120770Y15730004D01*
X44116957Y15726833D01*
X44066506Y15674740D01*
X44030044Y15615932D01*
X44007356Y15552628D01*
X43998227Y15487045D01*
X44002444Y15421402D01*
X44019791Y15357917D01*
X44050055Y15298809D01*
X44093021Y15246294D01*
X44148475Y15202591D01*
X44168750Y15190869D01*
X44235433Y15164278D01*
X44304320Y15153081D01*
X44373004Y15156555D01*
X44439075Y15173981D01*
X44500127Y15204640D01*
X44553752Y15247810D01*
X44597541Y15302772D01*
X44608977Y15322532D01*
X44636422Y15391019D01*
X44647904Y15461078D01*
X44643990Y15530611D01*
X44625247Y15597519D01*
X44592242Y15659703D01*
X44545543Y15715065D01*
X44491276Y15757973D01*
X44468960Y15774035D01*
X44453972Y15787892D01*
X44450000Y15794745D01*
X44453133Y15805293D01*
X44461880Y15828935D01*
X44475258Y15863171D01*
X44492286Y15905499D01*
X44511983Y15953417D01*
X44516705Y15964769D01*
X44539943Y16020630D01*
X44563738Y16078053D01*
X44586284Y16132659D01*
X44605772Y16180068D01*
X44619486Y16213666D01*
X44634667Y16250261D01*
X44648239Y16281496D01*
X44658583Y16303732D01*
X44663641Y16312857D01*
X44671980Y16316336D01*
X44688149Y16312728D01*
X44714805Y16301260D01*
X44731094Y16293247D01*
X44760353Y16279544D01*
X44784346Y16270194D01*
X44798720Y16266848D01*
X44800151Y16267078D01*
X44810130Y16272949D01*
X44831431Y16286751D01*
X44861462Y16306765D01*
X44897631Y16331270D01*
X44922157Y16348071D01*
X44960852Y16374255D01*
X44995132Y16396641D01*
X45022395Y16413592D01*
X45040041Y16423474D01*
X45045046Y16425333D01*
X45054162Y16419594D01*
X45073001Y16403658D01*
X45099459Y16379446D01*
X45131432Y16348878D01*
X45163439Y16317265D01*
X45198073Y16281869D01*
X45228090Y16249883D01*
X45251567Y16223463D01*
X45266580Y16204767D01*
X45271266Y16196324D01*
X45269879Y16189883D01*
X45265029Y16179456D01*
X45255683Y16163436D01*
X45240809Y16140219D01*
X45219374Y16108197D01*
X45190346Y16065765D01*
X45152691Y16011317D01*
X45147413Y16003711D01*
X45129647Y15976884D01*
X45116505Y15954689D01*
X45110432Y15941311D01*
X45110279Y15940211D01*
X45113185Y15929001D01*
X45121248Y15905203D01*
X45133347Y15871955D01*
X45148360Y15832395D01*
X45153926Y15818073D01*
X45169235Y15778278D01*
X45181476Y15748250D01*
X45193212Y15726222D01*
X45207006Y15710425D01*
X45225420Y15699091D01*
X45251017Y15690453D01*
X45286358Y15682741D01*
X45334008Y15674189D01*
X45372246Y15667440D01*
X45415948Y15659409D01*
X45453713Y15652093D01*
X45482398Y15646130D01*
X45498858Y15642159D01*
X45501363Y15641242D01*
X45503522Y15631825D01*
X45505409Y15608145D01*
X45506913Y15572870D01*
X45507924Y15528671D01*
X45508330Y15478216D01*
X45508333Y15473270D01*
X45508333Y15309606D01*
X45366516Y15283001D01*
X45318404Y15273747D01*
X45275159Y15265002D01*
X45239945Y15257439D01*
X45215927Y15251731D01*
X45207293Y15249128D01*
X45197226Y15238583D01*
X45183222Y15215680D01*
X45166858Y15184038D01*
X45149711Y15147272D01*
X45133355Y15108999D01*
X45119368Y15072835D01*
X45109326Y15042396D01*
X45104805Y15021299D01*
X45105240Y15014993D01*
X45111692Y15003501D01*
X45126069Y14980750D01*
X45146640Y14949393D01*
X45171672Y14912080D01*
X45190976Y14883758D01*
X45217679Y14844195D01*
X45240622Y14808988D01*
X45258205Y14780691D01*
X45268827Y14761860D01*
X45271266Y14755584D01*
X45265408Y14745526D01*
X45249420Y14726403D01*
X45225679Y14700563D01*
X45196565Y14670355D01*
X45164455Y14638127D01*
X45131729Y14606229D01*
X45100765Y14577007D01*
X45073941Y14552810D01*
X45053636Y14535988D01*
X45042229Y14528887D01*
X45041574Y14528800D01*
X45025317Y14533712D01*
X45007825Y14544332D01*
X44993823Y14554470D01*
X44968820Y14571963D01*
X44935859Y14594704D01*
X44897980Y14620589D01*
X44880135Y14632706D01*
X44772638Y14705548D01*
X44668469Y14662881D01*
X44629026Y14646293D01*
X44594988Y14631168D01*
X44569600Y14619006D01*
X44556104Y14611308D01*
X44555168Y14610490D01*
X44549687Y14598213D01*
X44542735Y14573576D01*
X44535470Y14540947D01*
X44532362Y14524567D01*
X44524020Y14478086D01*
X44514544Y14425287D01*
X44505791Y14376517D01*
X44504631Y14370050D01*
X44490574Y14291733D01*
X44156687Y14291733D01*
X44128418Y14446250D01*
X44128418Y14446250D01*
G37*
X44128418Y14446250D02*
X44118969Y14495789D01*
X44109841Y14539818D01*
X44101678Y14575519D01*
X44095122Y14600071D01*
X44090925Y14610551D01*
X44079942Y14617254D01*
X44056452Y14628639D01*
X44023712Y14643213D01*
X43984983Y14659482D01*
X43977674Y14662457D01*
X43873649Y14704577D01*
X43842208Y14683099D01*
X43775430Y14637632D01*
X43721372Y14601184D01*
X43678905Y14573029D01*
X43646902Y14552440D01*
X43624235Y14538690D01*
X43609775Y14531054D01*
X43602582Y14528800D01*
X43592737Y14534598D01*
X43573712Y14550421D01*
X43547873Y14573912D01*
X43517583Y14602715D01*
X43485209Y14634473D01*
X43453115Y14666830D01*
X43423667Y14697430D01*
X43399230Y14723915D01*
X43382168Y14743929D01*
X43374846Y14755116D01*
X43374733Y14755824D01*
X43379324Y14766138D01*
X43392030Y14787771D01*
X43411252Y14818177D01*
X43435391Y14854806D01*
X43455023Y14883758D01*
X43482153Y14923667D01*
X43506037Y14959482D01*
X43524943Y14988552D01*
X43537138Y15008224D01*
X43540759Y15014993D01*
X43539934Y15029394D01*
X43532729Y15055130D01*
X43520718Y15088588D01*
X43505475Y15126152D01*
X43488575Y15164210D01*
X43471591Y15199148D01*
X43456098Y15227351D01*
X43443669Y15245205D01*
X43438706Y15249306D01*
X43426716Y15252538D01*
X43401532Y15258154D01*
X43366615Y15265474D01*
X43325424Y15273821D01*
X43281421Y15282514D01*
X43238066Y15290875D01*
X43198819Y15298226D01*
X43167140Y15303886D01*
X43146490Y15307177D01*
X43140932Y15307733D01*
X43139935Y15315773D01*
X43139271Y15338194D01*
X43138963Y15372444D01*
X43139029Y15415974D01*
X43139490Y15466234D01*
X43139604Y15474918D01*
X43141900Y15642103D01*
X43175766Y15648874D01*
X43196589Y15652993D01*
X43229829Y15659517D01*
X43271279Y15667622D01*
X43316735Y15676486D01*
X43327286Y15678540D01*
X43444939Y15701433D01*
X43489967Y15811500D01*
X43506324Y15852343D01*
X43520073Y15888309D01*
X43530018Y15916150D01*
X43534966Y15932613D01*
X43535298Y15934868D01*
X43530818Y15946014D01*
X43518225Y15968434D01*
X43499108Y15999523D01*
X43475054Y16036675D01*
X43455308Y16066101D01*
X43428633Y16106001D01*
X43405690Y16141691D01*
X43388076Y16170575D01*
X43377387Y16190059D01*
X43374875Y16196855D01*
X43380601Y16206641D01*
X43396314Y16225655D01*
X43419668Y16251526D01*
X43448315Y16281879D01*
X43479910Y16314341D01*
X43512106Y16346538D01*
X43542558Y16376097D01*
X43568920Y16400645D01*
X43588845Y16417807D01*
X43599987Y16425211D01*
X43600717Y16425333D01*
X43610664Y16420732D01*
X43631944Y16407998D01*
X43662035Y16388735D01*
X43698416Y16364545D01*
X43727203Y16344900D01*
X43766325Y16318195D01*
X43800710Y16295240D01*
X43827908Y16277630D01*
X43845469Y16266959D01*
X43850799Y16264467D01*
X43861176Y16268043D01*
X43882455Y16277527D01*
X43910495Y16291050D01*
X43917679Y16294643D01*
X43945969Y16308430D01*
X43967761Y16318185D01*
X43979287Y16322248D01*
X43980144Y16322160D01*
X43984012Y16313863D01*
X43993362Y16292191D01*
X44007246Y16259433D01*
X44024713Y16217879D01*
X44044811Y16169816D01*
X44066591Y16117534D01*
X44089103Y16063322D01*
X44111395Y16009468D01*
X44132518Y15958262D01*
X44151522Y15911991D01*
X44167455Y15872946D01*
X44179367Y15843415D01*
X44186309Y15825686D01*
X44186467Y15825262D01*
X44194359Y15802455D01*
X44195702Y15790037D01*
X44190211Y15782662D01*
X44183960Y15778695D01*
X44169732Y15768780D01*
X44147157Y15751380D01*
X44120770Y15730004D01*
X44116957Y15726833D01*
X44066506Y15674740D01*
X44030044Y15615932D01*
X44007356Y15552628D01*
X43998227Y15487045D01*
X44002444Y15421402D01*
X44019791Y15357917D01*
X44050055Y15298809D01*
X44093021Y15246294D01*
X44148475Y15202591D01*
X44168750Y15190869D01*
X44235433Y15164278D01*
X44304320Y15153081D01*
X44373004Y15156555D01*
X44439075Y15173981D01*
X44500127Y15204640D01*
X44553752Y15247810D01*
X44597541Y15302772D01*
X44608977Y15322532D01*
X44636422Y15391019D01*
X44647904Y15461078D01*
X44643990Y15530611D01*
X44625247Y15597519D01*
X44592242Y15659703D01*
X44545543Y15715065D01*
X44491276Y15757973D01*
X44468960Y15774035D01*
X44453972Y15787892D01*
X44450000Y15794745D01*
X44453133Y15805293D01*
X44461880Y15828935D01*
X44475258Y15863171D01*
X44492286Y15905499D01*
X44511983Y15953417D01*
X44516705Y15964769D01*
X44539943Y16020630D01*
X44563738Y16078053D01*
X44586284Y16132659D01*
X44605772Y16180068D01*
X44619486Y16213666D01*
X44634667Y16250261D01*
X44648239Y16281496D01*
X44658583Y16303732D01*
X44663641Y16312857D01*
X44671980Y16316336D01*
X44688149Y16312728D01*
X44714805Y16301260D01*
X44731094Y16293247D01*
X44760353Y16279544D01*
X44784346Y16270194D01*
X44798720Y16266848D01*
X44800151Y16267078D01*
X44810130Y16272949D01*
X44831431Y16286751D01*
X44861462Y16306765D01*
X44897631Y16331270D01*
X44922157Y16348071D01*
X44960852Y16374255D01*
X44995132Y16396641D01*
X45022395Y16413592D01*
X45040041Y16423474D01*
X45045046Y16425333D01*
X45054162Y16419594D01*
X45073001Y16403658D01*
X45099459Y16379446D01*
X45131432Y16348878D01*
X45163439Y16317265D01*
X45198073Y16281869D01*
X45228090Y16249883D01*
X45251567Y16223463D01*
X45266580Y16204767D01*
X45271266Y16196324D01*
X45269879Y16189883D01*
X45265029Y16179456D01*
X45255683Y16163436D01*
X45240809Y16140219D01*
X45219374Y16108197D01*
X45190346Y16065765D01*
X45152691Y16011317D01*
X45147413Y16003711D01*
X45129647Y15976884D01*
X45116505Y15954689D01*
X45110432Y15941311D01*
X45110279Y15940211D01*
X45113185Y15929001D01*
X45121248Y15905203D01*
X45133347Y15871955D01*
X45148360Y15832395D01*
X45153926Y15818073D01*
X45169235Y15778278D01*
X45181476Y15748250D01*
X45193212Y15726222D01*
X45207006Y15710425D01*
X45225420Y15699091D01*
X45251017Y15690453D01*
X45286358Y15682741D01*
X45334008Y15674189D01*
X45372246Y15667440D01*
X45415948Y15659409D01*
X45453713Y15652093D01*
X45482398Y15646130D01*
X45498858Y15642159D01*
X45501363Y15641242D01*
X45503522Y15631825D01*
X45505409Y15608145D01*
X45506913Y15572870D01*
X45507924Y15528671D01*
X45508330Y15478216D01*
X45508333Y15473270D01*
X45508333Y15309606D01*
X45366516Y15283001D01*
X45318404Y15273747D01*
X45275159Y15265002D01*
X45239945Y15257439D01*
X45215927Y15251731D01*
X45207293Y15249128D01*
X45197226Y15238583D01*
X45183222Y15215680D01*
X45166858Y15184038D01*
X45149711Y15147272D01*
X45133355Y15108999D01*
X45119368Y15072835D01*
X45109326Y15042396D01*
X45104805Y15021299D01*
X45105240Y15014993D01*
X45111692Y15003501D01*
X45126069Y14980750D01*
X45146640Y14949393D01*
X45171672Y14912080D01*
X45190976Y14883758D01*
X45217679Y14844195D01*
X45240622Y14808988D01*
X45258205Y14780691D01*
X45268827Y14761860D01*
X45271266Y14755584D01*
X45265408Y14745526D01*
X45249420Y14726403D01*
X45225679Y14700563D01*
X45196565Y14670355D01*
X45164455Y14638127D01*
X45131729Y14606229D01*
X45100765Y14577007D01*
X45073941Y14552810D01*
X45053636Y14535988D01*
X45042229Y14528887D01*
X45041574Y14528800D01*
X45025317Y14533712D01*
X45007825Y14544332D01*
X44993823Y14554470D01*
X44968820Y14571963D01*
X44935859Y14594704D01*
X44897980Y14620589D01*
X44880135Y14632706D01*
X44772638Y14705548D01*
X44668469Y14662881D01*
X44629026Y14646293D01*
X44594988Y14631168D01*
X44569600Y14619006D01*
X44556104Y14611308D01*
X44555168Y14610490D01*
X44549687Y14598213D01*
X44542735Y14573576D01*
X44535470Y14540947D01*
X44532362Y14524567D01*
X44524020Y14478086D01*
X44514544Y14425287D01*
X44505791Y14376517D01*
X44504631Y14370050D01*
X44490574Y14291733D01*
X44156687Y14291733D01*
X44128418Y14446250D01*
D15*
G04 #@! TO.C,SW2*
X15365900Y17625000D02*
X15365900Y17525000D01*
X15365900Y14125000D02*
X15365900Y14225000D01*
X10465900Y14225000D02*
X10465900Y14125000D01*
X10465900Y17625000D02*
X10465900Y17525000D01*
X10465900Y16225000D02*
X10465900Y15525000D01*
X15365900Y16225000D02*
X15365900Y15525000D01*
X15365900Y17625000D02*
X10465900Y17625000D01*
X10465900Y14125000D02*
X15365900Y14125000D01*
G04 #@! TO.C,SW1*
X8675200Y-19149000D02*
X8675200Y-19049000D01*
X8675200Y-15649000D02*
X8675200Y-15749000D01*
X13575200Y-15749000D02*
X13575200Y-15649000D01*
X13575200Y-19149000D02*
X13575200Y-19049000D01*
X13575200Y-17749000D02*
X13575200Y-17049000D01*
X8675200Y-17749000D02*
X8675200Y-17049000D01*
X8675200Y-19149000D02*
X13575200Y-19149000D01*
X13575200Y-15649000D02*
X8675200Y-15649000D01*
G04 #@! TO.C,J8*
X18541700Y6787800D02*
X18541700Y8587800D01*
X18541700Y8587800D02*
X16691700Y8587800D01*
X16691700Y8587800D02*
X16691700Y9327800D01*
X12471700Y6787800D02*
X12471700Y8587800D01*
X12471700Y8587800D02*
X14321700Y8587800D01*
X18541700Y3467800D02*
X18541700Y2917800D01*
X18541700Y2917800D02*
X12471700Y2917800D01*
X12471700Y2917800D02*
X12471700Y3467800D01*
D13*
G04 #@! TO.C,U13*
X30062800Y11381100D02*
X30262800Y11381100D01*
X30062800Y12931100D02*
X30062800Y11381100D01*
X32262800Y11381100D02*
X31562800Y11381100D01*
X30062800Y16381100D02*
X30062800Y12881100D01*
X32262800Y11381100D02*
X34862800Y11381100D01*
X35117221Y16802100D02*
G75*
G03X35117221Y16802100I-141421J0D01*
G01*
X31562800Y16381100D02*
X33562800Y16381100D01*
X34862800Y16381100D02*
X35062800Y16381100D01*
X35062800Y16381100D02*
X35062800Y11381100D01*
X35062800Y11381100D02*
X34862800Y11381100D01*
X30062800Y16381100D02*
X30212800Y16381100D01*
G04 #@! TO.C,C33*
X-9528802Y-15690022D02*
X-10928802Y-15690022D01*
X-9528802Y-18890022D02*
X-10928802Y-18890022D01*
X-9528802Y-15690022D02*
X-9528802Y-18890022D01*
X-10928802Y-18890022D02*
X-10928802Y-15690022D01*
G04 #@! TO.C,C34*
X-7877802Y-15690022D02*
X-9277802Y-15690022D01*
X-7877802Y-18890022D02*
X-9277802Y-18890022D01*
X-7877802Y-15690022D02*
X-7877802Y-18890022D01*
X-9277802Y-18890022D02*
X-9277802Y-15690022D01*
G04 #@! TO.C,R7*
X-11290500Y-15876500D02*
X-11290500Y-14476500D01*
X-14490500Y-15876500D02*
X-14490500Y-14476500D01*
X-11290500Y-15876500D02*
X-14490500Y-15876500D01*
X-14490500Y-14476500D02*
X-11290500Y-14476500D01*
G04 #@! TO.C,C1*
X-7786600Y6404976D02*
X-6386600Y6404976D01*
X-7786600Y9604976D02*
X-6386600Y9604976D01*
X-7786600Y6404976D02*
X-7786600Y9604976D01*
X-6386600Y9604976D02*
X-6386600Y6404976D01*
G04 #@! TO.C,C2*
X35803616Y-5322726D02*
X35803616Y-6722726D01*
X39003616Y-5322726D02*
X39003616Y-6722726D01*
X35803616Y-5322726D02*
X39003616Y-5322726D01*
X39003616Y-6722726D02*
X35803616Y-6722726D01*
G04 #@! TO.C,C3*
X-2348924Y10577658D02*
X-1358974Y11567608D01*
X-4611666Y12840400D02*
X-3621716Y13830350D01*
X-2348924Y10577658D02*
X-4611666Y12840400D01*
X-3621716Y13830350D02*
X-1358974Y11567608D01*
G04 #@! TO.C,C4*
X-1090275Y11298909D02*
X-2080225Y10308959D01*
X1172467Y9036167D02*
X182517Y8046217D01*
X-1090275Y11298909D02*
X1172467Y9036167D01*
X182517Y8046217D02*
X-2080225Y10308959D01*
G04 #@! TO.C,C5*
X-8037600Y-825700D02*
X-9437600Y-825700D01*
X-8037600Y-4025700D02*
X-9437600Y-4025700D01*
X-8037600Y-825700D02*
X-8037600Y-4025700D01*
X-9437600Y-4025700D02*
X-9437600Y-825700D01*
G04 #@! TO.C,C6*
X5472200Y6705800D02*
X6872200Y6705800D01*
X5472200Y9905800D02*
X6872200Y9905800D01*
X5472200Y6705800D02*
X5472200Y9905800D01*
X6872200Y9905800D02*
X6872200Y6705800D01*
G04 #@! TO.C,C7*
X-9414208Y5998576D02*
X-8014208Y5998576D01*
X-9414208Y9198576D02*
X-8014208Y9198576D01*
X-9414208Y5998576D02*
X-9414208Y9198576D01*
X-8014208Y9198576D02*
X-8014208Y5998576D01*
G04 #@! TO.C,C8*
X2119400Y6705800D02*
X3519400Y6705800D01*
X2119400Y9905800D02*
X3519400Y9905800D01*
X2119400Y6705800D02*
X2119400Y9905800D01*
X3519400Y9905800D02*
X3519400Y6705800D01*
G04 #@! TO.C,C9*
X3795800Y6705800D02*
X5195800Y6705800D01*
X3795800Y9905800D02*
X5195800Y9905800D01*
X3795800Y6705800D02*
X3795800Y9905800D01*
X5195800Y9905800D02*
X5195800Y6705800D01*
G04 #@! TO.C,C10*
X-39238314Y6370744D02*
X-39238314Y4970744D01*
X-36038314Y6370744D02*
X-36038314Y4970744D01*
X-39238314Y6370744D02*
X-36038314Y6370744D01*
X-36038314Y4970744D02*
X-39238314Y4970744D01*
G04 #@! TO.C,C11*
X44589500Y-14835100D02*
X44589500Y-13435100D01*
X41389500Y-14835100D02*
X41389500Y-13435100D01*
X44589500Y-14835100D02*
X41389500Y-14835100D01*
X41389500Y-13435100D02*
X44589500Y-13435100D01*
G04 #@! TO.C,C12*
X-31447353Y11060341D02*
X-31447353Y12460341D01*
X-34647353Y11060341D02*
X-34647353Y12460341D01*
X-31447353Y11060341D02*
X-34647353Y11060341D01*
X-34647353Y12460341D02*
X-31447353Y12460341D01*
G04 #@! TO.C,C13*
X35803616Y-3620926D02*
X35803616Y-5020926D01*
X39003616Y-3620926D02*
X39003616Y-5020926D01*
X35803616Y-3620926D02*
X39003616Y-3620926D01*
X39003616Y-5020926D02*
X35803616Y-5020926D01*
G04 #@! TO.C,C14*
X-46533868Y5290655D02*
X-46533868Y3890655D01*
X-43333868Y5290655D02*
X-43333868Y3890655D01*
X-46533868Y5290655D02*
X-43333868Y5290655D01*
X-43333868Y3890655D02*
X-46533868Y3890655D01*
G04 #@! TO.C,C15*
X-11301500Y-9068000D02*
X-12701500Y-9068000D01*
X-11301500Y-12268000D02*
X-12701500Y-12268000D01*
X-11301500Y-9068000D02*
X-11301500Y-12268000D01*
X-12701500Y-12268000D02*
X-12701500Y-9068000D01*
G04 #@! TO.C,C18*
X-25514100Y-3567200D02*
X-25514100Y-4967200D01*
X-22314100Y-3567200D02*
X-22314100Y-4967200D01*
X-25514100Y-3567200D02*
X-22314100Y-3567200D01*
X-22314100Y-4967200D02*
X-25514100Y-4967200D01*
G04 #@! TO.C,C19*
X-42686200Y11989000D02*
X-41286200Y11989000D01*
X-42686200Y15189000D02*
X-41286200Y15189000D01*
X-42686200Y11989000D02*
X-42686200Y15189000D01*
X-41286200Y15189000D02*
X-41286200Y11989000D01*
G04 #@! TO.C,C20*
X-34660953Y9107541D02*
X-34660953Y7707541D01*
X-31460953Y9107541D02*
X-31460953Y7707541D01*
X-34660953Y9107541D02*
X-31460953Y9107541D01*
X-31460953Y7707541D02*
X-34660953Y7707541D01*
G04 #@! TO.C,C21*
X-34647353Y7431141D02*
X-34647353Y6031141D01*
X-31447353Y7431141D02*
X-31447353Y6031141D01*
X-34647353Y7431141D02*
X-31447353Y7431141D01*
X-31447353Y6031141D02*
X-34647353Y6031141D01*
G04 #@! TO.C,C22*
X30429000Y-13222200D02*
X30429000Y-11822200D01*
X27229000Y-13222200D02*
X27229000Y-11822200D01*
X30429000Y-13222200D02*
X27229000Y-13222200D01*
X27229000Y-11822200D02*
X30429000Y-11822200D01*
G04 #@! TO.C,C24*
X36742600Y-13208200D02*
X35342600Y-13208200D01*
X36742600Y-16408200D02*
X35342600Y-16408200D01*
X36742600Y-13208200D02*
X36742600Y-16408200D01*
X35342600Y-16408200D02*
X35342600Y-13208200D01*
G04 #@! TO.C,C27*
X-31705110Y-8582914D02*
X-31705110Y-9982914D01*
X-28505110Y-8582914D02*
X-28505110Y-9982914D01*
X-31705110Y-8582914D02*
X-28505110Y-8582914D01*
X-28505110Y-9982914D02*
X-31705110Y-9982914D01*
G04 #@! TO.C,C28*
X-28499000Y-8142200D02*
X-28499000Y-6742200D01*
X-31699000Y-8142200D02*
X-31699000Y-6742200D01*
X-28499000Y-8142200D02*
X-31699000Y-8142200D01*
X-31699000Y-6742200D02*
X-28499000Y-6742200D01*
G04 #@! TO.C,D1*
X37047400Y16868600D02*
X37047400Y13668600D01*
X37047400Y13668600D02*
X35647400Y13668600D01*
X35647400Y13668600D02*
X35647400Y16868600D01*
X35647400Y16868600D02*
X37047400Y16868600D01*
X37047400Y16868600D02*
X37047400Y17068600D01*
X37047400Y17068600D02*
X35647400Y17068600D01*
X35647400Y17068600D02*
X35647400Y16868600D01*
G04 #@! TO.C,D2*
X-31764200Y-18900600D02*
X-31764200Y-15700600D01*
X-31764200Y-15700600D02*
X-30364200Y-15700600D01*
X-30364200Y-15700600D02*
X-30364200Y-18900600D01*
X-30364200Y-18900600D02*
X-31764200Y-18900600D01*
X-31764200Y-18900600D02*
X-31764200Y-19100600D01*
X-31764200Y-19100600D02*
X-30364200Y-19100600D01*
X-30364200Y-19100600D02*
X-30364200Y-18900600D01*
G04 #@! TO.C,D3*
X-28098530Y-18920430D02*
X-28098530Y-15720430D01*
X-28098530Y-15720430D02*
X-26698530Y-15720430D01*
X-26698530Y-15720430D02*
X-26698530Y-18920430D01*
X-26698530Y-18920430D02*
X-28098530Y-18920430D01*
X-28098530Y-18920430D02*
X-28098530Y-19120430D01*
X-28098530Y-19120430D02*
X-26698530Y-19120430D01*
X-26698530Y-19120430D02*
X-26698530Y-18920430D01*
G04 #@! TO.C,D7*
X-31731000Y14007400D02*
X-31131000Y14007400D01*
X-33131000Y16007400D02*
X-33131000Y14007400D01*
X-31881000Y16007400D02*
X-32381000Y16007400D01*
X-31131000Y14007400D02*
X-31131000Y16007400D01*
X-33131000Y14007400D02*
X-32531000Y14007400D01*
G04 #@! TO.C,D8*
X-39031489Y-1822200D02*
G75*
G03X-39031489Y-1822200I-70711J0D01*
G01*
X-37652200Y-1472200D02*
X-37202200Y-1472200D01*
X-38052200Y-172200D02*
X-37152200Y-172200D01*
X-36152200Y-172200D02*
X-36152200Y-1472200D01*
X-39052200Y-172200D02*
X-39052200Y-1472200D01*
G04 #@! TO.C,D9*
X-26162200Y15635400D02*
X-29362200Y15635400D01*
X-29362200Y15635400D02*
X-29362200Y17035400D01*
X-29362200Y17035400D02*
X-26162200Y17035400D01*
X-26162200Y17035400D02*
X-26162200Y15635400D01*
X-26162200Y15635400D02*
X-25962200Y15635400D01*
X-25962200Y15635400D02*
X-25962200Y17035400D01*
X-25962200Y17035400D02*
X-26162200Y17035400D01*
G04 #@! TO.C,D10*
X-26162200Y12384200D02*
X-29362200Y12384200D01*
X-29362200Y12384200D02*
X-29362200Y13784200D01*
X-29362200Y13784200D02*
X-26162200Y13784200D01*
X-26162200Y13784200D02*
X-26162200Y12384200D01*
X-26162200Y12384200D02*
X-25962200Y12384200D01*
X-25962200Y12384200D02*
X-25962200Y13784200D01*
X-25962200Y13784200D02*
X-26162200Y13784200D01*
G04 #@! TO.C,D11*
X23072800Y16840000D02*
X23072800Y13640000D01*
X23072800Y13640000D02*
X21672800Y13640000D01*
X21672800Y13640000D02*
X21672800Y16840000D01*
X21672800Y16840000D02*
X23072800Y16840000D01*
X23072800Y16840000D02*
X23072800Y17040000D01*
X23072800Y17040000D02*
X21672800Y17040000D01*
X21672800Y17040000D02*
X21672800Y16840000D01*
G04 #@! TO.C,F1*
X-37014200Y2681600D02*
X-37814200Y2681600D01*
X-37014200Y1331600D02*
X-37814200Y1331600D01*
D15*
G04 #@! TO.C,J4*
X46549000Y-10058400D02*
X46549000Y-10118400D01*
X46549000Y-10118400D02*
X49209000Y-10118400D01*
X49209000Y-10118400D02*
X49209000Y-10058400D01*
X49209000Y-10058400D02*
X46549000Y-10058400D01*
X46549000Y-8788400D02*
X46549000Y-7458400D01*
X46549000Y-7458400D02*
X47879000Y-7458400D01*
D13*
G04 #@! TO.C,L1*
X-11157008Y5983376D02*
X-9757008Y5983376D01*
X-11157008Y9183376D02*
X-9757008Y9183376D01*
X-11157008Y5983376D02*
X-11157008Y9183376D01*
X-9757008Y9183376D02*
X-9757008Y5983376D01*
G04 #@! TO.C,L2*
X-39238314Y4643544D02*
X-39238314Y3243544D01*
X-36038314Y4643544D02*
X-36038314Y3243544D01*
X-39238314Y4643544D02*
X-36038314Y4643544D01*
X-36038314Y3243544D02*
X-39238314Y3243544D01*
G04 #@! TO.C,Q1*
X38863400Y10677000D02*
X38863400Y12077000D01*
X37963400Y12077000D02*
X38863400Y12077000D01*
X35863400Y12077000D02*
X36863400Y12077000D01*
X35863400Y10677000D02*
X35863400Y12077000D01*
X36963400Y10677000D02*
X37763400Y10677000D01*
G04 #@! TO.C,R1*
X-18121400Y-15700600D02*
X-19521400Y-15700600D01*
X-18121400Y-18900600D02*
X-19521400Y-18900600D01*
X-18121400Y-15700600D02*
X-18121400Y-18900600D01*
X-19521400Y-18900600D02*
X-19521400Y-15700600D01*
G04 #@! TO.C,R2*
X-16394200Y-15700600D02*
X-17794200Y-15700600D01*
X-16394200Y-18900600D02*
X-17794200Y-18900600D01*
X-16394200Y-15700600D02*
X-16394200Y-18900600D01*
X-17794200Y-18900600D02*
X-17794200Y-15700600D01*
G04 #@! TO.C,R3*
X39079400Y16868600D02*
X37679400Y16868600D01*
X39079400Y13668600D02*
X37679400Y13668600D01*
X39079400Y16868600D02*
X39079400Y13668600D01*
X37679400Y13668600D02*
X37679400Y16868600D01*
G04 #@! TO.C,R4*
X-32193000Y-15700600D02*
X-33593000Y-15700600D01*
X-32193000Y-18900600D02*
X-33593000Y-18900600D01*
X-32193000Y-15700600D02*
X-32193000Y-18900600D01*
X-33593000Y-18900600D02*
X-33593000Y-15700600D01*
G04 #@! TO.C,R5*
X-28535400Y-15751400D02*
X-29935400Y-15751400D01*
X-28535400Y-18951400D02*
X-29935400Y-18951400D01*
X-28535400Y-15751400D02*
X-28535400Y-18951400D01*
X-29935400Y-18951400D02*
X-29935400Y-15751400D01*
G04 #@! TO.C,R6*
X-11290500Y-14225500D02*
X-11290500Y-12825500D01*
X-14490500Y-14225500D02*
X-14490500Y-12825500D01*
X-11290500Y-14225500D02*
X-14490500Y-14225500D01*
X-14490500Y-12825500D02*
X-11290500Y-12825500D01*
G04 #@! TO.C,R8*
X19253000Y-18556200D02*
X19253000Y-17156200D01*
X16053000Y-18556200D02*
X16053000Y-17156200D01*
X19253000Y-18556200D02*
X16053000Y-18556200D01*
X16053000Y-17156200D02*
X19253000Y-17156200D01*
G04 #@! TO.C,R9*
X19253000Y-16778200D02*
X19253000Y-15378200D01*
X16053000Y-16778200D02*
X16053000Y-15378200D01*
X19253000Y-16778200D02*
X16053000Y-16778200D01*
X16053000Y-15378200D02*
X19253000Y-15378200D01*
G04 #@! TO.C,R10*
X10871400Y12968200D02*
X10871400Y11568200D01*
X14071400Y12968200D02*
X14071400Y11568200D01*
X10871400Y12968200D02*
X14071400Y12968200D01*
X14071400Y11568200D02*
X10871400Y11568200D01*
G04 #@! TO.C,R17*
X17932200Y11568200D02*
X17932200Y12968200D01*
X14732200Y11568200D02*
X14732200Y12968200D01*
X17932200Y11568200D02*
X14732200Y11568200D01*
X14732200Y12968200D02*
X17932200Y12968200D01*
G04 #@! TO.C,R21*
X-31447353Y9383941D02*
X-31447353Y10783941D01*
X-34647353Y9383941D02*
X-34647353Y10783941D01*
X-31447353Y9383941D02*
X-34647353Y9383941D01*
X-34647353Y10783941D02*
X-31447353Y10783941D01*
G04 #@! TO.C,R22*
X-34277753Y17017941D02*
X-35677753Y17017941D01*
X-34277753Y13817941D02*
X-35677753Y13817941D01*
X-34277753Y17017941D02*
X-34277753Y13817941D01*
X-35677753Y13817941D02*
X-35677753Y17017941D01*
G04 #@! TO.C,R23*
X6749842Y146374D02*
X8149842Y146374D01*
X6749842Y3346374D02*
X8149842Y3346374D01*
X6749842Y146374D02*
X6749842Y3346374D01*
X8149842Y3346374D02*
X8149842Y146374D01*
G04 #@! TO.C,R24*
X-36055753Y17017941D02*
X-37455753Y17017941D01*
X-36055753Y13817941D02*
X-37455753Y13817941D01*
X-36055753Y17017941D02*
X-36055753Y13817941D01*
X-37455753Y13817941D02*
X-37455753Y17017941D01*
G04 #@! TO.C,R25*
X-37782953Y17017941D02*
X-39182953Y17017941D01*
X-37782953Y13817941D02*
X-39182953Y13817941D01*
X-37782953Y17017941D02*
X-37782953Y13817941D01*
X-39182953Y13817941D02*
X-39182953Y17017941D01*
G04 #@! TO.C,R30*
X5124242Y146374D02*
X6524242Y146374D01*
X5124242Y3346374D02*
X6524242Y3346374D01*
X5124242Y146374D02*
X5124242Y3346374D01*
X6524242Y3346374D02*
X6524242Y146374D01*
G04 #@! TO.C,R31*
X-46533868Y6941655D02*
X-46533868Y5541655D01*
X-43333868Y6941655D02*
X-43333868Y5541655D01*
X-46533868Y6941655D02*
X-43333868Y6941655D01*
X-43333868Y5541655D02*
X-46533868Y5541655D01*
G04 #@! TO.C,R32*
X-29362200Y15409800D02*
X-29362200Y14009800D01*
X-26162200Y15409800D02*
X-26162200Y14009800D01*
X-29362200Y15409800D02*
X-26162200Y15409800D01*
X-26162200Y14009800D02*
X-29362200Y14009800D01*
G04 #@! TO.C,R33*
X-29362200Y12158600D02*
X-29362200Y10758600D01*
X-26162200Y12158600D02*
X-26162200Y10758600D01*
X-29362200Y12158600D02*
X-26162200Y12158600D01*
X-26162200Y10758600D02*
X-29362200Y10758600D01*
G04 #@! TO.C,R34*
X-40960953Y13817941D02*
X-39560953Y13817941D01*
X-40960953Y17017941D02*
X-39560953Y17017941D01*
X-40960953Y13817941D02*
X-40960953Y17017941D01*
X-39560953Y17017941D02*
X-39560953Y13817941D01*
G04 #@! TO.C,R35*
X35347911Y-9525205D02*
X35347911Y-10925205D01*
X38547911Y-9525205D02*
X38547911Y-10925205D01*
X35347911Y-9525205D02*
X38547911Y-9525205D01*
X38547911Y-10925205D02*
X35347911Y-10925205D01*
G04 #@! TO.C,R36*
X35347911Y-11150805D02*
X35347911Y-12550805D01*
X38547911Y-11150805D02*
X38547911Y-12550805D01*
X35347911Y-11150805D02*
X38547911Y-11150805D01*
X38547911Y-12550805D02*
X35347911Y-12550805D01*
G04 #@! TO.C,R37*
X34188200Y-13222200D02*
X34188200Y-11822200D01*
X30988200Y-13222200D02*
X30988200Y-11822200D01*
X34188200Y-13222200D02*
X30988200Y-13222200D01*
X30988200Y-11822200D02*
X34188200Y-11822200D01*
G04 #@! TO.C,R39*
X23400000Y13640000D02*
X24800000Y13640000D01*
X23400000Y16840000D02*
X24800000Y16840000D01*
X23400000Y13640000D02*
X23400000Y16840000D01*
X24800000Y16840000D02*
X24800000Y13640000D01*
G04 #@! TO.C,R40*
X-28505110Y-11710114D02*
X-28505110Y-10310114D01*
X-31705110Y-11710114D02*
X-31705110Y-10310114D01*
X-28505110Y-11710114D02*
X-31705110Y-11710114D01*
X-31705110Y-10310114D02*
X-28505110Y-10310114D01*
G04 #@! TO.C,R41*
X-28505110Y-6364200D02*
X-28505110Y-4964200D01*
X-31705110Y-6364200D02*
X-31705110Y-4964200D01*
X-28505110Y-6364200D02*
X-31705110Y-6364200D01*
X-31705110Y-4964200D02*
X-28505110Y-4964200D01*
G04 #@! TO.C,R42*
X-37312400Y-4735600D02*
X-37312400Y-6135600D01*
X-34112400Y-4735600D02*
X-34112400Y-6135600D01*
X-37312400Y-4735600D02*
X-34112400Y-4735600D01*
X-34112400Y-6135600D02*
X-37312400Y-6135600D01*
G04 #@! TO.C,R43*
X-39104800Y-8229400D02*
X-37704800Y-8229400D01*
X-39104800Y-5029400D02*
X-37704800Y-5029400D01*
X-39104800Y-8229400D02*
X-39104800Y-5029400D01*
X-37704800Y-5029400D02*
X-37704800Y-8229400D01*
D11*
G04 #@! TO.C,U2*
X-3104662Y6837256D02*
G75*
G03X-3104662Y6837256I-70711J0D01*
G01*
D13*
X-2362200Y-3451147D02*
X2587547Y1498600D01*
X-7311947Y1498600D02*
X-2362200Y6448347D01*
X-2362200Y6448347D02*
X2587547Y1498600D01*
X-7311947Y1498600D02*
X-2362200Y-3451147D01*
D15*
G04 #@! TO.C,U4*
X41145561Y-18684784D02*
X42945561Y-18684784D01*
X42945561Y-15464784D02*
X40495561Y-15464784D01*
D11*
G04 #@! TO.C,U5*
X-26559289Y-11844000D02*
G75*
G03X-26559289Y-11844000I-70711J0D01*
G01*
D13*
X-26580000Y-10644000D02*
X-21680000Y-10644000D01*
X-21680000Y-10644000D02*
X-21680000Y-7644000D01*
X-21680000Y-7644000D02*
X-26580000Y-7644000D01*
X-26580000Y-7644000D02*
X-26580000Y-10644000D01*
G04 #@! TO.C,U6*
X-36684083Y10820133D02*
X-36284083Y10820133D01*
X-36284083Y10820133D02*
X-36284083Y10420133D01*
X-36684083Y7820133D02*
X-36284083Y7820133D01*
X-36284083Y7820133D02*
X-36284083Y8220133D01*
X-39284083Y8220133D02*
X-39284083Y7820133D01*
X-39284083Y7820133D02*
X-38884083Y7820133D01*
D11*
X-39713372Y10620133D02*
G75*
G03X-39713372Y10620133I-70711J0D01*
G01*
D13*
X-38884083Y10820133D02*
X-39284083Y10820133D01*
X-39284083Y10820133D02*
X-39284083Y10420133D01*
D11*
G04 #@! TO.C,U7*
X27774511Y-13883000D02*
G75*
G03X27774511Y-13883000I-70711J0D01*
G01*
D13*
X28903800Y-13933000D02*
X28903800Y-18833000D01*
X28903800Y-18833000D02*
X31903800Y-18833000D01*
X31903800Y-18833000D02*
X31903800Y-13933000D01*
X31903800Y-13933000D02*
X28903800Y-13933000D01*
G04 #@! TO.C,U11*
X-34039610Y-6894814D02*
X-36189610Y-6894814D01*
X-33214610Y-9144814D02*
X-36189610Y-9144814D01*
D11*
G04 #@! TO.C,U12*
X-5493789Y-7747000D02*
G75*
G03X-5493789Y-7747000I-70711J0D01*
G01*
D13*
X-5614500Y-8947000D02*
X-10514500Y-8947000D01*
X-10514500Y-8947000D02*
X-10514500Y-11947000D01*
X-10514500Y-11947000D02*
X-5614500Y-11947000D01*
X-5614500Y-11947000D02*
X-5614500Y-8947000D01*
G04 #@! TO.C,Y1*
X-4058883Y9145023D02*
X-3351777Y8437917D01*
X-2998223Y10205683D02*
X-2291117Y9498577D01*
G04 #@! TO.C,Y2*
X25565800Y-15562200D02*
X25565800Y-14562200D01*
X24065800Y-15562200D02*
X24065800Y-14562200D01*
G04 #@! TO.C,C17*
X-4575802Y-15690022D02*
X-5975802Y-15690022D01*
X-4575802Y-18890022D02*
X-5975802Y-18890022D01*
X-4575802Y-15690022D02*
X-4575802Y-18890022D01*
X-5975802Y-18890022D02*
X-5975802Y-15690022D01*
D15*
G04 #@! TO.C,J13*
X19692900Y-3900800D02*
X19692900Y-2750800D01*
X19692900Y-2750800D02*
X18642900Y-2750800D01*
X18642900Y-2750800D02*
X18642900Y-1760800D01*
X11472900Y-3900800D02*
X11472900Y-2750800D01*
X11472900Y-2750800D02*
X12522900Y-2750800D01*
X18522900Y-5870800D02*
X12642900Y-5870800D01*
D13*
G04 #@! TO.C,C23*
X-29032400Y-446000D02*
X-29032400Y954000D01*
X-32232400Y-446000D02*
X-32232400Y954000D01*
X-29032400Y-446000D02*
X-32232400Y-446000D01*
X-32232400Y954000D02*
X-29032400Y954000D01*
G04 #@! TO.C,C25*
X-32472400Y1092000D02*
X-32472400Y-2108000D01*
X-33872400Y-2108000D02*
X-33872400Y1092000D01*
X-33872400Y1092000D02*
X-32472400Y1092000D01*
X-33872400Y-2108000D02*
X-32472400Y-2108000D01*
G04 #@! TO.C,R11*
X-29032400Y-2071600D02*
X-32232400Y-2071600D01*
X-32232400Y-671600D02*
X-29032400Y-671600D01*
X-29032400Y-671600D02*
X-29032400Y-2071600D01*
X-32232400Y-671600D02*
X-32232400Y-2071600D01*
G04 #@! TO.C,R12*
X-29032400Y1179600D02*
X-29032400Y2579600D01*
X-32232400Y1179600D02*
X-32232400Y2579600D01*
X-29032400Y1179600D02*
X-32232400Y1179600D01*
X-32232400Y2579600D02*
X-29032400Y2579600D01*
D11*
G04 #@! TO.C,U8*
X-26454489Y3058800D02*
G75*
G03X-26454489Y3058800I-70711J0D01*
G01*
D13*
X-25325200Y3008800D02*
X-25325200Y-1891200D01*
X-25325200Y-1891200D02*
X-22325200Y-1891200D01*
X-22325200Y-1891200D02*
X-22325200Y3008800D01*
X-22325200Y3008800D02*
X-25325200Y3008800D01*
G04 #@! TO.C,C26*
X-29032400Y2856000D02*
X-29032400Y4256000D01*
X-32232400Y2856000D02*
X-32232400Y4256000D01*
X-29032400Y2856000D02*
X-32232400Y2856000D01*
X-32232400Y4256000D02*
X-29032400Y4256000D01*
G04 #@! TO.C,C29*
X-21905064Y13515901D02*
X-21905064Y10315901D01*
X-23305064Y10315901D02*
X-23305064Y13515901D01*
X-23305064Y13515901D02*
X-21905064Y13515901D01*
X-23305064Y10315901D02*
X-21905064Y10315901D01*
G04 #@! TO.C,C30*
X-24980700Y15216100D02*
X-24980700Y13816100D01*
X-21780700Y15216100D02*
X-21780700Y13816100D01*
X-24980700Y15216100D02*
X-21780700Y15216100D01*
X-21780700Y13816100D02*
X-24980700Y13816100D01*
G04 #@! TO.C,R13*
X-24930664Y10315901D02*
X-24930664Y13515901D01*
X-23530664Y13515901D02*
X-23530664Y10315901D01*
X-23530664Y10315901D02*
X-24930664Y10315901D01*
X-23530664Y13515901D02*
X-24930664Y13515901D01*
G04 #@! TO.C,R14*
X-18543500Y6947100D02*
X-17143500Y6947100D01*
X-18543500Y10147100D02*
X-17143500Y10147100D01*
X-18543500Y6947100D02*
X-18543500Y10147100D01*
X-17143500Y10147100D02*
X-17143500Y6947100D01*
D11*
G04 #@! TO.C,U9*
X-21054489Y3697600D02*
G75*
G03X-21054489Y3697600I-70711J0D01*
G01*
D13*
X-22325200Y3747600D02*
X-22325200Y8647600D01*
X-22325200Y8647600D02*
X-25325200Y8647600D01*
X-25325200Y8647600D02*
X-25325200Y3747600D01*
X-25325200Y3747600D02*
X-22325200Y3747600D01*
G04 #@! TO.C,J7*
X8329400Y-14020800D02*
X4929400Y-14020800D01*
X8329400Y-7670800D02*
X4929400Y-7670800D01*
D15*
G04 #@! TO.C,J6*
X-6318700Y14636400D02*
X-6318700Y16436400D01*
X-6318700Y16436400D02*
X-8168700Y16436400D01*
X-8168700Y16436400D02*
X-8168700Y17176400D01*
X-21138700Y14636400D02*
X-21138700Y16436400D01*
X-21138700Y16436400D02*
X-19288700Y16436400D01*
X-6318700Y11316400D02*
X-6318700Y10766400D01*
X-6318700Y10766400D02*
X-21138700Y10766400D01*
X-21138700Y10766400D02*
X-21138700Y11316400D01*
G04 #@! TD*
M02*
