M48
;DRILL file {KiCad 4.0.7} date Tuesday, June 19, 2018 'PMt' 03:40:27 PM
;FORMAT={-:-/ absolute / inch / decimal}
FMAT,2
INCH,TZ
T1C0.012
T2C0.028
T3C0.039
T4C0.043
T5C0.041
T6C0.051
T7C0.087
%
G90
G05
M72
T1
X-1.8088Y-0.1128
X-1.794Y-0.516
X-1.794Y-0.54
X-1.7073Y-0.04
X-1.683Y-0.612
X-1.66Y0.644
X-1.66Y0.612
X-1.644Y0.424
X-1.644Y0.3909
X-1.6424Y0.3494
X-1.6198Y0.3268
X-1.6Y-0.075
X-1.6Y-0.075
X-1.596Y0.234
X-1.5675Y-0.7025
X-1.5367Y0.259
X-1.511Y0.259
X-1.46Y0.28
X-1.44Y-0.636
X-1.426Y-0.054
X-1.414Y-0.024
X-1.408Y-0.638
X-1.406Y-0.186
X-1.4Y0.208
X-1.372Y-0.736
X-1.352Y0.208
X-1.335Y-0.612
X-1.271Y0.651
X-1.25Y0.41
X-1.25Y0.386
X-1.25Y0.362
X-1.2032Y0.568
X-1.2Y0.385
X-1.184Y-0.272
X-1.145Y-0.118
X-1.138Y-0.3933
X-1.1165Y-0.118
X-1.074Y-0.614
X-1.0462Y-0.6315
X-1.046Y-0.084
X-1.032Y0.36
X-1.032Y0.314
X-1.032Y0.1532
X-1.0281Y-0.5528
X-1.0099Y-0.3992
X-1.004Y0.1
X-0.99Y-0.3733
X-0.98Y0.1
X-0.956Y0.1
X-0.936Y-0.422
X-0.91Y-0.35
X-0.874Y0.404
X-0.868Y0.436
X-0.862Y0.33
X-0.856Y0.006
X-0.855Y-0.2731
X-0.834Y0.564
X-0.834Y0.2696
X-0.834Y0.2272
X-0.8147Y-0.3733
X-0.814Y-0.194
X-0.798Y-0.072
X-0.786Y0.566
X-0.775Y-0.495
X-0.743Y-0.12
X-0.741Y-0.371
X-0.707Y-0.154
X-0.659Y-0.667
X-0.592Y-0.144
X-0.5881Y-0.4331
X-0.572Y0.356
X-0.572Y0.304
X-0.552Y0.155
X-0.552Y0.13
X-0.552Y0.105
X-0.552Y0.08
X-0.552Y-0.072
X-0.552Y-0.1943
X-0.52Y-0.2
X-0.52Y-0.313
X-0.5Y-0.12
X-0.4925Y0.235
X-0.4725Y-0.2
X-0.4375Y-0.23
X-0.405Y-0.231
X-0.377Y-0.28
X-0.37Y-0.231
X-0.352Y-0.072
X-0.334Y-0.393
X-0.3276Y-0.1134
X-0.292Y-0.474
X-0.292Y-0.518
X-0.273Y0.061
X-0.264Y-0.654
X-0.26Y0.037
X-0.2279Y0.0285
X-0.214Y0.116
X-0.2Y0.027
X-0.196Y0.14
X-0.174Y0.02
X-0.164Y0.164
X-0.15Y-0.636
X-0.128Y0.164
X-0.116Y-0.551
X-0.105Y0.485
X-0.09Y0.008
X-0.085Y-0.074
X-0.08Y0.46
X-0.076Y-0.518
X-0.06Y0.44
X-0.052Y-0.474
X-0.05Y0.2925
X-0.035Y0.415
X-0.032Y0.274
X-0.0268Y-0.2444
X-0.0247Y-0.2156
X0.002Y-0.566
X0.0021Y-0.213
X0.0078Y-0.1794
X0.022Y-0.598
X0.042Y0.446
X0.055Y-0.393
X0.064Y-0.154
X0.0882Y-0.192
X0.096Y-0.113
X0.104Y0.168
X0.106Y-0.089
X0.144Y0.234
X0.1453Y-0.0693
X0.178Y-0.3
X0.202Y-0.278
X0.218Y0.476
X0.25Y-0.02
X0.26Y0.364
X0.26Y0.3
X0.26Y0.26
X0.26Y0.199
X0.298Y-0.058
X0.338Y-0.17
X0.362Y0.608
X0.362Y0.586
X0.362Y0.564
X0.3643Y0.2888
X0.366Y-0.198
X0.372Y0.316
X0.4245Y-0.002
X0.53Y-0.3
X0.58Y-0.28
X0.728Y0.199
X0.751Y0.575
X0.76Y0.4341
X0.772Y-0.056
X0.794Y0.166
X0.8266Y0.1328
X0.852Y-0.614
X0.878Y-0.534
X0.882Y-0.032
X0.882Y-0.068
X0.949Y0.575
X0.958Y0.232
X0.978Y-0.076
X1.153Y0.575
X1.158Y0.152
X1.172Y0.1
X1.186Y-0.546
X1.208Y-0.616
X1.228Y0.082
X1.262Y0.199
X1.262Y-0.144
X1.34Y-0.634
X1.358Y0.576
X1.378Y0.018
X1.431Y0.199
X1.48Y0.122
X1.486Y-0.156
X1.511Y-0.479
X1.516Y0.044
X1.544Y0.074
X1.548Y-0.208
X1.55Y-0.414
T2
X-1.7716Y0.417
X-1.7716Y0.226
T3
X-0.512Y-0.686
X-0.412Y-0.686
X-0.312Y-0.686
X-0.212Y-0.686
X-0.112Y-0.686
X-0.012Y-0.686
X0.088Y-0.686
X0.188Y-0.686
X0.288Y-0.686
T5
X0.6542Y-0.476
T6
X0.9475Y-0.476
T7
X-1.8835Y-0.7097
X-1.8834Y0.6071
X1.579Y-0.7097
X1.579Y0.6071
T4
X-1.876Y0.4642G85X-1.876Y0.4642
G05
X-1.876Y0.1788G85X-1.876Y0.1788
G05
T0
M30
