G04 #@! TF.GenerationSoftware,KiCad,Pcbnew,5.0.0-fee4fd1~66~ubuntu16.04.1*
G04 #@! TF.CreationDate,2018-08-27T17:11:34-07:00*
G04 #@! TF.ProjectId,fk-naturalist,666B2D6E61747572616C6973742E6B69,0.1*
G04 #@! TF.SameCoordinates,PX791ddc0PY791ddc0*
G04 #@! TF.FileFunction,Soldermask,Top*
G04 #@! TF.FilePolarity,Negative*
%FSLAX46Y46*%
G04 Gerber Fmt 4.6, Leading zero omitted, Abs format (unit mm)*
G04 Created by KiCad (PCBNEW 5.0.0-fee4fd1~66~ubuntu16.04.1) date Mon Aug 27 17:11:34 2018*
%MOMM*%
%LPD*%
G01*
G04 APERTURE LIST*
%ADD10C,2.103200*%
%ADD11C,1.803200*%
%ADD12C,1.303200*%
%ADD13R,1.553200X0.603200*%
%ADD14R,1.453200X0.603200*%
%ADD15R,4.003200X1.703200*%
%ADD16R,4.703200X1.203200*%
%ADD17R,1.203200X1.303200*%
%ADD18R,0.803200X1.903200*%
%ADD19R,1.203200X3.003200*%
%ADD20R,1.653200X0.903200*%
%ADD21C,1.253200*%
%ADD22C,1.503200*%
%ADD23R,1.103200X1.703200*%
%ADD24C,2.743200*%
%ADD25R,1.303200X1.203200*%
%ADD26C,1.203200*%
%ADD27C,0.100000*%
%ADD28R,0.600000X0.700000*%
%ADD29R,1.800000X1.300000*%
%ADD30R,0.600000X0.450000*%
%ADD31R,1.203200X0.903200*%
%ADD32R,0.803200X0.903200*%
%ADD33R,1.203200X1.703200*%
%ADD34R,4.403200X1.473200*%
%ADD35R,1.903200X1.903200*%
%ADD36R,1.473200X4.403200*%
%ADD37C,2.000000*%
%ADD38R,0.853200X1.253200*%
%ADD39C,0.453200*%
%ADD40R,1.763200X0.853200*%
%ADD41R,0.803200X2.203200*%
%ADD42R,0.890000X0.890000*%
%ADD43R,0.990000X0.420000*%
%ADD44R,0.420000X0.990000*%
%ADD45R,0.440000X0.990000*%
%ADD46R,2.203200X0.803200*%
%ADD47R,0.953200X0.503200*%
%ADD48R,1.078200X0.928200*%
%ADD49R,2.103200X1.303200*%
%ADD50R,0.803200X1.753200*%
%ADD51R,1.403200X2.003200*%
%ADD52R,2.700000X0.950000*%
G04 APERTURE END LIST*
D10*
G04 #@! TO.C,J9*
X-51358500Y8445000D03*
D11*
X-50583500Y4820000D03*
X-50583500Y12070000D03*
D12*
X-47933500Y6020000D03*
X-47933500Y10870000D03*
D13*
X-48008500Y7145000D03*
X-48008500Y7795000D03*
X-48008500Y8445000D03*
X-48008500Y9095000D03*
X-48008500Y9745000D03*
D12*
X-49258500Y11245000D03*
X-49258500Y5645000D03*
D14*
X-49508500Y7145000D03*
X-49508500Y7795000D03*
X-49508500Y8445000D03*
X-49508500Y9095000D03*
X-49508500Y9745000D03*
G04 #@! TD*
D15*
G04 #@! TO.C,J10*
X-50689000Y-13812000D03*
X-50689000Y-7112000D03*
D16*
X-45839000Y-11462000D03*
X-45839000Y-9462000D03*
G04 #@! TD*
D15*
G04 #@! TO.C,J3*
X-50689000Y-4731000D03*
X-50689000Y1969000D03*
D16*
X-45839000Y-2381000D03*
X-45839000Y-381000D03*
G04 #@! TD*
D17*
G04 #@! TO.C,C16*
X-6926802Y-16440022D03*
X-6926802Y-18140022D03*
G04 #@! TD*
D18*
G04 #@! TO.C,J5*
X16820200Y-8438600D03*
X15570200Y-8438600D03*
X14320200Y-8438600D03*
D19*
X18670200Y-11788600D03*
X12470200Y-11788600D03*
G04 #@! TD*
D20*
G04 #@! TO.C,SW2*
X15495900Y16875000D03*
X10335900Y16875000D03*
X10335900Y14875000D03*
X15495900Y14875000D03*
G04 #@! TD*
G04 #@! TO.C,SW1*
X8545200Y-18399000D03*
X13705200Y-18399000D03*
X13705200Y-16399000D03*
X8545200Y-16399000D03*
G04 #@! TD*
D21*
G04 #@! TO.C,BT1*
X16655000Y-11811000D03*
D22*
X24105000Y-11811000D03*
G04 #@! TD*
D18*
G04 #@! TO.C,J8*
X16131700Y8477800D03*
X14881700Y8477800D03*
D19*
X17981700Y5127800D03*
X13031700Y5127800D03*
G04 #@! TD*
D23*
G04 #@! TO.C,U13*
X30912800Y11431100D03*
X34212800Y11431100D03*
X34212800Y16331100D03*
X30912800Y16331100D03*
G04 #@! TD*
D24*
G04 #@! TO.C,REF\002A\002A*
X47865000Y15865000D03*
G04 #@! TD*
G04 #@! TO.C,REF\002A\002A*
X-50865000Y15865000D03*
G04 #@! TD*
G04 #@! TO.C,REF\002A\002A*
X-50865000Y-17365000D03*
G04 #@! TD*
G04 #@! TO.C,REF\002A\002A*
X47865000Y-17365000D03*
G04 #@! TD*
D17*
G04 #@! TO.C,C33*
X-10228802Y-16440022D03*
X-10228802Y-18140022D03*
G04 #@! TD*
G04 #@! TO.C,C34*
X-8577802Y-16440022D03*
X-8577802Y-18140022D03*
G04 #@! TD*
D25*
G04 #@! TO.C,R7*
X-12040500Y-15176500D03*
X-13740500Y-15176500D03*
G04 #@! TD*
D17*
G04 #@! TO.C,C1*
X-7086600Y7154976D03*
X-7086600Y8854976D03*
G04 #@! TD*
D25*
G04 #@! TO.C,C2*
X36553616Y-6022726D03*
X38253616Y-6022726D03*
G04 #@! TD*
D26*
G04 #@! TO.C,C3*
X-2384279Y11602963D03*
D27*
G36*
X-1498133Y11567608D02*
X-2348924Y10716817D01*
X-3270425Y11638318D01*
X-2419634Y12489109D01*
X-1498133Y11567608D01*
X-1498133Y11567608D01*
G37*
D26*
X-3586361Y12805045D03*
D27*
G36*
X-2700215Y12769690D02*
X-3551006Y11918899D01*
X-4472507Y12840400D01*
X-3621716Y13691191D01*
X-2700215Y12769690D01*
X-2700215Y12769690D01*
G37*
G04 #@! TD*
D26*
G04 #@! TO.C,C4*
X-1054920Y10273604D03*
D27*
G36*
X-1941066Y10308959D02*
X-1090275Y11159750D01*
X-168774Y10238249D01*
X-1019565Y9387458D01*
X-1941066Y10308959D01*
X-1941066Y10308959D01*
G37*
D26*
X147162Y9071522D03*
D27*
G36*
X-738984Y9106877D02*
X111807Y9957668D01*
X1033308Y9036167D01*
X182517Y8185376D01*
X-738984Y9106877D01*
X-738984Y9106877D01*
G37*
G04 #@! TD*
D17*
G04 #@! TO.C,C5*
X-8737600Y-1575700D03*
X-8737600Y-3275700D03*
G04 #@! TD*
G04 #@! TO.C,C6*
X6172200Y7455800D03*
X6172200Y9155800D03*
G04 #@! TD*
G04 #@! TO.C,C7*
X-8714208Y6748576D03*
X-8714208Y8448576D03*
G04 #@! TD*
G04 #@! TO.C,C8*
X2819400Y7455800D03*
X2819400Y9155800D03*
G04 #@! TD*
G04 #@! TO.C,C9*
X4495800Y7455800D03*
X4495800Y9155800D03*
G04 #@! TD*
D25*
G04 #@! TO.C,C10*
X-38488314Y5670744D03*
X-36788314Y5670744D03*
G04 #@! TD*
G04 #@! TO.C,C11*
X43839500Y-14135100D03*
X42139500Y-14135100D03*
G04 #@! TD*
G04 #@! TO.C,C12*
X-32197353Y11760341D03*
X-33897353Y11760341D03*
G04 #@! TD*
G04 #@! TO.C,C13*
X36553616Y-4320926D03*
X38253616Y-4320926D03*
G04 #@! TD*
G04 #@! TO.C,C14*
X-45783868Y4590655D03*
X-44083868Y4590655D03*
G04 #@! TD*
D17*
G04 #@! TO.C,C15*
X-12001500Y-9818000D03*
X-12001500Y-11518000D03*
G04 #@! TD*
D25*
G04 #@! TO.C,C18*
X-24764100Y-4267200D03*
X-23064100Y-4267200D03*
G04 #@! TD*
D17*
G04 #@! TO.C,C19*
X-41986200Y12739000D03*
X-41986200Y14439000D03*
G04 #@! TD*
D25*
G04 #@! TO.C,C20*
X-33910953Y8407541D03*
X-32210953Y8407541D03*
G04 #@! TD*
G04 #@! TO.C,C21*
X-33897353Y6731141D03*
X-32197353Y6731141D03*
G04 #@! TD*
G04 #@! TO.C,C22*
X29679000Y-12522200D03*
X27979000Y-12522200D03*
G04 #@! TD*
D17*
G04 #@! TO.C,C24*
X36042600Y-13958200D03*
X36042600Y-15658200D03*
G04 #@! TD*
D25*
G04 #@! TO.C,C27*
X-30955110Y-9282914D03*
X-29255110Y-9282914D03*
G04 #@! TD*
G04 #@! TO.C,C28*
X-29249000Y-7442200D03*
X-30949000Y-7442200D03*
G04 #@! TD*
D17*
G04 #@! TO.C,D1*
X36347400Y14418600D03*
X36347400Y16118600D03*
G04 #@! TD*
G04 #@! TO.C,D2*
X-31064200Y-16450600D03*
X-31064200Y-18150600D03*
G04 #@! TD*
G04 #@! TO.C,D3*
X-27398530Y-16470430D03*
X-27398530Y-18170430D03*
G04 #@! TD*
D28*
G04 #@! TO.C,D7*
X-31481000Y15807400D03*
X-32781000Y15807400D03*
D29*
X-32131000Y14757400D03*
D30*
X-32131000Y14082400D03*
G04 #@! TD*
D31*
G04 #@! TO.C,D8*
X-38352200Y-1822200D03*
D32*
X-36652200Y-1822200D03*
X-36652200Y177800D03*
X-38552200Y177800D03*
G04 #@! TD*
D25*
G04 #@! TO.C,D9*
X-28612200Y16335400D03*
X-26912200Y16335400D03*
G04 #@! TD*
G04 #@! TO.C,D10*
X-28612200Y13084200D03*
X-26912200Y13084200D03*
G04 #@! TD*
D17*
G04 #@! TO.C,D11*
X22372800Y14390000D03*
X22372800Y16090000D03*
G04 #@! TD*
D33*
G04 #@! TO.C,F1*
X-36314200Y2006600D03*
X-38514200Y2006600D03*
G04 #@! TD*
D34*
G04 #@! TO.C,J1*
X47669200Y-5751200D03*
X47669200Y-751200D03*
G04 #@! TD*
D35*
G04 #@! TO.C,J4*
X47879000Y-8788400D03*
G04 #@! TD*
D36*
G04 #@! TO.C,J11*
X4875400Y15709900D03*
X7375400Y15709900D03*
X2375400Y15709900D03*
G04 #@! TD*
D17*
G04 #@! TO.C,L1*
X-10457008Y6733376D03*
X-10457008Y8433376D03*
G04 #@! TD*
D25*
G04 #@! TO.C,L2*
X-38488314Y3943544D03*
X-36788314Y3943544D03*
G04 #@! TD*
D37*
G04 #@! TO.C,M2*
X-774700Y-9372600D03*
G04 #@! TD*
G04 #@! TO.C,M5*
X48234600Y2057400D03*
G04 #@! TD*
G04 #@! TO.C,M8*
X-40411400Y-4038600D03*
G04 #@! TD*
D38*
G04 #@! TO.C,Q1*
X36413400Y10327000D03*
X38313400Y10327000D03*
X37363400Y12627000D03*
G04 #@! TD*
D17*
G04 #@! TO.C,R1*
X-18821400Y-16450600D03*
X-18821400Y-18150600D03*
G04 #@! TD*
G04 #@! TO.C,R2*
X-17094200Y-16450600D03*
X-17094200Y-18150600D03*
G04 #@! TD*
G04 #@! TO.C,R3*
X38379400Y16118600D03*
X38379400Y14418600D03*
G04 #@! TD*
G04 #@! TO.C,R4*
X-32893000Y-16450600D03*
X-32893000Y-18150600D03*
G04 #@! TD*
G04 #@! TO.C,R5*
X-29235400Y-16501400D03*
X-29235400Y-18201400D03*
G04 #@! TD*
D25*
G04 #@! TO.C,R6*
X-12040500Y-13525500D03*
X-13740500Y-13525500D03*
G04 #@! TD*
G04 #@! TO.C,R8*
X18503000Y-17856200D03*
X16803000Y-17856200D03*
G04 #@! TD*
G04 #@! TO.C,R9*
X18503000Y-16078200D03*
X16803000Y-16078200D03*
G04 #@! TD*
G04 #@! TO.C,R10*
X11621400Y12268200D03*
X13321400Y12268200D03*
G04 #@! TD*
G04 #@! TO.C,R17*
X17182200Y12268200D03*
X15482200Y12268200D03*
G04 #@! TD*
G04 #@! TO.C,R21*
X-32197353Y10083941D03*
X-33897353Y10083941D03*
G04 #@! TD*
D17*
G04 #@! TO.C,R22*
X-34977753Y16267941D03*
X-34977753Y14567941D03*
G04 #@! TD*
G04 #@! TO.C,R23*
X7449842Y896374D03*
X7449842Y2596374D03*
G04 #@! TD*
G04 #@! TO.C,R24*
X-36755753Y16267941D03*
X-36755753Y14567941D03*
G04 #@! TD*
G04 #@! TO.C,R25*
X-38482953Y16267941D03*
X-38482953Y14567941D03*
G04 #@! TD*
G04 #@! TO.C,R30*
X5824242Y896374D03*
X5824242Y2596374D03*
G04 #@! TD*
D25*
G04 #@! TO.C,R31*
X-45783868Y6241655D03*
X-44083868Y6241655D03*
G04 #@! TD*
G04 #@! TO.C,R32*
X-28612200Y14709800D03*
X-26912200Y14709800D03*
G04 #@! TD*
G04 #@! TO.C,R33*
X-28612200Y11458600D03*
X-26912200Y11458600D03*
G04 #@! TD*
D17*
G04 #@! TO.C,R34*
X-40260953Y14567941D03*
X-40260953Y16267941D03*
G04 #@! TD*
D25*
G04 #@! TO.C,R35*
X36097911Y-10225205D03*
X37797911Y-10225205D03*
G04 #@! TD*
G04 #@! TO.C,R36*
X36097911Y-11850805D03*
X37797911Y-11850805D03*
G04 #@! TD*
G04 #@! TO.C,R37*
X33438200Y-12522200D03*
X31738200Y-12522200D03*
G04 #@! TD*
D17*
G04 #@! TO.C,R39*
X24100000Y14390000D03*
X24100000Y16090000D03*
G04 #@! TD*
D25*
G04 #@! TO.C,R40*
X-29255110Y-11010114D03*
X-30955110Y-11010114D03*
G04 #@! TD*
G04 #@! TO.C,R41*
X-29255110Y-5664200D03*
X-30955110Y-5664200D03*
G04 #@! TD*
G04 #@! TO.C,R42*
X-36562400Y-5435600D03*
X-34862400Y-5435600D03*
G04 #@! TD*
D17*
G04 #@! TO.C,R43*
X-38404800Y-7479400D03*
X-38404800Y-5779400D03*
G04 #@! TD*
D39*
G04 #@! TO.C,U2*
X-3493571Y6519058D03*
D27*
G36*
X-4185263Y6890289D02*
X-3864802Y7210750D01*
X-2801879Y6147827D01*
X-3122340Y5827366D01*
X-4185263Y6890289D01*
X-4185263Y6890289D01*
G37*
D39*
X-3847124Y6165505D03*
D27*
G36*
X-4538816Y6536736D02*
X-4218355Y6857197D01*
X-3155432Y5794274D01*
X-3475893Y5473813D01*
X-4538816Y6536736D01*
X-4538816Y6536736D01*
G37*
D39*
X-4200678Y5811951D03*
D27*
G36*
X-4892370Y6183182D02*
X-4571909Y6503643D01*
X-3508986Y5440720D01*
X-3829447Y5120259D01*
X-4892370Y6183182D01*
X-4892370Y6183182D01*
G37*
D39*
X-4554231Y5458398D03*
D27*
G36*
X-5245923Y5829629D02*
X-4925462Y6150090D01*
X-3862539Y5087167D01*
X-4183000Y4766706D01*
X-5245923Y5829629D01*
X-5245923Y5829629D01*
G37*
D39*
X-4907784Y5104845D03*
D27*
G36*
X-5599476Y5476076D02*
X-5279015Y5796537D01*
X-4216092Y4733614D01*
X-4536553Y4413153D01*
X-5599476Y5476076D01*
X-5599476Y5476076D01*
G37*
D39*
X-5261338Y4751291D03*
D27*
G36*
X-5953030Y5122522D02*
X-5632569Y5442983D01*
X-4569646Y4380060D01*
X-4890107Y4059599D01*
X-5953030Y5122522D01*
X-5953030Y5122522D01*
G37*
D39*
X-5614891Y4397738D03*
D27*
G36*
X-6306583Y4768969D02*
X-5986122Y5089430D01*
X-4923199Y4026507D01*
X-5243660Y3706046D01*
X-6306583Y4768969D01*
X-6306583Y4768969D01*
G37*
D39*
X-5968445Y4044184D03*
D27*
G36*
X-6660137Y4415415D02*
X-6339676Y4735876D01*
X-5276753Y3672953D01*
X-5597214Y3352492D01*
X-6660137Y4415415D01*
X-6660137Y4415415D01*
G37*
D39*
X-6321998Y3690631D03*
D27*
G36*
X-7013690Y4061862D02*
X-6693229Y4382323D01*
X-5630306Y3319400D01*
X-5950767Y2998939D01*
X-7013690Y4061862D01*
X-7013690Y4061862D01*
G37*
D39*
X-6675551Y3337078D03*
D27*
G36*
X-7367243Y3708309D02*
X-7046782Y4028770D01*
X-5983859Y2965847D01*
X-6304320Y2645386D01*
X-7367243Y3708309D01*
X-7367243Y3708309D01*
G37*
D39*
X-7029105Y2983524D03*
D27*
G36*
X-7720797Y3354755D02*
X-7400336Y3675216D01*
X-6337413Y2612293D01*
X-6657874Y2291832D01*
X-7720797Y3354755D01*
X-7720797Y3354755D01*
G37*
D39*
X-7382658Y2629971D03*
D27*
G36*
X-8074350Y3001202D02*
X-7753889Y3321663D01*
X-6690966Y2258740D01*
X-7011427Y1938279D01*
X-8074350Y3001202D01*
X-8074350Y3001202D01*
G37*
D39*
X-7382658Y367229D03*
D27*
G36*
X-7753889Y-324463D02*
X-8074350Y-4002D01*
X-7011427Y1058921D01*
X-6690966Y738460D01*
X-7753889Y-324463D01*
X-7753889Y-324463D01*
G37*
D39*
X-7029105Y13676D03*
D27*
G36*
X-7400336Y-678016D02*
X-7720797Y-357555D01*
X-6657874Y705368D01*
X-6337413Y384907D01*
X-7400336Y-678016D01*
X-7400336Y-678016D01*
G37*
D39*
X-6675551Y-339878D03*
D27*
G36*
X-7046782Y-1031570D02*
X-7367243Y-711109D01*
X-6304320Y351814D01*
X-5983859Y31353D01*
X-7046782Y-1031570D01*
X-7046782Y-1031570D01*
G37*
D39*
X-6321998Y-693431D03*
D27*
G36*
X-6693229Y-1385123D02*
X-7013690Y-1064662D01*
X-5950767Y-1739D01*
X-5630306Y-322200D01*
X-6693229Y-1385123D01*
X-6693229Y-1385123D01*
G37*
D39*
X-5968445Y-1046984D03*
D27*
G36*
X-6339676Y-1738676D02*
X-6660137Y-1418215D01*
X-5597214Y-355292D01*
X-5276753Y-675753D01*
X-6339676Y-1738676D01*
X-6339676Y-1738676D01*
G37*
D39*
X-5614891Y-1400538D03*
D27*
G36*
X-5986122Y-2092230D02*
X-6306583Y-1771769D01*
X-5243660Y-708846D01*
X-4923199Y-1029307D01*
X-5986122Y-2092230D01*
X-5986122Y-2092230D01*
G37*
D39*
X-5261338Y-1754091D03*
D27*
G36*
X-5632569Y-2445783D02*
X-5953030Y-2125322D01*
X-4890107Y-1062399D01*
X-4569646Y-1382860D01*
X-5632569Y-2445783D01*
X-5632569Y-2445783D01*
G37*
D39*
X-4907784Y-2107645D03*
D27*
G36*
X-5279015Y-2799337D02*
X-5599476Y-2478876D01*
X-4536553Y-1415953D01*
X-4216092Y-1736414D01*
X-5279015Y-2799337D01*
X-5279015Y-2799337D01*
G37*
D39*
X-4554231Y-2461198D03*
D27*
G36*
X-4925462Y-3152890D02*
X-5245923Y-2832429D01*
X-4183000Y-1769506D01*
X-3862539Y-2089967D01*
X-4925462Y-3152890D01*
X-4925462Y-3152890D01*
G37*
D39*
X-4200678Y-2814751D03*
D27*
G36*
X-4571909Y-3506443D02*
X-4892370Y-3185982D01*
X-3829447Y-2123059D01*
X-3508986Y-2443520D01*
X-4571909Y-3506443D01*
X-4571909Y-3506443D01*
G37*
D39*
X-3847124Y-3168305D03*
D27*
G36*
X-4218355Y-3859997D02*
X-4538816Y-3539536D01*
X-3475893Y-2476613D01*
X-3155432Y-2797074D01*
X-4218355Y-3859997D01*
X-4218355Y-3859997D01*
G37*
D39*
X-3493571Y-3521858D03*
D27*
G36*
X-3864802Y-4213550D02*
X-4185263Y-3893089D01*
X-3122340Y-2830166D01*
X-2801879Y-3150627D01*
X-3864802Y-4213550D01*
X-3864802Y-4213550D01*
G37*
D39*
X-1230829Y-3521858D03*
D27*
G36*
X-1922521Y-3150627D02*
X-1602060Y-2830166D01*
X-539137Y-3893089D01*
X-859598Y-4213550D01*
X-1922521Y-3150627D01*
X-1922521Y-3150627D01*
G37*
D39*
X-877276Y-3168305D03*
D27*
G36*
X-1568968Y-2797074D02*
X-1248507Y-2476613D01*
X-185584Y-3539536D01*
X-506045Y-3859997D01*
X-1568968Y-2797074D01*
X-1568968Y-2797074D01*
G37*
D39*
X-523722Y-2814751D03*
D27*
G36*
X-1215414Y-2443520D02*
X-894953Y-2123059D01*
X167970Y-3185982D01*
X-152491Y-3506443D01*
X-1215414Y-2443520D01*
X-1215414Y-2443520D01*
G37*
D39*
X-170169Y-2461198D03*
D27*
G36*
X-861861Y-2089967D02*
X-541400Y-1769506D01*
X521523Y-2832429D01*
X201062Y-3152890D01*
X-861861Y-2089967D01*
X-861861Y-2089967D01*
G37*
D39*
X183384Y-2107645D03*
D27*
G36*
X-508308Y-1736414D02*
X-187847Y-1415953D01*
X875076Y-2478876D01*
X554615Y-2799337D01*
X-508308Y-1736414D01*
X-508308Y-1736414D01*
G37*
D39*
X536938Y-1754091D03*
D27*
G36*
X-154754Y-1382860D02*
X165707Y-1062399D01*
X1228630Y-2125322D01*
X908169Y-2445783D01*
X-154754Y-1382860D01*
X-154754Y-1382860D01*
G37*
D39*
X890491Y-1400538D03*
D27*
G36*
X198799Y-1029307D02*
X519260Y-708846D01*
X1582183Y-1771769D01*
X1261722Y-2092230D01*
X198799Y-1029307D01*
X198799Y-1029307D01*
G37*
D39*
X1244045Y-1046984D03*
D27*
G36*
X552353Y-675753D02*
X872814Y-355292D01*
X1935737Y-1418215D01*
X1615276Y-1738676D01*
X552353Y-675753D01*
X552353Y-675753D01*
G37*
D39*
X1597598Y-693431D03*
D27*
G36*
X905906Y-322200D02*
X1226367Y-1739D01*
X2289290Y-1064662D01*
X1968829Y-1385123D01*
X905906Y-322200D01*
X905906Y-322200D01*
G37*
D39*
X1951151Y-339878D03*
D27*
G36*
X1259459Y31353D02*
X1579920Y351814D01*
X2642843Y-711109D01*
X2322382Y-1031570D01*
X1259459Y31353D01*
X1259459Y31353D01*
G37*
D39*
X2304705Y13676D03*
D27*
G36*
X1613013Y384907D02*
X1933474Y705368D01*
X2996397Y-357555D01*
X2675936Y-678016D01*
X1613013Y384907D01*
X1613013Y384907D01*
G37*
D39*
X2658258Y367229D03*
D27*
G36*
X1966566Y738460D02*
X2287027Y1058921D01*
X3349950Y-4002D01*
X3029489Y-324463D01*
X1966566Y738460D01*
X1966566Y738460D01*
G37*
D39*
X2658258Y2629971D03*
D27*
G36*
X2287027Y1938279D02*
X1966566Y2258740D01*
X3029489Y3321663D01*
X3349950Y3001202D01*
X2287027Y1938279D01*
X2287027Y1938279D01*
G37*
D39*
X2304705Y2983524D03*
D27*
G36*
X1933474Y2291832D02*
X1613013Y2612293D01*
X2675936Y3675216D01*
X2996397Y3354755D01*
X1933474Y2291832D01*
X1933474Y2291832D01*
G37*
D39*
X1951151Y3337078D03*
D27*
G36*
X1579920Y2645386D02*
X1259459Y2965847D01*
X2322382Y4028770D01*
X2642843Y3708309D01*
X1579920Y2645386D01*
X1579920Y2645386D01*
G37*
D39*
X1597598Y3690631D03*
D27*
G36*
X1226367Y2998939D02*
X905906Y3319400D01*
X1968829Y4382323D01*
X2289290Y4061862D01*
X1226367Y2998939D01*
X1226367Y2998939D01*
G37*
D39*
X1244045Y4044184D03*
D27*
G36*
X872814Y3352492D02*
X552353Y3672953D01*
X1615276Y4735876D01*
X1935737Y4415415D01*
X872814Y3352492D01*
X872814Y3352492D01*
G37*
D39*
X890491Y4397738D03*
D27*
G36*
X519260Y3706046D02*
X198799Y4026507D01*
X1261722Y5089430D01*
X1582183Y4768969D01*
X519260Y3706046D01*
X519260Y3706046D01*
G37*
D39*
X536938Y4751291D03*
D27*
G36*
X165707Y4059599D02*
X-154754Y4380060D01*
X908169Y5442983D01*
X1228630Y5122522D01*
X165707Y4059599D01*
X165707Y4059599D01*
G37*
D39*
X183384Y5104845D03*
D27*
G36*
X-187847Y4413153D02*
X-508308Y4733614D01*
X554615Y5796537D01*
X875076Y5476076D01*
X-187847Y4413153D01*
X-187847Y4413153D01*
G37*
D39*
X-170169Y5458398D03*
D27*
G36*
X-541400Y4766706D02*
X-861861Y5087167D01*
X201062Y6150090D01*
X521523Y5829629D01*
X-541400Y4766706D01*
X-541400Y4766706D01*
G37*
D39*
X-523722Y5811951D03*
D27*
G36*
X-894953Y5120259D02*
X-1215414Y5440720D01*
X-152491Y6503643D01*
X167970Y6183182D01*
X-894953Y5120259D01*
X-894953Y5120259D01*
G37*
D39*
X-877276Y6165505D03*
D27*
G36*
X-1248507Y5473813D02*
X-1568968Y5794274D01*
X-506045Y6857197D01*
X-185584Y6536736D01*
X-1248507Y5473813D01*
X-1248507Y5473813D01*
G37*
D39*
X-1230829Y6519058D03*
D27*
G36*
X-1602060Y5827366D02*
X-1922521Y6147827D01*
X-859598Y7210750D01*
X-539137Y6890289D01*
X-1602060Y5827366D01*
X-1602060Y5827366D01*
G37*
G04 #@! TD*
D40*
G04 #@! TO.C,U4*
X40695561Y-16124784D03*
X40695561Y-17074784D03*
X40695561Y-18024784D03*
X43395561Y-18024784D03*
X43395561Y-16124784D03*
G04 #@! TD*
D41*
G04 #@! TO.C,U5*
X-26035000Y-6444000D03*
X-24765000Y-6444000D03*
X-23495000Y-6444000D03*
X-22225000Y-6444000D03*
X-22225000Y-11844000D03*
X-23495000Y-11844000D03*
X-24765000Y-11844000D03*
X-26035000Y-11844000D03*
G04 #@! TD*
D42*
G04 #@! TO.C,U6*
X-37409083Y8945133D03*
X-37409083Y9695133D03*
X-38159083Y9695133D03*
X-38159083Y8945133D03*
D43*
X-39259083Y10070133D03*
X-39259083Y9570133D03*
X-39259083Y9070133D03*
X-39259083Y8570133D03*
D44*
X-38534083Y7845133D03*
X-38034083Y7845133D03*
D45*
X-37534083Y7845133D03*
D44*
X-37034083Y7845133D03*
D43*
X-36309083Y8570133D03*
X-36309083Y9070133D03*
X-36309083Y9570133D03*
X-36309083Y10070133D03*
D44*
X-37034083Y10795133D03*
X-37534083Y10795133D03*
X-38034083Y10795133D03*
D45*
X-38534083Y10795133D03*
G04 #@! TD*
D46*
G04 #@! TO.C,U7*
X33103800Y-14478000D03*
X33103800Y-15748000D03*
X33103800Y-17018000D03*
X33103800Y-18288000D03*
X27703800Y-18288000D03*
X27703800Y-17018000D03*
X27703800Y-15748000D03*
X27703800Y-14478000D03*
G04 #@! TD*
D47*
G04 #@! TO.C,U11*
X-33664610Y-8769814D03*
X-33664610Y-8269814D03*
X-33664610Y-7769814D03*
X-33664610Y-7269814D03*
X-36564610Y-7269814D03*
X-36564610Y-7769814D03*
X-36564610Y-8269814D03*
X-36564610Y-8769814D03*
D48*
X-35552110Y-7657314D03*
X-35552110Y-8382314D03*
X-34677110Y-7657314D03*
X-34677110Y-8382314D03*
G04 #@! TD*
D41*
G04 #@! TO.C,U12*
X-6159500Y-13147000D03*
X-7429500Y-13147000D03*
X-8699500Y-13147000D03*
X-9969500Y-13147000D03*
X-9969500Y-7747000D03*
X-8699500Y-7747000D03*
X-7429500Y-7747000D03*
X-6159500Y-7747000D03*
G04 #@! TD*
D12*
G04 #@! TO.C,Y1*
X-4058883Y10205683D03*
D27*
G36*
X-5263227Y9922840D02*
X-3776040Y11410027D01*
X-2854539Y10488526D01*
X-4341726Y9001339D01*
X-5263227Y9922840D01*
X-5263227Y9922840D01*
G37*
D12*
X-2291117Y8437917D03*
D27*
G36*
X-3495461Y8155074D02*
X-2008274Y9642261D01*
X-1086773Y8720760D01*
X-2573960Y7233573D01*
X-3495461Y8155074D01*
X-3495461Y8155074D01*
G37*
G04 #@! TD*
D49*
G04 #@! TO.C,Y2*
X24815800Y-16312200D03*
X24815800Y-13812200D03*
G04 #@! TD*
D17*
G04 #@! TO.C,C17*
X-5275802Y-16440022D03*
X-5275802Y-18140022D03*
G04 #@! TD*
D50*
G04 #@! TO.C,J13*
X18082900Y-2535800D03*
X17082900Y-2535800D03*
X16082900Y-2535800D03*
X15082900Y-2535800D03*
X14082900Y-2535800D03*
X13082900Y-2535800D03*
D51*
X19382900Y-5060800D03*
X11782900Y-5060800D03*
G04 #@! TD*
D25*
G04 #@! TO.C,C23*
X-29782400Y254000D03*
X-31482400Y254000D03*
G04 #@! TD*
D17*
G04 #@! TO.C,C25*
X-33172400Y342000D03*
X-33172400Y-1358000D03*
G04 #@! TD*
D25*
G04 #@! TO.C,R11*
X-29782400Y-1371600D03*
X-31482400Y-1371600D03*
G04 #@! TD*
G04 #@! TO.C,R12*
X-29782400Y1879600D03*
X-31482400Y1879600D03*
G04 #@! TD*
D46*
G04 #@! TO.C,U8*
X-21125200Y2463800D03*
X-21125200Y1193800D03*
X-21125200Y-76200D03*
X-21125200Y-1346200D03*
X-26525200Y-1346200D03*
X-26525200Y-76200D03*
X-26525200Y1193800D03*
X-26525200Y2463800D03*
G04 #@! TD*
D25*
G04 #@! TO.C,C26*
X-29782400Y3556000D03*
X-31482400Y3556000D03*
G04 #@! TD*
D17*
G04 #@! TO.C,C29*
X-22605064Y12765901D03*
X-22605064Y11065901D03*
G04 #@! TD*
D25*
G04 #@! TO.C,C30*
X-24230700Y14516100D03*
X-22530700Y14516100D03*
G04 #@! TD*
D17*
G04 #@! TO.C,R13*
X-24230664Y11065901D03*
X-24230664Y12765901D03*
G04 #@! TD*
G04 #@! TO.C,R14*
X-17843500Y7697100D03*
X-17843500Y9397100D03*
G04 #@! TD*
D46*
G04 #@! TO.C,U9*
X-26525200Y4292600D03*
X-26525200Y5562600D03*
X-26525200Y6832600D03*
X-26525200Y8102600D03*
X-21125200Y8102600D03*
X-21125200Y6832600D03*
X-21125200Y5562600D03*
X-21125200Y4292600D03*
G04 #@! TD*
D52*
G04 #@! TO.C,J7*
X8629400Y-13385800D03*
X4629400Y-13385800D03*
X8629400Y-12115800D03*
X4629400Y-12115800D03*
X8629400Y-10845800D03*
X4629400Y-10845800D03*
X8629400Y-9575800D03*
X4629400Y-9575800D03*
X8629400Y-8305800D03*
X4629400Y-8305800D03*
G04 #@! TD*
D18*
G04 #@! TO.C,J6*
X-8728700Y16326400D03*
X-9978700Y16326400D03*
X-11228700Y16326400D03*
X-12478700Y16326400D03*
X-13728700Y16326400D03*
X-14978700Y16326400D03*
X-16228700Y16326400D03*
X-17478700Y16326400D03*
X-18728700Y16326400D03*
D19*
X-6878700Y12976400D03*
X-20578700Y12976400D03*
G04 #@! TD*
M02*
