G04 #@! TF.GenerationSoftware,KiCad,Pcbnew,5.0.0-fee4fd1~66~ubuntu16.04.1*
G04 #@! TF.CreationDate,2018-09-07T15:36:00-07:00*
G04 #@! TF.ProjectId,fk-naturalist,666B2D6E61747572616C6973742E6B69,0.1*
G04 #@! TF.SameCoordinates,PX791ddc0PY791ddc0*
G04 #@! TF.FileFunction,Paste,Bot*
G04 #@! TF.FilePolarity,Positive*
%FSLAX46Y46*%
G04 Gerber Fmt 4.6, Leading zero omitted, Abs format (unit mm)*
G04 Created by KiCad (PCBNEW 5.0.0-fee4fd1~66~ubuntu16.04.1) date Fri Sep  7 15:36:00 2018*
%MOMM*%
%LPD*%
G01*
G04 APERTURE LIST*
%ADD10R,1.348740X0.628650*%
%ADD11R,1.259586X1.618488*%
%ADD12R,1.709928X1.259586*%
%ADD13R,0.360000X1.710000*%
%ADD14R,1.710000X0.360000*%
%ADD15R,0.900684X1.799082*%
%ADD16R,4.050000X2.070000*%
%ADD17R,3.780000X1.143000*%
%ADD18R,1.143000X3.780000*%
%ADD19R,1.170000X1.800000*%
%ADD20R,1.080000X0.720000*%
%ADD21R,1.980000X0.720000*%
%ADD22R,2.250000X1.800000*%
G04 APERTURE END LIST*
D10*
G04 #@! TO.C,M7*
X-47726600Y-5715000D03*
X-47327820Y-6814820D03*
X-47726600Y-7914640D03*
X-48127920Y-9014460D03*
X-47726600Y-10114280D03*
X-48127920Y-11216640D03*
X-47726600Y-12316460D03*
X-47726600Y-13416280D03*
D11*
X-37528500Y-12715240D03*
X-37528500Y-6715760D03*
D12*
X-50627280Y-14315440D03*
X-51528980Y-1115060D03*
G04 #@! TD*
D13*
G04 #@! TO.C,U1*
X-21182330Y-17449800D03*
X-22198330Y-17449800D03*
X-23214331Y-17449800D03*
X-24230331Y-17449800D03*
X-25246330Y-17449800D03*
X-26262330Y-17449800D03*
X-27278330Y-17449800D03*
X-28294330Y-17449800D03*
X-18134330Y-17449800D03*
D14*
X-30964730Y-11730350D03*
X-30964730Y-12746350D03*
X-30964730Y-13762350D03*
X-30964730Y-14778350D03*
X-30964730Y-7666350D03*
X-30964730Y-5634347D03*
X-30964730Y-4618350D03*
X-30964730Y-3602350D03*
X-30964730Y-2586350D03*
X-16234460Y-13770570D03*
X-16234460Y-12754570D03*
X-16234460Y-11738570D03*
X-16234460Y-10722570D03*
X-16234460Y-9706570D03*
X-16234460Y-8690570D03*
X-16234460Y-7674570D03*
X-16234460Y-6658566D03*
X-16234460Y-5642566D03*
X-16234460Y-4626570D03*
G04 #@! TD*
D15*
G04 #@! TO.C,U10*
X25763220Y-2895600D03*
X24264620Y-2895600D03*
X22763480Y-2895600D03*
X21264880Y-2895600D03*
X19763740Y-2895600D03*
X18265140Y-2895600D03*
X16764000Y-2895600D03*
X15265400Y-2895600D03*
X13764260Y-2895600D03*
X12265660Y-2895600D03*
X12265660Y13106400D03*
X13764260Y13106400D03*
X15265400Y13106400D03*
X16764000Y13106400D03*
X18265140Y13106400D03*
X19763740Y13106400D03*
X21264880Y13106400D03*
X22763480Y13106400D03*
X24264620Y13106400D03*
X25763220Y13106400D03*
G04 #@! TD*
D16*
G04 #@! TO.C,BT1*
X28355000Y-11811000D03*
X11955000Y-11811000D03*
G04 #@! TD*
D17*
G04 #@! TO.C,J1*
X47669200Y-3251200D03*
X47669200Y-751200D03*
X47669200Y-5751200D03*
G04 #@! TD*
D18*
G04 #@! TO.C,J11*
X2375400Y15709900D03*
X7375400Y15709900D03*
G04 #@! TD*
D19*
G04 #@! TO.C,U3*
X29372800Y7936500D03*
X31372800Y7936500D03*
X33372800Y7936500D03*
X35372800Y7936500D03*
X37372800Y7936500D03*
X39372800Y7936500D03*
X41372800Y7936500D03*
X43372800Y7936500D03*
X43372800Y-8063500D03*
X41372800Y-8063500D03*
X39372800Y-8063500D03*
X37372800Y-8063500D03*
X35372800Y-8063500D03*
X33372800Y-8063500D03*
X31372800Y-8063500D03*
X29372800Y-8063500D03*
G04 #@! TD*
D20*
G04 #@! TO.C,U14*
X-23345200Y8866000D03*
D21*
X-23845200Y7366000D03*
D20*
X-23345200Y5866000D03*
D22*
X-26195200Y7366000D03*
G04 #@! TD*
M02*
