G04 #@! TF.FileFunction,Copper,L2,Bot,Signal*
%FSLAX46Y46*%
G04 Gerber Fmt 4.6, Leading zero omitted, Abs format (unit mm)*
G04 Created by KiCad (PCBNEW 4.0.7-e2-6376~58~ubuntu16.04.1) date Tue Jun 19 08:51:36 2018*
%MOMM*%
%LPD*%
G01*
G04 APERTURE LIST*
%ADD10C,0.100000*%
%ADD11R,1.000760X1.998980*%
%ADD12R,1.498600X0.698500*%
%ADD13R,1.399540X1.798320*%
%ADD14R,1.899920X1.399540*%
%ADD15R,1.700000X1.700000*%
%ADD16O,1.700000X1.700000*%
%ADD17R,1.270000X4.200000*%
%ADD18R,0.400000X1.900000*%
%ADD19R,1.900000X0.400000*%
%ADD20R,4.500000X2.300000*%
%ADD21C,1.200000*%
%ADD22C,1.700000*%
%ADD23R,1.168400X1.600200*%
%ADD24C,0.500000*%
%ADD25C,0.254000*%
%ADD26C,0.508000*%
%ADD27C,0.762000*%
%ADD28C,0.381000*%
G04 APERTURE END LIST*
D10*
D11*
X24925020Y-3175000D03*
X23426420Y-3175000D03*
X21925280Y-3175000D03*
X20426680Y-3175000D03*
X18925540Y-3175000D03*
X17426940Y-3175000D03*
X15925800Y-3175000D03*
X14427200Y-3175000D03*
X12926060Y-3175000D03*
X11427460Y-3175000D03*
X11427460Y12827000D03*
X12926060Y12827000D03*
X14427200Y12827000D03*
X15925800Y12827000D03*
X17426940Y12827000D03*
X18925540Y12827000D03*
X20426680Y12827000D03*
X21925280Y12827000D03*
X23426420Y12827000D03*
X24925020Y12827000D03*
D12*
X-44246800Y-6690360D03*
X-43848020Y-7790180D03*
X-44246800Y-8890000D03*
X-44648120Y-9989820D03*
X-44246800Y-11089640D03*
X-44648120Y-12192000D03*
X-44246800Y-13291820D03*
X-44246800Y-14391640D03*
D13*
X-34048700Y-13690600D03*
X-34048700Y-7691120D03*
D14*
X-47147480Y-15290800D03*
X-48049180Y-2090420D03*
D15*
X7315200Y-17424400D03*
D16*
X4775200Y-17424400D03*
X2235200Y-17424400D03*
X-304800Y-17424400D03*
X-2844800Y-17424400D03*
X-5384800Y-17424400D03*
X-7924800Y-17424400D03*
X-10464800Y-17424400D03*
X-13004800Y-17424400D03*
D17*
X3037200Y14884400D03*
X8037200Y14884400D03*
D18*
X-22020530Y-17729200D03*
X-23036530Y-17729200D03*
X-24052531Y-17729200D03*
X-25068531Y-17729200D03*
X-26084530Y-17729200D03*
X-27100530Y-17729200D03*
X-28116530Y-17729200D03*
X-29132530Y-17729200D03*
X-18972530Y-17729200D03*
D19*
X-31802930Y-12009750D03*
X-31802930Y-13025750D03*
X-31802930Y-14041750D03*
X-31802930Y-15057750D03*
X-31802930Y-7945750D03*
X-31802930Y-5913747D03*
X-31802930Y-4897750D03*
X-31802930Y-3881750D03*
X-31802930Y-2865750D03*
X-17072660Y-14049970D03*
X-17072660Y-13033970D03*
X-17072660Y-12017970D03*
X-17072660Y-11001970D03*
X-17072660Y-9985970D03*
X-17072660Y-8969970D03*
X-17072660Y-7953970D03*
X-17072660Y-6937966D03*
X-17072660Y-5921966D03*
X-17072660Y-4905970D03*
D20*
X28316800Y-12090400D03*
X11916800Y-12090400D03*
D21*
X-44999800Y10590600D03*
X-44999800Y5740600D03*
D22*
X-47649800Y11790600D03*
X-47649800Y4540600D03*
D23*
X-7747000Y-7112000D03*
X-6223000Y-7112000D03*
D24*
X-9398000Y-5867400D03*
X-10287000Y-5867400D03*
X-24639681Y5370223D03*
X-23814681Y5370223D03*
X-23814681Y6220223D03*
X-24639681Y6220223D03*
X6604000Y6604000D03*
X-38997283Y8665733D03*
X-38247283Y8665733D03*
X-38247283Y9415733D03*
X6604000Y7620000D03*
X6604000Y9245600D03*
X-38997283Y9415733D03*
X-25464681Y5370223D03*
X-22989681Y5370223D03*
X-22989681Y6220223D03*
X-25464681Y6220223D03*
X22402800Y-1727200D03*
X22402800Y-812800D03*
X-31750000Y9194800D03*
X-31750000Y10414000D03*
X-31750000Y9804400D03*
X-42164000Y15544800D03*
X-42164000Y16357600D03*
X9194800Y14325600D03*
X9194800Y15443200D03*
X9194800Y14884400D03*
X-21183600Y14325600D03*
X-19964400Y14376400D03*
X-3251200Y4165600D03*
X-4165600Y4165600D03*
X-889000Y10541000D03*
X-2667000Y12319000D03*
X-1524000Y11176000D03*
X-2032000Y11684000D03*
X36347400Y5054600D03*
X29286200Y14605000D03*
X24104600Y14605000D03*
X34493200Y14630400D03*
X19075400Y14605000D03*
X-29083000Y-2997200D03*
X-28359100Y-2997200D03*
X-8940800Y-1828800D03*
X-14020800Y3937000D03*
X-14020800Y3302000D03*
X-14020800Y2667000D03*
X-14020800Y2032000D03*
X32054800Y5054600D03*
X32054800Y-3657600D03*
X34036000Y-16103600D03*
X21640800Y-15595600D03*
X24841200Y-1930400D03*
X3690667Y-1760663D03*
X7569200Y-1473200D03*
X-26572392Y-16039492D03*
X-35712400Y-4724400D03*
X-30073600Y-6908716D03*
X-14020800Y-4934327D03*
X-20675600Y-4927600D03*
X-20692299Y-9482901D03*
X-28905200Y-9989820D03*
X-25146000Y-9482901D03*
X18491200Y5054600D03*
X3657600Y5943600D03*
X-14020800Y-1828800D03*
X6604000Y5054600D03*
X38379390Y-12166590D03*
X37744400Y-3962400D03*
X30683200Y-15646400D03*
X9448800Y8026400D03*
X-14528800Y9042400D03*
X9296400Y-5029200D03*
X2239086Y-4876800D03*
X-22047200Y11074400D03*
X-36576000Y-16154400D03*
X558800Y-15189200D03*
X39370000Y-10515600D03*
X39319200Y-5283200D03*
X8585200Y-4318000D03*
X9253372Y7336752D03*
X-35763200Y-16205200D03*
X30124400Y-13868400D03*
X-14528800Y7721600D03*
X1625600Y-3911600D03*
X-22199600Y10261600D03*
X50800Y-14376400D03*
X2641600Y4267200D03*
X20167600Y4216400D03*
X-4978400Y3556000D03*
X29413200Y3860800D03*
X-5435600Y2946400D03*
X20995983Y3374226D03*
X-8483600Y-9982200D03*
X1397000Y-9982200D03*
X-23114000Y-8890000D03*
X-7416800Y-13157200D03*
X-23774400Y-10718800D03*
X-1930400Y-13157200D03*
X-7416800Y-12039600D03*
X-25650520Y-10138600D03*
X-1320800Y-12039600D03*
X-35915600Y-609600D03*
X2438400Y-2870200D03*
X-36220400Y-1371600D03*
X2692400Y-2260600D03*
X13462000Y-7620000D03*
X4521200Y-7620000D03*
X14732000Y-7112000D03*
X5130800Y-7061200D03*
X24333200Y5892800D03*
X-812800Y6959600D03*
X-32283400Y16535400D03*
X-40538400Y5943600D03*
X35001200Y457200D03*
X-2286000Y203200D03*
X29768800Y2540000D03*
X-6604000Y939800D03*
X22301200Y-13563600D03*
X-41757600Y10769600D03*
X-41757600Y9928400D03*
X-43366399Y-1016000D03*
X-33909000Y-15544800D03*
X-42748200Y-15544800D03*
X-34340800Y5283200D03*
X-35560000Y5283200D03*
X-25501600Y2540000D03*
X-24892000Y2540000D03*
X-39031803Y6578600D03*
X-24282400Y2540000D03*
X-20269200Y-1828800D03*
X-26568400Y-2133600D03*
X-26212800Y9144000D03*
X-26212800Y7975600D03*
X-26212800Y3892423D03*
X1066800Y11328400D03*
X19304000Y11026800D03*
X19608800Y-1422400D03*
X-3810000Y-16154400D03*
X-40640000Y-1905000D03*
X-40640000Y-1905000D03*
X6350000Y-508000D03*
X5537200Y12090400D03*
X53210Y-5409953D03*
X-17957800Y-3911600D03*
X-18821400Y-9423400D03*
X-12700000Y-3048000D03*
X-18872200Y-3048000D03*
X-19685000Y-12573000D03*
X-6705600Y-16611600D03*
X-16738600Y-16941800D03*
X-34848800Y-18694400D03*
X-27279600Y-15595600D03*
X10783200Y-50800D03*
X-2159000Y-1879600D03*
X37592000Y3098800D03*
X-6934200Y1549400D03*
X31191200Y2082800D03*
X-5789334Y725165D03*
X-30560200Y14427200D03*
X-38379400Y6578600D03*
X-37084000Y7112000D03*
X-30480000Y9779000D03*
X-21742400Y152400D03*
X-21894800Y8382000D03*
X53210Y-4433494D03*
X-14938970Y-11001970D03*
X-15036800Y-3657600D03*
X-13208000Y-7950200D03*
X-13208000Y-5080000D03*
X-12001500Y-5080000D03*
X-11112500Y-5842000D03*
X39217600Y1879600D03*
X-5080000Y685800D03*
X38506400Y1117610D03*
X-4419600Y508000D03*
X-26113277Y-14040370D03*
X-2946400Y-13995400D03*
X-680455Y-6208488D03*
X-628346Y-5477083D03*
X-9575800Y-7112000D03*
X-39814500Y-17843500D03*
X-45942890Y-2865750D03*
X-21717000Y-6937966D03*
X-45567600Y-13716000D03*
X-45567600Y-13106400D03*
X-12509500Y5969000D03*
X-1270000Y7429500D03*
D25*
X-10287000Y-5867400D02*
X-9398000Y-5867400D01*
X22402800Y-812800D02*
X22402800Y-1727200D01*
X-31750000Y9804400D02*
X-31750000Y10414000D01*
X8037200Y14884400D02*
X9194800Y14884400D01*
X-19964400Y14376400D02*
X-21132800Y14376400D01*
X-21132800Y14376400D02*
X-21183600Y14325600D01*
X-1524000Y11176000D02*
X-889000Y10541000D01*
X-2032000Y11684000D02*
X-1524000Y11176000D01*
X29286200Y14605000D02*
X34467800Y14605000D01*
X24104600Y14605000D02*
X29286200Y14605000D01*
X19075400Y14605000D02*
X24104600Y14605000D01*
X34467800Y14605000D02*
X34493200Y14630400D01*
D26*
X-29083000Y-2997200D02*
X-28359100Y-2997200D01*
X-14020800Y-1828800D02*
X-14583599Y-2391599D01*
X-20466126Y-2997200D02*
X-28359100Y-2997200D01*
X-14583599Y-2391599D02*
X-19860525Y-2391599D01*
X-19860525Y-2391599D02*
X-20466126Y-2997200D01*
D27*
X32054800Y5054600D02*
X36347400Y5054600D01*
D25*
X21640800Y-15595600D02*
X29848886Y-15595600D01*
X29848886Y-15595600D02*
X30429087Y-16175801D01*
X30429087Y-16175801D02*
X33963799Y-16175801D01*
X33963799Y-16175801D02*
X34036000Y-16103600D01*
X24841200Y-1930400D02*
X24841200Y-3091180D01*
X24841200Y-3091180D02*
X24925020Y-3175000D01*
X-24052531Y-17729200D02*
X-24052531Y-18479200D01*
X-24052531Y-18479200D02*
X-23573130Y-18958601D01*
X-23573130Y-18958601D02*
X-20655931Y-18958601D01*
X-20655931Y-18958601D02*
X-19426530Y-17729200D01*
X-19426530Y-17729200D02*
X-18972530Y-17729200D01*
D28*
X24925020Y-3657600D02*
X32054800Y-3657600D01*
X-18972530Y-17729200D02*
X-13309600Y-17729200D01*
X-13309600Y-17729200D02*
X-13004800Y-17424400D01*
X-14020800Y-1828800D02*
X-8940800Y-1828800D01*
D27*
X-14020800Y4318000D02*
X-14020800Y3937000D01*
X-14020800Y3937000D02*
X-14020800Y508000D01*
D25*
X-14020800Y3302000D02*
X-14020800Y3937000D01*
D27*
X21259800Y5054600D02*
X32054800Y5054600D01*
D25*
X7569200Y-1473200D02*
X3978130Y-1473200D01*
X3978130Y-1473200D02*
X3690667Y-1760663D01*
D28*
X-14020800Y-4934327D02*
X-17044303Y-4934327D01*
X-17044303Y-4934327D02*
X-17072660Y-4905970D01*
X-20675600Y-4927600D02*
X-17094290Y-4927600D01*
X-17094290Y-4927600D02*
X-17072660Y-4905970D01*
D25*
X-26572392Y-16039492D02*
X-24992239Y-16039492D01*
X-24992239Y-16039492D02*
X-24052531Y-16979200D01*
X-24052531Y-16979200D02*
X-24052531Y-17729200D01*
X-30073600Y-6908716D02*
X-32460883Y-6908716D01*
X-32460883Y-6908716D02*
X-34645199Y-4724400D01*
X-34645199Y-4724400D02*
X-35712400Y-4724400D01*
D28*
X-44648120Y-9989820D02*
X-28905200Y-9989820D01*
X-28905200Y-9989820D02*
X-26957020Y-9989820D01*
X-25146000Y-9482901D02*
X-20692299Y-9482901D01*
X-26450101Y-9482901D02*
X-25146000Y-9482901D01*
X-26957020Y-9989820D02*
X-26450101Y-9482901D01*
D27*
X18796000Y5054600D02*
X21259800Y5054600D01*
X6604000Y5054600D02*
X18796000Y5054600D01*
D25*
X18796000Y5054600D02*
X18774600Y5054600D01*
D27*
X-13284200Y5054600D02*
X3657600Y5054600D01*
X3657600Y5054600D02*
X6604000Y5054600D01*
D28*
X3657600Y5590047D02*
X3657600Y5054600D01*
X3657600Y5943600D02*
X3657600Y5590047D01*
D27*
X-14020800Y4318000D02*
X-13284200Y5054600D01*
D25*
X38379390Y-3962400D02*
X38379390Y-12166590D01*
X38379390Y-1219190D02*
X38379390Y-3962400D01*
X38379390Y-3962400D02*
X37744400Y-3962400D01*
X-36576000Y-16154400D02*
X-36576000Y-16507953D01*
X-36576000Y-16507953D02*
X-36349352Y-16734601D01*
X-36349352Y-16734601D02*
X-30857001Y-16734601D01*
X-30857001Y-16734601D02*
X-28803610Y-14681210D01*
X-26136600Y-15439199D02*
X308801Y-15439199D01*
X-28803610Y-14681210D02*
X-26894589Y-14681210D01*
X-26894589Y-14681210D02*
X-26136600Y-15439199D01*
X308801Y-15439199D02*
X558800Y-15189200D01*
X2239086Y-4876800D02*
X9144000Y-4876800D01*
X9144000Y-4876800D02*
X9296400Y-5029200D01*
X558800Y-15189200D02*
X808799Y-14939201D01*
X808799Y-14939201D02*
X29976001Y-14939201D01*
X29976001Y-14939201D02*
X30683200Y-15646400D01*
X9296400Y-5029200D02*
X9546399Y-4779201D01*
X9546399Y-4779201D02*
X9546399Y-2696401D01*
X9546399Y-2696401D02*
X12090378Y-152422D01*
X12090378Y-152422D02*
X34252558Y-152422D01*
X34252558Y-152422D02*
X34709736Y-609600D01*
X34709736Y-609600D02*
X37769800Y-609600D01*
X37769800Y-609600D02*
X38379390Y-1219190D01*
X-14884400Y8585200D02*
X8890000Y8585200D01*
X8890000Y8585200D02*
X9448800Y8026400D01*
X-14884400Y8585200D02*
X-14630400Y8585200D01*
X-19558000Y8585200D02*
X-14884400Y8585200D01*
X9448800Y8149514D02*
X9448800Y8026400D01*
X-14528800Y9042400D02*
X-14528800Y8686800D01*
X-14528800Y8686800D02*
X-14630400Y8585200D01*
X-22047200Y11074400D02*
X-19558000Y8585200D01*
X39370000Y-10515600D02*
X39016447Y-10515600D01*
X39016447Y-10515600D02*
X38785800Y-10284953D01*
X38785800Y-10284953D02*
X38785800Y-10033000D01*
X38785800Y-1050850D02*
X38785800Y-5283200D01*
X38785800Y-5283200D02*
X38785800Y-10033000D01*
X39319200Y-5283200D02*
X38965647Y-5283200D01*
X38965647Y-5283200D02*
X38785800Y-5283200D01*
X-155029Y-14935782D02*
X-25984200Y-14935782D01*
X-26670000Y-14274800D02*
X-26009018Y-14935782D01*
X-26009018Y-14935782D02*
X-25984200Y-14935782D01*
X-29026751Y-14274800D02*
X-26670000Y-14274800D01*
X-29966551Y-15214600D02*
X-30957151Y-16205200D01*
X-29687733Y-14935782D02*
X-29966551Y-15214600D01*
X-29966551Y-15214600D02*
X-29026751Y-14274800D01*
X1625600Y-3911600D02*
X8178800Y-3911600D01*
X8178800Y-3911600D02*
X8585200Y-4318000D01*
X50800Y-14376400D02*
X29616400Y-14376400D01*
X29616400Y-14376400D02*
X30124400Y-13868400D01*
X8585200Y-4318000D02*
X8835199Y-4068001D01*
X8835199Y-4068001D02*
X8835199Y-2782315D01*
X8835199Y-2782315D02*
X11871503Y253989D01*
X34420897Y253989D02*
X34747087Y-72201D01*
X11871503Y253989D02*
X34420897Y253989D01*
X37807151Y-72201D02*
X38785800Y-1050850D01*
X34747087Y-72201D02*
X37807151Y-72201D01*
X50800Y-14376400D02*
X50800Y-14729953D01*
X50800Y-14729953D02*
X-155029Y-14935782D01*
X-30957151Y-16205200D02*
X-35763200Y-16205200D01*
X8231657Y8178790D02*
X8411334Y8178790D01*
X8411334Y8178790D02*
X9253372Y7336752D01*
X8231657Y8178790D02*
X8063730Y8178790D01*
X8063730Y8178790D02*
X7061210Y8178790D01*
X-18846810Y8178790D02*
X-14528800Y8178790D01*
X-14528800Y8178790D02*
X7061210Y8178790D01*
X-14528800Y7721600D02*
X-14528800Y8178790D01*
X-21809150Y10261600D02*
X-19710400Y8162850D01*
X-18862750Y8162850D02*
X-18846810Y8178790D01*
X-19710400Y8162850D02*
X-18862750Y8162850D01*
X-22199600Y10261600D02*
X-21809150Y10261600D01*
X2641600Y4267200D02*
X20116800Y4267200D01*
X20116800Y4267200D02*
X20167600Y4216400D01*
X-4978400Y3556000D02*
X-4775200Y3556000D01*
X7924800Y3606874D02*
X20445117Y3606874D01*
X-4775200Y3556000D02*
X-4724400Y3606800D01*
X-4724400Y3606800D02*
X7924726Y3606800D01*
X7924726Y3606800D02*
X7924800Y3606874D01*
X20445117Y3606874D02*
X20741870Y3903627D01*
X20741870Y3903627D02*
X21250096Y3903627D01*
X21250096Y3903627D02*
X21648523Y3505200D01*
X21648523Y3505200D02*
X29057600Y3505200D01*
X29057600Y3505200D02*
X29413200Y3860800D01*
X-5435600Y2946400D02*
X8638919Y2946400D01*
X8638919Y2946400D02*
X8892983Y3200464D01*
X8892983Y3200464D02*
X20783159Y3200464D01*
X20783159Y3200464D02*
X20956921Y3374226D01*
X20956921Y3374226D02*
X20995983Y3374226D01*
X1397000Y-9982200D02*
X-8483600Y-9982200D01*
X-8483600Y-9982200D02*
X-10160000Y-9982200D01*
X-23114000Y-8890000D02*
X-27940000Y-8890000D01*
X-27940000Y-8890000D02*
X-28326091Y-9276091D01*
X-28326091Y-9276091D02*
X-42692309Y-9276091D01*
X-42692309Y-9276091D02*
X-43078400Y-8890000D01*
X-43078400Y-8890000D02*
X-44246800Y-8890000D01*
X-23114000Y-8890000D02*
X-20272970Y-8890000D01*
X-19177000Y-9985970D02*
X-17072660Y-9985970D01*
X-20272970Y-8890000D02*
X-19177000Y-9985970D01*
X-17072660Y-9985970D02*
X-10163770Y-9985970D01*
X-10163770Y-9985970D02*
X-10160000Y-9982200D01*
X-15280690Y-12446000D02*
X-8128000Y-12446000D01*
X-8128000Y-12446000D02*
X-7416800Y-13157200D01*
X-17072660Y-13033970D02*
X-15868660Y-13033970D01*
X-15868660Y-13033970D02*
X-15280690Y-12446000D01*
X-1930400Y-13157200D02*
X-7416800Y-13157200D01*
X-24790400Y-11074400D02*
X-39166800Y-11074400D01*
X-24231600Y-11074400D02*
X-24790400Y-11074400D01*
X-24790400Y-11074400D02*
X-24130000Y-11074400D01*
X-24130000Y-11074400D02*
X-23774400Y-10718800D01*
X-46325602Y-12165142D02*
X-46325602Y-13914310D01*
X-44246800Y-11089640D02*
X-45250100Y-11089640D01*
X-45250100Y-11089640D02*
X-46325602Y-12165142D01*
X-20642630Y-10668000D02*
X-23723600Y-10668000D01*
X-23723600Y-10668000D02*
X-23774400Y-10718800D01*
X-45219621Y-15020291D02*
X-46325602Y-13914310D01*
X-43112691Y-15020291D02*
X-45219621Y-15020291D01*
X-39166800Y-11074400D02*
X-43112691Y-15020291D01*
X-20642630Y-10668000D02*
X-18276660Y-13033970D01*
X-18276660Y-13033970D02*
X-17072660Y-13033970D01*
X-7416800Y-12039600D02*
X-1320800Y-12039600D01*
X-17072660Y-12017970D02*
X-7438430Y-12017970D01*
X-7438430Y-12017970D02*
X-7416800Y-12039600D01*
X-25650520Y-10138600D02*
X-26060400Y-10548480D01*
X-26060400Y-10548480D02*
X-39250480Y-10548480D01*
X-39250480Y-10548480D02*
X-41993820Y-13291820D01*
X-41993820Y-13291820D02*
X-44246800Y-13291820D01*
X-18276660Y-12017970D02*
X-19913600Y-10381030D01*
X-25650520Y-10138600D02*
X-20156030Y-10138600D01*
X-20156030Y-10138600D02*
X-19913600Y-10381030D01*
X-17072660Y-12017970D02*
X-18276660Y-12017970D01*
X2053504Y-838190D02*
X-35077400Y-838190D01*
X-35077400Y-838190D02*
X-35305990Y-609600D01*
X-35305990Y-609600D02*
X-35915600Y-609600D01*
X2438400Y-2870200D02*
X2866314Y-2870200D01*
X2866314Y-2870200D02*
X3221801Y-2514713D01*
X3221801Y-2514713D02*
X3221801Y-2006487D01*
X3221801Y-2006487D02*
X2053504Y-838190D01*
X-36220400Y-1371600D02*
X-35866847Y-1371600D01*
X-35739847Y-1244600D02*
X-19177000Y-1244600D01*
X-35866847Y-1371600D02*
X-35739847Y-1244600D01*
X-19177000Y-1244600D02*
X-19151600Y-1270000D01*
X-19151600Y-1270000D02*
X1701800Y-1270000D01*
X1701800Y-1270000D02*
X2692400Y-2260600D01*
X10668000Y-7620000D02*
X13462000Y-7620000D01*
X4521200Y-7620000D02*
X10668000Y-7620000D01*
X11430000Y-7061200D02*
X14681200Y-7061200D01*
X14681200Y-7061200D02*
X14732000Y-7112000D01*
X5130800Y-7061200D02*
X11430000Y-7061200D01*
X8534400Y5791200D02*
X24231600Y5791200D01*
X24231600Y5791200D02*
X24333200Y5892800D01*
X5029200Y5791200D02*
X8534400Y5791200D01*
X4347399Y6473001D02*
X5029200Y5791200D01*
X-812800Y6959600D02*
X-326201Y6473001D01*
X-326201Y6473001D02*
X4347399Y6473001D01*
D26*
X-40538400Y5943600D02*
X-40538400Y6248400D01*
X-38707877Y7874000D02*
X-34163000Y7874000D01*
X-34163000Y7874000D02*
X-32639000Y9398000D01*
X-40538400Y6248400D02*
X-40333477Y6248400D01*
X-32639000Y9398000D02*
X-32639000Y16179800D01*
X-40333477Y6248400D02*
X-38707877Y7874000D01*
X-32639000Y16179800D02*
X-32283400Y16535400D01*
D25*
X-2286000Y203200D02*
X9753600Y203200D01*
X9753600Y203200D02*
X10261600Y711200D01*
X10261600Y711200D02*
X34747200Y711200D01*
X34747200Y711200D02*
X35001200Y457200D01*
X-6604000Y939800D02*
X-5562567Y1981233D01*
X-5562567Y1981233D02*
X8823252Y1981233D01*
X8823252Y1981233D02*
X9229661Y2387642D01*
X9229661Y2387642D02*
X21983439Y2387642D01*
X21983439Y2387642D02*
X22186639Y2590842D01*
X22186639Y2590842D02*
X28702000Y2590842D01*
X29667200Y2590800D02*
X28805647Y2590800D01*
X28805647Y2590800D02*
X28805605Y2590842D01*
X29768800Y2540000D02*
X29718000Y2540000D01*
X29718000Y2540000D02*
X29667200Y2590800D01*
X28702000Y2590842D02*
X28826011Y2590842D01*
X28805605Y2590842D02*
X28702000Y2590842D01*
X22301200Y-13563600D02*
X28247600Y-13563600D01*
X28247600Y-13563600D02*
X28316800Y-13494400D01*
X28316800Y-13494400D02*
X28316800Y-12090400D01*
D28*
X20426680Y-3657600D02*
X20426680Y-5300280D01*
X20426680Y-5300280D02*
X27216800Y-12090400D01*
X28436000Y-12090400D02*
X29536000Y-12090400D01*
D27*
X-41757600Y9928400D02*
X-41757600Y10769600D01*
X-41757600Y9928400D02*
X-42111153Y9928400D01*
X-42111153Y9928400D02*
X-43366399Y8673154D01*
X-43366399Y8673154D02*
X-43366399Y8348001D01*
X-43366399Y-1016000D02*
X-43366399Y8348001D01*
D25*
X-42748200Y-15544800D02*
X-42748200Y-15898353D01*
X-42748200Y-15898353D02*
X-39281542Y-19365011D01*
X-39281542Y-19365011D02*
X36413389Y-19365011D01*
X-33909000Y-15544800D02*
X-42748200Y-15544800D01*
X-38851956Y6045200D02*
X-36017200Y6045200D01*
X-35560000Y5283200D02*
X-35560000Y5636753D01*
X-35560000Y5636753D02*
X-35968447Y6045200D01*
X-35968447Y6045200D02*
X-36017200Y6045200D01*
D27*
X-35560000Y5283200D02*
X-34340800Y5283200D01*
X-34340800Y5283200D02*
X-33973553Y5283200D01*
X-24688800Y2540000D02*
X-25552400Y2540000D01*
X-25552400Y2540000D02*
X-31230353Y2540000D01*
X-23977181Y2540000D02*
X-24688800Y2540000D01*
D25*
X-39031803Y6225047D02*
X-38851956Y6045200D01*
D27*
X-33973553Y5283200D02*
X-31230353Y2540000D01*
D25*
X-39031803Y6578600D02*
X-39031803Y6225047D01*
X-25400000Y-1828800D02*
X-20269200Y-1828800D01*
X-25654000Y-1828800D02*
X-25400000Y-1828800D01*
X-25400000Y-1828800D02*
X-26263600Y-1828800D01*
X-26263600Y-1828800D02*
X-26568400Y-2133600D01*
X-26212800Y8329153D02*
X-26212800Y9144000D01*
X-26212800Y7975600D02*
X-26212800Y8329153D01*
X-26212800Y3892423D02*
X-26212800Y7975600D01*
X19304000Y11226800D02*
X1168400Y11226800D01*
X1168400Y11226800D02*
X1066800Y11328400D01*
X18925540Y-3175000D02*
X18925540Y-2105660D01*
X18925540Y-2105660D02*
X19608800Y-1422400D01*
X-3810000Y-16154400D02*
X-3560001Y-15904401D01*
X-3560001Y-15904401D02*
X3255201Y-15904401D01*
X3255201Y-15904401D02*
X3319399Y-15968599D01*
X3319399Y-15968599D02*
X4775200Y-17424400D01*
X-39941500Y-1524001D02*
X-37604701Y-1524001D01*
X-40640000Y-1905000D02*
X-40259001Y-1524001D01*
X-40259001Y-1524001D02*
X-39941500Y-1524001D01*
X-37604701Y-1524001D02*
X-36080700Y0D01*
X-36080700Y0D02*
X-35340840Y0D01*
X-35340840Y0D02*
X-34934440Y-406400D01*
X-34934440Y-406400D02*
X5894847Y-406400D01*
X5894847Y-406400D02*
X5996447Y-508000D01*
X5996447Y-508000D02*
X6350000Y-508000D01*
D27*
X5537200Y12090400D02*
X10690860Y12090400D01*
X10690860Y12090400D02*
X11427460Y12827000D01*
D25*
X-18821400Y-9423400D02*
X-19884201Y-8360599D01*
X-19884201Y-8360599D02*
X-27985349Y-8360599D01*
X-27985349Y-8360599D02*
X-28494431Y-8869681D01*
X-28494431Y-8869681D02*
X-41592499Y-8869681D01*
X-41592499Y-8869681D02*
X-42672000Y-7790180D01*
X-42672000Y-7790180D02*
X-43848020Y-7790180D01*
X-17957800Y-3911600D02*
X-17068800Y-3911600D01*
X-17068800Y-3911600D02*
X-16764000Y-4216400D01*
X-16764000Y-4216400D02*
X-1140343Y-4216400D01*
X-1140343Y-4216400D02*
X-196789Y-5159954D01*
X-196789Y-5159954D02*
X53210Y-5409953D01*
X-18872200Y-3048000D02*
X-12700000Y-3048000D01*
X-24231600Y-12009750D02*
X-23270850Y-12009750D01*
X-31802930Y-12009750D02*
X-24231600Y-12009750D01*
X-24231600Y-12009750D02*
X-20248250Y-12009750D01*
X-20248250Y-12009750D02*
X-19685000Y-12573000D01*
X-8077200Y-15968599D02*
X-15765399Y-15968599D01*
X-6705600Y-16611600D02*
X-7348601Y-15968599D01*
X-7348601Y-15968599D02*
X-8077200Y-15968599D01*
X-15765399Y-15968599D02*
X-16738600Y-16941800D01*
X-23036530Y-17729200D02*
X-23036530Y-16979200D01*
X-23036530Y-16979200D02*
X-22557129Y-16499799D01*
X-22557129Y-16499799D02*
X-17180601Y-16499799D01*
X-17180601Y-16499799D02*
X-16738600Y-16941800D01*
X-34584599Y-18958601D02*
X-34848800Y-18694400D01*
X-27100530Y-17729200D02*
X-27554530Y-17729200D01*
X-27554530Y-17729200D02*
X-27637129Y-17811799D01*
X-27637129Y-17811799D02*
X-27637129Y-18902721D01*
X-27637129Y-18902721D02*
X-27693009Y-18958601D01*
X-27693009Y-18958601D02*
X-34584599Y-18958601D01*
X-27647517Y-15968609D02*
X-27647517Y-15963517D01*
X-27647517Y-15963517D02*
X-27279600Y-15595600D01*
X-28116530Y-16437622D02*
X-27897516Y-16218608D01*
X-28116530Y-17729200D02*
X-28116530Y-16437622D01*
X-27897516Y-16218608D02*
X-27647517Y-15968609D01*
X2603500Y-3399601D02*
X2028001Y-3399601D01*
X4410899Y-2002601D02*
X3013899Y-3399601D01*
X3013899Y-3399601D02*
X2603500Y-3399601D01*
X10783200Y-50800D02*
X8966200Y-1867800D01*
X8966200Y-1867800D02*
X8831399Y-2002601D01*
X8831399Y-2002601D02*
X4410899Y-2002601D01*
X2028001Y-3399601D02*
X757999Y-2129599D01*
X757999Y-2129599D02*
X-1909001Y-2129599D01*
X-1909001Y-2129599D02*
X-2159000Y-1879600D01*
X37592000Y3098800D02*
X37238447Y3098800D01*
X37238447Y3098800D02*
X37238437Y3098790D01*
X37238437Y3098790D02*
X22119836Y3098790D01*
X22119836Y3098790D02*
X21815099Y2794053D01*
X21815099Y2794053D02*
X9061322Y2794053D01*
X9061322Y2794053D02*
X8654913Y2387644D01*
X8654913Y2387644D02*
X-6095956Y2387644D01*
X-6095956Y2387644D02*
X-6934200Y1549400D01*
X-5789334Y725165D02*
X-4939677Y1574822D01*
X-4939677Y1574822D02*
X8991591Y1574822D01*
X8991591Y1574822D02*
X9398000Y1981231D01*
X9398000Y1981231D02*
X31038831Y1981231D01*
X31038831Y1981231D02*
X31140400Y2082800D01*
X31140400Y2082800D02*
X31191200Y2082800D01*
X-30560200Y14427200D02*
X-30560200Y13919200D01*
X-29921200Y13280200D02*
X-29921200Y9077250D01*
X-30560200Y13919200D02*
X-29921200Y13280200D01*
X-32419850Y6578600D02*
X-32766000Y6578600D01*
X-32766000Y6578600D02*
X-38379400Y6578600D01*
X-29921200Y9077250D02*
X-32419850Y6578600D01*
X-31826200Y7747000D02*
X-30480000Y9093200D01*
X-30480000Y9093200D02*
X-30480000Y9779000D01*
X-31826200Y7747000D02*
X-31902400Y7670800D01*
X-37084000Y7112000D02*
X-32461200Y7112000D01*
X-32461200Y7112000D02*
X-31826200Y7747000D01*
X-21742400Y152400D02*
X-21742400Y8229600D01*
X-21742400Y8229600D02*
X-21894800Y8382000D01*
X-621084Y-3759200D02*
X-508000Y-3872284D01*
X-508000Y-3872284D02*
X-196789Y-4183495D01*
X-15036800Y-3657600D02*
X-722684Y-3657600D01*
X-722684Y-3657600D02*
X-508000Y-3872284D01*
X-196789Y-4183495D02*
X53210Y-4433494D01*
X-17072660Y-11001970D02*
X-14938970Y-11001970D01*
X-17072660Y-7953970D02*
X-13211770Y-7953970D01*
X-13211770Y-7953970D02*
X-13208000Y-7950200D01*
X-12001500Y-5080000D02*
X-13208000Y-5080000D01*
X-17072660Y-7953970D02*
X-16322660Y-7953970D01*
X-12627566Y-5921966D02*
X-11192466Y-5921966D01*
X-11192466Y-5921966D02*
X-11112500Y-5842000D01*
X-17072660Y-5921966D02*
X-12627566Y-5921966D01*
X9753600Y1524020D02*
X36982400Y1524020D01*
X36982400Y1524020D02*
X37896820Y1524020D01*
X39217600Y1879600D02*
X38506400Y1879600D01*
X38506400Y1879600D02*
X38150820Y1524020D01*
X38150820Y1524020D02*
X36982400Y1524020D01*
X-5080000Y685800D02*
X-4597389Y1168411D01*
X-4597389Y1168411D02*
X9397991Y1168411D01*
X9397991Y1168411D02*
X9753600Y1524020D01*
X10007600Y1117610D02*
X38506400Y1117610D01*
X-4419600Y508000D02*
X-4165600Y762000D01*
X-4165600Y762000D02*
X9651990Y762000D01*
X9651990Y762000D02*
X10007600Y1117610D01*
X-26113277Y-14040370D02*
X-25624276Y-14529371D01*
X-25624276Y-14529371D02*
X-3480371Y-14529371D01*
X-3480371Y-14529371D02*
X-2946400Y-13995400D01*
X-395627Y-6458487D02*
X10464800Y-6458487D01*
X12926060Y-4781626D02*
X11249199Y-6458487D01*
X10464800Y-6458487D02*
X10624283Y-6458487D01*
X12926060Y-3175000D02*
X12926060Y-4781626D01*
X11249199Y-6458487D02*
X10464800Y-6458487D01*
X-395627Y-6458487D02*
X-645626Y-6208488D01*
X11427460Y-3175000D02*
X11427460Y-4428490D01*
X11427460Y-4428490D02*
X9916596Y-5939354D01*
X9916596Y-5939354D02*
X-166075Y-5939354D01*
X-166075Y-5939354D02*
X-628346Y-5477083D01*
D28*
X-9575800Y-7112000D02*
X-7747000Y-7112000D01*
X-9575800Y-7112000D02*
X-9575800Y-7010400D01*
X-12750800Y-6937966D02*
X-12302534Y-6937966D01*
X-12750800Y-6937966D02*
X-9749834Y-6937966D01*
X-17072660Y-6937966D02*
X-12750800Y-6937966D01*
X-9749834Y-6937966D02*
X-9575800Y-7112000D01*
X-47147480Y-15290800D02*
X-47147480Y-2992120D01*
X-47147480Y-2992120D02*
X-48049180Y-2090420D01*
D25*
X-39814500Y-17843500D02*
X-29246830Y-17843500D01*
X-29246830Y-17843500D02*
X-29132530Y-17729200D01*
D28*
X-38163500Y-2865750D02*
X-38679750Y-2865750D01*
X-31802930Y-2865750D02*
X-38163500Y-2865750D01*
X-38163500Y-2865750D02*
X-45942890Y-2865750D01*
X-45942890Y-2865750D02*
X-46718220Y-2090420D01*
X-46718220Y-2090420D02*
X-48049180Y-2090420D01*
X-26980714Y-6937966D02*
X-31052930Y-2865750D01*
X-21717000Y-6937966D02*
X-26980714Y-6937966D01*
X-17072660Y-6937966D02*
X-18403660Y-6937966D01*
X-18403660Y-6937966D02*
X-21717000Y-6937966D01*
D25*
X-45567600Y-13106400D02*
X-45567600Y-13716000D01*
X-45567600Y-12293600D02*
X-45466000Y-12192000D01*
X-45466000Y-12192000D02*
X-44648120Y-12192000D01*
X-45567600Y-13106400D02*
X-45567600Y-12293600D01*
X-44648120Y-12192000D02*
X-44907200Y-12192000D01*
X-12509500Y5969000D02*
X-12509500Y7175500D01*
X-12509500Y7175500D02*
X-11912620Y7772380D01*
X-11912620Y7772380D02*
X-1612880Y7772380D01*
X-1612880Y7772380D02*
X-1270000Y7429500D01*
M02*
