M48
;DRILL file {KiCad 5.0.0-fee4fd1~66~ubuntu16.04.1} date Mon Aug 27 17:11:36 2018
;FORMAT={-:-/ absolute / inch / decimal}
FMAT,2
INCH,TZ
T1C0.0118
T2C0.0276
T3C0.0315
T4C0.0394
T5C0.0433
T6C0.0551
%
G90
G05
M72
T1
X-2.055Y0.28
X-2.03Y0.255
X-2.0125Y-0.4755
X-2.Y-0.445
X-1.949Y-0.4445
X-1.949Y-0.4765
X-1.828Y-0.579
X-1.785Y0.593
X-1.785Y0.569
X-1.785Y-0.255
X-1.755Y0.03
X-1.695Y0.519
X-1.627Y0.655
X-1.627Y0.623
X-1.567Y-0.064
X-1.567Y-0.064
X-1.563Y0.245
X-1.5037Y0.27
X-1.478Y0.27
X-1.427Y0.291
X-1.407Y-0.625
X-1.393Y-0.043
X-1.381Y-0.013
X-1.375Y-0.627
X-1.367Y0.219
X-1.339Y-0.725
X-1.319Y0.219
X-1.291Y0.661
X-1.278Y-0.472
X-1.238Y0.662
X-1.217Y0.421
X-1.217Y0.397
X-1.217Y0.373
X-1.1702Y0.587
X-1.167Y0.396
X-1.112Y-0.107
X-1.11Y0.111
X-1.044Y-0.606
X-1.0132Y-0.6205
X-0.9951Y-0.5418
X-0.9769Y-0.3882
X-0.966Y-0.061
X-0.957Y-0.3623
X-0.954Y0.6012
X-0.93Y-0.061
X-0.903Y-0.411
X-0.877Y-0.339
X-0.842Y-0.2165
X-0.842Y-0.2465
X-0.842Y-0.2765
X-0.791Y-0.687
X-0.7817Y-0.3623
X-0.781Y-0.183
X-0.754Y0.2855
X-0.7435Y0.2305
X-0.742Y-0.484
X-0.71Y-0.109
X-0.708Y-0.36
X-0.6932Y0.0677
X-0.674Y-0.143
X-0.668Y0.5447
X-0.6675Y0.0677
X-0.6425Y0.5415
X-0.6415Y0.0677
X-0.626Y-0.656
X-0.615Y0.0677
X-0.595Y-0.66
X-0.559Y-0.133
X-0.5551Y-0.4221
X-0.5545Y0.179
X-0.5405Y0.49
X-0.54Y-0.66
X-0.519Y0.221
X-0.519Y0.1915
X-0.519Y0.166
X-0.519Y0.091
X-0.519Y-0.061
X-0.519Y-0.1833
X-0.5121Y0.4637
X-0.487Y-0.184
X-0.487Y-0.3015
X-0.4825Y-0.715
X-0.467Y-0.109
X-0.4534Y0.2919
X-0.4425Y0.59
X-0.4395Y-0.1815
X-0.422Y0.5725
X-0.4Y-0.2225
X-0.3905Y0.1015
X-0.373Y0.119
X-0.3705Y0.0815
X-0.353Y0.099
X-0.346Y0.14
X-0.2925Y-0.075
X-0.2409Y0.0659
X-0.2155Y0.112
X-0.1934Y0.0628
X-0.1755Y0.042
X-0.1698Y0.0158
X-0.1695Y-0.382
X-0.16Y-0.6725
X-0.1568Y0.085
X-0.149Y0.039
X-0.131Y0.175
X-0.127Y0.0545
X-0.1265Y-0.502
X-0.126Y-0.4625
X-0.095Y0.175
X-0.085Y-0.625
X-0.083Y0.051
X-0.083Y-0.54
X-0.072Y0.496
X-0.0648Y0.0323
X-0.047Y0.471
X-0.027Y0.451
X-0.017Y0.306
X-0.002Y0.426
X0.0062Y-0.2334
X0.0083Y-0.2046
X0.0291Y0.308
X0.0305Y0.019
X0.035Y-0.555
X0.0351Y-0.202
X0.0475Y-0.1455
X0.055Y-0.587
X0.0761Y-0.1579
X0.097Y-0.143
X0.1212Y-0.181
X0.129Y-0.102
X0.137Y0.179
X0.139Y-0.078
X0.177Y0.245
X0.1783Y-0.0583
X0.1925Y0.487
X0.211Y-0.289
X0.235Y-0.267
X0.283Y-0.009
X0.293Y0.375
X0.293Y0.311
X0.293Y0.271
X0.293Y0.21
X0.331Y-0.047
X0.34Y0.1248
X0.343Y0.616
X0.343Y0.576
X0.371Y-0.159
X0.3807Y0.1422
X0.3973Y0.2998
X0.399Y-0.187
X0.405Y0.327
X0.4575Y-0.0485
X0.5407Y-0.1786
X0.563Y-0.289
X0.5685Y-0.0245
X0.594Y-0.0495
X0.613Y-0.269
X0.6725Y-0.0018
X0.761Y0.21
X0.805Y-0.045
X0.827Y0.177
X0.845Y-0.6025
X0.885Y-0.603
X0.911Y-0.523
X1.0125Y-0.17
X1.1565Y-0.255
X1.191Y0.163
X1.2147Y0.1248
X1.219Y-0.535
X1.235Y-0.2555
X1.2355Y0.1792
X1.241Y-0.605
X1.295Y0.21
X1.295Y-0.133
X1.33Y0.052
X1.345Y-0.392
X1.373Y-0.623
X1.3926Y-0.1626
X1.3926Y-0.236
X1.411Y0.029
X1.465Y-0.527
X1.465Y-0.577
X1.5955Y-0.5965
X1.771Y-0.6312
T2
X-1.8871Y0.428
X-1.8871Y0.237
T3
X-1.9393Y0.4427
X-1.9393Y0.2222
T4
X1.885Y-0.346
T5
X-1.9915Y0.4752G85X-1.9915Y0.4752
G05
X-1.9915Y0.1898G85X-1.9915Y0.1898
G05
T6
X-2.022Y0.3325G85X-2.022Y0.3325
G05
T0
M30
