G04 #@! TF.FileFunction,Copper,L1,Top,Signal*
%FSLAX46Y46*%
G04 Gerber Fmt 4.6, Leading zero omitted, Abs format (unit mm)*
G04 Created by KiCad (PCBNEW 4.0.7-e2-6376~58~ubuntu16.04.1) date Tue Jun 19 08:51:36 2018*
%MOMM*%
%LPD*%
G01*
G04 APERTURE LIST*
%ADD10C,0.100000*%
%ADD11R,1.000000X1.100000*%
%ADD12R,1.100000X1.000000*%
%ADD13R,0.400000X0.500000*%
%ADD14R,1.600000X1.100000*%
%ADD15R,0.400000X0.250000*%
%ADD16R,1.000000X0.700000*%
%ADD17R,0.600000X0.700000*%
%ADD18R,1.000000X1.500000*%
%ADD19R,0.600000X1.700000*%
%ADD20R,1.000000X2.800000*%
%ADD21R,2.500000X0.750000*%
%ADD22R,1.700000X1.700000*%
%ADD23O,1.700000X1.700000*%
%ADD24R,1.000000X3.500000*%
%ADD25R,1.500000X3.400000*%
%ADD26R,1.270000X4.200000*%
%ADD27R,1.800000X5.700000*%
%ADD28R,0.650000X1.050000*%
%ADD29R,1.450000X0.700000*%
%ADD30R,0.650000X1.560000*%
%ADD31R,0.600000X2.000000*%
%ADD32R,0.750000X0.750000*%
%ADD33R,0.850000X0.280000*%
%ADD34R,0.280000X0.850000*%
%ADD35R,0.300000X0.850000*%
%ADD36R,2.000000X0.600000*%
%ADD37R,0.250000X0.700000*%
%ADD38R,0.825000X0.850000*%
%ADD39R,0.750000X0.300000*%
%ADD40R,0.875000X0.725000*%
%ADD41R,0.250000X0.675000*%
%ADD42R,0.575000X0.250000*%
%ADD43R,1.900000X1.100000*%
%ADD44R,1.100000X1.900000*%
%ADD45R,0.800000X1.200000*%
%ADD46R,0.800000X2.200000*%
%ADD47R,2.000000X2.500000*%
%ADD48R,1.350000X0.400000*%
%ADD49C,1.200000*%
%ADD50C,1.700000*%
%ADD51R,1.050000X0.650000*%
%ADD52R,1.700000X0.600000*%
%ADD53R,2.700000X1.000000*%
%ADD54C,0.750000*%
%ADD55C,0.500000*%
%ADD56C,0.254000*%
%ADD57C,0.381000*%
%ADD58C,0.508000*%
%ADD59C,0.762000*%
G04 APERTURE END LIST*
D10*
G36*
X-2480017Y11288208D02*
X-3187124Y10581101D01*
X-3964941Y11358918D01*
X-3257834Y12066025D01*
X-2480017Y11288208D01*
X-2480017Y11288208D01*
G37*
G36*
X-3682099Y12490290D02*
X-4389206Y11783183D01*
X-5167023Y12561000D01*
X-4459916Y13268107D01*
X-3682099Y12490290D01*
X-3682099Y12490290D01*
G37*
G36*
X-2635582Y10029559D02*
X-1928475Y10736666D01*
X-1150658Y9958849D01*
X-1857765Y9251742D01*
X-2635582Y10029559D01*
X-2635582Y10029559D01*
G37*
G36*
X-1433500Y8827477D02*
X-726393Y9534584D01*
X51424Y8756767D01*
X-655683Y8049660D01*
X-1433500Y8827477D01*
X-1433500Y8827477D01*
G37*
D11*
X-9880600Y-3087000D03*
X-9880600Y-4787000D03*
X5334000Y7176400D03*
X5334000Y8876400D03*
X-9552408Y6469176D03*
X-9552408Y8169176D03*
X1981200Y7176400D03*
X1981200Y8876400D03*
X3657600Y7176400D03*
X3657600Y8876400D03*
D12*
X-39326514Y5391344D03*
X-37626514Y5391344D03*
D11*
X-8536042Y14520594D03*
X-8536042Y12820594D03*
D12*
X-33035553Y11480941D03*
X-34735553Y11480941D03*
X-46668024Y1964425D03*
X-48368024Y1964425D03*
X-25602300Y-4546600D03*
X-23902300Y-4546600D03*
D11*
X-42862500Y12421500D03*
X-42862500Y14121500D03*
D12*
X-34749153Y8128141D03*
X-33049153Y8128141D03*
X-34735553Y6451741D03*
X-33035553Y6451741D03*
D11*
X-24739600Y729223D03*
X-24739600Y-970777D03*
X-26583981Y729223D03*
X-26583981Y-970777D03*
D12*
X-31793310Y-9562314D03*
X-30093310Y-9562314D03*
X-30093310Y-6006314D03*
X-31793310Y-6006314D03*
D11*
X-28397200Y736600D03*
X-28397200Y-963400D03*
X-29802214Y6592844D03*
X-29802214Y8292844D03*
X-16728781Y6496823D03*
X-16728781Y8196823D03*
X-18455981Y6496823D03*
X-18455981Y8196823D03*
X35509200Y14139200D03*
X35509200Y15839200D03*
X-31902400Y-16730000D03*
X-31902400Y-18430000D03*
X-28236730Y-16749830D03*
X-28236730Y-18449830D03*
X30429200Y14139200D03*
X30429200Y15839200D03*
X20320000Y14139200D03*
X20320000Y15839200D03*
X25349200Y14139200D03*
X25349200Y15839200D03*
D13*
X-32319200Y15528000D03*
X-33619200Y15528000D03*
D14*
X-32969200Y14478000D03*
D15*
X-32969200Y13803000D03*
D16*
X-39190400Y-2101600D03*
D17*
X-37490400Y-2101600D03*
X-37490400Y-101600D03*
X-39390400Y-101600D03*
D12*
X-29450400Y16056000D03*
X-27750400Y16056000D03*
X-29450400Y12804800D03*
X-27750400Y12804800D03*
D11*
X1066800Y14102000D03*
X1066800Y15802000D03*
D18*
X-37152400Y1727200D03*
X-39352400Y1727200D03*
D19*
X15982000Y-8718000D03*
X14732000Y-8718000D03*
X13482000Y-8718000D03*
D20*
X17832000Y-12068000D03*
X11632000Y-12068000D03*
D19*
X-18702400Y15643600D03*
X-19952400Y15643600D03*
X-21202400Y15643600D03*
X-22452400Y15643600D03*
X-23702400Y15643600D03*
D20*
X-16852400Y12293600D03*
X-25552400Y12293600D03*
D21*
X7791200Y-13665200D03*
X3791200Y-13665200D03*
X7791200Y-12395200D03*
X3791200Y-12395200D03*
X7791200Y-11125200D03*
X3791200Y-11125200D03*
X7791200Y-9855200D03*
X3791200Y-9855200D03*
X7791200Y-8585200D03*
X3791200Y-8585200D03*
D22*
X7315200Y-17424400D03*
D23*
X4775200Y-17424400D03*
X2235200Y-17424400D03*
X-304800Y-17424400D03*
X-2844800Y-17424400D03*
X-5384800Y-17424400D03*
X-7924800Y-17424400D03*
X-10464800Y-17424400D03*
X-13004800Y-17424400D03*
D24*
X-42754800Y-11976000D03*
X-40754800Y-11976000D03*
D25*
X-45104800Y-17526000D03*
X-38404800Y-17526000D03*
D26*
X5537200Y14884400D03*
X8037200Y14884400D03*
X3037200Y14884400D03*
D11*
X-11295208Y6453976D03*
X-11295208Y8153976D03*
D12*
X-39326514Y3664144D03*
X-37626514Y3664144D03*
D27*
X-20284781Y2012823D03*
X-15712781Y2012823D03*
D28*
X35575200Y10047600D03*
X37475200Y10047600D03*
X36525200Y12347600D03*
X30495200Y10029200D03*
X32395200Y10029200D03*
X31445200Y12329200D03*
X20386000Y10047600D03*
X22286000Y10047600D03*
X21336000Y12347600D03*
X25415200Y10080000D03*
X27315200Y10080000D03*
X26365200Y12380000D03*
D11*
X-19659600Y-16730000D03*
X-19659600Y-18430000D03*
X-17932400Y-16730000D03*
X-17932400Y-18430000D03*
X37541200Y15839200D03*
X37541200Y14139200D03*
X-33731200Y-16730000D03*
X-33731200Y-18430000D03*
X-30073600Y-16780800D03*
X-30073600Y-18480800D03*
D12*
X20204800Y-17754600D03*
X18504800Y-17754600D03*
X20204800Y-15976600D03*
X18504800Y-15976600D03*
X10783200Y11988800D03*
X12483200Y11988800D03*
X16344000Y11988800D03*
X14644000Y11988800D03*
D11*
X32461200Y15839200D03*
X32461200Y14139200D03*
X22352000Y15839200D03*
X22352000Y14139200D03*
X27381200Y15839200D03*
X27381200Y14139200D03*
D12*
X-33035553Y9804541D03*
X-34735553Y9804541D03*
D11*
X-35815953Y15988541D03*
X-35815953Y14288541D03*
X6611642Y616974D03*
X6611642Y2316974D03*
X-37593953Y15988541D03*
X-37593953Y14288541D03*
X-39321153Y15988541D03*
X-39321153Y14288541D03*
X4986042Y616974D03*
X4986042Y2316974D03*
D12*
X-46668024Y313425D03*
X-48368024Y313425D03*
X-29450400Y14430400D03*
X-27750400Y14430400D03*
X-29450400Y11179200D03*
X-27750400Y11179200D03*
D11*
X-41099153Y14288541D03*
X-41099153Y15988541D03*
D12*
X35259711Y-10504605D03*
X36959711Y-10504605D03*
X35259711Y-12130205D03*
X36959711Y-12130205D03*
D11*
X-23012400Y-970777D03*
X-23012400Y729223D03*
X-711200Y14110600D03*
X-711200Y15810600D03*
D12*
X-30093310Y-11289514D03*
X-31793310Y-11289514D03*
X-30093310Y-7784314D03*
X-31793310Y-7784314D03*
X-37400600Y-5715000D03*
X-35700600Y-5715000D03*
D11*
X-39243000Y-7758800D03*
X-39243000Y-6058800D03*
X-28057181Y6598423D03*
X-28057181Y8298423D03*
D12*
X-29755200Y4775200D03*
X-28055200Y4775200D03*
D29*
X11316469Y-18271829D03*
X16476469Y-18271829D03*
X16476469Y-16271829D03*
X11316469Y-16271829D03*
X16143600Y16073000D03*
X10983600Y16073000D03*
X10983600Y14073000D03*
X16143600Y14073000D03*
D10*
G36*
X-4879779Y6610889D02*
X-4703002Y6787666D01*
X-3783763Y5868427D01*
X-3960540Y5691650D01*
X-4879779Y6610889D01*
X-4879779Y6610889D01*
G37*
G36*
X-5233332Y6257336D02*
X-5056555Y6434113D01*
X-4137316Y5514874D01*
X-4314093Y5338097D01*
X-5233332Y6257336D01*
X-5233332Y6257336D01*
G37*
G36*
X-5586886Y5903782D02*
X-5410109Y6080559D01*
X-4490870Y5161320D01*
X-4667647Y4984543D01*
X-5586886Y5903782D01*
X-5586886Y5903782D01*
G37*
G36*
X-5940439Y5550229D02*
X-5763662Y5727006D01*
X-4844423Y4807767D01*
X-5021200Y4630990D01*
X-5940439Y5550229D01*
X-5940439Y5550229D01*
G37*
G36*
X-6293992Y5196676D02*
X-6117215Y5373453D01*
X-5197976Y4454214D01*
X-5374753Y4277437D01*
X-6293992Y5196676D01*
X-6293992Y5196676D01*
G37*
G36*
X-6647546Y4843122D02*
X-6470769Y5019899D01*
X-5551530Y4100660D01*
X-5728307Y3923883D01*
X-6647546Y4843122D01*
X-6647546Y4843122D01*
G37*
G36*
X-7001099Y4489569D02*
X-6824322Y4666346D01*
X-5905083Y3747107D01*
X-6081860Y3570330D01*
X-7001099Y4489569D01*
X-7001099Y4489569D01*
G37*
G36*
X-7354653Y4136015D02*
X-7177876Y4312792D01*
X-6258637Y3393553D01*
X-6435414Y3216776D01*
X-7354653Y4136015D01*
X-7354653Y4136015D01*
G37*
G36*
X-7708206Y3782462D02*
X-7531429Y3959239D01*
X-6612190Y3040000D01*
X-6788967Y2863223D01*
X-7708206Y3782462D01*
X-7708206Y3782462D01*
G37*
G36*
X-8061759Y3428909D02*
X-7884982Y3605686D01*
X-6965743Y2686447D01*
X-7142520Y2509670D01*
X-8061759Y3428909D01*
X-8061759Y3428909D01*
G37*
G36*
X-8415313Y3075355D02*
X-8238536Y3252132D01*
X-7319297Y2332893D01*
X-7496074Y2156116D01*
X-8415313Y3075355D01*
X-8415313Y3075355D01*
G37*
G36*
X-8768866Y2721802D02*
X-8592089Y2898579D01*
X-7672850Y1979340D01*
X-7849627Y1802563D01*
X-8768866Y2721802D01*
X-8768866Y2721802D01*
G37*
G36*
X-8592089Y-460179D02*
X-8768866Y-283402D01*
X-7849627Y635837D01*
X-7672850Y459060D01*
X-8592089Y-460179D01*
X-8592089Y-460179D01*
G37*
G36*
X-8238536Y-813732D02*
X-8415313Y-636955D01*
X-7496074Y282284D01*
X-7319297Y105507D01*
X-8238536Y-813732D01*
X-8238536Y-813732D01*
G37*
G36*
X-7884982Y-1167286D02*
X-8061759Y-990509D01*
X-7142520Y-71270D01*
X-6965743Y-248047D01*
X-7884982Y-1167286D01*
X-7884982Y-1167286D01*
G37*
G36*
X-7531429Y-1520839D02*
X-7708206Y-1344062D01*
X-6788967Y-424823D01*
X-6612190Y-601600D01*
X-7531429Y-1520839D01*
X-7531429Y-1520839D01*
G37*
G36*
X-7177876Y-1874392D02*
X-7354653Y-1697615D01*
X-6435414Y-778376D01*
X-6258637Y-955153D01*
X-7177876Y-1874392D01*
X-7177876Y-1874392D01*
G37*
G36*
X-6824322Y-2227946D02*
X-7001099Y-2051169D01*
X-6081860Y-1131930D01*
X-5905083Y-1308707D01*
X-6824322Y-2227946D01*
X-6824322Y-2227946D01*
G37*
G36*
X-6470769Y-2581499D02*
X-6647546Y-2404722D01*
X-5728307Y-1485483D01*
X-5551530Y-1662260D01*
X-6470769Y-2581499D01*
X-6470769Y-2581499D01*
G37*
G36*
X-6117215Y-2935053D02*
X-6293992Y-2758276D01*
X-5374753Y-1839037D01*
X-5197976Y-2015814D01*
X-6117215Y-2935053D01*
X-6117215Y-2935053D01*
G37*
G36*
X-5763662Y-3288606D02*
X-5940439Y-3111829D01*
X-5021200Y-2192590D01*
X-4844423Y-2369367D01*
X-5763662Y-3288606D01*
X-5763662Y-3288606D01*
G37*
G36*
X-5410109Y-3642159D02*
X-5586886Y-3465382D01*
X-4667647Y-2546143D01*
X-4490870Y-2722920D01*
X-5410109Y-3642159D01*
X-5410109Y-3642159D01*
G37*
G36*
X-5056555Y-3995713D02*
X-5233332Y-3818936D01*
X-4314093Y-2899697D01*
X-4137316Y-3076474D01*
X-5056555Y-3995713D01*
X-5056555Y-3995713D01*
G37*
G36*
X-4703002Y-4349266D02*
X-4879779Y-4172489D01*
X-3960540Y-3253250D01*
X-3783763Y-3430027D01*
X-4703002Y-4349266D01*
X-4703002Y-4349266D01*
G37*
G36*
X-2617037Y-3430027D02*
X-2440260Y-3253250D01*
X-1521021Y-4172489D01*
X-1697798Y-4349266D01*
X-2617037Y-3430027D01*
X-2617037Y-3430027D01*
G37*
G36*
X-2263484Y-3076474D02*
X-2086707Y-2899697D01*
X-1167468Y-3818936D01*
X-1344245Y-3995713D01*
X-2263484Y-3076474D01*
X-2263484Y-3076474D01*
G37*
G36*
X-1909930Y-2722920D02*
X-1733153Y-2546143D01*
X-813914Y-3465382D01*
X-990691Y-3642159D01*
X-1909930Y-2722920D01*
X-1909930Y-2722920D01*
G37*
G36*
X-1556377Y-2369367D02*
X-1379600Y-2192590D01*
X-460361Y-3111829D01*
X-637138Y-3288606D01*
X-1556377Y-2369367D01*
X-1556377Y-2369367D01*
G37*
G36*
X-1202824Y-2015814D02*
X-1026047Y-1839037D01*
X-106808Y-2758276D01*
X-283585Y-2935053D01*
X-1202824Y-2015814D01*
X-1202824Y-2015814D01*
G37*
G36*
X-849270Y-1662260D02*
X-672493Y-1485483D01*
X246746Y-2404722D01*
X69969Y-2581499D01*
X-849270Y-1662260D01*
X-849270Y-1662260D01*
G37*
G36*
X-495717Y-1308707D02*
X-318940Y-1131930D01*
X600299Y-2051169D01*
X423522Y-2227946D01*
X-495717Y-1308707D01*
X-495717Y-1308707D01*
G37*
G36*
X-142163Y-955153D02*
X34614Y-778376D01*
X953853Y-1697615D01*
X777076Y-1874392D01*
X-142163Y-955153D01*
X-142163Y-955153D01*
G37*
G36*
X211390Y-601600D02*
X388167Y-424823D01*
X1307406Y-1344062D01*
X1130629Y-1520839D01*
X211390Y-601600D01*
X211390Y-601600D01*
G37*
G36*
X564943Y-248047D02*
X741720Y-71270D01*
X1660959Y-990509D01*
X1484182Y-1167286D01*
X564943Y-248047D01*
X564943Y-248047D01*
G37*
G36*
X918497Y105507D02*
X1095274Y282284D01*
X2014513Y-636955D01*
X1837736Y-813732D01*
X918497Y105507D01*
X918497Y105507D01*
G37*
G36*
X1272050Y459060D02*
X1448827Y635837D01*
X2368066Y-283402D01*
X2191289Y-460179D01*
X1272050Y459060D01*
X1272050Y459060D01*
G37*
G36*
X1448827Y1802563D02*
X1272050Y1979340D01*
X2191289Y2898579D01*
X2368066Y2721802D01*
X1448827Y1802563D01*
X1448827Y1802563D01*
G37*
G36*
X1095274Y2156116D02*
X918497Y2332893D01*
X1837736Y3252132D01*
X2014513Y3075355D01*
X1095274Y2156116D01*
X1095274Y2156116D01*
G37*
G36*
X741720Y2509670D02*
X564943Y2686447D01*
X1484182Y3605686D01*
X1660959Y3428909D01*
X741720Y2509670D01*
X741720Y2509670D01*
G37*
G36*
X388167Y2863223D02*
X211390Y3040000D01*
X1130629Y3959239D01*
X1307406Y3782462D01*
X388167Y2863223D01*
X388167Y2863223D01*
G37*
G36*
X34614Y3216776D02*
X-142163Y3393553D01*
X777076Y4312792D01*
X953853Y4136015D01*
X34614Y3216776D01*
X34614Y3216776D01*
G37*
G36*
X-318940Y3570330D02*
X-495717Y3747107D01*
X423522Y4666346D01*
X600299Y4489569D01*
X-318940Y3570330D01*
X-318940Y3570330D01*
G37*
G36*
X-672493Y3923883D02*
X-849270Y4100660D01*
X69969Y5019899D01*
X246746Y4843122D01*
X-672493Y3923883D01*
X-672493Y3923883D01*
G37*
G36*
X-1026047Y4277437D02*
X-1202824Y4454214D01*
X-283585Y5373453D01*
X-106808Y5196676D01*
X-1026047Y4277437D01*
X-1026047Y4277437D01*
G37*
G36*
X-1379600Y4630990D02*
X-1556377Y4807767D01*
X-637138Y5727006D01*
X-460361Y5550229D01*
X-1379600Y4630990D01*
X-1379600Y4630990D01*
G37*
G36*
X-1733153Y4984543D02*
X-1909930Y5161320D01*
X-990691Y6080559D01*
X-813914Y5903782D01*
X-1733153Y4984543D01*
X-1733153Y4984543D01*
G37*
G36*
X-2086707Y5338097D02*
X-2263484Y5514874D01*
X-1344245Y6434113D01*
X-1167468Y6257336D01*
X-2086707Y5338097D01*
X-2086707Y5338097D01*
G37*
G36*
X-2440260Y5691650D02*
X-2617037Y5868427D01*
X-1697798Y6787666D01*
X-1521021Y6610889D01*
X-2440260Y5691650D01*
X-2440260Y5691650D01*
G37*
D30*
X-12278642Y12436208D03*
X-11328642Y12436208D03*
X-10378642Y12436208D03*
X-10378642Y15136208D03*
X-12278642Y15136208D03*
D31*
X-26873200Y-6723400D03*
X-25603200Y-6723400D03*
X-24333200Y-6723400D03*
X-23063200Y-6723400D03*
X-23063200Y-12123400D03*
X-24333200Y-12123400D03*
X-25603200Y-12123400D03*
X-26873200Y-12123400D03*
D32*
X-38247283Y8665733D03*
X-38247283Y9415733D03*
X-38997283Y9415733D03*
X-38997283Y8665733D03*
D33*
X-40097283Y9790733D03*
X-40097283Y9290733D03*
X-40097283Y8790733D03*
X-40097283Y8290733D03*
D34*
X-39372283Y7565733D03*
X-38872283Y7565733D03*
D35*
X-38372283Y7565733D03*
D34*
X-37872283Y7565733D03*
D33*
X-37147283Y8290733D03*
X-37147283Y8790733D03*
X-37147283Y9290733D03*
X-37147283Y9790733D03*
D34*
X-37872283Y10515733D03*
X-38372283Y10515733D03*
X-38872283Y10515733D03*
D35*
X-39372283Y10515733D03*
D36*
X32265600Y-14757400D03*
X32265600Y-16027400D03*
X32265600Y-17297400D03*
X32265600Y-18567400D03*
X26865600Y-18567400D03*
X26865600Y-17297400D03*
X26865600Y-16027400D03*
X26865600Y-14757400D03*
D37*
X-25477181Y4345223D03*
X-24977181Y4345223D03*
X-24477181Y4345223D03*
X-23977181Y4345223D03*
X-23477181Y4345223D03*
X-22977181Y4345223D03*
X-22977181Y7245223D03*
X-23477181Y7245223D03*
X-23977181Y7245223D03*
X-24477181Y7245223D03*
X-24977181Y7245223D03*
X-25477181Y7245223D03*
D38*
X-22989681Y6220223D03*
X-23814681Y6220223D03*
X-24639681Y6220223D03*
X-25464681Y6220223D03*
X-22989681Y5370223D03*
X-23814681Y5370223D03*
X-24639681Y5370223D03*
X-25464681Y5370223D03*
D39*
X-34502810Y-9049214D03*
X-34502810Y-8549214D03*
X-34502810Y-8049214D03*
X-34502810Y-7549214D03*
X-37402810Y-7549214D03*
X-37402810Y-8049214D03*
X-37402810Y-8549214D03*
X-37402810Y-9049214D03*
D40*
X-36390310Y-7936714D03*
X-36390310Y-8661714D03*
X-35515310Y-7936714D03*
X-35515310Y-8661714D03*
D41*
X23436372Y-600501D03*
X23936372Y-600501D03*
X24436372Y-600501D03*
X24936372Y-600501D03*
X25436372Y-600501D03*
X25936372Y-600501D03*
X26436372Y-600501D03*
X26936372Y-600501D03*
X27436372Y-600501D03*
X27936372Y-600501D03*
X23436372Y-3725501D03*
X23936372Y-3725501D03*
X24436372Y-3725501D03*
X24936372Y-3725501D03*
X25436372Y-3725501D03*
X25936372Y-3725501D03*
X26436372Y-3725501D03*
X26936372Y-3725501D03*
X27436372Y-3725501D03*
X27936372Y-3725501D03*
D42*
X23373872Y-1413001D03*
X23373872Y-1913001D03*
X23373872Y-2413001D03*
X23373872Y-2913001D03*
X27998872Y-1413001D03*
X27998872Y-1913001D03*
X27998872Y-2413001D03*
X27998872Y-2913001D03*
D10*
G36*
X-5957743Y9643440D02*
X-4614240Y10986943D01*
X-3836423Y10209126D01*
X-5179926Y8865623D01*
X-5957743Y9643440D01*
X-5957743Y9643440D01*
G37*
G36*
X-4189977Y7875674D02*
X-2846474Y9219177D01*
X-2068657Y8441360D01*
X-3412160Y7097857D01*
X-4189977Y7875674D01*
X-4189977Y7875674D01*
G37*
D43*
X23977600Y-16591600D03*
X23977600Y-14091600D03*
D44*
X23565800Y1574800D03*
X26065800Y1574800D03*
D11*
X-7924800Y6875576D03*
X-7924800Y8575576D03*
D12*
X28840800Y-12801600D03*
X27140800Y-12801600D03*
D11*
X35204400Y-14237600D03*
X35204400Y-15937600D03*
D12*
X22213200Y3733800D03*
X23913200Y3733800D03*
D11*
X21336000Y-1449600D03*
X21336000Y-3149600D03*
D12*
X27393000Y3733800D03*
X25693000Y3733800D03*
D11*
X25450800Y-7389600D03*
X25450800Y-5689600D03*
D12*
X30341200Y508000D03*
X32041200Y508000D03*
X30354370Y-1149402D03*
X32054370Y-1149402D03*
X32600000Y-12801600D03*
X30900000Y-12801600D03*
D11*
X23723600Y-5689600D03*
X23723600Y-7389600D03*
X21386800Y-5689600D03*
X21386800Y-7389600D03*
D12*
X-30493600Y-3746500D03*
X-32193600Y-3746500D03*
D11*
X30340300Y-2960000D03*
X30340300Y-4660000D03*
D45*
X-33961200Y-1369000D03*
D46*
X-32461200Y-869000D03*
D45*
X-30961200Y-1369000D03*
D47*
X-32461200Y1481000D03*
D48*
X-45074800Y9465600D03*
X-45074800Y8815600D03*
X-45074800Y8165600D03*
X-45074800Y7515600D03*
X-45074800Y6865600D03*
D49*
X-44999800Y10590600D03*
X-44999800Y5740600D03*
D50*
X-47649800Y11790600D03*
X-47649800Y4540600D03*
D51*
X-11881500Y-6987500D03*
X-11881500Y-8887500D03*
X-9581500Y-7937500D03*
D12*
X-10199000Y-10985500D03*
X-11899000Y-10985500D03*
D52*
X36351600Y-6493200D03*
X36351600Y-5243200D03*
X36351600Y-3993200D03*
X36351600Y-2743200D03*
X36351600Y-1493200D03*
X36351600Y-243200D03*
X36351600Y1006800D03*
D53*
X39551600Y-8343200D03*
X39551600Y2856800D03*
D54*
X-41275000Y-4699000D03*
X-1778000Y-8382000D03*
X39624000Y7747000D03*
D55*
X-9398000Y-5867400D03*
X-10287000Y-5867400D03*
X-24639681Y5370223D03*
X-23814681Y5370223D03*
X-23814681Y6220223D03*
X-24639681Y6220223D03*
X6604000Y6604000D03*
X-38997283Y8665733D03*
X-38247283Y8665733D03*
X-38247283Y9415733D03*
X6604000Y7620000D03*
X6604000Y9245600D03*
X-38997283Y9415733D03*
X-25464681Y5370223D03*
X-22989681Y5370223D03*
X-22989681Y6220223D03*
X-25464681Y6220223D03*
X22402800Y-1727200D03*
X22402800Y-812800D03*
X-31750000Y9194800D03*
X-31750000Y10414000D03*
X-31750000Y9804400D03*
X-42164000Y15544800D03*
X-42164000Y16357600D03*
X9194800Y14325600D03*
X9194800Y15443200D03*
X9194800Y14884400D03*
X-21183600Y14325600D03*
X-19964400Y14376400D03*
X-3251200Y4165600D03*
X-4165600Y4165600D03*
X-889000Y10541000D03*
X-2667000Y12319000D03*
X-1524000Y11176000D03*
X-2032000Y11684000D03*
X36347400Y5054600D03*
X29286200Y14605000D03*
X24104600Y14605000D03*
X34493200Y14630400D03*
X19075400Y14605000D03*
X-29083000Y-2997200D03*
X-28359100Y-2997200D03*
X-8940800Y-1828800D03*
X-14020800Y3937000D03*
X-14020800Y3302000D03*
X-14020800Y2667000D03*
X-14020800Y2032000D03*
X32054800Y5054600D03*
X32054800Y-3657600D03*
X34036000Y-16103600D03*
X21640800Y-15595600D03*
X24841200Y-1930400D03*
X3690667Y-1760663D03*
X7569200Y-1473200D03*
X-26572392Y-16039492D03*
X-35712400Y-4724400D03*
X-30073600Y-6908716D03*
X-14020800Y-4934327D03*
X-20675600Y-4927600D03*
X-20692299Y-9482901D03*
X-28905200Y-9989820D03*
X-25146000Y-9482901D03*
X18491200Y5054600D03*
X3657600Y5943600D03*
X-14020800Y-1828800D03*
X6604000Y5054600D03*
X38379390Y-12166590D03*
X37744400Y-3962400D03*
X30683200Y-15646400D03*
X9448800Y8026400D03*
X-14528800Y9042400D03*
X9296400Y-5029200D03*
X2239086Y-4876800D03*
X-22047200Y11074400D03*
X-36576000Y-16154400D03*
X558800Y-15189200D03*
X39370000Y-10515600D03*
X39319200Y-5283200D03*
X8585200Y-4318000D03*
X9253372Y7336752D03*
X-35763200Y-16205200D03*
X30124400Y-13868400D03*
X-14528800Y7721600D03*
X1625600Y-3911600D03*
X-22199600Y10261600D03*
X50800Y-14376400D03*
X2641600Y4267200D03*
X20167600Y4216400D03*
X-4978400Y3556000D03*
X29413200Y3860800D03*
X-5435600Y2946400D03*
X20995983Y3374226D03*
X-8483600Y-9982200D03*
X1397000Y-9982200D03*
X-23114000Y-8890000D03*
X-7416800Y-13157200D03*
X-23774400Y-10718800D03*
X-1930400Y-13157200D03*
X-7416800Y-12039600D03*
X-25650520Y-10138600D03*
X-1320800Y-12039600D03*
X-35915600Y-609600D03*
X2438400Y-2870200D03*
X-36220400Y-1371600D03*
X2692400Y-2260600D03*
X13462000Y-7620000D03*
X4521200Y-7620000D03*
X14732000Y-7112000D03*
X5130800Y-7061200D03*
X24333200Y5892800D03*
X-812800Y6959600D03*
X-32283400Y16535400D03*
X-40538400Y5943600D03*
X35001200Y457200D03*
X-2286000Y203200D03*
X29768800Y2540000D03*
X-6604000Y939800D03*
X22301200Y-13563600D03*
X-41757600Y10769600D03*
X-41757600Y9928400D03*
X-43366399Y-1016000D03*
X-33909000Y-15544800D03*
X-42748200Y-15544800D03*
X-34340800Y5283200D03*
X-35560000Y5283200D03*
X-25501600Y2540000D03*
X-24892000Y2540000D03*
X-39031803Y6578600D03*
X-24282400Y2540000D03*
X-20269200Y-1828800D03*
X-26568400Y-2133600D03*
X-26212800Y9144000D03*
X-26212800Y7975600D03*
X-26212800Y3892423D03*
X1066800Y11328400D03*
X19304000Y11026800D03*
X19608800Y-1422400D03*
X-3810000Y-16154400D03*
X-40640000Y-1905000D03*
X-40640000Y-1905000D03*
X6350000Y-508000D03*
X5537200Y12090400D03*
X53210Y-5409953D03*
X-17957800Y-3911600D03*
X-18821400Y-9423400D03*
X-12700000Y-3048000D03*
X-18872200Y-3048000D03*
X-19685000Y-12573000D03*
X-6705600Y-16611600D03*
X-16738600Y-16941800D03*
X-34848800Y-18694400D03*
X-27279600Y-15595600D03*
X10783200Y-50800D03*
X-2159000Y-1879600D03*
X37592000Y3098800D03*
X-6934200Y1549400D03*
X31191200Y2082800D03*
X-5789334Y725165D03*
X-30560200Y14427200D03*
X-38379400Y6578600D03*
X-37084000Y7112000D03*
X-30480000Y9779000D03*
X-21742400Y152400D03*
X-21894800Y8382000D03*
X53210Y-4433494D03*
X-14938970Y-11001970D03*
X-15036800Y-3657600D03*
X-13208000Y-7950200D03*
X-13208000Y-5080000D03*
X-12001500Y-5080000D03*
X-11112500Y-5842000D03*
X39217600Y1879600D03*
X-5080000Y685800D03*
X38506400Y1117610D03*
X-4419600Y508000D03*
X-26113277Y-14040370D03*
X-2946400Y-13995400D03*
X-680455Y-6208488D03*
X-628346Y-5477083D03*
X-9575800Y-7112000D03*
X-39814500Y-17843500D03*
X-45942890Y-2865750D03*
X-21717000Y-6937966D03*
X-45567600Y-13716000D03*
X-45567600Y-13106400D03*
X-12509500Y5969000D03*
X-1270000Y7429500D03*
D56*
X-48368024Y1964425D02*
X-48368024Y313425D01*
X-9880600Y-5461000D02*
X-9804400Y-5461000D01*
X-9804400Y-5461000D02*
X-9398000Y-5867400D01*
X-9880600Y-4787000D02*
X-9880600Y-5461000D01*
X-9880600Y-5461000D02*
X-10287000Y-5867400D01*
X-25464681Y5370223D02*
X-24639681Y5370223D01*
X-22989681Y5370223D02*
X-23814681Y5370223D01*
X-22989681Y6220223D02*
X-23814681Y6220223D01*
X-25464681Y6220223D02*
X-24639681Y6220223D01*
X52291Y4118338D02*
X-478038Y3588009D01*
X-3001201Y3915601D02*
X-3251200Y4165600D01*
X-478038Y3588009D02*
X-2673609Y3588009D01*
X-2673609Y3588009D02*
X-3001201Y3915601D01*
X6604000Y7620000D02*
X6604000Y6604000D01*
X6604000Y9245600D02*
X6336400Y8978000D01*
X6336400Y8978000D02*
X6336400Y8876400D01*
X6604000Y7620000D02*
X6604000Y8608800D01*
X6604000Y8608800D02*
X6336400Y8876400D01*
X5334000Y8876400D02*
X6336400Y8876400D01*
X-3251200Y4165600D02*
X-4165600Y4165600D01*
X-5745984Y4825445D02*
X-5086139Y4165600D01*
X-5086139Y4165600D02*
X-4165600Y4165600D01*
X-37872283Y7565733D02*
X-37872283Y6886733D01*
X-37872283Y6886733D02*
X-37538750Y6553200D01*
X21336000Y-1449600D02*
X22125200Y-1449600D01*
X22125200Y-1449600D02*
X22402800Y-1727200D01*
X21336000Y-1449600D02*
X21766000Y-1449600D01*
X21766000Y-1449600D02*
X22402800Y-812800D01*
X5334000Y8876400D02*
X3657600Y8876400D01*
X1981200Y8876400D02*
X3657600Y8876400D01*
X-31750000Y9804400D02*
X-31750000Y9194800D01*
X-33035553Y9804541D02*
X-31750141Y9804541D01*
X-31750141Y9804541D02*
X-31750000Y9804400D01*
X-42164000Y15544800D02*
X-42164000Y16357600D01*
X-41542894Y15544800D02*
X-41099153Y15988541D01*
X-41099153Y15988541D02*
X-41794941Y15988541D01*
X-41794941Y15988541D02*
X-42164000Y16357600D01*
X9194800Y14884400D02*
X9194800Y14325600D01*
X9194800Y14884400D02*
X9194800Y15443200D01*
X-21183600Y14325600D02*
X-21183600Y15624800D01*
X-21183600Y15624800D02*
X-21202400Y15643600D01*
X-19952400Y15643600D02*
X-19952400Y14388400D01*
X-19952400Y14388400D02*
X-19964400Y14376400D01*
X-2032000Y11684000D02*
X-2667000Y12319000D01*
X-1893120Y9994204D02*
X-1893120Y10806880D01*
X-1893120Y10806880D02*
X-1524000Y11176000D01*
X-3222479Y11323563D02*
X-2392437Y11323563D01*
X-2392437Y11323563D02*
X-2032000Y11684000D01*
X-3222479Y11323563D02*
X-1893120Y9994204D01*
X-23814681Y5370223D02*
X-23148181Y5370223D01*
X-23148181Y5370223D02*
X-22977181Y5199223D01*
X-22977181Y4949223D02*
X-22977181Y4345223D01*
X-22977181Y5199223D02*
X-22977181Y4949223D01*
X-23814681Y5370223D02*
X-24556181Y5370223D01*
X-24556181Y5370223D02*
X-24977181Y4949223D01*
X-24977181Y4949223D02*
X-24977181Y4345223D01*
X-40097283Y8290733D02*
X-39372283Y8290733D01*
X-39372283Y8290733D02*
X-38997283Y8665733D01*
X-38872283Y7565733D02*
X-38872283Y8540733D01*
X-38872283Y8540733D02*
X-38997283Y8665733D01*
X-37872283Y7565733D02*
X-37872283Y8290733D01*
X-37872283Y8290733D02*
X-38247283Y8665733D01*
X-35515310Y-8661714D02*
X-35127810Y-9049214D01*
X-35127810Y-9049214D02*
X-34502810Y-9049214D01*
X-36390310Y-7936714D02*
X-36390310Y-8661714D01*
X-35515310Y-8661714D02*
X-36390310Y-8661714D01*
X-35515310Y-7936714D02*
X-35515310Y-8661714D01*
X-34502810Y-7549214D02*
X-35127810Y-7549214D01*
X-35127810Y-7549214D02*
X-35515310Y-7936714D01*
X-24755181Y-970777D02*
X-24755181Y-920777D01*
D57*
X36351600Y1006800D02*
X36351600Y5050400D01*
X36351600Y5050400D02*
X36347400Y5054600D01*
D56*
X-9880600Y-3087000D02*
X-9880600Y-2768600D01*
X-9880600Y-2768600D02*
X-8940800Y-1828800D01*
X-31902400Y-16730000D02*
X-31902400Y-15926000D01*
X-31902400Y-15926000D02*
X-31042599Y-15066199D01*
X-27025487Y-15066199D02*
X-26572392Y-15519294D01*
X-31042599Y-15066199D02*
X-27025487Y-15066199D01*
X-26572392Y-15519294D02*
X-26572392Y-15685939D01*
X-26572392Y-15685939D02*
X-26572392Y-16039492D01*
X-28236730Y-16749830D02*
X-27282730Y-16749830D01*
X-27282730Y-16749830D02*
X-26572392Y-16039492D01*
X29286200Y14605000D02*
X29963400Y14605000D01*
X29963400Y14605000D02*
X30429200Y14139200D01*
X24104600Y14605000D02*
X24883400Y14605000D01*
X24883400Y14605000D02*
X25349200Y14139200D01*
X19075400Y14605000D02*
X19854200Y14605000D01*
X19854200Y14605000D02*
X20320000Y14139200D01*
X34493200Y14630400D02*
X35018000Y14630400D01*
X35018000Y14630400D02*
X35509200Y14139200D01*
X18491200Y11988800D02*
X18491200Y14020800D01*
X18491200Y14020800D02*
X19075400Y14605000D01*
X-25602300Y-4546600D02*
X-25602300Y-6722500D01*
X-25602300Y-6722500D02*
X-25603200Y-6723400D01*
D57*
X-29083000Y-2997200D02*
X-29744300Y-2997200D01*
X-29744300Y-2997200D02*
X-30493600Y-3746500D01*
D58*
X-29083000Y-2997200D02*
X-28359100Y-2997200D01*
X-29987300Y-1369000D02*
X-29286200Y-2070100D01*
X-29286200Y-2070100D02*
X-29286200Y-2794000D01*
X-29286200Y-2794000D02*
X-29083000Y-2997200D01*
X-30961200Y-1369000D02*
X-29987300Y-1369000D01*
D57*
X32600000Y-12801600D02*
X32600000Y-11920600D01*
X32600000Y-11920600D02*
X32600000Y-8890000D01*
X32600000Y-4556353D02*
X32600000Y-8890000D01*
X32054800Y-3657600D02*
X32054800Y-4011153D01*
X32054800Y-4011153D02*
X32600000Y-4556353D01*
D56*
X35259711Y-10504605D02*
X35259711Y-12130205D01*
X34036000Y-16103600D02*
X34036000Y-13157200D01*
X34036000Y-13157200D02*
X34036000Y-13019200D01*
X35259711Y-12130205D02*
X34455711Y-12130205D01*
X34455711Y-12130205D02*
X34036000Y-12549916D01*
X34036000Y-12549916D02*
X34036000Y-13157200D01*
X3791200Y-8585200D02*
X3791200Y-1861196D01*
X3791200Y-1861196D02*
X3690667Y-1760663D01*
X1546261Y5937461D02*
X1552400Y5943600D01*
X1552400Y5943600D02*
X3657600Y5943600D01*
X-654816Y4825445D02*
X457200Y5937461D01*
X1981200Y7176400D02*
X1981200Y6372400D01*
X1981200Y6372400D02*
X1546261Y5937461D01*
X1546261Y5937461D02*
X457200Y5937461D01*
X-27486203Y9673401D02*
X-25552400Y9673401D01*
X-24464609Y8911401D02*
X-25226609Y9673401D01*
X-25226609Y9673401D02*
X-25552400Y9673401D01*
X-21386800Y8665286D02*
X-19218337Y6496823D01*
X-21386800Y8665286D02*
X-21394572Y8665286D01*
X-21394572Y8665286D02*
X-21640687Y8911401D01*
X-21640687Y8911401D02*
X-24464609Y8911401D01*
D57*
X-19812000Y7902842D02*
X-19812000Y12954000D01*
X-18702400Y15643600D02*
X-18702400Y14412600D01*
X-18702400Y14412600D02*
X-19812000Y13303000D01*
X-19812000Y13303000D02*
X-19812000Y12954000D01*
X-18455981Y6496823D02*
X-19336981Y6496823D01*
X-19336981Y6496823D02*
X-19812000Y6971842D01*
X-19812000Y6971842D02*
X-19812000Y7902842D01*
X-16728781Y6496823D02*
X-15847781Y6496823D01*
X-15847781Y6496823D02*
X-15660342Y6309384D01*
X-15660342Y6309384D02*
X-14020800Y6309384D01*
D56*
X-8940800Y-1828800D02*
X-8690801Y-2078799D01*
X-8690801Y-2078799D02*
X-7559060Y-2078799D01*
X-7559060Y-2078799D02*
X-7336974Y-1856713D01*
X-7336974Y-1856713D02*
X-6806645Y-1326384D01*
X-14020800Y4318000D02*
X-14020800Y3302000D01*
X-14020800Y2667000D02*
X-14020800Y3302000D01*
X-14020800Y2032000D02*
X-14020800Y2667000D01*
X-14020800Y2667000D02*
X-14020800Y2550804D01*
D59*
X-14020800Y4318000D02*
X-14020800Y2032000D01*
X-14020800Y2032000D02*
X-14020800Y-1828800D01*
D56*
X-15712781Y2012823D02*
X-14039977Y2012823D01*
X-14039977Y2012823D02*
X-14020800Y2032000D01*
X18491200Y5054600D02*
X18491200Y11988800D01*
X16344000Y11988800D02*
X18491200Y11988800D01*
D57*
X32041200Y508000D02*
X32041200Y5041000D01*
X32041200Y5041000D02*
X32054800Y5054600D01*
X32054370Y-1149402D02*
X32054370Y-3657170D01*
X32054370Y-3657170D02*
X32054800Y-3657600D01*
X32041200Y508000D02*
X32041200Y-1136232D01*
X32041200Y-1136232D02*
X32054370Y-1149402D01*
D56*
X-25146000Y-9482901D02*
X-24896001Y-9732900D01*
X-24896001Y-9732900D02*
X-24896001Y-10306599D01*
X-24333200Y-10869400D02*
X-24333200Y-12123400D01*
X-24896001Y-10306599D02*
X-24333200Y-10869400D01*
X-18455981Y6496823D02*
X-16728781Y6496823D01*
X21336000Y-3149600D02*
X22072599Y-2413001D01*
X22072599Y-2413001D02*
X23373872Y-2413001D01*
X-28057181Y8298423D02*
X-28057181Y9102423D01*
X-28057181Y9102423D02*
X-27486203Y9673401D01*
X-19218337Y6496823D02*
X-18455981Y6496823D01*
X-28057181Y8298423D02*
X-29796635Y8298423D01*
X-29796635Y8298423D02*
X-29802214Y8292844D01*
X23936372Y-600501D02*
X23936372Y-1025572D01*
X23936372Y-1025572D02*
X24841200Y-1930400D01*
X24841200Y-1930400D02*
X23391271Y-1930400D01*
X23391271Y-1930400D02*
X23373872Y-1913001D01*
X23373872Y-2413001D02*
X23373872Y-1913001D01*
X33818400Y-12801600D02*
X34036000Y-13019200D01*
X34036000Y-13019200D02*
X35204400Y-14187600D01*
X20254800Y-17754600D02*
X21640800Y-16368600D01*
X21640800Y-16368600D02*
X21640800Y-15595600D01*
X24823801Y-1913001D02*
X24841200Y-1930400D01*
X-25124599Y-8456001D02*
X-25146000Y-8477402D01*
X-25146000Y-8477402D02*
X-25146000Y-9482901D01*
X3403600Y-1473200D02*
X3403600Y-1473596D01*
X3403600Y-1473596D02*
X3690667Y-1760663D01*
X6611642Y2316974D02*
X6611642Y2266974D01*
X6611642Y2266974D02*
X7569200Y1309416D01*
X7569200Y1309416D02*
X7569200Y-1473200D01*
X2372900Y-442500D02*
X3403600Y-1473200D01*
X1820058Y87829D02*
X2350387Y-442500D01*
X2350387Y-442500D02*
X2372900Y-442500D01*
D57*
X-20675600Y-4927600D02*
X-20675600Y-9466202D01*
X-20675600Y-9466202D02*
X-20692299Y-9482901D01*
D56*
X-35712400Y-4724400D02*
X-35712400Y-5703200D01*
X-35712400Y-5703200D02*
X-35700600Y-5715000D01*
X-30093310Y-7784314D02*
X-30093310Y-6928426D01*
X-30093310Y-6928426D02*
X-30073600Y-6908716D01*
D59*
X-14020800Y-1828800D02*
X-14020800Y-4934327D01*
X-14020800Y-4934327D02*
X-14020800Y-16408400D01*
D56*
X-30093310Y-7784314D02*
X-30043310Y-7784314D01*
X-30043310Y-7784314D02*
X-28905200Y-8922424D01*
X-28905200Y-8922424D02*
X-28905200Y-9989820D01*
X23936372Y-600501D02*
X23936372Y-923972D01*
X23936372Y-923972D02*
X23940773Y-928373D01*
X20254800Y-17754600D02*
X20204800Y-17754600D01*
X32600000Y-12801600D02*
X33818400Y-12801600D01*
X35204400Y-14187600D02*
X35204400Y-14237600D01*
X35495600Y14125600D02*
X35509200Y14139200D01*
X30415600Y14125600D02*
X30429200Y14139200D01*
X25335600Y14125600D02*
X25349200Y14139200D01*
X20320000Y14089200D02*
X20320000Y14139200D01*
X-9601200Y9897984D02*
X-9601200Y13405436D01*
X-9601200Y13405436D02*
X-8536042Y14470594D01*
X-8536042Y14470594D02*
X-8536042Y14520594D01*
X-11295208Y8153976D02*
X-11295208Y8203976D01*
X-11295208Y8203976D02*
X-9601200Y9897984D01*
X-10378642Y15136208D02*
X-9151656Y15136208D01*
X-9151656Y15136208D02*
X-8536042Y14520594D01*
D57*
X3657600Y7176400D02*
X3657600Y5943600D01*
X3657600Y7176400D02*
X1981200Y7176400D01*
X6611642Y2316974D02*
X6611642Y5046958D01*
X6611642Y5046958D02*
X6604000Y5054600D01*
D59*
X-14020800Y-16408400D02*
X-13004800Y-17424400D01*
D57*
X-14020800Y4318000D02*
X-14020800Y6309384D01*
X-14020800Y6309384D02*
X-12176208Y8153976D01*
X-12176208Y8153976D02*
X-11295208Y8153976D01*
D56*
X-25124599Y-8456001D02*
X-25603200Y-7977400D01*
X-25603200Y-7977400D02*
X-25603200Y-6723400D01*
X-19812000Y13430000D02*
X-18702400Y14539600D01*
X-18702400Y14539600D02*
X-18702400Y15643600D01*
X-26885000Y-6711600D02*
X-26873200Y-6723400D01*
X-25603200Y-6723400D02*
X-26873200Y-6723400D01*
X-7924800Y6875576D02*
X-7089009Y6875576D01*
X-7089009Y6875576D02*
X-5392431Y5178998D01*
X23565800Y1574800D02*
X24436372Y704228D01*
X24436372Y704228D02*
X24436372Y-600501D01*
X23565800Y1574800D02*
X23565800Y2431200D01*
X23565800Y2431200D02*
X22263200Y3733800D01*
X22263200Y3733800D02*
X22213200Y3733800D01*
X21949000Y3759200D02*
X21999000Y3759200D01*
X23565800Y2192400D02*
X23565800Y1574800D01*
X26065800Y1574800D02*
X26065800Y1174800D01*
X26065800Y1174800D02*
X24936372Y45372D01*
X24936372Y45372D02*
X24936372Y-9001D01*
X24936372Y-9001D02*
X24936372Y-600501D01*
X26065800Y1574800D02*
X26065800Y2456600D01*
X26065800Y2456600D02*
X27343000Y3733800D01*
X27343000Y3733800D02*
X27393000Y3733800D01*
X27682600Y3759200D02*
X27632600Y3759200D01*
X26065800Y2192400D02*
X26065800Y1574800D01*
X25450800Y-5689600D02*
X24936372Y-5175172D01*
X24936372Y-5175172D02*
X24936372Y-3725501D01*
X7791200Y-4162750D02*
X7791200Y-8585200D01*
X-1361922Y5532551D02*
X457200Y7351673D01*
X457200Y7351673D02*
X457200Y9906000D01*
X457200Y9906000D02*
X1219210Y10668010D01*
X1219210Y10668010D02*
X6857990Y10668010D01*
X6857990Y10668010D02*
X8534390Y8991610D01*
X8534390Y8991610D02*
X8534389Y-3419561D01*
X8534389Y-3419561D02*
X7791200Y-4162750D01*
X6577678Y-7670800D02*
X6146800Y-8101678D01*
X6577678Y-7670800D02*
X6577678Y-7665112D01*
X7384790Y-3994410D02*
X7384790Y-6858000D01*
X6577678Y-7665112D02*
X7384790Y-6858000D01*
X6146800Y-8101678D02*
X6146800Y-9085800D01*
X6146800Y-9085800D02*
X6916200Y-9855200D01*
X6916200Y-9855200D02*
X7791200Y-9855200D01*
X-1008369Y5178998D02*
X863611Y7050978D01*
X863611Y7050978D02*
X863611Y9652011D01*
X863611Y9652011D02*
X1473200Y10261600D01*
X1473200Y10261600D02*
X6578600Y10261600D01*
X8127980Y8712220D02*
X8127980Y-3251220D01*
X8127980Y-3251220D02*
X7384790Y-3994410D01*
X6578600Y10261600D02*
X8127980Y8712220D01*
X7791200Y-13665200D02*
X7791200Y-14294200D01*
X7791200Y-14294200D02*
X9768829Y-16271829D01*
X9768829Y-16271829D02*
X10337469Y-16271829D01*
X10337469Y-16271829D02*
X11316469Y-16271829D01*
X11316469Y-16271829D02*
X16476469Y-16271829D01*
X16476469Y-16271829D02*
X18209571Y-16271829D01*
X18209571Y-16271829D02*
X18504800Y-15976600D01*
X18504800Y-15976600D02*
X18504800Y-17754600D01*
X10941469Y-16271829D02*
X11316469Y-16271829D01*
X36959711Y-12130205D02*
X38343005Y-12130205D01*
X38343005Y-12130205D02*
X38379390Y-12166590D01*
X37744400Y-3962400D02*
X36382400Y-3962400D01*
X36382400Y-3962400D02*
X36351600Y-3993200D01*
X558800Y-15189200D02*
X808799Y-14939201D01*
X808799Y-14939201D02*
X808799Y-6615773D01*
X808799Y-6615773D02*
X2239086Y-5185486D01*
X2239086Y-5185486D02*
X2239086Y-4876800D01*
X9448800Y8026400D02*
X9782773Y7692427D01*
X9398000Y6654800D02*
X9398000Y-4368800D01*
X9398000Y-4368800D02*
X9546399Y-4517199D01*
X9782773Y7692427D02*
X9782773Y7039573D01*
X9782773Y7039573D02*
X9398000Y6654800D01*
X9546399Y-4517199D02*
X9546399Y-4779201D01*
X9546399Y-4779201D02*
X9296400Y-5029200D01*
X-36626800Y-10853146D02*
X-38057211Y-9422735D01*
X-36576000Y-16154400D02*
X-36576000Y-10903946D01*
X-36576000Y-10903946D02*
X-36626800Y-10853146D01*
X-38031810Y-8549214D02*
X-37402810Y-8549214D01*
X-38057211Y-9422735D02*
X-38057211Y-8574615D01*
X-38057211Y-8574615D02*
X-38031810Y-8549214D01*
X32265600Y-17297400D02*
X31565600Y-17297400D01*
X30683200Y-16415000D02*
X30683200Y-15646400D01*
X31565600Y-17297400D02*
X30683200Y-16415000D01*
X9448800Y8026400D02*
X9398000Y8026400D01*
X-12278642Y12436208D02*
X-12278642Y11981208D01*
X-12278642Y11981208D02*
X-14528800Y9731050D01*
X-14528800Y9731050D02*
X-14528800Y9042400D01*
X2239086Y-3454400D02*
X2239086Y-4876800D01*
X405845Y-1326384D02*
X989029Y-1909568D01*
X989029Y-1909568D02*
X989029Y-2204343D01*
X989029Y-2204343D02*
X2239086Y-3454400D01*
X-22452400Y15643600D02*
X-22452400Y11479600D01*
X-22452400Y11479600D02*
X-22047200Y11074400D01*
X36959711Y-10504605D02*
X39359005Y-10504605D01*
X39359005Y-10504605D02*
X39370000Y-10515600D01*
X36351600Y-5243200D02*
X39279200Y-5243200D01*
X39279200Y-5243200D02*
X39319200Y-5283200D01*
X-22961600Y11023600D02*
X-22199600Y10261600D01*
X-23702400Y15643600D02*
X-23702400Y14427200D01*
X-22961600Y11023600D02*
X-22961600Y13686400D01*
X-22961600Y13686400D02*
X-23702400Y14427200D01*
X8940800Y7024180D02*
X8940800Y-3098800D01*
X8585200Y-4318000D02*
X8585200Y-3964447D01*
X8585200Y-3964447D02*
X8940800Y-3608847D01*
X8940800Y-3608847D02*
X8940800Y-3098800D01*
X9253372Y7336752D02*
X8940800Y7024180D01*
X-36038024Y-10414000D02*
X-37402810Y-9049214D01*
X-36038024Y-10414000D02*
X-36038024Y-15930376D01*
X-36038024Y-15930376D02*
X-35763200Y-16205200D01*
X50800Y-14376400D02*
X50800Y-6577020D01*
X50800Y-6577020D02*
X1625600Y-5002220D01*
X1625600Y-5002220D02*
X1625600Y-3911600D01*
X32265600Y-18567400D02*
X31565600Y-18567400D01*
X31565600Y-18567400D02*
X30124400Y-17126200D01*
X30124400Y-17126200D02*
X30124400Y-13868400D01*
X-10378642Y12436208D02*
X-10378642Y11402208D01*
X-10378642Y11402208D02*
X-14059250Y7721600D01*
X-14059250Y7721600D02*
X-14528800Y7721600D01*
X582620Y-2210267D02*
X582620Y-2868620D01*
X582620Y-2868620D02*
X1625600Y-3911600D01*
X582620Y-2210267D02*
X52291Y-1679938D01*
X759398Y3411231D02*
X1615367Y4267200D01*
X1615367Y4267200D02*
X2641600Y4267200D01*
X20167600Y4216400D02*
X20167600Y-15939400D01*
X20167600Y-15939400D02*
X20204800Y-15976600D01*
X27998872Y-2413001D02*
X29793301Y-2413001D01*
X29793301Y-2413001D02*
X30340300Y-2960000D01*
X23723600Y-5689600D02*
X23436372Y-5402372D01*
X23436372Y-5402372D02*
X23436372Y-3725501D01*
X22352000Y-3393373D02*
X22352000Y-5478400D01*
X23373872Y-2913001D02*
X22832372Y-2913001D01*
X22832372Y-2913001D02*
X22352000Y-3393373D01*
X21386800Y-5689600D02*
X22140800Y-5689600D01*
X22140800Y-5689600D02*
X22352000Y-5478400D01*
X29413200Y9321800D02*
X29413200Y4114800D01*
X30495200Y10029200D02*
X29916200Y10029200D01*
X29916200Y10029200D02*
X29413200Y9526200D01*
X29413200Y9526200D02*
X29413200Y9321800D01*
X-7160198Y3411231D02*
X-6686333Y2937366D01*
X-6686333Y2937366D02*
X-6319677Y2937366D01*
X-5701043Y3556000D02*
X-4978400Y3556000D01*
X-6319677Y2937366D02*
X-5701043Y3556000D01*
X29413200Y3860800D02*
X29413200Y4114800D01*
X21082000Y9906000D02*
X21082000Y9423400D01*
X21082000Y9423400D02*
X21082000Y3460243D01*
X20386000Y10047600D02*
X20965000Y10047600D01*
X20965000Y10047600D02*
X21082000Y9930600D01*
X21082000Y9930600D02*
X21082000Y9423400D01*
X-5876095Y2527349D02*
X-5854651Y2527349D01*
X-5854651Y2527349D02*
X-5435600Y2946400D01*
X21082000Y3460243D02*
X20995983Y3374226D01*
X-7513751Y3057678D02*
X-6983422Y2527349D01*
X-6983422Y2527349D02*
X-5876095Y2527349D01*
X-6099538Y-2033491D02*
X-7874000Y-3807953D01*
X-7874000Y-3807953D02*
X-8483600Y-4417553D01*
X-8483600Y-4417553D02*
X-8483600Y-9982200D01*
X1397000Y-9982200D02*
X1397000Y-13816040D01*
X1397000Y-13816040D02*
X1395440Y-13817600D01*
X1395440Y-13817600D02*
X1395440Y-14927310D01*
X1395440Y-14927310D02*
X1385201Y-14937549D01*
X1385201Y-14937549D02*
X1385201Y-16574401D01*
X1385201Y-16574401D02*
X2235200Y-17424400D01*
X-23063200Y-6723400D02*
X-23063200Y-8839200D01*
X-23063200Y-8839200D02*
X-23114000Y-8890000D01*
X-23063200Y-6723400D02*
X-23063200Y-7423400D01*
X-5745984Y-2387045D02*
X-7473739Y-4114800D01*
X-7473739Y-4114800D02*
X-7946201Y-4587262D01*
X-7946201Y-4587262D02*
X-7946201Y-12627799D01*
X-7946201Y-12627799D02*
X-7416800Y-13157200D01*
X-24333200Y-10160000D02*
X-23774400Y-10718800D01*
X-24333200Y-6723400D02*
X-24333200Y-10160000D01*
X-2844800Y-17424400D02*
X-2844800Y-14677314D01*
X-2844800Y-14677314D02*
X-1930400Y-13762914D01*
X-1930400Y-13762914D02*
X-1930400Y-13157200D01*
X-5745984Y-2387045D02*
X-6276313Y-2917374D01*
X-7416800Y-12039600D02*
X-7416800Y-4764967D01*
X-7416800Y-4764967D02*
X-7223833Y-4572000D01*
X-7122233Y-4470400D02*
X-7223833Y-4572000D01*
X-7223833Y-4572000D02*
X-7387400Y-4735567D01*
X-5392431Y-2740598D02*
X-7122233Y-4470400D01*
X-7122233Y-4470400D02*
X-7122233Y-4480633D01*
X-25650520Y-10138600D02*
X-25650520Y-12076080D01*
X-25650520Y-12076080D02*
X-25603200Y-12123400D01*
X-304800Y-17424400D02*
X-1219200Y-16510000D01*
X-1219200Y-16510000D02*
X-1219200Y-12141200D01*
X-1219200Y-12141200D02*
X-1320800Y-12039600D01*
X-5866296Y-3214463D02*
X-5392431Y-2740598D01*
X-25603200Y-12123400D02*
X-25603200Y-11423400D01*
X-45074800Y8815600D02*
X-43581700Y8815600D01*
X-43581700Y8815600D02*
X-42113180Y7347080D01*
X-42113180Y7347080D02*
X-42113180Y914380D01*
X-42113180Y914380D02*
X-40436800Y-762000D01*
X-40436800Y-762000D02*
X-37541200Y-762000D01*
X-37541200Y-762000D02*
X-36728400Y-762000D01*
X-36728400Y-762000D02*
X-36068000Y-762000D01*
X-36068000Y-762000D02*
X-35915600Y-609600D01*
X-37541200Y-762000D02*
X-37490400Y-711200D01*
X-37490400Y-711200D02*
X-37490400Y-101600D01*
X2438400Y-2870200D02*
X2162999Y-2594799D01*
X2162999Y-2594799D02*
X2162999Y-2376432D01*
X2162999Y-2376432D02*
X1289727Y-1503160D01*
X1289727Y-1503160D02*
X759398Y-972831D01*
X-45074800Y8165600D02*
X-43506450Y8165600D01*
X-43506450Y8165600D02*
X-42519590Y7178740D01*
X-42519590Y7178740D02*
X-42519590Y631104D01*
X-42519590Y631104D02*
X-40643886Y-1244600D01*
X-40643886Y-1244600D02*
X-37490400Y-1244600D01*
X-36372800Y-1244600D02*
X-37490400Y-1244600D01*
X-36372800Y-1244600D02*
X-36347400Y-1244600D01*
X-36347400Y-1244600D02*
X-36220400Y-1371600D01*
X-37490400Y-1244600D02*
X-37490400Y-2101600D01*
X2692400Y-2260600D02*
X2692400Y-2198727D01*
X2692400Y-2198727D02*
X1112951Y-619278D01*
X13462000Y-7620000D02*
X13462000Y-8698000D01*
X13462000Y-8698000D02*
X13482000Y-8718000D01*
X4521200Y-7620000D02*
X4521200Y-1807682D01*
X4521200Y-1807682D02*
X1820058Y893460D01*
X1820058Y893460D02*
X1820058Y2350571D01*
X14732000Y-7112000D02*
X14732000Y-8718000D01*
X1466505Y2704124D02*
X1940370Y3177989D01*
X2895600Y2794000D02*
X2895600Y2438400D01*
X1940370Y3177989D02*
X2511611Y3177989D01*
X2286000Y1828800D02*
X2286000Y1066800D01*
X2511611Y3177989D02*
X2895600Y2794000D01*
X2286000Y1066800D02*
X5130800Y-1778000D01*
X2895600Y2438400D02*
X2286000Y1828800D01*
X5130800Y-1778000D02*
X5130800Y-7061200D01*
X3230216Y4876800D02*
X1517861Y4876800D01*
X1517861Y4876800D02*
X405845Y3764784D01*
X4986042Y2316974D02*
X4986042Y3120974D01*
X4986042Y3120974D02*
X3230216Y4876800D01*
X24333200Y9906000D02*
X24507200Y10080000D01*
X24507200Y10080000D02*
X25415200Y10080000D01*
X24333200Y5892800D02*
X24333200Y9906000D01*
X-1715476Y5886105D02*
X-812800Y6788781D01*
X-812800Y6788781D02*
X-812800Y6959600D01*
X35509200Y15839200D02*
X37541200Y15839200D01*
X-33731200Y-18430000D02*
X-31902400Y-18430000D01*
X-30073600Y-18480800D02*
X-28267700Y-18480800D01*
X36525200Y12347600D02*
X36525200Y13123200D01*
X36525200Y13123200D02*
X37541200Y14139200D01*
X31445200Y12329200D02*
X31445200Y13073200D01*
X31445200Y13073200D02*
X32461200Y14089200D01*
X32461200Y14089200D02*
X32461200Y14139200D01*
X21336000Y12347600D02*
X21336000Y13123200D01*
X21336000Y13123200D02*
X22352000Y14139200D01*
D57*
X-32283400Y16535400D02*
X-32283400Y15563800D01*
X-32283400Y15563800D02*
X-32319200Y15528000D01*
D59*
X-39326514Y5391344D02*
X-39326514Y3664144D01*
X-39326514Y5391344D02*
X-39986144Y5391344D01*
X-39986144Y5391344D02*
X-40538400Y5943600D01*
D57*
X-41643270Y4368800D02*
X-41643270Y7541722D01*
X-41643270Y4152870D02*
X-41643270Y4368800D01*
X-40233400Y1727200D02*
X-40335000Y1828800D01*
X-41643270Y3137070D02*
X-40335000Y1828800D01*
X-40335000Y1828800D02*
X-40538400Y2032200D01*
X-41643270Y4368800D02*
X-41643270Y3137070D01*
X-43567148Y9465600D02*
X-41706800Y7605252D01*
X-41643270Y7541722D02*
X-41706800Y7605252D01*
X-45074800Y9465600D02*
X-43567148Y9465600D01*
D56*
X-39390400Y-101600D02*
X-39390400Y1689200D01*
X-39390400Y1689200D02*
X-39352400Y1727200D01*
D57*
X-39352400Y1727200D02*
X-40233400Y1727200D01*
X-37626514Y3664144D02*
X-37626514Y2201314D01*
X-37626514Y2201314D02*
X-37152400Y1727200D01*
D56*
X-37138800Y2354400D02*
X-37134800Y2350400D01*
X22352000Y15839200D02*
X20320000Y15839200D01*
X35575200Y10047600D02*
X35575200Y9972000D01*
X35575200Y9972000D02*
X35001200Y9398000D01*
X-1715476Y-3447705D02*
X-2688401Y-2474780D01*
X-2688401Y-2474780D02*
X-2688401Y-199201D01*
X-2688401Y-199201D02*
X-2535999Y-46799D01*
X-2535999Y-46799D02*
X-2286000Y203200D01*
X35001200Y457200D02*
X35001200Y9398000D01*
X-2307400Y232600D02*
X-2286000Y232600D01*
X26365200Y12380000D02*
X26365200Y13123200D01*
X26365200Y13123200D02*
X27381200Y14139200D01*
X30341200Y508000D02*
X30341200Y1967600D01*
X30341200Y1967600D02*
X29768800Y2540000D01*
X30341200Y508000D02*
X28832373Y508000D01*
X28832373Y508000D02*
X27936372Y-388001D01*
X27936372Y-388001D02*
X27936372Y-600501D01*
X-8220858Y87829D02*
X-7368887Y939800D01*
X-7368887Y939800D02*
X-6604000Y939800D01*
X24925800Y-17983200D02*
X23213878Y-17983200D01*
X23213878Y-17983200D02*
X22301200Y-17070522D01*
X22301200Y-17070522D02*
X22301200Y-13563600D01*
X26865600Y-17297400D02*
X25611600Y-17297400D01*
X25611600Y-17297400D02*
X24925800Y-17983200D01*
X-4897083Y9926283D02*
X-4897083Y12053123D01*
X-4897083Y12053123D02*
X-4424561Y12525645D01*
X-4685324Y5886105D02*
X-5639544Y6840325D01*
X-5639544Y6840325D02*
X-5639544Y9183822D01*
X-5639544Y9183822D02*
X-4897083Y9926283D01*
X-3129317Y8158517D02*
X-1324643Y8158517D01*
X-1324643Y8158517D02*
X-691038Y8792122D01*
X-5130800Y7848600D02*
X-5130800Y7038687D01*
X-5130800Y7038687D02*
X-4331771Y6239658D01*
X-4826000Y8153400D02*
X-5130800Y7848600D01*
X-4012251Y8153400D02*
X-4826000Y8153400D01*
X-3129317Y8158517D02*
X-4007134Y8158517D01*
X-4007134Y8158517D02*
X-4012251Y8153400D01*
X510057Y5283210D02*
X3200400Y5283210D01*
X3200400Y5283210D02*
X3398556Y5283210D01*
X5334000Y7176400D02*
X5334000Y6372400D01*
X5334000Y6372400D02*
X4244810Y5283210D01*
X4244810Y5283210D02*
X3200400Y5283210D01*
X-301262Y4471891D02*
X510057Y5283210D01*
X5334000Y7126400D02*
X5334000Y7176400D01*
X-8797432Y5664200D02*
X-7291847Y5664200D01*
X-7291847Y5664200D02*
X-6099538Y4471891D01*
X-9552408Y6469176D02*
X-9552408Y6419176D01*
X-9552408Y6419176D02*
X-8797432Y5664200D01*
X-11295208Y6453976D02*
X-9567608Y6453976D01*
X-9567608Y6453976D02*
X-9552408Y6469176D01*
X-37872283Y11276717D02*
X-37668059Y11480941D01*
X-37668059Y11480941D02*
X-37192075Y11480941D01*
X-37872283Y10515733D02*
X-37872283Y11276717D01*
X-34735553Y11480941D02*
X-37192075Y11480941D01*
X-37872283Y10800733D02*
X-37872283Y10515733D01*
X-34735553Y11480941D02*
X-34735553Y12961647D01*
X-34735553Y12961647D02*
X-33219200Y14478000D01*
X-33219200Y14478000D02*
X-32969200Y14478000D01*
X-32969200Y14478000D02*
X-32969200Y13803000D01*
X-46668024Y313425D02*
X-46668024Y1964425D01*
X-46668024Y1964425D02*
X-46668024Y2718425D01*
X-46668024Y2718425D02*
X-44999800Y4386649D01*
X-44999800Y4386649D02*
X-44999800Y4892072D01*
X-44999800Y4892072D02*
X-44999800Y5740600D01*
D59*
X-42862500Y12421500D02*
X-42862500Y11033300D01*
X-42862500Y11033300D02*
X-41757600Y9928400D01*
D56*
X-41119933Y9290733D02*
X-41757600Y9928400D01*
X-40097283Y9290733D02*
X-41119933Y9290733D01*
D59*
X-43366399Y-5086552D02*
X-43366399Y-1016000D01*
D56*
X-42748200Y-15544800D02*
X-42748200Y-11982600D01*
X-42748200Y-11982600D02*
X-42754800Y-11976000D01*
X-30093310Y-11289514D02*
X-30143310Y-11289514D01*
X-30143310Y-11289514D02*
X-33909000Y-15055204D01*
X-33909000Y-15055204D02*
X-33909000Y-15191247D01*
X-33909000Y-15191247D02*
X-33909000Y-15544800D01*
X-40097283Y8790733D02*
X-40097283Y9290733D01*
D59*
X-42754800Y-11976000D02*
X-42754800Y-5698151D01*
X-42754800Y-5698151D02*
X-43366399Y-5086552D01*
D56*
X-31445200Y11074400D02*
X-31445200Y12877800D01*
X-31445200Y12877800D02*
X-31445200Y13004800D01*
X-31372200Y12804800D02*
X-31445200Y12877800D01*
X-29450400Y12804800D02*
X-31372200Y12804800D01*
X-31445200Y15523200D02*
X-31140400Y15828000D01*
X-31140400Y15828000D02*
X-30912400Y16056000D01*
X-30912400Y16056000D02*
X-29450400Y16056000D01*
D58*
X-32461200Y381000D02*
X-32461200Y3403600D01*
X-32461200Y3403600D02*
X-34340800Y5283200D01*
X-32461200Y-719000D02*
X-32461200Y381000D01*
D56*
X-23977181Y753223D02*
X-23953181Y729223D01*
X-23953181Y729223D02*
X-23012400Y729223D01*
X-24739600Y729223D02*
X-23985600Y729223D01*
X-23985600Y729223D02*
X-23977181Y737642D01*
X-23977181Y737642D02*
X-23977181Y753223D01*
X-34340800Y5283200D02*
X-31889172Y5283200D01*
X-31889172Y5283200D02*
X-31089600Y6082772D01*
X-31089600Y6082772D02*
X-31089600Y10718800D01*
X-31089600Y10718800D02*
X-31445200Y11074400D01*
X-35560000Y5283200D02*
X-34747200Y5283200D01*
X-34747200Y5283200D02*
X-34340800Y5283200D01*
X-34735553Y6451741D02*
X-34735553Y5294847D01*
X-34735553Y5294847D02*
X-34747200Y5283200D01*
X-34735553Y6451741D02*
X-34735553Y6107647D01*
X-31445200Y13004800D02*
X-31445200Y15523200D01*
X-24688800Y2540000D02*
X-25552400Y2540000D01*
X-23977181Y2540000D02*
X-24688800Y2540000D01*
D59*
X-34735553Y8114541D02*
X-34749153Y8128141D01*
D56*
X-35411745Y8790733D02*
X-35911745Y9290733D01*
X-35911745Y9290733D02*
X-37147283Y9290733D01*
X-37147283Y8790733D02*
X-35411745Y8790733D01*
X-35411745Y8790733D02*
X-34749153Y8128141D01*
X-39372283Y7565733D02*
X-39372283Y6919080D01*
X-39372283Y6919080D02*
X-39031803Y6578600D01*
X-23977181Y4345223D02*
X-23977181Y2540000D01*
X-23977181Y2540000D02*
X-23977181Y753223D01*
X-37147283Y8790733D02*
X-37147283Y9290733D01*
X28840800Y-12801600D02*
X30900000Y-12801600D01*
X30900000Y-12801600D02*
X30950000Y-12801600D01*
X30950000Y-12801600D02*
X32265600Y-14117200D01*
X32265600Y-14117200D02*
X32265600Y-14203400D01*
X32265600Y-14203400D02*
X32265600Y-14757400D01*
X-24477181Y4345223D02*
X-24477181Y3741223D01*
X-24477181Y3741223D02*
X-24855382Y3363022D01*
X-24855382Y3363022D02*
X-25643778Y3363022D01*
X-25643778Y3363022D02*
X-26583981Y2422819D01*
X-26583981Y1533223D02*
X-26583981Y729223D01*
X-26583981Y2422819D02*
X-26583981Y1533223D01*
X-26568400Y-2133600D02*
X-26568400Y-986358D01*
X-26568400Y-986358D02*
X-26583981Y-970777D01*
X-20284781Y2012823D02*
X-20284781Y-1813219D01*
X-20284781Y-1813219D02*
X-20269200Y-1828800D01*
X-23477181Y3741223D02*
X-21748781Y2012823D01*
X-21748781Y2012823D02*
X-20284781Y2012823D01*
X-23477181Y3741223D02*
X-23477181Y4345223D01*
X-31793310Y-11289514D02*
X-31793310Y-9562314D01*
X-31793310Y-9562314D02*
X-31843310Y-9562314D01*
X-31843310Y-9562314D02*
X-32856410Y-8549214D01*
X-32856410Y-8549214D02*
X-33873810Y-8549214D01*
X-33873810Y-8549214D02*
X-34502810Y-8549214D01*
X-31793310Y-6006314D02*
X-31793310Y-7784314D01*
X-31793310Y-7784314D02*
X-32597310Y-7784314D01*
X-32597310Y-7784314D02*
X-32862210Y-8049214D01*
X-32862210Y-8049214D02*
X-33873810Y-8049214D01*
X-33873810Y-8049214D02*
X-34502810Y-8049214D01*
X-28397200Y736600D02*
X-28397200Y1708023D01*
X-28397200Y1708023D02*
X-26212800Y3892423D01*
X-23977181Y7245223D02*
X-23977181Y7849223D01*
X-23977181Y7849223D02*
X-25271958Y9144000D01*
X-25271958Y9144000D02*
X-25859247Y9144000D01*
X-25859247Y9144000D02*
X-26212800Y9144000D01*
X-25477181Y7245223D02*
X-25146000Y7245223D01*
X-25146000Y7245223D02*
X-24977181Y7245223D01*
X-26212800Y7975600D02*
X-25482423Y7245223D01*
X-25482423Y7245223D02*
X-25146000Y7245223D01*
X-26212800Y3892423D02*
X-25929981Y3892423D01*
X-25929981Y3892423D02*
X-25477181Y4345223D01*
X-28055200Y4775200D02*
X-28055200Y6596442D01*
X-28055200Y6596442D02*
X-28057181Y6598423D01*
X-28057181Y6598423D02*
X-27303181Y6598423D01*
X-27303181Y6598423D02*
X-27076400Y6825204D01*
X-25339236Y8585200D02*
X-24477181Y7723145D01*
X-27076400Y6825204D02*
X-27076400Y8026400D01*
X-27076400Y8026400D02*
X-26517600Y8585200D01*
X-26517600Y8585200D02*
X-25339236Y8585200D01*
X-24477181Y7723145D02*
X-24477181Y7245223D01*
X-29802214Y6592844D02*
X-28062760Y6592844D01*
X-28062760Y6592844D02*
X-28057181Y6598423D01*
X32461200Y15839200D02*
X30429200Y15839200D01*
X27381200Y15839200D02*
X25349200Y15839200D01*
X-27750400Y16056000D02*
X-27750400Y14430400D01*
X-27750400Y12804800D02*
X-27750400Y11179200D01*
X1066800Y11328400D02*
X1066800Y11681953D01*
X1066800Y11681953D02*
X1066800Y14102000D01*
X19608800Y-1422400D02*
X19304000Y-1117600D01*
X19304000Y-1117600D02*
X19304000Y11226800D01*
X-711200Y15810600D02*
X1058200Y15810600D01*
X1058200Y15810600D02*
X1066800Y15802000D01*
X-3835400Y-4297629D02*
X-3835400Y-16129000D01*
X-3835400Y-16129000D02*
X-3810000Y-16154400D01*
X-4331771Y-3801258D02*
X-3835400Y-4297629D01*
X-4685324Y-3447705D02*
X-5215653Y-3978034D01*
X-5215653Y-3978034D02*
X-5215653Y-4461747D01*
X-5215653Y-4461747D02*
X-4402599Y-5274801D01*
X-4402599Y-5274801D02*
X-4402599Y-16442199D01*
X-4402599Y-16442199D02*
X-5384800Y-17424400D01*
X-45074800Y7515600D02*
X-43431200Y7515600D01*
X-43431200Y7515600D02*
X-42926000Y7010400D01*
X-42926000Y7010400D02*
X-42926000Y254000D01*
X-42926000Y254000D02*
X-40898000Y-1774000D01*
X-40898000Y-1774000D02*
X-40771000Y-1774000D01*
X-40771000Y-1774000D02*
X-40640000Y-1905000D01*
X6611642Y616974D02*
X6611642Y-246358D01*
X6611642Y-246358D02*
X6350000Y-508000D01*
X4986042Y616974D02*
X6611642Y616974D01*
D59*
X5537200Y12090400D02*
X5537200Y14884400D01*
D56*
X-17957800Y-3911600D02*
X-18311353Y-3911600D01*
X-18311353Y-3911600D02*
X-18821400Y-4421647D01*
X-18821400Y-4421647D02*
X-18821400Y-4724400D01*
X-18821400Y-9423400D02*
X-18821400Y-4724400D01*
X-196789Y-5159954D02*
X53210Y-5409953D01*
X-478040Y-3270927D02*
X-478040Y-4878703D01*
X-1008369Y-2740598D02*
X-478040Y-3270927D01*
X-478040Y-4878703D02*
X-196789Y-5159954D01*
X-6453091Y4118338D02*
X-6585449Y4118338D01*
X-6585449Y4118338D02*
X-7168634Y4701523D01*
X-7168634Y4701523D02*
X-12265677Y4701523D01*
X-12265677Y4701523D02*
X-12852390Y4114810D01*
X-12852390Y4114810D02*
X-12852390Y-2895610D01*
X-12852390Y-2895610D02*
X-12700000Y-3048000D01*
X-19685000Y-12573000D02*
X-19685000Y-16704600D01*
X-19685000Y-12573000D02*
X-19685000Y-3860800D01*
X-19685000Y-3860800D02*
X-18872200Y-3048000D01*
X-17932400Y-16730000D02*
X-16950400Y-16730000D01*
X-16950400Y-16730000D02*
X-16738600Y-16941800D01*
X-6858000Y-4913273D02*
X-6858000Y-15697200D01*
X-6858000Y-16459200D02*
X-6705600Y-16611600D01*
X-6858000Y-15697200D02*
X-6858000Y-16459200D01*
X-5038878Y-3094151D02*
X-6858000Y-4913273D01*
X-17920600Y-16941800D02*
X-17932400Y-16930000D01*
X-34848800Y-18694400D02*
X-34848800Y-17093600D01*
X-34848800Y-17093600D02*
X-34485200Y-16730000D01*
X-34485200Y-16730000D02*
X-33731200Y-16730000D01*
X-27279600Y-15595600D02*
X-28938400Y-15595600D01*
X-28938400Y-15595600D02*
X-30073600Y-16730800D01*
X-30073600Y-16730800D02*
X-30073600Y-16780800D01*
X-30073600Y-16980800D02*
X-30073600Y-16930800D01*
X10783200Y11988800D02*
X10783200Y-50800D01*
X10733200Y11988800D02*
X10783200Y11988800D01*
X-654816Y-2387045D02*
X-1162261Y-1879600D01*
X-1162261Y-1879600D02*
X-2159000Y-1879600D01*
X16143600Y14073000D02*
X15164600Y14073000D01*
X15164600Y14073000D02*
X14644000Y13552400D01*
X14644000Y13552400D02*
X14644000Y12742800D01*
X14644000Y12742800D02*
X14644000Y11988800D01*
X15164600Y14073000D02*
X10983600Y14073000D01*
X12483200Y11988800D02*
X14644000Y11988800D01*
X36351600Y-243200D02*
X36901600Y-243200D01*
X36901600Y-243200D02*
X37592000Y447200D01*
X37592000Y447200D02*
X37592000Y594278D01*
X37592000Y594278D02*
X37592000Y3098800D01*
X-8220858Y2350571D02*
X-7419687Y1549400D01*
X-7419687Y1549400D02*
X-6934200Y1549400D01*
X-34735553Y9804541D02*
X-37133475Y9804541D01*
X-37133475Y9804541D02*
X-37147283Y9790733D01*
X-38372283Y10515733D02*
X-38372283Y11732211D01*
X-38372283Y11732211D02*
X-35815953Y14288541D01*
X-38872283Y10515733D02*
X-38872283Y11531600D01*
X-37593953Y14288541D02*
X-37593953Y13484541D01*
X-37593953Y13484541D02*
X-38872283Y12206211D01*
X-38872283Y12206211D02*
X-38872283Y11531600D01*
X-39372283Y10515733D02*
X-39372283Y14237411D01*
X-39372283Y14237411D02*
X-39321153Y14288541D01*
X31191200Y2082800D02*
X31191200Y-362572D01*
X30404370Y-1149402D02*
X30354370Y-1149402D01*
X31191200Y-362572D02*
X30404370Y-1149402D01*
X27998872Y-1413001D02*
X30090771Y-1413001D01*
X30090771Y-1413001D02*
X30354370Y-1149402D01*
X28161372Y-1413001D02*
X27998872Y-1413001D01*
X-7195181Y406400D02*
X-6108099Y406400D01*
X-6108099Y406400D02*
X-6039333Y475166D01*
X-7867305Y-265724D02*
X-7195181Y406400D01*
X-6039333Y475166D02*
X-5789334Y725165D01*
X-29450400Y14430400D02*
X-30557000Y14430400D01*
X-30557000Y14430400D02*
X-30560200Y14427200D01*
X-29450400Y14630400D02*
X-29849000Y14630400D01*
X-38372283Y7565733D02*
X-38372283Y6585717D01*
X-38372283Y6585717D02*
X-38379400Y6578600D01*
X-30480000Y9779000D02*
X-30480000Y10149600D01*
X-30480000Y10149600D02*
X-29450400Y11179200D01*
X-37084000Y7112000D02*
X-37084000Y8227450D01*
X-37084000Y8227450D02*
X-37147283Y8290733D01*
X-41099153Y14288541D02*
X-41099153Y13484541D01*
X-40097283Y12482671D02*
X-40097283Y10184733D01*
X-41099153Y13484541D02*
X-40097283Y12482671D01*
X-40097283Y10184733D02*
X-40097283Y9790733D01*
X-40382283Y9790733D02*
X-40097283Y9790733D01*
X-21742400Y-454777D02*
X-21742400Y152400D01*
X-21742400Y-454777D02*
X-22258400Y-970777D01*
X-22258400Y-970777D02*
X-23012400Y-970777D01*
X-21894800Y8382000D02*
X-21894800Y8327604D01*
X-21894800Y8327604D02*
X-22977181Y7245223D01*
X-37402810Y-7549214D02*
X-37402810Y-5717210D01*
X-37402810Y-5717210D02*
X-37400600Y-5715000D01*
X-37400600Y-7547004D02*
X-37402810Y-7549214D01*
X-37402810Y-8049214D02*
X-38952586Y-8049214D01*
X-38952586Y-8049214D02*
X-39243000Y-7758800D01*
X-15036800Y-3657600D02*
X-15036800Y-10904140D01*
X-15036800Y-10904140D02*
X-14938970Y-11001970D01*
X53210Y-4079941D02*
X53210Y-4433494D01*
X175751Y-2510504D02*
X175751Y-3957400D01*
X175751Y-3957400D02*
X53210Y-4079941D01*
X-301262Y-2033491D02*
X175751Y-2510504D01*
X-12445980Y-1947006D02*
X-12001500Y-2391486D01*
X-12001500Y-2391486D02*
X-12001500Y-5080000D01*
X-7336974Y4295113D02*
X-6806645Y3764784D01*
X-12445980Y-1947006D02*
X-12445980Y3911620D01*
X-12445980Y3911620D02*
X-12062487Y4295113D01*
X-12062487Y4295113D02*
X-7336974Y4295113D01*
X-13208000Y-5080000D02*
X-13208000Y-7950200D01*
X-11112500Y-5842000D02*
X-11472099Y-5482401D01*
X-11472099Y-2332801D02*
X-12039570Y-1765330D01*
X-11472099Y-5482401D02*
X-11472099Y-2332801D01*
X-11630697Y3888703D02*
X-9051884Y3888703D01*
X-12039570Y-1765330D02*
X-12039570Y3479830D01*
X-12039570Y3479830D02*
X-11630697Y3888703D01*
X-9051884Y3888703D02*
X-7867305Y2704124D01*
X-7867305Y2704124D02*
X-8397634Y3234453D01*
X36351600Y-2743200D02*
X36901600Y-2743200D01*
X36901600Y-2743200D02*
X39217600Y-427200D01*
X39217600Y-280122D02*
X39217600Y1879600D01*
X39217600Y-427200D02*
X39217600Y-280122D01*
X-7513751Y-619278D02*
X-6983422Y-88949D01*
X-6983422Y-88949D02*
X-5854749Y-88949D01*
X-5854749Y-88949D02*
X-5080000Y685800D01*
X36351600Y-1493200D02*
X36901600Y-1493200D01*
X36901600Y-1493200D02*
X38506400Y111600D01*
X38506400Y111600D02*
X38506400Y1117610D01*
X-7160198Y-972831D02*
X-6686333Y-498966D01*
X-6686333Y-498966D02*
X-5426566Y-498966D01*
X-5426566Y-498966D02*
X-4419600Y508000D01*
X1112951Y3057678D02*
X188873Y2133600D01*
X188873Y2133600D02*
X-2794000Y2133600D01*
X-3276600Y1651000D02*
X-3276600Y-13665200D01*
X-2794000Y2133600D02*
X-3276600Y1651000D01*
X-3276600Y-13665200D02*
X-2946400Y-13995400D01*
X-26873200Y-12123400D02*
X-26873200Y-13280447D01*
X-26873200Y-13280447D02*
X-26113277Y-14040370D01*
X26865600Y-16027400D02*
X24541800Y-16027400D01*
X24541800Y-16027400D02*
X23977600Y-16591600D01*
X26165600Y-16027400D02*
X26865600Y-16027400D01*
X26865600Y-14757400D02*
X24643400Y-14757400D01*
X24643400Y-14757400D02*
X23977600Y-14091600D01*
X-1478743Y-5410200D02*
X-680455Y-6208488D01*
X-1478743Y-5410200D02*
X-1478743Y-4391544D01*
X-1478743Y-4391544D02*
X-2069029Y-3801258D01*
X-680455Y-6208488D02*
X-645626Y-6208488D01*
X-1361922Y-3094151D02*
X-1361922Y-3229335D01*
X-1361922Y-3229335D02*
X-884450Y-3706807D01*
X-884450Y-3706807D02*
X-884450Y-5047043D01*
X-884450Y-5047043D02*
X-711200Y-5220293D01*
X-711200Y-5220293D02*
X-711200Y-5394229D01*
X-711200Y-5394229D02*
X-628346Y-5477083D01*
D57*
X-9575800Y-7112000D02*
X-9575800Y-7931800D01*
X-9575800Y-7931800D02*
X-9581500Y-7937500D01*
D56*
X-39814500Y-17843500D02*
X-41440100Y-17843500D01*
X-41440100Y-17843500D02*
X-45567600Y-13716000D01*
X-21717000Y-11458200D02*
X-21717000Y-17126600D01*
X-23902300Y-4546600D02*
X-23098300Y-4546600D01*
X-23098300Y-4546600D02*
X-21717000Y-5927900D01*
X-21717000Y-6584413D02*
X-21717000Y-6937966D01*
X-21717000Y-5927900D02*
X-21717000Y-6584413D01*
D57*
X-21717000Y-6937966D02*
X-21717000Y-11458200D01*
X-21717000Y-11458200D02*
X-22382200Y-12123400D01*
X-22382200Y-12123400D02*
X-23063200Y-12123400D01*
X-45567600Y-13106400D02*
X-45567600Y-13716000D01*
X-45567600Y-5899362D02*
X-45567600Y-13106400D01*
X-45567600Y-5899362D02*
X-45567600Y-3241040D01*
X-45567600Y-3241040D02*
X-45942890Y-2865750D01*
D56*
X-19659600Y-18430000D02*
X-20413600Y-18430000D01*
X-20413600Y-18430000D02*
X-21717000Y-17126600D01*
X-19659600Y-18430000D02*
X-17932400Y-18430000D01*
X-11881500Y-6987500D02*
X-11881500Y-6408500D01*
X-11881500Y-6408500D02*
X-12657901Y-5632099D01*
X-12657901Y-5632099D02*
X-12657901Y-4715699D01*
X-12657901Y-4715699D02*
X-13258800Y-4114800D01*
X-13258800Y-4114800D02*
X-13258800Y5219700D01*
X-13258800Y5219700D02*
X-12509500Y5969000D01*
X-11881500Y-6987500D02*
X-11881500Y-7566500D01*
X-11881500Y-7566500D02*
X-10199000Y-9249000D01*
X-10199000Y-9249000D02*
X-10199000Y-10985500D01*
X-2069029Y6239658D02*
X-2069029Y6630471D01*
X-2069029Y6630471D02*
X-1270000Y7429500D01*
M02*
