G04 #@! TF.GenerationSoftware,KiCad,Pcbnew,(5.1.0-rc1-113-g51cc783e7)*
G04 #@! TF.CreationDate,2019-03-14T17:18:49-04:00
G04 #@! TF.ProjectId,fk-naturalist-sensors,666b2d6e-6174-4757-9261-6c6973742d73,rev?*
G04 #@! TF.SameCoordinates,Original*
G04 #@! TF.FileFunction,Paste,Top*
G04 #@! TF.FilePolarity,Positive*
%FSLAX46Y46*%
G04 Gerber Fmt 4.6, Leading zero omitted, Abs format (unit mm)*
G04 Created by KiCad (PCBNEW (5.1.0-rc1-113-g51cc783e7)) date 2019-03-14 17:18:49*
%MOMM*%
%LPD*%
G04 APERTURE LIST*
%ADD10R,1.000000X1.100000*%
%ADD11R,0.900000X1.600000*%
%ADD12R,0.550000X0.250000*%
%ADD13R,0.350000X1.200000*%
%ADD14R,1.100000X1.900000*%
%ADD15R,1.100000X1.000000*%
%ADD16R,1.100000X0.500000*%
%ADD17R,0.575000X0.250000*%
%ADD18R,0.250000X0.675000*%
G04 APERTURE END LIST*
D10*
X103820234Y-89488113D03*
X103820234Y-87788113D03*
X83820234Y-89488113D03*
X83820234Y-87788113D03*
X63820234Y-89488113D03*
X63820234Y-87788113D03*
X43820234Y-89488113D03*
X43820234Y-87788113D03*
X103820234Y-57488113D03*
X103820234Y-55788113D03*
X83820234Y-57488113D03*
X83820234Y-55788113D03*
X63820234Y-57488113D03*
X63820234Y-55788113D03*
X103362500Y-72451000D03*
X103362500Y-70751000D03*
X83362500Y-72451000D03*
X83362500Y-70751000D03*
X63362500Y-72451000D03*
X63362500Y-70751000D03*
X43362500Y-72451000D03*
X43362500Y-70751000D03*
X103362500Y-40451000D03*
X103362500Y-38751000D03*
X83362500Y-40451000D03*
X83362500Y-38751000D03*
X63362500Y-40451000D03*
X63362500Y-38751000D03*
D11*
X93172800Y-89216400D03*
D12*
X94347800Y-88466400D03*
X94347800Y-88966400D03*
X94347800Y-89466400D03*
X94347800Y-89966400D03*
X91997800Y-89966400D03*
X91997800Y-89466400D03*
X91997800Y-88966400D03*
X91997800Y-88466400D03*
D11*
X73172800Y-89216400D03*
D12*
X74347800Y-88466400D03*
X74347800Y-88966400D03*
X74347800Y-89466400D03*
X74347800Y-89966400D03*
X71997800Y-89966400D03*
X71997800Y-89466400D03*
X71997800Y-88966400D03*
X71997800Y-88466400D03*
D11*
X53172800Y-89216400D03*
D12*
X54347800Y-88466400D03*
X54347800Y-88966400D03*
X54347800Y-89466400D03*
X54347800Y-89966400D03*
X51997800Y-89966400D03*
X51997800Y-89466400D03*
X51997800Y-88966400D03*
X51997800Y-88466400D03*
D11*
X33172800Y-89216400D03*
D12*
X34347800Y-88466400D03*
X34347800Y-88966400D03*
X34347800Y-89466400D03*
X34347800Y-89966400D03*
X31997800Y-89966400D03*
X31997800Y-89466400D03*
X31997800Y-88966400D03*
X31997800Y-88466400D03*
D11*
X93172800Y-57216400D03*
D12*
X94347800Y-56466400D03*
X94347800Y-56966400D03*
X94347800Y-57466400D03*
X94347800Y-57966400D03*
X91997800Y-57966400D03*
X91997800Y-57466400D03*
X91997800Y-56966400D03*
X91997800Y-56466400D03*
D11*
X73172800Y-57216400D03*
D12*
X74347800Y-56466400D03*
X74347800Y-56966400D03*
X74347800Y-57466400D03*
X74347800Y-57966400D03*
X71997800Y-57966400D03*
X71997800Y-57466400D03*
X71997800Y-56966400D03*
X71997800Y-56466400D03*
D11*
X53172800Y-57216400D03*
D12*
X54347800Y-56466400D03*
X54347800Y-56966400D03*
X54347800Y-57466400D03*
X54347800Y-57966400D03*
X51997800Y-57966400D03*
X51997800Y-57466400D03*
X51997800Y-56966400D03*
X51997800Y-56466400D03*
D10*
X99513600Y-80044000D03*
X99513600Y-81744000D03*
X79513600Y-80044000D03*
X79513600Y-81744000D03*
X59513600Y-80044000D03*
X59513600Y-81744000D03*
X39513600Y-80044000D03*
X39513600Y-81744000D03*
X99513600Y-48044000D03*
X99513600Y-49744000D03*
X79513600Y-48044000D03*
X79513600Y-49744000D03*
X59513600Y-48044000D03*
X59513600Y-49744000D03*
D13*
X108139403Y-73640053D03*
X107489403Y-73640053D03*
X106839403Y-73640053D03*
X106839403Y-72140053D03*
X107489403Y-72140053D03*
X108139403Y-72140053D03*
X88139403Y-73640053D03*
X87489403Y-73640053D03*
X86839403Y-73640053D03*
X86839403Y-72140053D03*
X87489403Y-72140053D03*
X88139403Y-72140053D03*
X68139403Y-73640053D03*
X67489403Y-73640053D03*
X66839403Y-73640053D03*
X66839403Y-72140053D03*
X67489403Y-72140053D03*
X68139403Y-72140053D03*
X48139403Y-73640053D03*
X47489403Y-73640053D03*
X46839403Y-73640053D03*
X46839403Y-72140053D03*
X47489403Y-72140053D03*
X48139403Y-72140053D03*
X108139403Y-41640053D03*
X107489403Y-41640053D03*
X106839403Y-41640053D03*
X106839403Y-40140053D03*
X107489403Y-40140053D03*
X108139403Y-40140053D03*
X88139403Y-41640053D03*
X87489403Y-41640053D03*
X86839403Y-41640053D03*
X86839403Y-40140053D03*
X87489403Y-40140053D03*
X88139403Y-40140053D03*
X68139403Y-41640053D03*
X67489403Y-41640053D03*
X66839403Y-41640053D03*
X66839403Y-40140053D03*
X67489403Y-40140053D03*
X68139403Y-40140053D03*
D10*
X105204000Y-70101500D03*
X105204000Y-68401500D03*
X85204000Y-70101500D03*
X85204000Y-68401500D03*
X65204000Y-70101500D03*
X65204000Y-68401500D03*
X45204000Y-70101500D03*
X45204000Y-68401500D03*
X105204000Y-38101500D03*
X105204000Y-36401500D03*
X85204000Y-38101500D03*
X85204000Y-36401500D03*
X65204000Y-38101500D03*
X65204000Y-36401500D03*
X106855000Y-68401500D03*
X106855000Y-70101500D03*
X86855000Y-68401500D03*
X86855000Y-70101500D03*
X66855000Y-68401500D03*
X66855000Y-70101500D03*
X46855000Y-68401500D03*
X46855000Y-70101500D03*
X106855000Y-36401500D03*
X106855000Y-38101500D03*
X86855000Y-36401500D03*
X86855000Y-38101500D03*
X66855000Y-36401500D03*
X66855000Y-38101500D03*
D14*
X99392800Y-65276400D03*
X96892800Y-65276400D03*
X79392800Y-65276400D03*
X76892800Y-65276400D03*
X59392800Y-65276400D03*
X56892800Y-65276400D03*
X39392800Y-65276400D03*
X36892800Y-65276400D03*
X99392800Y-33276400D03*
X96892800Y-33276400D03*
X79392800Y-33276400D03*
X76892800Y-33276400D03*
X59392800Y-33276400D03*
X56892800Y-33276400D03*
D15*
X94928800Y-70254800D03*
X93228800Y-70254800D03*
X74928800Y-70254800D03*
X73228800Y-70254800D03*
X54928800Y-70254800D03*
X53228800Y-70254800D03*
X34928800Y-70254800D03*
X33228800Y-70254800D03*
X94928800Y-38254800D03*
X93228800Y-38254800D03*
X74928800Y-38254800D03*
X73228800Y-38254800D03*
X54928800Y-38254800D03*
X53228800Y-38254800D03*
X95057600Y-72490000D03*
X96757600Y-72490000D03*
X75057600Y-72490000D03*
X76757600Y-72490000D03*
X55057600Y-72490000D03*
X56757600Y-72490000D03*
X35057600Y-72490000D03*
X36757600Y-72490000D03*
X95057600Y-40490000D03*
X96757600Y-40490000D03*
X75057600Y-40490000D03*
X76757600Y-40490000D03*
X55057600Y-40490000D03*
X56757600Y-40490000D03*
D16*
X104706400Y-77986000D03*
X104706400Y-79236000D03*
X104706400Y-80486000D03*
X104706400Y-81736000D03*
X102206400Y-81736000D03*
X102206400Y-80486000D03*
X102206400Y-79236000D03*
X102206400Y-77986000D03*
X84706400Y-77986000D03*
X84706400Y-79236000D03*
X84706400Y-80486000D03*
X84706400Y-81736000D03*
X82206400Y-81736000D03*
X82206400Y-80486000D03*
X82206400Y-79236000D03*
X82206400Y-77986000D03*
X64706400Y-77986000D03*
X64706400Y-79236000D03*
X64706400Y-80486000D03*
X64706400Y-81736000D03*
X62206400Y-81736000D03*
X62206400Y-80486000D03*
X62206400Y-79236000D03*
X62206400Y-77986000D03*
X44706400Y-77986000D03*
X44706400Y-79236000D03*
X44706400Y-80486000D03*
X44706400Y-81736000D03*
X42206400Y-81736000D03*
X42206400Y-80486000D03*
X42206400Y-79236000D03*
X42206400Y-77986000D03*
X104706400Y-45986000D03*
X104706400Y-47236000D03*
X104706400Y-48486000D03*
X104706400Y-49736000D03*
X102206400Y-49736000D03*
X102206400Y-48486000D03*
X102206400Y-47236000D03*
X102206400Y-45986000D03*
X84706400Y-45986000D03*
X84706400Y-47236000D03*
X84706400Y-48486000D03*
X84706400Y-49736000D03*
X82206400Y-49736000D03*
X82206400Y-48486000D03*
X82206400Y-47236000D03*
X82206400Y-45986000D03*
X64706400Y-45986000D03*
X64706400Y-47236000D03*
X64706400Y-48486000D03*
X64706400Y-49736000D03*
X62206400Y-49736000D03*
X62206400Y-48486000D03*
X62206400Y-47236000D03*
X62206400Y-45986000D03*
D10*
X101140000Y-63969200D03*
X101140000Y-65669200D03*
X81140000Y-63969200D03*
X81140000Y-65669200D03*
X61140000Y-63969200D03*
X61140000Y-65669200D03*
X41140000Y-63969200D03*
X41140000Y-65669200D03*
X101140000Y-31969200D03*
X101140000Y-33669200D03*
X81140000Y-31969200D03*
X81140000Y-33669200D03*
X61140000Y-31969200D03*
X61140000Y-33669200D03*
D15*
X100364400Y-72490000D03*
X98664400Y-72490000D03*
X80364400Y-72490000D03*
X78664400Y-72490000D03*
X60364400Y-72490000D03*
X58664400Y-72490000D03*
X40364400Y-72490000D03*
X38664400Y-72490000D03*
X100364400Y-40490000D03*
X98664400Y-40490000D03*
X80364400Y-40490000D03*
X78664400Y-40490000D03*
X60364400Y-40490000D03*
X58664400Y-40490000D03*
D10*
X97841657Y-88578554D03*
X97841657Y-90278554D03*
X77841657Y-88578554D03*
X77841657Y-90278554D03*
X57841657Y-88578554D03*
X57841657Y-90278554D03*
X37841657Y-88578554D03*
X37841657Y-90278554D03*
X97841657Y-56578554D03*
X97841657Y-58278554D03*
X77841657Y-56578554D03*
X77841657Y-58278554D03*
X57841657Y-56578554D03*
X57841657Y-58278554D03*
D15*
X92322800Y-91766400D03*
X94022800Y-91766400D03*
X72322800Y-91766400D03*
X74022800Y-91766400D03*
X52322800Y-91766400D03*
X54022800Y-91766400D03*
X32322800Y-91766400D03*
X34022800Y-91766400D03*
X92322800Y-59766400D03*
X94022800Y-59766400D03*
X72322800Y-59766400D03*
X74022800Y-59766400D03*
X52322800Y-59766400D03*
X54022800Y-59766400D03*
D17*
X101471300Y-70039600D03*
X101471300Y-69539600D03*
X101471300Y-69039600D03*
X101471300Y-68539600D03*
X96846300Y-70039600D03*
X96846300Y-69539600D03*
X96846300Y-69039600D03*
X96846300Y-68539600D03*
D18*
X101408800Y-70852100D03*
X100908800Y-70852100D03*
X100408800Y-70852100D03*
X99908800Y-70852100D03*
X99408800Y-70852100D03*
X98908800Y-70852100D03*
X98408800Y-70852100D03*
X97908800Y-70852100D03*
X97408800Y-70852100D03*
X96908800Y-70852100D03*
X101408800Y-67727100D03*
X100908800Y-67727100D03*
X100408800Y-67727100D03*
X99908800Y-67727100D03*
X99408800Y-67727100D03*
X98908800Y-67727100D03*
X98408800Y-67727100D03*
X97908800Y-67727100D03*
X97408800Y-67727100D03*
X96908800Y-67727100D03*
D17*
X81471300Y-70039600D03*
X81471300Y-69539600D03*
X81471300Y-69039600D03*
X81471300Y-68539600D03*
X76846300Y-70039600D03*
X76846300Y-69539600D03*
X76846300Y-69039600D03*
X76846300Y-68539600D03*
D18*
X81408800Y-70852100D03*
X80908800Y-70852100D03*
X80408800Y-70852100D03*
X79908800Y-70852100D03*
X79408800Y-70852100D03*
X78908800Y-70852100D03*
X78408800Y-70852100D03*
X77908800Y-70852100D03*
X77408800Y-70852100D03*
X76908800Y-70852100D03*
X81408800Y-67727100D03*
X80908800Y-67727100D03*
X80408800Y-67727100D03*
X79908800Y-67727100D03*
X79408800Y-67727100D03*
X78908800Y-67727100D03*
X78408800Y-67727100D03*
X77908800Y-67727100D03*
X77408800Y-67727100D03*
X76908800Y-67727100D03*
D17*
X61471300Y-70039600D03*
X61471300Y-69539600D03*
X61471300Y-69039600D03*
X61471300Y-68539600D03*
X56846300Y-70039600D03*
X56846300Y-69539600D03*
X56846300Y-69039600D03*
X56846300Y-68539600D03*
D18*
X61408800Y-70852100D03*
X60908800Y-70852100D03*
X60408800Y-70852100D03*
X59908800Y-70852100D03*
X59408800Y-70852100D03*
X58908800Y-70852100D03*
X58408800Y-70852100D03*
X57908800Y-70852100D03*
X57408800Y-70852100D03*
X56908800Y-70852100D03*
X61408800Y-67727100D03*
X60908800Y-67727100D03*
X60408800Y-67727100D03*
X59908800Y-67727100D03*
X59408800Y-67727100D03*
X58908800Y-67727100D03*
X58408800Y-67727100D03*
X57908800Y-67727100D03*
X57408800Y-67727100D03*
X56908800Y-67727100D03*
D17*
X41471300Y-70039600D03*
X41471300Y-69539600D03*
X41471300Y-69039600D03*
X41471300Y-68539600D03*
X36846300Y-70039600D03*
X36846300Y-69539600D03*
X36846300Y-69039600D03*
X36846300Y-68539600D03*
D18*
X41408800Y-70852100D03*
X40908800Y-70852100D03*
X40408800Y-70852100D03*
X39908800Y-70852100D03*
X39408800Y-70852100D03*
X38908800Y-70852100D03*
X38408800Y-70852100D03*
X37908800Y-70852100D03*
X37408800Y-70852100D03*
X36908800Y-70852100D03*
X41408800Y-67727100D03*
X40908800Y-67727100D03*
X40408800Y-67727100D03*
X39908800Y-67727100D03*
X39408800Y-67727100D03*
X38908800Y-67727100D03*
X38408800Y-67727100D03*
X37908800Y-67727100D03*
X37408800Y-67727100D03*
X36908800Y-67727100D03*
D17*
X101471300Y-38039600D03*
X101471300Y-37539600D03*
X101471300Y-37039600D03*
X101471300Y-36539600D03*
X96846300Y-38039600D03*
X96846300Y-37539600D03*
X96846300Y-37039600D03*
X96846300Y-36539600D03*
D18*
X101408800Y-38852100D03*
X100908800Y-38852100D03*
X100408800Y-38852100D03*
X99908800Y-38852100D03*
X99408800Y-38852100D03*
X98908800Y-38852100D03*
X98408800Y-38852100D03*
X97908800Y-38852100D03*
X97408800Y-38852100D03*
X96908800Y-38852100D03*
X101408800Y-35727100D03*
X100908800Y-35727100D03*
X100408800Y-35727100D03*
X99908800Y-35727100D03*
X99408800Y-35727100D03*
X98908800Y-35727100D03*
X98408800Y-35727100D03*
X97908800Y-35727100D03*
X97408800Y-35727100D03*
X96908800Y-35727100D03*
D17*
X81471300Y-38039600D03*
X81471300Y-37539600D03*
X81471300Y-37039600D03*
X81471300Y-36539600D03*
X76846300Y-38039600D03*
X76846300Y-37539600D03*
X76846300Y-37039600D03*
X76846300Y-36539600D03*
D18*
X81408800Y-38852100D03*
X80908800Y-38852100D03*
X80408800Y-38852100D03*
X79908800Y-38852100D03*
X79408800Y-38852100D03*
X78908800Y-38852100D03*
X78408800Y-38852100D03*
X77908800Y-38852100D03*
X77408800Y-38852100D03*
X76908800Y-38852100D03*
X81408800Y-35727100D03*
X80908800Y-35727100D03*
X80408800Y-35727100D03*
X79908800Y-35727100D03*
X79408800Y-35727100D03*
X78908800Y-35727100D03*
X78408800Y-35727100D03*
X77908800Y-35727100D03*
X77408800Y-35727100D03*
X76908800Y-35727100D03*
D17*
X61471300Y-38039600D03*
X61471300Y-37539600D03*
X61471300Y-37039600D03*
X61471300Y-36539600D03*
X56846300Y-38039600D03*
X56846300Y-37539600D03*
X56846300Y-37039600D03*
X56846300Y-36539600D03*
D18*
X61408800Y-38852100D03*
X60908800Y-38852100D03*
X60408800Y-38852100D03*
X59908800Y-38852100D03*
X59408800Y-38852100D03*
X58908800Y-38852100D03*
X58408800Y-38852100D03*
X57908800Y-38852100D03*
X57408800Y-38852100D03*
X56908800Y-38852100D03*
X61408800Y-35727100D03*
X60908800Y-35727100D03*
X60408800Y-35727100D03*
X59908800Y-35727100D03*
X59408800Y-35727100D03*
X58908800Y-35727100D03*
X58408800Y-35727100D03*
X57908800Y-35727100D03*
X57408800Y-35727100D03*
X56908800Y-35727100D03*
D10*
X99568857Y-90278554D03*
X99568857Y-88578554D03*
X79568857Y-90278554D03*
X79568857Y-88578554D03*
X59568857Y-90278554D03*
X59568857Y-88578554D03*
X39568857Y-90278554D03*
X39568857Y-88578554D03*
X99568857Y-58278554D03*
X99568857Y-56578554D03*
X79568857Y-58278554D03*
X79568857Y-56578554D03*
X59568857Y-58278554D03*
X59568857Y-56578554D03*
D15*
X106690800Y-75639600D03*
X108390800Y-75639600D03*
X86690800Y-75639600D03*
X88390800Y-75639600D03*
X66690800Y-75639600D03*
X68390800Y-75639600D03*
X46690800Y-75639600D03*
X48390800Y-75639600D03*
X106690800Y-43639600D03*
X108390800Y-43639600D03*
X86690800Y-43639600D03*
X88390800Y-43639600D03*
X66690800Y-43639600D03*
X68390800Y-43639600D03*
X103856400Y-75636000D03*
X102156400Y-75636000D03*
X83856400Y-75636000D03*
X82156400Y-75636000D03*
X63856400Y-75636000D03*
X62156400Y-75636000D03*
X43856400Y-75636000D03*
X42156400Y-75636000D03*
X103856400Y-43636000D03*
X102156400Y-43636000D03*
X83856400Y-43636000D03*
X82156400Y-43636000D03*
X63856400Y-43636000D03*
X62156400Y-43636000D03*
X94928800Y-68578400D03*
X93228800Y-68578400D03*
X74928800Y-68578400D03*
X73228800Y-68578400D03*
X54928800Y-68578400D03*
X53228800Y-68578400D03*
X34928800Y-68578400D03*
X33228800Y-68578400D03*
X94928800Y-36578400D03*
X93228800Y-36578400D03*
X74928800Y-36578400D03*
X73228800Y-36578400D03*
X54928800Y-36578400D03*
X53228800Y-36578400D03*
D10*
X95145600Y-65669200D03*
X95145600Y-63969200D03*
X75145600Y-65669200D03*
X75145600Y-63969200D03*
X55145600Y-65669200D03*
X55145600Y-63969200D03*
X35145600Y-65669200D03*
X35145600Y-63969200D03*
X95145600Y-33669200D03*
X95145600Y-31969200D03*
X75145600Y-33669200D03*
X75145600Y-31969200D03*
X55145600Y-33669200D03*
X55145600Y-31969200D03*
D15*
X100442400Y-85647200D03*
X102142400Y-85647200D03*
X80442400Y-85647200D03*
X82142400Y-85647200D03*
X60442400Y-85647200D03*
X62142400Y-85647200D03*
X40442400Y-85647200D03*
X42142400Y-85647200D03*
X100442400Y-53647200D03*
X102142400Y-53647200D03*
X80442400Y-53647200D03*
X82142400Y-53647200D03*
X60442400Y-53647200D03*
X62142400Y-53647200D03*
D10*
X99513600Y-76538800D03*
X99513600Y-78238800D03*
X79513600Y-76538800D03*
X79513600Y-78238800D03*
X59513600Y-76538800D03*
X59513600Y-78238800D03*
X39513600Y-76538800D03*
X39513600Y-78238800D03*
X99513600Y-44538800D03*
X99513600Y-46238800D03*
X79513600Y-44538800D03*
X79513600Y-46238800D03*
X59513600Y-44538800D03*
X59513600Y-46238800D03*
D18*
X36908800Y-35727100D03*
X37408800Y-35727100D03*
X37908800Y-35727100D03*
X38408800Y-35727100D03*
X38908800Y-35727100D03*
X39408800Y-35727100D03*
X39908800Y-35727100D03*
X40408800Y-35727100D03*
X40908800Y-35727100D03*
X41408800Y-35727100D03*
X36908800Y-38852100D03*
X37408800Y-38852100D03*
X37908800Y-38852100D03*
X38408800Y-38852100D03*
X38908800Y-38852100D03*
X39408800Y-38852100D03*
X39908800Y-38852100D03*
X40408800Y-38852100D03*
X40908800Y-38852100D03*
X41408800Y-38852100D03*
D17*
X36846300Y-36539600D03*
X36846300Y-37039600D03*
X36846300Y-37539600D03*
X36846300Y-38039600D03*
X41471300Y-36539600D03*
X41471300Y-37039600D03*
X41471300Y-37539600D03*
X41471300Y-38039600D03*
D13*
X48139403Y-40140053D03*
X47489403Y-40140053D03*
X46839403Y-40140053D03*
X46839403Y-41640053D03*
X47489403Y-41640053D03*
X48139403Y-41640053D03*
D12*
X31997800Y-56466400D03*
X31997800Y-56966400D03*
X31997800Y-57466400D03*
X31997800Y-57966400D03*
X34347800Y-57966400D03*
X34347800Y-57466400D03*
X34347800Y-56966400D03*
X34347800Y-56466400D03*
D11*
X33172800Y-57216400D03*
D16*
X42206400Y-45986000D03*
X42206400Y-47236000D03*
X42206400Y-48486000D03*
X42206400Y-49736000D03*
X44706400Y-49736000D03*
X44706400Y-48486000D03*
X44706400Y-47236000D03*
X44706400Y-45986000D03*
D10*
X39513600Y-46238800D03*
X39513600Y-44538800D03*
D15*
X34022800Y-59766400D03*
X32322800Y-59766400D03*
X42156400Y-43636000D03*
X43856400Y-43636000D03*
X48390800Y-43639600D03*
X46690800Y-43639600D03*
D10*
X39513600Y-49744000D03*
X39513600Y-48044000D03*
X39568857Y-56578554D03*
X39568857Y-58278554D03*
X37841657Y-58278554D03*
X37841657Y-56578554D03*
X43820234Y-55788113D03*
X43820234Y-57488113D03*
D15*
X42142400Y-53647200D03*
X40442400Y-53647200D03*
D10*
X35145600Y-31969200D03*
X35145600Y-33669200D03*
D15*
X33228800Y-36578400D03*
X34928800Y-36578400D03*
X38664400Y-40490000D03*
X40364400Y-40490000D03*
D10*
X41140000Y-33669200D03*
X41140000Y-31969200D03*
X43362500Y-38751000D03*
X43362500Y-40451000D03*
D15*
X36757600Y-40490000D03*
X35057600Y-40490000D03*
X33228800Y-38254800D03*
X34928800Y-38254800D03*
D14*
X36892800Y-33276400D03*
X39392800Y-33276400D03*
D10*
X46855000Y-38101500D03*
X46855000Y-36401500D03*
X45204000Y-36401500D03*
X45204000Y-38101500D03*
M02*
