M48
; DRILL file {KiCad (5.1.0-rc1-113-g51cc783e7)} date Thursday, March 14, 2019 at 05:18:43 PM
; FORMAT={-:-/ absolute / inch / decimal}
; #@! TF.CreationDate,2019-03-14T17:18:43-04:00
; #@! TF.GenerationSoftware,Kicad,Pcbnew,(5.1.0-rc1-113-g51cc783e7)
; #@! TF.FileFunction,Plated,1,2,PTH
FMAT,2
INCH
T1C0.0157
T2C0.0403
T3C0.0984
T4C0.1063
%
G90
G05
T1
X1.2486Y-1.5565
X1.2486Y-2.8163
X1.3634Y-1.7429
X1.3634Y-1.7921
X1.3634Y-3.0027
X1.3634Y-3.0519
X1.4197Y-1.4701
X1.4197Y-2.7299
X1.4537Y-1.7141
X1.4537Y-2.9739
X1.5344Y-2.0714
X1.5344Y-3.3313
X1.5487Y-2.1481
X1.5487Y-3.4079
X1.6347Y-2.1631
X1.6347Y-3.4229
X1.6724Y-1.3733
X1.6724Y-2.6332
X1.6827Y-1.4031
X1.6827Y-2.6629
X1.7252Y-2.1436
X1.7252Y-3.4034
X1.7847Y-1.718
X1.7847Y-2.9778
X1.8122Y-1.5001
X1.8122Y-2.7599
X1.8337Y-1.8101
X1.8337Y-3.0699
X1.8357Y-1.8581
X1.8357Y-3.1179
X1.8957Y-1.5201
X1.8957Y-2.7799
X1.9297Y-1.6401
X1.9297Y-2.8999
X2.036Y-1.5565
X2.036Y-2.8163
X2.1508Y-1.7429
X2.1508Y-1.7921
X2.1508Y-3.0027
X2.1508Y-3.0519
X2.2071Y-1.4701
X2.2071Y-2.7299
X2.2411Y-1.7141
X2.2411Y-2.9739
X2.3218Y-2.0714
X2.3218Y-3.3313
X2.3361Y-2.1481
X2.3361Y-3.4079
X2.4221Y-2.1631
X2.4221Y-3.4229
X2.4598Y-1.3733
X2.4598Y-2.6332
X2.4701Y-1.4031
X2.4701Y-2.6629
X2.5126Y-2.1436
X2.5126Y-3.4034
X2.5721Y-1.718
X2.5721Y-2.9778
X2.5996Y-1.5001
X2.5996Y-2.7599
X2.6211Y-1.8101
X2.6211Y-3.0699
X2.6231Y-1.8581
X2.6231Y-3.1179
X2.6831Y-1.5201
X2.6831Y-2.7799
X2.7171Y-1.6401
X2.7171Y-2.8999
X2.8234Y-1.5565
X2.8234Y-2.8163
X2.9382Y-1.7429
X2.9382Y-1.7921
X2.9382Y-3.0027
X2.9382Y-3.0519
X2.9945Y-1.4701
X2.9945Y-2.7299
X3.0285Y-1.7141
X3.0285Y-2.9739
X3.1092Y-2.0714
X3.1092Y-3.3313
X3.1235Y-2.1481
X3.1235Y-3.4079
X3.2095Y-2.1631
X3.2095Y-3.4229
X3.2472Y-1.3733
X3.2472Y-2.6332
X3.2575Y-1.4031
X3.2575Y-2.6629
X3.3Y-2.1436
X3.3Y-3.4034
X3.3595Y-1.718
X3.3595Y-2.9778
X3.387Y-1.5001
X3.387Y-2.7599
X3.4085Y-1.8101
X3.4085Y-3.0699
X3.4105Y-1.8581
X3.4105Y-3.1179
X3.4705Y-1.5201
X3.4705Y-2.7799
X3.5045Y-1.6401
X3.5045Y-2.8999
X3.6108Y-1.5565
X3.6108Y-2.8163
X3.7256Y-1.7429
X3.7256Y-1.7921
X3.7256Y-3.0027
X3.7256Y-3.0519
X3.7819Y-1.4701
X3.7819Y-2.7299
X3.8159Y-1.7141
X3.8159Y-2.9739
X3.8966Y-2.0714
X3.8966Y-3.3313
X3.9109Y-2.1481
X3.9109Y-3.4079
X3.9969Y-2.1631
X3.9969Y-3.4229
X4.0346Y-1.3733
X4.0346Y-2.6332
X4.0449Y-1.4031
X4.0449Y-2.6629
X4.0874Y-2.1436
X4.0874Y-3.4034
X4.1469Y-1.718
X4.1469Y-2.9778
X4.1744Y-1.5001
X4.1744Y-2.7599
X4.1959Y-1.8101
X4.1959Y-3.0699
X4.1979Y-1.8581
X4.1979Y-3.1179
X4.2579Y-1.5201
X4.2579Y-2.7799
X4.2919Y-1.6401
X4.2919Y-2.8999
T2
X3.9969Y-3.4838
X3.2095Y-3.4838
X2.4221Y-3.4838
X1.6347Y-3.4838
X3.9969Y-2.2239
X3.2095Y-2.2239
X2.4221Y-2.2239
X1.6347Y-2.2239
T3
X0.9843Y-0.8661
X0.9843Y-4.0157
X4.5276Y-0.8661
X4.5276Y-4.0157
T4
X1.8504Y-1.2992
X1.8504Y-2.3228
X1.8504Y-2.5591
X1.8504Y-3.5827
X2.6378Y-1.2992
X2.6378Y-2.3228
X2.6378Y-2.5591
X2.6378Y-3.5827
X3.4252Y-1.2992
X3.4252Y-2.3228
X3.4252Y-2.5591
X3.4252Y-3.5827
X4.2126Y-1.2992
X4.2126Y-2.3228
X4.2126Y-2.5591
X4.2126Y-3.5827
T0
M30
